<?xml version="1.0" encoding="utf-8"?>
<svg xmlns="http://www.w3.org/2000/svg" xmlns:xlink="http://www.w3.org/1999/xlink" width="600" height="400" viewBox="0 0 2400 1600">
<defs>
  <clipPath id="clip270">
    <rect x="0" y="0" width="2400" height="1600"/>
  </clipPath>
</defs>
<path clip-path="url(#clip270)" d="M0 1600 L2400 1600 L2400 0 L0 0  Z" fill="#ffffff" fill-rule="evenodd" fill-opacity="1"/>
<defs>
  <clipPath id="clip271">
    <rect x="210" y="47" width="2143" height="1377"/>
  </clipPath>
</defs>
<path clip-path="url(#clip270)" d="M175.445 1407.28 L2000.49 1407.28 L2000.49 47.2441 L175.445 47.2441  Z" fill="#ffffff" fill-rule="evenodd" fill-opacity="1"/>
<defs>
  <clipPath id="clip272">
    <rect x="175" y="47" width="1826" height="1361"/>
  </clipPath>
</defs>
<polyline clip-path="url(#clip272)" style="stroke:#000000; stroke-linecap:round; stroke-linejoin:round; stroke-width:2; stroke-opacity:0.1; fill:none" points="227.097,1407.28 227.097,47.2441 "/>
<polyline clip-path="url(#clip272)" style="stroke:#000000; stroke-linecap:round; stroke-linejoin:round; stroke-width:2; stroke-opacity:0.1; fill:none" points="659.22,1407.28 659.22,47.2441 "/>
<polyline clip-path="url(#clip272)" style="stroke:#000000; stroke-linecap:round; stroke-linejoin:round; stroke-width:2; stroke-opacity:0.1; fill:none" points="796.283,1407.28 796.283,47.2441 "/>
<polyline clip-path="url(#clip272)" style="stroke:#000000; stroke-linecap:round; stroke-linejoin:round; stroke-width:2; stroke-opacity:0.1; fill:none" points="1034.96,1407.28 1034.96,47.2441 "/>
<polyline clip-path="url(#clip272)" style="stroke:#000000; stroke-linecap:round; stroke-linejoin:round; stroke-width:2; stroke-opacity:0.1; fill:none" points="1147.72,1407.28 1147.72,47.2441 "/>
<polyline clip-path="url(#clip272)" style="stroke:#000000; stroke-linecap:round; stroke-linejoin:round; stroke-width:2; stroke-opacity:0.1; fill:none" points="1386.4,1407.28 1386.4,47.2441 "/>
<polyline clip-path="url(#clip272)" style="stroke:#000000; stroke-linecap:round; stroke-linejoin:round; stroke-width:2; stroke-opacity:0.1; fill:none" points="1523.46,1407.28 1523.46,47.2441 "/>
<polyline clip-path="url(#clip272)" style="stroke:#000000; stroke-linecap:round; stroke-linejoin:round; stroke-width:2; stroke-opacity:0.1; fill:none" points="1955.59,1407.28 1955.59,47.2441 "/>
<polyline clip-path="url(#clip270)" style="stroke:#000000; stroke-linecap:round; stroke-linejoin:round; stroke-width:4; stroke-opacity:1; fill:none" points="175.445,1407.28 2000.49,1407.28 "/>
<polyline clip-path="url(#clip270)" style="stroke:#000000; stroke-linecap:round; stroke-linejoin:round; stroke-width:4; stroke-opacity:1; fill:none" points="227.097,1407.28 227.097,1388.38 "/>
<polyline clip-path="url(#clip270)" style="stroke:#000000; stroke-linecap:round; stroke-linejoin:round; stroke-width:4; stroke-opacity:1; fill:none" points="659.22,1407.28 659.22,1388.38 "/>
<polyline clip-path="url(#clip270)" style="stroke:#000000; stroke-linecap:round; stroke-linejoin:round; stroke-width:4; stroke-opacity:1; fill:none" points="796.283,1407.28 796.283,1388.38 "/>
<polyline clip-path="url(#clip270)" style="stroke:#000000; stroke-linecap:round; stroke-linejoin:round; stroke-width:4; stroke-opacity:1; fill:none" points="1034.96,1407.28 1034.96,1388.38 "/>
<polyline clip-path="url(#clip270)" style="stroke:#000000; stroke-linecap:round; stroke-linejoin:round; stroke-width:4; stroke-opacity:1; fill:none" points="1147.72,1407.28 1147.72,1388.38 "/>
<polyline clip-path="url(#clip270)" style="stroke:#000000; stroke-linecap:round; stroke-linejoin:round; stroke-width:4; stroke-opacity:1; fill:none" points="1386.4,1407.28 1386.4,1388.38 "/>
<polyline clip-path="url(#clip270)" style="stroke:#000000; stroke-linecap:round; stroke-linejoin:round; stroke-width:4; stroke-opacity:1; fill:none" points="1523.46,1407.28 1523.46,1388.38 "/>
<polyline clip-path="url(#clip270)" style="stroke:#000000; stroke-linecap:round; stroke-linejoin:round; stroke-width:4; stroke-opacity:1; fill:none" points="1955.59,1407.28 1955.59,1388.38 "/>
<path clip-path="url(#clip270)" d="M226.758 1449.7 Q227.039 1449.98 227.039 1450.38 Q227.039 1450.78 226.758 1451.06 Q226.477 1451.34 226.078 1451.34 L196.051 1451.34 Q195.653 1451.34 195.372 1451.06 Q195.09 1450.78 195.09 1450.38 Q195.09 1449.98 195.372 1449.7 Q195.653 1449.42 196.051 1449.42 L226.078 1449.42 Q226.477 1449.42 226.758 1449.7 Z" fill="#000000" fill-rule="nonzero" fill-opacity="1" /><path clip-path="url(#clip270)" d="M257.943 1442.84 Q257.943 1444.48 255.6 1444.48 L250.12 1444.48 Q249.276 1448.37 249.276 1452.11 Q249.276 1456.59 250.658 1460.03 Q250.939 1460.71 250.939 1461.08 Q250.939 1461.79 250.307 1462.35 Q249.698 1462.91 248.972 1462.91 Q248.363 1462.91 247.965 1462.44 Q247.59 1461.97 247.262 1460.5 Q246.864 1458.77 246.864 1456.84 Q246.864 1454.55 247.239 1452.35 Q247.613 1450.12 248.878 1444.48 L243.468 1444.48 L240.774 1455.09 Q239.814 1458.67 239.486 1459.77 Q239.275 1460.43 239.205 1460.64 Q239.134 1460.85 238.924 1461.37 Q238.736 1461.86 238.596 1462.04 Q238.455 1462.21 238.221 1462.47 Q237.987 1462.75 237.706 1462.82 Q237.425 1462.91 237.073 1462.91 Q236.535 1462.91 236.113 1462.56 Q235.691 1462.23 235.691 1461.6 Q235.691 1461.18 236.066 1460.45 Q240.516 1450.85 242.203 1444.48 L239.486 1444.48 Q235.738 1444.48 233.396 1448.18 Q233.021 1448.67 232.81 1448.72 Q232.717 1448.74 232.623 1448.74 Q232.365 1448.74 232.201 1448.62 Q232.061 1448.51 232.061 1448.39 L232.037 1448.27 Q232.037 1448.13 232.389 1447.5 Q232.764 1446.84 233.466 1445.84 Q234.192 1444.83 234.965 1443.96 Q235.715 1443.17 236.441 1442.67 Q237.19 1442.16 237.893 1441.97 Q238.596 1441.78 238.994 1441.74 Q239.392 1441.69 239.954 1441.69 L256.022 1441.69 Q256.631 1441.69 256.959 1441.74 Q257.287 1441.76 257.615 1442.04 Q257.943 1442.3 257.943 1442.84 Z" fill="#000000" fill-rule="nonzero" fill-opacity="1" /><path clip-path="url(#clip270)" d="M649.353 1458.22 Q649.634 1458.5 649.634 1458.9 Q649.634 1459.3 649.353 1459.58 Q649.072 1459.86 648.674 1459.86 L618.646 1459.86 Q618.248 1459.86 617.967 1459.58 Q617.686 1459.3 617.686 1458.9 Q617.686 1458.5 617.967 1458.22 Q618.248 1457.94 618.646 1457.94 L648.674 1457.94 Q649.072 1457.94 649.353 1458.22 Z" fill="#000000" fill-rule="nonzero" fill-opacity="1" /><path clip-path="url(#clip270)" d="M690.778 1427.43 Q690.778 1429.07 688.436 1429.07 L682.955 1429.07 Q682.112 1432.95 682.112 1436.7 Q682.112 1441.17 683.494 1444.62 Q683.775 1445.3 683.775 1445.67 Q683.775 1446.37 683.142 1446.94 Q682.533 1447.5 681.807 1447.5 Q681.198 1447.5 680.8 1447.03 Q680.425 1446.56 680.097 1445.09 Q679.699 1443.35 679.699 1441.43 Q679.699 1439.14 680.074 1436.94 Q680.449 1434.71 681.713 1429.07 L676.303 1429.07 L673.609 1439.68 Q672.649 1443.26 672.321 1444.36 Q672.11 1445.02 672.04 1445.23 Q671.97 1445.44 671.759 1445.95 Q671.572 1446.44 671.431 1446.63 Q671.29 1446.8 671.056 1447.05 Q670.822 1447.33 670.541 1447.41 Q670.26 1447.5 669.909 1447.5 Q669.37 1447.5 668.948 1447.15 Q668.527 1446.82 668.527 1446.19 Q668.527 1445.77 668.901 1445.04 Q673.352 1435.44 675.038 1429.07 L672.321 1429.07 Q668.573 1429.07 666.231 1432.77 Q665.856 1433.26 665.646 1433.3 Q665.552 1433.33 665.458 1433.33 Q665.201 1433.33 665.037 1433.21 Q664.896 1433.09 664.896 1432.98 L664.873 1432.86 Q664.873 1432.72 665.224 1432.09 Q665.599 1431.43 666.301 1430.42 Q667.028 1429.42 667.801 1428.55 Q668.55 1427.75 669.276 1427.26 Q670.026 1426.75 670.728 1426.56 Q671.431 1426.37 671.829 1426.32 Q672.227 1426.28 672.789 1426.28 L688.857 1426.28 Q689.466 1426.28 689.794 1426.32 Q690.122 1426.35 690.45 1426.63 Q690.778 1426.89 690.778 1427.43 Z" fill="#000000" fill-rule="nonzero" fill-opacity="1" /><path clip-path="url(#clip270)" d="M664.873 1460.29 L695.633 1460.29 L695.633 1457.73 L664.873 1457.73  Z" fill="#000000" fill-rule="evenodd" fill-opacity="1"/>
<path clip-path="url(#clip270)" d="M667.873 1502.17 Q667.873 1501.31 667.943 1501.05 Q668.037 1500.79 668.411 1500.39 L677.616 1490.13 Q682.652 1484.46 682.652 1479.52 Q682.652 1476.31 680.966 1474.02 Q679.303 1471.72 676.235 1471.72 Q674.126 1471.72 672.346 1473.01 Q670.566 1474.3 669.746 1476.59 Q669.887 1476.55 670.379 1476.55 Q671.573 1476.55 672.229 1477.3 Q672.909 1478.05 672.909 1479.05 Q672.909 1480.34 672.065 1480.97 Q671.246 1481.58 670.426 1481.58 Q670.098 1481.58 669.653 1481.51 Q669.231 1481.44 668.552 1480.79 Q667.873 1480.11 667.873 1478.91 Q667.873 1475.56 670.402 1472.89 Q672.955 1470.22 676.843 1470.22 Q681.247 1470.22 684.128 1472.85 Q687.032 1475.45 687.032 1479.52 Q687.032 1480.95 686.587 1482.26 Q686.166 1483.55 685.58 1484.56 Q685.018 1485.57 683.472 1487.18 Q681.926 1488.8 680.685 1489.95 Q679.443 1491.09 676.656 1493.53 L671.573 1498.47 L680.216 1498.47 Q684.432 1498.47 684.76 1498.1 Q685.229 1497.42 685.814 1493.83 L687.032 1493.83 L685.674 1502.17 L667.873 1502.17 Z" fill="#000000" fill-rule="nonzero" fill-opacity="1" /><path clip-path="url(#clip270)" d="M782.694 1449.82 Q782.975 1450.1 782.975 1450.5 Q782.975 1450.9 782.694 1451.18 Q782.413 1451.46 782.015 1451.46 L751.988 1451.46 Q751.589 1451.46 751.308 1451.18 Q751.027 1450.9 751.027 1450.5 Q751.027 1450.1 751.308 1449.82 Q751.589 1449.54 751.988 1449.54 L782.015 1449.54 Q782.413 1449.54 782.694 1449.82 Z" fill="#000000" fill-rule="nonzero" fill-opacity="1" /><path clip-path="url(#clip270)" d="M787.974 1454.72 L789.169 1454.72 Q789.848 1457.97 790.176 1458.46 Q790.644 1459.28 792.682 1459.38 Q793.104 1459.38 793.83 1459.38 L797.039 1459.38 Q796.453 1457.18 794.978 1454.65 Q793.502 1452.09 792.097 1450.2 Q790.715 1448.3 789.614 1445.72 Q788.513 1443.12 788.513 1440.66 Q788.513 1435.77 792.729 1432.23 Q796.945 1428.67 803.129 1428.67 Q809.312 1428.67 813.552 1432.21 Q817.814 1435.72 817.814 1440.66 Q817.814 1443.1 816.714 1445.68 Q815.613 1448.25 814.231 1450.15 Q812.872 1452.05 811.35 1454.62 Q809.851 1457.18 809.265 1459.38 L812.544 1459.38 Q815.238 1459.38 815.777 1458.89 Q816.315 1458.37 816.901 1455.68 Q816.995 1455.04 817.088 1454.72 L818.33 1454.72 L816.76 1462.49 L809.078 1462.49 Q808.445 1462.49 808.164 1462.31 Q807.883 1462.12 807.883 1461.44 Q807.883 1458.18 810.366 1451.18 Q812.872 1444.18 812.872 1440.66 Q812.872 1435.44 809.898 1432.58 Q806.923 1429.73 803.129 1429.73 Q799.381 1429.73 796.406 1432.56 Q793.455 1435.39 793.455 1440.66 Q793.455 1444.22 795.938 1451.2 Q798.444 1458.18 798.444 1461.39 Q798.444 1462.17 798.14 1462.33 Q797.859 1462.49 796.898 1462.49 L789.567 1462.49 L787.974 1454.72 Z" fill="#000000" fill-rule="nonzero" fill-opacity="1" /><path clip-path="url(#clip270)" d="M823.141 1475.78 Q823.141 1475.18 823.19 1475 Q823.256 1474.82 823.518 1474.54 L829.962 1467.35 Q833.487 1463.39 833.487 1459.93 Q833.487 1457.68 832.306 1456.07 Q831.142 1454.47 828.994 1454.47 Q827.519 1454.47 826.273 1455.37 Q825.027 1456.27 824.453 1457.88 Q824.551 1457.85 824.895 1457.85 Q825.732 1457.85 826.191 1458.37 Q826.666 1458.89 826.666 1459.6 Q826.666 1460.5 826.076 1460.94 Q825.502 1461.37 824.928 1461.37 Q824.699 1461.37 824.387 1461.32 Q824.092 1461.27 823.617 1460.81 Q823.141 1460.34 823.141 1459.5 Q823.141 1457.16 824.912 1455.29 Q826.699 1453.42 829.421 1453.42 Q832.503 1453.42 834.52 1455.25 Q836.553 1457.07 836.553 1459.93 Q836.553 1460.93 836.241 1461.85 Q835.946 1462.75 835.536 1463.45 Q835.143 1464.16 834.061 1465.29 Q832.979 1466.42 832.11 1467.22 Q831.241 1468.03 829.29 1469.73 L825.732 1473.19 L831.782 1473.19 Q834.733 1473.19 834.962 1472.93 Q835.29 1472.45 835.7 1469.95 L836.553 1469.95 L835.602 1475.78 L823.141 1475.78 Z" fill="#000000" fill-rule="nonzero" fill-opacity="1" /><path clip-path="url(#clip270)" d="M1022.53 1449.82 Q1022.81 1450.1 1022.81 1450.5 Q1022.81 1450.9 1022.53 1451.18 Q1022.25 1451.46 1021.85 1451.46 L991.821 1451.46 Q991.423 1451.46 991.142 1451.18 Q990.861 1450.9 990.861 1450.5 Q990.861 1450.1 991.142 1449.82 Q991.423 1449.54 991.821 1449.54 L1021.85 1449.54 Q1022.25 1449.54 1022.53 1449.82 Z" fill="#000000" fill-rule="nonzero" fill-opacity="1" /><path clip-path="url(#clip270)" d="M1027.81 1454.72 L1029 1454.72 Q1029.68 1457.97 1030.01 1458.46 Q1030.48 1459.28 1032.52 1459.38 Q1032.94 1459.38 1033.66 1459.38 L1036.87 1459.38 Q1036.29 1457.18 1034.81 1454.65 Q1033.34 1452.09 1031.93 1450.2 Q1030.55 1448.3 1029.45 1445.72 Q1028.35 1443.12 1028.35 1440.66 Q1028.35 1435.77 1032.56 1432.23 Q1036.78 1428.67 1042.96 1428.67 Q1049.15 1428.67 1053.39 1432.21 Q1057.65 1435.72 1057.65 1440.66 Q1057.65 1443.1 1056.55 1445.68 Q1055.45 1448.25 1054.06 1450.15 Q1052.71 1452.05 1051.18 1454.62 Q1049.68 1457.18 1049.1 1459.38 L1052.38 1459.38 Q1055.07 1459.38 1055.61 1458.89 Q1056.15 1458.37 1056.73 1455.68 Q1056.83 1455.04 1056.92 1454.72 L1058.16 1454.72 L1056.59 1462.49 L1048.91 1462.49 Q1048.28 1462.49 1048 1462.31 Q1047.72 1462.12 1047.72 1461.44 Q1047.72 1458.18 1050.2 1451.18 Q1052.71 1444.18 1052.71 1440.66 Q1052.71 1435.44 1049.73 1432.58 Q1046.76 1429.73 1042.96 1429.73 Q1039.21 1429.73 1036.24 1432.56 Q1033.29 1435.39 1033.29 1440.66 Q1033.29 1444.22 1035.77 1451.2 Q1038.28 1458.18 1038.28 1461.39 Q1038.28 1462.17 1037.97 1462.33 Q1037.69 1462.49 1036.73 1462.49 L1029.4 1462.49 L1027.81 1454.72 Z" fill="#000000" fill-rule="nonzero" fill-opacity="1" /><path clip-path="url(#clip270)" d="M1062.98 1456.62 L1062.98 1455.57 Q1067.01 1455.57 1069.09 1453.42 Q1069.66 1453.42 1069.76 1453.55 Q1069.86 1453.68 1069.86 1454.29 L1069.86 1473.13 Q1069.86 1474.13 1070.35 1474.44 Q1070.84 1474.75 1072.99 1474.75 L1074.06 1474.75 L1074.06 1475.78 Q1072.88 1475.68 1068.62 1475.68 Q1064.35 1475.68 1063.19 1475.78 L1063.19 1474.75 L1064.25 1474.75 Q1066.37 1474.75 1066.88 1474.45 Q1067.39 1474.14 1067.39 1473.13 L1067.39 1455.73 Q1065.63 1456.62 1062.98 1456.62 Z" fill="#000000" fill-rule="nonzero" fill-opacity="1" /><path clip-path="url(#clip270)" d="M1122.09 1454.72 L1123.29 1454.72 Q1123.97 1457.97 1124.29 1458.46 Q1124.76 1459.28 1126.8 1459.38 Q1127.22 1459.38 1127.95 1459.38 L1131.16 1459.38 Q1130.57 1457.18 1129.09 1454.65 Q1127.62 1452.09 1126.21 1450.2 Q1124.83 1448.3 1123.73 1445.72 Q1122.63 1443.12 1122.63 1440.66 Q1122.63 1435.77 1126.85 1432.23 Q1131.06 1428.67 1137.25 1428.67 Q1143.43 1428.67 1147.67 1432.21 Q1151.93 1435.72 1151.93 1440.66 Q1151.93 1443.1 1150.83 1445.68 Q1149.73 1448.25 1148.35 1450.15 Q1146.99 1452.05 1145.47 1454.62 Q1143.97 1457.18 1143.38 1459.38 L1146.66 1459.38 Q1149.36 1459.38 1149.89 1458.89 Q1150.43 1458.37 1151.02 1455.68 Q1151.11 1455.04 1151.21 1454.72 L1152.45 1454.72 L1150.88 1462.49 L1143.2 1462.49 Q1142.56 1462.49 1142.28 1462.31 Q1142 1462.12 1142 1461.44 Q1142 1458.18 1144.48 1451.18 Q1146.99 1444.18 1146.99 1440.66 Q1146.99 1435.44 1144.01 1432.58 Q1141.04 1429.73 1137.25 1429.73 Q1133.5 1429.73 1130.52 1432.56 Q1127.57 1435.39 1127.57 1440.66 Q1127.57 1444.22 1130.06 1451.2 Q1132.56 1458.18 1132.56 1461.39 Q1132.56 1462.17 1132.26 1462.33 Q1131.98 1462.49 1131.02 1462.49 L1123.68 1462.49 L1122.09 1454.72 Z" fill="#000000" fill-rule="nonzero" fill-opacity="1" /><path clip-path="url(#clip270)" d="M1157.26 1456.62 L1157.26 1455.57 Q1161.29 1455.57 1163.37 1453.42 Q1163.95 1453.42 1164.05 1453.55 Q1164.14 1453.68 1164.14 1454.29 L1164.14 1473.13 Q1164.14 1474.13 1164.64 1474.44 Q1165.13 1474.75 1167.28 1474.75 L1168.34 1474.75 L1168.34 1475.78 Q1167.16 1475.68 1162.9 1475.68 Q1158.64 1475.68 1157.47 1475.78 L1157.47 1474.75 L1158.54 1474.75 Q1160.65 1474.75 1161.16 1474.45 Q1161.67 1474.14 1161.67 1473.13 L1161.67 1455.73 Q1159.91 1456.62 1157.26 1456.62 Z" fill="#000000" fill-rule="nonzero" fill-opacity="1" /><path clip-path="url(#clip270)" d="M1359.62 1454.72 L1360.81 1454.72 Q1361.49 1457.97 1361.82 1458.46 Q1362.29 1459.28 1364.33 1459.38 Q1364.75 1459.38 1365.47 1459.38 L1368.68 1459.38 Q1368.1 1457.18 1366.62 1454.65 Q1365.15 1452.09 1363.74 1450.2 Q1362.36 1448.3 1361.26 1445.72 Q1360.16 1443.12 1360.16 1440.66 Q1360.16 1435.77 1364.37 1432.23 Q1368.59 1428.67 1374.77 1428.67 Q1380.96 1428.67 1385.19 1432.21 Q1389.46 1435.72 1389.46 1440.66 Q1389.46 1443.1 1388.36 1445.68 Q1387.26 1448.25 1385.87 1450.15 Q1384.52 1452.05 1382.99 1454.62 Q1381.49 1457.18 1380.91 1459.38 L1384.19 1459.38 Q1386.88 1459.38 1387.42 1458.89 Q1387.96 1458.37 1388.54 1455.68 Q1388.64 1455.04 1388.73 1454.72 L1389.97 1454.72 L1388.4 1462.49 L1380.72 1462.49 Q1380.09 1462.49 1379.81 1462.31 Q1379.53 1462.12 1379.53 1461.44 Q1379.53 1458.18 1382.01 1451.18 Q1384.52 1444.18 1384.52 1440.66 Q1384.52 1435.44 1381.54 1432.58 Q1378.57 1429.73 1374.77 1429.73 Q1371.02 1429.73 1368.05 1432.56 Q1365.1 1435.39 1365.1 1440.66 Q1365.1 1444.22 1367.58 1451.2 Q1370.09 1458.18 1370.09 1461.39 Q1370.09 1462.17 1369.78 1462.33 Q1369.5 1462.49 1368.54 1462.49 L1361.21 1462.49 L1359.62 1454.72 Z" fill="#000000" fill-rule="nonzero" fill-opacity="1" /><path clip-path="url(#clip270)" d="M1394.78 1475.78 Q1394.78 1475.18 1394.83 1475 Q1394.9 1474.82 1395.16 1474.54 L1401.61 1467.35 Q1405.13 1463.39 1405.13 1459.93 Q1405.13 1457.68 1403.95 1456.07 Q1402.79 1454.47 1400.64 1454.47 Q1399.16 1454.47 1397.92 1455.37 Q1396.67 1456.27 1396.1 1457.88 Q1396.19 1457.85 1396.54 1457.85 Q1397.38 1457.85 1397.83 1458.37 Q1398.31 1458.89 1398.31 1459.6 Q1398.31 1460.5 1397.72 1460.94 Q1397.15 1461.37 1396.57 1461.37 Q1396.34 1461.37 1396.03 1461.32 Q1395.74 1461.27 1395.26 1460.81 Q1394.78 1460.34 1394.78 1459.5 Q1394.78 1457.16 1396.56 1455.29 Q1398.34 1453.42 1401.06 1453.42 Q1404.15 1453.42 1406.16 1455.25 Q1408.2 1457.07 1408.2 1459.93 Q1408.2 1460.93 1407.88 1461.85 Q1407.59 1462.75 1407.18 1463.45 Q1406.79 1464.16 1405.7 1465.29 Q1404.62 1466.42 1403.75 1467.22 Q1402.88 1468.03 1400.93 1469.73 L1397.38 1473.19 L1403.43 1473.19 Q1406.38 1473.19 1406.61 1472.93 Q1406.93 1472.45 1407.34 1469.95 L1408.2 1469.95 L1407.25 1475.78 L1394.78 1475.78 Z" fill="#000000" fill-rule="nonzero" fill-opacity="1" /><path clip-path="url(#clip270)" d="M1536.55 1427.43 Q1536.55 1429.07 1534.21 1429.07 L1528.73 1429.07 Q1527.88 1432.95 1527.88 1436.7 Q1527.88 1441.17 1529.26 1444.62 Q1529.55 1445.3 1529.55 1445.67 Q1529.55 1446.37 1528.91 1446.94 Q1528.3 1447.5 1527.58 1447.5 Q1526.97 1447.5 1526.57 1447.03 Q1526.2 1446.56 1525.87 1445.09 Q1525.47 1443.35 1525.47 1441.43 Q1525.47 1439.14 1525.84 1436.94 Q1526.22 1434.71 1527.48 1429.07 L1522.07 1429.07 L1519.38 1439.68 Q1518.42 1443.26 1518.09 1444.36 Q1517.88 1445.02 1517.81 1445.23 Q1517.74 1445.44 1517.53 1445.95 Q1517.34 1446.44 1517.2 1446.63 Q1517.06 1446.8 1516.83 1447.05 Q1516.59 1447.33 1516.31 1447.41 Q1516.03 1447.5 1515.68 1447.5 Q1515.14 1447.5 1514.72 1447.15 Q1514.3 1446.82 1514.3 1446.19 Q1514.3 1445.77 1514.67 1445.04 Q1519.12 1435.44 1520.81 1429.07 L1518.09 1429.07 Q1514.34 1429.07 1512 1432.77 Q1511.63 1433.26 1511.42 1433.3 Q1511.32 1433.33 1511.23 1433.33 Q1510.97 1433.33 1510.81 1433.21 Q1510.67 1433.09 1510.67 1432.98 L1510.64 1432.86 Q1510.64 1432.72 1510.99 1432.09 Q1511.37 1431.43 1512.07 1430.42 Q1512.8 1429.42 1513.57 1428.55 Q1514.32 1427.75 1515.05 1427.26 Q1515.8 1426.75 1516.5 1426.56 Q1517.2 1426.37 1517.6 1426.32 Q1518 1426.28 1518.56 1426.28 L1534.63 1426.28 Q1535.24 1426.28 1535.57 1426.32 Q1535.89 1426.35 1536.22 1426.63 Q1536.55 1426.89 1536.55 1427.43 Z" fill="#000000" fill-rule="nonzero" fill-opacity="1" /><path clip-path="url(#clip270)" d="M1510.64 1460.29 L1541.4 1460.29 L1541.4 1457.73 L1510.64 1457.73  Z" fill="#000000" fill-rule="evenodd" fill-opacity="1"/>
<path clip-path="url(#clip270)" d="M1513.64 1502.17 Q1513.64 1501.31 1513.71 1501.05 Q1513.81 1500.79 1514.18 1500.39 L1523.39 1490.13 Q1528.42 1484.46 1528.42 1479.52 Q1528.42 1476.31 1526.74 1474.02 Q1525.07 1471.72 1522.01 1471.72 Q1519.9 1471.72 1518.12 1473.01 Q1516.34 1474.3 1515.52 1476.59 Q1515.66 1476.55 1516.15 1476.55 Q1517.34 1476.55 1518 1477.3 Q1518.68 1478.05 1518.68 1479.05 Q1518.68 1480.34 1517.84 1480.97 Q1517.02 1481.58 1516.2 1481.58 Q1515.87 1481.58 1515.42 1481.51 Q1515 1481.44 1514.32 1480.79 Q1513.64 1480.11 1513.64 1478.91 Q1513.64 1475.56 1516.17 1472.89 Q1518.73 1470.22 1522.61 1470.22 Q1527.02 1470.22 1529.9 1472.85 Q1532.8 1475.45 1532.8 1479.52 Q1532.8 1480.95 1532.36 1482.26 Q1531.94 1483.55 1531.35 1484.56 Q1530.79 1485.57 1529.24 1487.18 Q1527.7 1488.8 1526.46 1489.95 Q1525.21 1491.09 1522.43 1493.53 L1517.34 1498.47 L1525.99 1498.47 Q1530.2 1498.47 1530.53 1498.1 Q1531 1497.42 1531.59 1493.83 L1532.8 1493.83 L1531.44 1502.17 L1513.64 1502.17 Z" fill="#000000" fill-rule="nonzero" fill-opacity="1" /><path clip-path="url(#clip270)" d="M1967.96 1442.84 Q1967.96 1444.48 1965.62 1444.48 L1960.13 1444.48 Q1959.29 1448.37 1959.29 1452.11 Q1959.29 1456.59 1960.67 1460.03 Q1960.95 1460.71 1960.95 1461.08 Q1960.95 1461.79 1960.32 1462.35 Q1959.71 1462.91 1958.99 1462.91 Q1958.38 1462.91 1957.98 1462.44 Q1957.61 1461.97 1957.28 1460.5 Q1956.88 1458.77 1956.88 1456.84 Q1956.88 1454.55 1957.25 1452.35 Q1957.63 1450.12 1958.89 1444.48 L1953.48 1444.48 L1950.79 1455.09 Q1949.83 1458.67 1949.5 1459.77 Q1949.29 1460.43 1949.22 1460.64 Q1949.15 1460.85 1948.94 1461.37 Q1948.75 1461.86 1948.61 1462.04 Q1948.47 1462.21 1948.24 1462.47 Q1948 1462.75 1947.72 1462.82 Q1947.44 1462.91 1947.09 1462.91 Q1946.55 1462.91 1946.13 1462.56 Q1945.71 1462.23 1945.71 1461.6 Q1945.71 1461.18 1946.08 1460.45 Q1950.53 1450.85 1952.22 1444.48 L1949.5 1444.48 Q1945.75 1444.48 1943.41 1448.18 Q1943.04 1448.67 1942.83 1448.72 Q1942.73 1448.74 1942.64 1448.74 Q1942.38 1448.74 1942.22 1448.62 Q1942.08 1448.51 1942.08 1448.39 L1942.05 1448.27 Q1942.05 1448.13 1942.4 1447.5 Q1942.78 1446.84 1943.48 1445.84 Q1944.21 1444.83 1944.98 1443.96 Q1945.73 1443.17 1946.46 1442.67 Q1947.21 1442.16 1947.91 1441.97 Q1948.61 1441.78 1949.01 1441.74 Q1949.41 1441.69 1949.97 1441.69 L1966.04 1441.69 Q1966.65 1441.69 1966.97 1441.74 Q1967.3 1441.76 1967.63 1442.04 Q1967.96 1442.3 1967.96 1442.84 Z" fill="#000000" fill-rule="nonzero" fill-opacity="1" /><path clip-path="url(#clip270)" d="M1106.63 1537.01 Q1106.63 1540.01 1105.12 1545.81 Q1104.51 1548.32 1103.67 1550.6 Q1102.86 1552.86 1101.67 1555.05 Q1100.48 1557.24 1099.1 1558.82 Q1097.71 1560.36 1095.91 1561.33 Q1094.1 1562.29 1092.11 1562.29 Q1088.95 1562.29 1087.08 1560.43 Q1085.25 1558.53 1084.67 1555.27 Q1080.35 1562.29 1074.59 1562.29 Q1071.01 1562.29 1069.34 1559.75 Q1067.66 1557.17 1067.66 1552.86 Q1067.66 1549.22 1068.63 1545.45 Q1070.46 1538.3 1074.04 1533.31 Q1074.52 1532.73 1075.23 1532.73 Q1075.65 1532.73 1075.84 1532.86 Q1076.42 1533.21 1076.42 1533.79 Q1076.42 1534.21 1076.1 1534.63 Q1073.85 1537.75 1072.36 1540.43 Q1070.88 1543.1 1070.21 1545.81 Q1069.69 1548.12 1069.69 1550.09 Q1069.69 1553.41 1071.11 1555.47 Q1072.56 1557.53 1075.42 1557.53 Q1078.06 1557.53 1080.38 1555.89 Q1082.7 1554.21 1084.41 1551.41 Q1084.51 1548.35 1085.25 1545.45 Q1085.92 1542.36 1087.5 1542.36 Q1088.76 1542.36 1088.76 1544.07 Q1088.76 1544.65 1088.5 1545.81 Q1087.79 1548.87 1086.5 1551.6 Q1086.95 1554.28 1088.63 1555.92 Q1090.3 1557.53 1092.98 1557.53 Q1095.46 1557.53 1097.65 1555.72 Q1099.87 1553.92 1101.29 1551.28 Q1102.73 1548.61 1103.54 1545.45 Q1103.8 1544.39 1103.8 1543.04 Q1103.8 1539.43 1101.29 1537.21 Q1100.58 1536.5 1100.58 1535.56 Q1100.58 1534.47 1101.48 1533.47 Q1102.54 1532.41 1103.8 1532.41 Q1104.73 1532.41 1105.31 1532.99 Q1106.63 1534.15 1106.63 1537.01 Z" fill="#000000" fill-rule="nonzero" fill-opacity="1" /><polyline clip-path="url(#clip270)" style="stroke:#000000; stroke-linecap:round; stroke-linejoin:round; stroke-width:4; stroke-opacity:1; fill:none" points="175.445,1407.28 175.445,47.2441 "/>
<polyline clip-path="url(#clip270)" style="stroke:#000000; stroke-linecap:round; stroke-linejoin:round; stroke-width:4; stroke-opacity:1; fill:none" points="175.445,1370.27 194.343,1370.27 "/>
<polyline clip-path="url(#clip270)" style="stroke:#000000; stroke-linecap:round; stroke-linejoin:round; stroke-width:4; stroke-opacity:1; fill:none" points="175.445,994.6 194.343,994.6 "/>
<polyline clip-path="url(#clip270)" style="stroke:#000000; stroke-linecap:round; stroke-linejoin:round; stroke-width:4; stroke-opacity:1; fill:none" points="175.445,618.93 194.343,618.93 "/>
<polyline clip-path="url(#clip270)" style="stroke:#000000; stroke-linecap:round; stroke-linejoin:round; stroke-width:4; stroke-opacity:1; fill:none" points="175.445,243.26 194.343,243.26 "/>
<path clip-path="url(#clip270)" d="M127.501 1356.07 Q123.89 1356.07 122.061 1359.63 Q120.255 1363.18 120.255 1370.3 Q120.255 1377.41 122.061 1380.98 Q123.89 1384.52 127.501 1384.52 Q131.135 1384.52 132.941 1380.98 Q134.769 1377.41 134.769 1370.3 Q134.769 1363.18 132.941 1359.63 Q131.135 1356.07 127.501 1356.07 M127.501 1352.37 Q133.311 1352.37 136.367 1356.97 Q139.445 1361.55 139.445 1370.3 Q139.445 1379.03 136.367 1383.64 Q133.311 1388.22 127.501 1388.22 Q121.691 1388.22 118.612 1383.64 Q115.556 1379.03 115.556 1370.3 Q115.556 1361.55 118.612 1356.97 Q121.691 1352.37 127.501 1352.37 Z" fill="#000000" fill-rule="nonzero" fill-opacity="1" /><path clip-path="url(#clip270)" d="M123.126 1007.94 L139.445 1007.94 L139.445 1011.88 L117.501 1011.88 L117.501 1007.94 Q120.163 1005.19 124.746 1000.56 Q129.353 995.908 130.533 994.565 Q132.779 992.042 133.658 990.306 Q134.561 988.547 134.561 986.857 Q134.561 984.102 132.617 982.366 Q130.695 980.63 127.593 980.63 Q125.394 980.63 122.941 981.394 Q120.51 982.158 117.732 983.709 L117.732 978.987 Q120.556 977.852 123.01 977.274 Q125.464 976.695 127.501 976.695 Q132.871 976.695 136.066 979.38 Q139.26 982.065 139.26 986.556 Q139.26 988.686 138.45 990.607 Q137.663 992.505 135.556 995.098 Q134.978 995.769 131.876 998.987 Q128.774 1002.18 123.126 1007.94 Z" fill="#000000" fill-rule="nonzero" fill-opacity="1" /><path clip-path="url(#clip270)" d="M129.862 605.724 L118.056 624.173 L129.862 624.173 L129.862 605.724 M128.635 601.65 L134.515 601.65 L134.515 624.173 L139.445 624.173 L139.445 628.062 L134.515 628.062 L134.515 636.21 L129.862 636.21 L129.862 628.062 L114.26 628.062 L114.26 623.548 L128.635 601.65 Z" fill="#000000" fill-rule="nonzero" fill-opacity="1" /><path clip-path="url(#clip270)" d="M127.917 241.397 Q124.769 241.397 122.918 243.549 Q121.089 245.702 121.089 249.452 Q121.089 253.179 122.918 255.355 Q124.769 257.508 127.917 257.508 Q131.066 257.508 132.894 255.355 Q134.746 253.179 134.746 249.452 Q134.746 245.702 132.894 243.549 Q131.066 241.397 127.917 241.397 M137.2 226.744 L137.2 231.003 Q135.441 230.17 133.635 229.73 Q131.853 229.29 130.093 229.29 Q125.464 229.29 123.01 232.415 Q120.58 235.54 120.232 241.86 Q121.598 239.846 123.658 238.781 Q125.718 237.693 128.195 237.693 Q133.404 237.693 136.413 240.864 Q139.445 244.012 139.445 249.452 Q139.445 254.776 136.297 257.994 Q133.149 261.211 127.917 261.211 Q121.922 261.211 118.751 256.628 Q115.58 252.022 115.58 243.295 Q115.58 235.1 119.468 230.239 Q123.357 225.355 129.908 225.355 Q131.667 225.355 133.45 225.702 Q135.255 226.049 137.2 226.744 Z" fill="#000000" fill-rule="nonzero" fill-opacity="1" /><path clip-path="url(#clip270)" d="M16.4842 894.996 L16.4842 885.416 L48.8219 873.289 L16.4842 861.099 L16.4842 851.518 L64.0042 851.518 L64.0042 857.789 L22.277 857.789 L54.8694 870.043 L54.8694 876.504 L22.277 888.758 L64.0042 888.758 L64.0042 894.996 L16.4842 894.996 Z" fill="#000000" fill-rule="nonzero" fill-opacity="1" /><path clip-path="url(#clip270)" d="M46.0847 822.809 Q46.0847 829.907 47.7079 832.644 Q49.3312 835.381 53.2461 835.381 Q56.3653 835.381 58.2114 833.344 Q60.0256 831.276 60.0256 827.743 Q60.0256 822.873 56.5881 819.945 Q53.1188 816.985 47.3897 816.985 L46.0847 816.985 L46.0847 822.809 M43.6657 811.128 L64.0042 811.128 L64.0042 816.985 L58.5933 816.985 Q61.8398 818.99 63.3994 821.982 Q64.9272 824.973 64.9272 829.302 Q64.9272 834.777 61.8716 838.023 Q58.7843 841.238 53.6281 841.238 Q47.6125 841.238 44.5569 837.227 Q41.5014 833.185 41.5014 825.196 L41.5014 816.985 L40.9285 816.985 Q36.8862 816.985 34.6901 819.658 Q32.4621 822.3 32.4621 827.106 Q32.4621 830.162 33.1941 833.058 Q33.9262 835.954 35.3903 838.628 L29.9795 838.628 Q28.7381 835.413 28.1334 832.39 Q27.4968 829.366 27.4968 826.501 Q27.4968 818.767 31.5072 814.947 Q35.5176 811.128 43.6657 811.128 Z" fill="#000000" fill-rule="nonzero" fill-opacity="1" /><path clip-path="url(#clip270)" d="M45.7664 775.607 Q39.4007 775.607 35.8996 778.249 Q32.3984 780.859 32.3984 785.602 Q32.3984 790.312 35.8996 792.954 Q39.4007 795.564 45.7664 795.564 Q52.1003 795.564 55.6014 792.954 Q59.1026 790.312 59.1026 785.602 Q59.1026 780.859 55.6014 778.249 Q52.1003 775.607 45.7664 775.607 M59.58 769.751 Q68.683 769.751 73.1071 773.793 Q77.5631 777.835 77.5631 786.175 Q77.5631 789.262 77.0857 791.999 Q76.6401 794.736 75.6852 797.314 L69.9879 797.314 Q71.3884 794.736 72.0568 792.222 Q72.7252 789.707 72.7252 787.098 Q72.7252 781.337 69.7015 778.472 Q66.7096 775.607 60.6303 775.607 L57.7339 775.607 Q60.885 777.422 62.4446 780.254 Q64.0042 783.087 64.0042 787.034 Q64.0042 793.591 59.0071 797.601 Q54.01 801.611 45.7664 801.611 Q37.491 801.611 32.4939 797.601 Q27.4968 793.591 27.4968 787.034 Q27.4968 783.087 29.0564 780.254 Q30.616 777.422 33.7671 775.607 L28.3562 775.607 L28.3562 769.751 L59.58 769.751 Z" fill="#000000" fill-rule="nonzero" fill-opacity="1" /><path clip-path="url(#clip270)" d="M42.4881 728.056 L64.0042 728.056 L64.0042 733.912 L42.679 733.912 Q37.6183 733.912 35.1038 735.885 Q32.5894 737.859 32.5894 741.806 Q32.5894 746.548 35.6131 749.285 Q38.6368 752.022 43.8567 752.022 L64.0042 752.022 L64.0042 757.911 L28.3562 757.911 L28.3562 752.022 L33.8944 752.022 Q30.6797 749.922 29.0883 747.089 Q27.4968 744.224 27.4968 740.501 Q27.4968 734.358 31.3163 731.207 Q35.1038 728.056 42.4881 728.056 Z" fill="#000000" fill-rule="nonzero" fill-opacity="1" /><path clip-path="url(#clip270)" d="M28.3562 716.375 L28.3562 710.518 L64.0042 710.518 L64.0042 716.375 L28.3562 716.375 M14.479 716.375 L14.479 710.518 L21.895 710.518 L21.895 716.375 L14.479 716.375 Z" fill="#000000" fill-rule="nonzero" fill-opacity="1" /><path clip-path="url(#clip270)" d="M18.2347 692.471 L28.3562 692.471 L28.3562 680.408 L32.9077 680.408 L32.9077 692.471 L52.2594 692.471 Q56.6199 692.471 57.8613 691.294 Q59.1026 690.084 59.1026 686.424 L59.1026 680.408 L64.0042 680.408 L64.0042 686.424 Q64.0042 693.203 61.4897 695.781 Q58.9434 698.36 52.2594 698.36 L32.9077 698.36 L32.9077 702.656 L28.3562 702.656 L28.3562 698.36 L18.2347 698.36 L18.2347 692.471 Z" fill="#000000" fill-rule="nonzero" fill-opacity="1" /><path clip-path="url(#clip270)" d="M49.9359 673.311 L28.3562 673.311 L28.3562 667.454 L49.7131 667.454 Q54.7739 667.454 57.3202 665.481 Q59.8346 663.507 59.8346 659.561 Q59.8346 654.818 56.8109 652.081 Q53.7872 649.312 48.5673 649.312 L28.3562 649.312 L28.3562 643.455 L64.0042 643.455 L64.0042 649.312 L58.5296 649.312 Q61.7762 651.444 63.3676 654.277 Q64.9272 657.078 64.9272 660.802 Q64.9272 666.945 61.1078 670.128 Q57.2883 673.311 49.9359 673.311 M27.4968 658.574 L27.4968 658.574 Z" fill="#000000" fill-rule="nonzero" fill-opacity="1" /><path clip-path="url(#clip270)" d="M33.7671 607.935 L14.479 607.935 L14.479 602.078 L64.0042 602.078 L64.0042 607.935 L58.657 607.935 Q61.8398 609.781 63.3994 612.614 Q64.9272 615.414 64.9272 619.361 Q64.9272 625.822 59.771 629.896 Q54.6147 633.939 46.212 633.939 Q37.8093 633.939 32.6531 629.896 Q27.4968 625.822 27.4968 619.361 Q27.4968 615.414 29.0564 612.614 Q30.5842 609.781 33.7671 607.935 M46.212 627.891 Q52.6732 627.891 56.3653 625.249 Q60.0256 622.576 60.0256 617.929 Q60.0256 613.282 56.3653 610.608 Q52.6732 607.935 46.212 607.935 Q39.7508 607.935 36.0905 610.608 Q32.3984 613.282 32.3984 617.929 Q32.3984 622.576 36.0905 625.249 Q39.7508 627.891 46.212 627.891 Z" fill="#000000" fill-rule="nonzero" fill-opacity="1" /><path clip-path="url(#clip270)" d="M44.7161 559.524 L47.5806 559.524 L47.5806 586.45 Q53.6281 586.069 56.8109 582.822 Q59.9619 579.544 59.9619 573.719 Q59.9619 570.345 59.1344 567.194 Q58.3069 564.011 56.6518 560.892 L62.1899 560.892 Q63.5267 564.043 64.227 567.353 Q64.9272 570.664 64.9272 574.069 Q64.9272 582.599 59.9619 587.596 Q54.9967 592.562 46.5303 592.562 Q37.7774 592.562 32.6531 587.851 Q27.4968 583.108 27.4968 575.088 Q27.4968 567.894 32.1438 563.725 Q36.7589 559.524 44.7161 559.524 M42.9973 565.38 Q38.1912 565.444 35.3266 568.085 Q32.4621 570.695 32.4621 575.024 Q32.4621 579.926 35.2312 582.886 Q38.0002 585.814 43.0292 586.259 L42.9973 565.38 Z" fill="#000000" fill-rule="nonzero" fill-opacity="1" /><polyline clip-path="url(#clip272)" style="stroke:#009af9; stroke-linecap:round; stroke-linejoin:round; stroke-width:8; stroke-opacity:1; fill:none" points="227.097,1368.78 233.849,1368.78 240.601,1368.77 247.353,1368.76 254.105,1368.75 260.857,1368.73 267.609,1368.7 274.361,1368.67 281.113,1368.64 287.864,1368.6 294.616,1368.56 301.368,1368.51 308.12,1368.46 314.872,1368.41 321.624,1368.35 328.376,1368.29 335.128,1368.23 341.88,1368.16 348.632,1368.09 355.384,1368.02 362.135,1367.94 368.887,1367.86 375.639,1367.77 382.391,1367.68 389.143,1367.59 395.895,1367.5 402.647,1367.4 409.399,1367.29 416.151,1367.19 422.903,1367.07 429.655,1366.96 436.406,1366.84 443.158,1366.71 449.91,1366.58 456.662,1366.44 463.414,1366.3 470.166,1366.15 476.918,1365.99 483.67,1365.83 490.422,1365.66 497.174,1365.48 503.926,1365.3 510.677,1365.1 517.429,1364.89 524.181,1364.68 530.933,1364.45 537.685,1364.21 544.437,1363.96 551.189,1363.69 557.941,1363.41 564.693,1363.1 571.445,1362.79 578.197,1362.45 584.948,1362.08 591.7,1361.7 598.452,1361.28 605.204,1360.84 611.956,1360.36 618.708,1359.85 625.46,1359.29 632.212,1358.69 638.964,1358.03 645.716,1357.31 652.468,1356.53 659.22,1355.66 665.971,1354.7 672.723,1353.64 679.475,1352.45 686.227,1351.11 692.979,1349.59 699.731,1347.86 706.483,1345.86 713.235,1343.54 719.987,1340.79 726.739,1337.51 733.491,1333.51 740.242,1328.54 746.994,1322.21 753.746,1313.84 760.498,1302.3 767.25,1285.38 774.002,1258.17 780.754,1207.25 787.506,1077.89 794.258,85.7356 801.01,812.029 807.762,1137.13 814.513,1221.35 821.265,1260 828.017,1282.15 834.769,1296.48 841.521,1306.5 848.273,1313.86 855.025,1319.49 861.777,1323.91 868.529,1327.46 875.281,1330.34 882.033,1332.7 888.784,1334.65 895.536,1336.25 902.288,1337.55 909.04,1338.58 915.792,1339.35 922.544,1339.89 929.296,1340.16 936.048,1340.16 942.8,1339.86 949.552,1339.18 956.304,1338.07 963.055,1336.39 969.807,1333.99 976.559,1330.62 983.311,1325.9 990.063,1319.24 996.815,1309.6 1003.57,1295.09 1010.32,1271.69 1017.07,1229.38 1023.82,1133.69 1030.57,738.168 1037.33,127.087 1044.08,1026.99 1050.83,1159.07 1057.58,1210.72 1064.33,1237.17 1071.09,1252.28 1077.84,1261.08 1084.59,1265.74 1091.34,1267.21 1098.09,1265.74 1104.85,1261.08 1111.6,1252.28 1118.35,1237.17 1125.1,1210.72 1131.85,1159.07 1138.61,1026.99 1145.36,127.087 1152.11,738.168 1158.86,1133.69 1165.61,1229.38 1172.36,1271.7 1179.12,1295.09 1185.87,1309.6 1192.62,1319.24 1199.37,1325.9 1206.12,1330.62 1212.88,1333.99 1219.63,1336.39 1226.38,1338.07 1233.13,1339.18 1239.88,1339.86 1246.64,1340.16 1253.39,1340.16 1260.14,1339.89 1266.89,1339.35 1273.64,1338.58 1280.4,1337.55 1287.15,1336.25 1293.9,1334.65 1300.65,1332.7 1307.4,1330.34 1314.15,1327.46 1320.91,1323.91 1327.66,1319.49 1334.41,1313.86 1341.16,1306.5 1347.91,1296.48 1354.67,1282.15 1361.42,1260 1368.17,1221.35 1374.92,1137.13 1381.67,812.029 1388.43,85.7356 1395.18,1077.89 1401.93,1207.25 1408.68,1258.17 1415.43,1285.38 1422.19,1302.3 1428.94,1313.84 1435.69,1322.21 1442.44,1328.54 1449.19,1333.51 1455.94,1337.51 1462.7,1340.79 1469.45,1343.54 1476.2,1345.86 1482.95,1347.86 1489.7,1349.59 1496.46,1351.11 1503.21,1352.45 1509.96,1353.64 1516.71,1354.7 1523.46,1355.66 1530.22,1356.53 1536.97,1357.31 1543.72,1358.03 1550.47,1358.69 1557.22,1359.29 1563.98,1359.85 1570.73,1360.36 1577.48,1360.84 1584.23,1361.28 1590.98,1361.7 1597.73,1362.08 1604.49,1362.45 1611.24,1362.79 1617.99,1363.1 1624.74,1363.41 1631.49,1363.69 1638.25,1363.96 1645,1364.21 1651.75,1364.45 1658.5,1364.68 1665.25,1364.89 1672.01,1365.1 1678.76,1365.3 1685.51,1365.48 1692.26,1365.66 1699.01,1365.83 1705.77,1365.99 1712.52,1366.15 1719.27,1366.3 1726.02,1366.44 1732.77,1366.58 1739.52,1366.71 1746.28,1366.84 1753.03,1366.96 1759.78,1367.07 1766.53,1367.19 1773.28,1367.29 1780.04,1367.4 1786.79,1367.5 1793.54,1367.59 1800.29,1367.68 1807.04,1367.77 1813.8,1367.86 1820.55,1367.94 1827.3,1368.02 1834.05,1368.09 1840.8,1368.16 1847.56,1368.23 1854.31,1368.29 1861.06,1368.35 1867.81,1368.41 1874.56,1368.46 1881.32,1368.51 1888.07,1368.56 1894.82,1368.6 1901.57,1368.64 1908.32,1368.67 1915.07,1368.7 1921.83,1368.73 1928.58,1368.75 1935.33,1368.76 1942.08,1368.77 1948.83,1368.78 "/>
<polyline clip-path="url(#clip272)" style="stroke:#e26f46; stroke-linecap:round; stroke-linejoin:round; stroke-width:8; stroke-opacity:1; fill:none" stroke-dasharray="32, 20" points="227.097,1368.78 233.849,1368.78 240.601,1368.77 247.353,1368.76 254.105,1368.75 260.857,1368.73 267.609,1368.7 274.361,1368.67 281.113,1368.64 287.864,1368.6 294.616,1368.56 301.368,1368.51 308.12,1368.46 314.872,1368.41 321.624,1368.35 328.376,1368.29 335.128,1368.23 341.88,1368.16 348.632,1368.09 355.384,1368.02 362.135,1367.94 368.887,1367.86 375.639,1367.77 382.391,1367.68 389.143,1367.59 395.895,1367.5 402.647,1367.4 409.399,1367.29 416.151,1367.19 422.903,1367.07 429.655,1366.96 436.406,1366.84 443.158,1366.71 449.91,1366.58 456.662,1366.44 463.414,1366.3 470.166,1366.15 476.918,1365.99 483.67,1365.83 490.422,1365.66 497.174,1365.48 503.926,1365.3 510.677,1365.1 517.429,1364.89 524.181,1364.68 530.933,1364.45 537.685,1364.21 544.437,1363.96 551.189,1363.69 557.941,1363.41 564.693,1363.1 571.445,1362.79 578.197,1362.45 584.948,1362.08 591.7,1361.7 598.452,1361.28 605.204,1360.84 611.956,1360.36 618.708,1359.85 625.46,1359.29 632.212,1358.69 638.964,1358.03 645.716,1357.31 652.468,1356.53 659.22,1355.66 665.971,1354.7 672.723,1353.64 679.475,1352.45 686.227,1351.11 692.979,1349.59 699.731,1347.86 706.483,1345.86 713.235,1343.54 719.987,1340.79 726.739,1337.51 733.491,1333.51 740.242,1328.54 746.994,1322.21 753.746,1313.84 760.498,1302.3 767.25,1285.38 774.002,1258.17 780.754,1207.25 787.506,1077.89 794.258,85.7356 801.01,812.029 807.762,1137.13 814.513,1221.35 821.265,1260 828.017,1282.15 834.769,1296.48 841.521,1306.5 848.273,1313.86 855.025,1319.49 861.777,1323.91 868.529,1327.46 875.281,1330.34 882.033,1332.7 888.784,1334.65 895.536,1336.25 902.288,1337.55 909.04,1338.58 915.792,1339.35 922.544,1339.89 929.296,1340.16 936.048,1340.16 942.8,1339.86 949.552,1339.18 956.304,1338.07 963.055,1336.39 969.807,1333.99 976.559,1330.62 983.311,1325.9 990.063,1319.24 996.815,1309.6 1003.57,1295.09 1010.32,1271.69 1017.07,1229.38 1023.82,1133.69 1030.57,738.168 1037.33,127.087 1044.08,1026.99 1050.83,1159.07 1057.58,1210.72 1064.33,1237.17 1071.09,1252.28 1077.84,1261.08 1084.59,1265.74 1091.34,1267.21 1098.09,1265.74 1104.85,1261.08 1111.6,1252.28 1118.35,1237.17 1125.1,1210.72 1131.85,1159.07 1138.61,1026.99 1145.36,127.087 1152.11,738.168 1158.86,1133.69 1165.61,1229.38 1172.36,1271.69 1179.12,1295.09 1185.87,1309.6 1192.62,1319.24 1199.37,1325.9 1206.12,1330.62 1212.88,1333.99 1219.63,1336.39 1226.38,1338.07 1233.13,1339.18 1239.88,1339.86 1246.64,1340.16 1253.39,1340.16 1260.14,1339.89 1266.89,1339.35 1273.64,1338.58 1280.4,1337.55 1287.15,1336.25 1293.9,1334.65 1300.65,1332.7 1307.4,1330.34 1314.15,1327.46 1320.91,1323.91 1327.66,1319.49 1334.41,1313.86 1341.16,1306.5 1347.91,1296.48 1354.67,1282.15 1361.42,1260 1368.17,1221.35 1374.92,1137.13 1381.67,812.029 1388.43,85.7356 1395.18,1077.89 1401.93,1207.25 1408.68,1258.17 1415.43,1285.38 1422.19,1302.3 1428.94,1313.84 1435.69,1322.21 1442.44,1328.54 1449.19,1333.51 1455.94,1337.51 1462.7,1340.79 1469.45,1343.54 1476.2,1345.86 1482.95,1347.86 1489.7,1349.59 1496.46,1351.11 1503.21,1352.45 1509.96,1353.64 1516.71,1354.7 1523.46,1355.66 1530.22,1356.53 1536.97,1357.31 1543.72,1358.03 1550.47,1358.69 1557.22,1359.29 1563.98,1359.85 1570.73,1360.36 1577.48,1360.84 1584.23,1361.28 1590.98,1361.7 1597.73,1362.08 1604.49,1362.45 1611.24,1362.79 1617.99,1363.1 1624.74,1363.41 1631.49,1363.69 1638.25,1363.96 1645,1364.21 1651.75,1364.45 1658.5,1364.68 1665.25,1364.89 1672.01,1365.1 1678.76,1365.3 1685.51,1365.48 1692.26,1365.66 1699.01,1365.83 1705.77,1365.99 1712.52,1366.15 1719.27,1366.3 1726.02,1366.44 1732.77,1366.58 1739.52,1366.71 1746.28,1366.84 1753.03,1366.96 1759.78,1367.07 1766.53,1367.19 1773.28,1367.29 1780.04,1367.4 1786.79,1367.5 1793.54,1367.59 1800.29,1367.68 1807.04,1367.77 1813.8,1367.86 1820.55,1367.94 1827.3,1368.02 1834.05,1368.09 1840.8,1368.16 1847.56,1368.23 1854.31,1368.29 1861.06,1368.35 1867.81,1368.41 1874.56,1368.46 1881.32,1368.51 1888.07,1368.56 1894.82,1368.6 1901.57,1368.64 1908.32,1368.67 1915.07,1368.7 1921.83,1368.73 1928.58,1368.75 1935.33,1368.76 1942.08,1368.77 1948.83,1368.78 "/>
<polyline clip-path="url(#clip272)" style="stroke:#000000; stroke-linecap:round; stroke-linejoin:round; stroke-width:4; stroke-opacity:1; fill:none" stroke-dasharray="16, 8, 2, 8" points="796.283,2767.31 796.283,-1312.79 "/>
<polyline clip-path="url(#clip272)" style="stroke:#000000; stroke-linecap:round; stroke-linejoin:round; stroke-width:4; stroke-opacity:1; fill:none" stroke-dasharray="16, 8, 2, 8" points="1034.96,2767.31 1034.96,-1312.79 "/>
<polyline clip-path="url(#clip272)" style="stroke:#000000; stroke-linecap:round; stroke-linejoin:round; stroke-width:4; stroke-opacity:1; fill:none" stroke-dasharray="16, 8, 2, 8" points="1147.72,2767.31 1147.72,-1312.79 "/>
<polyline clip-path="url(#clip272)" style="stroke:#000000; stroke-linecap:round; stroke-linejoin:round; stroke-width:4; stroke-opacity:1; fill:none" stroke-dasharray="16, 8, 2, 8" points="1386.4,2767.31 1386.4,-1312.79 "/>
<path clip-path="url(#clip270)" d="M236.28 248.098 L780.773 248.098 L780.773 92.5785 L236.28 92.5785  Z" fill="#ffffff" fill-rule="evenodd" fill-opacity="1"/>
<polyline clip-path="url(#clip270)" style="stroke:#000000; stroke-linecap:round; stroke-linejoin:round; stroke-width:4; stroke-opacity:1; fill:none" points="236.28,248.098 780.773,248.098 780.773,92.5785 236.28,92.5785 236.28,248.098 "/>
<polyline clip-path="url(#clip270)" style="stroke:#009af9; stroke-linecap:round; stroke-linejoin:round; stroke-width:8; stroke-opacity:1; fill:none" points="256.558,144.418 378.228,144.418 "/>
<path clip-path="url(#clip270)" d="M402.441 125.472 L402.441 172.879 L398.506 172.879 L398.506 125.472 L402.441 125.472 Z" fill="#000000" fill-rule="nonzero" fill-opacity="1" /><path clip-path="url(#clip270)" d="M427.14 130.31 Q422.047 130.31 419.038 134.106 Q416.052 137.902 416.052 144.453 Q416.052 150.981 419.038 154.777 Q422.047 158.573 427.14 158.573 Q432.232 158.573 435.195 154.777 Q438.181 150.981 438.181 144.453 Q438.181 137.902 435.195 134.106 Q432.232 130.31 427.14 130.31 M433.691 161.073 L439.848 167.81 L434.2 167.81 L429.084 162.277 Q428.32 162.323 427.904 162.347 Q427.51 162.37 427.14 162.37 Q419.848 162.37 415.473 157.509 Q411.121 152.624 411.121 144.453 Q411.121 136.259 415.473 131.398 Q419.848 126.513 427.14 126.513 Q434.408 126.513 438.76 131.398 Q443.112 136.259 443.112 144.453 Q443.112 150.472 440.681 154.754 Q438.274 159.036 433.691 161.073 Z" fill="#000000" fill-rule="nonzero" fill-opacity="1" /><path clip-path="url(#clip270)" d="M450.427 127.138 L455.103 127.138 L455.103 161.698 L450.427 161.698 L450.427 127.138 Z" fill="#000000" fill-rule="nonzero" fill-opacity="1" /><path clip-path="url(#clip270)" d="M464.408 127.138 L469.084 127.138 L469.084 157.763 L485.913 157.763 L485.913 161.698 L464.408 161.698 L464.408 127.138 Z" fill="#000000" fill-rule="nonzero" fill-opacity="1" /><path clip-path="url(#clip270)" d="M502.417 148.666 Q497.255 148.666 495.265 149.847 Q493.274 151.027 493.274 153.874 Q493.274 156.143 494.755 157.486 Q496.26 158.805 498.829 158.805 Q502.371 158.805 504.501 156.305 Q506.653 153.782 506.653 149.615 L506.653 148.666 L502.417 148.666 M510.913 146.907 L510.913 161.698 L506.653 161.698 L506.653 157.763 Q505.195 160.124 503.019 161.259 Q500.843 162.37 497.695 162.37 Q493.714 162.37 491.353 160.148 Q489.015 157.902 489.015 154.152 Q489.015 149.777 491.931 147.555 Q494.871 145.333 500.681 145.333 L506.653 145.333 L506.653 144.916 Q506.653 141.976 504.709 140.379 Q502.788 138.759 499.292 138.759 Q497.07 138.759 494.964 139.291 Q492.857 139.824 490.913 140.888 L490.913 136.953 Q493.251 136.05 495.45 135.611 Q497.649 135.148 499.732 135.148 Q505.357 135.148 508.135 138.064 Q510.913 140.981 510.913 146.907 Z" fill="#000000" fill-rule="nonzero" fill-opacity="1" /><path clip-path="url(#clip270)" d="M523.806 157.81 L523.806 171.56 L519.524 171.56 L519.524 135.773 L523.806 135.773 L523.806 139.708 Q525.149 137.393 527.186 136.282 Q529.246 135.148 532.093 135.148 Q536.815 135.148 539.755 138.898 Q542.718 142.648 542.718 148.759 Q542.718 154.87 539.755 158.62 Q536.815 162.37 532.093 162.37 Q529.246 162.37 527.186 161.259 Q525.149 160.124 523.806 157.81 M538.297 148.759 Q538.297 144.06 536.352 141.398 Q534.431 138.712 531.051 138.712 Q527.672 138.712 525.727 141.398 Q523.806 144.06 523.806 148.759 Q523.806 153.458 525.727 156.143 Q527.672 158.805 531.051 158.805 Q534.431 158.805 536.352 156.143 Q538.297 153.458 538.297 148.759 Z" fill="#000000" fill-rule="nonzero" fill-opacity="1" /><path clip-path="url(#clip270)" d="M549.778 125.68 L554.037 125.68 L554.037 161.698 L549.778 161.698 L549.778 125.68 Z" fill="#000000" fill-rule="nonzero" fill-opacity="1" /><path clip-path="url(#clip270)" d="M574.732 148.666 Q569.57 148.666 567.579 149.847 Q565.588 151.027 565.588 153.874 Q565.588 156.143 567.07 157.486 Q568.574 158.805 571.144 158.805 Q574.685 158.805 576.815 156.305 Q578.968 153.782 578.968 149.615 L578.968 148.666 L574.732 148.666 M583.227 146.907 L583.227 161.698 L578.968 161.698 L578.968 157.763 Q577.509 160.124 575.334 161.259 Q573.158 162.37 570.009 162.37 Q566.028 162.37 563.667 160.148 Q561.329 157.902 561.329 154.152 Q561.329 149.777 564.246 147.555 Q567.185 145.333 572.996 145.333 L578.968 145.333 L578.968 144.916 Q578.968 141.976 577.023 140.379 Q575.102 138.759 571.607 138.759 Q569.384 138.759 567.278 139.291 Q565.172 139.824 563.227 140.888 L563.227 136.953 Q565.565 136.05 567.764 135.611 Q569.963 135.148 572.047 135.148 Q577.671 135.148 580.449 138.064 Q583.227 140.981 583.227 146.907 Z" fill="#000000" fill-rule="nonzero" fill-opacity="1" /><path clip-path="url(#clip270)" d="M610.657 136.768 L610.657 140.75 Q608.852 139.754 607.023 139.268 Q605.218 138.759 603.366 138.759 Q599.222 138.759 596.931 141.398 Q594.639 144.013 594.639 148.759 Q594.639 153.504 596.931 156.143 Q599.222 158.759 603.366 158.759 Q605.218 158.759 607.023 158.273 Q608.852 157.763 610.657 156.768 L610.657 160.703 Q608.875 161.536 606.954 161.953 Q605.056 162.37 602.903 162.37 Q597.046 162.37 593.597 158.689 Q590.148 155.009 590.148 148.759 Q590.148 142.416 593.62 138.782 Q597.116 135.148 603.181 135.148 Q605.148 135.148 607.023 135.564 Q608.898 135.958 610.657 136.768 Z" fill="#000000" fill-rule="nonzero" fill-opacity="1" /><path clip-path="url(#clip270)" d="M640.241 147.671 L640.241 149.754 L620.657 149.754 Q620.935 154.152 623.296 156.467 Q625.68 158.759 629.917 158.759 Q632.37 158.759 634.662 158.157 Q636.977 157.555 639.245 156.351 L639.245 160.379 Q636.954 161.351 634.546 161.861 Q632.139 162.37 629.662 162.37 Q623.458 162.37 619.824 158.759 Q616.213 155.148 616.213 148.99 Q616.213 142.625 619.639 138.898 Q623.088 135.148 628.921 135.148 Q634.153 135.148 637.185 138.527 Q640.241 141.884 640.241 147.671 M635.981 146.421 Q635.935 142.925 634.014 140.842 Q632.116 138.759 628.968 138.759 Q625.403 138.759 623.25 140.773 Q621.12 142.787 620.796 146.444 L635.981 146.421 Z" fill="#000000" fill-rule="nonzero" fill-opacity="1" /><path clip-path="url(#clip270)" d="M676.514 130.31 Q671.421 130.31 668.412 134.106 Q665.426 137.902 665.426 144.453 Q665.426 150.981 668.412 154.777 Q671.421 158.573 676.514 158.573 Q681.606 158.573 684.569 154.777 Q687.555 150.981 687.555 144.453 Q687.555 137.902 684.569 134.106 Q681.606 130.31 676.514 130.31 M683.064 161.073 L689.222 167.81 L683.574 167.81 L678.458 162.277 Q677.694 162.323 677.277 162.347 Q676.884 162.37 676.514 162.37 Q669.222 162.37 664.847 157.509 Q660.495 152.624 660.495 144.453 Q660.495 136.259 664.847 131.398 Q669.222 126.513 676.514 126.513 Q683.782 126.513 688.134 131.398 Q692.486 136.259 692.486 144.453 Q692.486 150.472 690.055 154.754 Q687.648 159.036 683.064 161.073 Z" fill="#000000" fill-rule="nonzero" fill-opacity="1" /><path clip-path="url(#clip270)" d="M699.8 127.138 L719.661 127.138 L719.661 131.074 L704.476 131.074 L704.476 141.259 L718.18 141.259 L718.18 145.194 L704.476 145.194 L704.476 161.698 L699.8 161.698 L699.8 127.138 Z" fill="#000000" fill-rule="nonzero" fill-opacity="1" /><path clip-path="url(#clip270)" d="M721.444 127.138 L750.68 127.138 L750.68 131.074 L738.411 131.074 L738.411 161.698 L733.712 161.698 L733.712 131.074 L721.444 131.074 L721.444 127.138 Z" fill="#000000" fill-rule="nonzero" fill-opacity="1" /><path clip-path="url(#clip270)" d="M760.495 125.472 L760.495 172.879 L756.559 172.879 L756.559 125.472 L760.495 125.472 Z" fill="#000000" fill-rule="nonzero" fill-opacity="1" /><polyline clip-path="url(#clip270)" style="stroke:#e26f46; stroke-linecap:round; stroke-linejoin:round; stroke-width:8; stroke-opacity:1; fill:none" stroke-dasharray="32, 20" points="256.558,196.258 378.228,196.258 "/>
<path clip-path="url(#clip270)" d="M402.441 177.312 L402.441 224.719 L398.506 224.719 L398.506 177.312 L402.441 177.312 Z" fill="#000000" fill-rule="nonzero" fill-opacity="1" /><path clip-path="url(#clip270)" d="M413.112 178.978 L432.973 178.978 L432.973 182.914 L417.788 182.914 L417.788 193.099 L431.492 193.099 L431.492 197.034 L417.788 197.034 L417.788 213.538 L413.112 213.538 L413.112 178.978 Z" fill="#000000" fill-rule="nonzero" fill-opacity="1" /><path clip-path="url(#clip270)" d="M440.381 178.978 L460.242 178.978 L460.242 182.914 L445.056 182.914 L445.056 193.099 L458.76 193.099 L458.76 197.034 L445.056 197.034 L445.056 213.538 L440.381 213.538 L440.381 178.978 Z" fill="#000000" fill-rule="nonzero" fill-opacity="1" /><path clip-path="url(#clip270)" d="M462.024 178.978 L491.26 178.978 L491.26 182.914 L478.991 182.914 L478.991 213.538 L474.292 213.538 L474.292 182.914 L462.024 182.914 L462.024 178.978 Z" fill="#000000" fill-rule="nonzero" fill-opacity="1" /><path clip-path="url(#clip270)" d="M492.695 178.978 L497.417 178.978 L504.686 208.191 L511.931 178.978 L517.186 178.978 L524.454 208.191 L531.7 178.978 L536.445 178.978 L527.764 213.538 L521.885 213.538 L514.593 183.539 L507.232 213.538 L501.352 213.538 L492.695 178.978 Z" fill="#000000" fill-rule="nonzero" fill-opacity="1" /><path clip-path="url(#clip270)" d="M570.658 177.52 L570.658 181.062 L566.584 181.062 Q564.292 181.062 563.389 181.988 Q562.51 182.914 562.51 185.321 L562.51 187.613 L569.523 187.613 L569.523 190.923 L562.51 190.923 L562.51 213.538 L558.227 213.538 L558.227 190.923 L554.153 190.923 L554.153 187.613 L558.227 187.613 L558.227 185.807 Q558.227 181.478 560.241 179.511 Q562.255 177.52 566.63 177.52 L570.658 177.52 Z" fill="#000000" fill-rule="nonzero" fill-opacity="1" /><path clip-path="url(#clip270)" d="M587.347 177.52 L587.347 181.062 L583.273 181.062 Q580.982 181.062 580.079 181.988 Q579.199 182.914 579.199 185.321 L579.199 187.613 L586.213 187.613 L586.213 190.923 L579.199 190.923 L579.199 213.538 L574.917 213.538 L574.917 190.923 L570.843 190.923 L570.843 187.613 L574.917 187.613 L574.917 185.807 Q574.917 181.478 576.931 179.511 Q578.945 177.52 583.32 177.52 L587.347 177.52 Z" fill="#000000" fill-rule="nonzero" fill-opacity="1" /><path clip-path="url(#clip270)" d="M594.292 180.252 L594.292 187.613 L603.065 187.613 L603.065 190.923 L594.292 190.923 L594.292 204.997 Q594.292 208.168 595.148 209.071 Q596.028 209.974 598.69 209.974 L603.065 209.974 L603.065 213.538 L598.69 213.538 Q593.759 213.538 591.884 211.71 Q590.009 209.858 590.009 204.997 L590.009 190.923 L586.884 190.923 L586.884 187.613 L590.009 187.613 L590.009 180.252 L594.292 180.252 Z" fill="#000000" fill-rule="nonzero" fill-opacity="1" /><path clip-path="url(#clip270)" d="M614.153 177.312 L614.153 224.719 L610.218 224.719 L610.218 177.312 L614.153 177.312 Z" fill="#000000" fill-rule="nonzero" fill-opacity="1" /><polyline clip-path="url(#clip270)" style="stroke:#000000; stroke-linecap:round; stroke-linejoin:round; stroke-width:4; stroke-opacity:1; fill:none" points="2000.49,1407.28 2000.49,47.2441 "/>
<polyline clip-path="url(#clip270)" style="stroke:#000000; stroke-linecap:round; stroke-linejoin:round; stroke-width:4; stroke-opacity:1; fill:none" points="2000.49,1407.28 1981.59,1407.28 "/>
<polyline clip-path="url(#clip270)" style="stroke:#000000; stroke-linecap:round; stroke-linejoin:round; stroke-width:4; stroke-opacity:1; fill:none" points="2000.49,1172.75 1981.59,1172.75 "/>
<polyline clip-path="url(#clip270)" style="stroke:#000000; stroke-linecap:round; stroke-linejoin:round; stroke-width:4; stroke-opacity:1; fill:none" points="2000.49,938.216 1981.59,938.216 "/>
<polyline clip-path="url(#clip270)" style="stroke:#000000; stroke-linecap:round; stroke-linejoin:round; stroke-width:4; stroke-opacity:1; fill:none" points="2000.49,703.687 1981.59,703.687 "/>
<polyline clip-path="url(#clip270)" style="stroke:#000000; stroke-linecap:round; stroke-linejoin:round; stroke-width:4; stroke-opacity:1; fill:none" points="2000.49,469.157 1981.59,469.157 "/>
<polyline clip-path="url(#clip270)" style="stroke:#000000; stroke-linecap:round; stroke-linejoin:round; stroke-width:4; stroke-opacity:1; fill:none" points="2000.49,234.628 1981.59,234.628 "/>
<path clip-path="url(#clip270)" d="M2048.43 1393.07 Q2044.82 1393.07 2042.99 1396.64 Q2041.19 1400.18 2041.19 1407.31 Q2041.19 1414.42 2042.99 1417.98 Q2044.82 1421.52 2048.43 1421.52 Q2052.06 1421.52 2053.87 1417.98 Q2055.7 1414.42 2055.7 1407.31 Q2055.7 1400.18 2053.87 1396.64 Q2052.06 1393.07 2048.43 1393.07 M2048.43 1389.37 Q2054.24 1389.37 2057.3 1393.98 Q2060.38 1398.56 2060.38 1407.31 Q2060.38 1416.04 2057.3 1420.64 Q2054.24 1425.23 2048.43 1425.23 Q2042.62 1425.23 2039.54 1420.64 Q2036.49 1416.04 2036.49 1407.31 Q2036.49 1398.56 2039.54 1393.98 Q2042.62 1389.37 2048.43 1389.37 Z" fill="#000000" fill-rule="nonzero" fill-opacity="1" /><path clip-path="url(#clip270)" d="M2037.94 1161.91 L2056.3 1161.91 L2056.3 1165.85 L2042.23 1165.85 L2042.23 1174.32 Q2043.25 1173.97 2044.26 1173.81 Q2045.28 1173.63 2046.3 1173.63 Q2052.09 1173.63 2055.47 1176.8 Q2058.85 1179.97 2058.85 1185.39 Q2058.85 1190.96 2055.38 1194.07 Q2051.9 1197.14 2045.58 1197.14 Q2043.41 1197.14 2041.14 1196.77 Q2038.89 1196.4 2036.49 1195.66 L2036.49 1190.96 Q2038.57 1192.1 2040.79 1192.65 Q2043.01 1193.21 2045.49 1193.21 Q2049.5 1193.21 2051.83 1191.1 Q2054.17 1189 2054.17 1185.39 Q2054.17 1181.77 2051.83 1179.67 Q2049.5 1177.56 2045.49 1177.56 Q2043.62 1177.56 2041.74 1177.98 Q2039.89 1178.4 2037.94 1179.27 L2037.94 1161.91 Z" fill="#000000" fill-rule="nonzero" fill-opacity="1" /><path clip-path="url(#clip270)" d="M2068.06 1190.59 L2072.94 1190.59 L2072.94 1196.47 L2068.06 1196.47 L2068.06 1190.59 Z" fill="#000000" fill-rule="nonzero" fill-opacity="1" /><path clip-path="url(#clip270)" d="M2093.13 1164.99 Q2089.52 1164.99 2087.69 1168.56 Q2085.88 1172.1 2085.88 1179.23 Q2085.88 1186.33 2087.69 1189.9 Q2089.52 1193.44 2093.13 1193.44 Q2096.76 1193.44 2098.57 1189.9 Q2100.4 1186.33 2100.4 1179.23 Q2100.4 1172.1 2098.57 1168.56 Q2096.76 1164.99 2093.13 1164.99 M2093.13 1161.29 Q2098.94 1161.29 2102 1165.9 Q2105.07 1170.48 2105.07 1179.23 Q2105.07 1187.96 2102 1192.56 Q2098.94 1197.14 2093.13 1197.14 Q2087.32 1197.14 2084.24 1192.56 Q2081.19 1187.96 2081.19 1179.23 Q2081.19 1170.48 2084.24 1165.9 Q2087.32 1161.29 2093.13 1161.29 Z" fill="#000000" fill-rule="nonzero" fill-opacity="1" /><path clip-path="url(#clip270)" d="M2123.29 1164.99 Q2119.68 1164.99 2117.85 1168.56 Q2116.05 1172.1 2116.05 1179.23 Q2116.05 1186.33 2117.85 1189.9 Q2119.68 1193.44 2123.29 1193.44 Q2126.93 1193.44 2128.73 1189.9 Q2130.56 1186.33 2130.56 1179.23 Q2130.56 1172.1 2128.73 1168.56 Q2126.93 1164.99 2123.29 1164.99 M2123.29 1161.29 Q2129.1 1161.29 2132.16 1165.9 Q2135.24 1170.48 2135.24 1179.23 Q2135.24 1187.96 2132.16 1192.56 Q2129.1 1197.14 2123.29 1197.14 Q2117.48 1197.14 2114.4 1192.56 Q2111.35 1187.96 2111.35 1179.23 Q2111.35 1170.48 2114.4 1165.9 Q2117.48 1161.29 2123.29 1161.29 Z" fill="#000000" fill-rule="nonzero" fill-opacity="1" /><path clip-path="url(#clip270)" d="M2171.62 1171.01 L2161.05 1181.64 L2171.62 1192.21 L2168.87 1195.02 L2158.24 1184.39 L2147.62 1195.02 L2144.89 1192.21 L2155.44 1181.64 L2144.89 1171.01 L2147.62 1168.21 L2158.24 1178.83 L2168.87 1168.21 L2171.62 1171.01 Z" fill="#000000" fill-rule="nonzero" fill-opacity="1" /><path clip-path="url(#clip270)" d="M2183.99 1192.54 L2191.62 1192.54 L2191.62 1166.17 L2183.31 1167.84 L2183.31 1163.58 L2191.58 1161.91 L2196.25 1161.91 L2196.25 1192.54 L2203.89 1192.54 L2203.89 1196.47 L2183.99 1196.47 L2183.99 1192.54 Z" fill="#000000" fill-rule="nonzero" fill-opacity="1" /><path clip-path="url(#clip270)" d="M2223.34 1164.99 Q2219.73 1164.99 2217.9 1168.56 Q2216.09 1172.1 2216.09 1179.23 Q2216.09 1186.33 2217.9 1189.9 Q2219.73 1193.44 2223.34 1193.44 Q2226.97 1193.44 2228.78 1189.9 Q2230.61 1186.33 2230.61 1179.23 Q2230.61 1172.1 2228.78 1168.56 Q2226.97 1164.99 2223.34 1164.99 M2223.34 1161.29 Q2229.15 1161.29 2232.2 1165.9 Q2235.28 1170.48 2235.28 1179.23 Q2235.28 1187.96 2232.2 1192.56 Q2229.15 1197.14 2223.34 1197.14 Q2217.53 1197.14 2214.45 1192.56 Q2211.39 1187.96 2211.39 1179.23 Q2211.39 1170.48 2214.45 1165.9 Q2217.53 1161.29 2223.34 1161.29 Z" fill="#000000" fill-rule="nonzero" fill-opacity="1" /><path clip-path="url(#clip270)" d="M2235.28 1155.39 L2259.39 1155.39 L2259.39 1158.59 L2235.28 1158.59 L2235.28 1155.39 Z" fill="#000000" fill-rule="nonzero" fill-opacity="1" /><path clip-path="url(#clip270)" d="M2266.63 1140.98 L2284.69 1140.98 L2284.69 1142.6 L2274.5 1169.06 L2270.53 1169.06 L2280.12 1144.18 L2266.63 1144.18 L2266.63 1140.98 Z" fill="#000000" fill-rule="nonzero" fill-opacity="1" /><path clip-path="url(#clip270)" d="M2037.16 958.009 L2044.8 958.009 L2044.8 931.643 L2036.49 933.31 L2036.49 929.051 L2044.75 927.384 L2049.43 927.384 L2049.43 958.009 L2057.06 958.009 L2057.06 961.944 L2037.16 961.944 L2037.16 958.009 Z" fill="#000000" fill-rule="nonzero" fill-opacity="1" /><path clip-path="url(#clip270)" d="M2066.51 956.064 L2071.39 956.064 L2071.39 961.944 L2066.51 961.944 L2066.51 956.064 Z" fill="#000000" fill-rule="nonzero" fill-opacity="1" /><path clip-path="url(#clip270)" d="M2091.58 930.463 Q2087.97 930.463 2086.14 934.027 Q2084.33 937.569 2084.33 944.699 Q2084.33 951.805 2086.14 955.37 Q2087.97 958.912 2091.58 958.912 Q2095.21 958.912 2097.02 955.37 Q2098.85 951.805 2098.85 944.699 Q2098.85 937.569 2097.02 934.027 Q2095.21 930.463 2091.58 930.463 M2091.58 926.759 Q2097.39 926.759 2100.44 931.365 Q2103.52 935.949 2103.52 944.699 Q2103.52 953.426 2100.44 958.032 Q2097.39 962.615 2091.58 962.615 Q2085.77 962.615 2082.69 958.032 Q2079.63 953.426 2079.63 944.699 Q2079.63 935.949 2082.69 931.365 Q2085.77 926.759 2091.58 926.759 Z" fill="#000000" fill-rule="nonzero" fill-opacity="1" /><path clip-path="url(#clip270)" d="M2121.74 930.463 Q2118.13 930.463 2116.3 934.027 Q2114.5 937.569 2114.5 944.699 Q2114.5 951.805 2116.3 955.37 Q2118.13 958.912 2121.74 958.912 Q2125.37 958.912 2127.18 955.37 Q2129.01 951.805 2129.01 944.699 Q2129.01 937.569 2127.18 934.027 Q2125.37 930.463 2121.74 930.463 M2121.74 926.759 Q2127.55 926.759 2130.61 931.365 Q2133.68 935.949 2133.68 944.699 Q2133.68 953.426 2130.61 958.032 Q2127.55 962.615 2121.74 962.615 Q2115.93 962.615 2112.85 958.032 Q2109.8 953.426 2109.8 944.699 Q2109.8 935.949 2112.85 931.365 Q2115.93 926.759 2121.74 926.759 Z" fill="#000000" fill-rule="nonzero" fill-opacity="1" /><path clip-path="url(#clip270)" d="M2170.07 936.481 L2159.49 947.106 L2170.07 957.685 L2167.32 960.486 L2156.69 949.861 L2146.07 960.486 L2143.34 957.685 L2153.89 947.106 L2143.34 936.481 L2146.07 933.68 L2156.69 944.305 L2167.32 933.68 L2170.07 936.481 Z" fill="#000000" fill-rule="nonzero" fill-opacity="1" /><path clip-path="url(#clip270)" d="M2182.43 958.009 L2190.07 958.009 L2190.07 931.643 L2181.76 933.31 L2181.76 929.051 L2190.03 927.384 L2194.7 927.384 L2194.7 958.009 L2202.34 958.009 L2202.34 961.944 L2182.43 961.944 L2182.43 958.009 Z" fill="#000000" fill-rule="nonzero" fill-opacity="1" /><path clip-path="url(#clip270)" d="M2221.79 930.463 Q2218.18 930.463 2216.35 934.027 Q2214.54 937.569 2214.54 944.699 Q2214.54 951.805 2216.35 955.37 Q2218.18 958.912 2221.79 958.912 Q2225.42 958.912 2227.23 955.37 Q2229.05 951.805 2229.05 944.699 Q2229.05 937.569 2227.23 934.027 Q2225.42 930.463 2221.79 930.463 M2221.79 926.759 Q2227.6 926.759 2230.65 931.365 Q2233.73 935.949 2233.73 944.699 Q2233.73 953.426 2230.65 958.032 Q2227.6 962.615 2221.79 962.615 Q2215.98 962.615 2212.9 958.032 Q2209.84 953.426 2209.84 944.699 Q2209.84 935.949 2212.9 931.365 Q2215.98 926.759 2221.79 926.759 Z" fill="#000000" fill-rule="nonzero" fill-opacity="1" /><path clip-path="url(#clip270)" d="M2233.73 920.86 L2257.84 920.86 L2257.84 924.058 L2233.73 924.058 L2233.73 920.86 Z" fill="#000000" fill-rule="nonzero" fill-opacity="1" /><path clip-path="url(#clip270)" d="M2274.64 918.98 Q2272.08 918.98 2270.57 920.729 Q2269.09 922.478 2269.09 925.525 Q2269.09 928.553 2270.57 930.321 Q2272.08 932.07 2274.64 932.07 Q2277.2 932.07 2278.68 930.321 Q2280.19 928.553 2280.19 925.525 Q2280.19 922.478 2278.68 920.729 Q2277.2 918.98 2274.64 918.98 M2282.18 907.074 L2282.18 910.535 Q2280.75 909.858 2279.28 909.5 Q2277.83 909.143 2276.41 909.143 Q2272.64 909.143 2270.65 911.682 Q2268.68 914.221 2268.39 919.356 Q2269.5 917.719 2271.18 916.854 Q2272.85 915.97 2274.86 915.97 Q2279.09 915.97 2281.54 918.547 Q2284 921.105 2284 925.525 Q2284 929.85 2281.45 932.465 Q2278.89 935.079 2274.64 935.079 Q2269.77 935.079 2267.19 931.355 Q2264.61 927.612 2264.61 920.522 Q2264.61 913.864 2267.77 909.914 Q2270.93 905.946 2276.25 905.946 Q2277.68 905.946 2279.13 906.228 Q2280.6 906.51 2282.18 907.074 Z" fill="#000000" fill-rule="nonzero" fill-opacity="1" /><path clip-path="url(#clip270)" d="M2037.16 723.479 L2044.8 723.479 L2044.8 697.114 L2036.49 698.78 L2036.49 694.521 L2044.75 692.854 L2049.43 692.854 L2049.43 723.479 L2057.06 723.479 L2057.06 727.414 L2037.16 727.414 L2037.16 723.479 Z" fill="#000000" fill-rule="nonzero" fill-opacity="1" /><path clip-path="url(#clip270)" d="M2066.51 721.535 L2071.39 721.535 L2071.39 727.414 L2066.51 727.414 L2066.51 721.535 Z" fill="#000000" fill-rule="nonzero" fill-opacity="1" /><path clip-path="url(#clip270)" d="M2081.62 692.854 L2099.98 692.854 L2099.98 696.79 L2085.91 696.79 L2085.91 705.262 Q2086.93 704.915 2087.94 704.752 Q2088.96 704.567 2089.98 704.567 Q2095.77 704.567 2099.15 707.739 Q2102.53 710.91 2102.53 716.326 Q2102.53 721.905 2099.06 725.007 Q2095.58 728.086 2089.26 728.086 Q2087.09 728.086 2084.82 727.715 Q2082.57 727.345 2080.17 726.604 L2080.17 721.905 Q2082.25 723.039 2084.47 723.595 Q2086.69 724.151 2089.17 724.151 Q2093.18 724.151 2095.51 722.044 Q2097.85 719.938 2097.85 716.326 Q2097.85 712.715 2095.51 710.609 Q2093.18 708.502 2089.17 708.502 Q2087.3 708.502 2085.42 708.919 Q2083.57 709.336 2081.62 710.215 L2081.62 692.854 Z" fill="#000000" fill-rule="nonzero" fill-opacity="1" /><path clip-path="url(#clip270)" d="M2121.74 695.933 Q2118.13 695.933 2116.3 699.498 Q2114.5 703.04 2114.5 710.169 Q2114.5 717.276 2116.3 720.84 Q2118.13 724.382 2121.74 724.382 Q2125.37 724.382 2127.18 720.84 Q2129.01 717.276 2129.01 710.169 Q2129.01 703.04 2127.18 699.498 Q2125.37 695.933 2121.74 695.933 M2121.74 692.229 Q2127.55 692.229 2130.61 696.836 Q2133.68 701.419 2133.68 710.169 Q2133.68 718.896 2130.61 723.502 Q2127.55 728.086 2121.74 728.086 Q2115.93 728.086 2112.85 723.502 Q2109.8 718.896 2109.8 710.169 Q2109.8 701.419 2112.85 696.836 Q2115.93 692.229 2121.74 692.229 Z" fill="#000000" fill-rule="nonzero" fill-opacity="1" /><path clip-path="url(#clip270)" d="M2170.07 701.952 L2159.49 712.576 L2170.07 723.155 L2167.32 725.956 L2156.69 715.331 L2146.07 725.956 L2143.34 723.155 L2153.89 712.576 L2143.34 701.952 L2146.07 699.151 L2156.69 709.776 L2167.32 699.151 L2170.07 701.952 Z" fill="#000000" fill-rule="nonzero" fill-opacity="1" /><path clip-path="url(#clip270)" d="M2182.43 723.479 L2190.07 723.479 L2190.07 697.114 L2181.76 698.78 L2181.76 694.521 L2190.03 692.854 L2194.7 692.854 L2194.7 723.479 L2202.34 723.479 L2202.34 727.414 L2182.43 727.414 L2182.43 723.479 Z" fill="#000000" fill-rule="nonzero" fill-opacity="1" /><path clip-path="url(#clip270)" d="M2221.79 695.933 Q2218.18 695.933 2216.35 699.498 Q2214.54 703.04 2214.54 710.169 Q2214.54 717.276 2216.35 720.84 Q2218.18 724.382 2221.79 724.382 Q2225.42 724.382 2227.23 720.84 Q2229.05 717.276 2229.05 710.169 Q2229.05 703.04 2227.23 699.498 Q2225.42 695.933 2221.79 695.933 M2221.79 692.229 Q2227.6 692.229 2230.65 696.836 Q2233.73 701.419 2233.73 710.169 Q2233.73 718.896 2230.65 723.502 Q2227.6 728.086 2221.79 728.086 Q2215.98 728.086 2212.9 723.502 Q2209.84 718.896 2209.84 710.169 Q2209.84 701.419 2212.9 696.836 Q2215.98 692.229 2221.79 692.229 Z" fill="#000000" fill-rule="nonzero" fill-opacity="1" /><path clip-path="url(#clip270)" d="M2233.73 686.331 L2257.84 686.331 L2257.84 689.528 L2233.73 689.528 L2233.73 686.331 Z" fill="#000000" fill-rule="nonzero" fill-opacity="1" /><path clip-path="url(#clip270)" d="M2274.64 684.45 Q2272.08 684.45 2270.57 686.199 Q2269.09 687.948 2269.09 690.995 Q2269.09 694.023 2270.57 695.791 Q2272.08 697.54 2274.64 697.54 Q2277.2 697.54 2278.68 695.791 Q2280.19 694.023 2280.19 690.995 Q2280.19 687.948 2278.68 686.199 Q2277.2 684.45 2274.64 684.45 M2282.18 672.545 L2282.18 676.005 Q2280.75 675.328 2279.28 674.971 Q2277.83 674.613 2276.41 674.613 Q2272.64 674.613 2270.65 677.153 Q2268.68 679.692 2268.39 684.826 Q2269.5 683.19 2271.18 682.325 Q2272.85 681.441 2274.86 681.441 Q2279.09 681.441 2281.54 684.017 Q2284 686.575 2284 690.995 Q2284 695.321 2281.45 697.935 Q2278.89 700.549 2274.64 700.549 Q2269.77 700.549 2267.19 696.825 Q2264.61 693.083 2264.61 685.992 Q2264.61 679.334 2267.77 675.385 Q2270.93 671.416 2276.25 671.416 Q2277.68 671.416 2279.13 671.698 Q2280.6 671.98 2282.18 672.545 Z" fill="#000000" fill-rule="nonzero" fill-opacity="1" /><path clip-path="url(#clip270)" d="M2042.11 488.95 L2058.43 488.95 L2058.43 492.885 L2036.49 492.885 L2036.49 488.95 Q2039.15 486.195 2043.73 481.565 Q2048.34 476.913 2049.52 475.57 Q2051.76 473.047 2052.64 471.311 Q2053.55 469.552 2053.55 467.862 Q2053.55 465.107 2051.6 463.371 Q2049.68 461.635 2046.58 461.635 Q2044.38 461.635 2041.93 462.399 Q2039.5 463.163 2036.72 464.714 L2036.72 459.991 Q2039.54 458.857 2042 458.278 Q2044.45 457.7 2046.49 457.7 Q2051.86 457.7 2055.05 460.385 Q2058.25 463.07 2058.25 467.561 Q2058.25 469.69 2057.44 471.612 Q2056.65 473.51 2054.54 476.102 Q2053.96 476.774 2050.86 479.991 Q2047.76 483.186 2042.11 488.95 Z" fill="#000000" fill-rule="nonzero" fill-opacity="1" /><path clip-path="url(#clip270)" d="M2068.25 487.005 L2073.13 487.005 L2073.13 492.885 L2068.25 492.885 L2068.25 487.005 Z" fill="#000000" fill-rule="nonzero" fill-opacity="1" /><path clip-path="url(#clip270)" d="M2093.31 461.403 Q2089.7 461.403 2087.87 464.968 Q2086.07 468.51 2086.07 475.639 Q2086.07 482.746 2087.87 486.311 Q2089.7 489.852 2093.31 489.852 Q2096.95 489.852 2098.75 486.311 Q2100.58 482.746 2100.58 475.639 Q2100.58 468.51 2098.75 464.968 Q2096.95 461.403 2093.31 461.403 M2093.31 457.7 Q2099.12 457.7 2102.18 462.306 Q2105.26 466.89 2105.26 475.639 Q2105.26 484.366 2102.18 488.973 Q2099.12 493.556 2093.31 493.556 Q2087.5 493.556 2084.43 488.973 Q2081.37 484.366 2081.37 475.639 Q2081.37 466.89 2084.43 462.306 Q2087.5 457.7 2093.31 457.7 Z" fill="#000000" fill-rule="nonzero" fill-opacity="1" /><path clip-path="url(#clip270)" d="M2123.48 461.403 Q2119.87 461.403 2118.04 464.968 Q2116.23 468.51 2116.23 475.639 Q2116.23 482.746 2118.04 486.311 Q2119.87 489.852 2123.48 489.852 Q2127.11 489.852 2128.92 486.311 Q2130.75 482.746 2130.75 475.639 Q2130.75 468.51 2128.92 464.968 Q2127.11 461.403 2123.48 461.403 M2123.48 457.7 Q2129.29 457.7 2132.34 462.306 Q2135.42 466.89 2135.42 475.639 Q2135.42 484.366 2132.34 488.973 Q2129.29 493.556 2123.48 493.556 Q2117.67 493.556 2114.59 488.973 Q2111.53 484.366 2111.53 475.639 Q2111.53 466.89 2114.59 462.306 Q2117.67 457.7 2123.48 457.7 Z" fill="#000000" fill-rule="nonzero" fill-opacity="1" /><path clip-path="url(#clip270)" d="M2171.81 467.422 L2161.23 478.047 L2171.81 488.626 L2169.05 491.426 L2158.43 480.801 L2147.81 491.426 L2145.07 488.626 L2155.63 478.047 L2145.07 467.422 L2147.81 464.621 L2158.43 475.246 L2169.05 464.621 L2171.81 467.422 Z" fill="#000000" fill-rule="nonzero" fill-opacity="1" /><path clip-path="url(#clip270)" d="M2184.17 488.95 L2191.81 488.95 L2191.81 462.584 L2183.5 464.251 L2183.5 459.991 L2191.76 458.325 L2196.44 458.325 L2196.44 488.95 L2204.08 488.95 L2204.08 492.885 L2184.17 492.885 L2184.17 488.95 Z" fill="#000000" fill-rule="nonzero" fill-opacity="1" /><path clip-path="url(#clip270)" d="M2223.52 461.403 Q2219.91 461.403 2218.08 464.968 Q2216.28 468.51 2216.28 475.639 Q2216.28 482.746 2218.08 486.311 Q2219.91 489.852 2223.52 489.852 Q2227.16 489.852 2228.96 486.311 Q2230.79 482.746 2230.79 475.639 Q2230.79 468.51 2228.96 464.968 Q2227.16 461.403 2223.52 461.403 M2223.52 457.7 Q2229.33 457.7 2232.39 462.306 Q2235.47 466.89 2235.47 475.639 Q2235.47 484.366 2232.39 488.973 Q2229.33 493.556 2223.52 493.556 Q2217.71 493.556 2214.63 488.973 Q2211.58 484.366 2211.58 475.639 Q2211.58 466.89 2214.63 462.306 Q2217.71 457.7 2223.52 457.7 Z" fill="#000000" fill-rule="nonzero" fill-opacity="1" /><path clip-path="url(#clip270)" d="M2235.47 451.801 L2259.58 451.801 L2259.58 454.998 L2235.47 454.998 L2235.47 451.801 Z" fill="#000000" fill-rule="nonzero" fill-opacity="1" /><path clip-path="url(#clip270)" d="M2276.37 449.92 Q2273.82 449.92 2272.31 451.669 Q2270.83 453.419 2270.83 456.465 Q2270.83 459.493 2272.31 461.261 Q2273.82 463.011 2276.37 463.011 Q2278.93 463.011 2280.42 461.261 Q2281.92 459.493 2281.92 456.465 Q2281.92 453.419 2280.42 451.669 Q2278.93 449.92 2276.37 449.92 M2283.92 438.015 L2283.92 441.476 Q2282.49 440.799 2281.02 440.441 Q2279.57 440.084 2278.14 440.084 Q2274.38 440.084 2272.39 442.623 Q2270.41 445.162 2270.13 450.296 Q2271.24 448.66 2272.91 447.795 Q2274.59 446.911 2276.6 446.911 Q2280.83 446.911 2283.28 449.488 Q2285.74 452.046 2285.74 456.465 Q2285.74 460.791 2283.18 463.405 Q2280.62 466.02 2276.37 466.02 Q2271.5 466.02 2268.93 462.296 Q2266.35 458.553 2266.35 451.463 Q2266.35 444.805 2269.51 440.855 Q2272.67 436.887 2277.99 436.887 Q2279.42 436.887 2280.87 437.169 Q2282.34 437.451 2283.92 438.015 Z" fill="#000000" fill-rule="nonzero" fill-opacity="1" /><path clip-path="url(#clip270)" d="M2042.11 254.42 L2058.43 254.42 L2058.43 258.355 L2036.49 258.355 L2036.49 254.42 Q2039.15 251.665 2043.73 247.036 Q2048.34 242.383 2049.52 241.04 Q2051.76 238.517 2052.64 236.781 Q2053.55 235.022 2053.55 233.332 Q2053.55 230.577 2051.6 228.841 Q2049.68 227.105 2046.58 227.105 Q2044.38 227.105 2041.93 227.869 Q2039.5 228.633 2036.72 230.184 L2036.72 225.462 Q2039.54 224.328 2042 223.749 Q2044.45 223.17 2046.49 223.17 Q2051.86 223.17 2055.05 225.855 Q2058.25 228.54 2058.25 233.031 Q2058.25 235.161 2057.44 237.082 Q2056.65 238.98 2054.54 241.573 Q2053.96 242.244 2050.86 245.462 Q2047.76 248.656 2042.11 254.42 Z" fill="#000000" fill-rule="nonzero" fill-opacity="1" /><path clip-path="url(#clip270)" d="M2068.25 252.476 L2073.13 252.476 L2073.13 258.355 L2068.25 258.355 L2068.25 252.476 Z" fill="#000000" fill-rule="nonzero" fill-opacity="1" /><path clip-path="url(#clip270)" d="M2083.36 223.795 L2101.72 223.795 L2101.72 227.73 L2087.64 227.73 L2087.64 236.202 Q2088.66 235.855 2089.68 235.693 Q2090.7 235.508 2091.72 235.508 Q2097.5 235.508 2100.88 238.679 Q2104.26 241.851 2104.26 247.267 Q2104.26 252.846 2100.79 255.948 Q2097.32 259.026 2091 259.026 Q2088.82 259.026 2086.56 258.656 Q2084.31 258.286 2081.9 257.545 L2081.9 252.846 Q2083.99 253.98 2086.21 254.536 Q2088.43 255.091 2090.91 255.091 Q2094.91 255.091 2097.25 252.985 Q2099.59 250.878 2099.59 247.267 Q2099.59 243.656 2097.25 241.55 Q2094.91 239.443 2090.91 239.443 Q2089.03 239.443 2087.16 239.86 Q2085.31 240.277 2083.36 241.156 L2083.36 223.795 Z" fill="#000000" fill-rule="nonzero" fill-opacity="1" /><path clip-path="url(#clip270)" d="M2123.48 226.874 Q2119.87 226.874 2118.04 230.439 Q2116.23 233.98 2116.23 241.11 Q2116.23 248.216 2118.04 251.781 Q2119.87 255.323 2123.48 255.323 Q2127.11 255.323 2128.92 251.781 Q2130.75 248.216 2130.75 241.11 Q2130.75 233.98 2128.92 230.439 Q2127.11 226.874 2123.48 226.874 M2123.48 223.17 Q2129.29 223.17 2132.34 227.777 Q2135.42 232.36 2135.42 241.11 Q2135.42 249.837 2132.34 254.443 Q2129.29 259.026 2123.48 259.026 Q2117.67 259.026 2114.59 254.443 Q2111.53 249.837 2111.53 241.11 Q2111.53 232.36 2114.59 227.777 Q2117.67 223.17 2123.48 223.17 Z" fill="#000000" fill-rule="nonzero" fill-opacity="1" /><path clip-path="url(#clip270)" d="M2171.81 232.892 L2161.23 243.517 L2171.81 254.096 L2169.05 256.897 L2158.43 246.272 L2147.81 256.897 L2145.07 254.096 L2155.63 243.517 L2145.07 232.892 L2147.81 230.091 L2158.43 240.716 L2169.05 230.091 L2171.81 232.892 Z" fill="#000000" fill-rule="nonzero" fill-opacity="1" /><path clip-path="url(#clip270)" d="M2184.17 254.42 L2191.81 254.42 L2191.81 228.054 L2183.5 229.721 L2183.5 225.462 L2191.76 223.795 L2196.44 223.795 L2196.44 254.42 L2204.08 254.42 L2204.08 258.355 L2184.17 258.355 L2184.17 254.42 Z" fill="#000000" fill-rule="nonzero" fill-opacity="1" /><path clip-path="url(#clip270)" d="M2223.52 226.874 Q2219.91 226.874 2218.08 230.439 Q2216.28 233.98 2216.28 241.11 Q2216.28 248.216 2218.08 251.781 Q2219.91 255.323 2223.52 255.323 Q2227.16 255.323 2228.96 251.781 Q2230.79 248.216 2230.79 241.11 Q2230.79 233.98 2228.96 230.439 Q2227.16 226.874 2223.52 226.874 M2223.52 223.17 Q2229.33 223.17 2232.39 227.777 Q2235.47 232.36 2235.47 241.11 Q2235.47 249.837 2232.39 254.443 Q2229.33 259.026 2223.52 259.026 Q2217.71 259.026 2214.63 254.443 Q2211.58 249.837 2211.58 241.11 Q2211.58 232.36 2214.63 227.777 Q2217.71 223.17 2223.52 223.17 Z" fill="#000000" fill-rule="nonzero" fill-opacity="1" /><path clip-path="url(#clip270)" d="M2235.47 217.271 L2259.58 217.271 L2259.58 220.469 L2235.47 220.469 L2235.47 217.271 Z" fill="#000000" fill-rule="nonzero" fill-opacity="1" /><path clip-path="url(#clip270)" d="M2276.37 215.391 Q2273.82 215.391 2272.31 217.14 Q2270.83 218.889 2270.83 221.936 Q2270.83 224.964 2272.31 226.732 Q2273.82 228.481 2276.37 228.481 Q2278.93 228.481 2280.42 226.732 Q2281.92 224.964 2281.92 221.936 Q2281.92 218.889 2280.42 217.14 Q2278.93 215.391 2276.37 215.391 M2283.92 203.485 L2283.92 206.946 Q2282.49 206.269 2281.02 205.912 Q2279.57 205.554 2278.14 205.554 Q2274.38 205.554 2272.39 208.093 Q2270.41 210.632 2270.13 215.767 Q2271.24 214.131 2272.91 213.265 Q2274.59 212.381 2276.6 212.381 Q2280.83 212.381 2283.28 214.958 Q2285.74 217.516 2285.74 221.936 Q2285.74 226.262 2283.18 228.876 Q2280.62 231.49 2276.37 231.49 Q2271.5 231.49 2268.93 227.766 Q2266.35 224.023 2266.35 216.933 Q2266.35 210.275 2269.51 206.325 Q2272.67 202.357 2277.99 202.357 Q2279.42 202.357 2280.87 202.639 Q2282.34 202.921 2283.92 203.485 Z" fill="#000000" fill-rule="nonzero" fill-opacity="1" /><path clip-path="url(#clip270)" d="M2328.95 814.438 L2394.14 814.438 L2394.14 819.849 L2328.95 819.849 L2328.95 814.438 Z" fill="#000000" fill-rule="nonzero" fill-opacity="1" /><path clip-path="url(#clip270)" d="M2359.48 769.528 L2362.34 769.528 L2362.34 796.455 Q2368.39 796.073 2371.57 792.827 Q2374.72 789.548 2374.72 783.724 Q2374.72 780.35 2373.89 777.199 Q2373.07 774.016 2371.41 770.897 L2376.95 770.897 Q2378.29 774.048 2378.99 777.358 Q2379.69 780.668 2379.69 784.074 Q2379.69 792.604 2374.72 797.601 Q2369.76 802.566 2361.29 802.566 Q2352.54 802.566 2347.41 797.856 Q2342.26 793.113 2342.26 785.092 Q2342.26 777.899 2346.9 773.73 Q2351.52 769.528 2359.48 769.528 M2357.76 775.385 Q2352.95 775.448 2350.09 778.09 Q2347.22 780.7 2347.22 785.029 Q2347.22 789.93 2349.99 792.89 Q2352.76 795.819 2357.79 796.264 L2357.76 775.385 Z" fill="#000000" fill-rule="nonzero" fill-opacity="1" /><path clip-path="url(#clip270)" d="M2348.59 739.259 Q2348.02 740.246 2347.76 741.424 Q2347.48 742.569 2347.48 743.97 Q2347.48 748.935 2350.72 751.609 Q2353.94 754.25 2359.99 754.25 L2378.76 754.25 L2378.76 760.139 L2343.12 760.139 L2343.12 754.25 L2348.65 754.25 Q2345.41 752.404 2343.85 749.444 Q2342.26 746.484 2342.26 742.251 Q2342.26 741.646 2342.35 740.914 Q2342.42 740.182 2342.57 739.291 L2348.59 739.259 Z" fill="#000000" fill-rule="nonzero" fill-opacity="1" /><path clip-path="url(#clip270)" d="M2348.59 713.605 Q2348.02 714.592 2347.76 715.77 Q2347.48 716.916 2347.48 718.316 Q2347.48 723.281 2350.72 725.955 Q2353.94 728.597 2359.99 728.597 L2378.76 728.597 L2378.76 734.485 L2343.12 734.485 L2343.12 728.597 L2348.65 728.597 Q2345.41 726.751 2343.85 723.791 Q2342.26 720.831 2342.26 716.597 Q2342.26 715.993 2342.35 715.261 Q2342.42 714.528 2342.57 713.637 L2348.59 713.605 Z" fill="#000000" fill-rule="nonzero" fill-opacity="1" /><path clip-path="url(#clip270)" d="M2347.22 695.081 Q2347.22 699.792 2350.91 702.529 Q2354.57 705.266 2360.97 705.266 Q2367.37 705.266 2371.06 702.561 Q2374.72 699.824 2374.72 695.081 Q2374.72 690.402 2371.03 687.665 Q2367.34 684.928 2360.97 684.928 Q2354.64 684.928 2350.95 687.665 Q2347.22 690.402 2347.22 695.081 M2342.26 695.081 Q2342.26 687.442 2347.22 683.082 Q2352.19 678.721 2360.97 678.721 Q2369.72 678.721 2374.72 683.082 Q2379.69 687.442 2379.69 695.081 Q2379.69 702.752 2374.72 707.112 Q2369.72 711.441 2360.97 711.441 Q2352.19 711.441 2347.22 707.112 Q2342.26 702.752 2342.26 695.081 Z" fill="#000000" fill-rule="nonzero" fill-opacity="1" /><path clip-path="url(#clip270)" d="M2348.59 648.357 Q2348.02 649.344 2347.76 650.521 Q2347.48 651.667 2347.48 653.068 Q2347.48 658.033 2350.72 660.706 Q2353.94 663.348 2359.99 663.348 L2378.76 663.348 L2378.76 669.236 L2343.12 669.236 L2343.12 663.348 L2348.65 663.348 Q2345.41 661.502 2343.85 658.542 Q2342.26 655.582 2342.26 651.349 Q2342.26 650.744 2342.35 650.012 Q2342.42 649.28 2342.57 648.389 L2348.59 648.357 Z" fill="#000000" fill-rule="nonzero" fill-opacity="1" /><path clip-path="url(#clip270)" d="M2328.95 634.671 L2394.14 634.671 L2394.14 640.082 L2328.95 640.082 L2328.95 634.671 Z" fill="#000000" fill-rule="nonzero" fill-opacity="1" /><polyline clip-path="url(#clip272)" style="stroke:#808080; stroke-linecap:round; stroke-linejoin:round; stroke-width:6; stroke-opacity:1; fill:none" stroke-dasharray="3, 6" points="227.097,1394.69 233.849,1398.62 240.601,1384.57 247.353,1345.17 254.105,1216.5 260.857,1356.64 267.609,1359.52 274.361,1358.91 281.113,1100.09 287.864,1299.87 294.616,1351.45 301.368,1343.25 308.12,1299.49 314.872,1385.41 321.624,1351.2 328.376,1395.38 335.128,1394.15 341.88,1385.2 348.632,1387.51 355.384,1399.25 362.135,1349.4 368.887,1390.19 375.639,1362.15 382.391,1380.29 389.143,1192.32 395.895,1308.39 402.647,1338.99 409.399,1350.76 416.151,1249.35 422.903,1405.06 429.655,1352.21 436.406,1379.96 443.158,1370.08 449.91,1312.38 456.662,1395.06 463.414,1253.94 470.166,1112.03 476.918,1236.88 483.67,1347.51 490.422,1360.38 497.174,1323.75 503.926,1325.15 510.677,1350.79 517.429,1256 524.181,981.778 530.933,1324.46 537.685,1338.25 544.437,1376.35 551.189,1398.35 557.941,1371.36 564.693,1385.92 571.445,1344.32 578.197,1385.51 584.948,1369.1 591.7,1357.81 598.452,1363.35 605.204,1360.67 611.956,1357.35 618.708,1381.49 625.46,1317.74 632.212,1124.79 638.964,1336.44 645.716,1375.22 652.468,1395.46 659.22,1388.83 665.971,1355 672.723,1385.73 679.475,1367 686.227,1279.34 692.979,1351.25 699.731,1304.57 706.483,1261.6 713.235,1172.44 719.987,1271.92 726.739,1395.66 733.491,1341.55 740.242,1272.92 746.994,1402.02 753.746,1363.45 760.498,1398.3 767.25,1388.96 774.002,1341.83 780.754,1379.59 787.506,1325.91 794.258,1337.37 801.01,1344.97 807.762,1319.78 814.513,1310.91 821.265,1215.96 828.017,1107.08 834.769,1345.25 841.521,1367.8 848.273,1246.93 855.025,1379.62 861.777,1319.69 868.529,1374.62 875.281,1391.7 882.033,1369.19 888.784,1380.1 895.536,1392.26 902.288,1347.87 909.04,1368.21 915.792,1386.54 922.544,1387.03 929.296,1335.33 936.048,1297.02 942.8,1344.83 949.552,1338.6 956.304,928.284 963.055,1331.69 969.807,1361.84 976.559,1397.44 983.311,1392.05 990.063,1362.48 996.815,1366.41 1003.57,1378.55 1010.32,1364.82 1017.07,1366.03 1023.82,1328.29 1030.57,1379.99 1037.33,1379.85 1044.08,1341.4 1050.83,1348.05 1057.58,1339.18 1064.33,908.54 1071.09,1360.05 1077.84,1322.94 1084.59,1387.35 1091.34,1391.91 1098.09,1348 1104.85,1375.66 1111.6,1280.94 1118.35,1288.84 1125.1,1285.89 1131.85,1302.64 1138.61,1374.71 1145.36,1378.91 1152.11,1333.67 1158.86,1381.66 1165.61,1379.8 1172.36,1028.35 1179.12,1359.05 1185.87,1360.29 1192.62,1393.35 1199.37,1399.75 1206.12,1379.49 1212.88,1383.54 1219.63,1339.06 1226.38,1127.61 1233.13,1322.36 1239.88,1343.75 1246.64,1365.49 1253.39,1335.36 1260.14,1373.19 1266.89,1369.63 1273.64,1324.38 1280.4,1362.32 1287.15,1402.47 1293.9,1382.96 1300.65,1397.29 1307.4,1384.61 1314.15,1328.45 1320.91,1380.88 1327.66,1344.43 1334.41,1377.72 1341.16,1340.59 1347.91,1289.65 1354.67,1289.32 1361.42,1166.79 1368.17,1253.48 1374.92,1328.63 1381.67,1359.06 1388.43,1375.73 1395.18,1373.44 1401.93,1350.04 1408.68,1385.63 1415.43,1390.89 1422.19,1361.9 1428.94,1399.31 1435.69,1382.78 1442.44,1315.22 1449.19,1334.07 1455.94,1332.6 1462.7,1341.06 1469.45,1125.32 1476.2,1155.57 1482.95,1326.29 1489.7,1350.26 1496.46,1241.9 1503.21,1382.33 1509.96,1349.18 1516.71,1389 1523.46,1393.15 1530.22,1379.27 1536.97,1370.11 1543.72,1325.6 1550.47,1237.68 1557.22,1327.47 1563.98,1386.28 1570.73,1389.5 1577.48,1335.24 1584.23,1341.78 1590.98,1371.43 1597.73,1405.74 1604.49,1249.09 1611.24,1373.07 1617.99,1372.56 1624.74,1399.83 1631.49,1374.04 1638.25,1336.47 1645,1357.38 1651.75,1284.09 1658.5,1051.22 1665.25,1362.01 1672.01,1351.39 1678.76,1359.19 1685.51,1119.36 1692.26,1311.21 1699.01,1342.8 1705.77,1299.45 1712.52,727.26 1719.27,1393.65 1726.02,1291.02 1732.77,1368.04 1739.52,1384.2 1746.28,1369.82 1753.03,1397.24 1759.78,1356.07 1766.53,1210.64 1773.28,1313.79 1780.04,1329.81 1786.79,1358.76 1793.54,1243.75 1800.29,1308.26 1807.04,1380.84 1813.8,1366.6 1820.55,1373.12 1827.3,1377.58 1834.05,1387.71 1840.8,1400.95 1847.56,1399.99 1854.31,1378.13 1861.06,1390.5 1867.81,1355.65 1874.56,1246.11 1881.32,1313.5 1888.07,1333.47 1894.82,1290.79 1901.57,1293.13 1908.32,1327.67 1915.07,1382.4 1921.83,1321.5 1928.58,1183.97 1935.33,1370.35 1942.08,1378.15 1948.83,1398.86 "/>
<path clip-path="url(#clip270)" d="M1467.75 196.258 L1939.65 196.258 L1939.65 92.5785 L1467.75 92.5785  Z" fill="#ffffff" fill-rule="evenodd" fill-opacity="1"/>
<polyline clip-path="url(#clip270)" style="stroke:#000000; stroke-linecap:round; stroke-linejoin:round; stroke-width:4; stroke-opacity:1; fill:none" points="1467.75,196.258 1939.65,196.258 1939.65,92.5785 1467.75,92.5785 1467.75,196.258 "/>
<polyline clip-path="url(#clip270)" style="stroke:#808080; stroke-linecap:round; stroke-linejoin:round; stroke-width:6; stroke-opacity:1; fill:none" stroke-dasharray="3, 6" points="1488.03,144.418 1609.7,144.418 "/>
<path clip-path="url(#clip270)" d="M1633.91 125.472 L1633.91 172.879 L1629.98 172.879 L1629.98 125.472 L1633.91 125.472 Z" fill="#000000" fill-rule="nonzero" fill-opacity="1" /><path clip-path="url(#clip270)" d="M1658.61 130.31 Q1653.52 130.31 1650.51 134.106 Q1647.52 137.902 1647.52 144.453 Q1647.52 150.981 1650.51 154.777 Q1653.52 158.573 1658.61 158.573 Q1663.7 158.573 1666.67 154.777 Q1669.65 150.981 1669.65 144.453 Q1669.65 137.902 1666.67 134.106 Q1663.7 130.31 1658.61 130.31 M1665.16 161.073 L1671.32 167.81 L1665.67 167.81 L1660.56 162.277 Q1659.79 162.323 1659.37 162.347 Q1658.98 162.37 1658.61 162.37 Q1651.32 162.37 1646.94 157.509 Q1642.59 152.624 1642.59 144.453 Q1642.59 136.259 1646.94 131.398 Q1651.32 126.513 1658.61 126.513 Q1665.88 126.513 1670.23 131.398 Q1674.58 136.259 1674.58 144.453 Q1674.58 150.472 1672.15 154.754 Q1669.75 159.036 1665.16 161.073 Z" fill="#000000" fill-rule="nonzero" fill-opacity="1" /><path clip-path="url(#clip270)" d="M1681.9 127.138 L1701.76 127.138 L1701.76 131.074 L1686.57 131.074 L1686.57 141.259 L1700.28 141.259 L1700.28 145.194 L1686.57 145.194 L1686.57 161.698 L1681.9 161.698 L1681.9 127.138 Z" fill="#000000" fill-rule="nonzero" fill-opacity="1" /><path clip-path="url(#clip270)" d="M1703.54 127.138 L1732.78 127.138 L1732.78 131.074 L1720.51 131.074 L1720.51 161.698 L1715.81 161.698 L1715.81 131.074 L1703.54 131.074 L1703.54 127.138 Z" fill="#000000" fill-rule="nonzero" fill-opacity="1" /><path clip-path="url(#clip270)" d="M1750.02 146.814 L1762.5 146.814 L1762.5 150.611 L1750.02 150.611 L1750.02 146.814 Z" fill="#000000" fill-rule="nonzero" fill-opacity="1" /><path clip-path="url(#clip270)" d="M1784.54 127.138 L1804.4 127.138 L1804.4 131.074 L1789.21 131.074 L1789.21 141.259 L1802.92 141.259 L1802.92 145.194 L1789.21 145.194 L1789.21 161.698 L1784.54 161.698 L1784.54 127.138 Z" fill="#000000" fill-rule="nonzero" fill-opacity="1" /><path clip-path="url(#clip270)" d="M1811.8 127.138 L1831.67 127.138 L1831.67 131.074 L1816.48 131.074 L1816.48 141.259 L1830.18 141.259 L1830.18 145.194 L1816.48 145.194 L1816.48 161.698 L1811.8 161.698 L1811.8 127.138 Z" fill="#000000" fill-rule="nonzero" fill-opacity="1" /><path clip-path="url(#clip270)" d="M1833.45 127.138 L1862.68 127.138 L1862.68 131.074 L1850.42 131.074 L1850.42 161.698 L1845.72 161.698 L1845.72 131.074 L1833.45 131.074 L1833.45 127.138 Z" fill="#000000" fill-rule="nonzero" fill-opacity="1" /><path clip-path="url(#clip270)" d="M1864.12 127.138 L1868.84 127.138 L1876.11 156.351 L1883.35 127.138 L1888.61 127.138 L1895.88 156.351 L1903.12 127.138 L1907.87 127.138 L1899.19 161.698 L1893.31 161.698 L1886.02 131.699 L1878.66 161.698 L1872.78 161.698 L1864.12 127.138 Z" fill="#000000" fill-rule="nonzero" fill-opacity="1" /><path clip-path="url(#clip270)" d="M1919.37 125.472 L1919.37 172.879 L1915.44 172.879 L1915.44 125.472 L1919.37 125.472 Z" fill="#000000" fill-rule="nonzero" fill-opacity="1" /></svg>
