<?xml version="1.0" encoding="UTF-8"?>
<svg xmlns="http://www.w3.org/2000/svg" xmlns:xlink="http://www.w3.org/1999/xlink" width="1100" height="700" viewBox="0 0 1100 700">
<defs>
<g>
<g id="glyph-0-0-c5c3ebe9">
<path d="M 12.890625 -3.140625 C 12.890625 -3.359375 12.71875 -3.359375 12.5625 -3.359375 C 12.28125 -3.359375 12.28125 -3.328125 12.1875 -2.984375 C 12.015625 -2.390625 11.421875 -0.234375 10.140625 -0.234375 C 9.6875 -0.234375 9.65625 -0.578125 9.65625 -0.875 C 9.65625 -1.4375 9.875 -2 10.046875 -2.53125 C 10.5 -3.703125 11.390625 -6.15625 11.390625 -7.4375 C 11.390625 -9.234375 10.1875 -9.71875 9.109375 -9.71875 C 7.296875 -9.71875 6.25 -8.40625 5.96875 -7.984375 C 5.8125 -9.0625 5.0625 -9.71875 4.109375 -9.71875 C 3.328125 -9.71875 2.875 -9.21875 2.53125 -8.5625 C 2.109375 -7.671875 1.828125 -6.34375 1.828125 -6.34375 C 1.828125 -6.109375 2.046875 -6.109375 2.15625 -6.109375 C 2.4375 -6.109375 2.46875 -6.140625 2.578125 -6.625 C 2.96875 -8.15625 3.390625 -9.234375 4.0625 -9.234375 C 4.640625 -9.234375 4.640625 -8.609375 4.640625 -8.359375 C 4.640625 -8.015625 4.578125 -7.59375 4.484375 -7.234375 L 2.84375 -0.640625 C 2.796875 -0.5 2.765625 -0.390625 2.765625 -0.328125 C 2.765625 -0.09375 2.953125 0.234375 3.390625 0.234375 C 3.65625 0.234375 4.03125 0.09375 4.1875 -0.328125 L 5.0625 -3.84375 C 5.171875 -4.328125 5.296875 -4.796875 5.40625 -5.28125 C 5.703125 -6.40625 5.703125 -6.421875 6.078125 -7.0625 C 6.375 -7.59375 7.375 -9.234375 9.046875 -9.234375 C 10.015625 -9.234375 10.046875 -8.25 10.046875 -7.78125 C 10.046875 -6.421875 9.09375 -3.8125 8.78125 -2.921875 C 8.484375 -2.171875 8.421875 -1.984375 8.421875 -1.515625 C 8.421875 -0.546875 9.046875 0.234375 10.09375 0.234375 C 12.140625 0.234375 12.890625 -3.03125 12.890625 -3.140625 Z M 12.890625 -3.140625 "/>
</g>
<g id="glyph-1-0-c5c3ebe9">
<path d="M 7.296875 5.234375 C 7.296875 5.171875 7.265625 5.109375 7.21875 5.0625 C 4.921875 3.34375 3.40625 -1.0625 3.40625 -4.578125 L 3.40625 -6.421875 C 3.40625 -9.9375 4.921875 -14.34375 7.21875 -16.0625 C 7.265625 -16.109375 7.296875 -16.171875 7.296875 -16.234375 C 7.296875 -16.34375 7.1875 -16.453125 7.078125 -16.453125 C 7.046875 -16.453125 7 -16.4375 6.953125 -16.40625 C 4.53125 -14.59375 2.21875 -10.1875 2.21875 -6.421875 L 2.21875 -4.578125 C 2.21875 -0.8125 4.53125 3.59375 6.953125 5.40625 C 7 5.4375 7.046875 5.453125 7.078125 5.453125 C 7.1875 5.453125 7.296875 5.34375 7.296875 5.234375 Z M 7.296875 5.234375 "/>
</g>
<g id="glyph-1-1-c5c3ebe9">
<path d="M 11.59375 4.265625 L 11.59375 3.59375 C 10.125 3.59375 9.875 3.59375 9.875 2.59375 L 9.875 -9.71875 L 9.390625 -9.71875 L 8.5625 -7.71875 C 8.265625 -8.34375 7.375 -9.71875 5.609375 -9.71875 C 3.0625 -9.71875 0.75 -7.59375 0.75 -4.734375 C 0.75 -1.984375 2.875 0.234375 5.4375 0.234375 C 6.96875 0.234375 7.875 -0.703125 8.359375 -1.34375 L 8.359375 2.59375 C 8.359375 3.59375 8.125 3.59375 6.640625 3.59375 L 6.640625 4.265625 L 9.109375 4.203125 Z M 8.421875 -2.984375 C 8.421875 -2.28125 8.03125 -1.671875 7.546875 -1.140625 C 7.265625 -0.84375 6.5625 -0.234375 5.515625 -0.234375 C 3.921875 -0.234375 2.578125 -2.203125 2.578125 -4.734375 C 2.578125 -7.34375 4.109375 -9.171875 5.734375 -9.171875 C 7.5 -9.171875 8.421875 -7.265625 8.421875 -6.09375 Z M 8.421875 -2.984375 "/>
</g>
<g id="glyph-1-2-c5c3ebe9">
<path d="M 11.765625 0 L 11.765625 -0.6875 C 10.234375 -0.6875 10.046875 -0.84375 10.046875 -1.90625 L 10.046875 -9.71875 L 6.8125 -9.484375 L 6.8125 -8.796875 C 8.359375 -8.796875 8.53125 -8.640625 8.53125 -7.5625 L 8.53125 -3.65625 C 8.53125 -1.734375 7.484375 -0.234375 5.875 -0.234375 C 4.03125 -0.234375 3.9375 -1.28125 3.9375 -2.421875 L 3.9375 -9.71875 L 0.703125 -9.484375 L 0.703125 -8.796875 C 2.421875 -8.796875 2.421875 -8.734375 2.421875 -6.78125 L 2.421875 -3.46875 C 2.421875 -1.765625 2.421875 0.234375 5.765625 0.234375 C 7 0.234375 7.96875 -0.375 8.609375 -1.734375 L 8.609375 0.234375 Z M 11.765625 0 "/>
</g>
<g id="glyph-1-3-c5c3ebe9">
<path d="M 11.46875 -4.75 C 11.46875 -7.546875 9.3125 -9.71875 6.796875 -9.71875 C 5.078125 -9.71875 4.140625 -8.6875 3.78125 -8.296875 L 3.78125 -15.265625 L 0.609375 -15.03125 L 0.609375 -14.34375 C 2.15625 -14.34375 2.328125 -14.1875 2.328125 -13.109375 L 2.328125 0 L 2.875 0 L 3.671875 -1.359375 C 4 -0.859375 4.921875 0.234375 6.5625 0.234375 C 9.171875 0.234375 11.46875 -1.90625 11.46875 -4.75 Z M 9.640625 -4.78125 C 9.640625 -3.953125 9.59375 -2.640625 8.953125 -1.65625 C 8.484375 -0.96875 7.65625 -0.234375 6.46875 -0.234375 C 5.484375 -0.234375 4.6875 -0.765625 4.15625 -1.578125 C 3.84375 -2.046875 3.84375 -2.109375 3.84375 -2.515625 L 3.84375 -7.046875 C 3.84375 -7.453125 3.84375 -7.484375 4.09375 -7.828125 C 4.953125 -9.0625 6.15625 -9.234375 6.6875 -9.234375 C 7.671875 -9.234375 8.46875 -8.671875 9 -7.828125 C 9.5625 -6.9375 9.640625 -5.671875 9.640625 -4.78125 Z M 9.640625 -4.78125 "/>
</g>
<g id="glyph-1-4-c5c3ebe9">
<path d="M 5.4375 0 L 5.4375 -0.6875 C 3.984375 -0.6875 3.890625 -0.796875 3.890625 -1.65625 L 3.890625 -9.71875 L 0.8125 -9.484375 L 0.8125 -8.796875 C 2.25 -8.796875 2.4375 -8.671875 2.4375 -7.59375 L 2.4375 -1.671875 C 2.4375 -0.6875 2.203125 -0.6875 0.71875 -0.6875 L 0.71875 0 L 3.140625 -0.0625 C 3.921875 -0.0625 4.6875 -0.015625 5.4375 0 Z M 4.21875 -13.28125 C 4.21875 -13.875 3.71875 -14.453125 3.0625 -14.453125 C 2.3125 -14.453125 1.875 -13.84375 1.875 -13.28125 C 1.875 -12.6875 2.375 -12.125 3.03125 -12.125 C 3.78125 -12.125 4.21875 -12.734375 4.21875 -13.28125 Z M 4.21875 -13.28125 "/>
</g>
<g id="glyph-1-5-c5c3ebe9">
<path d="M 7.296875 -2.734375 L 7.296875 -3.984375 L 6.75 -3.984375 L 6.75 -2.765625 C 6.75 -1.140625 6.09375 -0.3125 5.28125 -0.3125 C 3.8125 -0.3125 3.8125 -2.3125 3.8125 -2.6875 L 3.8125 -8.796875 L 6.953125 -8.796875 L 6.953125 -9.484375 L 3.8125 -9.484375 L 3.8125 -13.53125 L 3.25 -13.53125 C 3.234375 -11.71875 2.578125 -9.375 0.421875 -9.28125 L 0.421875 -8.796875 L 2.28125 -8.796875 L 2.28125 -2.734375 C 2.28125 -0.015625 4.328125 0.234375 5.125 0.234375 C 6.6875 0.234375 7.296875 -1.3125 7.296875 -2.734375 Z M 7.296875 -2.734375 "/>
</g>
<g id="glyph-1-6-c5c3ebe9">
<path d="M 7.921875 -2.8125 C 7.921875 -3.984375 7.265625 -4.640625 7 -4.90625 C 6.265625 -5.609375 5.40625 -5.78125 4.484375 -5.96875 C 3.25 -6.203125 1.78125 -6.484375 1.78125 -7.765625 C 1.78125 -8.53125 2.359375 -9.4375 4.25 -9.4375 C 6.671875 -9.4375 6.78125 -7.453125 6.8125 -6.78125 C 6.84375 -6.578125 7.078125 -6.578125 7.078125 -6.578125 C 7.375 -6.578125 7.375 -6.6875 7.375 -7.109375 L 7.375 -9.328125 C 7.375 -9.703125 7.375 -9.859375 7.125 -9.859375 C 7.015625 -9.859375 6.96875 -9.859375 6.6875 -9.59375 C 6.625 -9.5 6.40625 -9.3125 6.3125 -9.234375 C 5.484375 -9.859375 4.578125 -9.859375 4.25 -9.859375 C 1.5625 -9.859375 0.71875 -8.375 0.71875 -7.15625 C 0.71875 -6.375 1.078125 -5.765625 1.671875 -5.28125 C 2.375 -4.703125 2.984375 -4.578125 4.578125 -4.265625 C 5.0625 -4.1875 6.859375 -3.828125 6.859375 -2.25 C 6.859375 -1.125 6.09375 -0.234375 4.375 -0.234375 C 2.53125 -0.234375 1.734375 -1.5 1.3125 -3.359375 C 1.25 -3.65625 1.234375 -3.734375 1.015625 -3.734375 C 0.71875 -3.734375 0.71875 -3.59375 0.71875 -3.1875 L 0.71875 -0.28125 C 0.71875 0.09375 0.71875 0.234375 0.96875 0.234375 C 1.078125 0.234375 1.09375 0.21875 1.515625 -0.203125 C 1.5625 -0.234375 1.5625 -0.28125 1.953125 -0.703125 C 2.921875 0.21875 3.921875 0.234375 4.375 0.234375 C 6.90625 0.234375 7.921875 -1.234375 7.921875 -2.8125 Z M 7.921875 -2.8125 "/>
</g>
<g id="glyph-1-7-c5c3ebe9">
<path d="M 6.34375 -4.578125 L 6.34375 -6.421875 C 6.34375 -10.1875 4.03125 -14.59375 1.609375 -16.40625 C 1.5625 -16.4375 1.515625 -16.453125 1.46875 -16.453125 C 1.359375 -16.453125 1.25 -16.34375 1.25 -16.234375 C 1.25 -16.171875 1.296875 -16.109375 1.34375 -16.0625 C 3.625 -14.34375 5.140625 -9.9375 5.140625 -6.421875 L 5.140625 -4.578125 C 5.140625 -1.0625 3.625 3.34375 1.34375 5.0625 C 1.296875 5.109375 1.25 5.171875 1.25 5.234375 C 1.25 5.34375 1.359375 5.453125 1.46875 5.453125 C 1.515625 5.453125 1.5625 5.4375 1.609375 5.40625 C 4.03125 3.59375 6.34375 -0.8125 6.34375 -4.578125 Z M 6.34375 -4.578125 "/>
</g>
<g id="glyph-2-0-c5c3ebe9">
<path d="M 11.28125 -4.84375 C 11.28125 -1.78125 9.15625 0.328125 6.1875 0.328125 C 2.625 0.328125 0.953125 -2.25 0.953125 -7.109375 C 0.953125 -12.546875 2.90625 -15.59375 6.53125 -15.59375 C 8.90625 -15.59375 10.578125 -14.078125 10.953125 -11.53125 C 10.953125 -11.53125 9.015625 -11.53125 9.015625 -11.53125 C 8.71875 -13.03125 7.765625 -13.875 6.40625 -13.875 C 4.1875 -13.875 2.953125 -11.765625 2.921875 -7.96875 C 3.765625 -9.109375 4.96875 -9.703125 6.515625 -9.703125 C 9.3125 -9.703125 11.28125 -7.75 11.28125 -4.84375 Z M 9.3125 -4.6875 C 9.3125 -6.78125 8.140625 -7.984375 6.265625 -7.984375 C 4.359375 -7.984375 3.03125 -6.734375 3.03125 -4.796875 C 3.03125 -2.796875 4.40625 -1.390625 6.203125 -1.390625 C 7.984375 -1.390625 9.3125 -2.734375 9.3125 -4.6875 Z M 9.3125 -4.6875 "/>
</g>
<g id="glyph-2-1-c5c3ebe9">
<path d="M 11.203125 -8.15625 C 11.203125 -2.765625 9.234375 0.328125 5.59375 0.328125 C 3.21875 0.328125 1.546875 -1.1875 1.171875 -3.734375 C 1.171875 -3.734375 3.109375 -3.734375 3.109375 -3.734375 C 3.40625 -2.25 4.359375 -1.390625 5.71875 -1.390625 C 7.9375 -1.390625 9.171875 -3.5 9.203125 -7.296875 C 8.1875 -6.09375 7.109375 -5.5625 5.625 -5.5625 C 2.8125 -5.5625 0.84375 -7.53125 0.84375 -10.421875 C 0.84375 -13.484375 2.96875 -15.59375 5.9375 -15.59375 C 9.5 -15.59375 11.203125 -13.046875 11.203125 -8.15625 Z M 9.09375 -10.46875 C 9.09375 -12.5 7.71875 -13.90625 5.921875 -13.90625 C 4.140625 -13.90625 2.8125 -12.5625 2.8125 -10.578125 C 2.8125 -8.484375 3.984375 -7.28125 5.859375 -7.28125 C 7.75 -7.28125 9.09375 -8.5625 9.09375 -10.46875 Z M 9.09375 -10.46875 "/>
</g>
<g id="glyph-2-2-c5c3ebe9">
<path d="M 7.640625 0 C 7.640625 0 5.703125 0 5.703125 0 C 5.703125 0 5.703125 -11.109375 5.703125 -11.109375 C 5.703125 -11.109375 2.25 -11.109375 2.25 -11.109375 C 2.25 -11.109375 2.25 -12.5 2.25 -12.5 C 5.234375 -12.875 5.671875 -13.203125 6.359375 -15.59375 C 6.359375 -15.59375 7.640625 -15.59375 7.640625 -15.59375 C 7.640625 -15.59375 7.640625 0 7.640625 0 Z M 7.640625 0 "/>
</g>
<g id="glyph-2-3-c5c3ebe9">
<path d="M 11.234375 -11.015625 C 11.234375 -9.109375 10.125 -7.484375 7.9375 -6.3125 C 7.9375 -6.3125 5.734375 -5.125 5.734375 -5.125 C 3.828125 -4 3.125 -3.1875 2.921875 -1.90625 C 2.921875 -1.90625 11.125 -1.90625 11.125 -1.90625 C 11.125 -1.90625 11.125 0 11.125 0 C 11.125 0 0.75 0 0.75 0 C 0.921875 -3.4375 1.875 -4.90625 5.125 -6.75 C 5.125 -6.75 7.15625 -7.890625 7.15625 -7.890625 C 8.53125 -8.6875 9.265625 -9.75 9.265625 -10.984375 C 9.265625 -12.65625 7.9375 -13.90625 6.1875 -13.90625 C 4.265625 -13.90625 3.1875 -12.796875 3.03125 -10.1875 C 3.03125 -10.1875 1.09375 -10.1875 1.09375 -10.1875 C 1.203125 -13.96875 3.0625 -15.59375 6.25 -15.59375 C 9.203125 -15.59375 11.234375 -13.65625 11.234375 -11.015625 Z M 11.234375 -11.015625 "/>
</g>
<g id="glyph-2-4-c5c3ebe9">
<path d="M 11.28125 -5.171875 C 11.28125 -1.875 9.09375 0.328125 5.9375 0.328125 C 3.171875 0.328125 1.40625 -0.90625 0.765625 -4 C 0.765625 -4 2.703125 -4 2.703125 -4 C 3.171875 -2.25 4.203125 -1.390625 5.890625 -1.390625 C 8.015625 -1.390625 9.3125 -2.65625 9.3125 -4.90625 C 9.3125 -7.21875 7.984375 -8.5625 5.890625 -8.5625 C 4.6875 -8.5625 3.9375 -8.1875 3.03125 -7.109375 C 3.03125 -7.109375 1.25 -7.109375 1.25 -7.109375 C 1.25 -7.109375 2.421875 -15.265625 2.421875 -15.265625 C 2.421875 -15.265625 10.46875 -15.265625 10.46875 -15.265625 C 10.46875 -15.265625 10.46875 -13.359375 10.46875 -13.359375 C 10.46875 -13.359375 3.984375 -13.359375 3.984375 -13.359375 C 3.984375 -13.359375 3.359375 -9.328125 3.359375 -9.328125 C 4.265625 -9.984375 5.140625 -10.28125 6.25 -10.28125 C 9.234375 -10.28125 11.28125 -8.25 11.28125 -5.171875 Z M 11.28125 -5.171875 "/>
</g>
<g id="glyph-2-5-c5c3ebe9">
<path d="M 11.28125 -4.40625 C 11.28125 -1.5625 9.125 0.328125 6.046875 0.328125 C 2.96875 0.328125 0.8125 -1.5625 0.8125 -4.421875 C 0.8125 -6.140625 1.6875 -7.34375 3.46875 -8.203125 C 1.890625 -9.203125 1.359375 -9.984375 1.359375 -11.4375 C 1.359375 -13.875 3.296875 -15.59375 6.046875 -15.59375 C 8.828125 -15.59375 10.734375 -13.875 10.734375 -11.4375 C 10.734375 -9.96875 10.203125 -9.171875 8.609375 -8.203125 C 10.40625 -7.34375 11.28125 -6.140625 11.28125 -4.40625 Z M 8.75 -11.390625 C 8.75 -12.90625 7.703125 -13.875 6.046875 -13.875 C 4.421875 -13.875 3.34375 -12.90625 3.34375 -11.421875 C 3.34375 -9.9375 4.421875 -8.96875 6.046875 -8.96875 C 7.671875 -8.96875 8.75 -9.9375 8.75 -11.390625 Z M 9.3125 -4.375 C 9.3125 -6.203125 7.984375 -7.34375 6.046875 -7.34375 C 4.109375 -7.34375 2.796875 -6.203125 2.796875 -4.375 C 2.796875 -2.546875 4.109375 -1.390625 6 -1.390625 C 7.984375 -1.390625 9.3125 -2.53125 9.3125 -4.375 Z M 9.3125 -4.375 "/>
</g>
<g id="glyph-2-6-c5c3ebe9">
<path d="M 11.4375 -3.734375 C 11.4375 -3.734375 9.125 -3.734375 9.125 -3.734375 C 9.125 -3.734375 9.125 0 9.125 0 C 9.125 0 7.1875 0 7.1875 0 C 7.1875 0 7.1875 -3.734375 7.1875 -3.734375 C 7.1875 -3.734375 0.609375 -3.734375 0.609375 -3.734375 C 0.609375 -3.734375 0.609375 -5.78125 0.609375 -5.78125 C 0.609375 -5.78125 7.703125 -15.59375 7.703125 -15.59375 C 7.703125 -15.59375 9.125 -15.59375 9.125 -15.59375 C 9.125 -15.59375 9.125 -5.484375 9.125 -5.484375 C 9.125 -5.484375 11.4375 -5.484375 11.4375 -5.484375 C 11.4375 -5.484375 11.4375 -3.734375 11.4375 -3.734375 Z M 7.1875 -5.484375 C 7.1875 -5.484375 7.1875 -12.296875 7.1875 -12.296875 C 7.1875 -12.296875 2.3125 -5.484375 2.3125 -5.484375 C 2.3125 -5.484375 7.1875 -5.484375 7.1875 -5.484375 Z M 7.1875 -5.484375 "/>
</g>
<g id="glyph-2-7-c5c3ebe9">
<path d="M 11.4375 -13.640625 C 8.15625 -9.75 5.96875 -5.03125 5.109375 0 C 5.109375 0 3.03125 0 3.03125 0 C 4.140625 -4.890625 6.34375 -9.4375 9.4375 -13.359375 C 9.4375 -13.359375 1.015625 -13.359375 1.015625 -13.359375 C 1.015625 -13.359375 1.015625 -15.265625 1.015625 -15.265625 C 1.015625 -15.265625 11.4375 -15.265625 11.4375 -15.265625 C 11.4375 -15.265625 11.4375 -13.640625 11.4375 -13.640625 Z M 11.4375 -13.640625 "/>
</g>
<g id="glyph-2-8-c5c3ebe9">
<path d="M 11.125 -4.53125 C 11.125 -1.578125 9.0625 0.328125 5.859375 0.328125 C 2.65625 0.328125 0.953125 -1.234375 0.703125 -4.703125 C 0.703125 -4.703125 2.640625 -4.703125 2.640625 -4.703125 C 2.765625 -2.4375 3.8125 -1.390625 5.921875 -1.390625 C 7.9375 -1.390625 9.15625 -2.546875 9.15625 -4.515625 C 9.15625 -6.25 8.046875 -7.265625 5.921875 -7.265625 C 5.921875 -7.265625 4.859375 -7.265625 4.859375 -7.265625 C 4.859375 -7.265625 4.859375 -8.890625 4.859375 -8.890625 C 7.96875 -8.890625 8.6875 -9.5625 8.6875 -11.234375 C 8.6875 -12.890625 7.65625 -13.90625 5.9375 -13.90625 C 3.953125 -13.90625 3.015625 -12.875 2.96875 -10.5625 C 2.96875 -10.5625 1.03125 -10.5625 1.03125 -10.5625 C 1.09375 -13.875 2.765625 -15.59375 5.921875 -15.59375 C 8.890625 -15.59375 10.671875 -13.984375 10.671875 -11.3125 C 10.671875 -9.75 9.9375 -8.734375 8.484375 -8.15625 C 10.359375 -7.53125 11.125 -6.421875 11.125 -4.53125 Z M 11.125 -4.53125 "/>
</g>
<g id="glyph-2-9-c5c3ebe9">
<path d="M 11.15625 -7.5 C 11.15625 -2.375 9.34375 0.328125 6.046875 0.328125 C 2.703125 0.328125 0.953125 -2.375 0.953125 -7.640625 C 0.953125 -12.875 2.6875 -15.59375 6.046875 -15.59375 C 9.4375 -15.59375 11.15625 -12.90625 11.15625 -7.5 Z M 9.171875 -7.671875 C 9.171875 -11.859375 8.140625 -13.875 6.046875 -13.875 C 3.953125 -13.875 2.921875 -11.875 2.921875 -7.609375 C 2.921875 -3.34375 3.953125 -1.28125 6 -1.28125 C 8.15625 -1.28125 9.171875 -3.25 9.171875 -7.671875 Z M 9.171875 -7.671875 "/>
</g>
<g id="glyph-3-0-c5c3ebe9">
<path d="M -9.9375 -15.0625 L -14.890625 -14.65625 L -14.890625 -1.203125 L -9.9375 -0.796875 L -9.9375 -1.34375 C -13.484375 -1.65625 -14.21875 -1.984375 -14.21875 -5.296875 C -14.21875 -5.703125 -14.21875 -6.265625 -14.171875 -6.484375 C -14.078125 -6.953125 -13.84375 -6.953125 -13.328125 -6.953125 L -1.734375 -6.953125 C -0.984375 -6.953125 -0.6875 -6.953125 -0.6875 -4.640625 L -0.6875 -3.765625 L 0 -3.765625 C -0.0625 -4.65625 -0.0625 -6.90625 -0.0625 -7.921875 C -0.0625 -8.9375 -0.0625 -11.203125 0 -12.09375 L -0.6875 -12.09375 L -0.6875 -11.21875 C -0.6875 -8.90625 -0.984375 -8.90625 -1.734375 -8.90625 L -13.328125 -8.90625 C -13.765625 -8.90625 -14.078125 -8.90625 -14.171875 -9.3125 C -14.21875 -9.546875 -14.21875 -10.140625 -14.21875 -10.5625 C -14.21875 -13.875 -13.484375 -14.21875 -9.9375 -14.515625 Z M -9.9375 -15.0625 "/>
</g>
<g id="glyph-3-1-c5c3ebe9">
<path d="M 0 -5.4375 L -0.6875 -5.4375 C -0.6875 -3.984375 -0.796875 -3.890625 -1.65625 -3.890625 L -9.71875 -3.890625 L -9.484375 -0.8125 L -8.796875 -0.8125 C -8.796875 -2.25 -8.671875 -2.4375 -7.59375 -2.4375 L -1.671875 -2.4375 C -0.6875 -2.4375 -0.6875 -2.203125 -0.6875 -0.71875 L 0 -0.71875 L -0.0625 -3.140625 C -0.0625 -3.921875 -0.015625 -4.6875 0 -5.4375 Z M -13.28125 -4.21875 C -13.875 -4.21875 -14.453125 -3.71875 -14.453125 -3.0625 C -14.453125 -2.3125 -13.84375 -1.875 -13.28125 -1.875 C -12.6875 -1.875 -12.125 -2.375 -12.125 -3.03125 C -12.125 -3.78125 -12.734375 -4.21875 -13.28125 -4.21875 Z M -13.28125 -4.21875 "/>
</g>
<g id="glyph-4-0-c5c3ebe9">
<path d="M 0 -17.890625 L -0.6875 -17.890625 C -0.6875 -16.734375 -0.6875 -16.1875 -1.34375 -16.171875 L -5.546875 -16.171875 C -7.4375 -16.171875 -8.125 -16.171875 -8.90625 -15.484375 C -9.28125 -15.1875 -9.71875 -14.453125 -9.71875 -13.171875 C -9.71875 -11.328125 -8.40625 -10.359375 -7.5625 -9.984375 C -9.484375 -9.6875 -9.71875 -8.046875 -9.71875 -7.0625 C -9.71875 -5.453125 -8.78125 -4.421875 -7.40625 -3.8125 L -9.71875 -3.8125 L -9.484375 -0.703125 L -8.796875 -0.703125 C -8.796875 -2.25 -8.640625 -2.421875 -7.5625 -2.421875 L -1.671875 -2.421875 C -0.6875 -2.421875 -0.6875 -2.171875 -0.6875 -0.703125 L 0 -0.703125 L -0.0625 -3.1875 L 0 -5.65625 L -0.6875 -5.65625 C -0.6875 -4.1875 -0.6875 -3.9375 -1.671875 -3.9375 L -5.71875 -3.9375 C -8.015625 -3.9375 -9.234375 -5.5 -9.234375 -6.90625 C -9.234375 -8.296875 -8.046875 -8.53125 -6.796875 -8.53125 L -1.671875 -8.53125 C -0.6875 -8.53125 -0.6875 -8.296875 -0.6875 -6.8125 L 0 -6.8125 L -0.0625 -9.3125 L 0 -11.765625 L -0.6875 -11.765625 C -0.6875 -10.296875 -0.6875 -10.046875 -1.671875 -10.046875 L -5.71875 -10.046875 C -8.015625 -10.046875 -9.234375 -11.609375 -9.234375 -13.03125 C -9.234375 -14.40625 -8.046875 -14.65625 -6.796875 -14.65625 L -1.671875 -14.65625 C -0.6875 -14.65625 -0.6875 -14.40625 -0.6875 -12.9375 L 0 -12.9375 L -0.0625 -15.421875 Z M 0 -17.890625 "/>
</g>
<g id="glyph-5-0-c5c3ebe9">
<path d="M -2.625 -9.125 C -2.84375 -9.125 -2.875 -8.953125 -2.875 -8.84375 C -2.875 -8.640625 -2.75 -8.609375 -2.578125 -8.5625 C -0.3125 -7.78125 -0.3125 -5.8125 -0.3125 -5.59375 C -0.3125 -4.484375 -0.96875 -3.609375 -1.78125 -3.109375 C -2.84375 -2.4375 -4.296875 -2.4375 -5.078125 -2.4375 L -5.078125 -8.578125 C -5.078125 -9.0625 -5.078125 -9.125 -5.546875 -9.125 C -7.71875 -9.125 -9.859375 -7.9375 -9.859375 -5.1875 C -9.859375 -2.640625 -7.59375 -0.609375 -4.84375 -0.609375 C -1.890625 -0.609375 0.234375 -2.921875 0.234375 -5.453125 C 0.234375 -8.140625 -2.203125 -9.125 -2.625 -9.125 Z M -5.546875 -7.671875 L -5.546875 -2.46875 C -8.828125 -2.59375 -9.375 -4.4375 -9.375 -5.1875 C -9.375 -7.453125 -6.40625 -7.671875 -5.546875 -7.671875 Z M -5.546875 -7.671875 "/>
</g>
<g id="glyph-5-1-c5c3ebe9">
<path d="M -4.578125 -6.34375 L -6.421875 -6.34375 C -10.1875 -6.34375 -14.59375 -4.03125 -16.40625 -1.609375 C -16.4375 -1.5625 -16.453125 -1.515625 -16.453125 -1.46875 C -16.453125 -1.359375 -16.34375 -1.25 -16.234375 -1.25 C -16.171875 -1.25 -16.109375 -1.296875 -16.0625 -1.34375 C -14.34375 -3.625 -9.9375 -5.140625 -6.421875 -5.140625 L -4.578125 -5.140625 C -1.0625 -5.140625 3.34375 -3.625 5.0625 -1.34375 C 5.109375 -1.296875 5.171875 -1.25 5.234375 -1.25 C 5.34375 -1.25 5.453125 -1.359375 5.453125 -1.46875 C 5.453125 -1.515625 5.4375 -1.5625 5.40625 -1.609375 C 3.59375 -4.03125 -0.8125 -6.34375 -4.578125 -6.34375 Z M -4.578125 -6.34375 "/>
</g>
<g id="glyph-6-0-c5c3ebe9">
<path d="M 5.234375 -7.296875 C 5.171875 -7.296875 5.109375 -7.265625 5.0625 -7.21875 C 3.34375 -4.921875 -1.0625 -3.40625 -4.578125 -3.40625 L -6.421875 -3.40625 C -9.9375 -3.40625 -14.34375 -4.921875 -16.0625 -7.21875 C -16.109375 -7.265625 -16.171875 -7.296875 -16.234375 -7.296875 C -16.34375 -7.296875 -16.453125 -7.1875 -16.453125 -7.078125 C -16.453125 -7.046875 -16.4375 -7 -16.40625 -6.953125 C -14.59375 -4.53125 -10.1875 -2.21875 -6.421875 -2.21875 L -4.578125 -2.21875 C -0.8125 -2.21875 3.59375 -4.53125 5.40625 -6.953125 C 5.4375 -7 5.453125 -7.046875 5.453125 -7.078125 C 5.453125 -7.1875 5.34375 -7.296875 5.234375 -7.296875 Z M 5.234375 -7.296875 "/>
</g>
<g id="glyph-7-0-c5c3ebe9">
<path d="M -2.8125 -7.921875 C -3.984375 -7.921875 -4.640625 -7.265625 -4.90625 -7 C -5.609375 -6.265625 -5.78125 -5.40625 -5.96875 -4.484375 C -6.203125 -3.25 -6.484375 -1.78125 -7.765625 -1.78125 C -8.53125 -1.78125 -9.4375 -2.359375 -9.4375 -4.25 C -9.4375 -6.671875 -7.453125 -6.78125 -6.78125 -6.8125 C -6.578125 -6.84375 -6.578125 -7.078125 -6.578125 -7.078125 C -6.578125 -7.375 -6.6875 -7.375 -7.109375 -7.375 L -9.328125 -7.375 C -9.703125 -7.375 -9.859375 -7.375 -9.859375 -7.125 C -9.859375 -7.015625 -9.859375 -6.96875 -9.59375 -6.6875 C -9.5 -6.625 -9.3125 -6.40625 -9.234375 -6.3125 C -9.859375 -5.484375 -9.859375 -4.578125 -9.859375 -4.25 C -9.859375 -1.5625 -8.375 -0.71875 -7.15625 -0.71875 C -6.375 -0.71875 -5.765625 -1.078125 -5.28125 -1.671875 C -4.703125 -2.375 -4.578125 -2.984375 -4.265625 -4.578125 C -4.1875 -5.0625 -3.828125 -6.859375 -2.25 -6.859375 C -1.125 -6.859375 -0.234375 -6.09375 -0.234375 -4.375 C -0.234375 -2.53125 -1.5 -1.734375 -3.359375 -1.3125 C -3.65625 -1.25 -3.734375 -1.234375 -3.734375 -1.015625 C -3.734375 -0.71875 -3.59375 -0.71875 -3.1875 -0.71875 L -0.28125 -0.71875 C 0.09375 -0.71875 0.234375 -0.71875 0.234375 -0.96875 C 0.234375 -1.078125 0.21875 -1.09375 -0.203125 -1.515625 C -0.234375 -1.5625 -0.28125 -1.5625 -0.703125 -1.953125 C 0.21875 -2.921875 0.234375 -3.921875 0.234375 -4.375 C 0.234375 -6.90625 -1.234375 -7.921875 -2.8125 -7.921875 Z M -2.8125 -7.921875 "/>
</g>
<g id="glyph-8-0-c5c3ebe9">
<path d="M 7.640625 0 C 7.640625 0 5.703125 0 5.703125 0 C 5.703125 0 5.703125 -11.109375 5.703125 -11.109375 C 5.703125 -11.109375 2.25 -11.109375 2.25 -11.109375 C 2.25 -11.109375 2.25 -12.5 2.25 -12.5 C 5.234375 -12.875 5.671875 -13.203125 6.359375 -15.59375 C 6.359375 -15.59375 7.640625 -15.59375 7.640625 -15.59375 C 7.640625 -15.59375 7.640625 0 7.640625 0 Z M 7.640625 0 "/>
</g>
<g id="glyph-9-0-c5c3ebe9">
<path d="M 7.484375 -3.140625 C 7.484375 -3.140625 0.984375 -3.140625 0.984375 -3.140625 C 0.984375 -3.140625 0.984375 -4.125 0.984375 -4.125 C 0.984375 -4.125 7.484375 -4.125 7.484375 -4.125 C 7.484375 -4.125 7.484375 -3.140625 7.484375 -3.140625 Z M 7.484375 -3.140625 "/>
</g>
<g id="glyph-9-1-c5c3ebe9">
<path d="M 7.34375 -2.984375 C 7.34375 -1.046875 5.984375 0.21875 3.859375 0.21875 C 1.75 0.21875 0.625 -0.8125 0.46875 -3.109375 C 0.46875 -3.109375 1.734375 -3.109375 1.734375 -3.109375 C 1.828125 -1.609375 2.515625 -0.921875 3.90625 -0.921875 C 5.234375 -0.921875 6.03125 -1.6875 6.03125 -2.96875 C 6.03125 -4.125 5.3125 -4.796875 3.90625 -4.796875 C 3.90625 -4.796875 3.203125 -4.796875 3.203125 -4.796875 C 3.203125 -4.796875 3.203125 -5.859375 3.203125 -5.859375 C 5.25 -5.859375 5.734375 -6.3125 5.734375 -7.421875 C 5.734375 -8.5 5.046875 -9.171875 3.921875 -9.171875 C 2.609375 -9.171875 1.984375 -8.484375 1.953125 -6.96875 C 1.953125 -6.96875 0.6875 -6.96875 0.6875 -6.96875 C 0.71875 -9.15625 1.828125 -10.296875 3.90625 -10.296875 C 5.859375 -10.296875 7.046875 -9.234375 7.046875 -7.46875 C 7.046875 -6.4375 6.5625 -5.765625 5.609375 -5.390625 C 6.84375 -4.96875 7.34375 -4.234375 7.34375 -2.984375 Z M 7.34375 -2.984375 "/>
</g>
<g id="glyph-10-0-c5c3ebe9">
<path d="M 7.484375 -3.140625 C 7.484375 -3.140625 0.984375 -3.140625 0.984375 -3.140625 C 0.984375 -3.140625 0.984375 -4.125 0.984375 -4.125 C 0.984375 -4.125 7.484375 -4.125 7.484375 -4.125 C 7.484375 -4.125 7.484375 -3.140625 7.484375 -3.140625 Z M 7.484375 -3.140625 "/>
</g>
<g id="glyph-10-1-c5c3ebe9">
<path d="M 7.421875 -7.265625 C 7.421875 -6.015625 6.671875 -4.9375 5.234375 -4.171875 C 5.234375 -4.171875 3.78125 -3.375 3.78125 -3.375 C 2.53125 -2.640625 2.0625 -2.109375 1.9375 -1.265625 C 1.9375 -1.265625 7.34375 -1.265625 7.34375 -1.265625 C 7.34375 -1.265625 7.34375 0 7.34375 0 C 7.34375 0 0.5 0 0.5 0 C 0.609375 -2.265625 1.234375 -3.234375 3.375 -4.453125 C 3.375 -4.453125 4.71875 -5.21875 4.71875 -5.21875 C 5.625 -5.734375 6.109375 -6.4375 6.109375 -7.25 C 6.109375 -8.34375 5.234375 -9.171875 4.078125 -9.171875 C 2.8125 -9.171875 2.109375 -8.453125 2 -6.71875 C 2 -6.71875 0.71875 -6.71875 0.71875 -6.71875 C 0.796875 -9.21875 2.015625 -10.296875 4.125 -10.296875 C 6.0625 -10.296875 7.421875 -9.015625 7.421875 -7.265625 Z M 7.421875 -7.265625 "/>
</g>
<g id="glyph-10-2-c5c3ebe9">
<path d="M 5.03125 0 C 5.03125 0 3.765625 0 3.765625 0 C 3.765625 0 3.765625 -7.328125 3.765625 -7.328125 C 3.765625 -7.328125 1.484375 -7.328125 1.484375 -7.328125 C 1.484375 -7.328125 1.484375 -8.25 1.484375 -8.25 C 3.453125 -8.484375 3.75 -8.703125 4.1875 -10.296875 C 4.1875 -10.296875 5.03125 -10.296875 5.03125 -10.296875 C 5.03125 -10.296875 5.03125 0 5.03125 0 Z M 5.03125 0 "/>
</g>
<g id="glyph-11-0-c5c3ebe9">
<path d="M 7.359375 -4.953125 C 7.359375 -1.5625 6.171875 0.21875 3.984375 0.21875 C 1.78125 0.21875 0.625 -1.5625 0.625 -5.03125 C 0.625 -8.484375 1.765625 -10.296875 3.984375 -10.296875 C 6.234375 -10.296875 7.359375 -8.515625 7.359375 -4.953125 Z M 6.046875 -5.0625 C 6.046875 -7.828125 5.375 -9.15625 3.984375 -9.15625 C 2.609375 -9.15625 1.9375 -7.84375 1.9375 -5.015625 C 1.9375 -2.203125 2.609375 -0.84375 3.96875 -0.84375 C 5.390625 -0.84375 6.046875 -2.140625 6.046875 -5.0625 Z M 6.046875 -5.0625 "/>
</g>
<g id="glyph-12-0-c5c3ebe9">
<path d="M 5.03125 0 C 5.03125 0 3.765625 0 3.765625 0 C 3.765625 0 3.765625 -7.328125 3.765625 -7.328125 C 3.765625 -7.328125 1.484375 -7.328125 1.484375 -7.328125 C 1.484375 -7.328125 1.484375 -8.25 1.484375 -8.25 C 3.453125 -8.484375 3.75 -8.703125 4.1875 -10.296875 C 4.1875 -10.296875 5.03125 -10.296875 5.03125 -10.296875 C 5.03125 -10.296875 5.03125 0 5.03125 0 Z M 5.03125 0 "/>
</g>
<g id="glyph-13-0-c5c3ebe9">
<path d="M 0 -19.34375 L -0.6875 -19.34375 L -0.6875 -18.8125 C -0.6875 -17.109375 -0.921875 -17.078125 -1.71875 -17.078125 L -13.3125 -17.078125 C -14.109375 -17.078125 -14.34375 -17.109375 -14.34375 -18.8125 L -14.34375 -19.34375 L -15.03125 -19.34375 L -15.03125 -15.625 C -15.03125 -15.046875 -15 -15.046875 -14.609375 -14.890625 L -2.21875 -10.078125 L -14.546875 -5.296875 C -15.03125 -5.109375 -15.03125 -5.03125 -15.03125 -4.53125 L -15.03125 -0.8125 L -14.34375 -0.8125 L -14.34375 -1.34375 C -14.34375 -3.03125 -14.109375 -3.078125 -13.3125 -3.078125 L -2.3125 -3.078125 C -1.71875 -3.078125 -0.6875 -3.078125 -0.6875 -0.8125 L 0 -0.8125 L -0.0625 -3.390625 L 0 -5.96875 L -0.6875 -5.96875 C -0.6875 -3.703125 -1.71875 -3.703125 -2.3125 -3.703125 L -14.171875 -3.703125 L -14.171875 -3.71875 L -0.484375 -9.015625 C -0.203125 -9.125 0 -9.234375 0 -9.453125 C 0 -9.703125 -0.171875 -9.765625 -0.421875 -9.859375 L -14.34375 -15.265625 L -14.34375 -15.296875 L -1.71875 -15.296875 C -0.921875 -15.296875 -0.6875 -15.25 -0.6875 -13.546875 L -0.6875 -13.03125 L 0 -13.03125 C -0.0625 -13.84375 -0.0625 -15.328125 -0.0625 -16.1875 C -0.0625 -17.046875 -0.0625 -18.53125 0 -19.34375 Z M 0 -19.34375 "/>
</g>
<g id="glyph-13-1-c5c3ebe9">
<path d="M -2.625 -9.125 C -2.84375 -9.125 -2.875 -8.953125 -2.875 -8.84375 C -2.875 -8.640625 -2.75 -8.609375 -2.578125 -8.5625 C -0.3125 -7.78125 -0.3125 -5.8125 -0.3125 -5.59375 C -0.3125 -4.484375 -0.96875 -3.609375 -1.78125 -3.109375 C -2.84375 -2.4375 -4.296875 -2.4375 -5.078125 -2.4375 L -5.078125 -8.578125 C -5.078125 -9.0625 -5.078125 -9.125 -5.546875 -9.125 C -7.71875 -9.125 -9.859375 -7.9375 -9.859375 -5.1875 C -9.859375 -2.640625 -7.59375 -0.609375 -4.84375 -0.609375 C -1.890625 -0.609375 0.234375 -2.921875 0.234375 -5.453125 C 0.234375 -8.140625 -2.203125 -9.125 -2.625 -9.125 Z M -5.546875 -7.671875 L -5.546875 -2.46875 C -8.828125 -2.59375 -9.375 -4.4375 -9.375 -5.1875 C -9.375 -7.453125 -6.40625 -7.671875 -5.546875 -7.671875 Z M -5.546875 -7.671875 "/>
</g>
<g id="glyph-13-2-c5c3ebe9">
<path d="M -8.375 -8.015625 C -9.09375 -8.015625 -9.71875 -7.328125 -9.71875 -6.375 C -9.71875 -4.78125 -8.25 -3.984375 -7.296875 -3.671875 L -9.71875 -3.671875 L -9.484375 -0.609375 L -8.796875 -0.609375 C -8.796875 -2.15625 -8.640625 -2.328125 -7.5625 -2.328125 L -1.671875 -2.328125 C -0.6875 -2.328125 -0.6875 -2.09375 -0.6875 -0.609375 L 0 -0.609375 L -0.0625 -3.125 C -0.0625 -4 -0.0625 -5.03125 0 -5.921875 L -0.6875 -5.921875 L -0.6875 -5.453125 C -0.6875 -3.828125 -0.921875 -3.78125 -1.71875 -3.78125 L -5.109375 -3.78125 C -7.28125 -3.78125 -9.234375 -4.703125 -9.234375 -6.375 C -9.234375 -6.53125 -9.234375 -6.578125 -9.21875 -6.625 C -9.203125 -6.5625 -8.9375 -6.109375 -8.359375 -6.109375 C -7.75 -6.109375 -7.40625 -6.578125 -7.40625 -7.0625 C -7.40625 -7.453125 -7.671875 -8.015625 -8.375 -8.015625 Z M -8.375 -8.015625 "/>
</g>
<g id="glyph-13-3-c5c3ebe9">
<path d="M -8.796875 -11.171875 L -9.484375 -11.171875 C -9.4375 -10.671875 -9.421875 -10.03125 -9.421875 -9.53125 L -9.484375 -7.609375 L -8.796875 -7.609375 C -8.78125 -8.296875 -8.40625 -8.640625 -7.859375 -8.640625 C -7.640625 -8.640625 -7.59375 -8.625 -7.328125 -8.515625 L -1.90625 -6.296875 L -7.828125 -3.84375 C -8.046875 -3.765625 -8.140625 -3.71875 -8.234375 -3.71875 C -8.796875 -3.71875 -8.796875 -4.53125 -8.796875 -4.953125 L -9.484375 -4.953125 L -9.421875 -2.546875 C -9.421875 -1.953125 -9.4375 -1.078125 -9.484375 -0.421875 L -8.796875 -0.421875 C -8.796875 -1.46875 -8.796875 -1.890625 -8.03125 -2.203125 L 0 -5.5 L 1.296875 -4.953125 C 2.515625 -4.46875 4.03125 -3.84375 4.03125 -2.4375 C 4.03125 -2.328125 4.03125 -1.828125 3.625 -1.40625 C 3.546875 -2.09375 3.0625 -2.265625 2.703125 -2.265625 C 2.140625 -2.265625 1.78125 -1.84375 1.78125 -1.34375 C 1.78125 -0.90625 2.0625 -0.421875 2.734375 -0.421875 C 3.71875 -0.421875 4.515625 -1.34375 4.515625 -2.4375 C 4.515625 -3.828125 3.25 -4.734375 2 -5.265625 L -7.390625 -9.125 C -8.78125 -9.703125 -8.796875 -10.828125 -8.796875 -11.171875 Z M -8.796875 -11.171875 "/>
</g>
<g id="glyph-13-4-c5c3ebe9">
<path d="M -4.578125 -6.34375 L -6.421875 -6.34375 C -10.1875 -6.34375 -14.59375 -4.03125 -16.40625 -1.609375 C -16.4375 -1.5625 -16.453125 -1.515625 -16.453125 -1.46875 C -16.453125 -1.359375 -16.34375 -1.25 -16.234375 -1.25 C -16.171875 -1.25 -16.109375 -1.296875 -16.0625 -1.34375 C -14.34375 -3.625 -9.9375 -5.140625 -6.421875 -5.140625 L -4.578125 -5.140625 C -1.0625 -5.140625 3.34375 -3.625 5.0625 -1.34375 C 5.109375 -1.296875 5.171875 -1.25 5.234375 -1.25 C 5.34375 -1.25 5.453125 -1.359375 5.453125 -1.46875 C 5.453125 -1.515625 5.4375 -1.5625 5.40625 -1.609375 C 3.59375 -4.03125 -0.8125 -6.34375 -4.578125 -6.34375 Z M -4.578125 -6.34375 "/>
</g>
<g id="glyph-14-0-c5c3ebe9">
<path d="M 0 -17.890625 L -0.6875 -17.890625 C -0.6875 -16.734375 -0.6875 -16.1875 -1.34375 -16.171875 L -5.546875 -16.171875 C -7.4375 -16.171875 -8.125 -16.171875 -8.90625 -15.484375 C -9.28125 -15.1875 -9.71875 -14.453125 -9.71875 -13.171875 C -9.71875 -11.328125 -8.40625 -10.359375 -7.5625 -9.984375 C -9.484375 -9.6875 -9.71875 -8.046875 -9.71875 -7.0625 C -9.71875 -5.453125 -8.78125 -4.421875 -7.40625 -3.8125 L -9.71875 -3.8125 L -9.484375 -0.703125 L -8.796875 -0.703125 C -8.796875 -2.25 -8.640625 -2.421875 -7.5625 -2.421875 L -1.671875 -2.421875 C -0.6875 -2.421875 -0.6875 -2.171875 -0.6875 -0.703125 L 0 -0.703125 L -0.0625 -3.1875 L 0 -5.65625 L -0.6875 -5.65625 C -0.6875 -4.1875 -0.6875 -3.9375 -1.671875 -3.9375 L -5.71875 -3.9375 C -8.015625 -3.9375 -9.234375 -5.5 -9.234375 -6.90625 C -9.234375 -8.296875 -8.046875 -8.53125 -6.796875 -8.53125 L -1.671875 -8.53125 C -0.6875 -8.53125 -0.6875 -8.296875 -0.6875 -6.8125 L 0 -6.8125 L -0.0625 -9.3125 L 0 -11.765625 L -0.6875 -11.765625 C -0.6875 -10.296875 -0.6875 -10.046875 -1.671875 -10.046875 L -5.71875 -10.046875 C -8.015625 -10.046875 -9.234375 -11.609375 -9.234375 -13.03125 C -9.234375 -14.40625 -8.046875 -14.65625 -6.796875 -14.65625 L -1.671875 -14.65625 C -0.6875 -14.65625 -0.6875 -14.40625 -0.6875 -12.9375 L 0 -12.9375 L -0.0625 -15.421875 Z M 0 -17.890625 "/>
</g>
<g id="glyph-15-0-c5c3ebe9">
<path d="M -4.703125 -10.359375 C -7.53125 -10.359375 -9.859375 -8.15625 -9.859375 -5.5 C -9.859375 -2.75 -7.453125 -0.609375 -4.703125 -0.609375 C -1.875 -0.609375 0.234375 -2.90625 0.234375 -5.484375 C 0.234375 -8.140625 -1.90625 -10.359375 -4.703125 -10.359375 Z M -4.890625 -8.53125 C -4.09375 -8.53125 -2.90625 -8.53125 -1.9375 -8.046875 C -0.953125 -7.5625 -0.3125 -6.59375 -0.3125 -5.5 C -0.3125 -4.546875 -0.765625 -3.59375 -1.78125 -2.984375 C -2.75 -2.4375 -4.09375 -2.4375 -4.890625 -2.4375 C -5.734375 -2.4375 -6.9375 -2.4375 -7.890625 -2.96875 C -8.90625 -3.5625 -9.375 -4.59375 -9.375 -5.484375 C -9.375 -6.453125 -8.890625 -7.390625 -7.9375 -7.96875 C -7 -8.53125 -5.71875 -8.53125 -4.890625 -8.53125 Z M -4.890625 -8.53125 "/>
</g>
<g id="glyph-15-1-c5c3ebe9">
<path d="M 5.234375 -7.296875 C 5.171875 -7.296875 5.109375 -7.265625 5.0625 -7.21875 C 3.34375 -4.921875 -1.0625 -3.40625 -4.578125 -3.40625 L -6.421875 -3.40625 C -9.9375 -3.40625 -14.34375 -4.921875 -16.0625 -7.21875 C -16.109375 -7.265625 -16.171875 -7.296875 -16.234375 -7.296875 C -16.34375 -7.296875 -16.453125 -7.1875 -16.453125 -7.078125 C -16.453125 -7.046875 -16.4375 -7 -16.40625 -6.953125 C -14.59375 -4.53125 -10.1875 -2.21875 -6.421875 -2.21875 L -4.578125 -2.21875 C -0.8125 -2.21875 3.59375 -4.53125 5.40625 -6.953125 C 5.4375 -7 5.453125 -7.046875 5.453125 -7.078125 C 5.453125 -7.1875 5.34375 -7.296875 5.234375 -7.296875 Z M 5.234375 -7.296875 "/>
</g>
<g id="glyph-15-2-c5c3ebe9">
<path d="M 0 -19.34375 L -0.6875 -19.34375 L -0.6875 -18.8125 C -0.6875 -17.109375 -0.921875 -17.078125 -1.71875 -17.078125 L -13.3125 -17.078125 C -14.109375 -17.078125 -14.34375 -17.109375 -14.34375 -18.8125 L -14.34375 -19.34375 L -15.03125 -19.34375 L -15.03125 -15.625 C -15.03125 -15.046875 -15 -15.046875 -14.609375 -14.890625 L -2.21875 -10.078125 L -14.546875 -5.296875 C -15.03125 -5.109375 -15.03125 -5.03125 -15.03125 -4.53125 L -15.03125 -0.8125 L -14.34375 -0.8125 L -14.34375 -1.34375 C -14.34375 -3.03125 -14.109375 -3.078125 -13.3125 -3.078125 L -2.3125 -3.078125 C -1.71875 -3.078125 -0.6875 -3.078125 -0.6875 -0.8125 L 0 -0.8125 L -0.0625 -3.390625 L 0 -5.96875 L -0.6875 -5.96875 C -0.6875 -3.703125 -1.71875 -3.703125 -2.3125 -3.703125 L -14.171875 -3.703125 L -14.171875 -3.71875 L -0.484375 -9.015625 C -0.203125 -9.125 0 -9.234375 0 -9.453125 C 0 -9.703125 -0.171875 -9.765625 -0.421875 -9.859375 L -14.34375 -15.265625 L -14.34375 -15.296875 L -1.71875 -15.296875 C -0.921875 -15.296875 -0.6875 -15.25 -0.6875 -13.546875 L -0.6875 -13.03125 L 0 -13.03125 C -0.0625 -13.84375 -0.0625 -15.328125 -0.0625 -16.1875 C -0.0625 -17.046875 -0.0625 -18.53125 0 -19.34375 Z M 0 -19.34375 "/>
</g>
<g id="glyph-16-0-c5c3ebe9">
<path d="M -4.03125 -14.328125 C -5.9375 -14.328125 -7.59375 -12.515625 -7.859375 -10.078125 C -8.265625 -12.203125 -9.6875 -13.734375 -11.3125 -13.734375 C -13.21875 -13.734375 -15.03125 -11.703125 -15.03125 -8.84375 L -15.03125 -0.796875 L -14.34375 -0.796875 L -14.34375 -1.3125 C -14.34375 -3.015625 -14.109375 -3.0625 -13.3125 -3.0625 L -1.71875 -3.0625 C -0.921875 -3.0625 -0.6875 -3.015625 -0.6875 -1.3125 L -0.6875 -0.796875 L 0 -0.796875 L 0 -9.421875 C 0 -12.34375 -1.953125 -14.328125 -4.03125 -14.328125 Z M -11.3125 -11.59375 C -9.90625 -11.59375 -8.046875 -10.515625 -8.046875 -8.078125 L -8.046875 -4.890625 L -13.46875 -4.890625 C -14.1875 -4.890625 -14.34375 -4.921875 -14.34375 -5.96875 L -14.34375 -8.6875 C -14.34375 -10.828125 -12.46875 -11.59375 -11.3125 -11.59375 Z M -4.046875 -12.125 C -2.484375 -12.125 -0.6875 -10.984375 -0.6875 -8.71875 L -0.6875 -5.96875 C -0.6875 -4.921875 -0.84375 -4.890625 -1.5625 -4.890625 L -7.5625 -4.890625 L -7.5625 -9.015625 C -7.5625 -11.203125 -5.515625 -12.125 -4.046875 -12.125 Z M -4.046875 -12.125 "/>
</g>
<g id="glyph-17-0-c5c3ebe9">
<path d="M 7.359375 -4.953125 C 7.359375 -1.5625 6.171875 0.21875 3.984375 0.21875 C 1.78125 0.21875 0.625 -1.5625 0.625 -5.03125 C 0.625 -8.484375 1.765625 -10.296875 3.984375 -10.296875 C 6.234375 -10.296875 7.359375 -8.515625 7.359375 -4.953125 Z M 6.046875 -5.0625 C 6.046875 -7.828125 5.375 -9.15625 3.984375 -9.15625 C 2.609375 -9.15625 1.9375 -7.84375 1.9375 -5.015625 C 1.9375 -2.203125 2.609375 -0.84375 3.96875 -0.84375 C 5.390625 -0.84375 6.046875 -2.140625 6.046875 -5.0625 Z M 6.046875 -5.0625 "/>
</g>
<g id="glyph-17-1-c5c3ebe9">
<path d="M 7.421875 -7.265625 C 7.421875 -6.015625 6.671875 -4.9375 5.234375 -4.171875 C 5.234375 -4.171875 3.78125 -3.375 3.78125 -3.375 C 2.53125 -2.640625 2.0625 -2.109375 1.9375 -1.265625 C 1.9375 -1.265625 7.34375 -1.265625 7.34375 -1.265625 C 7.34375 -1.265625 7.34375 0 7.34375 0 C 7.34375 0 0.5 0 0.5 0 C 0.609375 -2.265625 1.234375 -3.234375 3.375 -4.453125 C 3.375 -4.453125 4.71875 -5.21875 4.71875 -5.21875 C 5.625 -5.734375 6.109375 -6.4375 6.109375 -7.25 C 6.109375 -8.34375 5.234375 -9.171875 4.078125 -9.171875 C 2.8125 -9.171875 2.109375 -8.453125 2 -6.71875 C 2 -6.71875 0.71875 -6.71875 0.71875 -6.71875 C 0.796875 -9.21875 2.015625 -10.296875 4.125 -10.296875 C 6.0625 -10.296875 7.421875 -9.015625 7.421875 -7.265625 Z M 7.421875 -7.265625 "/>
</g>
<g id="glyph-18-0-c5c3ebe9">
<path d="M 7.546875 -2.46875 C 7.546875 -2.46875 6.03125 -2.46875 6.03125 -2.46875 C 6.03125 -2.46875 6.03125 0 6.03125 0 C 6.03125 0 4.75 0 4.75 0 C 4.75 0 4.75 -2.46875 4.75 -2.46875 C 4.75 -2.46875 0.40625 -2.46875 0.40625 -2.46875 C 0.40625 -2.46875 0.40625 -3.8125 0.40625 -3.8125 C 0.40625 -3.8125 5.078125 -10.296875 5.078125 -10.296875 C 5.078125 -10.296875 6.03125 -10.296875 6.03125 -10.296875 C 6.03125 -10.296875 6.03125 -3.609375 6.03125 -3.609375 C 6.03125 -3.609375 7.546875 -3.609375 7.546875 -3.609375 C 7.546875 -3.609375 7.546875 -2.46875 7.546875 -2.46875 Z M 4.75 -3.609375 C 4.75 -3.609375 4.75 -8.109375 4.75 -8.109375 C 4.75 -8.109375 1.53125 -3.609375 1.53125 -3.609375 C 1.53125 -3.609375 4.75 -3.609375 4.75 -3.609375 Z M 4.75 -3.609375 "/>
</g>
<g id="glyph-19-0-c5c3ebe9">
<path d="M 10.671875 -11.640625 C 10.671875 -11.640625 6.375 -11.640625 6.375 -11.640625 C 6.375 -11.640625 6.375 0 6.375 0 C 6.375 0 4.703125 0 4.703125 0 C 4.703125 0 4.703125 -11.640625 4.703125 -11.640625 C 4.703125 -11.640625 0.375 -11.640625 0.375 -11.640625 C 0.375 -11.640625 0.375 -13.125 0.375 -13.125 C 0.375 -13.125 10.671875 -13.125 10.671875 -13.125 C 10.671875 -13.125 10.671875 -11.640625 10.671875 -11.640625 Z M 10.671875 -11.640625 "/>
</g>
<g id="glyph-19-1-c5c3ebe9">
<path d="M 5.109375 -4.3125 C 5.109375 -4.3125 0.828125 -4.3125 0.828125 -4.3125 C 0.828125 -4.3125 0.828125 -5.609375 0.828125 -5.609375 C 0.828125 -5.609375 5.109375 -5.609375 5.109375 -5.609375 C 5.109375 -5.609375 5.109375 -4.3125 5.109375 -4.3125 Z M 5.109375 -4.3125 "/>
</g>
<g id="glyph-19-2-c5c3ebe9">
<path d="M 11.171875 -3.59375 C 11.171875 -1.265625 9.375 0.328125 6.046875 0.328125 C 2.953125 0.328125 0.859375 -1.171875 0.859375 -4.265625 C 0.859375 -4.265625 2.453125 -4.265625 2.453125 -4.265625 C 2.453125 -2.390625 3.671875 -1.15625 6.15625 -1.15625 C 8.421875 -1.15625 9.5 -2 9.5 -3.4375 C 9.5 -4.46875 8.75 -5.125 7.09375 -5.5625 C 7.09375 -5.5625 3.828125 -6.421875 3.828125 -6.421875 C 2.109375 -6.875 1.265625 -7.890625 1.265625 -9.484375 C 1.265625 -11.859375 3.046875 -13.453125 5.921875 -13.453125 C 8.953125 -13.453125 10.734375 -11.953125 10.734375 -9.375 C 10.734375 -9.375 9.140625 -9.375 9.140625 -9.375 C 9.140625 -11.09375 7.953125 -12.046875 5.875 -12.046875 C 4.109375 -12.046875 2.9375 -11.046875 2.9375 -9.71875 C 2.9375 -8.71875 3.515625 -8.1875 5.09375 -7.78125 C 5.09375 -7.78125 8.390625 -6.890625 8.390625 -6.890625 C 10.171875 -6.40625 11.171875 -5.21875 11.171875 -3.59375 Z M 11.171875 -3.59375 "/>
</g>
<g id="glyph-19-3-c5c3ebe9">
<path d="M 11.609375 -13.125 C 11.609375 -13.125 7.0625 0 7.0625 0 C 7.0625 0 5.25 0 5.25 0 C 5.25 0 0.546875 -13.125 0.546875 -13.125 C 0.546875 -13.125 2.34375 -13.125 2.34375 -13.125 C 2.34375 -13.125 6.1875 -2.015625 6.1875 -2.015625 C 6.1875 -2.015625 9.828125 -13.125 9.828125 -13.125 C 9.828125 -13.125 11.609375 -13.125 11.609375 -13.125 Z M 11.609375 -13.125 "/>
</g>
<g id="glyph-19-4-c5c3ebe9">
<path d="M 12 -6.5625 C 12 -2.484375 9.96875 0 6.65625 0 C 6.65625 0 1.609375 0 1.609375 0 C 1.609375 0 1.609375 -13.125 1.609375 -13.125 C 1.609375 -13.125 6.65625 -13.125 6.65625 -13.125 C 9.984375 -13.125 12 -10.640625 12 -6.5625 Z M 10.328125 -6.546875 C 10.328125 -9.90625 8.96875 -11.640625 6.375 -11.640625 C 6.375 -11.640625 3.28125 -11.640625 3.28125 -11.640625 C 3.28125 -11.640625 3.28125 -1.46875 3.28125 -1.46875 C 3.28125 -1.46875 6.375 -1.46875 6.375 -1.46875 C 8.96875 -1.46875 10.328125 -3.234375 10.328125 -6.546875 Z M 10.328125 -6.546875 "/>
</g>
<g id="glyph-19-5-c5c3ebe9">
<path d="M 4.578125 0 C 4.0625 0.09375 3.703125 0.125 3.34375 0.125 C 2.171875 0.125 1.53125 -0.40625 1.53125 -1.375 C 1.53125 -1.375 1.53125 -8.203125 1.53125 -8.203125 C 1.53125 -8.203125 0.25 -8.203125 0.25 -8.203125 C 0.25 -8.203125 0.25 -9.4375 0.25 -9.4375 C 0.25 -9.4375 1.53125 -9.4375 1.53125 -9.4375 C 1.53125 -9.4375 1.53125 -12.03125 1.53125 -12.03125 C 1.53125 -12.03125 3.03125 -12.03125 3.03125 -12.03125 C 3.03125 -12.03125 3.03125 -9.4375 3.03125 -9.4375 C 3.03125 -9.4375 4.578125 -9.4375 4.578125 -9.4375 C 4.578125 -9.4375 4.578125 -8.203125 4.578125 -8.203125 C 4.578125 -8.203125 3.03125 -8.203125 3.03125 -8.203125 C 3.03125 -8.203125 3.03125 -2.03125 3.03125 -2.03125 C 3.03125 -1.375 3.203125 -1.1875 3.859375 -1.1875 C 4.140625 -1.1875 4.375 -1.203125 4.578125 -1.265625 C 4.578125 -1.265625 4.578125 0 4.578125 0 Z M 4.578125 0 "/>
</g>
<g id="glyph-19-6-c5c3ebe9">
<path d="M 2.75 0 C 2.75 0 1.265625 0 1.265625 0 C 1.265625 0 1.265625 -9.4375 1.265625 -9.4375 C 1.265625 -9.4375 2.75 -9.4375 2.75 -9.4375 C 2.75 -9.4375 2.75 0 2.75 0 Z M 2.953125 -10.859375 C 2.953125 -10.859375 1.078125 -10.859375 1.078125 -10.859375 C 1.078125 -10.859375 1.078125 -12.71875 1.078125 -12.71875 C 1.078125 -12.71875 2.953125 -12.71875 2.953125 -12.71875 C 2.953125 -12.71875 2.953125 -10.859375 2.953125 -10.859375 Z M 2.953125 -10.859375 "/>
</g>
<g id="glyph-19-7-c5c3ebe9">
<path d="M 13.6875 0 C 13.6875 0 12.1875 0 12.1875 0 C 12.1875 0 12.1875 -6.5 12.1875 -6.5 C 12.1875 -7.6875 11.5625 -8.390625 10.453125 -8.390625 C 9.234375 -8.390625 8.21875 -7.296875 8.21875 -5.921875 C 8.21875 -5.921875 8.21875 0 8.21875 0 C 8.21875 0 6.734375 0 6.734375 0 C 6.734375 0 6.734375 -6.5 6.734375 -6.5 C 6.734375 -7.703125 6.109375 -8.390625 4.984375 -8.390625 C 3.765625 -8.390625 2.765625 -7.296875 2.765625 -5.921875 C 2.765625 -5.921875 2.765625 0 2.765625 0 C 2.765625 0 1.28125 0 1.28125 0 C 1.28125 0 1.28125 -9.4375 1.28125 -9.4375 C 1.28125 -9.4375 2.640625 -9.4375 2.640625 -9.4375 C 2.640625 -9.4375 2.640625 -8.09375 2.640625 -8.09375 C 3.453125 -9.234375 4.28125 -9.703125 5.546875 -9.703125 C 6.765625 -9.703125 7.53125 -9.265625 8.078125 -8.265625 C 8.96875 -9.328125 9.71875 -9.703125 10.984375 -9.703125 C 12.75 -9.703125 13.6875 -8.765625 13.6875 -7.078125 C 13.6875 -7.078125 13.6875 0 13.6875 0 Z M 13.6875 0 "/>
</g>
<g id="glyph-19-8-c5c3ebe9">
<path d="M 9.234375 -4.28125 C 9.234375 -4.28125 2.28125 -4.28125 2.28125 -4.28125 C 2.328125 -2.125 3.484375 -1.109375 5.0625 -1.109375 C 6.265625 -1.109375 7.109375 -1.625 7.53125 -2.859375 C 7.53125 -2.859375 9.03125 -2.859375 9.03125 -2.859375 C 8.65625 -0.953125 7.15625 0.265625 5 0.265625 C 2.359375 0.265625 0.71875 -1.5625 0.71875 -4.65625 C 0.71875 -7.765625 2.40625 -9.703125 5.046875 -9.703125 C 6.796875 -9.703125 8.25 -8.765625 8.859375 -7.21875 C 9.125 -6.515625 9.234375 -5.65625 9.234375 -4.28125 Z M 7.625 -5.609375 C 7.625 -7.09375 6.5 -8.3125 5.015625 -8.3125 C 3.515625 -8.3125 2.453125 -7.1875 2.328125 -5.515625 C 2.328125 -5.515625 7.609375 -5.515625 7.609375 -5.515625 C 7.625 -5.546875 7.625 -5.609375 7.625 -5.609375 Z M 7.625 -5.609375 "/>
</g>
<g id="glyph-19-9-c5c3ebe9">
<path d="M 9.1875 -4.640625 C 9.1875 -1.546875 7.5625 0.265625 4.90625 0.265625 C 2.234375 0.265625 0.640625 -1.546875 0.640625 -4.71875 C 0.640625 -7.890625 2.25 -9.703125 4.890625 -9.703125 C 7.609375 -9.703125 9.1875 -7.90625 9.1875 -4.640625 Z M 7.609375 -4.65625 C 7.609375 -7 6.609375 -8.3125 4.90625 -8.3125 C 3.234375 -8.3125 2.21875 -6.984375 2.21875 -4.71875 C 2.21875 -2.4375 3.234375 -1.109375 4.90625 -1.109375 C 6.5625 -1.109375 7.609375 -2.453125 7.609375 -4.65625 Z M 7.609375 -4.65625 "/>
</g>
<g id="glyph-19-10-c5c3ebe9">
<path d="M 5.78125 -8.125 C 3.453125 -8.078125 2.75 -7.015625 2.75 -4.890625 C 2.75 -4.890625 2.75 0 2.75 0 C 2.75 0 1.265625 0 1.265625 0 C 1.265625 0 1.265625 -9.4375 1.265625 -9.4375 C 1.265625 -9.4375 2.625 -9.4375 2.625 -9.4375 C 2.625 -9.4375 2.625 -7.71875 2.625 -7.71875 C 3.484375 -9.125 4.234375 -9.703125 5.203125 -9.703125 C 5.40625 -9.703125 5.53125 -9.6875 5.78125 -9.640625 C 5.78125 -9.640625 5.78125 -8.125 5.78125 -8.125 Z M 5.78125 -8.125 "/>
</g>
<g id="glyph-19-11-c5c3ebe9">
<path d="M 8.609375 -9.4375 C 8.609375 -9.4375 4.40625 1.984375 4.40625 1.984375 C 3.90625 3.328125 3.046875 3.921875 1.984375 3.921875 C 1.578125 3.921875 1.28125 3.859375 0.96875 3.6875 C 0.96875 3.6875 0.96875 2.34375 0.96875 2.34375 C 1.296875 2.40625 1.546875 2.453125 1.765625 2.453125 C 2.40625 2.453125 2.71875 2.203125 2.96875 1.53125 C 2.96875 1.53125 3.546875 0.03125 3.546875 0.03125 C 3.546875 0.03125 0.359375 -9.4375 0.359375 -9.4375 C 0.359375 -9.4375 1.96875 -9.4375 1.96875 -9.4375 C 1.96875 -9.4375 4.375 -2.09375 4.375 -2.09375 C 4.375 -2.09375 6.984375 -9.4375 6.984375 -9.4375 C 6.984375 -9.4375 8.609375 -9.4375 8.609375 -9.4375 Z M 8.609375 -9.4375 "/>
</g>
<g id="glyph-19-12-c5c3ebe9">
<path d="M 12.21875 0 C 12.21875 0 10.1875 0 10.1875 0 C 9.953125 -0.546875 9.796875 -1.328125 9.8125 -2.140625 C 9.8125 -2.140625 9.828125 -3.3125 9.828125 -3.3125 C 9.84375 -4.9375 9.140625 -5.65625 7.671875 -5.65625 C 7.671875 -5.65625 3.34375 -5.65625 3.34375 -5.65625 C 3.34375 -5.65625 3.34375 0 3.34375 0 C 3.34375 0 1.671875 0 1.671875 0 C 1.671875 0 1.671875 -13.125 1.671875 -13.125 C 1.671875 -13.125 7.71875 -13.125 7.71875 -13.125 C 10.296875 -13.125 11.71875 -11.875 11.71875 -9.609375 C 11.71875 -8.125 11.125 -7.203125 9.640625 -6.484375 C 11.0625 -5.875 11.390625 -5.21875 11.4375 -3.0625 C 11.453125 -1.3125 11.59375 -0.84375 12.21875 -0.40625 C 12.21875 -0.40625 12.21875 0 12.21875 0 Z M 9.96875 -9.375 C 9.96875 -10.859375 9.265625 -11.640625 7.390625 -11.640625 C 7.390625 -11.640625 3.34375 -11.640625 3.34375 -11.640625 C 3.34375 -11.640625 3.34375 -7.125 3.34375 -7.125 C 3.34375 -7.125 7.390625 -7.125 7.390625 -7.125 C 9.1875 -7.125 9.96875 -7.828125 9.96875 -9.375 Z M 9.96875 -9.375 "/>
</g>
<g id="glyph-19-13-c5c3ebe9">
</g>
</g>
<clipPath id="clip-0-c5c3ebe9">
<path clip-rule="nonzero" d="M 96 52 L 790 52 L 790 603 L 96 603 Z M 96 52 "/>
</clipPath>
<clipPath id="clip-1-c5c3ebe9">
<path clip-rule="nonzero" d="M 96 593 L 101 593 L 101 602 L 96 602 Z M 96 593 "/>
</clipPath>
<clipPath id="clip-2-c5c3ebe9">
<path clip-rule="nonzero" d="M 96 38 L 1013 38 L 1013 550 L 96 550 Z M 96 38 "/>
</clipPath>
<clipPath id="clip-3-c5c3ebe9">
<path clip-rule="nonzero" d="M 96 539 L 100 539 L 100 548 L 96 548 Z M 96 539 "/>
</clipPath>
<clipPath id="clip-4-c5c3ebe9">
<path clip-rule="nonzero" d="M 1009 39 L 1013 39 L 1013 48 L 1009 48 Z M 1009 39 "/>
</clipPath>
<clipPath id="clip-5-c5c3ebe9">
<path clip-rule="nonzero" d="M 96 112 L 788 112 L 788 602 L 96 602 Z M 96 112 "/>
</clipPath>
<clipPath id="clip-6-c5c3ebe9">
<path clip-rule="nonzero" d="M 96 39 L 1013 39 L 1013 547 L 96 547 Z M 96 39 "/>
</clipPath>
</defs>
<rect x="-110" y="-70" width="1320" height="840" fill="rgb(100%, 100%, 100%)" fill-opacity="1"/>
<path fill-rule="nonzero" fill="rgb(100%, 100%, 100%)" fill-opacity="1" d="M 96 625 L 1013 625 L 1013 16 L 96 16 Z M 96 625 "/>
<path fill="none" stroke-width="1" stroke-linecap="butt" stroke-linejoin="miter" stroke="rgb(0%, 0%, 0%)" stroke-opacity="0.12" stroke-miterlimit="1.154701" d="M 96 625 L 96 16 "/>
<path fill="none" stroke-width="1" stroke-linecap="butt" stroke-linejoin="miter" stroke="rgb(0%, 0%, 0%)" stroke-opacity="0.12" stroke-miterlimit="1.154701" d="M 210.625 625 L 210.625 16 "/>
<path fill="none" stroke-width="1" stroke-linecap="butt" stroke-linejoin="miter" stroke="rgb(0%, 0%, 0%)" stroke-opacity="0.12" stroke-miterlimit="1.154701" d="M 325.25 625 L 325.25 16 "/>
<path fill="none" stroke-width="1" stroke-linecap="butt" stroke-linejoin="miter" stroke="rgb(0%, 0%, 0%)" stroke-opacity="0.12" stroke-miterlimit="1.154701" d="M 439.875 625 L 439.875 16 "/>
<path fill="none" stroke-width="1" stroke-linecap="butt" stroke-linejoin="miter" stroke="rgb(0%, 0%, 0%)" stroke-opacity="0.12" stroke-miterlimit="1.154701" d="M 554.5 625 L 554.5 16 "/>
<path fill="none" stroke-width="1" stroke-linecap="butt" stroke-linejoin="miter" stroke="rgb(0%, 0%, 0%)" stroke-opacity="0.12" stroke-miterlimit="1.154701" d="M 669.125 625 L 669.125 16 "/>
<path fill="none" stroke-width="1" stroke-linecap="butt" stroke-linejoin="miter" stroke="rgb(0%, 0%, 0%)" stroke-opacity="0.12" stroke-miterlimit="1.154701" d="M 783.75 625 L 783.75 16 "/>
<path fill="none" stroke-width="1" stroke-linecap="butt" stroke-linejoin="miter" stroke="rgb(0%, 0%, 0%)" stroke-opacity="0.12" stroke-miterlimit="1.154701" d="M 898.375 625 L 898.375 16 "/>
<path fill="none" stroke-width="1" stroke-linecap="butt" stroke-linejoin="miter" stroke="rgb(0%, 0%, 0%)" stroke-opacity="0.12" stroke-miterlimit="1.154701" d="M 1013 625 L 1013 16 "/>
<path fill="none" stroke-width="1" stroke-linecap="butt" stroke-linejoin="miter" stroke="rgb(0%, 0%, 0%)" stroke-opacity="0.05" stroke-miterlimit="1.154701" d="M 153.3125 625 L 153.3125 16 "/>
<path fill="none" stroke-width="1" stroke-linecap="butt" stroke-linejoin="miter" stroke="rgb(0%, 0%, 0%)" stroke-opacity="0.05" stroke-miterlimit="1.154701" d="M 267.9375 625 L 267.9375 16 "/>
<path fill="none" stroke-width="1" stroke-linecap="butt" stroke-linejoin="miter" stroke="rgb(0%, 0%, 0%)" stroke-opacity="0.05" stroke-miterlimit="1.154701" d="M 382.5625 625 L 382.5625 16 "/>
<path fill="none" stroke-width="1" stroke-linecap="butt" stroke-linejoin="miter" stroke="rgb(0%, 0%, 0%)" stroke-opacity="0.05" stroke-miterlimit="1.154701" d="M 497.1875 625 L 497.1875 16 "/>
<path fill="none" stroke-width="1" stroke-linecap="butt" stroke-linejoin="miter" stroke="rgb(0%, 0%, 0%)" stroke-opacity="0.05" stroke-miterlimit="1.154701" d="M 611.8125 625 L 611.8125 16 "/>
<path fill="none" stroke-width="1" stroke-linecap="butt" stroke-linejoin="miter" stroke="rgb(0%, 0%, 0%)" stroke-opacity="0.05" stroke-miterlimit="1.154701" d="M 726.4375 625 L 726.4375 16 "/>
<path fill="none" stroke-width="1" stroke-linecap="butt" stroke-linejoin="miter" stroke="rgb(0%, 0%, 0%)" stroke-opacity="0.05" stroke-miterlimit="1.154701" d="M 841.0625 625 L 841.0625 16 "/>
<path fill="none" stroke-width="1" stroke-linecap="butt" stroke-linejoin="miter" stroke="rgb(0%, 0%, 0%)" stroke-opacity="0.05" stroke-miterlimit="1.154701" d="M 955.6875 625 L 955.6875 16 "/>
<path fill="none" stroke-width="1" stroke-linecap="butt" stroke-linejoin="miter" stroke="rgb(0%, 0%, 0%)" stroke-opacity="0.12" stroke-miterlimit="1.154701" d="M 96 549.113281 L 1013 549.113281 "/>
<path fill="none" stroke-width="1" stroke-linecap="butt" stroke-linejoin="miter" stroke="rgb(0%, 0%, 0%)" stroke-opacity="0.12" stroke-miterlimit="1.154701" d="M 96 434.742188 L 1013 434.742188 "/>
<path fill="none" stroke-width="1" stroke-linecap="butt" stroke-linejoin="miter" stroke="rgb(0%, 0%, 0%)" stroke-opacity="0.12" stroke-miterlimit="1.154701" d="M 96 320.367188 L 1013 320.367188 "/>
<path fill="none" stroke-width="1" stroke-linecap="butt" stroke-linejoin="miter" stroke="rgb(0%, 0%, 0%)" stroke-opacity="0.12" stroke-miterlimit="1.154701" d="M 96 205.996094 L 1013 205.996094 "/>
<path fill="none" stroke-width="1" stroke-linecap="butt" stroke-linejoin="miter" stroke="rgb(0%, 0%, 0%)" stroke-opacity="0.12" stroke-miterlimit="1.154701" d="M 96 91.625 L 1013 91.625 "/>
<path fill="none" stroke-width="1" stroke-linecap="butt" stroke-linejoin="miter" stroke="rgb(0%, 0%, 0%)" stroke-opacity="0.05" stroke-miterlimit="1.154701" d="M 96 553.796875 L 1013 553.796875 "/>
<path fill="none" stroke-width="1" stroke-linecap="butt" stroke-linejoin="miter" stroke="rgb(0%, 0%, 0%)" stroke-opacity="0.05" stroke-miterlimit="1.154701" d="M 96 558.96875 L 1013 558.96875 "/>
<path fill="none" stroke-width="1" stroke-linecap="butt" stroke-linejoin="miter" stroke="rgb(0%, 0%, 0%)" stroke-opacity="0.05" stroke-miterlimit="1.154701" d="M 96 564.746094 L 1013 564.746094 "/>
<path fill="none" stroke-width="1" stroke-linecap="butt" stroke-linejoin="miter" stroke="rgb(0%, 0%, 0%)" stroke-opacity="0.05" stroke-miterlimit="1.154701" d="M 96 571.28125 L 1013 571.28125 "/>
<path fill="none" stroke-width="1" stroke-linecap="butt" stroke-linejoin="miter" stroke="rgb(0%, 0%, 0%)" stroke-opacity="0.05" stroke-miterlimit="1.154701" d="M 96 578.808594 L 1013 578.808594 "/>
<path fill="none" stroke-width="1" stroke-linecap="butt" stroke-linejoin="miter" stroke="rgb(0%, 0%, 0%)" stroke-opacity="0.05" stroke-miterlimit="1.154701" d="M 96 587.683594 L 1013 587.683594 "/>
<path fill="none" stroke-width="1" stroke-linecap="butt" stroke-linejoin="miter" stroke="rgb(0%, 0%, 0%)" stroke-opacity="0.05" stroke-miterlimit="1.154701" d="M 96 598.5 L 1013 598.5 "/>
<path fill="none" stroke-width="1" stroke-linecap="butt" stroke-linejoin="miter" stroke="rgb(0%, 0%, 0%)" stroke-opacity="0.05" stroke-miterlimit="1.154701" d="M 96 612.34375 L 1013 612.34375 "/>
<path fill="none" stroke-width="1" stroke-linecap="butt" stroke-linejoin="miter" stroke="rgb(0%, 0%, 0%)" stroke-opacity="0.05" stroke-miterlimit="1.154701" d="M 96 517.230469 L 1013 517.230469 "/>
<path fill="none" stroke-width="1" stroke-linecap="butt" stroke-linejoin="miter" stroke="rgb(0%, 0%, 0%)" stroke-opacity="0.05" stroke-miterlimit="1.154701" d="M 96 497.972656 L 1013 497.972656 "/>
<path fill="none" stroke-width="1" stroke-linecap="butt" stroke-linejoin="miter" stroke="rgb(0%, 0%, 0%)" stroke-opacity="0.05" stroke-miterlimit="1.154701" d="M 96 484.125 L 1013 484.125 "/>
<path fill="none" stroke-width="1" stroke-linecap="butt" stroke-linejoin="miter" stroke="rgb(0%, 0%, 0%)" stroke-opacity="0.05" stroke-miterlimit="1.154701" d="M 96 473.3125 L 1013 473.3125 "/>
<path fill="none" stroke-width="1" stroke-linecap="butt" stroke-linejoin="miter" stroke="rgb(0%, 0%, 0%)" stroke-opacity="0.05" stroke-miterlimit="1.154701" d="M 96 464.4375 L 1013 464.4375 "/>
<path fill="none" stroke-width="1" stroke-linecap="butt" stroke-linejoin="miter" stroke="rgb(0%, 0%, 0%)" stroke-opacity="0.05" stroke-miterlimit="1.154701" d="M 96 456.910156 L 1013 456.910156 "/>
<path fill="none" stroke-width="1" stroke-linecap="butt" stroke-linejoin="miter" stroke="rgb(0%, 0%, 0%)" stroke-opacity="0.05" stroke-miterlimit="1.154701" d="M 96 450.375 L 1013 450.375 "/>
<path fill="none" stroke-width="1" stroke-linecap="butt" stroke-linejoin="miter" stroke="rgb(0%, 0%, 0%)" stroke-opacity="0.05" stroke-miterlimit="1.154701" d="M 96 444.597656 L 1013 444.597656 "/>
<path fill="none" stroke-width="1" stroke-linecap="butt" stroke-linejoin="miter" stroke="rgb(0%, 0%, 0%)" stroke-opacity="0.05" stroke-miterlimit="1.154701" d="M 96 439.425781 L 1013 439.425781 "/>
<path fill="none" stroke-width="1" stroke-linecap="butt" stroke-linejoin="miter" stroke="rgb(0%, 0%, 0%)" stroke-opacity="0.05" stroke-miterlimit="1.154701" d="M 96 402.859375 L 1013 402.859375 "/>
<path fill="none" stroke-width="1" stroke-linecap="butt" stroke-linejoin="miter" stroke="rgb(0%, 0%, 0%)" stroke-opacity="0.05" stroke-miterlimit="1.154701" d="M 96 383.597656 L 1013 383.597656 "/>
<path fill="none" stroke-width="1" stroke-linecap="butt" stroke-linejoin="miter" stroke="rgb(0%, 0%, 0%)" stroke-opacity="0.05" stroke-miterlimit="1.154701" d="M 96 369.753906 L 1013 369.753906 "/>
<path fill="none" stroke-width="1" stroke-linecap="butt" stroke-linejoin="miter" stroke="rgb(0%, 0%, 0%)" stroke-opacity="0.05" stroke-miterlimit="1.154701" d="M 96 358.941406 L 1013 358.941406 "/>
<path fill="none" stroke-width="1" stroke-linecap="butt" stroke-linejoin="miter" stroke="rgb(0%, 0%, 0%)" stroke-opacity="0.05" stroke-miterlimit="1.154701" d="M 96 350.0625 L 1013 350.0625 "/>
<path fill="none" stroke-width="1" stroke-linecap="butt" stroke-linejoin="miter" stroke="rgb(0%, 0%, 0%)" stroke-opacity="0.05" stroke-miterlimit="1.154701" d="M 96 342.535156 L 1013 342.535156 "/>
<path fill="none" stroke-width="1" stroke-linecap="butt" stroke-linejoin="miter" stroke="rgb(0%, 0%, 0%)" stroke-opacity="0.05" stroke-miterlimit="1.154701" d="M 96 336 L 1013 336 "/>
<path fill="none" stroke-width="1" stroke-linecap="butt" stroke-linejoin="miter" stroke="rgb(0%, 0%, 0%)" stroke-opacity="0.05" stroke-miterlimit="1.154701" d="M 96 330.226562 L 1013 330.226562 "/>
<path fill="none" stroke-width="1" stroke-linecap="butt" stroke-linejoin="miter" stroke="rgb(0%, 0%, 0%)" stroke-opacity="0.05" stroke-miterlimit="1.154701" d="M 96 325.054688 L 1013 325.054688 "/>
<path fill="none" stroke-width="1" stroke-linecap="butt" stroke-linejoin="miter" stroke="rgb(0%, 0%, 0%)" stroke-opacity="0.05" stroke-miterlimit="1.154701" d="M 96 288.488281 L 1013 288.488281 "/>
<path fill="none" stroke-width="1" stroke-linecap="butt" stroke-linejoin="miter" stroke="rgb(0%, 0%, 0%)" stroke-opacity="0.05" stroke-miterlimit="1.154701" d="M 96 269.226562 L 1013 269.226562 "/>
<path fill="none" stroke-width="1" stroke-linecap="butt" stroke-linejoin="miter" stroke="rgb(0%, 0%, 0%)" stroke-opacity="0.05" stroke-miterlimit="1.154701" d="M 96 255.382812 L 1013 255.382812 "/>
<path fill="none" stroke-width="1" stroke-linecap="butt" stroke-linejoin="miter" stroke="rgb(0%, 0%, 0%)" stroke-opacity="0.05" stroke-miterlimit="1.154701" d="M 96 244.566406 L 1013 244.566406 "/>
<path fill="none" stroke-width="1" stroke-linecap="butt" stroke-linejoin="miter" stroke="rgb(0%, 0%, 0%)" stroke-opacity="0.05" stroke-miterlimit="1.154701" d="M 96 235.691406 L 1013 235.691406 "/>
<path fill="none" stroke-width="1" stroke-linecap="butt" stroke-linejoin="miter" stroke="rgb(0%, 0%, 0%)" stroke-opacity="0.05" stroke-miterlimit="1.154701" d="M 96 228.164062 L 1013 228.164062 "/>
<path fill="none" stroke-width="1" stroke-linecap="butt" stroke-linejoin="miter" stroke="rgb(0%, 0%, 0%)" stroke-opacity="0.05" stroke-miterlimit="1.154701" d="M 96 221.628906 L 1013 221.628906 "/>
<path fill="none" stroke-width="1" stroke-linecap="butt" stroke-linejoin="miter" stroke="rgb(0%, 0%, 0%)" stroke-opacity="0.05" stroke-miterlimit="1.154701" d="M 96 215.855469 L 1013 215.855469 "/>
<path fill="none" stroke-width="1" stroke-linecap="butt" stroke-linejoin="miter" stroke="rgb(0%, 0%, 0%)" stroke-opacity="0.05" stroke-miterlimit="1.154701" d="M 96 210.679688 L 1013 210.679688 "/>
<path fill="none" stroke-width="1" stroke-linecap="butt" stroke-linejoin="miter" stroke="rgb(0%, 0%, 0%)" stroke-opacity="0.05" stroke-miterlimit="1.154701" d="M 96 174.113281 L 1013 174.113281 "/>
<path fill="none" stroke-width="1" stroke-linecap="butt" stroke-linejoin="miter" stroke="rgb(0%, 0%, 0%)" stroke-opacity="0.05" stroke-miterlimit="1.154701" d="M 96 154.855469 L 1013 154.855469 "/>
<path fill="none" stroke-width="1" stroke-linecap="butt" stroke-linejoin="miter" stroke="rgb(0%, 0%, 0%)" stroke-opacity="0.05" stroke-miterlimit="1.154701" d="M 96 141.011719 L 1013 141.011719 "/>
<path fill="none" stroke-width="1" stroke-linecap="butt" stroke-linejoin="miter" stroke="rgb(0%, 0%, 0%)" stroke-opacity="0.05" stroke-miterlimit="1.154701" d="M 96 130.195312 L 1013 130.195312 "/>
<path fill="none" stroke-width="1" stroke-linecap="butt" stroke-linejoin="miter" stroke="rgb(0%, 0%, 0%)" stroke-opacity="0.05" stroke-miterlimit="1.154701" d="M 96 121.320312 L 1013 121.320312 "/>
<path fill="none" stroke-width="1" stroke-linecap="butt" stroke-linejoin="miter" stroke="rgb(0%, 0%, 0%)" stroke-opacity="0.05" stroke-miterlimit="1.154701" d="M 96 113.792969 L 1013 113.792969 "/>
<path fill="none" stroke-width="1" stroke-linecap="butt" stroke-linejoin="miter" stroke="rgb(0%, 0%, 0%)" stroke-opacity="0.05" stroke-miterlimit="1.154701" d="M 96 107.257812 L 1013 107.257812 "/>
<path fill="none" stroke-width="1" stroke-linecap="butt" stroke-linejoin="miter" stroke="rgb(0%, 0%, 0%)" stroke-opacity="0.05" stroke-miterlimit="1.154701" d="M 96 101.480469 L 1013 101.480469 "/>
<path fill="none" stroke-width="1" stroke-linecap="butt" stroke-linejoin="miter" stroke="rgb(0%, 0%, 0%)" stroke-opacity="0.05" stroke-miterlimit="1.154701" d="M 96 96.308594 L 1013 96.308594 "/>
<path fill="none" stroke-width="1" stroke-linecap="butt" stroke-linejoin="miter" stroke="rgb(0%, 0%, 0%)" stroke-opacity="0.05" stroke-miterlimit="1.154701" d="M 96 59.742188 L 1013 59.742188 "/>
<path fill="none" stroke-width="1" stroke-linecap="butt" stroke-linejoin="miter" stroke="rgb(0%, 0%, 0%)" stroke-opacity="0.05" stroke-miterlimit="1.154701" d="M 96 40.480469 L 1013 40.480469 "/>
<path fill="none" stroke-width="1" stroke-linecap="butt" stroke-linejoin="miter" stroke="rgb(0%, 0%, 0%)" stroke-opacity="0.05" stroke-miterlimit="1.154701" d="M 96 26.636719 L 1013 26.636719 "/>
<g fill="rgb(0%, 0%, 0%)" fill-opacity="1">
<use xlink:href="#glyph-0-0-c5c3ebe9" x="508.215633" y="679.361998"/>
</g>
<g fill="rgb(0%, 0%, 0%)" fill-opacity="1">
<use xlink:href="#glyph-1-0-c5c3ebe9" x="524.246374" y="679.361998"/>
</g>
<g fill="rgb(0%, 0%, 0%)" fill-opacity="1">
<use xlink:href="#glyph-1-1-c5c3ebe9" x="532.804373" y="679.361998"/>
</g>
<g fill="rgb(0%, 0%, 0%)" fill-opacity="1">
<use xlink:href="#glyph-1-2-c5c3ebe9" x="544.420372" y="679.361998"/>
</g>
<g fill="rgb(0%, 0%, 0%)" fill-opacity="1">
<use xlink:href="#glyph-1-3-c5c3ebe9" x="556.65237" y="679.361998"/>
</g>
<g fill="rgb(0%, 0%, 0%)" fill-opacity="1">
<use xlink:href="#glyph-1-4-c5c3ebe9" x="568.884373" y="679.361998"/>
</g>
<g fill="rgb(0%, 0%, 0%)" fill-opacity="1">
<use xlink:href="#glyph-1-5-c5c3ebe9" x="575.00037" y="679.361998"/>
</g>
<g fill="rgb(0%, 0%, 0%)" fill-opacity="1">
<use xlink:href="#glyph-1-6-c5c3ebe9" x="583.558376" y="679.361998"/>
</g>
<g fill="rgb(0%, 0%, 0%)" fill-opacity="1">
<use xlink:href="#glyph-1-7-c5c3ebe9" x="592.226376" y="679.361998"/>
</g>
<g fill="rgb(0%, 0%, 0%)" fill-opacity="1">
<use xlink:href="#glyph-2-0-c5c3ebe9" x="89.884" y="653.834"/>
</g>
<g fill="rgb(0%, 0%, 0%)" fill-opacity="1">
<use xlink:href="#glyph-2-1-c5c3ebe9" x="204.509001" y="653.834"/>
</g>
<g fill="rgb(0%, 0%, 0%)" fill-opacity="1">
<use xlink:href="#glyph-2-2-c5c3ebe9" x="313.018002" y="653.834"/>
</g>
<g fill="rgb(0%, 0%, 0%)" fill-opacity="1">
<use xlink:href="#glyph-2-3-c5c3ebe9" x="325.250002" y="653.834"/>
</g>
<g fill="rgb(0%, 0%, 0%)" fill-opacity="1">
<use xlink:href="#glyph-2-2-c5c3ebe9" x="427.643003" y="653.834"/>
</g>
<g fill="rgb(0%, 0%, 0%)" fill-opacity="1">
<use xlink:href="#glyph-2-4-c5c3ebe9" x="439.875003" y="653.834"/>
</g>
<g fill="rgb(0%, 0%, 0%)" fill-opacity="1">
<use xlink:href="#glyph-2-2-c5c3ebe9" x="542.268003" y="653.834"/>
</g>
<g fill="rgb(0%, 0%, 0%)" fill-opacity="1">
<use xlink:href="#glyph-2-5-c5c3ebe9" x="554.500004" y="653.834"/>
</g>
<g fill="rgb(0%, 0%, 0%)" fill-opacity="1">
<use xlink:href="#glyph-2-3-c5c3ebe9" x="656.893004" y="653.834"/>
</g>
<g fill="rgb(0%, 0%, 0%)" fill-opacity="1">
<use xlink:href="#glyph-2-2-c5c3ebe9" x="669.125005" y="653.834"/>
</g>
<g fill="rgb(0%, 0%, 0%)" fill-opacity="1">
<use xlink:href="#glyph-2-3-c5c3ebe9" x="771.518005" y="653.834"/>
</g>
<g fill="rgb(0%, 0%, 0%)" fill-opacity="1">
<use xlink:href="#glyph-2-6-c5c3ebe9" x="783.750005" y="653.834"/>
</g>
<g fill="rgb(0%, 0%, 0%)" fill-opacity="1">
<use xlink:href="#glyph-2-3-c5c3ebe9" x="886.143006" y="653.834"/>
</g>
<g fill="rgb(0%, 0%, 0%)" fill-opacity="1">
<use xlink:href="#glyph-2-7-c5c3ebe9" x="898.375006" y="653.834"/>
</g>
<g fill="rgb(0%, 0%, 0%)" fill-opacity="1">
<use xlink:href="#glyph-2-8-c5c3ebe9" x="1000.768006" y="653.834"/>
</g>
<g fill="rgb(0%, 0%, 0%)" fill-opacity="1">
<use xlink:href="#glyph-2-9-c5c3ebe9" x="1013.000007" y="653.834"/>
</g>
<g fill="rgb(0%, 0%, 0%)" fill-opacity="1">
<use xlink:href="#glyph-3-0-c5c3ebe9" x="33.075199" y="362.105629"/>
</g>
<g fill="rgb(0%, 0%, 0%)" fill-opacity="1">
<use xlink:href="#glyph-3-1-c5c3ebe9" x="33.0752" y="346.221632"/>
</g>
<g fill="rgb(0%, 0%, 0%)" fill-opacity="1">
<use xlink:href="#glyph-4-0-c5c3ebe9" x="33.075201" y="340.105631"/>
</g>
<g fill="rgb(0%, 0%, 0%)" fill-opacity="1">
<use xlink:href="#glyph-5-0-c5c3ebe9" x="33.075202" y="321.779632"/>
</g>
<g fill="rgb(0%, 0%, 0%)" fill-opacity="1">
<use xlink:href="#glyph-6-0-c5c3ebe9" x="33.075203" y="304.678373"/>
</g>
<g fill="rgb(0%, 0%, 0%)" fill-opacity="1">
<use xlink:href="#glyph-7-0-c5c3ebe9" x="33.075203" y="296.120375"/>
</g>
<g fill="rgb(0%, 0%, 0%)" fill-opacity="1">
<use xlink:href="#glyph-5-1-c5c3ebe9" x="33.075204" y="287.452378"/>
</g>
<g fill="rgb(0%, 0%, 0%)" fill-opacity="1">
<use xlink:href="#glyph-8-0-c5c3ebe9" x="43.531201" y="557.990367"/>
</g>
<g fill="rgb(0%, 0%, 0%)" fill-opacity="1">
<use xlink:href="#glyph-2-9-c5c3ebe9" x="55.763201" y="557.990367"/>
</g>
<g fill="rgb(0%, 0%, 0%)" fill-opacity="1">
<use xlink:href="#glyph-9-0-c5c3ebe9" x="69.447201" y="549.190366"/>
</g>
<g fill="rgb(0%, 0%, 0%)" fill-opacity="1">
<use xlink:href="#glyph-9-1-c5c3ebe9" x="77.92688" y="549.190366"/>
</g>
<g fill="rgb(0%, 0%, 0%)" fill-opacity="1">
<use xlink:href="#glyph-8-0-c5c3ebe9" x="43.531201" y="443.618221"/>
</g>
<g fill="rgb(0%, 0%, 0%)" fill-opacity="1">
<use xlink:href="#glyph-2-9-c5c3ebe9" x="55.763201" y="443.618221"/>
</g>
<g fill="rgb(0%, 0%, 0%)" fill-opacity="1">
<use xlink:href="#glyph-10-0-c5c3ebe9" x="69.447201" y="434.818221"/>
</g>
<g fill="rgb(0%, 0%, 0%)" fill-opacity="1">
<use xlink:href="#glyph-10-1-c5c3ebe9" x="77.92688" y="434.818221"/>
</g>
<g fill="rgb(0%, 0%, 0%)" fill-opacity="1">
<use xlink:href="#glyph-8-0-c5c3ebe9" x="43.531201" y="329.246061"/>
</g>
<g fill="rgb(0%, 0%, 0%)" fill-opacity="1">
<use xlink:href="#glyph-2-9-c5c3ebe9" x="55.763201" y="329.246061"/>
</g>
<g fill="rgb(0%, 0%, 0%)" fill-opacity="1">
<use xlink:href="#glyph-10-0-c5c3ebe9" x="69.447201" y="320.44606"/>
</g>
<g fill="rgb(0%, 0%, 0%)" fill-opacity="1">
<use xlink:href="#glyph-10-2-c5c3ebe9" x="77.92688" y="320.44606"/>
</g>
<g fill="rgb(0%, 0%, 0%)" fill-opacity="1">
<use xlink:href="#glyph-2-2-c5c3ebe9" x="52.01088" y="214.87393"/>
</g>
<g fill="rgb(0%, 0%, 0%)" fill-opacity="1">
<use xlink:href="#glyph-2-9-c5c3ebe9" x="64.24288" y="214.87393"/>
</g>
<g fill="rgb(0%, 0%, 0%)" fill-opacity="1">
<use xlink:href="#glyph-11-0-c5c3ebe9" x="77.92688" y="206.07393"/>
</g>
<g fill="rgb(0%, 0%, 0%)" fill-opacity="1">
<use xlink:href="#glyph-2-2-c5c3ebe9" x="52.01088" y="100.5018"/>
</g>
<g fill="rgb(0%, 0%, 0%)" fill-opacity="1">
<use xlink:href="#glyph-2-9-c5c3ebe9" x="64.24288" y="100.5018"/>
</g>
<g fill="rgb(0%, 0%, 0%)" fill-opacity="1">
<use xlink:href="#glyph-12-0-c5c3ebe9" x="77.92688" y="91.7018"/>
</g>
<g clip-path="url(#clip-0-c5c3ebe9)">
<path fill="none" stroke-width="2" stroke-linecap="butt" stroke-linejoin="miter" stroke="rgb(100%, 54.901963%, 25.882354%)" stroke-opacity="1" stroke-miterlimit="2" d="M 96 597.316406 L 172.417969 574.085938 L 248.832031 547.347656 L 325.25 502.3125 L 401.667969 442.722656 L 478.082031 366.554688 L 554.5 288.121094 L 630.917969 204.355469 L 707.332031 127.953125 L 783.75 58.03125 "/>
</g>
<g clip-path="url(#clip-1-c5c3ebe9)">
<path fill-rule="nonzero" fill="rgb(100%, 54.901963%, 25.882354%)" fill-opacity="1" d="M 100.230469 597.316406 C 100.230469 591.679688 91.769531 591.679688 91.769531 597.316406 C 91.769531 602.957031 100.230469 602.957031 100.230469 597.316406 Z M 100.230469 597.316406 "/>
</g>
<path fill-rule="nonzero" fill="rgb(100%, 54.901963%, 25.882354%)" fill-opacity="1" d="M 176.648438 574.085938 C 176.648438 568.445312 168.1875 568.445312 168.1875 574.085938 C 168.1875 579.726562 176.648438 579.726562 176.648438 574.085938 Z M 176.648438 574.085938 "/>
<path fill-rule="nonzero" fill="rgb(100%, 54.901963%, 25.882354%)" fill-opacity="1" d="M 253.0625 547.347656 C 253.0625 541.707031 244.601562 541.707031 244.601562 547.347656 C 244.601562 552.988281 253.0625 552.988281 253.0625 547.347656 Z M 253.0625 547.347656 "/>
<path fill-rule="nonzero" fill="rgb(100%, 54.901963%, 25.882354%)" fill-opacity="1" d="M 329.480469 502.3125 C 329.480469 496.671875 321.019531 496.671875 321.019531 502.3125 C 321.019531 507.953125 329.480469 507.953125 329.480469 502.3125 Z M 329.480469 502.3125 "/>
<path fill-rule="nonzero" fill="rgb(100%, 54.901963%, 25.882354%)" fill-opacity="1" d="M 405.898438 442.722656 C 405.898438 437.082031 397.4375 437.082031 397.4375 442.722656 C 397.4375 448.363281 405.898438 448.363281 405.898438 442.722656 Z M 405.898438 442.722656 "/>
<path fill-rule="nonzero" fill="rgb(100%, 54.901963%, 25.882354%)" fill-opacity="1" d="M 482.3125 366.554688 C 482.3125 360.917969 473.851562 360.917969 473.851562 366.554688 C 473.851562 372.195312 482.3125 372.195312 482.3125 366.554688 Z M 482.3125 366.554688 "/>
<path fill-rule="nonzero" fill="rgb(100%, 54.901963%, 25.882354%)" fill-opacity="1" d="M 558.730469 288.121094 C 558.730469 282.480469 550.269531 282.480469 550.269531 288.121094 C 550.269531 293.761719 558.730469 293.761719 558.730469 288.121094 Z M 558.730469 288.121094 "/>
<path fill-rule="nonzero" fill="rgb(100%, 54.901963%, 25.882354%)" fill-opacity="1" d="M 635.148438 204.355469 C 635.148438 198.714844 626.6875 198.714844 626.6875 204.355469 C 626.6875 209.992188 635.148438 209.992188 635.148438 204.355469 Z M 635.148438 204.355469 "/>
<path fill-rule="nonzero" fill="rgb(100%, 54.901963%, 25.882354%)" fill-opacity="1" d="M 711.5625 127.953125 C 711.5625 122.3125 703.101562 122.3125 703.101562 127.953125 C 703.101562 133.59375 711.5625 133.59375 711.5625 127.953125 Z M 711.5625 127.953125 "/>
<path fill-rule="nonzero" fill="rgb(100%, 54.901963%, 25.882354%)" fill-opacity="1" d="M 787.980469 58.03125 C 787.980469 52.390625 779.519531 52.390625 779.519531 58.03125 C 779.519531 63.671875 787.980469 63.671875 787.980469 58.03125 Z M 787.980469 58.03125 "/>
<g clip-path="url(#clip-2-c5c3ebe9)">
<path fill="none" stroke-width="2" stroke-linecap="butt" stroke-linejoin="miter" stroke="rgb(32.941177%, 69.01961%, 49.411765%)" stroke-opacity="1" stroke-miterlimit="2" d="M 96 543.714844 L 172.417969 522.21875 L 248.832031 496.378906 L 325.25 455.707031 L 401.667969 426.796875 L 478.082031 408.613281 L 554.5 383.648438 L 630.917969 355.03125 L 707.332031 294.53125 L 783.75 255.847656 L 860.167969 207.125 L 936.582031 147.148438 L 1013 43.683594 "/>
</g>
<g clip-path="url(#clip-3-c5c3ebe9)">
<path fill-rule="nonzero" fill="rgb(32.941177%, 69.01961%, 49.411765%)" fill-opacity="1" d="M 99.789062 547.503906 L 99.789062 539.925781 L 92.210938 539.925781 L 92.210938 547.503906 Z M 99.789062 547.503906 "/>
</g>
<path fill-rule="nonzero" fill="rgb(32.941177%, 69.01961%, 49.411765%)" fill-opacity="1" d="M 176.207031 526.007812 L 176.207031 518.429688 L 168.628906 518.429688 L 168.628906 526.007812 Z M 176.207031 526.007812 "/>
<path fill-rule="nonzero" fill="rgb(32.941177%, 69.01961%, 49.411765%)" fill-opacity="1" d="M 252.621094 500.167969 L 252.621094 492.589844 L 245.042969 492.589844 L 245.042969 500.167969 Z M 252.621094 500.167969 "/>
<path fill-rule="nonzero" fill="rgb(32.941177%, 69.01961%, 49.411765%)" fill-opacity="1" d="M 329.039062 459.496094 L 329.039062 451.917969 L 321.460938 451.917969 L 321.460938 459.496094 Z M 329.039062 459.496094 "/>
<path fill-rule="nonzero" fill="rgb(32.941177%, 69.01961%, 49.411765%)" fill-opacity="1" d="M 405.457031 430.585938 L 405.457031 423.007812 L 397.878906 423.007812 L 397.878906 430.585938 Z M 405.457031 430.585938 "/>
<path fill-rule="nonzero" fill="rgb(32.941177%, 69.01961%, 49.411765%)" fill-opacity="1" d="M 481.871094 412.398438 L 481.871094 404.824219 L 474.292969 404.824219 L 474.292969 412.398438 Z M 481.871094 412.398438 "/>
<path fill-rule="nonzero" fill="rgb(32.941177%, 69.01961%, 49.411765%)" fill-opacity="1" d="M 558.289062 387.4375 L 558.289062 379.859375 L 550.710938 379.859375 L 550.710938 387.4375 Z M 558.289062 387.4375 "/>
<path fill-rule="nonzero" fill="rgb(32.941177%, 69.01961%, 49.411765%)" fill-opacity="1" d="M 634.707031 358.816406 L 634.707031 351.242188 L 627.128906 351.242188 L 627.128906 358.816406 Z M 634.707031 358.816406 "/>
<path fill-rule="nonzero" fill="rgb(32.941177%, 69.01961%, 49.411765%)" fill-opacity="1" d="M 711.121094 298.320312 L 711.121094 290.742188 L 703.542969 290.742188 L 703.542969 298.320312 Z M 711.121094 298.320312 "/>
<path fill-rule="nonzero" fill="rgb(32.941177%, 69.01961%, 49.411765%)" fill-opacity="1" d="M 787.539062 259.636719 L 787.539062 252.058594 L 779.960938 252.058594 L 779.960938 259.636719 Z M 787.539062 259.636719 "/>
<path fill-rule="nonzero" fill="rgb(32.941177%, 69.01961%, 49.411765%)" fill-opacity="1" d="M 863.957031 210.914062 L 863.957031 203.335938 L 856.378906 203.335938 L 856.378906 210.914062 Z M 863.957031 210.914062 "/>
<path fill-rule="nonzero" fill="rgb(32.941177%, 69.01961%, 49.411765%)" fill-opacity="1" d="M 940.371094 150.9375 L 940.371094 143.359375 L 932.792969 143.359375 L 932.792969 150.9375 Z M 940.371094 150.9375 "/>
<g clip-path="url(#clip-4-c5c3ebe9)">
<path fill-rule="nonzero" fill="rgb(32.941177%, 69.01961%, 49.411765%)" fill-opacity="1" d="M 1016.789062 47.46875 L 1016.789062 39.894531 L 1009.210938 39.894531 L 1009.210938 47.46875 Z M 1016.789062 47.46875 "/>
</g>
<g fill="rgb(0%, 0%, 0%)" fill-opacity="1">
<use xlink:href="#glyph-13-0-c5c3ebe9" x="1079.721138" y="390.353626"/>
</g>
<g fill="rgb(0%, 0%, 0%)" fill-opacity="1">
<use xlink:href="#glyph-13-1-c5c3ebe9" x="1079.721138" y="370.17963"/>
</g>
<g fill="rgb(0%, 0%, 0%)" fill-opacity="1">
<use xlink:href="#glyph-14-0-c5c3ebe9" x="1079.72114" y="360.411629"/>
</g>
<g fill="rgb(0%, 0%, 0%)" fill-opacity="1">
<use xlink:href="#glyph-15-0-c5c3ebe9" x="1079.72114" y="342.085632"/>
</g>
<g fill="rgb(0%, 0%, 0%)" fill-opacity="1">
<use xlink:href="#glyph-13-2-c5c3ebe9" x="1079.721141" y="331.085632"/>
</g>
<g fill="rgb(0%, 0%, 0%)" fill-opacity="1">
<use xlink:href="#glyph-13-3-c5c3ebe9" x="1079.721141" y="322.461637"/>
</g>
<g fill="rgb(0%, 0%, 0%)" fill-opacity="1">
<use xlink:href="#glyph-15-1-c5c3ebe9" x="1079.721143" y="303.512375"/>
</g>
<g fill="rgb(0%, 0%, 0%)" fill-opacity="1">
<use xlink:href="#glyph-15-2-c5c3ebe9" x="1079.721143" y="294.954377"/>
</g>
<g fill="rgb(0%, 0%, 0%)" fill-opacity="1">
<use xlink:href="#glyph-16-0-c5c3ebe9" x="1079.721143" y="274.780373"/>
</g>
<g fill="rgb(0%, 0%, 0%)" fill-opacity="1">
<use xlink:href="#glyph-13-4-c5c3ebe9" x="1079.721145" y="259.204377"/>
</g>
<g fill="rgb(0%, 0%, 0%)" fill-opacity="1">
<use xlink:href="#glyph-2-2-c5c3ebe9" x="1023.000007" y="596.696993"/>
</g>
<g fill="rgb(0%, 0%, 0%)" fill-opacity="1">
<use xlink:href="#glyph-2-9-c5c3ebe9" x="1035.232007" y="596.696993"/>
</g>
<g fill="rgb(0%, 0%, 0%)" fill-opacity="1">
<use xlink:href="#glyph-17-0-c5c3ebe9" x="1048.916007" y="587.896993"/>
</g>
<g fill="rgb(0%, 0%, 0%)" fill-opacity="1">
<use xlink:href="#glyph-2-2-c5c3ebe9" x="1023.000007" y="369.487424"/>
</g>
<g fill="rgb(0%, 0%, 0%)" fill-opacity="1">
<use xlink:href="#glyph-2-9-c5c3ebe9" x="1035.232007" y="369.487424"/>
</g>
<g fill="rgb(0%, 0%, 0%)" fill-opacity="1">
<use xlink:href="#glyph-17-1-c5c3ebe9" x="1048.916007" y="360.687424"/>
</g>
<g fill="rgb(0%, 0%, 0%)" fill-opacity="1">
<use xlink:href="#glyph-2-2-c5c3ebe9" x="1023.000007" y="142.277862"/>
</g>
<g fill="rgb(0%, 0%, 0%)" fill-opacity="1">
<use xlink:href="#glyph-2-9-c5c3ebe9" x="1035.232007" y="142.277862"/>
</g>
<g fill="rgb(0%, 0%, 0%)" fill-opacity="1">
<use xlink:href="#glyph-18-0-c5c3ebe9" x="1048.916007" y="133.477862"/>
</g>
<g clip-path="url(#clip-5-c5c3ebe9)">
<path fill="none" stroke-width="1.5" stroke-linecap="butt" stroke-linejoin="miter" stroke="rgb(100%, 54.901963%, 25.882354%)" stroke-opacity="1" stroke-dasharray="4.5 4.5" stroke-miterlimit="2" d="M 96 597.316406 L 172.417969 574.585938 L 248.832031 549.546875 L 325.25 512.796875 L 401.667969 460 L 478.082031 394.835938 L 554.5 323.160156 L 630.917969 252.539062 L 707.332031 183.5 L 783.75 117.035156 "/>
</g>
<g clip-path="url(#clip-6-c5c3ebe9)">
<path fill="none" stroke-width="1.5" stroke-linecap="butt" stroke-linejoin="miter" stroke="rgb(32.941177%, 69.01961%, 49.411765%)" stroke-opacity="1" stroke-dasharray="4.5 4.5" stroke-miterlimit="2" d="M 96 541.996094 L 172.417969 519.628906 L 248.832031 490.601562 L 325.25 452.628906 L 401.667969 420.050781 L 478.082031 393.582031 L 554.5 364.085938 L 630.917969 331.167969 L 707.332031 288.320312 L 783.75 235.265625 L 860.167969 175.179688 L 936.582031 110.554688 L 1013 43.683594 "/>
</g>
<path fill-rule="nonzero" fill="rgb(100%, 100%, 100%)" fill-opacity="1" stroke-width="1" stroke-linecap="butt" stroke-linejoin="miter" stroke="rgb(0%, 0%, 0%)" stroke-opacity="1" stroke-miterlimit="2" d="M 102 79 L 441 79 L 441 22 L 102 22 Z M 102 79 "/>
<path fill="none" stroke-width="1" stroke-linecap="butt" stroke-linejoin="miter" stroke="rgb(0%, 0%, 0%)" stroke-opacity="1" stroke-miterlimit="1.154701" d="M 96 625.5 L 96 630.5 "/>
<path fill="none" stroke-width="1" stroke-linecap="butt" stroke-linejoin="miter" stroke="rgb(0%, 0%, 0%)" stroke-opacity="1" stroke-miterlimit="1.154701" d="M 210.625 625.5 L 210.625 630.5 "/>
<path fill="none" stroke-width="1" stroke-linecap="butt" stroke-linejoin="miter" stroke="rgb(0%, 0%, 0%)" stroke-opacity="1" stroke-miterlimit="1.154701" d="M 325.25 625.5 L 325.25 630.5 "/>
<path fill="none" stroke-width="1" stroke-linecap="butt" stroke-linejoin="miter" stroke="rgb(0%, 0%, 0%)" stroke-opacity="1" stroke-miterlimit="1.154701" d="M 439.875 625.5 L 439.875 630.5 "/>
<path fill="none" stroke-width="1" stroke-linecap="butt" stroke-linejoin="miter" stroke="rgb(0%, 0%, 0%)" stroke-opacity="1" stroke-miterlimit="1.154701" d="M 554.5 625.5 L 554.5 630.5 "/>
<path fill="none" stroke-width="1" stroke-linecap="butt" stroke-linejoin="miter" stroke="rgb(0%, 0%, 0%)" stroke-opacity="1" stroke-miterlimit="1.154701" d="M 669.125 625.5 L 669.125 630.5 "/>
<path fill="none" stroke-width="1" stroke-linecap="butt" stroke-linejoin="miter" stroke="rgb(0%, 0%, 0%)" stroke-opacity="1" stroke-miterlimit="1.154701" d="M 783.75 625.5 L 783.75 630.5 "/>
<path fill="none" stroke-width="1" stroke-linecap="butt" stroke-linejoin="miter" stroke="rgb(0%, 0%, 0%)" stroke-opacity="1" stroke-miterlimit="1.154701" d="M 898.375 625.5 L 898.375 630.5 "/>
<path fill="none" stroke-width="1" stroke-linecap="butt" stroke-linejoin="miter" stroke="rgb(0%, 0%, 0%)" stroke-opacity="1" stroke-miterlimit="1.154701" d="M 1013 625.5 L 1013 630.5 "/>
<path fill="none" stroke-width="1" stroke-linecap="butt" stroke-linejoin="miter" stroke="rgb(0%, 0%, 0%)" stroke-opacity="1" stroke-miterlimit="1.154701" d="M 95.5 549.113281 L 90.5 549.113281 "/>
<path fill="none" stroke-width="1" stroke-linecap="butt" stroke-linejoin="miter" stroke="rgb(0%, 0%, 0%)" stroke-opacity="1" stroke-miterlimit="1.154701" d="M 95.5 434.742188 L 90.5 434.742188 "/>
<path fill="none" stroke-width="1" stroke-linecap="butt" stroke-linejoin="miter" stroke="rgb(0%, 0%, 0%)" stroke-opacity="1" stroke-miterlimit="1.154701" d="M 95.5 320.367188 L 90.5 320.367188 "/>
<path fill="none" stroke-width="1" stroke-linecap="butt" stroke-linejoin="miter" stroke="rgb(0%, 0%, 0%)" stroke-opacity="1" stroke-miterlimit="1.154701" d="M 95.5 205.996094 L 90.5 205.996094 "/>
<path fill="none" stroke-width="1" stroke-linecap="butt" stroke-linejoin="miter" stroke="rgb(0%, 0%, 0%)" stroke-opacity="1" stroke-miterlimit="1.154701" d="M 95.5 91.625 L 90.5 91.625 "/>
<path fill="none" stroke-width="1" stroke-linecap="butt" stroke-linejoin="miter" stroke="rgb(0%, 0%, 0%)" stroke-opacity="1" stroke-miterlimit="1.154701" d="M 1013.5 587.820312 L 1018.5 587.820312 "/>
<path fill="none" stroke-width="1" stroke-linecap="butt" stroke-linejoin="miter" stroke="rgb(0%, 0%, 0%)" stroke-opacity="1" stroke-miterlimit="1.154701" d="M 1013.5 360.609375 L 1018.5 360.609375 "/>
<path fill="none" stroke-width="1" stroke-linecap="butt" stroke-linejoin="miter" stroke="rgb(0%, 0%, 0%)" stroke-opacity="1" stroke-miterlimit="1.154701" d="M 1013.5 133.402344 L 1018.5 133.402344 "/>
<path fill="none" stroke-width="2" stroke-linecap="butt" stroke-linejoin="miter" stroke="rgb(100%, 54.901963%, 25.882354%)" stroke-opacity="1" stroke-miterlimit="2" d="M 108.003906 38.515625 L 126.003906 38.515625 "/>
<path fill-rule="nonzero" fill="rgb(100%, 54.901963%, 25.882354%)" fill-opacity="1" d="M 121.230469 38.515625 C 121.230469 32.875 112.773438 32.875 112.773438 38.515625 C 112.773438 44.15625 121.230469 44.15625 121.230469 38.515625 Z M 121.230469 38.515625 "/>
<path fill="none" stroke-width="1.5" stroke-linecap="butt" stroke-linejoin="miter" stroke="rgb(100%, 54.901963%, 25.882354%)" stroke-opacity="1" stroke-dasharray="4.5 4.5" stroke-miterlimit="2" d="M 264.003906 38.515625 L 282.003906 38.515625 "/>
<path fill="none" stroke-width="2" stroke-linecap="butt" stroke-linejoin="miter" stroke="rgb(32.941177%, 69.01961%, 49.411765%)" stroke-opacity="1" stroke-miterlimit="2" d="M 108.003906 62.484375 L 126.003906 62.484375 "/>
<path fill-rule="nonzero" fill="rgb(32.941177%, 69.01961%, 49.411765%)" fill-opacity="1" d="M 120.789062 66.273438 L 120.789062 58.695312 L 113.214844 58.695312 L 113.214844 66.273438 Z M 120.789062 66.273438 "/>
<path fill="none" stroke-width="1.5" stroke-linecap="butt" stroke-linejoin="miter" stroke="rgb(32.941177%, 69.01961%, 49.411765%)" stroke-opacity="1" stroke-dasharray="4.5 4.5" stroke-miterlimit="2" d="M 264.003906 62.484375 L 282.003906 62.484375 "/>
<g fill="rgb(0%, 0%, 0%)" fill-opacity="1">
<use xlink:href="#glyph-19-0-c5c3ebe9" x="131.001985" y="45.075961"/>
</g>
<g fill="rgb(0%, 0%, 0%)" fill-opacity="1">
<use xlink:href="#glyph-19-0-c5c3ebe9" x="141.999986" y="45.075961"/>
</g>
<g fill="rgb(0%, 0%, 0%)" fill-opacity="1">
<use xlink:href="#glyph-19-1-c5c3ebe9" x="152.997985" y="45.075961"/>
</g>
<g fill="rgb(0%, 0%, 0%)" fill-opacity="1">
<use xlink:href="#glyph-19-2-c5c3ebe9" x="158.991984" y="45.075961"/>
</g>
<g fill="rgb(0%, 0%, 0%)" fill-opacity="1">
<use xlink:href="#glyph-19-3-c5c3ebe9" x="170.997983" y="45.075961"/>
</g>
<g fill="rgb(0%, 0%, 0%)" fill-opacity="1">
<use xlink:href="#glyph-19-4-c5c3ebe9" x="183.003984" y="45.075961"/>
</g>
<g fill="rgb(0%, 0%, 0%)" fill-opacity="1">
<use xlink:href="#glyph-19-5-c5c3ebe9" x="201.003984" y="45.075961"/>
</g>
<g fill="rgb(0%, 0%, 0%)" fill-opacity="1">
<use xlink:href="#glyph-19-6-c5c3ebe9" x="206.007982" y="45.075961"/>
</g>
<g fill="rgb(0%, 0%, 0%)" fill-opacity="1">
<use xlink:href="#glyph-19-7-c5c3ebe9" x="210.003984" y="45.075961"/>
</g>
<g fill="rgb(0%, 0%, 0%)" fill-opacity="1">
<use xlink:href="#glyph-19-8-c5c3ebe9" x="224.997987" y="45.075961"/>
</g>
<g fill="rgb(0%, 0%, 0%)" fill-opacity="1">
<use xlink:href="#glyph-19-0-c5c3ebe9" x="287.001986" y="45.075961"/>
</g>
<g fill="rgb(0%, 0%, 0%)" fill-opacity="1">
<use xlink:href="#glyph-19-0-c5c3ebe9" x="297.999987" y="45.075961"/>
</g>
<g fill="rgb(0%, 0%, 0%)" fill-opacity="1">
<use xlink:href="#glyph-19-1-c5c3ebe9" x="308.997988" y="45.075961"/>
</g>
<g fill="rgb(0%, 0%, 0%)" fill-opacity="1">
<use xlink:href="#glyph-19-2-c5c3ebe9" x="314.991984" y="45.075961"/>
</g>
<g fill="rgb(0%, 0%, 0%)" fill-opacity="1">
<use xlink:href="#glyph-19-3-c5c3ebe9" x="326.997984" y="45.075961"/>
</g>
<g fill="rgb(0%, 0%, 0%)" fill-opacity="1">
<use xlink:href="#glyph-19-4-c5c3ebe9" x="339.003985" y="45.075961"/>
</g>
<g fill="rgb(0%, 0%, 0%)" fill-opacity="1">
<use xlink:href="#glyph-19-7-c5c3ebe9" x="357.003985" y="45.075961"/>
</g>
<g fill="rgb(0%, 0%, 0%)" fill-opacity="1">
<use xlink:href="#glyph-19-8-c5c3ebe9" x="371.997988" y="45.075961"/>
</g>
<g fill="rgb(0%, 0%, 0%)" fill-opacity="1">
<use xlink:href="#glyph-19-7-c5c3ebe9" x="382.005984" y="45.075961"/>
</g>
<g fill="rgb(0%, 0%, 0%)" fill-opacity="1">
<use xlink:href="#glyph-19-9-c5c3ebe9" x="396.999987" y="45.075961"/>
</g>
<g fill="rgb(0%, 0%, 0%)" fill-opacity="1">
<use xlink:href="#glyph-19-10-c5c3ebe9" x="407.007983" y="45.075961"/>
</g>
<g fill="rgb(0%, 0%, 0%)" fill-opacity="1">
<use xlink:href="#glyph-19-11-c5c3ebe9" x="413.001986" y="45.075961"/>
</g>
<g fill="rgb(0%, 0%, 0%)" fill-opacity="1">
<use xlink:href="#glyph-19-0-c5c3ebe9" x="131.001985" y="69.045932"/>
</g>
<g fill="rgb(0%, 0%, 0%)" fill-opacity="1">
<use xlink:href="#glyph-19-0-c5c3ebe9" x="141.999986" y="69.045932"/>
</g>
<g fill="rgb(0%, 0%, 0%)" fill-opacity="1">
<use xlink:href="#glyph-19-1-c5c3ebe9" x="152.997987" y="69.045932"/>
</g>
<g fill="rgb(0%, 0%, 0%)" fill-opacity="1">
<use xlink:href="#glyph-19-12-c5c3ebe9" x="158.991984" y="69.045932"/>
</g>
<g fill="rgb(0%, 0%, 0%)" fill-opacity="1">
<use xlink:href="#glyph-19-2-c5c3ebe9" x="171.987985" y="69.045932"/>
</g>
<g fill="rgb(0%, 0%, 0%)" fill-opacity="1">
<use xlink:href="#glyph-19-3-c5c3ebe9" x="183.993985" y="69.045932"/>
</g>
<g fill="rgb(0%, 0%, 0%)" fill-opacity="1">
<use xlink:href="#glyph-19-4-c5c3ebe9" x="195.999986" y="69.045932"/>
</g>
<g fill="rgb(0%, 0%, 0%)" fill-opacity="1">
<use xlink:href="#glyph-19-13-c5c3ebe9" x="208.995988" y="69.045932"/>
</g>
<g fill="rgb(0%, 0%, 0%)" fill-opacity="1">
<use xlink:href="#glyph-19-5-c5c3ebe9" x="213.999986" y="69.045932"/>
</g>
<g fill="rgb(0%, 0%, 0%)" fill-opacity="1">
<use xlink:href="#glyph-19-6-c5c3ebe9" x="219.003984" y="69.045932"/>
</g>
<g fill="rgb(0%, 0%, 0%)" fill-opacity="1">
<use xlink:href="#glyph-19-7-c5c3ebe9" x="222.999986" y="69.045932"/>
</g>
<g fill="rgb(0%, 0%, 0%)" fill-opacity="1">
<use xlink:href="#glyph-19-8-c5c3ebe9" x="237.99399" y="69.045932"/>
</g>
<g fill="rgb(0%, 0%, 0%)" fill-opacity="1">
<use xlink:href="#glyph-19-0-c5c3ebe9" x="287.002001" y="69.045932"/>
</g>
<g fill="rgb(0%, 0%, 0%)" fill-opacity="1">
<use xlink:href="#glyph-19-0-c5c3ebe9" x="298.000002" y="69.045932"/>
</g>
<g fill="rgb(0%, 0%, 0%)" fill-opacity="1">
<use xlink:href="#glyph-19-1-c5c3ebe9" x="308.998003" y="69.045932"/>
</g>
<g fill="rgb(0%, 0%, 0%)" fill-opacity="1">
<use xlink:href="#glyph-19-12-c5c3ebe9" x="314.991999" y="69.045932"/>
</g>
<g fill="rgb(0%, 0%, 0%)" fill-opacity="1">
<use xlink:href="#glyph-19-2-c5c3ebe9" x="327.988001" y="69.045932"/>
</g>
<g fill="rgb(0%, 0%, 0%)" fill-opacity="1">
<use xlink:href="#glyph-19-3-c5c3ebe9" x="339.994002" y="69.045932"/>
</g>
<g fill="rgb(0%, 0%, 0%)" fill-opacity="1">
<use xlink:href="#glyph-19-4-c5c3ebe9" x="352.000002" y="69.045932"/>
</g>
<g fill="rgb(0%, 0%, 0%)" fill-opacity="1">
<use xlink:href="#glyph-19-13-c5c3ebe9" x="364.996005" y="69.045932"/>
</g>
<g fill="rgb(0%, 0%, 0%)" fill-opacity="1">
<use xlink:href="#glyph-19-7-c5c3ebe9" x="370.000002" y="69.045932"/>
</g>
<g fill="rgb(0%, 0%, 0%)" fill-opacity="1">
<use xlink:href="#glyph-19-8-c5c3ebe9" x="384.994006" y="69.045932"/>
</g>
<g fill="rgb(0%, 0%, 0%)" fill-opacity="1">
<use xlink:href="#glyph-19-7-c5c3ebe9" x="395.002002" y="69.045932"/>
</g>
<g fill="rgb(0%, 0%, 0%)" fill-opacity="1">
<use xlink:href="#glyph-19-9-c5c3ebe9" x="409.996005" y="69.045932"/>
</g>
<g fill="rgb(0%, 0%, 0%)" fill-opacity="1">
<use xlink:href="#glyph-19-10-c5c3ebe9" x="420.004001" y="69.045932"/>
</g>
<g fill="rgb(0%, 0%, 0%)" fill-opacity="1">
<use xlink:href="#glyph-19-11-c5c3ebe9" x="425.998004" y="69.045932"/>
</g>
<path fill="none" stroke-width="1" stroke-linecap="butt" stroke-linejoin="miter" stroke="rgb(0%, 0%, 0%)" stroke-opacity="1" stroke-miterlimit="1.154701" d="M 95.5 625 L 1013.5 625 "/>
<path fill="none" stroke-width="1" stroke-linecap="butt" stroke-linejoin="miter" stroke="rgb(0%, 0%, 0%)" stroke-opacity="1" stroke-miterlimit="1.154701" d="M 96 625.5 L 96 15.5 "/>
<path fill="none" stroke-width="1" stroke-linecap="butt" stroke-linejoin="miter" stroke="rgb(0%, 0%, 0%)" stroke-opacity="1" stroke-miterlimit="1.154701" d="M 95.5 16 L 1013.5 16 "/>
<path fill="none" stroke-width="1" stroke-linecap="butt" stroke-linejoin="miter" stroke="rgb(0%, 0%, 0%)" stroke-opacity="1" stroke-miterlimit="1.154701" d="M 1013 625.5 L 1013 15.5 "/>
<path fill="none" stroke-width="1" stroke-linecap="butt" stroke-linejoin="miter" stroke="rgb(0%, 0%, 0%)" stroke-opacity="1" stroke-miterlimit="1.154701" d="M 95.5 625 L 1013.5 625 "/>
<path fill="none" stroke-width="1" stroke-linecap="butt" stroke-linejoin="miter" stroke="rgb(0%, 0%, 0%)" stroke-opacity="1" stroke-miterlimit="1.154701" d="M 1013 625.5 L 1013 15.5 "/>
<path fill="none" stroke-width="1" stroke-linecap="butt" stroke-linejoin="miter" stroke="rgb(0%, 0%, 0%)" stroke-opacity="1" stroke-miterlimit="1.154701" d="M 95.5 16 L 1013.5 16 "/>
<path fill="none" stroke-width="1" stroke-linecap="butt" stroke-linejoin="miter" stroke="rgb(0%, 0%, 0%)" stroke-opacity="1" stroke-miterlimit="1.154701" d="M 96 625.5 L 96 15.5 "/>
</svg>
