<?xml version="1.0" encoding="utf-8"?>
<svg xmlns="http://www.w3.org/2000/svg" xmlns:xlink="http://www.w3.org/1999/xlink" width="760" height="420" viewBox="0 0 3040 1680">
<defs>
  <clipPath id="clip110">
    <rect x="0" y="0" width="3040" height="1680"/>
  </clipPath>
</defs>
<path clip-path="url(#clip110)" d="M0 1680 L3040 1680 L3040 0 L0 0  Z" fill="#ffffff" fill-rule="evenodd" fill-opacity="1"/>
<defs>
  <clipPath id="clip111">
    <rect x="172" y="113" width="2501" height="1404"/>
  </clipPath>
</defs>
<path clip-path="url(#clip110)" d="M277.975 1516.42 L2643.08 1516.42 L2643.08 113.127 L277.975 113.127  Z" fill="#ffffff" fill-rule="evenodd" fill-opacity="1"/>
<defs>
  <clipPath id="clip112">
    <rect x="277" y="113" width="2366" height="1404"/>
  </clipPath>
</defs>
<polyline clip-path="url(#clip112)" style="stroke:#000000; stroke-linecap:round; stroke-linejoin:round; stroke-width:2; stroke-opacity:0.1; fill:none" points="344.912,1516.42 344.912,113.127 "/>
<polyline clip-path="url(#clip112)" style="stroke:#000000; stroke-linecap:round; stroke-linejoin:round; stroke-width:2; stroke-opacity:0.1; fill:none" points="893.936,1516.42 893.936,113.127 "/>
<polyline clip-path="url(#clip112)" style="stroke:#000000; stroke-linecap:round; stroke-linejoin:round; stroke-width:2; stroke-opacity:0.1; fill:none" points="1442.96,1516.42 1442.96,113.127 "/>
<polyline clip-path="url(#clip112)" style="stroke:#000000; stroke-linecap:round; stroke-linejoin:round; stroke-width:2; stroke-opacity:0.1; fill:none" points="1991.98,1516.42 1991.98,113.127 "/>
<polyline clip-path="url(#clip112)" style="stroke:#000000; stroke-linecap:round; stroke-linejoin:round; stroke-width:2; stroke-opacity:0.1; fill:none" points="2541.01,1516.42 2541.01,113.127 "/>
<polyline clip-path="url(#clip110)" style="stroke:#000000; stroke-linecap:round; stroke-linejoin:round; stroke-width:4; stroke-opacity:1; fill:none" points="277.975,1516.42 2643.08,1516.42 "/>
<polyline clip-path="url(#clip110)" style="stroke:#000000; stroke-linecap:round; stroke-linejoin:round; stroke-width:4; stroke-opacity:1; fill:none" points="344.912,1516.42 344.912,1497.52 "/>
<polyline clip-path="url(#clip110)" style="stroke:#000000; stroke-linecap:round; stroke-linejoin:round; stroke-width:4; stroke-opacity:1; fill:none" points="893.936,1516.42 893.936,1497.52 "/>
<polyline clip-path="url(#clip110)" style="stroke:#000000; stroke-linecap:round; stroke-linejoin:round; stroke-width:4; stroke-opacity:1; fill:none" points="1442.96,1516.42 1442.96,1497.52 "/>
<polyline clip-path="url(#clip110)" style="stroke:#000000; stroke-linecap:round; stroke-linejoin:round; stroke-width:4; stroke-opacity:1; fill:none" points="1991.98,1516.42 1991.98,1497.52 "/>
<polyline clip-path="url(#clip110)" style="stroke:#000000; stroke-linecap:round; stroke-linejoin:round; stroke-width:4; stroke-opacity:1; fill:none" points="2541.01,1516.42 2541.01,1497.52 "/>
<path clip-path="url(#clip110)" d="M322.297 1552.46 Q318.686 1552.46 316.857 1556.02 Q315.051 1559.56 315.051 1566.69 Q315.051 1573.8 316.857 1577.37 Q318.686 1580.91 322.297 1580.91 Q325.931 1580.91 327.737 1577.37 Q329.565 1573.8 329.565 1566.69 Q329.565 1559.56 327.737 1556.02 Q325.931 1552.46 322.297 1552.46 M322.297 1548.75 Q328.107 1548.75 331.162 1553.36 Q334.241 1557.94 334.241 1566.69 Q334.241 1575.42 331.162 1580.03 Q328.107 1584.61 322.297 1584.61 Q316.487 1584.61 313.408 1580.03 Q310.352 1575.42 310.352 1566.69 Q310.352 1557.94 313.408 1553.36 Q316.487 1548.75 322.297 1548.75 Z" fill="#000000" fill-rule="nonzero" fill-opacity="1" /><path clip-path="url(#clip110)" d="M342.459 1578.06 L347.343 1578.06 L347.343 1583.94 L342.459 1583.94 L342.459 1578.06 Z" fill="#000000" fill-rule="nonzero" fill-opacity="1" /><path clip-path="url(#clip110)" d="M367.528 1552.46 Q363.917 1552.46 362.088 1556.02 Q360.283 1559.56 360.283 1566.69 Q360.283 1573.8 362.088 1577.37 Q363.917 1580.91 367.528 1580.91 Q371.162 1580.91 372.968 1577.37 Q374.797 1573.8 374.797 1566.69 Q374.797 1559.56 372.968 1556.02 Q371.162 1552.46 367.528 1552.46 M367.528 1548.75 Q373.338 1548.75 376.394 1553.36 Q379.472 1557.94 379.472 1566.69 Q379.472 1575.42 376.394 1580.03 Q373.338 1584.61 367.528 1584.61 Q361.718 1584.61 358.639 1580.03 Q355.584 1575.42 355.584 1566.69 Q355.584 1557.94 358.639 1553.36 Q361.718 1548.75 367.528 1548.75 Z" fill="#000000" fill-rule="nonzero" fill-opacity="1" /><path clip-path="url(#clip110)" d="M865.672 1580 L881.991 1580 L881.991 1583.94 L860.047 1583.94 L860.047 1580 Q862.709 1577.25 867.292 1572.62 Q871.899 1567.97 873.079 1566.63 Q875.325 1564.1 876.204 1562.37 Q877.107 1560.61 877.107 1558.92 Q877.107 1556.16 875.163 1554.43 Q873.241 1552.69 870.139 1552.69 Q867.94 1552.69 865.487 1553.45 Q863.056 1554.22 860.278 1555.77 L860.278 1551.05 Q863.102 1549.91 865.556 1549.33 Q868.01 1548.75 870.047 1548.75 Q875.417 1548.75 878.612 1551.44 Q881.806 1554.13 881.806 1558.62 Q881.806 1560.75 880.996 1562.67 Q880.209 1564.56 878.102 1567.16 Q877.524 1567.83 874.422 1571.05 Q871.32 1574.24 865.672 1580 Z" fill="#000000" fill-rule="nonzero" fill-opacity="1" /><path clip-path="url(#clip110)" d="M891.806 1578.06 L896.69 1578.06 L896.69 1583.94 L891.806 1583.94 L891.806 1578.06 Z" fill="#000000" fill-rule="nonzero" fill-opacity="1" /><path clip-path="url(#clip110)" d="M906.922 1549.38 L925.278 1549.38 L925.278 1553.32 L911.204 1553.32 L911.204 1561.79 Q912.223 1561.44 913.241 1561.28 Q914.26 1561.09 915.278 1561.09 Q921.065 1561.09 924.445 1564.26 Q927.824 1567.44 927.824 1572.85 Q927.824 1578.43 924.352 1581.53 Q920.88 1584.61 914.561 1584.61 Q912.385 1584.61 910.116 1584.24 Q907.871 1583.87 905.463 1583.13 L905.463 1578.43 Q907.547 1579.56 909.769 1580.12 Q911.991 1580.68 914.468 1580.68 Q918.473 1580.68 920.811 1578.57 Q923.148 1576.46 923.148 1572.85 Q923.148 1569.24 920.811 1567.13 Q918.473 1565.03 914.468 1565.03 Q912.593 1565.03 910.718 1565.44 Q908.866 1565.86 906.922 1566.74 L906.922 1549.38 Z" fill="#000000" fill-rule="nonzero" fill-opacity="1" /><path clip-path="url(#clip110)" d="M1410.12 1549.38 L1428.48 1549.38 L1428.48 1553.32 L1414.41 1553.32 L1414.41 1561.79 Q1415.42 1561.44 1416.44 1561.28 Q1417.46 1561.09 1418.48 1561.09 Q1424.27 1561.09 1427.65 1564.26 Q1431.03 1567.44 1431.03 1572.85 Q1431.03 1578.43 1427.55 1581.53 Q1424.08 1584.61 1417.76 1584.61 Q1415.59 1584.61 1413.32 1584.24 Q1411.07 1583.87 1408.67 1583.13 L1408.67 1578.43 Q1410.75 1579.56 1412.97 1580.12 Q1415.19 1580.68 1417.67 1580.68 Q1421.67 1580.68 1424.01 1578.57 Q1426.35 1576.46 1426.35 1572.85 Q1426.35 1569.24 1424.01 1567.13 Q1421.67 1565.03 1417.67 1565.03 Q1415.79 1565.03 1413.92 1565.44 Q1412.07 1565.86 1410.12 1566.74 L1410.12 1549.38 Z" fill="#000000" fill-rule="nonzero" fill-opacity="1" /><path clip-path="url(#clip110)" d="M1440.24 1578.06 L1445.12 1578.06 L1445.12 1583.94 L1440.24 1583.94 L1440.24 1578.06 Z" fill="#000000" fill-rule="nonzero" fill-opacity="1" /><path clip-path="url(#clip110)" d="M1465.31 1552.46 Q1461.7 1552.46 1459.87 1556.02 Q1458.06 1559.56 1458.06 1566.69 Q1458.06 1573.8 1459.87 1577.37 Q1461.7 1580.91 1465.31 1580.91 Q1468.94 1580.91 1470.75 1577.37 Q1472.58 1573.8 1472.58 1566.69 Q1472.58 1559.56 1470.75 1556.02 Q1468.94 1552.46 1465.31 1552.46 M1465.31 1548.75 Q1471.12 1548.75 1474.17 1553.36 Q1477.25 1557.94 1477.25 1566.69 Q1477.25 1575.42 1474.17 1580.03 Q1471.12 1584.61 1465.31 1584.61 Q1459.5 1584.61 1456.42 1580.03 Q1453.36 1575.42 1453.36 1566.69 Q1453.36 1557.94 1456.42 1553.36 Q1459.5 1548.75 1465.31 1548.75 Z" fill="#000000" fill-rule="nonzero" fill-opacity="1" /><path clip-path="url(#clip110)" d="M1958.3 1549.38 L1980.52 1549.38 L1980.52 1551.37 L1967.98 1583.94 L1963.09 1583.94 L1974.9 1553.32 L1958.3 1553.32 L1958.3 1549.38 Z" fill="#000000" fill-rule="nonzero" fill-opacity="1" /><path clip-path="url(#clip110)" d="M1989.64 1578.06 L1994.53 1578.06 L1994.53 1583.94 L1989.64 1583.94 L1989.64 1578.06 Z" fill="#000000" fill-rule="nonzero" fill-opacity="1" /><path clip-path="url(#clip110)" d="M2004.76 1549.38 L2023.12 1549.38 L2023.12 1553.32 L2009.04 1553.32 L2009.04 1561.79 Q2010.06 1561.44 2011.08 1561.28 Q2012.1 1561.09 2013.12 1561.09 Q2018.9 1561.09 2022.28 1564.26 Q2025.66 1567.44 2025.66 1572.85 Q2025.66 1578.43 2022.19 1581.53 Q2018.72 1584.61 2012.4 1584.61 Q2010.22 1584.61 2007.95 1584.24 Q2005.71 1583.87 2003.3 1583.13 L2003.3 1578.43 Q2005.38 1579.56 2007.61 1580.12 Q2009.83 1580.68 2012.31 1580.68 Q2016.31 1580.68 2018.65 1578.57 Q2020.99 1576.46 2020.99 1572.85 Q2020.99 1569.24 2018.65 1567.13 Q2016.31 1565.03 2012.31 1565.03 Q2010.43 1565.03 2008.56 1565.44 Q2006.7 1565.86 2004.76 1566.74 L2004.76 1549.38 Z" fill="#000000" fill-rule="nonzero" fill-opacity="1" /><path clip-path="url(#clip110)" d="M2493.08 1580 L2500.72 1580 L2500.72 1553.64 L2492.41 1555.31 L2492.41 1551.05 L2500.67 1549.38 L2505.35 1549.38 L2505.35 1580 L2512.98 1580 L2512.98 1583.94 L2493.08 1583.94 L2493.08 1580 Z" fill="#000000" fill-rule="nonzero" fill-opacity="1" /><path clip-path="url(#clip110)" d="M2532.43 1552.46 Q2528.82 1552.46 2526.99 1556.02 Q2525.18 1559.56 2525.18 1566.69 Q2525.18 1573.8 2526.99 1577.37 Q2528.82 1580.91 2532.43 1580.91 Q2536.06 1580.91 2537.87 1577.37 Q2539.7 1573.8 2539.7 1566.69 Q2539.7 1559.56 2537.87 1556.02 Q2536.06 1552.46 2532.43 1552.46 M2532.43 1548.75 Q2538.24 1548.75 2541.29 1553.36 Q2544.37 1557.94 2544.37 1566.69 Q2544.37 1575.42 2541.29 1580.03 Q2538.24 1584.61 2532.43 1584.61 Q2526.62 1584.61 2523.54 1580.03 Q2520.48 1575.42 2520.48 1566.69 Q2520.48 1557.94 2523.54 1553.36 Q2526.62 1548.75 2532.43 1548.75 Z" fill="#000000" fill-rule="nonzero" fill-opacity="1" /><path clip-path="url(#clip110)" d="M2552.59 1578.06 L2557.48 1578.06 L2557.48 1583.94 L2552.59 1583.94 L2552.59 1578.06 Z" fill="#000000" fill-rule="nonzero" fill-opacity="1" /><path clip-path="url(#clip110)" d="M2577.66 1552.46 Q2574.05 1552.46 2572.22 1556.02 Q2570.41 1559.56 2570.41 1566.69 Q2570.41 1573.8 2572.22 1577.37 Q2574.05 1580.91 2577.66 1580.91 Q2581.29 1580.91 2583.1 1577.37 Q2584.93 1573.8 2584.93 1566.69 Q2584.93 1559.56 2583.1 1556.02 Q2581.29 1552.46 2577.66 1552.46 M2577.66 1548.75 Q2583.47 1548.75 2586.53 1553.36 Q2589.6 1557.94 2589.6 1566.69 Q2589.6 1575.42 2586.53 1580.03 Q2583.47 1584.61 2577.66 1584.61 Q2571.85 1584.61 2568.77 1580.03 Q2565.72 1575.42 2565.72 1566.69 Q2565.72 1557.94 2568.77 1553.36 Q2571.85 1548.75 2577.66 1548.75 Z" fill="#000000" fill-rule="nonzero" fill-opacity="1" /><path clip-path="url(#clip110)" d="M1469.5 1632.96 Q1469.5 1634.76 1468.6 1635.73 Q1467.7 1636.66 1466.48 1636.66 Q1465.48 1636.66 1464.93 1636.08 Q1464.41 1635.5 1464.41 1634.73 Q1464.41 1633.6 1465.32 1632.7 Q1466.25 1631.8 1467.6 1631.76 Q1467.15 1630.57 1465.96 1629.86 Q1464.77 1629.12 1463.71 1628.93 Q1462.68 1628.74 1461.65 1628.74 Q1459.62 1628.74 1458.07 1629.38 Q1456.52 1630.03 1455.75 1631.02 Q1454.98 1631.99 1454.62 1632.92 Q1454.27 1633.86 1454.27 1634.66 Q1454.27 1635.37 1454.43 1635.95 Q1454.62 1636.5 1455.08 1636.92 Q1455.53 1637.3 1455.85 1637.56 Q1456.2 1637.82 1456.98 1638.04 Q1457.75 1638.27 1458.07 1638.37 Q1458.39 1638.43 1459.29 1638.62 Q1461.16 1639.01 1462 1639.24 Q1462.84 1639.43 1463.93 1639.98 Q1465.06 1640.52 1465.9 1641.39 Q1467.93 1643.42 1467.93 1646.22 Q1467.93 1647.26 1467.57 1648.51 Q1467.25 1649.77 1466.31 1651.35 Q1465.38 1652.92 1463.96 1654.18 Q1462.55 1655.44 1460.1 1656.3 Q1457.68 1657.17 1454.66 1657.17 Q1450.44 1657.17 1447.83 1655.4 Q1445.22 1653.6 1445.22 1650.77 Q1445.22 1648.7 1446.35 1647.58 Q1447.47 1646.42 1448.92 1646.42 Q1450.02 1646.42 1450.7 1647.03 Q1451.37 1647.61 1451.37 1648.7 Q1451.37 1650.19 1450.18 1651.31 Q1448.99 1652.44 1447.22 1652.21 Q1448.73 1655.69 1454.72 1655.69 Q1456.98 1655.69 1458.71 1655.11 Q1460.49 1654.5 1461.45 1653.66 Q1462.45 1652.79 1463.09 1651.73 Q1463.74 1650.67 1463.93 1649.86 Q1464.16 1649.06 1464.16 1648.45 Q1464.16 1647.38 1463.74 1646.58 Q1463.32 1645.77 1462.74 1645.32 Q1462.19 1644.84 1461.13 1644.45 Q1460.1 1644.03 1459.36 1643.87 Q1458.62 1643.71 1457.3 1643.45 Q1456.69 1643.33 1456.3 1643.26 Q1455.91 1643.17 1455.11 1642.91 Q1454.33 1642.62 1453.79 1642.33 Q1453.27 1642.04 1452.6 1641.52 Q1451.92 1641.01 1451.5 1640.4 Q1451.08 1639.78 1450.79 1638.88 Q1450.5 1637.98 1450.5 1636.92 Q1450.5 1635.95 1450.79 1634.79 Q1451.11 1633.63 1451.92 1632.28 Q1452.76 1630.93 1453.95 1629.83 Q1455.14 1628.74 1457.14 1628.03 Q1459.17 1627.29 1461.65 1627.29 Q1465.25 1627.29 1467.38 1628.96 Q1469.5 1630.6 1469.5 1632.96 Z" fill="#000000" fill-rule="nonzero" fill-opacity="1" /><polyline clip-path="url(#clip110)" style="stroke:#000000; stroke-linecap:round; stroke-linejoin:round; stroke-width:4; stroke-opacity:1; fill:none" points="277.975,1516.42 277.975,113.127 "/>
<polyline clip-path="url(#clip110)" style="stroke:#000000; stroke-linecap:round; stroke-linejoin:round; stroke-width:4; stroke-opacity:1; fill:none" points="277.975,1388.73 296.873,1388.73 "/>
<polyline clip-path="url(#clip110)" style="stroke:#000000; stroke-linecap:round; stroke-linejoin:round; stroke-width:4; stroke-opacity:1; fill:none" points="277.975,1125.31 296.873,1125.31 "/>
<polyline clip-path="url(#clip110)" style="stroke:#000000; stroke-linecap:round; stroke-linejoin:round; stroke-width:4; stroke-opacity:1; fill:none" points="277.975,861.888 296.873,861.888 "/>
<polyline clip-path="url(#clip110)" style="stroke:#000000; stroke-linecap:round; stroke-linejoin:round; stroke-width:4; stroke-opacity:1; fill:none" points="277.975,598.47 296.873,598.47 "/>
<polyline clip-path="url(#clip110)" style="stroke:#000000; stroke-linecap:round; stroke-linejoin:round; stroke-width:4; stroke-opacity:1; fill:none" points="277.975,335.051 296.873,335.051 "/>
<path clip-path="url(#clip110)" d="M115.871 1374.52 Q112.26 1374.52 110.432 1378.09 Q108.626 1381.63 108.626 1388.76 Q108.626 1395.87 110.432 1399.43 Q112.26 1402.97 115.871 1402.97 Q119.506 1402.97 121.311 1399.43 Q123.14 1395.87 123.14 1388.76 Q123.14 1381.63 121.311 1378.09 Q119.506 1374.52 115.871 1374.52 M115.871 1370.82 Q121.682 1370.82 124.737 1375.43 Q127.816 1380.01 127.816 1388.76 Q127.816 1397.49 124.737 1402.09 Q121.682 1406.68 115.871 1406.68 Q110.061 1406.68 106.983 1402.09 Q103.927 1397.49 103.927 1388.76 Q103.927 1380.01 106.983 1375.43 Q110.061 1370.82 115.871 1370.82 Z" fill="#000000" fill-rule="nonzero" fill-opacity="1" /><path clip-path="url(#clip110)" d="M136.033 1400.13 L140.918 1400.13 L140.918 1406.01 L136.033 1406.01 L136.033 1400.13 Z" fill="#000000" fill-rule="nonzero" fill-opacity="1" /><path clip-path="url(#clip110)" d="M161.103 1374.52 Q157.492 1374.52 155.663 1378.09 Q153.857 1381.63 153.857 1388.76 Q153.857 1395.87 155.663 1399.43 Q157.492 1402.97 161.103 1402.97 Q164.737 1402.97 166.543 1399.43 Q168.371 1395.87 168.371 1388.76 Q168.371 1381.63 166.543 1378.09 Q164.737 1374.52 161.103 1374.52 M161.103 1370.82 Q166.913 1370.82 169.968 1375.43 Q173.047 1380.01 173.047 1388.76 Q173.047 1397.49 169.968 1402.09 Q166.913 1406.68 161.103 1406.68 Q155.293 1406.68 152.214 1402.09 Q149.158 1397.49 149.158 1388.76 Q149.158 1380.01 152.214 1375.43 Q155.293 1370.82 161.103 1370.82 Z" fill="#000000" fill-rule="nonzero" fill-opacity="1" /><path clip-path="url(#clip110)" d="M180.084 1371.45 L202.306 1371.45 L202.306 1373.44 L189.76 1406.01 L184.876 1406.01 L196.681 1375.38 L180.084 1375.38 L180.084 1371.45 Z" fill="#000000" fill-rule="nonzero" fill-opacity="1" /><path clip-path="url(#clip110)" d="M211.473 1371.45 L229.829 1371.45 L229.829 1375.38 L215.755 1375.38 L215.755 1383.85 Q216.774 1383.51 217.792 1383.34 Q218.811 1383.16 219.829 1383.16 Q225.616 1383.16 228.996 1386.33 Q232.375 1389.5 232.375 1394.92 Q232.375 1400.5 228.903 1403.6 Q225.431 1406.68 219.112 1406.68 Q216.936 1406.68 214.667 1406.31 Q212.422 1405.94 210.014 1405.2 L210.014 1400.5 Q212.098 1401.63 214.32 1402.19 Q216.542 1402.74 219.019 1402.74 Q223.024 1402.74 225.362 1400.63 Q227.7 1398.53 227.7 1394.92 Q227.7 1391.31 225.362 1389.2 Q223.024 1387.09 219.019 1387.09 Q217.144 1387.09 215.269 1387.51 Q213.417 1387.93 211.473 1388.81 L211.473 1371.45 Z" fill="#000000" fill-rule="nonzero" fill-opacity="1" /><path clip-path="url(#clip110)" d="M114.876 1111.11 Q111.265 1111.11 109.436 1114.67 Q107.631 1118.21 107.631 1125.34 Q107.631 1132.45 109.436 1136.01 Q111.265 1139.55 114.876 1139.55 Q118.51 1139.55 120.316 1136.01 Q122.145 1132.45 122.145 1125.34 Q122.145 1118.21 120.316 1114.67 Q118.51 1111.11 114.876 1111.11 M114.876 1107.4 Q120.686 1107.4 123.742 1112.01 Q126.82 1116.59 126.82 1125.34 Q126.82 1134.07 123.742 1138.67 Q120.686 1143.26 114.876 1143.26 Q109.066 1143.26 105.987 1138.67 Q102.932 1134.07 102.932 1125.34 Q102.932 1116.59 105.987 1112.01 Q109.066 1107.4 114.876 1107.4 Z" fill="#000000" fill-rule="nonzero" fill-opacity="1" /><path clip-path="url(#clip110)" d="M135.038 1136.71 L139.922 1136.71 L139.922 1142.59 L135.038 1142.59 L135.038 1136.71 Z" fill="#000000" fill-rule="nonzero" fill-opacity="1" /><path clip-path="url(#clip110)" d="M150.918 1138.65 L158.556 1138.65 L158.556 1112.29 L150.246 1113.95 L150.246 1109.69 L158.51 1108.03 L163.186 1108.03 L163.186 1138.65 L170.825 1138.65 L170.825 1142.59 L150.918 1142.59 L150.918 1138.65 Z" fill="#000000" fill-rule="nonzero" fill-opacity="1" /><path clip-path="url(#clip110)" d="M190.269 1111.11 Q186.658 1111.11 184.829 1114.67 Q183.024 1118.21 183.024 1125.34 Q183.024 1132.45 184.829 1136.01 Q186.658 1139.55 190.269 1139.55 Q193.903 1139.55 195.709 1136.01 Q197.538 1132.45 197.538 1125.34 Q197.538 1118.21 195.709 1114.67 Q193.903 1111.11 190.269 1111.11 M190.269 1107.4 Q196.079 1107.4 199.135 1112.01 Q202.214 1116.59 202.214 1125.34 Q202.214 1134.07 199.135 1138.67 Q196.079 1143.26 190.269 1143.26 Q184.459 1143.26 181.38 1138.67 Q178.325 1134.07 178.325 1125.34 Q178.325 1116.59 181.38 1112.01 Q184.459 1107.4 190.269 1107.4 Z" fill="#000000" fill-rule="nonzero" fill-opacity="1" /><path clip-path="url(#clip110)" d="M220.431 1111.11 Q216.82 1111.11 214.991 1114.67 Q213.186 1118.21 213.186 1125.34 Q213.186 1132.45 214.991 1136.01 Q216.82 1139.55 220.431 1139.55 Q224.065 1139.55 225.871 1136.01 Q227.7 1132.45 227.7 1125.34 Q227.7 1118.21 225.871 1114.67 Q224.065 1111.11 220.431 1111.11 M220.431 1107.4 Q226.241 1107.4 229.297 1112.01 Q232.375 1116.59 232.375 1125.34 Q232.375 1134.07 229.297 1138.67 Q226.241 1143.26 220.431 1143.26 Q214.621 1143.26 211.542 1138.67 Q208.487 1134.07 208.487 1125.34 Q208.487 1116.59 211.542 1112.01 Q214.621 1107.4 220.431 1107.4 Z" fill="#000000" fill-rule="nonzero" fill-opacity="1" /><path clip-path="url(#clip110)" d="M115.871 847.687 Q112.26 847.687 110.432 851.252 Q108.626 854.793 108.626 861.923 Q108.626 869.029 110.432 872.594 Q112.26 876.136 115.871 876.136 Q119.506 876.136 121.311 872.594 Q123.14 869.029 123.14 861.923 Q123.14 854.793 121.311 851.252 Q119.506 847.687 115.871 847.687 M115.871 843.983 Q121.682 843.983 124.737 848.59 Q127.816 853.173 127.816 861.923 Q127.816 870.65 124.737 875.256 Q121.682 879.84 115.871 879.84 Q110.061 879.84 106.983 875.256 Q103.927 870.65 103.927 861.923 Q103.927 853.173 106.983 848.59 Q110.061 843.983 115.871 843.983 Z" fill="#000000" fill-rule="nonzero" fill-opacity="1" /><path clip-path="url(#clip110)" d="M136.033 873.289 L140.918 873.289 L140.918 879.168 L136.033 879.168 L136.033 873.289 Z" fill="#000000" fill-rule="nonzero" fill-opacity="1" /><path clip-path="url(#clip110)" d="M151.913 875.233 L159.552 875.233 L159.552 848.867 L151.242 850.534 L151.242 846.275 L159.506 844.608 L164.181 844.608 L164.181 875.233 L171.82 875.233 L171.82 879.168 L151.913 879.168 L151.913 875.233 Z" fill="#000000" fill-rule="nonzero" fill-opacity="1" /><path clip-path="url(#clip110)" d="M185.292 875.233 L201.612 875.233 L201.612 879.168 L179.667 879.168 L179.667 875.233 Q182.329 872.478 186.913 867.849 Q191.519 863.196 192.7 861.854 Q194.945 859.33 195.825 857.594 Q196.728 855.835 196.728 854.145 Q196.728 851.391 194.783 849.655 Q192.862 847.918 189.76 847.918 Q187.561 847.918 185.107 848.682 Q182.677 849.446 179.899 850.997 L179.899 846.275 Q182.723 845.141 185.177 844.562 Q187.63 843.983 189.667 843.983 Q195.038 843.983 198.232 846.668 Q201.427 849.354 201.427 853.844 Q201.427 855.974 200.616 857.895 Q199.829 859.793 197.723 862.386 Q197.144 863.057 194.042 866.275 Q190.941 869.469 185.292 875.233 Z" fill="#000000" fill-rule="nonzero" fill-opacity="1" /><path clip-path="url(#clip110)" d="M211.473 844.608 L229.829 844.608 L229.829 848.543 L215.755 848.543 L215.755 857.016 Q216.774 856.668 217.792 856.506 Q218.811 856.321 219.829 856.321 Q225.616 856.321 228.996 859.492 Q232.375 862.664 232.375 868.08 Q232.375 873.659 228.903 876.761 Q225.431 879.84 219.112 879.84 Q216.936 879.84 214.667 879.469 Q212.422 879.099 210.014 878.358 L210.014 873.659 Q212.098 874.793 214.32 875.349 Q216.542 875.904 219.019 875.904 Q223.024 875.904 225.362 873.798 Q227.7 871.691 227.7 868.08 Q227.7 864.469 225.362 862.363 Q223.024 860.256 219.019 860.256 Q217.144 860.256 215.269 860.673 Q213.417 861.09 211.473 861.969 L211.473 844.608 Z" fill="#000000" fill-rule="nonzero" fill-opacity="1" /><path clip-path="url(#clip110)" d="M114.876 584.268 Q111.265 584.268 109.436 587.833 Q107.631 591.375 107.631 598.504 Q107.631 605.611 109.436 609.176 Q111.265 612.717 114.876 612.717 Q118.51 612.717 120.316 609.176 Q122.145 605.611 122.145 598.504 Q122.145 591.375 120.316 587.833 Q118.51 584.268 114.876 584.268 M114.876 580.565 Q120.686 580.565 123.742 585.171 Q126.82 589.755 126.82 598.504 Q126.82 607.231 123.742 611.838 Q120.686 616.421 114.876 616.421 Q109.066 616.421 105.987 611.838 Q102.932 607.231 102.932 598.504 Q102.932 589.755 105.987 585.171 Q109.066 580.565 114.876 580.565 Z" fill="#000000" fill-rule="nonzero" fill-opacity="1" /><path clip-path="url(#clip110)" d="M135.038 609.87 L139.922 609.87 L139.922 615.75 L135.038 615.75 L135.038 609.87 Z" fill="#000000" fill-rule="nonzero" fill-opacity="1" /><path clip-path="url(#clip110)" d="M150.918 611.815 L158.556 611.815 L158.556 585.449 L150.246 587.116 L150.246 582.856 L158.51 581.19 L163.186 581.19 L163.186 611.815 L170.825 611.815 L170.825 615.75 L150.918 615.75 L150.918 611.815 Z" fill="#000000" fill-rule="nonzero" fill-opacity="1" /><path clip-path="url(#clip110)" d="M180.316 581.19 L198.672 581.19 L198.672 585.125 L184.598 585.125 L184.598 593.597 Q185.616 593.25 186.635 593.088 Q187.654 592.903 188.672 592.903 Q194.459 592.903 197.839 596.074 Q201.218 599.245 201.218 604.662 Q201.218 610.241 197.746 613.342 Q194.274 616.421 187.954 616.421 Q185.779 616.421 183.51 616.051 Q181.265 615.68 178.857 614.94 L178.857 610.241 Q180.941 611.375 183.163 611.93 Q185.385 612.486 187.862 612.486 Q191.866 612.486 194.204 610.379 Q196.542 608.273 196.542 604.662 Q196.542 601.051 194.204 598.944 Q191.866 596.838 187.862 596.838 Q185.987 596.838 184.112 597.254 Q182.26 597.671 180.316 598.551 L180.316 581.19 Z" fill="#000000" fill-rule="nonzero" fill-opacity="1" /><path clip-path="url(#clip110)" d="M220.431 584.268 Q216.82 584.268 214.991 587.833 Q213.186 591.375 213.186 598.504 Q213.186 605.611 214.991 609.176 Q216.82 612.717 220.431 612.717 Q224.065 612.717 225.871 609.176 Q227.7 605.611 227.7 598.504 Q227.7 591.375 225.871 587.833 Q224.065 584.268 220.431 584.268 M220.431 580.565 Q226.241 580.565 229.297 585.171 Q232.375 589.755 232.375 598.504 Q232.375 607.231 229.297 611.838 Q226.241 616.421 220.431 616.421 Q214.621 616.421 211.542 611.838 Q208.487 607.231 208.487 598.504 Q208.487 589.755 211.542 585.171 Q214.621 580.565 220.431 580.565 Z" fill="#000000" fill-rule="nonzero" fill-opacity="1" /><path clip-path="url(#clip110)" d="M115.871 320.85 Q112.26 320.85 110.432 324.415 Q108.626 327.956 108.626 335.086 Q108.626 342.192 110.432 345.757 Q112.26 349.299 115.871 349.299 Q119.506 349.299 121.311 345.757 Q123.14 342.192 123.14 335.086 Q123.14 327.956 121.311 324.415 Q119.506 320.85 115.871 320.85 M115.871 317.146 Q121.682 317.146 124.737 321.753 Q127.816 326.336 127.816 335.086 Q127.816 343.813 124.737 348.419 Q121.682 353.003 115.871 353.003 Q110.061 353.003 106.983 348.419 Q103.927 343.813 103.927 335.086 Q103.927 326.336 106.983 321.753 Q110.061 317.146 115.871 317.146 Z" fill="#000000" fill-rule="nonzero" fill-opacity="1" /><path clip-path="url(#clip110)" d="M136.033 346.452 L140.918 346.452 L140.918 352.331 L136.033 352.331 L136.033 346.452 Z" fill="#000000" fill-rule="nonzero" fill-opacity="1" /><path clip-path="url(#clip110)" d="M151.913 348.396 L159.552 348.396 L159.552 322.03 L151.242 323.697 L151.242 319.438 L159.506 317.771 L164.181 317.771 L164.181 348.396 L171.82 348.396 L171.82 352.331 L151.913 352.331 L151.913 348.396 Z" fill="#000000" fill-rule="nonzero" fill-opacity="1" /><path clip-path="url(#clip110)" d="M180.084 317.771 L202.306 317.771 L202.306 319.762 L189.76 352.331 L184.876 352.331 L196.681 321.706 L180.084 321.706 L180.084 317.771 Z" fill="#000000" fill-rule="nonzero" fill-opacity="1" /><path clip-path="url(#clip110)" d="M211.473 317.771 L229.829 317.771 L229.829 321.706 L215.755 321.706 L215.755 330.179 Q216.774 329.831 217.792 329.669 Q218.811 329.484 219.829 329.484 Q225.616 329.484 228.996 332.655 Q232.375 335.827 232.375 341.243 Q232.375 346.822 228.903 349.924 Q225.431 353.003 219.112 353.003 Q216.936 353.003 214.667 352.632 Q212.422 352.262 210.014 351.521 L210.014 346.822 Q212.098 347.956 214.32 348.512 Q216.542 349.067 219.019 349.067 Q223.024 349.067 225.362 346.961 Q227.7 344.854 227.7 341.243 Q227.7 337.632 225.362 335.526 Q223.024 333.419 219.019 333.419 Q217.144 333.419 215.269 333.836 Q213.417 334.253 211.473 335.132 L211.473 317.771 Z" fill="#000000" fill-rule="nonzero" fill-opacity="1" /><path clip-path="url(#clip110)" d="M28.8517 838.32 Q29.0449 838.32 29.7857 838.577 L44.0207 843.795 Q44.858 844.084 45.019 844.374 Q45.1479 844.664 45.1479 845.856 L45.1479 876.387 Q45.1479 877.128 45.1157 877.418 Q45.0834 877.707 44.9224 877.933 Q44.7614 878.158 44.4071 878.158 Q43.763 878.158 43.4732 877.933 Q43.1833 877.675 43.1511 877.385 Q43.1189 877.095 43.1189 876.387 Q43.1189 874.777 43.0223 873.81 Q42.9257 872.844 42.7968 872.232 Q42.6358 871.588 42.1849 871.266 Q41.734 870.912 41.3476 870.751 Q40.9289 870.59 39.9949 870.364 L4.56848 861.54 Q3.50568 861.282 3.34465 861.282 Q2.73274 861.282 2.57171 861.669 Q2.37848 862.023 2.28186 863.054 L2.15304 865.566 Q2.15304 866.339 2.12083 866.661 Q2.08862 866.951 1.9276 867.176 Q1.76657 867.401 1.4123 867.401 Q0.80039 867.401 0.510538 867.176 Q0.188479 866.918 0.156273 866.725 Q0.0918614 866.5 0.0918614 866.145 L0.285097 857.385 L0.0918614 847.627 Q0.0918614 846.564 0.897008 846.564 Q1.79877 846.564 1.99201 847.015 Q2.15304 847.466 2.15304 849.076 Q2.15304 852.168 2.4751 853.585 Q2.79715 854.97 3.34465 855.357 Q3.85995 855.711 5.2448 856.065 L40.8645 864.986 Q42.0561 865.308 42.3782 865.308 Q42.7324 865.308 42.8612 865.147 Q42.9579 864.954 43.0223 864.439 Q43.1189 863.859 43.1189 862.989 L43.1189 856.806 Q43.1189 854.938 42.829 853.295 Q42.5392 851.653 42.1205 850.397 Q41.7018 849.109 40.9289 847.949 Q40.156 846.79 39.4796 845.985 Q38.7711 845.147 37.6761 844.342 Q36.5489 843.505 35.776 843.022 Q34.9708 842.506 33.6826 841.927 Q32.3621 841.347 31.6214 841.057 Q30.8485 840.735 29.528 840.252 Q28.8517 839.962 28.6585 839.865 Q28.4652 839.769 28.3042 839.608 Q28.1432 839.415 28.1432 839.125 Q28.1432 838.738 28.3686 838.545 Q28.594 838.32 28.8517 838.32 Z" fill="#000000" fill-rule="nonzero" fill-opacity="1" /><path clip-path="url(#clip110)" d="M28.6585 830.006 Q17.5152 830.006 8.5298 825.852 Q4.76171 824.081 1.60554 821.601 Q-1.55064 819.121 -2.93549 817.478 Q-4.32034 815.836 -4.32034 815.385 Q-4.32034 814.741 -3.67622 814.709 Q-3.35417 814.709 -2.54902 815.578 Q8.27215 826.206 28.6585 826.174 Q49.1092 826.174 59.5117 815.836 Q60.6389 814.709 60.9931 814.709 Q61.6373 814.709 61.6373 815.385 Q61.6373 815.836 60.3168 817.414 Q58.9964 818.992 55.969 821.44 Q52.9417 823.887 49.238 825.659 Q40.2526 830.006 28.6585 830.006 Z" fill="#000000" fill-rule="nonzero" fill-opacity="1" /><path clip-path="url(#clip110)" d="M21.6698 784.098 Q23.4733 784.098 24.4395 785 Q25.3735 785.901 25.3735 787.125 Q25.3735 788.124 24.7938 788.671 Q24.2141 789.186 23.4411 789.186 Q22.3139 789.186 21.4121 788.285 Q20.5104 787.351 20.4782 785.998 Q19.2866 786.449 18.578 787.64 Q17.8373 788.832 17.6441 789.895 Q17.4508 790.925 17.4508 791.956 Q17.4508 793.985 18.0949 795.531 Q18.7391 797.077 19.7374 797.85 Q20.7036 798.623 21.6376 798.977 Q22.5716 799.331 23.3767 799.331 Q24.0852 799.331 24.6649 799.17 Q25.2124 798.977 25.6311 798.526 Q26.0176 798.075 26.2752 797.753 Q26.5329 797.399 26.7583 796.626 Q26.9838 795.853 27.0804 795.531 Q27.1448 795.209 27.338 794.307 Q27.7245 792.439 27.9499 791.602 Q28.1432 790.764 28.6907 789.669 Q29.2382 788.542 30.1077 787.705 Q32.1367 785.676 34.9386 785.676 Q35.9692 785.676 37.2252 786.03 Q38.4812 786.352 40.0593 787.286 Q41.6374 788.22 42.8935 789.637 Q44.1495 791.054 45.019 793.502 Q45.8886 795.917 45.8886 798.945 Q45.8886 803.164 44.1173 805.772 Q42.3137 808.381 39.4796 808.381 Q37.4185 808.381 36.2912 807.254 Q35.1318 806.127 35.1318 804.677 Q35.1318 803.582 35.7437 802.906 Q36.3235 802.23 37.4185 802.23 Q38.8999 802.23 40.0271 803.421 Q41.1543 804.613 40.9289 806.384 Q44.4071 804.871 44.4071 798.88 Q44.4071 796.626 43.8274 794.887 Q43.2155 793.115 42.3782 792.149 Q41.5086 791.151 40.4458 790.507 Q39.383 789.863 38.5779 789.669 Q37.7727 789.444 37.1608 789.444 Q36.098 789.444 35.2929 789.863 Q34.4877 790.281 34.0368 790.861 Q33.5538 791.409 33.1673 792.471 Q32.7486 793.502 32.5876 794.243 Q32.4265 794.983 32.1689 796.304 Q32.0401 796.916 31.9757 797.302 Q31.879 797.689 31.6214 798.494 Q31.3315 799.267 31.0417 799.814 Q30.7518 800.33 30.2365 801.006 Q29.7213 801.682 29.1093 802.101 Q28.4974 802.52 27.5957 802.809 Q26.6939 803.099 25.6311 803.099 Q24.6649 803.099 23.5055 802.809 Q22.3461 802.487 20.9935 801.682 Q19.6408 800.845 18.5458 799.653 Q17.4508 798.462 16.7423 796.465 Q16.0016 794.436 16.0016 791.956 Q16.0016 788.349 17.6763 786.223 Q19.3188 784.098 21.6698 784.098 Z" fill="#000000" fill-rule="nonzero" fill-opacity="1" /><path clip-path="url(#clip110)" d="M60.9931 776.71 Q60.6711 776.71 59.8659 775.872 Q49.0448 765.245 28.6585 765.245 Q8.20774 765.245 -2.13034 775.454 Q-3.32196 776.71 -3.67622 776.71 Q-4.32034 776.71 -4.32034 776.066 Q-4.32034 775.615 -2.9999 774.037 Q-1.67946 772.426 1.34789 770.011 Q4.37524 767.563 8.07892 765.76 Q17.0644 761.412 28.6585 761.412 Q39.8017 761.412 48.7871 765.567 Q52.5552 767.338 55.7114 769.818 Q58.8676 772.298 60.2524 773.94 Q61.6373 775.583 61.6373 776.066 Q61.6373 776.71 60.9931 776.71 Z" fill="#000000" fill-rule="nonzero" fill-opacity="1" /><path clip-path="url(#clip110)" d="M1173.8 22.0773 Q1173.8 24.3318 1172.36 25.7254 Q1170.97 27.119 1169.21 27.119 Q1167.94 27.119 1166.99 26.3402 Q1166.09 25.5614 1166.09 24.2088 Q1166.09 22.8152 1167.16 21.3395 Q1168.22 19.8639 1170.64 19.659 Q1169.04 18.1424 1166.5 18.1424 Q1165.23 18.1424 1164.17 18.9622 Q1163.14 19.741 1162.57 21.0116 Q1161.95 22.3233 1160.56 29.7423 Q1160.11 32.1607 1159.7 34.4971 Q1159.29 36.8335 1158.8 39.2928 L1165.76 39.2928 Q1166.67 39.2928 1167.03 39.3338 Q1167.4 39.3748 1167.69 39.5798 Q1168.02 39.7847 1168.02 40.2356 Q1168.02 41.3833 1167.49 41.6702 Q1166.99 41.9162 1165.52 41.9162 L1158.3 41.9162 L1153.26 68.5182 Q1153.14 69.297 1152.61 71.7564 Q1152.11 74.1747 1150.93 78.1507 Q1149.74 82.1676 1148.55 84.545 Q1147.89 85.8977 1147.03 87.1683 Q1146.21 88.48 1145.02 89.7916 Q1143.83 91.1033 1142.28 91.8821 Q1140.72 92.7019 1139.08 92.7019 Q1136.29 92.7019 1134.12 91.1443 Q1131.95 89.5867 1131.95 86.9224 Q1131.95 84.668 1133.34 83.2743 Q1134.78 81.8807 1136.54 81.8807 Q1137.81 81.8807 1138.71 82.6595 Q1139.65 83.4383 1139.65 84.7909 Q1139.65 85.3648 1139.45 86.0206 Q1139.24 86.6764 1138.79 87.4143 Q1138.34 88.1931 1137.36 88.7259 Q1136.37 89.2588 1135.02 89.3408 Q1136.62 90.8574 1139.08 90.8574 Q1139.86 90.8574 1140.56 90.5294 Q1141.25 90.2425 1141.83 89.5047 Q1142.44 88.7669 1142.89 88.0291 Q1143.34 87.3323 1143.79 85.9796 Q1144.24 84.668 1144.53 83.6842 Q1144.82 82.7005 1145.19 80.9379 Q1145.6 79.1754 1145.8 78.1097 Q1146.01 77.085 1146.38 75.0765 L1152.65 41.9162 L1147.11 41.9162 Q1146.13 41.9162 1145.72 41.8752 Q1145.35 41.8342 1145.06 41.6292 Q1144.78 41.3833 1144.78 40.8914 Q1144.78 40.1126 1145.11 39.7847 Q1145.47 39.4158 1145.88 39.3748 Q1146.29 39.2928 1147.28 39.2928 L1153.1 39.2928 Q1155.07 28.9226 1155.84 26.1353 Q1156.75 23.1841 1158.14 21.1346 Q1159.53 19.0441 1161.09 18.0604 Q1162.65 17.0767 1163.92 16.7078 Q1165.23 16.2979 1166.5 16.2979 Q1169.37 16.2979 1171.58 17.8555 Q1173.8 19.3721 1173.8 22.0773 Z" fill="#000000" fill-rule="nonzero" fill-opacity="1" /><path clip-path="url(#clip110)" d="M1185.1 54.4999 Q1185.1 40.3176 1190.39 28.8816 Q1192.64 24.0858 1195.8 20.0689 Q1198.95 16.0519 1201.04 14.2894 Q1203.13 12.5268 1203.71 12.5268 Q1204.53 12.5268 1204.57 13.3466 Q1204.57 13.7565 1203.46 14.7813 Q1189.94 28.5537 1189.98 54.4999 Q1189.98 80.5281 1203.13 93.7676 Q1204.57 95.2022 1204.57 95.6531 Q1204.57 96.4729 1203.71 96.4729 Q1203.13 96.4729 1201.13 94.7923 Q1199.12 93.1118 1196 89.2588 Q1192.89 85.4058 1190.63 80.692 Q1185.1 69.256 1185.1 54.4999 Z" fill="#000000" fill-rule="nonzero" fill-opacity="1" /><path clip-path="url(#clip110)" d="M1236.73 40.2356 Q1236.73 41.3833 1236.2 41.6702 Q1235.67 41.9162 1234.19 41.9162 L1226.32 41.9162 L1220.09 66.6737 Q1219.6 68.8461 1219.6 70.6906 Q1219.6 72.7401 1220.21 73.6419 Q1220.87 74.5436 1222.22 74.5436 Q1224.89 74.5436 1227.76 72.1253 Q1230.67 69.7069 1233.13 63.8044 Q1233.45 63.0256 1233.62 62.8617 Q1233.82 62.6567 1234.36 62.6567 Q1235.38 62.6567 1235.38 63.4765 Q1235.38 63.7634 1234.81 65.0751 Q1234.27 66.3868 1233.08 68.3133 Q1231.94 70.2397 1230.42 72.0433 Q1228.94 73.8468 1226.69 75.1585 Q1224.44 76.4291 1222.02 76.4291 Q1218.62 76.4291 1216.44 74.2567 Q1214.31 72.0843 1214.31 68.6822 Q1214.31 67.5754 1215.17 64.0504 Q1216.03 60.4843 1220.71 41.9162 L1213.29 41.9162 Q1212.26 41.9162 1211.85 41.8752 Q1211.48 41.8342 1211.2 41.6292 Q1210.95 41.3833 1210.95 40.8914 Q1210.95 40.1126 1211.28 39.7847 Q1211.61 39.4158 1212.02 39.3748 Q1212.47 39.2928 1213.49 39.2928 L1221.36 39.2928 L1224.64 25.9713 Q1224.97 24.6597 1225.79 23.9219 Q1226.65 23.1431 1227.14 23.0611 Q1227.63 22.9381 1228 22.9381 Q1229.11 22.9381 1229.76 23.553 Q1230.42 24.1268 1230.42 25.1925 Q1230.42 25.7664 1226.98 39.2928 L1234.36 39.2928 Q1235.3 39.2928 1235.67 39.3338 Q1236.08 39.3748 1236.4 39.5798 Q1236.73 39.7847 1236.73 40.2356 Z" fill="#000000" fill-rule="nonzero" fill-opacity="1" /><path clip-path="url(#clip110)" d="M1243.3 95.6531 Q1243.3 95.2432 1244.37 94.2185 Q1257.9 80.4461 1257.9 54.4999 Q1257.9 28.4717 1244.9 15.3141 Q1243.3 13.7975 1243.3 13.3466 Q1243.3 12.5268 1244.12 12.5268 Q1244.7 12.5268 1246.71 14.2074 Q1248.76 15.888 1251.83 19.741 Q1254.95 23.5939 1257.24 28.3077 Q1262.77 39.7437 1262.77 54.4999 Q1262.77 68.6822 1257.49 80.1182 Q1255.23 84.9139 1252.08 88.9309 Q1248.92 92.9478 1246.83 94.7103 Q1244.74 96.4729 1244.12 96.4729 Q1243.3 96.4729 1243.3 95.6531 Z" fill="#000000" fill-rule="nonzero" fill-opacity="1" /><path clip-path="url(#clip110)" d="M1298.83 62.7387 Q1298.91 61.714 1300.51 61.714 L1351.95 61.714 Q1354.37 61.714 1354.41 62.6567 Q1354.41 63.6815 1352.12 63.6405 L1301.09 63.6405 Q1298.83 63.6815 1298.83 62.7387 M1298.83 46.343 Q1298.83 45.3183 1300.59 45.3593 L1351.87 45.3593 Q1354.37 45.3593 1354.41 46.343 Q1354.41 47.2858 1352.28 47.2858 L1300.51 47.2858 Q1298.83 47.2858 1298.83 46.343 Z" fill="#000000" fill-rule="nonzero" fill-opacity="1" /><path clip-path="url(#clip110)" d="M1418.73 65.7719 Q1419.05 66.1408 1419.05 66.5097 Q1419.05 66.8786 1418.23 67.9443 Q1417.46 69.0101 1415.77 70.4447 Q1414.09 71.8793 1411.92 73.232 Q1409.75 74.5846 1406.55 75.4864 Q1403.35 76.4291 1399.99 76.4291 Q1393.97 76.4291 1390.36 72.1253 Q1386.8 67.8214 1386.8 61.2221 Q1386.8 57.0002 1388.19 53.2702 Q1389.58 49.4992 1391.84 46.8349 Q1394.13 44.1706 1397 42.2441 Q1399.91 40.2766 1402.95 39.3338 Q1405.98 38.3911 1408.81 38.3911 Q1412.95 38.3911 1415.36 40.4815 Q1417.78 42.572 1417.78 45.5232 Q1417.78 46.22 1417.58 47.0808 Q1417.41 47.9416 1416.84 49.2942 Q1416.31 50.6469 1414.91 51.9995 Q1413.52 53.3112 1411.47 54.172 Q1406.92 56.0984 1398.64 56.0984 L1394.17 56.0984 Q1392.86 61.3861 1392.86 64.8292 Q1392.86 66.1818 1393.11 67.5754 Q1393.35 68.9281 1394.01 70.6496 Q1394.71 72.3712 1396.26 73.4779 Q1397.86 74.5436 1400.16 74.5436 Q1400.9 74.5436 1401.67 74.5026 Q1402.49 74.4616 1404.54 74.0108 Q1406.63 73.5599 1408.48 72.7811 Q1410.32 72.0023 1412.66 70.3217 Q1415.04 68.6002 1416.92 66.2638 Q1417.58 65.403 1418.03 65.403 Q1418.4 65.403 1418.73 65.7719 M1415 45.5232 Q1415 43.2688 1413.32 41.7522 Q1411.68 40.2356 1408.81 40.2356 Q1407.9 40.2356 1406.8 40.4405 Q1405.69 40.6455 1403.85 41.5063 Q1402.04 42.367 1400.44 43.8017 Q1398.85 45.1953 1397.25 47.9416 Q1395.65 50.6469 1394.71 54.2539 L1398.15 54.2539 Q1399.34 54.2539 1400.2 54.2539 Q1401.06 54.2129 1402.95 54.049 Q1404.87 53.885 1406.27 53.5981 Q1407.66 53.2702 1409.42 52.6144 Q1411.18 51.9585 1412.29 51.0978 Q1413.44 50.196 1414.22 48.7614 Q1415 47.3267 1415 45.5232 Z" fill="#000000" fill-rule="nonzero" fill-opacity="1" /><path clip-path="url(#clip110)" d="M1466.49 33.5102 Q1466.84 33.8545 1466.84 34.3423 Q1466.84 34.83 1466.49 35.1744 Q1466.15 35.5187 1465.66 35.5187 L1428.88 35.5187 Q1428.39 35.5187 1428.04 35.1744 Q1427.7 34.83 1427.7 34.3423 Q1427.7 33.8545 1428.04 33.5102 Q1428.39 33.1659 1428.88 33.1659 L1465.66 33.1659 Q1466.15 33.1659 1466.49 33.5102 Z" fill="#000000" fill-rule="nonzero" fill-opacity="1" /><path clip-path="url(#clip110)" d="M1499.88 40.6259 Q1499.11 44.3273 1498.1 46.4505 Q1496.5 49.6928 1493.77 49.6928 Q1491.71 49.6928 1490.24 48.4303 Q1488.78 47.1678 1488.44 45.2741 Q1484.68 49.6928 1480.77 49.6928 Q1477.33 49.6928 1475.15 47.0817 Q1472.97 44.442 1472.97 40.2816 Q1472.97 36.0925 1475.04 32.0756 Q1477.13 28.0586 1480.43 25.5624 Q1483.73 23.0661 1487.12 23.0661 Q1490.7 23.0661 1492.54 26.8248 Q1492.68 25.7919 1493.34 25.0172 Q1494 24.2425 1495.01 24.2425 Q1495.78 24.2425 1496.24 24.6729 Q1496.7 25.0746 1496.7 25.8206 Q1496.7 26.1936 1496.3 27.8291 L1494.17 36.0351 L1492.88 41.3432 Q1492.39 43.2943 1492.25 44.0116 Q1492.14 44.729 1492.14 45.6758 Q1492.14 48.3729 1493.89 48.3729 Q1494.75 48.3729 1495.44 47.8277 Q1496.12 47.2826 1496.67 46.1349 Q1497.22 44.9872 1497.56 43.9256 Q1497.9 42.8353 1498.36 41.1137 Q1498.51 40.4251 1498.62 40.2529 Q1498.76 40.0521 1499.17 40.0521 Q1499.88 40.0521 1499.88 40.6259 M1491.82 29.5219 Q1491.82 29.2637 1491.62 28.5464 Q1491.42 27.8291 1490.96 26.8248 Q1490.5 25.8206 1489.5 25.1033 Q1488.52 24.3573 1487.2 24.3573 Q1485.42 24.3573 1483.56 25.878 Q1481.72 27.3987 1480.37 29.981 Q1479.34 32.0469 1478.22 36.3794 Q1477.13 40.712 1477.13 42.8639 Q1477.13 44.1838 1477.42 45.3602 Q1477.73 46.5079 1478.62 47.4547 Q1479.51 48.3729 1480.89 48.3729 Q1484.25 48.3729 1487.55 44.2125 Q1488.18 43.4952 1488.32 43.2083 Q1488.49 42.8926 1488.72 42.0319 L1491.65 30.5262 Q1491.82 29.6654 1491.82 29.5219 Z" fill="#000000" fill-rule="nonzero" fill-opacity="1" /><path clip-path="url(#clip110)" d="M1520.62 24.3573 Q1520.62 25.1607 1520.25 25.3615 Q1519.87 25.5337 1518.84 25.5337 L1513.33 25.5337 L1508.97 42.8639 Q1508.63 44.3846 1508.63 45.6758 Q1508.63 47.1104 1509.06 47.7417 Q1509.51 48.3729 1510.46 48.3729 Q1512.33 48.3729 1514.34 46.68 Q1516.37 44.9872 1518.09 40.8555 Q1518.32 40.3103 1518.44 40.1955 Q1518.58 40.0521 1518.95 40.0521 Q1519.67 40.0521 1519.67 40.6259 Q1519.67 40.8268 1519.27 41.7449 Q1518.9 42.6631 1518.07 44.0116 Q1517.26 45.3602 1516.2 46.6227 Q1515.17 47.8851 1513.59 48.8033 Q1512.01 49.6928 1510.32 49.6928 Q1507.94 49.6928 1506.42 48.1721 Q1504.92 46.6514 1504.92 44.2699 Q1504.92 43.4952 1505.53 41.0276 Q1506.13 38.5314 1509.4 25.5337 L1504.21 25.5337 Q1503.49 25.5337 1503.2 25.505 Q1502.94 25.4763 1502.74 25.3328 Q1502.57 25.1607 1502.57 24.8164 Q1502.57 24.2712 1502.8 24.0417 Q1503.03 23.7834 1503.32 23.7547 Q1503.63 23.6974 1504.35 23.6974 L1509.86 23.6974 L1512.15 14.3723 Q1512.38 13.4541 1512.96 12.9377 Q1513.56 12.3925 1513.9 12.3351 Q1514.25 12.2491 1514.51 12.2491 Q1515.28 12.2491 1515.74 12.6794 Q1516.2 13.0811 1516.2 13.8271 Q1516.2 14.2288 1513.79 23.6974 L1518.95 23.6974 Q1519.61 23.6974 1519.87 23.7261 Q1520.16 23.7547 1520.39 23.8982 Q1520.62 24.0417 1520.62 24.3573 Z" fill="#000000" fill-rule="nonzero" fill-opacity="1" /><path clip-path="url(#clip110)" d="M1547.84 70.8956 Q1542.51 65.321 1542.51 57.3691 Q1542.51 49.3762 1547.76 43.6377 Q1553.01 37.8582 1560.71 37.8582 Q1565.84 37.8582 1569.69 40.3176 Q1573.54 42.7359 1573.54 46.8759 Q1573.54 48.7204 1572.44 49.7861 Q1571.37 50.8108 1569.69 50.8108 Q1567.93 50.8108 1566.86 49.7451 Q1565.84 48.6384 1565.84 46.9578 Q1565.84 46.22 1566.08 45.4822 Q1566.33 44.7444 1567.23 43.9656 Q1568.17 43.1868 1569.77 43.0639 Q1566.78 39.9897 1560.96 39.9897 Q1560.88 39.9897 1560.8 39.9897 Q1556.53 39.9897 1553.01 44.0066 Q1549.48 48.0236 1549.48 57.2052 Q1549.48 62.0009 1550.63 65.526 Q1551.82 69.0101 1553.75 70.8136 Q1555.67 72.6171 1557.56 73.4779 Q1559.44 74.2977 1561.29 74.2977 Q1569.53 74.2977 1572.31 65.485 Q1572.56 64.6652 1573.38 64.6652 Q1574.49 64.6652 1574.49 65.485 Q1574.49 65.8949 1574.16 66.9606 Q1573.83 68.0263 1572.81 69.7069 Q1571.78 71.3874 1570.31 72.8631 Q1568.87 74.2977 1566.29 75.3634 Q1563.75 76.4291 1560.55 76.4291 Q1553.17 76.4291 1547.84 70.8956 Z" fill="#000000" fill-rule="nonzero" fill-opacity="1" /><path clip-path="url(#clip110)" d="M1584.28 70.9776 Q1578.75 65.485 1578.75 57.5331 Q1578.75 49.5402 1584.16 43.7197 Q1589.61 37.8582 1597.4 37.8582 Q1605.02 37.8582 1610.47 43.6787 Q1615.96 49.4582 1615.96 57.5331 Q1615.96 65.444 1610.43 70.9366 Q1604.94 76.4291 1597.31 76.4291 Q1589.85 76.4291 1584.28 70.9776 M1585.71 56.8363 Q1585.71 64.9931 1587.85 68.6822 Q1591.13 74.2977 1597.4 74.2977 Q1600.51 74.2977 1603.09 72.6171 Q1605.72 70.9366 1607.15 68.1083 Q1609 64.4193 1609 56.8363 Q1609 48.7614 1606.78 45.1953 Q1603.5 39.7437 1597.31 39.7437 Q1594.61 39.7437 1591.94 41.1783 Q1589.32 42.572 1587.72 45.3593 Q1585.71 49.0483 1585.71 56.8363 Z" fill="#000000" fill-rule="nonzero" fill-opacity="1" /><path clip-path="url(#clip110)" d="M1620.32 74.3797 L1620.32 63.3126 Q1620.32 62.3698 1620.36 62.0419 Q1620.4 61.714 1620.65 61.468 Q1620.89 61.2221 1621.38 61.2221 Q1621.96 61.2221 1622.16 61.468 Q1622.41 61.714 1622.57 62.6567 Q1623.84 68.4362 1626.55 71.5104 Q1629.3 74.5436 1634.26 74.5436 Q1638.97 74.5436 1641.35 72.4532 Q1643.72 70.3627 1643.72 66.9196 Q1643.72 60.7712 1634.99 59.2136 Q1629.95 58.1889 1627.86 57.5331 Q1625.77 56.8363 1623.93 55.3197 Q1620.32 52.3684 1620.32 48.1875 Q1620.32 44.0066 1623.47 40.9324 Q1626.67 37.8582 1633.72 37.8582 Q1638.44 37.8582 1641.63 40.2356 Q1642.58 39.4978 1643.07 38.8829 Q1644.17 37.8582 1644.75 37.8582 Q1645.4 37.8582 1645.53 38.3091 Q1645.65 38.719 1645.65 39.9077 L1645.65 48.3515 Q1645.65 49.2942 1645.61 49.6221 Q1645.57 49.9501 1645.32 50.196 Q1645.08 50.4009 1644.54 50.4009 Q1643.6 50.4009 1643.56 49.6221 Q1642.9 39.4568 1633.72 39.4568 Q1628.76 39.4568 1626.55 41.3833 Q1624.34 43.2688 1624.34 45.8511 Q1624.34 47.2858 1624.99 48.3925 Q1625.69 49.4582 1626.55 50.114 Q1627.45 50.7289 1629.09 51.3437 Q1630.73 51.9175 1631.71 52.1225 Q1632.74 52.3274 1634.67 52.7373 Q1641.39 54.008 1644.22 56.7543 Q1647.74 60.2794 1647.74 64.7472 Q1647.74 69.7069 1644.38 73.068 Q1641.02 76.4291 1634.26 76.4291 Q1628.8 76.4291 1624.99 72.7811 Q1624.5 73.273 1624.13 73.7238 Q1623.76 74.1337 1623.6 74.2977 Q1623.47 74.4616 1623.43 74.5846 Q1623.39 74.6666 1623.31 74.7486 Q1621.63 76.4291 1621.22 76.4291 Q1620.56 76.4291 1620.44 75.9782 Q1620.32 75.5684 1620.32 74.3797 Z" fill="#000000" fill-rule="nonzero" fill-opacity="1" /><path clip-path="url(#clip110)" d="M1663.02 54.4999 Q1663.02 40.3176 1668.31 28.8816 Q1670.56 24.0858 1673.72 20.0689 Q1676.88 16.0519 1678.97 14.2894 Q1681.06 12.5268 1681.63 12.5268 Q1682.45 12.5268 1682.49 13.3466 Q1682.49 13.7565 1681.39 14.7813 Q1667.86 28.5537 1667.9 54.4999 Q1667.9 80.5281 1681.06 93.7676 Q1682.49 95.2022 1682.49 95.6531 Q1682.49 96.4729 1681.63 96.4729 Q1681.06 96.4729 1679.05 94.7923 Q1677.04 93.1118 1673.93 89.2588 Q1670.81 85.4058 1668.56 80.692 Q1663.02 69.256 1663.02 54.4999 Z" fill="#000000" fill-rule="nonzero" fill-opacity="1" /><path clip-path="url(#clip110)" d="M1721.46 51.7946 Q1721.46 57.697 1718.47 63.4765 Q1715.52 69.215 1710.76 72.8221 Q1706.05 76.4291 1701.21 76.4291 Q1696.5 76.4291 1693.51 72.8221 Q1690.55 69.174 1690.55 63.2306 Q1690.55 61.1401 1690.8 59.6645 Q1691.05 58.1889 1691.91 54.7458 L1698.79 27.365 Q1699.98 22.2413 1699.98 22.2003 Q1699.98 21.7084 1699.78 21.4625 Q1699.61 21.1756 1698.63 20.9706 Q1697.64 20.7657 1695.76 20.7657 Q1694.98 20.7657 1694.61 20.7247 Q1694.28 20.6837 1694 20.4788 Q1693.75 20.2328 1693.75 19.741 Q1693.75 19.0441 1694.04 18.6752 Q1694.37 18.2653 1694.61 18.1834 Q1694.86 18.1014 1695.35 18.0604 Q1696.05 18.0194 1698.38 17.8145 Q1700.72 17.5685 1702.73 17.4046 Q1704.74 17.2406 1705.6 17.2406 Q1706.09 17.2406 1706.33 17.4865 Q1706.62 17.6915 1706.62 17.9374 L1706.66 18.1424 L1700.47 43.4328 Q1705.35 38.3911 1710.31 38.3911 Q1715.27 38.3911 1718.34 42.2031 Q1721.46 46.0151 1721.46 51.7946 M1715.39 48.1055 Q1715.39 44.2116 1713.92 42.2441 Q1712.48 40.2356 1710.11 40.2356 Q1708.1 40.2356 1705.47 41.7522 Q1702.85 43.2688 1700.06 46.9578 Q1699.53 47.6547 1699.33 48.0645 Q1699.16 48.4744 1698.79 49.8681 L1696.95 57.615 Q1695.6 62.9027 1695.6 66.0998 Q1695.6 70.4447 1697.19 72.4942 Q1698.79 74.5436 1701.21 74.5436 Q1703.75 74.5436 1706.42 72.2892 Q1709.08 70.0348 1711.13 65.9359 Q1712.4 63.2306 1713.88 57.4101 Q1715.39 51.5486 1715.39 48.1055 Z" fill="#000000" fill-rule="nonzero" fill-opacity="1" /><path clip-path="url(#clip110)" d="M1750.3 40.2356 Q1750.3 41.3833 1749.77 41.6702 Q1749.24 41.9162 1747.76 41.9162 L1739.89 41.9162 L1733.66 66.6737 Q1733.17 68.8461 1733.17 70.6906 Q1733.17 72.7401 1733.78 73.6419 Q1734.44 74.5436 1735.79 74.5436 Q1738.46 74.5436 1741.32 72.1253 Q1744.23 69.7069 1746.69 63.8044 Q1747.02 63.0256 1747.19 62.8617 Q1747.39 62.6567 1747.92 62.6567 Q1748.95 62.6567 1748.95 63.4765 Q1748.95 63.7634 1748.37 65.0751 Q1747.84 66.3868 1746.65 68.3133 Q1745.51 70.2397 1743.99 72.0433 Q1742.51 73.8468 1740.26 75.1585 Q1738 76.4291 1735.59 76.4291 Q1732.18 76.4291 1730.01 74.2567 Q1727.88 72.0843 1727.88 68.6822 Q1727.88 67.5754 1728.74 64.0504 Q1729.6 60.4843 1734.27 41.9162 L1726.86 41.9162 Q1725.83 41.9162 1725.42 41.8752 Q1725.05 41.8342 1724.76 41.6292 Q1724.52 41.3833 1724.52 40.8914 Q1724.52 40.1126 1724.85 39.7847 Q1725.17 39.4158 1725.58 39.3748 Q1726.04 39.2928 1727.06 39.2928 L1734.93 39.2928 L1738.21 25.9713 Q1738.54 24.6597 1739.36 23.9219 Q1740.22 23.1431 1740.71 23.0611 Q1741.2 22.9381 1741.57 22.9381 Q1742.68 22.9381 1743.33 23.553 Q1743.99 24.1268 1743.99 25.1925 Q1743.99 25.7664 1740.55 39.2928 L1747.92 39.2928 Q1748.87 39.2928 1749.24 39.3338 Q1749.65 39.3748 1749.97 39.5798 Q1750.3 39.7847 1750.3 40.2356 Z" fill="#000000" fill-rule="nonzero" fill-opacity="1" /><path clip-path="url(#clip110)" d="M1756.87 95.6531 Q1756.87 95.2432 1757.94 94.2185 Q1771.47 80.4461 1771.47 54.4999 Q1771.47 28.4717 1758.47 15.3141 Q1756.87 13.7975 1756.87 13.3466 Q1756.87 12.5268 1757.69 12.5268 Q1758.27 12.5268 1760.27 14.2074 Q1762.32 15.888 1765.4 19.741 Q1768.51 23.5939 1770.81 28.3077 Q1776.34 39.7437 1776.34 54.4999 Q1776.34 68.6822 1771.06 80.1182 Q1768.8 84.9139 1765.64 88.9309 Q1762.49 92.9478 1760.4 94.7103 Q1758.31 96.4729 1757.69 96.4729 Q1756.87 96.4729 1756.87 95.6531 Z" fill="#000000" fill-rule="nonzero" fill-opacity="1" /><polyline clip-path="url(#clip112)" style="stroke:#009af9; stroke-linecap:round; stroke-linejoin:round; stroke-width:8; stroke-opacity:1; fill:none" points="344.912,1476.7 362.481,1430.74 380.05,1365.56 397.619,1291.22 415.187,1213.31 432.756,1134.97 450.325,1057.98 467.894,983.33 485.462,911.61 503.031,843.156 520.6,778.166 538.169,716.754 555.737,658.974 573.306,604.838 590.875,554.331 608.444,507.409 626.012,464.008 643.581,424.047 661.15,387.429 678.719,354.046 696.287,323.779 713.856,296.501 731.425,272.081 748.994,250.384 766.562,231.27 784.131,214.603 801.7,200.244 819.268,188.056 836.837,177.908 854.406,169.667 871.975,163.209 889.543,158.412 907.112,155.159 924.681,153.339 942.25,152.843 959.818,153.573 977.387,155.43 994.956,158.326 1012.52,162.174 1030.09,166.895 1047.66,172.411 1065.23,178.654 1082.8,185.557 1100.37,193.058 1117.94,201.1 1135.51,209.629 1153.07,218.595 1170.64,227.952 1188.21,237.658 1205.78,247.672 1223.35,257.957 1240.92,268.481 1258.49,279.211 1276.06,290.119 1293.62,301.177 1311.19,312.362 1328.76,323.65 1346.33,335.022 1363.9,346.457 1381.47,357.939 1399.04,369.452 1416.61,380.98 1434.17,392.511 1451.74,404.033 1469.31,415.534 1486.88,427.005 1504.45,438.435 1522.02,449.818 1539.59,461.145 1557.16,472.41 1574.72,483.607 1592.29,494.729 1609.86,505.773 1627.43,516.734 1645,527.608 1662.57,538.391 1680.14,549.081 1697.71,559.675 1715.27,570.171 1732.84,580.567 1750.41,590.861 1767.98,601.052 1785.55,611.138 1803.12,621.119 1820.69,630.994 1838.26,640.762 1855.82,650.423 1873.39,659.978 1890.96,669.425 1908.53,678.766 1926.1,687.999 1943.67,697.126 1961.24,706.147 1978.81,715.063 1996.37,723.873 2013.94,732.58 2031.51,741.182 2049.08,749.682 2066.65,758.08 2084.22,766.377 2101.79,774.574 2119.36,782.671 2136.92,790.67 2154.49,798.573 2172.06,806.378 2189.63,814.089 2207.2,821.706 2224.77,829.23 2242.34,836.662 2259.91,844.003 2277.47,851.255 2295.04,858.418 2312.61,865.494 2330.18,872.484 2347.75,879.388 2365.32,886.209 2382.89,892.946 2400.46,899.602 2418.02,906.178 2435.59,912.674 2453.16,919.091 2470.73,925.431 2488.3,931.695 2505.87,937.883 2523.44,943.998 2541.01,950.039 2558.57,956.008 2576.14,961.907 "/>
<polyline clip-path="url(#clip112)" style="stroke:#e26f46; stroke-linecap:round; stroke-linejoin:round; stroke-width:8; stroke-opacity:1; fill:none" stroke-dasharray="32, 20" points="344.912,1476.7 362.481,1430.74 380.05,1365.56 397.619,1291.22 415.187,1213.31 432.756,1134.97 450.325,1057.98 467.894,983.331 485.462,911.61 503.031,843.155 520.6,778.166 538.169,716.754 555.737,658.973 573.306,604.838 590.875,554.331 608.444,507.409 626.012,464.006 643.581,424.047 661.15,387.431 678.719,354.047 696.287,323.779 713.856,296.501 731.425,272.08 748.994,250.382 766.562,231.27 784.131,214.603 801.7,200.243 819.268,188.056 836.837,177.907 854.406,169.667 871.975,163.21 889.543,158.414 907.112,155.162 924.681,153.339 942.25,152.843 959.818,153.572 977.387,155.43 994.956,158.326 1012.52,162.174 1030.09,166.895 1047.66,172.411 1065.23,178.654 1082.8,185.556 1100.37,193.058 1117.94,201.1 1135.51,209.629 1153.07,218.596 1170.64,227.953 1188.21,237.656 1205.78,247.67 1223.35,257.956 1240.92,268.48 1258.49,279.211 1276.06,290.119 1293.62,301.177 1311.19,312.362 1328.76,323.65 1346.33,335.022 1363.9,346.457 1381.47,357.939 1399.04,369.452 1416.61,380.98 1434.17,392.511 1451.74,404.032 1469.31,415.538 1486.88,427.008 1504.45,438.438 1522.02,449.82 1539.59,461.147 1557.16,472.411 1574.72,483.607 1592.29,494.729 1609.86,505.773 1627.43,516.734 1645,527.607 1662.57,538.391 1680.14,549.081 1697.71,559.676 1715.27,570.172 1732.84,580.568 1750.41,590.861 1767.98,601.052 1785.55,611.138 1803.12,621.12 1820.69,630.994 1838.26,640.763 1855.82,650.424 1873.39,659.978 1890.96,669.425 1908.53,678.766 1926.1,687.999 1943.67,697.126 1961.24,706.147 1978.81,715.062 1996.37,723.872 2013.94,732.578 2031.51,741.182 2049.08,749.682 2066.65,758.079 2084.22,766.376 2101.79,774.573 2119.36,782.671 2136.92,790.67 2154.49,798.572 2172.06,806.378 2189.63,814.089 2207.2,821.706 2224.77,829.23 2242.34,836.662 2259.91,844.003 2277.47,851.254 2295.04,858.417 2312.61,865.492 2330.18,872.482 2347.75,879.387 2365.32,886.208 2382.89,892.946 2400.46,899.602 2418.02,906.177 2435.59,912.674 2453.16,919.091 2470.73,925.431 2488.3,931.695 2505.87,937.883 2523.44,943.997 2541.01,950.038 2558.57,956.007 2576.14,961.905 "/>
<path clip-path="url(#clip110)" d="M356.812 315.423 L1027.7 315.423 L1027.7 159.903 L356.812 159.903  Z" fill="#ffffff" fill-rule="evenodd" fill-opacity="1"/>
<polyline clip-path="url(#clip110)" style="stroke:#000000; stroke-linecap:round; stroke-linejoin:round; stroke-width:4; stroke-opacity:1; fill:none" points="356.812,315.423 1027.7,315.423 1027.7,159.903 356.812,159.903 356.812,315.423 "/>
<polyline clip-path="url(#clip110)" style="stroke:#009af9; stroke-linecap:round; stroke-linejoin:round; stroke-width:8; stroke-opacity:1; fill:none" points="383.091,211.743 540.765,211.743 "/>
<path clip-path="url(#clip110)" d="M582.877 199.07 L576.534 216.269 L589.243 216.269 L582.877 199.07 M580.238 194.463 L585.539 194.463 L598.71 229.023 L593.849 229.023 L590.701 220.158 L575.122 220.158 L571.974 229.023 L567.044 229.023 L580.238 194.463 Z" fill="#000000" fill-rule="nonzero" fill-opacity="1" /><path clip-path="url(#clip110)" d="M625.122 213.375 L625.122 229.023 L620.863 229.023 L620.863 213.514 Q620.863 209.834 619.428 208.005 Q617.993 206.176 615.122 206.176 Q611.673 206.176 609.682 208.375 Q607.692 210.574 607.692 214.371 L607.692 229.023 L603.409 229.023 L603.409 203.098 L607.692 203.098 L607.692 207.125 Q609.219 204.787 611.28 203.63 Q613.363 202.473 616.071 202.473 Q620.539 202.473 622.831 205.25 Q625.122 208.005 625.122 213.375 Z" fill="#000000" fill-rule="nonzero" fill-opacity="1" /><path clip-path="url(#clip110)" d="M645.4 215.991 Q640.238 215.991 638.247 217.172 Q636.256 218.352 636.256 221.199 Q636.256 223.468 637.738 224.81 Q639.242 226.13 641.812 226.13 Q645.354 226.13 647.483 223.63 Q649.636 221.107 649.636 216.94 L649.636 215.991 L645.4 215.991 M653.895 214.232 L653.895 229.023 L649.636 229.023 L649.636 225.088 Q648.178 227.449 646.002 228.583 Q643.826 229.695 640.678 229.695 Q636.696 229.695 634.335 227.472 Q631.997 225.227 631.997 221.477 Q631.997 217.102 634.914 214.88 Q637.854 212.658 643.664 212.658 L649.636 212.658 L649.636 212.241 Q649.636 209.301 647.692 207.704 Q645.77 206.084 642.275 206.084 Q640.053 206.084 637.946 206.616 Q635.84 207.148 633.895 208.213 L633.895 204.278 Q636.233 203.375 638.432 202.935 Q640.631 202.473 642.715 202.473 Q648.34 202.473 651.117 205.389 Q653.895 208.306 653.895 214.232 Z" fill="#000000" fill-rule="nonzero" fill-opacity="1" /><path clip-path="url(#clip110)" d="M662.668 193.005 L666.928 193.005 L666.928 229.023 L662.668 229.023 L662.668 193.005 Z" fill="#000000" fill-rule="nonzero" fill-opacity="1" /><path clip-path="url(#clip110)" d="M686.626 231.431 Q684.821 236.06 683.108 237.472 Q681.395 238.884 678.525 238.884 L675.122 238.884 L675.122 235.32 L677.622 235.32 Q679.381 235.32 680.353 234.486 Q681.326 233.653 682.506 230.551 L683.27 228.607 L672.784 203.098 L677.298 203.098 L685.4 223.375 L693.501 203.098 L698.015 203.098 L686.626 231.431 Z" fill="#000000" fill-rule="nonzero" fill-opacity="1" /><path clip-path="url(#clip110)" d="M708.108 195.736 L708.108 203.098 L716.881 203.098 L716.881 206.408 L708.108 206.408 L708.108 220.482 Q708.108 223.653 708.964 224.556 Q709.844 225.458 712.506 225.458 L716.881 225.458 L716.881 229.023 L712.506 229.023 Q707.575 229.023 705.7 227.195 Q703.825 225.343 703.825 220.482 L703.825 206.408 L700.7 206.408 L700.7 203.098 L703.825 203.098 L703.825 195.736 L708.108 195.736 Z" fill="#000000" fill-rule="nonzero" fill-opacity="1" /><path clip-path="url(#clip110)" d="M722.483 203.098 L726.742 203.098 L726.742 229.023 L722.483 229.023 L722.483 203.098 M722.483 193.005 L726.742 193.005 L726.742 198.398 L722.483 198.398 L722.483 193.005 Z" fill="#000000" fill-rule="nonzero" fill-opacity="1" /><path clip-path="url(#clip110)" d="M754.311 204.093 L754.311 208.074 Q752.506 207.079 750.677 206.593 Q748.872 206.084 747.02 206.084 Q742.876 206.084 740.585 208.722 Q738.293 211.338 738.293 216.084 Q738.293 220.829 740.585 223.468 Q742.876 226.083 747.02 226.083 Q748.872 226.083 750.677 225.597 Q752.506 225.088 754.311 224.093 L754.311 228.028 Q752.529 228.861 750.608 229.278 Q748.709 229.695 746.557 229.695 Q740.7 229.695 737.251 226.014 Q733.802 222.334 733.802 216.084 Q733.802 209.741 737.274 206.107 Q740.77 202.473 746.835 202.473 Q748.802 202.473 750.677 202.889 Q752.552 203.283 754.311 204.093 Z" fill="#000000" fill-rule="nonzero" fill-opacity="1" /><path clip-path="url(#clip110)" d="M773.501 215.991 Q768.339 215.991 766.348 217.172 Q764.358 218.352 764.358 221.199 Q764.358 223.468 765.839 224.81 Q767.344 226.13 769.913 226.13 Q773.455 226.13 775.584 223.63 Q777.737 221.107 777.737 216.94 L777.737 215.991 L773.501 215.991 M781.996 214.232 L781.996 229.023 L777.737 229.023 L777.737 225.088 Q776.279 227.449 774.103 228.583 Q771.927 229.695 768.779 229.695 Q764.797 229.695 762.436 227.472 Q760.098 225.227 760.098 221.477 Q760.098 217.102 763.015 214.88 Q765.955 212.658 771.765 212.658 L777.737 212.658 L777.737 212.241 Q777.737 209.301 775.793 207.704 Q773.871 206.084 770.376 206.084 Q768.154 206.084 766.047 206.616 Q763.941 207.148 761.996 208.213 L761.996 204.278 Q764.334 203.375 766.533 202.935 Q768.733 202.473 770.816 202.473 Q776.441 202.473 779.219 205.389 Q781.996 208.306 781.996 214.232 Z" fill="#000000" fill-rule="nonzero" fill-opacity="1" /><path clip-path="url(#clip110)" d="M790.769 193.005 L795.029 193.005 L795.029 229.023 L790.769 229.023 L790.769 193.005 Z" fill="#000000" fill-rule="nonzero" fill-opacity="1" /><path clip-path="url(#clip110)" d="M836.07 207.033 L836.07 193.005 L840.329 193.005 L840.329 229.023 L836.07 229.023 L836.07 225.134 Q834.728 227.449 832.667 228.583 Q830.63 229.695 827.76 229.695 Q823.061 229.695 820.098 225.945 Q817.158 222.195 817.158 216.084 Q817.158 209.972 820.098 206.222 Q823.061 202.473 827.76 202.473 Q830.63 202.473 832.667 203.607 Q834.728 204.718 836.07 207.033 M821.556 216.084 Q821.556 220.783 823.478 223.468 Q825.422 226.13 828.802 226.13 Q832.181 226.13 834.126 223.468 Q836.07 220.783 836.07 216.084 Q836.07 211.385 834.126 208.722 Q832.181 206.037 828.802 206.037 Q825.422 206.037 823.478 208.722 Q821.556 211.385 821.556 216.084 Z" fill="#000000" fill-rule="nonzero" fill-opacity="1" /><path clip-path="url(#clip110)" d="M849.102 203.098 L853.362 203.098 L853.362 229.023 L849.102 229.023 L849.102 203.098 M849.102 193.005 L853.362 193.005 L853.362 198.398 L849.102 198.398 L849.102 193.005 Z" fill="#000000" fill-rule="nonzero" fill-opacity="1" /><path clip-path="url(#clip110)" d="M878.801 203.861 L878.801 207.889 Q876.996 206.963 875.051 206.5 Q873.107 206.037 871.024 206.037 Q867.852 206.037 866.255 207.01 Q864.681 207.982 864.681 209.926 Q864.681 211.408 865.815 212.264 Q866.95 213.097 870.376 213.861 L871.834 214.185 Q876.371 215.158 878.269 216.94 Q880.19 218.699 880.19 221.871 Q880.19 225.482 877.32 227.588 Q874.473 229.695 869.473 229.695 Q867.389 229.695 865.121 229.278 Q862.876 228.884 860.376 228.074 L860.376 223.676 Q862.737 224.903 865.028 225.528 Q867.32 226.13 869.565 226.13 Q872.575 226.13 874.195 225.111 Q875.815 224.07 875.815 222.195 Q875.815 220.459 874.635 219.533 Q873.477 218.607 869.519 217.75 L868.038 217.403 Q864.079 216.57 862.32 214.857 Q860.561 213.121 860.561 210.111 Q860.561 206.454 863.153 204.463 Q865.746 202.473 870.514 202.473 Q872.875 202.473 874.959 202.82 Q877.042 203.167 878.801 203.861 Z" fill="#000000" fill-rule="nonzero" fill-opacity="1" /><path clip-path="url(#clip110)" d="M905.63 204.093 L905.63 208.074 Q903.824 207.079 901.996 206.593 Q900.19 206.084 898.338 206.084 Q894.195 206.084 891.903 208.722 Q889.612 211.338 889.612 216.084 Q889.612 220.829 891.903 223.468 Q894.195 226.083 898.338 226.083 Q900.19 226.083 901.996 225.597 Q903.824 225.088 905.63 224.093 L905.63 228.028 Q903.848 228.861 901.926 229.278 Q900.028 229.695 897.875 229.695 Q892.019 229.695 888.57 226.014 Q885.121 222.334 885.121 216.084 Q885.121 209.741 888.593 206.107 Q892.088 202.473 898.153 202.473 Q900.121 202.473 901.996 202.889 Q903.871 203.283 905.63 204.093 Z" fill="#000000" fill-rule="nonzero" fill-opacity="1" /><path clip-path="url(#clip110)" d="M928.06 207.079 Q927.343 206.662 926.486 206.477 Q925.653 206.269 924.634 206.269 Q921.023 206.269 919.079 208.63 Q917.158 210.968 917.158 215.366 L917.158 229.023 L912.875 229.023 L912.875 203.098 L917.158 203.098 L917.158 207.125 Q918.5 204.764 920.653 203.63 Q922.806 202.473 925.884 202.473 Q926.324 202.473 926.857 202.542 Q927.389 202.588 928.037 202.704 L928.06 207.079 Z" fill="#000000" fill-rule="nonzero" fill-opacity="1" /><path clip-path="url(#clip110)" d="M953.662 214.996 L953.662 217.079 L934.079 217.079 Q934.357 221.477 936.718 223.792 Q939.102 226.083 943.338 226.083 Q945.792 226.083 948.083 225.482 Q950.398 224.88 952.667 223.676 L952.667 227.704 Q950.375 228.676 947.968 229.185 Q945.56 229.695 943.083 229.695 Q936.88 229.695 933.246 226.083 Q929.634 222.472 929.634 216.315 Q929.634 209.949 933.06 206.222 Q936.509 202.473 942.343 202.473 Q947.574 202.473 950.607 205.852 Q953.662 209.209 953.662 214.996 M949.403 213.746 Q949.357 210.25 947.435 208.167 Q945.537 206.084 942.389 206.084 Q938.824 206.084 936.671 208.097 Q934.542 210.111 934.218 213.769 L949.403 213.746 Z" fill="#000000" fill-rule="nonzero" fill-opacity="1" /><path clip-path="url(#clip110)" d="M964.866 195.736 L964.866 203.098 L973.639 203.098 L973.639 206.408 L964.866 206.408 L964.866 220.482 Q964.866 223.653 965.722 224.556 Q966.602 225.458 969.264 225.458 L973.639 225.458 L973.639 229.023 L969.264 229.023 Q964.333 229.023 962.458 227.195 Q960.583 225.343 960.583 220.482 L960.583 206.408 L957.458 206.408 L957.458 203.098 L960.583 203.098 L960.583 195.736 L964.866 195.736 Z" fill="#000000" fill-rule="nonzero" fill-opacity="1" /><path clip-path="url(#clip110)" d="M1001.42 214.996 L1001.42 217.079 L981.833 217.079 Q982.111 221.477 984.472 223.792 Q986.856 226.083 991.092 226.083 Q993.546 226.083 995.838 225.482 Q998.153 224.88 1000.42 223.676 L1000.42 227.704 Q998.129 228.676 995.722 229.185 Q993.315 229.695 990.838 229.695 Q984.634 229.695 981 226.083 Q977.389 222.472 977.389 216.315 Q977.389 209.949 980.815 206.222 Q984.264 202.473 990.097 202.473 Q995.329 202.473 998.361 205.852 Q1001.42 209.209 1001.42 214.996 M997.157 213.746 Q997.111 210.25 995.19 208.167 Q993.292 206.084 990.143 206.084 Q986.579 206.084 984.426 208.097 Q982.296 210.111 981.972 213.769 L997.157 213.746 Z" fill="#000000" fill-rule="nonzero" fill-opacity="1" /><polyline clip-path="url(#clip110)" style="stroke:#e26f46; stroke-linecap:round; stroke-linejoin:round; stroke-width:8; stroke-opacity:1; fill:none" stroke-dasharray="32, 20" points="383.091,263.583 540.765,263.583 "/>
<path clip-path="url(#clip110)" d="M567.044 246.303 L574.011 246.303 L582.831 269.822 L591.696 246.303 L598.664 246.303 L598.664 280.863 L594.104 280.863 L594.104 250.516 L585.192 274.22 L580.493 274.22 L571.581 250.516 L571.581 280.863 L567.044 280.863 L567.044 246.303 Z" fill="#000000" fill-rule="nonzero" fill-opacity="1" /><path clip-path="url(#clip110)" d="M612.622 250.146 L612.622 263.132 L618.502 263.132 Q621.766 263.132 623.548 261.442 Q625.331 259.752 625.331 256.627 Q625.331 253.525 623.548 251.836 Q621.766 250.146 618.502 250.146 L612.622 250.146 M607.946 246.303 L618.502 246.303 Q624.312 246.303 627.275 248.942 Q630.261 251.558 630.261 256.627 Q630.261 261.743 627.275 264.359 Q624.312 266.974 618.502 266.974 L612.622 266.974 L612.622 280.863 L607.946 280.863 L607.946 246.303 Z" fill="#000000" fill-rule="nonzero" fill-opacity="1" /><path clip-path="url(#clip110)" d="M657.252 247.438 L657.252 251.998 Q654.59 250.725 652.229 250.1 Q649.867 249.475 647.668 249.475 Q643.849 249.475 641.766 250.956 Q639.705 252.438 639.705 255.169 Q639.705 257.461 641.071 258.641 Q642.46 259.799 646.303 260.516 L649.127 261.095 Q654.358 262.09 656.835 264.613 Q659.335 267.113 659.335 271.326 Q659.335 276.349 655.955 278.942 Q652.599 281.535 646.094 281.535 Q643.641 281.535 640.863 280.979 Q638.108 280.423 635.145 279.336 L635.145 274.521 Q637.992 276.118 640.724 276.928 Q643.455 277.738 646.094 277.738 Q650.099 277.738 652.275 276.164 Q654.451 274.59 654.451 271.674 Q654.451 269.127 652.877 267.692 Q651.326 266.257 647.761 265.539 L644.914 264.984 Q639.682 263.942 637.344 261.72 Q635.006 259.498 635.006 255.539 Q635.006 250.956 638.224 248.317 Q641.465 245.678 647.136 245.678 Q649.567 245.678 652.09 246.118 Q654.613 246.558 657.252 247.438 Z" fill="#000000" fill-rule="nonzero" fill-opacity="1" /><polyline clip-path="url(#clip110)" style="stroke:#000000; stroke-linecap:round; stroke-linejoin:round; stroke-width:4; stroke-opacity:1; fill:none" points="2643.08,1516.42 2643.08,113.127 "/>
<polyline clip-path="url(#clip110)" style="stroke:#000000; stroke-linecap:round; stroke-linejoin:round; stroke-width:4; stroke-opacity:1; fill:none" points="2643.08,1516.42 2624.18,1516.42 "/>
<polyline clip-path="url(#clip110)" style="stroke:#000000; stroke-linecap:round; stroke-linejoin:round; stroke-width:4; stroke-opacity:1; fill:none" points="2643.08,1195.36 2624.18,1195.36 "/>
<polyline clip-path="url(#clip110)" style="stroke:#000000; stroke-linecap:round; stroke-linejoin:round; stroke-width:4; stroke-opacity:1; fill:none" points="2643.08,874.291 2624.18,874.291 "/>
<polyline clip-path="url(#clip110)" style="stroke:#000000; stroke-linecap:round; stroke-linejoin:round; stroke-width:4; stroke-opacity:1; fill:none" points="2643.08,553.227 2624.18,553.227 "/>
<polyline clip-path="url(#clip110)" style="stroke:#000000; stroke-linecap:round; stroke-linejoin:round; stroke-width:4; stroke-opacity:1; fill:none" points="2643.08,232.163 2624.18,232.163 "/>
<path clip-path="url(#clip110)" d="M2700.62 1502.22 Q2697.01 1502.22 2695.18 1505.78 Q2693.38 1509.32 2693.38 1516.45 Q2693.38 1523.56 2695.18 1527.13 Q2697.01 1530.67 2700.62 1530.67 Q2704.26 1530.67 2706.06 1527.13 Q2707.89 1523.56 2707.89 1516.45 Q2707.89 1509.32 2706.06 1505.78 Q2704.26 1502.22 2700.62 1502.22 M2700.62 1498.51 Q2706.43 1498.51 2709.49 1503.12 Q2712.57 1507.7 2712.57 1516.45 Q2712.57 1525.18 2709.49 1529.79 Q2706.43 1534.37 2700.62 1534.37 Q2694.81 1534.37 2691.74 1529.79 Q2688.68 1525.18 2688.68 1516.45 Q2688.68 1507.7 2691.74 1503.12 Q2694.81 1498.51 2700.62 1498.51 Z" fill="#000000" fill-rule="nonzero" fill-opacity="1" /><path clip-path="url(#clip110)" d="M2694.3 1215.15 L2710.62 1215.15 L2710.62 1219.08 L2688.68 1219.08 L2688.68 1215.15 Q2691.34 1212.39 2695.93 1207.76 Q2700.53 1203.11 2701.71 1201.77 Q2703.96 1199.25 2704.84 1197.51 Q2705.74 1195.75 2705.74 1194.06 Q2705.74 1191.31 2703.8 1189.57 Q2701.87 1187.83 2698.77 1187.83 Q2696.57 1187.83 2694.12 1188.6 Q2691.69 1189.36 2688.91 1190.91 L2688.91 1186.19 Q2691.74 1185.06 2694.19 1184.48 Q2696.64 1183.9 2698.68 1183.9 Q2704.05 1183.9 2707.24 1186.58 Q2710.44 1189.27 2710.44 1193.76 Q2710.44 1195.89 2709.63 1197.81 Q2708.84 1199.71 2706.74 1202.3 Q2706.16 1202.97 2703.05 1206.19 Q2699.95 1209.38 2694.3 1215.15 Z" fill="#000000" fill-rule="nonzero" fill-opacity="1" /><path clip-path="url(#clip110)" d="M2720.44 1213.2 L2725.32 1213.2 L2725.32 1219.08 L2720.44 1219.08 L2720.44 1213.2 Z" fill="#000000" fill-rule="nonzero" fill-opacity="1" /><path clip-path="url(#clip110)" d="M2735.55 1184.52 L2753.91 1184.52 L2753.91 1188.46 L2739.84 1188.46 L2739.84 1196.93 Q2740.86 1196.58 2741.87 1196.42 Q2742.89 1196.24 2743.91 1196.24 Q2749.7 1196.24 2753.08 1199.41 Q2756.46 1202.58 2756.46 1208 Q2756.46 1213.57 2752.99 1216.68 Q2749.51 1219.75 2743.19 1219.75 Q2741.02 1219.75 2738.75 1219.38 Q2736.5 1219.01 2734.1 1218.27 L2734.1 1213.57 Q2736.18 1214.71 2738.4 1215.26 Q2740.62 1215.82 2743.1 1215.82 Q2747.11 1215.82 2749.44 1213.71 Q2751.78 1211.61 2751.78 1208 Q2751.78 1204.38 2749.44 1202.28 Q2747.11 1200.17 2743.1 1200.17 Q2741.23 1200.17 2739.35 1200.59 Q2737.5 1201 2735.55 1201.88 L2735.55 1184.52 Z" fill="#000000" fill-rule="nonzero" fill-opacity="1" /><path clip-path="url(#clip110)" d="M2775.67 1187.6 Q2772.06 1187.6 2770.23 1191.17 Q2768.42 1194.71 2768.42 1201.84 Q2768.42 1208.94 2770.23 1212.51 Q2772.06 1216.05 2775.67 1216.05 Q2779.3 1216.05 2781.11 1212.51 Q2782.94 1208.94 2782.94 1201.84 Q2782.94 1194.71 2781.11 1191.17 Q2779.3 1187.6 2775.67 1187.6 M2775.67 1183.9 Q2781.48 1183.9 2784.54 1188.5 Q2787.61 1193.09 2787.61 1201.84 Q2787.61 1210.56 2784.54 1215.17 Q2781.48 1219.75 2775.67 1219.75 Q2769.86 1219.75 2766.78 1215.17 Q2763.73 1210.56 2763.73 1201.84 Q2763.73 1193.09 2766.78 1188.5 Q2769.86 1183.9 2775.67 1183.9 Z" fill="#000000" fill-rule="nonzero" fill-opacity="1" /><path clip-path="url(#clip110)" d="M2824 1193.62 L2813.42 1204.25 L2824 1214.82 L2821.25 1217.62 L2810.62 1207 L2800 1217.62 L2797.27 1214.82 L2807.82 1204.25 L2797.27 1193.62 L2800 1190.82 L2810.62 1201.44 L2821.25 1190.82 L2824 1193.62 Z" fill="#000000" fill-rule="nonzero" fill-opacity="1" /><path clip-path="url(#clip110)" d="M2836.36 1215.15 L2844 1215.15 L2844 1188.78 L2835.69 1190.45 L2835.69 1186.19 L2843.96 1184.52 L2848.63 1184.52 L2848.63 1215.15 L2856.27 1215.15 L2856.27 1219.08 L2836.36 1219.08 L2836.36 1215.15 Z" fill="#000000" fill-rule="nonzero" fill-opacity="1" /><path clip-path="url(#clip110)" d="M2875.72 1187.6 Q2872.1 1187.6 2870.28 1191.17 Q2868.47 1194.71 2868.47 1201.84 Q2868.47 1208.94 2870.28 1212.51 Q2872.1 1216.05 2875.72 1216.05 Q2879.35 1216.05 2881.16 1212.51 Q2882.98 1208.94 2882.98 1201.84 Q2882.98 1194.71 2881.16 1191.17 Q2879.35 1187.6 2875.72 1187.6 M2875.72 1183.9 Q2881.53 1183.9 2884.58 1188.5 Q2887.66 1193.09 2887.66 1201.84 Q2887.66 1210.56 2884.58 1215.17 Q2881.53 1219.75 2875.72 1219.75 Q2869.91 1219.75 2866.83 1215.17 Q2863.77 1210.56 2863.77 1201.84 Q2863.77 1193.09 2866.83 1188.5 Q2869.91 1183.9 2875.72 1183.9 Z" fill="#000000" fill-rule="nonzero" fill-opacity="1" /><path clip-path="url(#clip110)" d="M2887.66 1178 L2911.77 1178 L2911.77 1181.2 L2887.66 1181.2 L2887.66 1178 Z" fill="#000000" fill-rule="nonzero" fill-opacity="1" /><path clip-path="url(#clip110)" d="M2919.01 1163.59 L2937.07 1163.59 L2937.07 1165.21 L2926.87 1191.67 L2922.91 1191.67 L2932.5 1166.79 L2919.01 1166.79 L2919.01 1163.59 Z" fill="#000000" fill-rule="nonzero" fill-opacity="1" /><path clip-path="url(#clip110)" d="M2690.14 863.459 L2708.49 863.459 L2708.49 867.394 L2694.42 867.394 L2694.42 875.866 Q2695.44 875.519 2696.46 875.357 Q2697.48 875.172 2698.49 875.172 Q2704.28 875.172 2707.66 878.343 Q2711.04 881.514 2711.04 886.931 Q2711.04 892.51 2707.57 895.611 Q2704.1 898.69 2697.78 898.69 Q2695.6 898.69 2693.33 898.32 Q2691.09 897.949 2688.68 897.209 L2688.68 892.51 Q2690.76 893.644 2692.99 894.199 Q2695.21 894.755 2697.68 894.755 Q2701.69 894.755 2704.03 892.649 Q2706.36 890.542 2706.36 886.931 Q2706.36 883.32 2704.03 881.213 Q2701.69 879.107 2697.68 879.107 Q2695.81 879.107 2693.93 879.524 Q2692.08 879.94 2690.14 880.82 L2690.14 863.459 Z" fill="#000000" fill-rule="nonzero" fill-opacity="1" /><path clip-path="url(#clip110)" d="M2720.25 892.139 L2725.14 892.139 L2725.14 898.019 L2720.25 898.019 L2720.25 892.139 Z" fill="#000000" fill-rule="nonzero" fill-opacity="1" /><path clip-path="url(#clip110)" d="M2745.32 866.538 Q2741.71 866.538 2739.88 870.102 Q2738.08 873.644 2738.08 880.774 Q2738.08 887.88 2739.88 891.445 Q2741.71 894.986 2745.32 894.986 Q2748.96 894.986 2750.76 891.445 Q2752.59 887.88 2752.59 880.774 Q2752.59 873.644 2750.76 870.102 Q2748.96 866.538 2745.32 866.538 M2745.32 862.834 Q2751.13 862.834 2754.19 867.44 Q2757.27 872.024 2757.27 880.774 Q2757.27 889.5 2754.19 894.107 Q2751.13 898.69 2745.32 898.69 Q2739.51 898.69 2736.43 894.107 Q2733.38 889.5 2733.38 880.774 Q2733.38 872.024 2736.43 867.44 Q2739.51 862.834 2745.32 862.834 Z" fill="#000000" fill-rule="nonzero" fill-opacity="1" /><path clip-path="url(#clip110)" d="M2775.48 866.538 Q2771.87 866.538 2770.05 870.102 Q2768.24 873.644 2768.24 880.774 Q2768.24 887.88 2770.05 891.445 Q2771.87 894.986 2775.48 894.986 Q2779.12 894.986 2780.92 891.445 Q2782.75 887.88 2782.75 880.774 Q2782.75 873.644 2780.92 870.102 Q2779.12 866.538 2775.48 866.538 M2775.48 862.834 Q2781.3 862.834 2784.35 867.44 Q2787.43 872.024 2787.43 880.774 Q2787.43 889.5 2784.35 894.107 Q2781.3 898.69 2775.48 898.69 Q2769.67 898.69 2766.6 894.107 Q2763.54 889.5 2763.54 880.774 Q2763.54 872.024 2766.6 867.44 Q2769.67 862.834 2775.48 862.834 Z" fill="#000000" fill-rule="nonzero" fill-opacity="1" /><path clip-path="url(#clip110)" d="M2823.82 872.556 L2813.24 883.181 L2823.82 893.76 L2821.06 896.561 L2810.44 885.936 L2799.81 896.561 L2797.08 893.76 L2807.64 883.181 L2797.08 872.556 L2799.81 869.755 L2810.44 880.38 L2821.06 869.755 L2823.82 872.556 Z" fill="#000000" fill-rule="nonzero" fill-opacity="1" /><path clip-path="url(#clip110)" d="M2836.18 894.084 L2843.82 894.084 L2843.82 867.718 L2835.51 869.385 L2835.51 865.126 L2843.77 863.459 L2848.45 863.459 L2848.45 894.084 L2856.09 894.084 L2856.09 898.019 L2836.18 898.019 L2836.18 894.084 Z" fill="#000000" fill-rule="nonzero" fill-opacity="1" /><path clip-path="url(#clip110)" d="M2875.53 866.538 Q2871.92 866.538 2870.09 870.102 Q2868.29 873.644 2868.29 880.774 Q2868.29 887.88 2870.09 891.445 Q2871.92 894.986 2875.53 894.986 Q2879.16 894.986 2880.97 891.445 Q2882.8 887.88 2882.8 880.774 Q2882.8 873.644 2880.97 870.102 Q2879.16 866.538 2875.53 866.538 M2875.53 862.834 Q2881.34 862.834 2884.4 867.44 Q2887.48 872.024 2887.48 880.774 Q2887.48 889.5 2884.4 894.107 Q2881.34 898.69 2875.53 898.69 Q2869.72 898.69 2866.64 894.107 Q2863.59 889.5 2863.59 880.774 Q2863.59 872.024 2866.64 867.44 Q2869.72 862.834 2875.53 862.834 Z" fill="#000000" fill-rule="nonzero" fill-opacity="1" /><path clip-path="url(#clip110)" d="M2887.48 856.935 L2911.59 856.935 L2911.59 860.133 L2887.48 860.133 L2887.48 856.935 Z" fill="#000000" fill-rule="nonzero" fill-opacity="1" /><path clip-path="url(#clip110)" d="M2918.83 842.528 L2936.88 842.528 L2936.88 844.146 L2926.69 870.608 L2922.72 870.608 L2932.31 845.726 L2918.83 845.726 L2918.83 842.528 Z" fill="#000000" fill-rule="nonzero" fill-opacity="1" /><path clip-path="url(#clip110)" d="M2688.68 542.395 L2710.9 542.395 L2710.9 544.385 L2698.36 576.955 L2693.47 576.955 L2705.28 546.33 L2688.68 546.33 L2688.68 542.395 Z" fill="#000000" fill-rule="nonzero" fill-opacity="1" /><path clip-path="url(#clip110)" d="M2720.02 571.075 L2724.91 571.075 L2724.91 576.955 L2720.02 576.955 L2720.02 571.075 Z" fill="#000000" fill-rule="nonzero" fill-opacity="1" /><path clip-path="url(#clip110)" d="M2735.14 542.395 L2753.49 542.395 L2753.49 546.33 L2739.42 546.33 L2739.42 554.802 Q2740.44 554.455 2741.46 554.293 Q2742.48 554.107 2743.49 554.107 Q2749.28 554.107 2752.66 557.279 Q2756.04 560.45 2756.04 565.867 Q2756.04 571.445 2752.57 574.547 Q2749.1 577.626 2742.78 577.626 Q2740.6 577.626 2738.33 577.255 Q2736.09 576.885 2733.68 576.144 L2733.68 571.445 Q2735.76 572.58 2737.99 573.135 Q2740.21 573.691 2742.68 573.691 Q2746.69 573.691 2749.03 571.584 Q2751.36 569.478 2751.36 565.867 Q2751.36 562.256 2749.03 560.149 Q2746.69 558.043 2742.68 558.043 Q2740.81 558.043 2738.93 558.459 Q2737.08 558.876 2735.14 559.756 L2735.14 542.395 Z" fill="#000000" fill-rule="nonzero" fill-opacity="1" /><path clip-path="url(#clip110)" d="M2775.25 545.473 Q2771.64 545.473 2769.81 549.038 Q2768.01 552.58 2768.01 559.709 Q2768.01 566.816 2769.81 570.381 Q2771.64 573.922 2775.25 573.922 Q2778.89 573.922 2780.69 570.381 Q2782.52 566.816 2782.52 559.709 Q2782.52 552.58 2780.69 549.038 Q2778.89 545.473 2775.25 545.473 M2775.25 541.77 Q2781.06 541.77 2784.12 546.376 Q2787.2 550.959 2787.2 559.709 Q2787.2 568.436 2784.12 573.043 Q2781.06 577.626 2775.25 577.626 Q2769.44 577.626 2766.36 573.043 Q2763.31 568.436 2763.31 559.709 Q2763.31 550.959 2766.36 546.376 Q2769.44 541.77 2775.25 541.77 Z" fill="#000000" fill-rule="nonzero" fill-opacity="1" /><path clip-path="url(#clip110)" d="M2823.59 551.492 L2813.01 562.117 L2823.59 572.695 L2820.83 575.496 L2810.21 564.871 L2799.58 575.496 L2796.85 572.695 L2807.41 562.117 L2796.85 551.492 L2799.58 548.691 L2810.21 559.316 L2820.83 548.691 L2823.59 551.492 Z" fill="#000000" fill-rule="nonzero" fill-opacity="1" /><path clip-path="url(#clip110)" d="M2835.95 573.019 L2843.59 573.019 L2843.59 546.654 L2835.28 548.32 L2835.28 544.061 L2843.54 542.395 L2848.22 542.395 L2848.22 573.019 L2855.85 573.019 L2855.85 576.955 L2835.95 576.955 L2835.95 573.019 Z" fill="#000000" fill-rule="nonzero" fill-opacity="1" /><path clip-path="url(#clip110)" d="M2875.3 545.473 Q2871.69 545.473 2869.86 549.038 Q2868.05 552.58 2868.05 559.709 Q2868.05 566.816 2869.86 570.381 Q2871.69 573.922 2875.3 573.922 Q2878.93 573.922 2880.74 570.381 Q2882.57 566.816 2882.57 559.709 Q2882.57 552.58 2880.74 549.038 Q2878.93 545.473 2875.3 545.473 M2875.3 541.77 Q2881.11 541.77 2884.16 546.376 Q2887.24 550.959 2887.24 559.709 Q2887.24 568.436 2884.16 573.043 Q2881.11 577.626 2875.3 577.626 Q2869.49 577.626 2866.41 573.043 Q2863.35 568.436 2863.35 559.709 Q2863.35 550.959 2866.41 546.376 Q2869.49 541.77 2875.3 541.77 Z" fill="#000000" fill-rule="nonzero" fill-opacity="1" /><path clip-path="url(#clip110)" d="M2887.24 535.871 L2911.36 535.871 L2911.36 539.068 L2887.24 539.068 L2887.24 535.871 Z" fill="#000000" fill-rule="nonzero" fill-opacity="1" /><path clip-path="url(#clip110)" d="M2918.6 521.464 L2936.65 521.464 L2936.65 523.082 L2926.46 549.544 L2922.49 549.544 L2932.08 524.661 L2918.6 524.661 L2918.6 521.464 Z" fill="#000000" fill-rule="nonzero" fill-opacity="1" /><path clip-path="url(#clip110)" d="M2689.35 251.955 L2696.99 251.955 L2696.99 225.59 L2688.68 227.256 L2688.68 222.997 L2696.94 221.33 L2701.62 221.33 L2701.62 251.955 L2709.26 251.955 L2709.26 255.89 L2689.35 255.89 L2689.35 251.955 Z" fill="#000000" fill-rule="nonzero" fill-opacity="1" /><path clip-path="url(#clip110)" d="M2718.7 250.011 L2723.59 250.011 L2723.59 255.89 L2718.7 255.89 L2718.7 250.011 Z" fill="#000000" fill-rule="nonzero" fill-opacity="1" /><path clip-path="url(#clip110)" d="M2743.77 224.409 Q2740.16 224.409 2738.33 227.974 Q2736.53 231.515 2736.53 238.645 Q2736.53 245.751 2738.33 249.316 Q2740.16 252.858 2743.77 252.858 Q2747.41 252.858 2749.21 249.316 Q2751.04 245.751 2751.04 238.645 Q2751.04 231.515 2749.21 227.974 Q2747.41 224.409 2743.77 224.409 M2743.77 220.705 Q2749.58 220.705 2752.64 225.312 Q2755.72 229.895 2755.72 238.645 Q2755.72 247.372 2752.64 251.978 Q2749.58 256.562 2743.77 256.562 Q2737.96 256.562 2734.88 251.978 Q2731.83 247.372 2731.83 238.645 Q2731.83 229.895 2734.88 225.312 Q2737.96 220.705 2743.77 220.705 Z" fill="#000000" fill-rule="nonzero" fill-opacity="1" /><path clip-path="url(#clip110)" d="M2773.93 224.409 Q2770.32 224.409 2768.49 227.974 Q2766.69 231.515 2766.69 238.645 Q2766.69 245.751 2768.49 249.316 Q2770.32 252.858 2773.93 252.858 Q2777.57 252.858 2779.37 249.316 Q2781.2 245.751 2781.2 238.645 Q2781.2 231.515 2779.37 227.974 Q2777.57 224.409 2773.93 224.409 M2773.93 220.705 Q2779.74 220.705 2782.8 225.312 Q2785.88 229.895 2785.88 238.645 Q2785.88 247.372 2782.8 251.978 Q2779.74 256.562 2773.93 256.562 Q2768.12 256.562 2765.05 251.978 Q2761.99 247.372 2761.99 238.645 Q2761.99 229.895 2765.05 225.312 Q2768.12 220.705 2773.93 220.705 Z" fill="#000000" fill-rule="nonzero" fill-opacity="1" /><path clip-path="url(#clip110)" d="M2822.27 230.427 L2811.69 241.052 L2822.27 251.631 L2819.51 254.432 L2808.89 243.807 L2798.26 254.432 L2795.53 251.631 L2806.09 241.052 L2795.53 230.427 L2798.26 227.627 L2808.89 238.251 L2819.51 227.627 L2822.27 230.427 Z" fill="#000000" fill-rule="nonzero" fill-opacity="1" /><path clip-path="url(#clip110)" d="M2834.63 251.955 L2842.27 251.955 L2842.27 225.59 L2833.96 227.256 L2833.96 222.997 L2842.22 221.33 L2846.9 221.33 L2846.9 251.955 L2854.54 251.955 L2854.54 255.89 L2834.63 255.89 L2834.63 251.955 Z" fill="#000000" fill-rule="nonzero" fill-opacity="1" /><path clip-path="url(#clip110)" d="M2873.98 224.409 Q2870.37 224.409 2868.54 227.974 Q2866.73 231.515 2866.73 238.645 Q2866.73 245.751 2868.54 249.316 Q2870.37 252.858 2873.98 252.858 Q2877.61 252.858 2879.42 249.316 Q2881.25 245.751 2881.25 238.645 Q2881.25 231.515 2879.42 227.974 Q2877.61 224.409 2873.98 224.409 M2873.98 220.705 Q2879.79 220.705 2882.85 225.312 Q2885.92 229.895 2885.92 238.645 Q2885.92 247.372 2882.85 251.978 Q2879.79 256.562 2873.98 256.562 Q2868.17 256.562 2865.09 251.978 Q2862.04 247.372 2862.04 238.645 Q2862.04 229.895 2865.09 225.312 Q2868.17 220.705 2873.98 220.705 Z" fill="#000000" fill-rule="nonzero" fill-opacity="1" /><path clip-path="url(#clip110)" d="M2885.92 214.807 L2910.04 214.807 L2910.04 218.004 L2885.92 218.004 L2885.92 214.807 Z" fill="#000000" fill-rule="nonzero" fill-opacity="1" /><path clip-path="url(#clip110)" d="M2926.83 212.926 Q2924.27 212.926 2922.77 214.675 Q2921.28 216.424 2921.28 219.471 Q2921.28 222.499 2922.77 224.267 Q2924.27 226.016 2926.83 226.016 Q2929.39 226.016 2930.87 224.267 Q2932.38 222.499 2932.38 219.471 Q2932.38 216.424 2930.87 214.675 Q2929.39 212.926 2926.83 212.926 M2934.37 201.021 L2934.37 204.481 Q2932.94 203.804 2931.48 203.447 Q2930.03 203.089 2928.6 203.089 Q2924.84 203.089 2922.84 205.628 Q2920.87 208.167 2920.59 213.302 Q2921.7 211.666 2923.37 210.801 Q2925.04 209.917 2927.06 209.917 Q2931.29 209.917 2933.73 212.493 Q2936.2 215.051 2936.2 219.471 Q2936.2 223.797 2933.64 226.411 Q2931.08 229.025 2926.83 229.025 Q2921.96 229.025 2919.38 225.301 Q2916.81 221.559 2916.81 214.468 Q2916.81 207.81 2919.97 203.861 Q2923.13 199.892 2928.45 199.892 Q2929.88 199.892 2931.33 200.174 Q2932.79 200.456 2934.37 201.021 Z" fill="#000000" fill-rule="nonzero" fill-opacity="1" /><path clip-path="url(#clip110)" d="M3009.52 1003.13 Q3008.95 1004.12 3008.69 1005.3 Q3008.4 1006.44 3008.4 1007.85 Q3008.4 1012.81 3011.65 1015.48 Q3014.87 1018.13 3020.91 1018.13 L3039.69 1018.13 L3039.69 1024.01 L3004.04 1024.01 L3004.04 1018.13 L3009.58 1018.13 Q3006.34 1016.28 3004.78 1013.32 Q3003.18 1010.36 3003.18 1006.13 Q3003.18 1005.52 3003.28 1004.79 Q3003.34 1004.06 3003.5 1003.17 L3009.52 1003.13 Z" fill="#000000" fill-rule="nonzero" fill-opacity="1" /><path clip-path="url(#clip110)" d="M3020.4 967.932 L3023.27 967.932 L3023.27 994.859 Q3029.32 994.477 3032.5 991.231 Q3035.65 987.952 3035.65 982.128 Q3035.65 978.754 3034.82 975.603 Q3033.99 972.42 3032.34 969.301 L3037.88 969.301 Q3039.21 972.452 3039.92 975.762 Q3040.62 979.072 3040.62 982.478 Q3040.62 991.008 3035.65 996.005 Q3030.68 1000.97 3022.22 1000.97 Q3013.47 1000.97 3008.34 996.26 Q3003.18 991.517 3003.18 983.496 Q3003.18 976.303 3007.83 972.134 Q3012.45 967.932 3020.4 967.932 M3018.69 973.789 Q3013.88 973.852 3011.01 976.494 Q3008.15 979.104 3008.15 983.433 Q3008.15 988.334 3010.92 991.294 Q3013.69 994.223 3018.72 994.668 L3018.69 973.789 Z" fill="#000000" fill-rule="nonzero" fill-opacity="1" /><path clip-path="url(#clip110)" d="M2990.17 958.32 L2990.17 952.464 L3039.69 952.464 L3039.69 958.32 L2990.17 958.32 Z" fill="#000000" fill-rule="nonzero" fill-opacity="1" /><path clip-path="url(#clip110)" d="M3021.77 924.009 Q3021.77 931.107 3023.4 933.844 Q3025.02 936.581 3028.93 936.581 Q3032.05 936.581 3033.9 934.544 Q3035.71 932.475 3035.71 928.942 Q3035.71 924.073 3032.28 921.144 Q3028.81 918.184 3023.08 918.184 L3021.77 918.184 L3021.77 924.009 M3019.35 912.328 L3039.69 912.328 L3039.69 918.184 L3034.28 918.184 Q3037.53 920.189 3039.09 923.181 Q3040.62 926.173 3040.62 930.502 Q3040.62 935.976 3037.56 939.223 Q3034.47 942.438 3029.32 942.438 Q3023.3 942.438 3020.25 938.427 Q3017.19 934.385 3017.19 926.396 L3017.19 918.184 L3016.62 918.184 Q3012.57 918.184 3010.38 920.858 Q3008.15 923.5 3008.15 928.306 Q3008.15 931.361 3008.88 934.258 Q3009.61 937.154 3011.08 939.828 L3005.67 939.828 Q3004.43 936.613 3003.82 933.589 Q3003.18 930.566 3003.18 927.701 Q3003.18 919.967 3007.2 916.147 Q3011.21 912.328 3019.35 912.328 Z" fill="#000000" fill-rule="nonzero" fill-opacity="1" /><path clip-path="url(#clip110)" d="M2993.92 894.472 L3004.04 894.472 L3004.04 882.409 L3008.6 882.409 L3008.6 894.472 L3027.95 894.472 Q3032.31 894.472 3033.55 893.294 Q3034.79 892.085 3034.79 888.425 L3034.79 882.409 L3039.69 882.409 L3039.69 888.425 Q3039.69 895.204 3037.18 897.782 Q3034.63 900.36 3027.95 900.36 L3008.6 900.36 L3008.6 904.657 L3004.04 904.657 L3004.04 900.36 L2993.92 900.36 L2993.92 894.472 Z" fill="#000000" fill-rule="nonzero" fill-opacity="1" /><path clip-path="url(#clip110)" d="M3004.04 874.706 L3004.04 868.85 L3039.69 868.85 L3039.69 874.706 L3004.04 874.706 M2990.17 874.706 L2990.17 868.85 L2997.58 868.85 L2997.58 874.706 L2990.17 874.706 Z" fill="#000000" fill-rule="nonzero" fill-opacity="1" /><path clip-path="url(#clip110)" d="M3004.04 860.797 L3004.04 854.591 L3033.96 843.451 L3004.04 832.311 L3004.04 826.104 L3039.69 839.472 L3039.69 847.429 L3004.04 860.797 Z" fill="#000000" fill-rule="nonzero" fill-opacity="1" /><path clip-path="url(#clip110)" d="M3020.4 787.528 L3023.27 787.528 L3023.27 814.455 Q3029.32 814.073 3032.5 810.827 Q3035.65 807.548 3035.65 801.724 Q3035.65 798.35 3034.82 795.199 Q3033.99 792.016 3032.34 788.897 L3037.88 788.897 Q3039.21 792.048 3039.92 795.358 Q3040.62 798.668 3040.62 802.074 Q3040.62 810.604 3035.65 815.601 Q3030.68 820.566 3022.22 820.566 Q3013.47 820.566 3008.34 815.856 Q3003.18 811.113 3003.18 803.092 Q3003.18 795.899 3007.83 791.729 Q3012.45 787.528 3020.4 787.528 M3018.69 793.385 Q3013.88 793.448 3011.01 796.09 Q3008.15 798.7 3008.15 803.029 Q3008.15 807.93 3010.92 810.89 Q3013.69 813.818 3018.72 814.264 L3018.69 793.385 Z" fill="#000000" fill-rule="nonzero" fill-opacity="1" /><path clip-path="url(#clip110)" d="M3020.4 726.704 L3023.27 726.704 L3023.27 753.631 Q3029.32 753.249 3032.5 750.002 Q3035.65 746.724 3035.65 740.899 Q3035.65 737.526 3034.82 734.374 Q3033.99 731.192 3032.34 728.072 L3037.88 728.072 Q3039.21 731.223 3039.92 734.534 Q3040.62 737.844 3040.62 741.249 Q3040.62 749.779 3035.65 754.777 Q3030.68 759.742 3022.22 759.742 Q3013.47 759.742 3008.34 755.031 Q3003.18 750.289 3003.18 742.268 Q3003.18 735.075 3007.83 730.905 Q3012.45 726.704 3020.4 726.704 M3018.69 732.56 Q3013.88 732.624 3011.01 735.266 Q3008.15 737.876 3008.15 742.204 Q3008.15 747.106 3010.92 750.066 Q3013.69 752.994 3018.72 753.44 L3018.69 732.56 Z" fill="#000000" fill-rule="nonzero" fill-opacity="1" /><path clip-path="url(#clip110)" d="M3009.52 696.435 Q3008.95 697.422 3008.69 698.599 Q3008.4 699.745 3008.4 701.145 Q3008.4 706.111 3011.65 708.784 Q3014.87 711.426 3020.91 711.426 L3039.69 711.426 L3039.69 717.314 L3004.04 717.314 L3004.04 711.426 L3009.58 711.426 Q3006.34 709.58 3004.78 706.62 Q3003.18 703.66 3003.18 699.427 Q3003.18 698.822 3003.28 698.09 Q3003.34 697.358 3003.5 696.467 L3009.52 696.435 Z" fill="#000000" fill-rule="nonzero" fill-opacity="1" /><path clip-path="url(#clip110)" d="M3009.52 670.781 Q3008.95 671.768 3008.69 672.945 Q3008.4 674.091 3008.4 675.492 Q3008.4 680.457 3011.65 683.131 Q3014.87 685.772 3020.91 685.772 L3039.69 685.772 L3039.69 691.661 L3004.04 691.661 L3004.04 685.772 L3009.58 685.772 Q3006.34 683.926 3004.78 680.966 Q3003.18 678.006 3003.18 673.773 Q3003.18 673.168 3003.28 672.436 Q3003.34 671.704 3003.5 670.813 L3009.52 670.781 Z" fill="#000000" fill-rule="nonzero" fill-opacity="1" /><path clip-path="url(#clip110)" d="M3008.15 652.257 Q3008.15 656.967 3011.84 659.705 Q3015.5 662.442 3021.9 662.442 Q3028.3 662.442 3031.99 659.737 Q3035.65 656.999 3035.65 652.257 Q3035.65 647.578 3031.96 644.841 Q3028.27 642.104 3021.9 642.104 Q3015.57 642.104 3011.87 644.841 Q3008.15 647.578 3008.15 652.257 M3003.18 652.257 Q3003.18 644.618 3008.15 640.258 Q3013.12 635.897 3021.9 635.897 Q3030.65 635.897 3035.65 640.258 Q3040.62 644.618 3040.62 652.257 Q3040.62 659.928 3035.65 664.288 Q3030.65 668.617 3021.9 668.617 Q3013.12 668.617 3008.15 664.288 Q3003.18 659.928 3003.18 652.257 Z" fill="#000000" fill-rule="nonzero" fill-opacity="1" /><path clip-path="url(#clip110)" d="M3009.52 605.533 Q3008.95 606.519 3008.69 607.697 Q3008.4 608.843 3008.4 610.243 Q3008.4 615.208 3011.65 617.882 Q3014.87 620.524 3020.91 620.524 L3039.69 620.524 L3039.69 626.412 L3004.04 626.412 L3004.04 620.524 L3009.58 620.524 Q3006.34 618.678 3004.78 615.718 Q3003.18 612.758 3003.18 608.524 Q3003.18 607.92 3003.28 607.188 Q3003.34 606.456 3003.5 605.564 L3009.52 605.533 Z" fill="#000000" fill-rule="nonzero" fill-opacity="1" /><polyline clip-path="url(#clip112)" style="stroke:#808080; stroke-linecap:round; stroke-linejoin:round; stroke-width:6; stroke-opacity:1; fill:none" stroke-dasharray="3, 6" points="344.912,1373.94 362.481,1053.55 380.05,814.773 397.619,1267.39 415.187,1476.91 432.756,1473.44 450.325,1435.52 467.894,1449.41 485.462,1461.55 503.031,1496.79 520.6,1486.21 538.169,1455.28 555.737,1484.96 573.306,1500.96 590.875,1454.43 608.444,1457.01 626.012,1290.57 643.581,1422.37 661.15,1300.04 678.719,1361.93 696.287,1457.47 713.856,1462.5 731.425,1399.61 748.994,1370.24 766.562,1513.87 784.131,1488.98 801.7,1486.26 819.268,1490.78 836.837,1503.98 854.406,1497.31 871.975,1453.68 889.543,1376.92 907.112,1221.87 924.681,1473.44 942.25,1434.49 959.818,1413.97 977.387,1424.34 994.956,1471.52 1012.52,1507.95 1030.09,1458.87 1047.66,1501.54 1065.23,1424.19 1082.8,1394.95 1100.37,1443.94 1117.94,1489.95 1135.51,1471.18 1153.07,1429.78 1170.64,1356.1 1188.21,1349.83 1205.78,1358.87 1223.35,1368.14 1240.92,1435.38 1258.49,1476.11 1276.06,1500.58 1293.62,1489.92 1311.19,1448.3 1328.76,1483.67 1346.33,1484.37 1363.9,1516.42 1381.47,1498.18 1399.04,1514.77 1416.61,1506.61 1434.17,1443.57 1451.74,1410.97 1469.31,1106.19 1486.88,1149.47 1504.45,1234.73 1522.02,1266.33 1539.59,1333.83 1557.16,1379.18 1574.72,1469.74 1592.29,1511 1609.86,1485.45 1627.43,1489.93 1645,1457.72 1662.57,1494.1 1680.14,1507.09 1697.71,1475.78 1715.27,1460.35 1732.84,1381.73 1750.41,1481.08 1767.98,1424.26 1785.55,1437.44 1803.12,1405.74 1820.69,1421.9 1838.26,1421.74 1855.82,1478.37 1873.39,1489.65 1890.96,1501.64 1908.53,1486.56 1926.1,1494.18 1943.67,1492.89 1961.24,1447.66 1978.81,1423.6 1996.37,1345.25 2013.94,1316.84 2031.51,1479.11 2049.08,1487.81 2066.65,1437.39 2084.22,1450.61 2101.79,1430.77 2119.36,1443.34 2136.92,1410.01 2154.49,1435.86 2172.06,1451.64 2189.63,1506.29 2207.2,1484.66 2224.77,1512.1 2242.34,1492.37 2259.91,1493.05 2277.47,1436.23 2295.04,1429.85 2312.61,1286.07 2330.18,1371.74 2347.75,1377.63 2365.32,1434.92 2382.89,1448.38 2400.46,1487.37 2418.02,1473.51 2435.59,1516.14 2453.16,1511.46 2470.73,1462.59 2488.3,1504.49 2505.87,1505.62 2523.44,1471.42 2541.01,1431.08 2558.57,1327.87 2576.14,1272.71 "/>
<path clip-path="url(#clip110)" d="M2023.38 263.583 L2564.24 263.583 L2564.24 159.903 L2023.38 159.903  Z" fill="#ffffff" fill-rule="evenodd" fill-opacity="1"/>
<polyline clip-path="url(#clip110)" style="stroke:#000000; stroke-linecap:round; stroke-linejoin:round; stroke-width:4; stroke-opacity:1; fill:none" points="2023.38,263.583 2564.24,263.583 2564.24,159.903 2023.38,159.903 2023.38,263.583 "/>
<polyline clip-path="url(#clip110)" style="stroke:#808080; stroke-linecap:round; stroke-linejoin:round; stroke-width:6; stroke-opacity:1; fill:none" stroke-dasharray="3, 6" points="2049.66,211.743 2207.33,211.743 "/>
<path clip-path="url(#clip110)" d="M2248.8 207.079 Q2248.08 206.662 2247.22 206.477 Q2246.39 206.269 2245.37 206.269 Q2241.76 206.269 2239.82 208.63 Q2237.9 210.968 2237.9 215.366 L2237.9 229.023 L2233.61 229.023 L2233.61 203.098 L2237.9 203.098 L2237.9 207.125 Q2239.24 204.764 2241.39 203.63 Q2243.54 202.473 2246.62 202.473 Q2247.06 202.473 2247.6 202.542 Q2248.13 202.588 2248.78 202.704 L2248.8 207.079 Z" fill="#000000" fill-rule="nonzero" fill-opacity="1" /><path clip-path="url(#clip110)" d="M2274.4 214.996 L2274.4 217.079 L2254.82 217.079 Q2255.1 221.477 2257.46 223.792 Q2259.84 226.083 2264.08 226.083 Q2266.53 226.083 2268.82 225.482 Q2271.14 224.88 2273.41 223.676 L2273.41 227.704 Q2271.11 228.676 2268.71 229.185 Q2266.3 229.695 2263.82 229.695 Q2257.62 229.695 2253.98 226.083 Q2250.37 222.472 2250.37 216.315 Q2250.37 209.949 2253.8 206.222 Q2257.25 202.473 2263.08 202.473 Q2268.31 202.473 2271.35 205.852 Q2274.4 209.209 2274.4 214.996 M2270.14 213.746 Q2270.1 210.25 2268.17 208.167 Q2266.28 206.084 2263.13 206.084 Q2259.56 206.084 2257.41 208.097 Q2255.28 210.111 2254.96 213.769 L2270.14 213.746 Z" fill="#000000" fill-rule="nonzero" fill-opacity="1" /><path clip-path="url(#clip110)" d="M2281.39 193.005 L2285.65 193.005 L2285.65 229.023 L2281.39 229.023 L2281.39 193.005 Z" fill="#000000" fill-rule="nonzero" fill-opacity="1" /><path clip-path="url(#clip110)" d="M2306.34 215.991 Q2301.18 215.991 2299.19 217.172 Q2297.2 218.352 2297.2 221.199 Q2297.2 223.468 2298.68 224.81 Q2300.19 226.13 2302.76 226.13 Q2306.3 226.13 2308.43 223.63 Q2310.58 221.107 2310.58 216.94 L2310.58 215.991 L2306.34 215.991 M2314.84 214.232 L2314.84 229.023 L2310.58 229.023 L2310.58 225.088 Q2309.12 227.449 2306.95 228.583 Q2304.77 229.695 2301.62 229.695 Q2297.64 229.695 2295.28 227.472 Q2292.94 225.227 2292.94 221.477 Q2292.94 217.102 2295.86 214.88 Q2298.8 212.658 2304.61 212.658 L2310.58 212.658 L2310.58 212.241 Q2310.58 209.301 2308.64 207.704 Q2306.72 206.084 2303.22 206.084 Q2301 206.084 2298.89 206.616 Q2296.78 207.148 2294.84 208.213 L2294.84 204.278 Q2297.18 203.375 2299.38 202.935 Q2301.58 202.473 2303.66 202.473 Q2309.28 202.473 2312.06 205.389 Q2314.84 208.306 2314.84 214.232 Z" fill="#000000" fill-rule="nonzero" fill-opacity="1" /><path clip-path="url(#clip110)" d="M2327.83 195.736 L2327.83 203.098 L2336.6 203.098 L2336.6 206.408 L2327.83 206.408 L2327.83 220.482 Q2327.83 223.653 2328.68 224.556 Q2329.56 225.458 2332.22 225.458 L2336.6 225.458 L2336.6 229.023 L2332.22 229.023 Q2327.29 229.023 2325.42 227.195 Q2323.54 225.343 2323.54 220.482 L2323.54 206.408 L2320.42 206.408 L2320.42 203.098 L2323.54 203.098 L2323.54 195.736 L2327.83 195.736 Z" fill="#000000" fill-rule="nonzero" fill-opacity="1" /><path clip-path="url(#clip110)" d="M2342.2 203.098 L2346.46 203.098 L2346.46 229.023 L2342.2 229.023 L2342.2 203.098 M2342.2 193.005 L2346.46 193.005 L2346.46 198.398 L2342.2 198.398 L2342.2 193.005 Z" fill="#000000" fill-rule="nonzero" fill-opacity="1" /><path clip-path="url(#clip110)" d="M2352.32 203.098 L2356.83 203.098 L2364.93 224.857 L2373.03 203.098 L2377.55 203.098 L2367.83 229.023 L2362.04 229.023 L2352.32 203.098 Z" fill="#000000" fill-rule="nonzero" fill-opacity="1" /><path clip-path="url(#clip110)" d="M2405.6 214.996 L2405.6 217.079 L2386.02 217.079 Q2386.3 221.477 2388.66 223.792 Q2391.04 226.083 2395.28 226.083 Q2397.73 226.083 2400.03 225.482 Q2402.34 224.88 2404.61 223.676 L2404.61 227.704 Q2402.32 228.676 2399.91 229.185 Q2397.5 229.695 2395.03 229.695 Q2388.82 229.695 2385.19 226.083 Q2381.58 222.472 2381.58 216.315 Q2381.58 209.949 2385 206.222 Q2388.45 202.473 2394.28 202.473 Q2399.52 202.473 2402.55 205.852 Q2405.6 209.209 2405.6 214.996 M2401.34 213.746 Q2401.3 210.25 2399.38 208.167 Q2397.48 206.084 2394.33 206.084 Q2390.77 206.084 2388.61 208.097 Q2386.48 210.111 2386.16 213.769 L2401.34 213.746 Z" fill="#000000" fill-rule="nonzero" fill-opacity="1" /><path clip-path="url(#clip110)" d="M2449.84 214.996 L2449.84 217.079 L2430.26 217.079 Q2430.53 221.477 2432.9 223.792 Q2435.28 226.083 2439.52 226.083 Q2441.97 226.083 2444.26 225.482 Q2446.58 224.88 2448.84 223.676 L2448.84 227.704 Q2446.55 228.676 2444.15 229.185 Q2441.74 229.695 2439.26 229.695 Q2433.06 229.695 2429.42 226.083 Q2425.81 222.472 2425.81 216.315 Q2425.81 209.949 2429.24 206.222 Q2432.69 202.473 2438.52 202.473 Q2443.75 202.473 2446.78 205.852 Q2449.84 209.209 2449.84 214.996 M2445.58 213.746 Q2445.53 210.25 2443.61 208.167 Q2441.71 206.084 2438.57 206.084 Q2435 206.084 2432.85 208.097 Q2430.72 210.111 2430.4 213.769 L2445.58 213.746 Z" fill="#000000" fill-rule="nonzero" fill-opacity="1" /><path clip-path="url(#clip110)" d="M2471.85 207.079 Q2471.14 206.662 2470.28 206.477 Q2469.45 206.269 2468.43 206.269 Q2464.82 206.269 2462.87 208.63 Q2460.95 210.968 2460.95 215.366 L2460.95 229.023 L2456.67 229.023 L2456.67 203.098 L2460.95 203.098 L2460.95 207.125 Q2462.29 204.764 2464.45 203.63 Q2466.6 202.473 2469.68 202.473 Q2470.12 202.473 2470.65 202.542 Q2471.18 202.588 2471.83 202.704 L2471.85 207.079 Z" fill="#000000" fill-rule="nonzero" fill-opacity="1" /><path clip-path="url(#clip110)" d="M2490.51 207.079 Q2489.79 206.662 2488.94 206.477 Q2488.1 206.269 2487.08 206.269 Q2483.47 206.269 2481.53 208.63 Q2479.61 210.968 2479.61 215.366 L2479.61 229.023 L2475.33 229.023 L2475.33 203.098 L2479.61 203.098 L2479.61 207.125 Q2480.95 204.764 2483.1 203.63 Q2485.26 202.473 2488.33 202.473 Q2488.77 202.473 2489.31 202.542 Q2489.84 202.588 2490.49 202.704 L2490.51 207.079 Z" fill="#000000" fill-rule="nonzero" fill-opacity="1" /><path clip-path="url(#clip110)" d="M2503.98 206.084 Q2500.56 206.084 2498.57 208.769 Q2496.58 211.431 2496.58 216.084 Q2496.58 220.736 2498.54 223.421 Q2500.53 226.083 2503.98 226.083 Q2507.39 226.083 2509.38 223.398 Q2511.37 220.713 2511.37 216.084 Q2511.37 211.477 2509.38 208.792 Q2507.39 206.084 2503.98 206.084 M2503.98 202.473 Q2509.54 202.473 2512.71 206.084 Q2515.88 209.695 2515.88 216.084 Q2515.88 222.449 2512.71 226.083 Q2509.54 229.695 2503.98 229.695 Q2498.4 229.695 2495.23 226.083 Q2492.08 222.449 2492.08 216.084 Q2492.08 209.695 2495.23 206.084 Q2498.4 202.473 2503.98 202.473 Z" fill="#000000" fill-rule="nonzero" fill-opacity="1" /><path clip-path="url(#clip110)" d="M2537.96 207.079 Q2537.25 206.662 2536.39 206.477 Q2535.56 206.269 2534.54 206.269 Q2530.93 206.269 2528.98 208.63 Q2527.06 210.968 2527.06 215.366 L2527.06 229.023 L2522.78 229.023 L2522.78 203.098 L2527.06 203.098 L2527.06 207.125 Q2528.4 204.764 2530.56 203.63 Q2532.71 202.473 2535.79 202.473 Q2536.23 202.473 2536.76 202.542 Q2537.29 202.588 2537.94 202.704 L2537.96 207.079 Z" fill="#000000" fill-rule="nonzero" fill-opacity="1" /></svg>
