<?xml version="1.0" encoding="utf-8"?>
<svg xmlns="http://www.w3.org/2000/svg" xmlns:xlink="http://www.w3.org/1999/xlink" width="600" height="400" viewBox="0 0 2400 1600">
<defs>
  <clipPath id="clip280">
    <rect x="0" y="0" width="2400" height="1600"/>
  </clipPath>
</defs>
<path clip-path="url(#clip280)" d="M0 1600 L2400 1600 L2400 8.88178e-14 L0 8.88178e-14  Z" fill="#ffffff" fill-rule="evenodd" fill-opacity="1"/>
<defs>
  <clipPath id="clip281">
    <rect x="210" y="47" width="2143" height="1377"/>
  </clipPath>
</defs>
<path clip-path="url(#clip280)" d="M219.866 1406.28 L2000.88 1406.28 L2000.88 47.2441 L219.866 47.2441  Z" fill="#ffffff" fill-rule="evenodd" fill-opacity="1"/>
<defs>
  <clipPath id="clip282">
    <rect x="219" y="47" width="1782" height="1360"/>
  </clipPath>
</defs>
<polyline clip-path="url(#clip282)" style="stroke:#000000; stroke-linecap:round; stroke-linejoin:round; stroke-width:2; stroke-opacity:0.1; fill:none" points="270.272,1406.28 270.272,47.2441 "/>
<polyline clip-path="url(#clip282)" style="stroke:#000000; stroke-linecap:round; stroke-linejoin:round; stroke-width:2; stroke-opacity:0.1; fill:none" points="691.97,1406.28 691.97,47.2441 "/>
<polyline clip-path="url(#clip282)" style="stroke:#000000; stroke-linecap:round; stroke-linejoin:round; stroke-width:2; stroke-opacity:0.1; fill:none" points="902.818,1406.28 902.818,47.2441 "/>
<polyline clip-path="url(#clip282)" style="stroke:#000000; stroke-linecap:round; stroke-linejoin:round; stroke-width:2; stroke-opacity:0.1; fill:none" points="1064.06,1406.28 1064.06,47.2441 "/>
<polyline clip-path="url(#clip282)" style="stroke:#000000; stroke-linecap:round; stroke-linejoin:round; stroke-width:2; stroke-opacity:0.1; fill:none" points="1113.67,1406.28 1113.67,47.2441 "/>
<polyline clip-path="url(#clip282)" style="stroke:#000000; stroke-linecap:round; stroke-linejoin:round; stroke-width:2; stroke-opacity:0.1; fill:none" points="1163.28,1406.28 1163.28,47.2441 "/>
<polyline clip-path="url(#clip282)" style="stroke:#000000; stroke-linecap:round; stroke-linejoin:round; stroke-width:2; stroke-opacity:0.1; fill:none" points="1324.52,1406.28 1324.52,47.2441 "/>
<polyline clip-path="url(#clip282)" style="stroke:#000000; stroke-linecap:round; stroke-linejoin:round; stroke-width:2; stroke-opacity:0.1; fill:none" points="1535.36,1406.28 1535.36,47.2441 "/>
<polyline clip-path="url(#clip282)" style="stroke:#000000; stroke-linecap:round; stroke-linejoin:round; stroke-width:2; stroke-opacity:0.1; fill:none" points="1957.06,1406.28 1957.06,47.2441 "/>
<polyline clip-path="url(#clip280)" style="stroke:#000000; stroke-linecap:round; stroke-linejoin:round; stroke-width:4; stroke-opacity:1; fill:none" points="219.866,1406.28 2000.88,1406.28 "/>
<polyline clip-path="url(#clip280)" style="stroke:#000000; stroke-linecap:round; stroke-linejoin:round; stroke-width:4; stroke-opacity:1; fill:none" points="270.272,1406.28 270.272,1387.38 "/>
<polyline clip-path="url(#clip280)" style="stroke:#000000; stroke-linecap:round; stroke-linejoin:round; stroke-width:4; stroke-opacity:1; fill:none" points="691.97,1406.28 691.97,1387.38 "/>
<polyline clip-path="url(#clip280)" style="stroke:#000000; stroke-linecap:round; stroke-linejoin:round; stroke-width:4; stroke-opacity:1; fill:none" points="902.818,1406.28 902.818,1387.38 "/>
<polyline clip-path="url(#clip280)" style="stroke:#000000; stroke-linecap:round; stroke-linejoin:round; stroke-width:4; stroke-opacity:1; fill:none" points="1064.06,1406.28 1064.06,1387.38 "/>
<polyline clip-path="url(#clip280)" style="stroke:#000000; stroke-linecap:round; stroke-linejoin:round; stroke-width:4; stroke-opacity:1; fill:none" points="1113.67,1406.28 1113.67,1387.38 "/>
<polyline clip-path="url(#clip280)" style="stroke:#000000; stroke-linecap:round; stroke-linejoin:round; stroke-width:4; stroke-opacity:1; fill:none" points="1163.28,1406.28 1163.28,1387.38 "/>
<polyline clip-path="url(#clip280)" style="stroke:#000000; stroke-linecap:round; stroke-linejoin:round; stroke-width:4; stroke-opacity:1; fill:none" points="1324.52,1406.28 1324.52,1387.38 "/>
<polyline clip-path="url(#clip280)" style="stroke:#000000; stroke-linecap:round; stroke-linejoin:round; stroke-width:4; stroke-opacity:1; fill:none" points="1535.36,1406.28 1535.36,1387.38 "/>
<polyline clip-path="url(#clip280)" style="stroke:#000000; stroke-linecap:round; stroke-linejoin:round; stroke-width:4; stroke-opacity:1; fill:none" points="1957.06,1406.28 1957.06,1387.38 "/>
<path clip-path="url(#clip280)" d="M269.933 1448.7 Q270.214 1448.98 270.214 1449.38 Q270.214 1449.78 269.933 1450.06 Q269.652 1450.34 269.253 1450.34 L239.226 1450.34 Q238.828 1450.34 238.547 1450.06 Q238.265 1449.78 238.265 1449.38 Q238.265 1448.98 238.547 1448.7 Q238.828 1448.42 239.226 1448.42 L269.253 1448.42 Q269.652 1448.42 269.933 1448.7 Z" fill="#000000" fill-rule="nonzero" fill-opacity="1" /><path clip-path="url(#clip280)" d="M301.118 1441.84 Q301.118 1443.48 298.775 1443.48 L293.295 1443.48 Q292.451 1447.37 292.451 1451.11 Q292.451 1455.59 293.833 1459.03 Q294.114 1459.71 294.114 1460.08 Q294.114 1460.79 293.482 1461.35 Q292.873 1461.91 292.147 1461.91 Q291.538 1461.91 291.14 1461.44 Q290.765 1460.97 290.437 1459.5 Q290.039 1457.77 290.039 1455.84 Q290.039 1453.55 290.414 1451.35 Q290.788 1449.12 292.053 1443.48 L286.643 1443.48 L283.949 1454.09 Q282.989 1457.67 282.661 1458.77 Q282.45 1459.43 282.38 1459.64 Q282.309 1459.85 282.099 1460.37 Q281.911 1460.86 281.771 1461.04 Q281.63 1461.21 281.396 1461.47 Q281.162 1461.75 280.881 1461.82 Q280.6 1461.91 280.248 1461.91 Q279.71 1461.91 279.288 1461.56 Q278.866 1461.23 278.866 1460.6 Q278.866 1460.18 279.241 1459.45 Q283.691 1449.85 285.378 1443.48 L282.661 1443.48 Q278.913 1443.48 276.571 1447.18 Q276.196 1447.67 275.985 1447.72 Q275.892 1447.74 275.798 1447.74 Q275.54 1447.74 275.376 1447.62 Q275.236 1447.51 275.236 1447.39 L275.212 1447.27 Q275.212 1447.13 275.564 1446.5 Q275.939 1445.84 276.641 1444.84 Q277.367 1443.83 278.14 1442.96 Q278.89 1442.17 279.616 1441.67 Q280.365 1441.16 281.068 1440.97 Q281.771 1440.78 282.169 1440.74 Q282.567 1440.69 283.129 1440.69 L299.197 1440.69 Q299.806 1440.69 300.134 1440.74 Q300.462 1440.76 300.79 1441.04 Q301.118 1441.3 301.118 1441.84 Z" fill="#000000" fill-rule="nonzero" fill-opacity="1" /><path clip-path="url(#clip280)" d="M682.103 1457.22 Q682.384 1457.5 682.384 1457.9 Q682.384 1458.3 682.103 1458.58 Q681.822 1458.86 681.424 1458.86 L651.396 1458.86 Q650.998 1458.86 650.717 1458.58 Q650.436 1458.3 650.436 1457.9 Q650.436 1457.5 650.717 1457.22 Q650.998 1456.94 651.396 1456.94 L681.424 1456.94 Q681.822 1456.94 682.103 1457.22 Z" fill="#000000" fill-rule="nonzero" fill-opacity="1" /><path clip-path="url(#clip280)" d="M723.528 1426.43 Q723.528 1428.07 721.186 1428.07 L715.705 1428.07 Q714.862 1431.95 714.862 1435.7 Q714.862 1440.17 716.244 1443.62 Q716.525 1444.3 716.525 1444.67 Q716.525 1445.37 715.892 1445.94 Q715.283 1446.5 714.557 1446.5 Q713.948 1446.5 713.55 1446.03 Q713.175 1445.56 712.847 1444.09 Q712.449 1442.35 712.449 1440.43 Q712.449 1438.14 712.824 1435.94 Q713.199 1433.71 714.463 1428.07 L709.053 1428.07 L706.359 1438.68 Q705.399 1442.26 705.071 1443.36 Q704.86 1444.02 704.79 1444.23 Q704.72 1444.44 704.509 1444.95 Q704.322 1445.44 704.181 1445.63 Q704.04 1445.8 703.806 1446.05 Q703.572 1446.33 703.291 1446.41 Q703.01 1446.5 702.659 1446.5 Q702.12 1446.5 701.698 1446.15 Q701.277 1445.82 701.277 1445.19 Q701.277 1444.77 701.651 1444.04 Q706.102 1434.44 707.788 1428.07 L705.071 1428.07 Q701.323 1428.07 698.981 1431.77 Q698.606 1432.26 698.396 1432.3 Q698.302 1432.33 698.208 1432.33 Q697.951 1432.33 697.787 1432.21 Q697.646 1432.09 697.646 1431.98 L697.623 1431.86 Q697.623 1431.72 697.974 1431.09 Q698.349 1430.43 699.052 1429.42 Q699.778 1428.42 700.551 1427.55 Q701.3 1426.75 702.026 1426.26 Q702.776 1425.75 703.478 1425.56 Q704.181 1425.37 704.579 1425.32 Q704.977 1425.28 705.54 1425.28 L721.607 1425.28 Q722.216 1425.28 722.544 1425.32 Q722.872 1425.35 723.2 1425.63 Q723.528 1425.89 723.528 1426.43 Z" fill="#000000" fill-rule="nonzero" fill-opacity="1" /><path clip-path="url(#clip280)" d="M697.623 1459.29 L728.383 1459.29 L728.383 1456.73 L697.623 1456.73  Z" fill="#000000" fill-rule="evenodd" fill-opacity="1"/>
<path clip-path="url(#clip280)" d="M700.623 1501.17 Q700.623 1500.31 700.693 1500.05 Q700.787 1499.79 701.161 1499.39 L710.366 1489.13 Q715.402 1483.46 715.402 1478.52 Q715.402 1475.31 713.716 1473.02 Q712.053 1470.72 708.985 1470.72 Q706.877 1470.72 705.096 1472.01 Q703.316 1473.3 702.497 1475.59 Q702.637 1475.55 703.129 1475.55 Q704.323 1475.55 704.979 1476.3 Q705.659 1477.05 705.659 1478.05 Q705.659 1479.34 704.815 1479.97 Q703.996 1480.58 703.176 1480.58 Q702.848 1480.58 702.403 1480.51 Q701.981 1480.44 701.302 1479.79 Q700.623 1479.11 700.623 1477.91 Q700.623 1474.56 703.152 1471.89 Q705.705 1469.22 709.594 1469.22 Q713.997 1469.22 716.878 1471.85 Q719.782 1474.45 719.782 1478.52 Q719.782 1479.95 719.337 1481.26 Q718.916 1482.55 718.33 1483.56 Q717.768 1484.57 716.222 1486.18 Q714.676 1487.8 713.435 1488.95 Q712.193 1490.09 709.406 1492.53 L704.323 1497.47 L712.966 1497.47 Q717.182 1497.47 717.51 1497.1 Q717.979 1496.42 718.564 1492.83 L719.782 1492.83 L718.424 1501.17 L700.623 1501.17 Z" fill="#000000" fill-rule="nonzero" fill-opacity="1" /><path clip-path="url(#clip280)" d="M892.951 1457.22 Q893.233 1457.5 893.233 1457.9 Q893.233 1458.3 892.951 1458.58 Q892.67 1458.86 892.272 1458.86 L862.245 1458.86 Q861.846 1458.86 861.565 1458.58 Q861.284 1458.3 861.284 1457.9 Q861.284 1457.5 861.565 1457.22 Q861.846 1456.94 862.245 1456.94 L892.272 1456.94 Q892.67 1456.94 892.951 1457.22 Z" fill="#000000" fill-rule="nonzero" fill-opacity="1" /><path clip-path="url(#clip280)" d="M934.377 1426.43 Q934.377 1428.07 932.034 1428.07 L926.553 1428.07 Q925.71 1431.95 925.71 1435.7 Q925.71 1440.17 927.092 1443.62 Q927.373 1444.3 927.373 1444.67 Q927.373 1445.37 926.741 1445.94 Q926.132 1446.5 925.406 1446.5 Q924.797 1446.5 924.399 1446.03 Q924.024 1445.56 923.696 1444.09 Q923.298 1442.35 923.298 1440.43 Q923.298 1438.14 923.673 1435.94 Q924.047 1433.71 925.312 1428.07 L919.902 1428.07 L917.208 1438.68 Q916.248 1442.26 915.92 1443.36 Q915.709 1444.02 915.639 1444.23 Q915.568 1444.44 915.358 1444.95 Q915.17 1445.44 915.03 1445.63 Q914.889 1445.8 914.655 1446.05 Q914.421 1446.33 914.14 1446.41 Q913.859 1446.5 913.507 1446.5 Q912.968 1446.5 912.547 1446.15 Q912.125 1445.82 912.125 1445.19 Q912.125 1444.77 912.5 1444.04 Q916.95 1434.44 918.637 1428.07 L915.92 1428.07 Q912.172 1428.07 909.83 1431.77 Q909.455 1432.26 909.244 1432.3 Q909.151 1432.33 909.057 1432.33 Q908.799 1432.33 908.635 1432.21 Q908.495 1432.09 908.495 1431.98 L908.471 1431.86 Q908.471 1431.72 908.823 1431.09 Q909.197 1430.43 909.9 1429.42 Q910.626 1428.42 911.399 1427.55 Q912.149 1426.75 912.875 1426.26 Q913.624 1425.75 914.327 1425.56 Q915.03 1425.37 915.428 1425.32 Q915.826 1425.28 916.388 1425.28 L932.456 1425.28 Q933.065 1425.28 933.393 1425.32 Q933.721 1425.35 934.049 1425.63 Q934.377 1425.89 934.377 1426.43 Z" fill="#000000" fill-rule="nonzero" fill-opacity="1" /><path clip-path="url(#clip280)" d="M908.471 1459.29 L939.232 1459.29 L939.232 1456.73 L908.471 1456.73  Z" fill="#000000" fill-rule="evenodd" fill-opacity="1"/>
<path clip-path="url(#clip280)" d="M910.471 1493.79 L910.471 1492.31 L925.204 1469.8 Q925.579 1469.22 926.164 1469.24 Q926.703 1469.24 926.82 1469.45 Q926.937 1469.66 926.937 1470.48 L926.937 1492.31 L931.739 1492.31 L931.739 1493.79 L926.937 1493.79 L926.937 1497.96 Q926.937 1499.34 927.499 1499.78 Q928.085 1500.23 930.568 1500.23 L931.575 1500.23 L931.575 1501.7 Q929.608 1501.56 925.064 1501.56 Q920.543 1501.56 918.576 1501.7 L918.576 1500.23 L919.583 1500.23 Q922.065 1500.23 922.651 1499.81 Q923.237 1499.36 923.237 1497.96 L923.237 1493.79 L910.471 1493.79 M911.83 1492.31 L923.518 1492.31 L923.518 1474.42 L911.83 1492.31 Z" fill="#000000" fill-rule="nonzero" fill-opacity="1" /><path clip-path="url(#clip280)" d="M1048.21 1457.22 Q1048.49 1457.5 1048.49 1457.9 Q1048.49 1458.3 1048.21 1458.58 Q1047.93 1458.86 1047.53 1458.86 L1017.51 1458.86 Q1017.11 1458.86 1016.83 1458.58 Q1016.55 1458.3 1016.55 1457.9 Q1016.55 1457.5 1016.83 1457.22 Q1017.11 1456.94 1017.51 1456.94 L1047.53 1456.94 Q1047.93 1456.94 1048.21 1457.22 Z" fill="#000000" fill-rule="nonzero" fill-opacity="1" /><path clip-path="url(#clip280)" d="M1095.64 1426.43 Q1095.64 1428.07 1093.3 1428.07 L1087.82 1428.07 Q1086.97 1431.95 1086.97 1435.7 Q1086.97 1440.17 1088.35 1443.62 Q1088.64 1444.3 1088.64 1444.67 Q1088.64 1445.37 1088 1445.94 Q1087.39 1446.5 1086.67 1446.5 Q1086.06 1446.5 1085.66 1446.03 Q1085.29 1445.56 1084.96 1444.09 Q1084.56 1442.35 1084.56 1440.43 Q1084.56 1438.14 1084.93 1435.94 Q1085.31 1433.71 1086.57 1428.07 L1081.16 1428.07 L1078.47 1438.68 Q1077.51 1442.26 1077.18 1443.36 Q1076.97 1444.02 1076.9 1444.23 Q1076.83 1444.44 1076.62 1444.95 Q1076.43 1445.44 1076.29 1445.63 Q1076.15 1445.8 1075.92 1446.05 Q1075.68 1446.33 1075.4 1446.41 Q1075.12 1446.5 1074.77 1446.5 Q1074.23 1446.5 1073.81 1446.15 Q1073.39 1445.82 1073.39 1445.19 Q1073.39 1444.77 1073.76 1444.04 Q1078.21 1434.44 1079.9 1428.07 L1077.18 1428.07 Q1073.43 1428.07 1071.09 1431.77 Q1070.72 1432.26 1070.51 1432.3 Q1070.41 1432.33 1070.32 1432.33 Q1070.06 1432.33 1069.9 1432.21 Q1069.76 1432.09 1069.76 1431.98 L1069.73 1431.86 Q1069.73 1431.72 1070.08 1431.09 Q1070.46 1430.43 1071.16 1429.42 Q1071.89 1428.42 1072.66 1427.55 Q1073.41 1426.75 1074.14 1426.26 Q1074.89 1425.75 1075.59 1425.56 Q1076.29 1425.37 1076.69 1425.32 Q1077.09 1425.28 1077.65 1425.28 L1093.72 1425.28 Q1094.33 1425.28 1094.65 1425.32 Q1094.98 1425.35 1095.31 1425.63 Q1095.64 1425.89 1095.64 1426.43 Z" fill="#000000" fill-rule="nonzero" fill-opacity="1" /><path clip-path="url(#clip280)" d="M1063.73 1459.29 L1106.44 1459.29 L1106.44 1456.73 L1063.73 1456.73  Z" fill="#000000" fill-rule="evenodd" fill-opacity="1"/>
<path clip-path="url(#clip280)" d="M1063.73 1474.24 L1063.73 1472.75 Q1069.5 1472.75 1072.47 1469.68 Q1073.29 1469.68 1073.43 1469.86 Q1073.57 1470.05 1073.57 1470.92 L1073.57 1497.83 Q1073.57 1499.26 1074.27 1499.7 Q1074.98 1500.15 1078.04 1500.15 L1079.57 1500.15 L1079.57 1501.63 Q1077.88 1501.48 1071.79 1501.48 Q1065.7 1501.48 1064.04 1501.63 L1064.04 1500.15 L1065.56 1500.15 Q1068.58 1500.15 1069.31 1499.73 Q1070.03 1499.28 1070.03 1497.83 L1070.03 1472.98 Q1067.53 1474.24 1063.73 1474.24 Z" fill="#000000" fill-rule="nonzero" fill-opacity="1" /><path clip-path="url(#clip280)" d="M1080.97 1479.07 L1082.53 1469.21 L1083.73 1469.21 Q1083.87 1469.79 1084.1 1470.05 Q1084.36 1470.31 1085.72 1470.52 Q1087.1 1470.73 1089.89 1470.73 L1101.53 1470.73 Q1101.53 1471.83 1101.11 1472.42 L1094.62 1481.53 Q1092.56 1484.41 1091.65 1489.73 Q1091.11 1493.29 1091.13 1497.6 L1091.13 1500.03 Q1091.13 1502.68 1088.91 1502.68 Q1086.7 1502.68 1086.7 1500.03 Q1086.7 1490.87 1092.61 1482 Q1093.24 1481.08 1095.56 1477.83 Q1097.9 1474.57 1097.99 1474.43 L1088.06 1474.43 Q1083.71 1474.43 1083.35 1474.71 Q1082.89 1475.13 1082.16 1479.07 L1080.97 1479.07 Z" fill="#000000" fill-rule="nonzero" fill-opacity="1" /><path clip-path="url(#clip280)" d="M1176.39 1426.43 Q1176.39 1428.07 1174.05 1428.07 L1168.56 1428.07 Q1167.72 1431.95 1167.72 1435.7 Q1167.72 1440.17 1169.1 1443.62 Q1169.38 1444.3 1169.38 1444.67 Q1169.38 1445.37 1168.75 1445.94 Q1168.14 1446.5 1167.42 1446.5 Q1166.81 1446.5 1166.41 1446.03 Q1166.04 1445.56 1165.71 1444.09 Q1165.31 1442.35 1165.31 1440.43 Q1165.31 1438.14 1165.68 1435.94 Q1166.06 1433.71 1167.32 1428.07 L1161.91 1428.07 L1159.22 1438.68 Q1158.26 1442.26 1157.93 1443.36 Q1157.72 1444.02 1157.65 1444.23 Q1157.58 1444.44 1157.37 1444.95 Q1157.18 1445.44 1157.04 1445.63 Q1156.9 1445.8 1156.67 1446.05 Q1156.43 1446.33 1156.15 1446.41 Q1155.87 1446.5 1155.52 1446.5 Q1154.98 1446.5 1154.56 1446.15 Q1154.14 1445.82 1154.14 1445.19 Q1154.14 1444.77 1154.51 1444.04 Q1158.96 1434.44 1160.65 1428.07 L1157.93 1428.07 Q1154.18 1428.07 1151.84 1431.77 Q1151.47 1432.26 1151.26 1432.3 Q1151.16 1432.33 1151.07 1432.33 Q1150.81 1432.33 1150.65 1432.21 Q1150.51 1432.09 1150.51 1431.98 L1150.48 1431.86 Q1150.48 1431.72 1150.83 1431.09 Q1151.21 1430.43 1151.91 1429.42 Q1152.64 1428.42 1153.41 1427.55 Q1154.16 1426.75 1154.89 1426.26 Q1155.64 1425.75 1156.34 1425.56 Q1157.04 1425.37 1157.44 1425.32 Q1157.84 1425.28 1158.4 1425.28 L1174.47 1425.28 Q1175.08 1425.28 1175.4 1425.32 Q1175.73 1425.35 1176.06 1425.63 Q1176.39 1425.89 1176.39 1426.43 Z" fill="#000000" fill-rule="nonzero" fill-opacity="1" /><path clip-path="url(#clip280)" d="M1144.48 1459.29 L1187.19 1459.29 L1187.19 1456.73 L1144.48 1456.73  Z" fill="#000000" fill-rule="evenodd" fill-opacity="1"/>
<path clip-path="url(#clip280)" d="M1144.48 1474.24 L1144.48 1472.75 Q1150.24 1472.75 1153.22 1469.68 Q1154.04 1469.68 1154.18 1469.86 Q1154.32 1470.05 1154.32 1470.92 L1154.32 1497.83 Q1154.32 1499.26 1155.02 1499.7 Q1155.73 1500.15 1158.79 1500.15 L1160.32 1500.15 L1160.32 1501.63 Q1158.63 1501.48 1152.54 1501.48 Q1146.45 1501.48 1144.79 1501.63 L1144.79 1500.15 L1146.31 1500.15 Q1149.33 1500.15 1150.06 1499.73 Q1150.78 1499.28 1150.78 1497.83 L1150.78 1472.98 Q1148.28 1474.24 1144.48 1474.24 Z" fill="#000000" fill-rule="nonzero" fill-opacity="1" /><path clip-path="url(#clip280)" d="M1161.71 1479.07 L1163.28 1469.21 L1164.48 1469.21 Q1164.62 1469.79 1164.85 1470.05 Q1165.11 1470.31 1166.47 1470.52 Q1167.85 1470.73 1170.64 1470.73 L1182.28 1470.73 Q1182.28 1471.83 1181.86 1472.42 L1175.37 1481.53 Q1173.31 1484.41 1172.4 1489.73 Q1171.86 1493.29 1171.88 1497.6 L1171.88 1500.03 Q1171.88 1502.68 1169.65 1502.68 Q1167.45 1502.68 1167.45 1500.03 Q1167.45 1490.87 1173.36 1482 Q1173.99 1481.08 1176.31 1477.83 Q1178.65 1474.57 1178.74 1474.43 L1168.81 1474.43 Q1164.45 1474.43 1164.1 1474.71 Q1163.64 1475.13 1162.91 1479.07 L1161.71 1479.07 Z" fill="#000000" fill-rule="nonzero" fill-opacity="1" /><path clip-path="url(#clip280)" d="M1337.6 1426.43 Q1337.6 1428.07 1335.26 1428.07 L1329.78 1428.07 Q1328.93 1431.95 1328.93 1435.7 Q1328.93 1440.17 1330.32 1443.62 Q1330.6 1444.3 1330.6 1444.67 Q1330.6 1445.37 1329.96 1445.94 Q1329.36 1446.5 1328.63 1446.5 Q1328.02 1446.5 1327.62 1446.03 Q1327.25 1445.56 1326.92 1444.09 Q1326.52 1442.35 1326.52 1440.43 Q1326.52 1438.14 1326.9 1435.94 Q1327.27 1433.71 1328.54 1428.07 L1323.13 1428.07 L1320.43 1438.68 Q1319.47 1442.26 1319.14 1443.36 Q1318.93 1444.02 1318.86 1444.23 Q1318.79 1444.44 1318.58 1444.95 Q1318.39 1445.44 1318.25 1445.63 Q1318.11 1445.8 1317.88 1446.05 Q1317.64 1446.33 1317.36 1446.41 Q1317.08 1446.5 1316.73 1446.5 Q1316.19 1446.5 1315.77 1446.15 Q1315.35 1445.82 1315.35 1445.19 Q1315.35 1444.77 1315.72 1444.04 Q1320.17 1434.44 1321.86 1428.07 L1319.14 1428.07 Q1315.4 1428.07 1313.05 1431.77 Q1312.68 1432.26 1312.47 1432.3 Q1312.37 1432.33 1312.28 1432.33 Q1312.02 1432.33 1311.86 1432.21 Q1311.72 1432.09 1311.72 1431.98 L1311.7 1431.86 Q1311.7 1431.72 1312.05 1431.09 Q1312.42 1430.43 1313.12 1429.42 Q1313.85 1428.42 1314.62 1427.55 Q1315.37 1426.75 1316.1 1426.26 Q1316.85 1425.75 1317.55 1425.56 Q1318.25 1425.37 1318.65 1425.32 Q1319.05 1425.28 1319.61 1425.28 L1335.68 1425.28 Q1336.29 1425.28 1336.62 1425.32 Q1336.94 1425.35 1337.27 1425.63 Q1337.6 1425.89 1337.6 1426.43 Z" fill="#000000" fill-rule="nonzero" fill-opacity="1" /><path clip-path="url(#clip280)" d="M1311.7 1459.29 L1342.46 1459.29 L1342.46 1456.73 L1311.7 1456.73  Z" fill="#000000" fill-rule="evenodd" fill-opacity="1"/>
<path clip-path="url(#clip280)" d="M1313.7 1493.79 L1313.7 1492.31 L1328.43 1469.8 Q1328.8 1469.22 1329.39 1469.24 Q1329.93 1469.24 1330.04 1469.45 Q1330.16 1469.66 1330.16 1470.48 L1330.16 1492.31 L1334.96 1492.31 L1334.96 1493.79 L1330.16 1493.79 L1330.16 1497.96 Q1330.16 1499.34 1330.72 1499.78 Q1331.31 1500.23 1333.79 1500.23 L1334.8 1500.23 L1334.8 1501.7 Q1332.83 1501.56 1328.29 1501.56 Q1323.77 1501.56 1321.8 1501.7 L1321.8 1500.23 L1322.81 1500.23 Q1325.29 1500.23 1325.87 1499.81 Q1326.46 1499.36 1326.46 1497.96 L1326.46 1493.79 L1313.7 1493.79 M1315.05 1492.31 L1326.74 1492.31 L1326.74 1474.42 L1315.05 1492.31 Z" fill="#000000" fill-rule="nonzero" fill-opacity="1" /><path clip-path="url(#clip280)" d="M1548.45 1426.43 Q1548.45 1428.07 1546.11 1428.07 L1540.63 1428.07 Q1539.78 1431.95 1539.78 1435.7 Q1539.78 1440.17 1541.16 1443.62 Q1541.45 1444.3 1541.45 1444.67 Q1541.45 1445.37 1540.81 1445.94 Q1540.2 1446.5 1539.48 1446.5 Q1538.87 1446.5 1538.47 1446.03 Q1538.1 1445.56 1537.77 1444.09 Q1537.37 1442.35 1537.37 1440.43 Q1537.37 1438.14 1537.74 1435.94 Q1538.12 1433.71 1539.38 1428.07 L1533.97 1428.07 L1531.28 1438.68 Q1530.32 1442.26 1529.99 1443.36 Q1529.78 1444.02 1529.71 1444.23 Q1529.64 1444.44 1529.43 1444.95 Q1529.24 1445.44 1529.1 1445.63 Q1528.96 1445.8 1528.73 1446.05 Q1528.49 1446.33 1528.21 1446.41 Q1527.93 1446.5 1527.58 1446.5 Q1527.04 1446.5 1526.62 1446.15 Q1526.2 1445.82 1526.2 1445.19 Q1526.2 1444.77 1526.57 1444.04 Q1531.02 1434.44 1532.71 1428.07 L1529.99 1428.07 Q1526.24 1428.07 1523.9 1431.77 Q1523.53 1432.26 1523.32 1432.3 Q1523.22 1432.33 1523.13 1432.33 Q1522.87 1432.33 1522.71 1432.21 Q1522.57 1432.09 1522.57 1431.98 L1522.54 1431.86 Q1522.54 1431.72 1522.9 1431.09 Q1523.27 1430.43 1523.97 1429.42 Q1524.7 1428.42 1525.47 1427.55 Q1526.22 1426.75 1526.95 1426.26 Q1527.7 1425.75 1528.4 1425.56 Q1529.1 1425.37 1529.5 1425.32 Q1529.9 1425.28 1530.46 1425.28 L1546.53 1425.28 Q1547.14 1425.28 1547.47 1425.32 Q1547.79 1425.35 1548.12 1425.63 Q1548.45 1425.89 1548.45 1426.43 Z" fill="#000000" fill-rule="nonzero" fill-opacity="1" /><path clip-path="url(#clip280)" d="M1522.54 1459.29 L1553.3 1459.29 L1553.3 1456.73 L1522.54 1456.73  Z" fill="#000000" fill-rule="evenodd" fill-opacity="1"/>
<path clip-path="url(#clip280)" d="M1525.54 1501.17 Q1525.54 1500.31 1525.61 1500.05 Q1525.71 1499.79 1526.08 1499.39 L1535.29 1489.13 Q1540.32 1483.46 1540.32 1478.52 Q1540.32 1475.31 1538.64 1473.02 Q1536.97 1470.72 1533.91 1470.72 Q1531.8 1470.72 1530.02 1472.01 Q1528.24 1473.3 1527.42 1475.59 Q1527.56 1475.55 1528.05 1475.55 Q1529.24 1475.55 1529.9 1476.3 Q1530.58 1477.05 1530.58 1478.05 Q1530.58 1479.34 1529.74 1479.97 Q1528.92 1480.58 1528.1 1480.58 Q1527.77 1480.58 1527.32 1480.51 Q1526.9 1480.44 1526.22 1479.79 Q1525.54 1479.11 1525.54 1477.91 Q1525.54 1474.56 1528.07 1471.89 Q1530.63 1469.22 1534.51 1469.22 Q1538.92 1469.22 1541.8 1471.85 Q1544.7 1474.45 1544.7 1478.52 Q1544.7 1479.95 1544.26 1481.26 Q1543.84 1482.55 1543.25 1483.56 Q1542.69 1484.57 1541.14 1486.18 Q1539.6 1487.8 1538.36 1488.95 Q1537.11 1490.09 1534.33 1492.53 L1529.24 1497.47 L1537.89 1497.47 Q1542.1 1497.47 1542.43 1497.1 Q1542.9 1496.42 1543.49 1492.83 L1544.7 1492.83 L1543.34 1501.17 L1525.54 1501.17 Z" fill="#000000" fill-rule="nonzero" fill-opacity="1" /><path clip-path="url(#clip280)" d="M1969.43 1441.84 Q1969.43 1443.48 1967.09 1443.48 L1961.61 1443.48 Q1960.77 1447.37 1960.77 1451.11 Q1960.77 1455.59 1962.15 1459.03 Q1962.43 1459.71 1962.43 1460.08 Q1962.43 1460.79 1961.8 1461.35 Q1961.19 1461.91 1960.46 1461.91 Q1959.85 1461.91 1959.46 1461.44 Q1959.08 1460.97 1958.75 1459.5 Q1958.35 1457.77 1958.35 1455.84 Q1958.35 1453.55 1958.73 1451.35 Q1959.1 1449.12 1960.37 1443.48 L1954.96 1443.48 L1952.26 1454.09 Q1951.3 1457.67 1950.98 1458.77 Q1950.77 1459.43 1950.7 1459.64 Q1950.63 1459.85 1950.41 1460.37 Q1950.23 1460.86 1950.09 1461.04 Q1949.95 1461.21 1949.71 1461.47 Q1949.48 1461.75 1949.2 1461.82 Q1948.92 1461.91 1948.56 1461.91 Q1948.03 1461.91 1947.6 1461.56 Q1947.18 1461.23 1947.18 1460.6 Q1947.18 1460.18 1947.56 1459.45 Q1952.01 1449.85 1953.69 1443.48 L1950.98 1443.48 Q1947.23 1443.48 1944.89 1447.18 Q1944.51 1447.67 1944.3 1447.72 Q1944.21 1447.74 1944.11 1447.74 Q1943.86 1447.74 1943.69 1447.62 Q1943.55 1447.51 1943.55 1447.39 L1943.53 1447.27 Q1943.53 1447.13 1943.88 1446.5 Q1944.25 1445.84 1944.96 1444.84 Q1945.68 1443.83 1946.46 1442.96 Q1947.21 1442.17 1947.93 1441.67 Q1948.68 1441.16 1949.38 1440.97 Q1950.09 1440.78 1950.48 1440.74 Q1950.88 1440.69 1951.44 1440.69 L1967.51 1440.69 Q1968.12 1440.69 1968.45 1440.74 Q1968.78 1440.76 1969.11 1441.04 Q1969.43 1441.3 1969.43 1441.84 Z" fill="#000000" fill-rule="nonzero" fill-opacity="1" /><path clip-path="url(#clip280)" d="M1129.04 1537.51 Q1129.04 1540.51 1127.52 1546.31 Q1126.91 1548.82 1126.08 1551.1 Q1125.27 1553.36 1124.08 1555.55 Q1122.89 1557.74 1121.5 1559.32 Q1120.12 1560.86 1118.31 1561.83 Q1116.51 1562.79 1114.51 1562.79 Q1111.36 1562.79 1109.49 1560.93 Q1107.65 1559.03 1107.07 1555.77 Q1102.76 1562.79 1096.99 1562.79 Q1093.42 1562.79 1091.74 1560.25 Q1090.07 1557.67 1090.07 1553.36 Q1090.07 1549.72 1091.04 1545.95 Q1092.87 1538.8 1096.45 1533.81 Q1096.93 1533.23 1097.64 1533.23 Q1098.06 1533.23 1098.25 1533.36 Q1098.83 1533.71 1098.83 1534.29 Q1098.83 1534.71 1098.51 1535.13 Q1096.25 1538.25 1094.77 1540.93 Q1093.29 1543.6 1092.61 1546.31 Q1092.1 1548.62 1092.1 1550.59 Q1092.1 1553.91 1093.51 1555.97 Q1094.96 1558.03 1097.83 1558.03 Q1100.47 1558.03 1102.79 1556.39 Q1105.11 1554.71 1106.82 1551.91 Q1106.91 1548.85 1107.65 1545.95 Q1108.33 1542.86 1109.91 1542.86 Q1111.16 1542.86 1111.16 1544.57 Q1111.16 1545.15 1110.91 1546.31 Q1110.2 1549.37 1108.91 1552.1 Q1109.36 1554.78 1111.03 1556.42 Q1112.71 1558.03 1115.38 1558.03 Q1117.86 1558.03 1120.05 1556.22 Q1122.27 1554.42 1123.69 1551.78 Q1125.14 1549.11 1125.95 1545.95 Q1126.2 1544.89 1126.2 1543.54 Q1126.2 1539.93 1123.69 1537.71 Q1122.98 1537 1122.98 1536.06 Q1122.98 1534.97 1123.89 1533.97 Q1124.95 1532.91 1126.2 1532.91 Q1127.14 1532.91 1127.72 1533.49 Q1129.04 1534.65 1129.04 1537.51 Z" fill="#000000" fill-rule="nonzero" fill-opacity="1" /><polyline clip-path="url(#clip280)" style="stroke:#000000; stroke-linecap:round; stroke-linejoin:round; stroke-width:4; stroke-opacity:1; fill:none" points="219.866,1406.28 219.866,47.2441 "/>
<polyline clip-path="url(#clip280)" style="stroke:#000000; stroke-linecap:round; stroke-linejoin:round; stroke-width:4; stroke-opacity:1; fill:none" points="219.866,1367.81 238.764,1367.81 "/>
<polyline clip-path="url(#clip280)" style="stroke:#000000; stroke-linecap:round; stroke-linejoin:round; stroke-width:4; stroke-opacity:1; fill:none" points="219.866,1111.7 238.764,1111.7 "/>
<polyline clip-path="url(#clip280)" style="stroke:#000000; stroke-linecap:round; stroke-linejoin:round; stroke-width:4; stroke-opacity:1; fill:none" points="219.866,855.591 238.764,855.591 "/>
<polyline clip-path="url(#clip280)" style="stroke:#000000; stroke-linecap:round; stroke-linejoin:round; stroke-width:4; stroke-opacity:1; fill:none" points="219.866,599.48 238.764,599.48 "/>
<polyline clip-path="url(#clip280)" style="stroke:#000000; stroke-linecap:round; stroke-linejoin:round; stroke-width:4; stroke-opacity:1; fill:none" points="219.866,343.37 238.764,343.37 "/>
<polyline clip-path="url(#clip280)" style="stroke:#000000; stroke-linecap:round; stroke-linejoin:round; stroke-width:4; stroke-opacity:1; fill:none" points="219.866,87.2589 238.764,87.2589 "/>
<path clip-path="url(#clip280)" d="M126.691 1353.61 Q123.08 1353.61 121.251 1357.18 Q119.445 1360.72 119.445 1367.85 Q119.445 1374.95 121.251 1378.52 Q123.08 1382.06 126.691 1382.06 Q130.325 1382.06 132.13 1378.52 Q133.959 1374.95 133.959 1367.85 Q133.959 1360.72 132.13 1357.18 Q130.325 1353.61 126.691 1353.61 M126.691 1349.91 Q132.501 1349.91 135.556 1354.51 Q138.635 1359.1 138.635 1367.85 Q138.635 1376.57 135.556 1381.18 Q132.501 1385.76 126.691 1385.76 Q120.88 1385.76 117.802 1381.18 Q114.746 1376.57 114.746 1367.85 Q114.746 1359.1 117.802 1354.51 Q120.88 1349.91 126.691 1349.91 Z" fill="#000000" fill-rule="nonzero" fill-opacity="1" /><path clip-path="url(#clip280)" d="M146.853 1379.21 L151.737 1379.21 L151.737 1385.09 L146.853 1385.09 L146.853 1379.21 Z" fill="#000000" fill-rule="nonzero" fill-opacity="1" /><path clip-path="url(#clip280)" d="M171.922 1353.61 Q168.311 1353.61 166.482 1357.18 Q164.677 1360.72 164.677 1367.85 Q164.677 1374.95 166.482 1378.52 Q168.311 1382.06 171.922 1382.06 Q175.556 1382.06 177.362 1378.52 Q179.19 1374.95 179.19 1367.85 Q179.19 1360.72 177.362 1357.18 Q175.556 1353.61 171.922 1353.61 M171.922 1349.91 Q177.732 1349.91 180.788 1354.51 Q183.866 1359.1 183.866 1367.85 Q183.866 1376.57 180.788 1381.18 Q177.732 1385.76 171.922 1385.76 Q166.112 1385.76 163.033 1381.18 Q159.978 1376.57 159.978 1367.85 Q159.978 1359.1 163.033 1354.51 Q166.112 1349.91 171.922 1349.91 Z" fill="#000000" fill-rule="nonzero" fill-opacity="1" /><path clip-path="url(#clip280)" d="M127.917 1097.5 Q124.306 1097.5 122.478 1101.07 Q120.672 1104.61 120.672 1111.74 Q120.672 1118.84 122.478 1122.41 Q124.306 1125.95 127.917 1125.95 Q131.552 1125.95 133.357 1122.41 Q135.186 1118.84 135.186 1111.74 Q135.186 1104.61 133.357 1101.07 Q131.552 1097.5 127.917 1097.5 M127.917 1093.8 Q133.728 1093.8 136.783 1098.4 Q139.862 1102.99 139.862 1111.74 Q139.862 1120.46 136.783 1125.07 Q133.728 1129.65 127.917 1129.65 Q122.107 1129.65 119.029 1125.07 Q115.973 1120.46 115.973 1111.74 Q115.973 1102.99 119.029 1098.4 Q122.107 1093.8 127.917 1093.8 Z" fill="#000000" fill-rule="nonzero" fill-opacity="1" /><path clip-path="url(#clip280)" d="M148.079 1123.1 L152.964 1123.1 L152.964 1128.98 L148.079 1128.98 L148.079 1123.1 Z" fill="#000000" fill-rule="nonzero" fill-opacity="1" /><path clip-path="url(#clip280)" d="M163.959 1125.05 L171.598 1125.05 L171.598 1098.68 L163.288 1100.35 L163.288 1096.09 L171.552 1094.42 L176.227 1094.42 L176.227 1125.05 L183.866 1125.05 L183.866 1128.98 L163.959 1128.98 L163.959 1125.05 Z" fill="#000000" fill-rule="nonzero" fill-opacity="1" /><path clip-path="url(#clip280)" d="M128.288 841.39 Q124.677 841.39 122.848 844.955 Q121.043 848.496 121.043 855.626 Q121.043 862.732 122.848 866.297 Q124.677 869.839 128.288 869.839 Q131.922 869.839 133.728 866.297 Q135.556 862.732 135.556 855.626 Q135.556 848.496 133.728 844.955 Q131.922 841.39 128.288 841.39 M128.288 837.686 Q134.098 837.686 137.154 842.293 Q140.232 846.876 140.232 855.626 Q140.232 864.353 137.154 868.959 Q134.098 873.542 128.288 873.542 Q122.478 873.542 119.399 868.959 Q116.343 864.353 116.343 855.626 Q116.343 846.876 119.399 842.293 Q122.478 837.686 128.288 837.686 Z" fill="#000000" fill-rule="nonzero" fill-opacity="1" /><path clip-path="url(#clip280)" d="M148.45 866.991 L153.334 866.991 L153.334 872.871 L148.45 872.871 L148.45 866.991 Z" fill="#000000" fill-rule="nonzero" fill-opacity="1" /><path clip-path="url(#clip280)" d="M167.547 868.936 L183.866 868.936 L183.866 872.871 L161.922 872.871 L161.922 868.936 Q164.584 866.181 169.167 861.552 Q173.774 856.899 174.954 855.556 Q177.2 853.033 178.079 851.297 Q178.982 849.538 178.982 847.848 Q178.982 845.093 177.038 843.357 Q175.116 841.621 172.014 841.621 Q169.815 841.621 167.362 842.385 Q164.931 843.149 162.153 844.7 L162.153 839.978 Q164.977 838.843 167.431 838.265 Q169.885 837.686 171.922 837.686 Q177.292 837.686 180.487 840.371 Q183.681 843.056 183.681 847.547 Q183.681 849.677 182.871 851.598 Q182.084 853.496 179.977 856.089 Q179.399 856.76 176.297 859.978 Q173.195 863.172 167.547 868.936 Z" fill="#000000" fill-rule="nonzero" fill-opacity="1" /><path clip-path="url(#clip280)" d="M127.339 585.279 Q123.728 585.279 121.899 588.844 Q120.093 592.385 120.093 599.515 Q120.093 606.622 121.899 610.186 Q123.728 613.728 127.339 613.728 Q130.973 613.728 132.779 610.186 Q134.607 606.622 134.607 599.515 Q134.607 592.385 132.779 588.844 Q130.973 585.279 127.339 585.279 M127.339 581.575 Q133.149 581.575 136.204 586.182 Q139.283 590.765 139.283 599.515 Q139.283 608.242 136.204 612.848 Q133.149 617.432 127.339 617.432 Q121.529 617.432 118.45 612.848 Q115.394 608.242 115.394 599.515 Q115.394 590.765 118.45 586.182 Q121.529 581.575 127.339 581.575 Z" fill="#000000" fill-rule="nonzero" fill-opacity="1" /><path clip-path="url(#clip280)" d="M147.501 610.881 L152.385 610.881 L152.385 616.76 L147.501 616.76 L147.501 610.881 Z" fill="#000000" fill-rule="nonzero" fill-opacity="1" /><path clip-path="url(#clip280)" d="M176.737 598.126 Q180.093 598.844 181.968 601.112 Q183.866 603.381 183.866 606.714 Q183.866 611.83 180.348 614.631 Q176.829 617.432 170.348 617.432 Q168.172 617.432 165.857 616.992 Q163.565 616.575 161.112 615.719 L161.112 611.205 Q163.056 612.339 165.371 612.918 Q167.686 613.496 170.209 613.496 Q174.607 613.496 176.899 611.76 Q179.214 610.024 179.214 606.714 Q179.214 603.659 177.061 601.946 Q174.931 600.21 171.112 600.21 L167.084 600.21 L167.084 596.367 L171.297 596.367 Q174.746 596.367 176.575 595.001 Q178.403 593.612 178.403 591.02 Q178.403 588.358 176.505 586.946 Q174.63 585.511 171.112 585.511 Q169.19 585.511 166.991 585.927 Q164.792 586.344 162.153 587.223 L162.153 583.057 Q164.815 582.316 167.13 581.946 Q169.468 581.575 171.528 581.575 Q176.852 581.575 179.954 584.006 Q183.056 586.413 183.056 590.534 Q183.056 593.404 181.413 595.395 Q179.769 597.362 176.737 598.126 Z" fill="#000000" fill-rule="nonzero" fill-opacity="1" /><path clip-path="url(#clip280)" d="M126.205 329.168 Q122.593 329.168 120.765 332.733 Q118.959 336.275 118.959 343.404 Q118.959 350.511 120.765 354.076 Q122.593 357.617 126.205 357.617 Q129.839 357.617 131.644 354.076 Q133.473 350.511 133.473 343.404 Q133.473 336.275 131.644 332.733 Q129.839 329.168 126.205 329.168 M126.205 325.465 Q132.015 325.465 135.07 330.071 Q138.149 334.654 138.149 343.404 Q138.149 352.131 135.07 356.738 Q132.015 361.321 126.205 361.321 Q120.394 361.321 117.316 356.738 Q114.26 352.131 114.26 343.404 Q114.26 334.654 117.316 330.071 Q120.394 325.465 126.205 325.465 Z" fill="#000000" fill-rule="nonzero" fill-opacity="1" /><path clip-path="url(#clip280)" d="M146.366 354.77 L151.251 354.77 L151.251 360.65 L146.366 360.65 L146.366 354.77 Z" fill="#000000" fill-rule="nonzero" fill-opacity="1" /><path clip-path="url(#clip280)" d="M174.283 330.164 L162.477 348.613 L174.283 348.613 L174.283 330.164 M173.056 326.09 L178.936 326.09 L178.936 348.613 L183.866 348.613 L183.866 352.502 L178.936 352.502 L178.936 360.65 L174.283 360.65 L174.283 352.502 L158.681 352.502 L158.681 347.988 L173.056 326.09 Z" fill="#000000" fill-rule="nonzero" fill-opacity="1" /><path clip-path="url(#clip280)" d="M127.686 73.0576 Q124.075 73.0576 122.246 76.6224 Q120.441 80.1641 120.441 87.2937 Q120.441 94.4001 122.246 97.9649 Q124.075 101.507 127.686 101.507 Q131.32 101.507 133.126 97.9649 Q134.954 94.4001 134.954 87.2937 Q134.954 80.1641 133.126 76.6224 Q131.32 73.0576 127.686 73.0576 M127.686 69.3539 Q133.496 69.3539 136.552 73.9604 Q139.63 78.5437 139.63 87.2937 Q139.63 96.0205 136.552 100.627 Q133.496 105.21 127.686 105.21 Q121.876 105.21 118.797 100.627 Q115.742 96.0205 115.742 87.2937 Q115.742 78.5437 118.797 73.9604 Q121.876 69.3539 127.686 69.3539 Z" fill="#000000" fill-rule="nonzero" fill-opacity="1" /><path clip-path="url(#clip280)" d="M147.848 98.6593 L152.732 98.6593 L152.732 104.539 L147.848 104.539 L147.848 98.6593 Z" fill="#000000" fill-rule="nonzero" fill-opacity="1" /><path clip-path="url(#clip280)" d="M162.964 69.9789 L181.32 69.9789 L181.32 73.9141 L167.246 73.9141 L167.246 82.3863 Q168.264 82.0391 169.283 81.877 Q170.302 81.6918 171.32 81.6918 Q177.107 81.6918 180.487 84.8631 Q183.866 88.0344 183.866 93.451 Q183.866 99.0297 180.394 102.132 Q176.922 105.21 170.602 105.21 Q168.427 105.21 166.158 104.84 Q163.913 104.469 161.505 103.729 L161.505 99.0297 Q163.589 100.164 165.811 100.72 Q168.033 101.275 170.51 101.275 Q174.514 101.275 176.852 99.1686 Q179.19 97.0621 179.19 93.451 Q179.19 89.8399 176.852 87.7335 Q174.514 85.627 170.51 85.627 Q168.635 85.627 166.76 86.0437 Q164.908 86.4603 162.964 87.34 L162.964 69.9789 Z" fill="#000000" fill-rule="nonzero" fill-opacity="1" /><path clip-path="url(#clip280)" d="M16.4842 894.496 L16.4842 884.916 L48.8219 872.789 L16.4842 860.599 L16.4842 851.018 L64.0042 851.018 L64.0042 857.289 L22.277 857.289 L54.8694 869.543 L54.8694 876.004 L22.277 888.258 L64.0042 888.258 L64.0042 894.496 L16.4842 894.496 Z" fill="#000000" fill-rule="nonzero" fill-opacity="1" /><path clip-path="url(#clip280)" d="M46.0847 822.309 Q46.0847 829.407 47.7079 832.144 Q49.3312 834.881 53.2461 834.881 Q56.3653 834.881 58.2114 832.844 Q60.0256 830.776 60.0256 827.243 Q60.0256 822.373 56.5881 819.445 Q53.1188 816.485 47.3897 816.485 L46.0847 816.485 L46.0847 822.309 M43.6657 810.628 L64.0042 810.628 L64.0042 816.485 L58.5933 816.485 Q61.8398 818.49 63.3994 821.482 Q64.9272 824.473 64.9272 828.802 Q64.9272 834.277 61.8716 837.523 Q58.7843 840.738 53.6281 840.738 Q47.6125 840.738 44.5569 836.727 Q41.5014 832.685 41.5014 824.696 L41.5014 816.485 L40.9285 816.485 Q36.8862 816.485 34.6901 819.158 Q32.4621 821.8 32.4621 826.606 Q32.4621 829.662 33.1941 832.558 Q33.9262 835.454 35.3903 838.128 L29.9795 838.128 Q28.7381 834.913 28.1334 831.89 Q27.4968 828.866 27.4968 826.001 Q27.4968 818.267 31.5072 814.447 Q35.5176 810.628 43.6657 810.628 Z" fill="#000000" fill-rule="nonzero" fill-opacity="1" /><path clip-path="url(#clip280)" d="M45.7664 775.107 Q39.4007 775.107 35.8996 777.749 Q32.3984 780.359 32.3984 785.102 Q32.3984 789.812 35.8996 792.454 Q39.4007 795.064 45.7664 795.064 Q52.1003 795.064 55.6014 792.454 Q59.1026 789.812 59.1026 785.102 Q59.1026 780.359 55.6014 777.749 Q52.1003 775.107 45.7664 775.107 M59.58 769.251 Q68.683 769.251 73.1071 773.293 Q77.5631 777.335 77.5631 785.675 Q77.5631 788.762 77.0857 791.499 Q76.6401 794.236 75.6852 796.814 L69.9879 796.814 Q71.3884 794.236 72.0568 791.722 Q72.7252 789.207 72.7252 786.598 Q72.7252 780.837 69.7015 777.972 Q66.7096 775.107 60.6303 775.107 L57.7339 775.107 Q60.885 776.922 62.4446 779.754 Q64.0042 782.587 64.0042 786.534 Q64.0042 793.091 59.0071 797.101 Q54.01 801.111 45.7664 801.111 Q37.491 801.111 32.4939 797.101 Q27.4968 793.091 27.4968 786.534 Q27.4968 782.587 29.0564 779.754 Q30.616 776.922 33.7671 775.107 L28.3562 775.107 L28.3562 769.251 L59.58 769.251 Z" fill="#000000" fill-rule="nonzero" fill-opacity="1" /><path clip-path="url(#clip280)" d="M42.4881 727.556 L64.0042 727.556 L64.0042 733.412 L42.679 733.412 Q37.6183 733.412 35.1038 735.385 Q32.5894 737.359 32.5894 741.306 Q32.5894 746.048 35.6131 748.785 Q38.6368 751.522 43.8567 751.522 L64.0042 751.522 L64.0042 757.411 L28.3562 757.411 L28.3562 751.522 L33.8944 751.522 Q30.6797 749.422 29.0883 746.589 Q27.4968 743.724 27.4968 740.001 Q27.4968 733.858 31.3163 730.707 Q35.1038 727.556 42.4881 727.556 Z" fill="#000000" fill-rule="nonzero" fill-opacity="1" /><path clip-path="url(#clip280)" d="M28.3562 715.875 L28.3562 710.018 L64.0042 710.018 L64.0042 715.875 L28.3562 715.875 M14.479 715.875 L14.479 710.018 L21.895 710.018 L21.895 715.875 L14.479 715.875 Z" fill="#000000" fill-rule="nonzero" fill-opacity="1" /><path clip-path="url(#clip280)" d="M18.2347 691.971 L28.3562 691.971 L28.3562 679.908 L32.9077 679.908 L32.9077 691.971 L52.2594 691.971 Q56.6199 691.971 57.8613 690.794 Q59.1026 689.584 59.1026 685.924 L59.1026 679.908 L64.0042 679.908 L64.0042 685.924 Q64.0042 692.703 61.4897 695.281 Q58.9434 697.86 52.2594 697.86 L32.9077 697.86 L32.9077 702.156 L28.3562 702.156 L28.3562 697.86 L18.2347 697.86 L18.2347 691.971 Z" fill="#000000" fill-rule="nonzero" fill-opacity="1" /><path clip-path="url(#clip280)" d="M49.9359 672.811 L28.3562 672.811 L28.3562 666.954 L49.7131 666.954 Q54.7739 666.954 57.3202 664.981 Q59.8346 663.007 59.8346 659.061 Q59.8346 654.318 56.8109 651.581 Q53.7872 648.812 48.5673 648.812 L28.3562 648.812 L28.3562 642.955 L64.0042 642.955 L64.0042 648.812 L58.5296 648.812 Q61.7762 650.944 63.3676 653.777 Q64.9272 656.578 64.9272 660.302 Q64.9272 666.445 61.1078 669.628 Q57.2883 672.811 49.9359 672.811 M27.4968 658.074 L27.4968 658.074 Z" fill="#000000" fill-rule="nonzero" fill-opacity="1" /><path clip-path="url(#clip280)" d="M33.7671 607.435 L14.479 607.435 L14.479 601.578 L64.0042 601.578 L64.0042 607.435 L58.657 607.435 Q61.8398 609.281 63.3994 612.114 Q64.9272 614.914 64.9272 618.861 Q64.9272 625.322 59.771 629.396 Q54.6147 633.439 46.212 633.439 Q37.8093 633.439 32.6531 629.396 Q27.4968 625.322 27.4968 618.861 Q27.4968 614.914 29.0564 612.114 Q30.5842 609.281 33.7671 607.435 M46.212 627.391 Q52.6732 627.391 56.3653 624.749 Q60.0256 622.076 60.0256 617.429 Q60.0256 612.782 56.3653 610.108 Q52.6732 607.435 46.212 607.435 Q39.7508 607.435 36.0905 610.108 Q32.3984 612.782 32.3984 617.429 Q32.3984 622.076 36.0905 624.749 Q39.7508 627.391 46.212 627.391 Z" fill="#000000" fill-rule="nonzero" fill-opacity="1" /><path clip-path="url(#clip280)" d="M44.7161 559.024 L47.5806 559.024 L47.5806 585.95 Q53.6281 585.569 56.8109 582.322 Q59.9619 579.044 59.9619 573.219 Q59.9619 569.845 59.1344 566.694 Q58.3069 563.511 56.6518 560.392 L62.1899 560.392 Q63.5267 563.543 64.227 566.853 Q64.9272 570.164 64.9272 573.569 Q64.9272 582.099 59.9619 587.096 Q54.9967 592.062 46.5303 592.062 Q37.7774 592.062 32.6531 587.351 Q27.4968 582.608 27.4968 574.588 Q27.4968 567.394 32.1438 563.225 Q36.7589 559.024 44.7161 559.024 M42.9973 564.88 Q38.1912 564.944 35.3266 567.585 Q32.4621 570.195 32.4621 574.524 Q32.4621 579.426 35.2312 582.386 Q38.0002 585.314 43.0292 585.759 L42.9973 564.88 Z" fill="#000000" fill-rule="nonzero" fill-opacity="1" /><polyline clip-path="url(#clip282)" style="stroke:#009af9; stroke-linecap:round; stroke-linejoin:round; stroke-width:8; stroke-opacity:1; fill:none" points="270.272,1367.81 276.861,1367.8 283.45,1367.79 290.039,1367.78 296.628,1367.77 303.217,1367.76 309.806,1367.74 316.395,1367.73 322.984,1367.72 329.573,1367.71 336.162,1367.7 342.751,1367.69 349.341,1367.67 355.93,1367.66 362.519,1367.65 369.108,1367.64 375.697,1367.62 382.286,1367.61 388.875,1367.6 395.464,1367.59 402.053,1367.57 408.642,1367.56 415.231,1367.55 421.82,1367.53 428.409,1367.52 434.998,1367.5 441.587,1367.49 448.176,1367.47 454.765,1367.46 461.354,1367.44 467.943,1367.43 474.532,1367.41 481.121,1367.4 487.71,1367.38 494.299,1367.36 500.888,1367.34 507.477,1367.33 514.066,1367.31 520.655,1367.29 527.244,1367.27 533.833,1367.25 540.422,1367.23 547.011,1367.21 553.6,1367.18 560.189,1367.16 566.778,1367.14 573.367,1367.11 579.956,1367.09 586.545,1367.06 593.134,1367.04 599.723,1367.01 606.312,1366.98 612.901,1366.95 619.49,1366.92 626.079,1366.89 632.668,1366.86 639.257,1366.82 645.846,1366.79 652.435,1366.75 659.024,1366.71 665.613,1366.67 672.202,1366.63 678.791,1366.58 685.381,1366.54 691.97,1366.49 698.559,1366.44 705.148,1366.39 711.737,1366.33 718.326,1366.27 724.915,1366.21 731.504,1366.15 738.093,1366.08 744.682,1366.01 751.271,1365.93 757.86,1365.85 764.449,1365.77 771.038,1365.68 777.627,1365.58 784.216,1365.48 790.805,1365.38 797.394,1365.26 803.983,1365.14 810.572,1365.01 817.161,1364.88 823.75,1364.73 830.339,1364.57 836.928,1364.4 843.517,1364.21 850.106,1364.02 856.695,1363.8 863.284,1363.57 869.873,1363.32 876.462,1363.04 883.051,1362.74 889.64,1362.41 896.229,1362.05 902.818,85.7073 909.407,1361.21 915.996,1360.72 922.585,1360.17 929.174,1359.56 935.763,1358.87 942.352,1358.1 948.941,1357.21 955.53,1356.19 962.119,1355.02 968.708,1353.66 975.297,1352.05 981.886,1350.15 988.475,1347.87 995.064,1345.09 1001.65,1341.64 1008.24,1337.28 1014.83,1331.63 1021.42,1324.06 1028.01,1313.5 1034.6,1297.91 1041.19,1272.85 1047.78,1226.73 1054.37,1116.34 1060.95,530.989 1067.54,572.473 1074.13,1072.06 1080.72,1174.66 1087.31,1217.34 1093.9,1239.41 1100.49,1251.58 1107.08,1257.83 1113.67,1259.77 1120.26,1257.83 1126.84,1251.58 1133.43,1239.41 1140.02,1217.34 1146.61,1174.66 1153.2,1072.06 1159.79,572.473 1166.38,530.989 1172.97,1116.34 1179.56,1226.73 1186.15,1272.85 1192.74,1297.91 1199.32,1313.5 1205.91,1324.06 1212.5,1331.63 1219.09,1337.28 1225.68,1341.64 1232.27,1345.09 1238.86,1347.87 1245.45,1350.15 1252.04,1352.05 1258.63,1353.66 1265.21,1355.02 1271.8,1356.19 1278.39,1357.21 1284.98,1358.1 1291.57,1358.87 1298.16,1359.56 1304.75,1360.17 1311.34,1360.72 1317.93,1361.21 1324.52,85.7073 1331.1,1362.05 1337.69,1362.41 1344.28,1362.74 1350.87,1363.04 1357.46,1363.32 1364.05,1363.57 1370.64,1363.8 1377.23,1364.02 1383.82,1364.21 1390.41,1364.4 1396.99,1364.57 1403.58,1364.73 1410.17,1364.88 1416.76,1365.01 1423.35,1365.14 1429.94,1365.26 1436.53,1365.38 1443.12,1365.48 1449.71,1365.58 1456.3,1365.68 1462.88,1365.77 1469.47,1365.85 1476.06,1365.93 1482.65,1366.01 1489.24,1366.08 1495.83,1366.15 1502.42,1366.21 1509.01,1366.27 1515.6,1366.33 1522.19,1366.39 1528.78,1366.44 1535.36,1366.49 1541.95,1366.54 1548.54,1366.58 1555.13,1366.63 1561.72,1366.67 1568.31,1366.71 1574.9,1366.75 1581.49,1366.79 1588.08,1366.82 1594.67,1366.86 1601.25,1366.89 1607.84,1366.92 1614.43,1366.95 1621.02,1366.98 1627.61,1367.01 1634.2,1367.04 1640.79,1367.06 1647.38,1367.09 1653.97,1367.11 1660.56,1367.14 1667.14,1367.16 1673.73,1367.18 1680.32,1367.21 1686.91,1367.23 1693.5,1367.25 1700.09,1367.27 1706.68,1367.29 1713.27,1367.31 1719.86,1367.33 1726.45,1367.34 1733.03,1367.36 1739.62,1367.38 1746.21,1367.4 1752.8,1367.41 1759.39,1367.43 1765.98,1367.44 1772.57,1367.46 1779.16,1367.47 1785.75,1367.49 1792.34,1367.5 1798.92,1367.52 1805.51,1367.53 1812.1,1367.55 1818.69,1367.56 1825.28,1367.57 1831.87,1367.59 1838.46,1367.6 1845.05,1367.61 1851.64,1367.62 1858.23,1367.64 1864.82,1367.65 1871.4,1367.66 1877.99,1367.67 1884.58,1367.69 1891.17,1367.7 1897.76,1367.71 1904.35,1367.72 1910.94,1367.73 1917.53,1367.74 1924.12,1367.76 1930.71,1367.77 1937.29,1367.78 1943.88,1367.79 1950.47,1367.8 "/>
<polyline clip-path="url(#clip282)" style="stroke:#e26f46; stroke-linecap:round; stroke-linejoin:round; stroke-width:8; stroke-opacity:1; fill:none" stroke-dasharray="32, 20" points="270.272,1367.81 276.861,1367.8 283.45,1367.79 290.039,1367.78 296.628,1367.77 303.217,1367.76 309.806,1367.74 316.395,1367.73 322.984,1367.72 329.573,1367.71 336.162,1367.7 342.751,1367.69 349.341,1367.67 355.93,1367.66 362.519,1367.65 369.108,1367.64 375.697,1367.62 382.286,1367.61 388.875,1367.6 395.464,1367.59 402.053,1367.57 408.642,1367.56 415.231,1367.55 421.82,1367.53 428.409,1367.52 434.998,1367.5 441.587,1367.49 448.176,1367.47 454.765,1367.46 461.354,1367.44 467.943,1367.43 474.532,1367.41 481.121,1367.4 487.71,1367.38 494.299,1367.36 500.888,1367.34 507.477,1367.33 514.066,1367.31 520.655,1367.29 527.244,1367.27 533.833,1367.25 540.422,1367.23 547.011,1367.21 553.6,1367.18 560.189,1367.16 566.778,1367.14 573.367,1367.11 579.956,1367.09 586.545,1367.06 593.134,1367.04 599.723,1367.01 606.312,1366.98 612.901,1366.95 619.49,1366.92 626.079,1366.89 632.668,1366.86 639.257,1366.82 645.846,1366.79 652.435,1366.75 659.024,1366.71 665.613,1366.67 672.202,1366.63 678.791,1366.58 685.381,1366.54 691.97,1366.49 698.559,1366.44 705.148,1366.39 711.737,1366.33 718.326,1366.27 724.915,1366.21 731.504,1366.15 738.093,1366.08 744.682,1366.01 751.271,1365.93 757.86,1365.85 764.449,1365.77 771.038,1365.68 777.627,1365.58 784.216,1365.48 790.805,1365.38 797.394,1365.26 803.983,1365.14 810.572,1365.01 817.161,1364.88 823.75,1364.73 830.339,1364.57 836.928,1364.4 843.517,1364.21 850.106,1364.02 856.695,1363.8 863.284,1363.57 869.873,1363.32 876.462,1363.04 883.051,1362.74 889.64,1362.41 896.229,1362.05 902.818,85.7073 909.407,1361.21 915.996,1360.72 922.585,1360.17 929.174,1359.56 935.763,1358.87 942.352,1358.1 948.941,1357.21 955.53,1356.19 962.119,1355.02 968.708,1353.66 975.297,1352.05 981.886,1350.15 988.475,1347.87 995.064,1345.09 1001.65,1341.64 1008.24,1337.28 1014.83,1331.63 1021.42,1324.06 1028.01,1313.5 1034.6,1297.91 1041.19,1272.85 1047.78,1226.73 1054.37,1116.34 1060.95,530.989 1067.54,572.473 1074.13,1072.06 1080.72,1174.66 1087.31,1217.34 1093.9,1239.41 1100.49,1251.58 1107.08,1257.83 1113.67,1259.77 1120.26,1257.83 1126.84,1251.58 1133.43,1239.41 1140.02,1217.34 1146.61,1174.66 1153.2,1072.06 1159.79,572.473 1166.38,530.989 1172.97,1116.34 1179.56,1226.73 1186.15,1272.85 1192.74,1297.91 1199.32,1313.5 1205.91,1324.06 1212.5,1331.63 1219.09,1337.28 1225.68,1341.64 1232.27,1345.09 1238.86,1347.87 1245.45,1350.15 1252.04,1352.05 1258.63,1353.66 1265.21,1355.02 1271.8,1356.19 1278.39,1357.21 1284.98,1358.1 1291.57,1358.87 1298.16,1359.56 1304.75,1360.17 1311.34,1360.72 1317.93,1361.21 1324.52,85.7073 1331.1,1362.05 1337.69,1362.41 1344.28,1362.74 1350.87,1363.04 1357.46,1363.32 1364.05,1363.57 1370.64,1363.8 1377.23,1364.02 1383.82,1364.21 1390.41,1364.4 1396.99,1364.57 1403.58,1364.73 1410.17,1364.88 1416.76,1365.01 1423.35,1365.14 1429.94,1365.26 1436.53,1365.38 1443.12,1365.48 1449.71,1365.58 1456.3,1365.68 1462.88,1365.77 1469.47,1365.85 1476.06,1365.93 1482.65,1366.01 1489.24,1366.08 1495.83,1366.15 1502.42,1366.21 1509.01,1366.27 1515.6,1366.33 1522.19,1366.39 1528.78,1366.44 1535.36,1366.49 1541.95,1366.54 1548.54,1366.58 1555.13,1366.63 1561.72,1366.67 1568.31,1366.71 1574.9,1366.75 1581.49,1366.79 1588.08,1366.82 1594.67,1366.86 1601.25,1366.89 1607.84,1366.92 1614.43,1366.95 1621.02,1366.98 1627.61,1367.01 1634.2,1367.04 1640.79,1367.06 1647.38,1367.09 1653.97,1367.11 1660.56,1367.14 1667.14,1367.16 1673.73,1367.18 1680.32,1367.21 1686.91,1367.23 1693.5,1367.25 1700.09,1367.27 1706.68,1367.29 1713.27,1367.31 1719.86,1367.33 1726.45,1367.34 1733.03,1367.36 1739.62,1367.38 1746.21,1367.4 1752.8,1367.41 1759.39,1367.43 1765.98,1367.44 1772.57,1367.46 1779.16,1367.47 1785.75,1367.49 1792.34,1367.5 1798.92,1367.52 1805.51,1367.53 1812.1,1367.55 1818.69,1367.56 1825.28,1367.57 1831.87,1367.59 1838.46,1367.6 1845.05,1367.61 1851.64,1367.62 1858.23,1367.64 1864.82,1367.65 1871.4,1367.66 1877.99,1367.67 1884.58,1367.69 1891.17,1367.7 1897.76,1367.71 1904.35,1367.72 1910.94,1367.73 1917.53,1367.74 1924.12,1367.76 1930.71,1367.77 1937.29,1367.78 1943.88,1367.79 1950.47,1367.8 "/>
<polyline clip-path="url(#clip282)" style="stroke:#808080; stroke-linecap:round; stroke-linejoin:round; stroke-width:4; stroke-opacity:1; fill:none" stroke-dasharray="16, 8, 2, 8" points="902.818,2765.31 902.818,-1311.79 "/>
<polyline clip-path="url(#clip282)" style="stroke:#808080; stroke-linecap:round; stroke-linejoin:round; stroke-width:4; stroke-opacity:1; fill:none" stroke-dasharray="16, 8, 2, 8" points="1064.06,2765.31 1064.06,-1311.79 "/>
<polyline clip-path="url(#clip282)" style="stroke:#808080; stroke-linecap:round; stroke-linejoin:round; stroke-width:4; stroke-opacity:1; fill:none" stroke-dasharray="16, 8, 2, 8" points="1163.28,2765.31 1163.28,-1311.79 "/>
<polyline clip-path="url(#clip282)" style="stroke:#808080; stroke-linecap:round; stroke-linejoin:round; stroke-width:4; stroke-opacity:1; fill:none" stroke-dasharray="16, 8, 2, 8" points="1324.52,2765.31 1324.52,-1311.79 "/>
<path clip-path="url(#clip280)" d="M279.233 248.065 L819.323 248.065 L819.323 92.5451 L279.233 92.5451  Z" fill="#ffffff" fill-rule="evenodd" fill-opacity="1"/>
<polyline clip-path="url(#clip280)" style="stroke:#000000; stroke-linecap:round; stroke-linejoin:round; stroke-width:4; stroke-opacity:1; fill:none" points="279.233,248.065 819.323,248.065 819.323,92.5451 279.233,92.5451 279.233,248.065 "/>
<polyline clip-path="url(#clip280)" style="stroke:#009af9; stroke-linecap:round; stroke-linejoin:round; stroke-width:8; stroke-opacity:1; fill:none" points="299.022,144.385 417.756,144.385 "/>
<path clip-path="url(#clip280)" d="M441.481 125.438 L441.481 172.846 L437.546 172.846 L437.546 125.438 L441.481 125.438 Z" fill="#000000" fill-rule="nonzero" fill-opacity="1" /><path clip-path="url(#clip280)" d="M466.18 130.276 Q461.087 130.276 458.078 134.073 Q455.092 137.869 455.092 144.42 Q455.092 150.948 458.078 154.744 Q461.087 158.54 466.18 158.54 Q471.272 158.54 474.235 154.744 Q477.221 150.948 477.221 144.42 Q477.221 137.869 474.235 134.073 Q471.272 130.276 466.18 130.276 M472.731 161.04 L478.888 167.776 L473.24 167.776 L468.124 162.244 Q467.36 162.29 466.944 162.313 Q466.55 162.336 466.18 162.336 Q458.888 162.336 454.513 157.475 Q450.161 152.591 450.161 144.42 Q450.161 136.225 454.513 131.364 Q458.888 126.48 466.18 126.48 Q473.448 126.48 477.8 131.364 Q482.152 136.225 482.152 144.42 Q482.152 150.438 479.721 154.721 Q477.314 159.003 472.731 161.04 Z" fill="#000000" fill-rule="nonzero" fill-opacity="1" /><path clip-path="url(#clip280)" d="M489.467 127.105 L494.142 127.105 L494.142 161.665 L489.467 161.665 L489.467 127.105 Z" fill="#000000" fill-rule="nonzero" fill-opacity="1" /><path clip-path="url(#clip280)" d="M503.448 127.105 L508.124 127.105 L508.124 157.73 L524.952 157.73 L524.952 161.665 L503.448 161.665 L503.448 127.105 Z" fill="#000000" fill-rule="nonzero" fill-opacity="1" /><path clip-path="url(#clip280)" d="M541.457 148.633 Q536.295 148.633 534.304 149.813 Q532.314 150.994 532.314 153.841 Q532.314 156.11 533.795 157.452 Q535.3 158.772 537.869 158.772 Q541.411 158.772 543.54 156.272 Q545.693 153.749 545.693 149.582 L545.693 148.633 L541.457 148.633 M549.952 146.874 L549.952 161.665 L545.693 161.665 L545.693 157.73 Q544.235 160.091 542.059 161.225 Q539.883 162.336 536.735 162.336 Q532.753 162.336 530.392 160.114 Q528.054 157.869 528.054 154.119 Q528.054 149.744 530.971 147.522 Q533.911 145.299 539.721 145.299 L545.693 145.299 L545.693 144.883 Q545.693 141.943 543.749 140.346 Q541.827 138.725 538.332 138.725 Q536.11 138.725 534.003 139.258 Q531.897 139.79 529.952 140.855 L529.952 136.92 Q532.29 136.017 534.489 135.577 Q536.689 135.114 538.772 135.114 Q544.397 135.114 547.175 138.031 Q549.952 140.948 549.952 146.874 Z" fill="#000000" fill-rule="nonzero" fill-opacity="1" /><path clip-path="url(#clip280)" d="M562.846 157.776 L562.846 171.526 L558.563 171.526 L558.563 135.739 L562.846 135.739 L562.846 139.675 Q564.188 137.36 566.225 136.249 Q568.286 135.114 571.133 135.114 Q575.855 135.114 578.795 138.864 Q581.758 142.614 581.758 148.725 Q581.758 154.836 578.795 158.586 Q575.855 162.336 571.133 162.336 Q568.286 162.336 566.225 161.225 Q564.188 160.091 562.846 157.776 M577.336 148.725 Q577.336 144.026 575.392 141.364 Q573.471 138.679 570.091 138.679 Q566.711 138.679 564.767 141.364 Q562.846 144.026 562.846 148.725 Q562.846 153.424 564.767 156.11 Q566.711 158.772 570.091 158.772 Q573.471 158.772 575.392 156.11 Q577.336 153.424 577.336 148.725 Z" fill="#000000" fill-rule="nonzero" fill-opacity="1" /><path clip-path="url(#clip280)" d="M588.818 125.647 L593.077 125.647 L593.077 161.665 L588.818 161.665 L588.818 125.647 Z" fill="#000000" fill-rule="nonzero" fill-opacity="1" /><path clip-path="url(#clip280)" d="M613.771 148.633 Q608.609 148.633 606.619 149.813 Q604.628 150.994 604.628 153.841 Q604.628 156.11 606.109 157.452 Q607.614 158.772 610.183 158.772 Q613.725 158.772 615.855 156.272 Q618.008 153.749 618.008 149.582 L618.008 148.633 L613.771 148.633 M622.267 146.874 L622.267 161.665 L618.008 161.665 L618.008 157.73 Q616.549 160.091 614.373 161.225 Q612.197 162.336 609.049 162.336 Q605.068 162.336 602.707 160.114 Q600.369 157.869 600.369 154.119 Q600.369 149.744 603.285 147.522 Q606.225 145.299 612.035 145.299 L618.008 145.299 L618.008 144.883 Q618.008 141.943 616.063 140.346 Q614.142 138.725 610.646 138.725 Q608.424 138.725 606.318 139.258 Q604.211 139.79 602.267 140.855 L602.267 136.92 Q604.605 136.017 606.804 135.577 Q609.003 135.114 611.086 135.114 Q616.711 135.114 619.489 138.031 Q622.267 140.948 622.267 146.874 Z" fill="#000000" fill-rule="nonzero" fill-opacity="1" /><path clip-path="url(#clip280)" d="M649.697 136.735 L649.697 140.716 Q647.892 139.721 646.063 139.235 Q644.257 138.725 642.406 138.725 Q638.262 138.725 635.97 141.364 Q633.679 143.98 633.679 148.725 Q633.679 153.471 635.97 156.11 Q638.262 158.725 642.406 158.725 Q644.257 158.725 646.063 158.239 Q647.892 157.73 649.697 156.735 L649.697 160.67 Q647.915 161.503 645.993 161.92 Q644.095 162.336 641.943 162.336 Q636.086 162.336 632.637 158.656 Q629.188 154.975 629.188 148.725 Q629.188 142.383 632.66 138.749 Q636.156 135.114 642.22 135.114 Q644.188 135.114 646.063 135.531 Q647.938 135.925 649.697 136.735 Z" fill="#000000" fill-rule="nonzero" fill-opacity="1" /><path clip-path="url(#clip280)" d="M679.28 147.637 L679.28 149.721 L659.697 149.721 Q659.975 154.119 662.336 156.434 Q664.72 158.725 668.956 158.725 Q671.41 158.725 673.702 158.123 Q676.016 157.522 678.285 156.318 L678.285 160.346 Q675.993 161.318 673.586 161.827 Q671.179 162.336 668.702 162.336 Q662.498 162.336 658.864 158.725 Q655.253 155.114 655.253 148.957 Q655.253 142.591 658.679 138.864 Q662.128 135.114 667.961 135.114 Q673.192 135.114 676.225 138.494 Q679.28 141.85 679.28 147.637 M675.021 146.387 Q674.975 142.892 673.054 140.809 Q671.155 138.725 668.007 138.725 Q664.442 138.725 662.29 140.739 Q660.16 142.753 659.836 146.411 L675.021 146.387 Z" fill="#000000" fill-rule="nonzero" fill-opacity="1" /><path clip-path="url(#clip280)" d="M715.553 130.276 Q710.461 130.276 707.451 134.073 Q704.465 137.869 704.465 144.42 Q704.465 150.948 707.451 154.744 Q710.461 158.54 715.553 158.54 Q720.646 158.54 723.609 154.744 Q726.595 150.948 726.595 144.42 Q726.595 137.869 723.609 134.073 Q720.646 130.276 715.553 130.276 M722.104 161.04 L728.262 167.776 L722.613 167.776 L717.498 162.244 Q716.734 162.29 716.317 162.313 Q715.924 162.336 715.553 162.336 Q708.262 162.336 703.887 157.475 Q699.535 152.591 699.535 144.42 Q699.535 136.225 703.887 131.364 Q708.262 126.48 715.553 126.48 Q722.822 126.48 727.174 131.364 Q731.525 136.225 731.525 144.42 Q731.525 150.438 729.095 154.721 Q726.687 159.003 722.104 161.04 Z" fill="#000000" fill-rule="nonzero" fill-opacity="1" /><path clip-path="url(#clip280)" d="M738.84 127.105 L758.701 127.105 L758.701 131.04 L743.516 131.04 L743.516 141.225 L757.22 141.225 L757.22 145.161 L743.516 145.161 L743.516 161.665 L738.84 161.665 L738.84 127.105 Z" fill="#000000" fill-rule="nonzero" fill-opacity="1" /><path clip-path="url(#clip280)" d="M760.484 127.105 L789.72 127.105 L789.72 131.04 L777.451 131.04 L777.451 161.665 L772.752 161.665 L772.752 131.04 L760.484 131.04 L760.484 127.105 Z" fill="#000000" fill-rule="nonzero" fill-opacity="1" /><path clip-path="url(#clip280)" d="M799.534 125.438 L799.534 172.846 L795.599 172.846 L795.599 125.438 L799.534 125.438 Z" fill="#000000" fill-rule="nonzero" fill-opacity="1" /><polyline clip-path="url(#clip280)" style="stroke:#e26f46; stroke-linecap:round; stroke-linejoin:round; stroke-width:8; stroke-opacity:1; fill:none" stroke-dasharray="32, 20" points="299.022,196.225 417.756,196.225 "/>
<path clip-path="url(#clip280)" d="M441.481 177.278 L441.481 224.686 L437.546 224.686 L437.546 177.278 L441.481 177.278 Z" fill="#000000" fill-rule="nonzero" fill-opacity="1" /><path clip-path="url(#clip280)" d="M452.152 178.945 L472.013 178.945 L472.013 182.88 L456.828 182.88 L456.828 193.065 L470.531 193.065 L470.531 197.001 L456.828 197.001 L456.828 213.505 L452.152 213.505 L452.152 178.945 Z" fill="#000000" fill-rule="nonzero" fill-opacity="1" /><path clip-path="url(#clip280)" d="M479.42 178.945 L499.281 178.945 L499.281 182.88 L484.096 182.88 L484.096 193.065 L497.8 193.065 L497.8 197.001 L484.096 197.001 L484.096 213.505 L479.42 213.505 L479.42 178.945 Z" fill="#000000" fill-rule="nonzero" fill-opacity="1" /><path clip-path="url(#clip280)" d="M501.064 178.945 L530.3 178.945 L530.3 182.88 L518.031 182.88 L518.031 213.505 L513.332 213.505 L513.332 182.88 L501.064 182.88 L501.064 178.945 Z" fill="#000000" fill-rule="nonzero" fill-opacity="1" /><path clip-path="url(#clip280)" d="M531.735 178.945 L536.457 178.945 L543.726 208.158 L550.971 178.945 L556.225 178.945 L563.494 208.158 L570.739 178.945 L575.485 178.945 L566.804 213.505 L560.924 213.505 L553.633 183.505 L546.272 213.505 L540.392 213.505 L531.735 178.945 Z" fill="#000000" fill-rule="nonzero" fill-opacity="1" /><path clip-path="url(#clip280)" d="M615.183 200.565 Q615.183 195.866 613.239 193.204 Q611.318 190.519 607.938 190.519 Q604.559 190.519 602.614 193.204 Q600.693 195.866 600.693 200.565 Q600.693 205.264 602.614 207.95 Q604.559 210.612 607.938 210.612 Q611.318 210.612 613.239 207.95 Q615.183 205.264 615.183 200.565 M600.693 191.515 Q602.035 189.2 604.072 188.089 Q606.133 186.954 608.98 186.954 Q613.702 186.954 616.642 190.704 Q619.605 194.454 619.605 200.565 Q619.605 206.676 616.642 210.426 Q613.702 214.176 608.98 214.176 Q606.133 214.176 604.072 213.065 Q602.035 211.931 600.693 209.616 L600.693 213.505 L596.41 213.505 L596.41 177.487 L600.693 177.487 L600.693 191.515 Z" fill="#000000" fill-rule="nonzero" fill-opacity="1" /><path clip-path="url(#clip280)" d="M639.79 177.487 L639.79 181.028 L635.716 181.028 Q633.424 181.028 632.521 181.954 Q631.642 182.88 631.642 185.288 L631.642 187.579 L638.656 187.579 L638.656 190.89 L631.642 190.89 L631.642 213.505 L627.359 213.505 L627.359 190.89 L623.285 190.89 L623.285 187.579 L627.359 187.579 L627.359 185.774 Q627.359 181.445 629.373 179.478 Q631.387 177.487 635.762 177.487 L639.79 177.487 Z" fill="#000000" fill-rule="nonzero" fill-opacity="1" /><path clip-path="url(#clip280)" d="M656.48 177.487 L656.48 181.028 L652.405 181.028 Q650.114 181.028 649.211 181.954 Q648.331 182.88 648.331 185.288 L648.331 187.579 L655.345 187.579 L655.345 190.89 L648.331 190.89 L648.331 213.505 L644.049 213.505 L644.049 190.89 L639.975 190.89 L639.975 187.579 L644.049 187.579 L644.049 185.774 Q644.049 181.445 646.063 179.478 Q648.077 177.487 652.452 177.487 L656.48 177.487 Z" fill="#000000" fill-rule="nonzero" fill-opacity="1" /><path clip-path="url(#clip280)" d="M663.424 180.218 L663.424 187.579 L672.197 187.579 L672.197 190.89 L663.424 190.89 L663.424 204.964 Q663.424 208.135 664.28 209.038 Q665.16 209.94 667.822 209.94 L672.197 209.94 L672.197 213.505 L667.822 213.505 Q662.892 213.505 661.017 211.676 Q659.142 209.825 659.142 204.964 L659.142 190.89 L656.017 190.89 L656.017 187.579 L659.142 187.579 L659.142 180.218 L663.424 180.218 Z" fill="#000000" fill-rule="nonzero" fill-opacity="1" /><path clip-path="url(#clip280)" d="M683.285 177.278 L683.285 224.686 L679.35 224.686 L679.35 177.278 L683.285 177.278 Z" fill="#000000" fill-rule="nonzero" fill-opacity="1" /><polyline clip-path="url(#clip280)" style="stroke:#000000; stroke-linecap:round; stroke-linejoin:round; stroke-width:4; stroke-opacity:1; fill:none" points="2000.88,1406.28 2000.88,47.2441 "/>
<polyline clip-path="url(#clip280)" style="stroke:#000000; stroke-linecap:round; stroke-linejoin:round; stroke-width:4; stroke-opacity:1; fill:none" points="2000.88,1406.28 1981.98,1406.28 "/>
<polyline clip-path="url(#clip280)" style="stroke:#000000; stroke-linecap:round; stroke-linejoin:round; stroke-width:4; stroke-opacity:1; fill:none" points="2000.88,1042.16 1981.98,1042.16 "/>
<polyline clip-path="url(#clip280)" style="stroke:#000000; stroke-linecap:round; stroke-linejoin:round; stroke-width:4; stroke-opacity:1; fill:none" points="2000.88,678.046 1981.98,678.046 "/>
<polyline clip-path="url(#clip280)" style="stroke:#000000; stroke-linecap:round; stroke-linejoin:round; stroke-width:4; stroke-opacity:1; fill:none" points="2000.88,313.932 1981.98,313.932 "/>
<path clip-path="url(#clip280)" d="M2048.82 1392.07 Q2045.21 1392.07 2043.38 1395.64 Q2041.58 1399.18 2041.58 1406.31 Q2041.58 1413.42 2043.38 1416.98 Q2045.21 1420.52 2048.82 1420.52 Q2052.46 1420.52 2054.26 1416.98 Q2056.09 1413.42 2056.09 1406.31 Q2056.09 1399.18 2054.26 1395.64 Q2052.46 1392.07 2048.82 1392.07 M2048.82 1388.37 Q2054.63 1388.37 2057.69 1392.98 Q2060.77 1397.56 2060.77 1406.31 Q2060.77 1415.04 2057.69 1419.64 Q2054.63 1424.23 2048.82 1424.23 Q2043.01 1424.23 2039.93 1419.64 Q2036.88 1415.04 2036.88 1406.31 Q2036.88 1397.56 2039.93 1392.98 Q2043.01 1388.37 2048.82 1388.37 Z" fill="#000000" fill-rule="nonzero" fill-opacity="1" /><path clip-path="url(#clip280)" d="M2038.34 1031.33 L2056.69 1031.33 L2056.69 1035.26 L2042.62 1035.26 L2042.62 1043.74 Q2043.64 1043.39 2044.66 1043.23 Q2045.67 1043.04 2046.69 1043.04 Q2052.48 1043.04 2055.86 1046.21 Q2059.24 1049.38 2059.24 1054.8 Q2059.24 1060.38 2055.77 1063.48 Q2052.29 1066.56 2045.98 1066.56 Q2043.8 1066.56 2041.53 1066.19 Q2039.29 1065.82 2036.88 1065.08 L2036.88 1060.38 Q2038.96 1061.51 2041.18 1062.07 Q2043.41 1062.62 2045.88 1062.62 Q2049.89 1062.62 2052.23 1060.52 Q2054.56 1058.41 2054.56 1054.8 Q2054.56 1051.19 2052.23 1049.08 Q2049.89 1046.98 2045.88 1046.98 Q2044.01 1046.98 2042.13 1047.39 Q2040.28 1047.81 2038.34 1048.69 L2038.34 1031.33 Z" fill="#000000" fill-rule="nonzero" fill-opacity="1" /><path clip-path="url(#clip280)" d="M2068.45 1060.01 L2073.34 1060.01 L2073.34 1065.89 L2068.45 1065.89 L2068.45 1060.01 Z" fill="#000000" fill-rule="nonzero" fill-opacity="1" /><path clip-path="url(#clip280)" d="M2093.52 1034.41 Q2089.91 1034.41 2088.08 1037.97 Q2086.28 1041.51 2086.28 1048.64 Q2086.28 1055.75 2088.08 1059.31 Q2089.91 1062.86 2093.52 1062.86 Q2097.16 1062.86 2098.96 1059.31 Q2100.79 1055.75 2100.79 1048.64 Q2100.79 1041.51 2098.96 1037.97 Q2097.16 1034.41 2093.52 1034.41 M2093.52 1030.7 Q2099.33 1030.7 2102.39 1035.31 Q2105.47 1039.89 2105.47 1048.64 Q2105.47 1057.37 2102.39 1061.98 Q2099.33 1066.56 2093.52 1066.56 Q2087.71 1066.56 2084.63 1061.98 Q2081.58 1057.37 2081.58 1048.64 Q2081.58 1039.89 2084.63 1035.31 Q2087.71 1030.7 2093.52 1030.7 Z" fill="#000000" fill-rule="nonzero" fill-opacity="1" /><path clip-path="url(#clip280)" d="M2123.68 1034.41 Q2120.07 1034.41 2118.24 1037.97 Q2116.44 1041.51 2116.44 1048.64 Q2116.44 1055.75 2118.24 1059.31 Q2120.07 1062.86 2123.68 1062.86 Q2127.32 1062.86 2129.12 1059.31 Q2130.95 1055.75 2130.95 1048.64 Q2130.95 1041.51 2129.12 1037.97 Q2127.32 1034.41 2123.68 1034.41 M2123.68 1030.7 Q2129.49 1030.7 2132.55 1035.31 Q2135.63 1039.89 2135.63 1048.64 Q2135.63 1057.37 2132.55 1061.98 Q2129.49 1066.56 2123.68 1066.56 Q2117.87 1066.56 2114.79 1061.98 Q2111.74 1057.37 2111.74 1048.64 Q2111.74 1039.89 2114.79 1035.31 Q2117.87 1030.7 2123.68 1030.7 Z" fill="#000000" fill-rule="nonzero" fill-opacity="1" /><path clip-path="url(#clip280)" d="M2172.02 1040.43 L2161.44 1051.05 L2172.02 1061.63 L2169.26 1064.43 L2158.64 1053.81 L2148.01 1064.43 L2145.28 1061.63 L2155.84 1051.05 L2145.28 1040.43 L2148.01 1037.62 L2158.64 1048.25 L2169.26 1037.62 L2172.02 1040.43 Z" fill="#000000" fill-rule="nonzero" fill-opacity="1" /><path clip-path="url(#clip280)" d="M2184.38 1061.95 L2192.02 1061.95 L2192.02 1035.59 L2183.71 1037.25 L2183.71 1033 L2191.97 1031.33 L2196.65 1031.33 L2196.65 1061.95 L2204.28 1061.95 L2204.28 1065.89 L2184.38 1065.89 L2184.38 1061.95 Z" fill="#000000" fill-rule="nonzero" fill-opacity="1" /><path clip-path="url(#clip280)" d="M2223.73 1034.41 Q2220.12 1034.41 2218.29 1037.97 Q2216.48 1041.51 2216.48 1048.64 Q2216.48 1055.75 2218.29 1059.31 Q2220.12 1062.86 2223.73 1062.86 Q2227.36 1062.86 2229.17 1059.31 Q2231 1055.75 2231 1048.64 Q2231 1041.51 2229.17 1037.97 Q2227.36 1034.41 2223.73 1034.41 M2223.73 1030.7 Q2229.54 1030.7 2232.59 1035.31 Q2235.67 1039.89 2235.67 1048.64 Q2235.67 1057.37 2232.59 1061.98 Q2229.54 1066.56 2223.73 1066.56 Q2217.92 1066.56 2214.84 1061.98 Q2211.78 1057.37 2211.78 1048.64 Q2211.78 1039.89 2214.84 1035.31 Q2217.92 1030.7 2223.73 1030.7 Z" fill="#000000" fill-rule="nonzero" fill-opacity="1" /><path clip-path="url(#clip280)" d="M2235.67 1024.8 L2259.79 1024.8 L2259.79 1028 L2235.67 1028 L2235.67 1024.8 Z" fill="#000000" fill-rule="nonzero" fill-opacity="1" /><path clip-path="url(#clip280)" d="M2276.11 1025.14 Q2273.4 1025.14 2271.84 1026.59 Q2270.3 1028.04 2270.3 1030.58 Q2270.3 1033.12 2271.84 1034.57 Q2273.4 1036.01 2276.11 1036.01 Q2278.82 1036.01 2280.38 1034.57 Q2281.94 1033.1 2281.94 1030.58 Q2281.94 1028.04 2280.38 1026.59 Q2278.84 1025.14 2276.11 1025.14 M2272.31 1023.53 Q2269.87 1022.92 2268.49 1021.25 Q2267.14 1019.58 2267.14 1017.17 Q2267.14 1013.8 2269.53 1011.85 Q2271.93 1009.89 2276.11 1009.89 Q2280.3 1009.89 2282.69 1011.85 Q2285.08 1013.8 2285.08 1017.17 Q2285.08 1019.58 2283.71 1021.25 Q2282.35 1022.92 2279.93 1023.53 Q2282.67 1024.17 2284.2 1026.03 Q2285.74 1027.89 2285.74 1030.58 Q2285.74 1034.66 2283.24 1036.84 Q2280.76 1039.02 2276.11 1039.02 Q2271.46 1039.02 2268.96 1036.84 Q2266.48 1034.66 2266.48 1030.58 Q2266.48 1027.89 2268.02 1026.03 Q2269.57 1024.17 2272.31 1023.53 M2270.92 1017.53 Q2270.92 1019.71 2272.27 1020.93 Q2273.65 1022.15 2276.11 1022.15 Q2278.56 1022.15 2279.93 1020.93 Q2281.32 1019.71 2281.32 1017.53 Q2281.32 1015.34 2279.93 1014.12 Q2278.56 1012.9 2276.11 1012.9 Q2273.65 1012.9 2272.27 1014.12 Q2270.92 1015.34 2270.92 1017.53 Z" fill="#000000" fill-rule="nonzero" fill-opacity="1" /><path clip-path="url(#clip280)" d="M2037.55 697.839 L2045.19 697.839 L2045.19 671.473 L2036.88 673.14 L2036.88 668.88 L2045.14 667.214 L2049.82 667.214 L2049.82 697.839 L2057.46 697.839 L2057.46 701.774 L2037.55 701.774 L2037.55 697.839 Z" fill="#000000" fill-rule="nonzero" fill-opacity="1" /><path clip-path="url(#clip280)" d="M2066.9 695.894 L2071.79 695.894 L2071.79 701.774 L2066.9 701.774 L2066.9 695.894 Z" fill="#000000" fill-rule="nonzero" fill-opacity="1" /><path clip-path="url(#clip280)" d="M2091.97 670.293 Q2088.36 670.293 2086.53 673.857 Q2084.73 677.399 2084.73 684.529 Q2084.73 691.635 2086.53 695.2 Q2088.36 698.741 2091.97 698.741 Q2095.6 698.741 2097.41 695.2 Q2099.24 691.635 2099.24 684.529 Q2099.24 677.399 2097.41 673.857 Q2095.6 670.293 2091.97 670.293 M2091.97 666.589 Q2097.78 666.589 2100.84 671.195 Q2103.92 675.779 2103.92 684.529 Q2103.92 693.255 2100.84 697.862 Q2097.78 702.445 2091.97 702.445 Q2086.16 702.445 2083.08 697.862 Q2080.03 693.255 2080.03 684.529 Q2080.03 675.779 2083.08 671.195 Q2086.16 666.589 2091.97 666.589 Z" fill="#000000" fill-rule="nonzero" fill-opacity="1" /><path clip-path="url(#clip280)" d="M2122.13 670.293 Q2118.52 670.293 2116.69 673.857 Q2114.89 677.399 2114.89 684.529 Q2114.89 691.635 2116.69 695.2 Q2118.52 698.741 2122.13 698.741 Q2125.77 698.741 2127.57 695.2 Q2129.4 691.635 2129.4 684.529 Q2129.4 677.399 2127.57 673.857 Q2125.77 670.293 2122.13 670.293 M2122.13 666.589 Q2127.94 666.589 2131 671.195 Q2134.08 675.779 2134.08 684.529 Q2134.08 693.255 2131 697.862 Q2127.94 702.445 2122.13 702.445 Q2116.32 702.445 2113.24 697.862 Q2110.19 693.255 2110.19 684.529 Q2110.19 675.779 2113.24 671.195 Q2116.32 666.589 2122.13 666.589 Z" fill="#000000" fill-rule="nonzero" fill-opacity="1" /><path clip-path="url(#clip280)" d="M2170.47 676.311 L2159.89 686.936 L2170.47 697.515 L2167.71 700.316 L2157.09 689.691 L2146.46 700.316 L2143.73 697.515 L2154.29 686.936 L2143.73 676.311 L2146.46 673.51 L2157.09 684.135 L2167.71 673.51 L2170.47 676.311 Z" fill="#000000" fill-rule="nonzero" fill-opacity="1" /><path clip-path="url(#clip280)" d="M2182.83 697.839 L2190.47 697.839 L2190.47 671.473 L2182.16 673.14 L2182.16 668.88 L2190.42 667.214 L2195.1 667.214 L2195.1 697.839 L2202.73 697.839 L2202.73 701.774 L2182.83 701.774 L2182.83 697.839 Z" fill="#000000" fill-rule="nonzero" fill-opacity="1" /><path clip-path="url(#clip280)" d="M2222.18 670.293 Q2218.57 670.293 2216.74 673.857 Q2214.93 677.399 2214.93 684.529 Q2214.93 691.635 2216.74 695.2 Q2218.57 698.741 2222.18 698.741 Q2225.81 698.741 2227.62 695.2 Q2229.45 691.635 2229.45 684.529 Q2229.45 677.399 2227.62 673.857 Q2225.81 670.293 2222.18 670.293 M2222.18 666.589 Q2227.99 666.589 2231.04 671.195 Q2234.12 675.779 2234.12 684.529 Q2234.12 693.255 2231.04 697.862 Q2227.99 702.445 2222.18 702.445 Q2216.37 702.445 2213.29 697.862 Q2210.23 693.255 2210.23 684.529 Q2210.23 675.779 2213.29 671.195 Q2216.37 666.589 2222.18 666.589 Z" fill="#000000" fill-rule="nonzero" fill-opacity="1" /><path clip-path="url(#clip280)" d="M2234.12 660.69 L2258.23 660.69 L2258.23 663.888 L2234.12 663.888 L2234.12 660.69 Z" fill="#000000" fill-rule="nonzero" fill-opacity="1" /><path clip-path="url(#clip280)" d="M2265.48 646.283 L2283.53 646.283 L2283.53 647.901 L2273.34 674.363 L2269.37 674.363 L2278.96 649.481 L2265.48 649.481 L2265.48 646.283 Z" fill="#000000" fill-rule="nonzero" fill-opacity="1" /><path clip-path="url(#clip280)" d="M2037.55 333.724 L2045.19 333.724 L2045.19 307.358 L2036.88 309.025 L2036.88 304.766 L2045.14 303.099 L2049.82 303.099 L2049.82 333.724 L2057.46 333.724 L2057.46 337.659 L2037.55 337.659 L2037.55 333.724 Z" fill="#000000" fill-rule="nonzero" fill-opacity="1" /><path clip-path="url(#clip280)" d="M2066.9 331.78 L2071.79 331.78 L2071.79 337.659 L2066.9 337.659 L2066.9 331.78 Z" fill="#000000" fill-rule="nonzero" fill-opacity="1" /><path clip-path="url(#clip280)" d="M2082.02 303.099 L2100.37 303.099 L2100.37 307.034 L2086.3 307.034 L2086.3 315.506 Q2087.32 315.159 2088.34 314.997 Q2089.35 314.812 2090.37 314.812 Q2096.16 314.812 2099.54 317.983 Q2102.92 321.155 2102.92 326.571 Q2102.92 332.15 2099.45 335.252 Q2095.98 338.33 2089.66 338.33 Q2087.48 338.33 2085.21 337.96 Q2082.97 337.59 2080.56 336.849 L2080.56 332.15 Q2082.64 333.284 2084.86 333.84 Q2087.09 334.395 2089.56 334.395 Q2093.57 334.395 2095.91 332.289 Q2098.24 330.182 2098.24 326.571 Q2098.24 322.96 2095.91 320.854 Q2093.57 318.747 2089.56 318.747 Q2087.69 318.747 2085.81 319.164 Q2083.96 319.58 2082.02 320.46 L2082.02 303.099 Z" fill="#000000" fill-rule="nonzero" fill-opacity="1" /><path clip-path="url(#clip280)" d="M2122.13 306.178 Q2118.52 306.178 2116.69 309.743 Q2114.89 313.284 2114.89 320.414 Q2114.89 327.52 2116.69 331.085 Q2118.52 334.627 2122.13 334.627 Q2125.77 334.627 2127.57 331.085 Q2129.4 327.52 2129.4 320.414 Q2129.4 313.284 2127.57 309.743 Q2125.77 306.178 2122.13 306.178 M2122.13 302.474 Q2127.94 302.474 2131 307.081 Q2134.08 311.664 2134.08 320.414 Q2134.08 329.141 2131 333.747 Q2127.94 338.33 2122.13 338.33 Q2116.32 338.33 2113.24 333.747 Q2110.19 329.141 2110.19 320.414 Q2110.19 311.664 2113.24 307.081 Q2116.32 302.474 2122.13 302.474 Z" fill="#000000" fill-rule="nonzero" fill-opacity="1" /><path clip-path="url(#clip280)" d="M2170.47 312.196 L2159.89 322.821 L2170.47 333.4 L2167.71 336.201 L2157.09 325.576 L2146.46 336.201 L2143.73 333.4 L2154.29 322.821 L2143.73 312.196 L2146.46 309.395 L2157.09 320.02 L2167.71 309.395 L2170.47 312.196 Z" fill="#000000" fill-rule="nonzero" fill-opacity="1" /><path clip-path="url(#clip280)" d="M2182.83 333.724 L2190.47 333.724 L2190.47 307.358 L2182.16 309.025 L2182.16 304.766 L2190.42 303.099 L2195.1 303.099 L2195.1 333.724 L2202.73 333.724 L2202.73 337.659 L2182.83 337.659 L2182.83 333.724 Z" fill="#000000" fill-rule="nonzero" fill-opacity="1" /><path clip-path="url(#clip280)" d="M2222.18 306.178 Q2218.57 306.178 2216.74 309.743 Q2214.93 313.284 2214.93 320.414 Q2214.93 327.52 2216.74 331.085 Q2218.57 334.627 2222.18 334.627 Q2225.81 334.627 2227.62 331.085 Q2229.45 327.52 2229.45 320.414 Q2229.45 313.284 2227.62 309.743 Q2225.81 306.178 2222.18 306.178 M2222.18 302.474 Q2227.99 302.474 2231.04 307.081 Q2234.12 311.664 2234.12 320.414 Q2234.12 329.141 2231.04 333.747 Q2227.99 338.33 2222.18 338.33 Q2216.37 338.33 2213.29 333.747 Q2210.23 329.141 2210.23 320.414 Q2210.23 311.664 2213.29 307.081 Q2216.37 302.474 2222.18 302.474 Z" fill="#000000" fill-rule="nonzero" fill-opacity="1" /><path clip-path="url(#clip280)" d="M2234.12 296.575 L2258.23 296.575 L2258.23 299.773 L2234.12 299.773 L2234.12 296.575 Z" fill="#000000" fill-rule="nonzero" fill-opacity="1" /><path clip-path="url(#clip280)" d="M2265.48 282.169 L2283.53 282.169 L2283.53 283.786 L2273.34 310.249 L2269.37 310.249 L2278.96 285.366 L2265.48 285.366 L2265.48 282.169 Z" fill="#000000" fill-rule="nonzero" fill-opacity="1" /><path clip-path="url(#clip280)" d="M2337.58 936.446 L2361.23 945.167 L2361.23 927.693 L2337.58 936.446 M2331.24 940.075 L2331.24 932.786 L2378.76 914.676 L2378.76 921.36 L2366.57 925.688 L2366.57 947.109 L2378.76 951.438 L2378.76 958.217 L2331.24 940.075 Z" fill="#000000" fill-rule="nonzero" fill-opacity="1" /><path clip-path="url(#clip280)" d="M2360.97 882.401 Q2354.51 882.401 2350.85 885.075 Q2347.16 887.717 2347.16 892.364 Q2347.16 897.011 2350.85 899.684 Q2354.51 902.326 2360.97 902.326 Q2367.43 902.326 2371.12 899.684 Q2374.79 897.011 2374.79 892.364 Q2374.79 887.717 2371.12 885.075 Q2367.43 882.401 2360.97 882.401 M2348.53 902.326 Q2345.34 900.48 2343.82 897.679 Q2342.26 894.846 2342.26 890.931 Q2342.26 884.438 2347.41 880.396 Q2352.57 876.322 2360.97 876.322 Q2369.37 876.322 2374.53 880.396 Q2379.69 884.438 2379.69 890.931 Q2379.69 894.846 2378.16 897.679 Q2376.6 900.48 2373.42 902.326 L2378.76 902.326 L2378.76 908.214 L2329.24 908.214 L2329.24 902.326 L2348.53 902.326 Z" fill="#000000" fill-rule="nonzero" fill-opacity="1" /><path clip-path="url(#clip280)" d="M2344.17 843.889 L2349.7 843.889 Q2348.43 846.372 2347.79 849.045 Q2347.16 851.719 2347.16 854.583 Q2347.16 858.944 2348.49 861.14 Q2349.83 863.304 2352.51 863.304 Q2354.54 863.304 2355.72 861.745 Q2356.87 860.185 2357.92 855.474 L2358.36 853.469 Q2359.7 847.231 2362.15 844.621 Q2364.57 841.979 2368.93 841.979 Q2373.89 841.979 2376.79 845.926 Q2379.69 849.841 2379.69 856.716 Q2379.69 859.58 2379.11 862.7 Q2378.57 865.787 2377.46 869.224 L2371.41 869.224 Q2373.1 865.978 2373.96 862.827 Q2374.79 859.676 2374.79 856.588 Q2374.79 852.451 2373.38 850.223 Q2371.95 847.995 2369.37 847.995 Q2366.99 847.995 2365.71 849.618 Q2364.44 851.209 2363.26 856.652 L2362.79 858.689 Q2361.64 864.132 2359.28 866.551 Q2356.9 868.97 2352.76 868.97 Q2347.73 868.97 2344.99 865.405 Q2342.26 861.84 2342.26 855.284 Q2342.26 852.037 2342.73 849.172 Q2343.21 846.308 2344.17 843.889 Z" fill="#000000" fill-rule="nonzero" fill-opacity="1" /><path clip-path="url(#clip280)" d="M2347.22 818.84 Q2347.22 823.55 2350.91 826.288 Q2354.57 829.025 2360.97 829.025 Q2367.37 829.025 2371.06 826.32 Q2374.72 823.582 2374.72 818.84 Q2374.72 814.161 2371.03 811.424 Q2367.34 808.687 2360.97 808.687 Q2354.64 808.687 2350.95 811.424 Q2347.22 814.161 2347.22 818.84 M2342.26 818.84 Q2342.26 811.201 2347.22 806.84 Q2352.19 802.48 2360.97 802.48 Q2369.72 802.48 2374.72 806.84 Q2379.69 811.201 2379.69 818.84 Q2379.69 826.511 2374.72 830.871 Q2369.72 835.2 2360.97 835.2 Q2352.19 835.2 2347.22 830.871 Q2342.26 826.511 2342.26 818.84 Z" fill="#000000" fill-rule="nonzero" fill-opacity="1" /><path clip-path="url(#clip280)" d="M2329.24 792.772 L2329.24 786.916 L2378.76 786.916 L2378.76 792.772 L2329.24 792.772 Z" fill="#000000" fill-rule="nonzero" fill-opacity="1" /><path clip-path="url(#clip280)" d="M2364.7 775.267 L2343.12 775.267 L2343.12 769.41 L2364.47 769.41 Q2369.53 769.41 2372.08 767.437 Q2374.59 765.463 2374.59 761.517 Q2374.59 756.774 2371.57 754.037 Q2368.55 751.268 2363.33 751.268 L2343.12 751.268 L2343.12 745.411 L2378.76 745.411 L2378.76 751.268 L2373.29 751.268 Q2376.54 753.4 2378.13 756.233 Q2379.69 759.034 2379.69 762.758 Q2379.69 768.901 2375.87 772.084 Q2372.05 775.267 2364.7 775.267 M2342.26 760.53 L2342.26 760.53 Z" fill="#000000" fill-rule="nonzero" fill-opacity="1" /><path clip-path="url(#clip280)" d="M2332.99 727.556 L2343.12 727.556 L2343.12 715.493 L2347.67 715.493 L2347.67 727.556 L2367.02 727.556 Q2371.38 727.556 2372.62 726.378 Q2373.86 725.168 2373.86 721.508 L2373.86 715.493 L2378.76 715.493 L2378.76 721.508 Q2378.76 728.288 2376.25 730.866 Q2373.7 733.444 2367.02 733.444 L2347.67 733.444 L2347.67 737.741 L2343.12 737.741 L2343.12 733.444 L2332.99 733.444 L2332.99 727.556 Z" fill="#000000" fill-rule="nonzero" fill-opacity="1" /><path clip-path="url(#clip280)" d="M2359.48 677.298 L2362.34 677.298 L2362.34 704.225 Q2368.39 703.843 2371.57 700.597 Q2374.72 697.318 2374.72 691.494 Q2374.72 688.12 2373.89 684.969 Q2373.07 681.786 2371.41 678.667 L2376.95 678.667 Q2378.29 681.818 2378.99 685.128 Q2379.69 688.438 2379.69 691.844 Q2379.69 700.374 2374.72 705.371 Q2369.76 710.336 2361.29 710.336 Q2352.54 710.336 2347.41 705.626 Q2342.26 700.883 2342.26 692.862 Q2342.26 685.669 2346.9 681.5 Q2351.52 677.298 2359.48 677.298 M2357.76 683.155 Q2352.95 683.218 2350.09 685.86 Q2347.22 688.47 2347.22 692.799 Q2347.22 697.7 2349.99 700.66 Q2352.76 703.589 2357.79 704.034 L2357.76 683.155 Z" fill="#000000" fill-rule="nonzero" fill-opacity="1" /><path clip-path="url(#clip280)" d="M2359.48 616.474 L2362.34 616.474 L2362.34 643.401 Q2368.39 643.019 2371.57 639.773 Q2374.72 636.494 2374.72 630.67 Q2374.72 627.296 2373.89 624.145 Q2373.07 620.962 2371.41 617.843 L2376.95 617.843 Q2378.29 620.994 2378.99 624.304 Q2379.69 627.614 2379.69 631.02 Q2379.69 639.55 2374.72 644.547 Q2369.76 649.512 2361.29 649.512 Q2352.54 649.512 2347.41 644.801 Q2342.26 640.059 2342.26 632.038 Q2342.26 624.845 2346.9 620.675 Q2351.52 616.474 2359.48 616.474 M2357.76 622.33 Q2352.95 622.394 2350.09 625.036 Q2347.22 627.646 2347.22 631.975 Q2347.22 636.876 2349.99 639.836 Q2352.76 642.764 2357.79 643.21 L2357.76 622.33 Z" fill="#000000" fill-rule="nonzero" fill-opacity="1" /><path clip-path="url(#clip280)" d="M2348.59 586.205 Q2348.02 587.192 2347.76 588.369 Q2347.48 589.515 2347.48 590.916 Q2347.48 595.881 2350.72 598.555 Q2353.94 601.196 2359.99 601.196 L2378.76 601.196 L2378.76 607.085 L2343.12 607.085 L2343.12 601.196 L2348.65 601.196 Q2345.41 599.35 2343.85 596.39 Q2342.26 593.43 2342.26 589.197 Q2342.26 588.592 2342.35 587.86 Q2342.42 587.128 2342.57 586.237 L2348.59 586.205 Z" fill="#000000" fill-rule="nonzero" fill-opacity="1" /><path clip-path="url(#clip280)" d="M2348.59 560.551 Q2348.02 561.538 2347.76 562.716 Q2347.48 563.861 2347.48 565.262 Q2347.48 570.227 2350.72 572.901 Q2353.94 575.543 2359.99 575.543 L2378.76 575.543 L2378.76 581.431 L2343.12 581.431 L2343.12 575.543 L2348.65 575.543 Q2345.41 573.696 2343.85 570.736 Q2342.26 567.776 2342.26 563.543 Q2342.26 562.938 2342.35 562.206 Q2342.42 561.474 2342.57 560.583 L2348.59 560.551 Z" fill="#000000" fill-rule="nonzero" fill-opacity="1" /><path clip-path="url(#clip280)" d="M2347.22 542.027 Q2347.22 546.738 2350.91 549.475 Q2354.57 552.212 2360.97 552.212 Q2367.37 552.212 2371.06 549.507 Q2374.72 546.77 2374.72 542.027 Q2374.72 537.348 2371.03 534.611 Q2367.34 531.874 2360.97 531.874 Q2354.64 531.874 2350.95 534.611 Q2347.22 537.348 2347.22 542.027 M2342.26 542.027 Q2342.26 534.388 2347.22 530.028 Q2352.19 525.667 2360.97 525.667 Q2369.72 525.667 2374.72 530.028 Q2379.69 534.388 2379.69 542.027 Q2379.69 549.698 2374.72 554.058 Q2369.72 558.387 2360.97 558.387 Q2352.19 558.387 2347.22 554.058 Q2342.26 549.698 2342.26 542.027 Z" fill="#000000" fill-rule="nonzero" fill-opacity="1" /><path clip-path="url(#clip280)" d="M2348.59 495.303 Q2348.02 496.289 2347.76 497.467 Q2347.48 498.613 2347.48 500.013 Q2347.48 504.979 2350.72 507.652 Q2353.94 510.294 2359.99 510.294 L2378.76 510.294 L2378.76 516.182 L2343.12 516.182 L2343.12 510.294 L2348.65 510.294 Q2345.41 508.448 2343.85 505.488 Q2342.26 502.528 2342.26 498.295 Q2342.26 497.69 2342.35 496.958 Q2342.42 496.226 2342.57 495.335 L2348.59 495.303 Z" fill="#000000" fill-rule="nonzero" fill-opacity="1" /><polyline clip-path="url(#clip282)" style="stroke:#808080; stroke-linecap:round; stroke-linejoin:round; stroke-width:6; stroke-opacity:1; fill:none" stroke-dasharray="3, 6" points="270.272,834.63 276.861,1381.49 283.45,1382.12 290.039,1389.75 296.628,1398.5 303.217,1391.26 309.806,1368.1 316.395,1290.99 322.984,1149.2 329.573,1349 336.162,1380.81 342.751,1397.62 349.341,1390.77 355.93,1397.73 362.519,1403.81 369.108,1405.19 375.697,1156.23 382.286,1399.89 388.875,1399.57 395.464,1402.75 402.053,1398.21 408.642,1396.78 415.231,1383.86 421.82,1352.36 428.409,1217.85 434.998,1237.81 441.587,1341.06 448.176,1392.11 454.765,1399.46 461.354,1370.42 467.943,1367.65 474.532,1369.56 481.121,1269.57 487.71,1384.11 494.299,1392.59 500.888,1383.7 507.477,1383.6 514.066,1388.16 520.655,1339.42 527.244,1224.27 533.833,1374.27 540.422,1404.27 547.011,1402.46 553.6,1389.46 560.189,1404.34 566.778,1405.31 573.367,1395.95 579.956,1403.69 586.545,1107.7 593.134,1372.71 599.723,1392.66 606.312,1383.99 612.901,1385.95 619.49,1384.19 626.079,1350.98 632.668,1334.92 639.257,1377.02 645.846,1226.91 652.435,1368.67 659.024,1402.68 665.613,1370.86 672.202,1384.21 678.791,1390.33 685.381,1403.45 691.97,1305.37 698.559,1358.94 705.148,1387.92 711.737,1383.33 718.326,1387.39 724.915,1382.06 731.504,1355.4 738.093,1400.83 744.682,1225.42 751.271,1049.7 757.86,1350.98 764.449,1384.85 771.038,1344.83 777.627,1389.67 784.216,1352.24 790.805,1387.21 797.394,1183.52 803.983,1355.32 810.572,1398.64 817.161,1319.99 823.75,1364.79 830.339,1329.71 836.928,1268.71 843.517,1195.07 850.106,1300.68 856.695,1137.6 863.284,1342.56 869.873,1381.83 876.462,1328.32 883.051,1376.77 889.64,1325.78 896.229,1379.8 902.818,1225.64 909.407,1379.94 915.996,1353.3 922.585,1327.87 929.174,1371.67 935.763,1403.76 942.352,1366.35 948.941,1349.28 955.53,1350.52 962.119,1363.32 968.708,1387.68 975.297,1390.05 981.886,1402.15 988.475,1389.58 995.064,1382.22 1001.65,1397.51 1008.24,1171.54 1014.83,1395.74 1021.42,1385.51 1028.01,1377.77 1034.6,1379.3 1041.19,1388.17 1047.78,1397.08 1054.37,1403.7 1060.95,1405.73 1067.54,1404.74 1074.13,1404.51 1080.72,1403.67 1087.31,1403.41 1093.9,1404.49 1100.49,1405.58 1107.08,1405.98 1113.67,1158.52 1120.26,1404.88 1126.84,1404.68 1133.43,1404.32 1140.02,1404.74 1146.61,1405.39 1153.2,1405.68 1159.79,1406.21 1166.38,1395.75 1172.97,1384.64 1179.56,1382.98 1186.15,1378.93 1192.74,1381.75 1199.32,1391.04 1205.91,1400.17 1212.5,1404.94 1219.09,1182.45 1225.68,1369.37 1232.27,1378.34 1238.86,1394.47 1245.45,1382.98 1252.04,1387.35 1258.63,1388.11 1265.21,1389.94 1271.8,1347.81 1278.39,1316.25 1284.98,1405.09 1291.57,1372.89 1298.16,1334.19 1304.75,1367.25 1311.34,1401.36 1317.93,1405.52 1324.52,1325.23 1331.1,1335.7 1337.69,1377.51 1344.28,1348.19 1350.87,1381.19 1357.46,1359.42 1364.05,1284.2 1370.64,1301.47 1377.23,1260.64 1383.82,1050.31 1390.41,1290.77 1396.99,1354.92 1403.58,1305.05 1410.17,1399.12 1416.76,1345.61 1423.35,1383.96 1429.94,1286 1436.53,1350.03 1443.12,1391.48 1449.71,1348.62 1456.3,1391.46 1462.88,1370.44 1469.47,1279.16 1476.06,1255.53 1482.65,1149.53 1489.24,1313.33 1495.83,1368.77 1502.42,1379.54 1509.01,1372.39 1515.6,1388.65 1522.19,1358.44 1528.78,1388.36 1535.36,726.76 1541.95,1392.14 1548.54,1387.97 1555.13,1375.99 1561.72,1401.84 1568.31,1382.31 1574.9,1340.27 1581.49,1349.88 1588.08,1374.36 1594.67,1255.15 1601.25,1372 1607.84,1380.37 1614.43,1378.27 1621.02,1395.04 1627.61,1375.08 1634.2,1394.41 1640.79,1212.6 1647.38,1398.35 1653.97,1403.89 1660.56,1404.05 1667.14,1393.25 1673.73,1403.74 1680.32,1404.36 1686.91,1368.54 1693.5,1130.84 1700.09,1198.5 1706.68,1377.36 1713.27,1377.64 1719.86,1379.09 1726.45,1393.92 1733.03,1387.99 1739.62,1404.52 1746.21,1020.82 1752.8,1372.16 1759.39,1372.1 1765.98,1400.34 1772.57,1395.72 1779.16,1364.28 1785.75,1350.56 1792.34,1305.24 1798.92,1268.75 1805.51,1308.77 1812.1,1390.15 1818.69,1394.84 1825.28,1399.69 1831.87,1399.17 1838.46,1405.23 1845.05,1406.23 1851.64,1196.19 1858.23,1401.46 1864.82,1401.53 1871.4,1394.83 1877.99,1401.52 1884.58,1391.46 1891.17,1397.62 1897.76,1404.71 1904.35,1395.75 1910.94,1339.52 1917.53,1386.12 1924.12,1396.61 1930.71,1387.56 1937.29,1377.88 1943.88,1383.78 1950.47,1379.65 "/>
<path clip-path="url(#clip280)" d="M1628.73 196.225 L1941.51 196.225 L1941.51 92.5451 L1628.73 92.5451  Z" fill="#ffffff" fill-rule="evenodd" fill-opacity="1"/>
<polyline clip-path="url(#clip280)" style="stroke:#000000; stroke-linecap:round; stroke-linejoin:round; stroke-width:4; stroke-opacity:1; fill:none" points="1628.73,196.225 1941.51,196.225 1941.51,92.5451 1628.73,92.5451 1628.73,196.225 "/>
<polyline clip-path="url(#clip280)" style="stroke:#808080; stroke-linecap:round; stroke-linejoin:round; stroke-width:6; stroke-opacity:1; fill:none" stroke-dasharray="3, 6" points="1648.52,144.385 1767.26,144.385 "/>
<path clip-path="url(#clip280)" d="M1790.98 125.438 L1790.98 172.846 L1787.05 172.846 L1787.05 125.438 L1790.98 125.438 Z" fill="#000000" fill-rule="nonzero" fill-opacity="1" /><path clip-path="url(#clip280)" d="M1823.64 147.637 L1823.64 149.721 L1804.06 149.721 Q1804.34 154.119 1806.7 156.434 Q1809.08 158.725 1813.32 158.725 Q1815.77 158.725 1818.07 158.123 Q1820.38 157.522 1822.65 156.318 L1822.65 160.346 Q1820.36 161.318 1817.95 161.827 Q1815.54 162.336 1813.07 162.336 Q1806.86 162.336 1803.23 158.725 Q1799.62 155.114 1799.62 148.957 Q1799.62 142.591 1803.04 138.864 Q1806.49 135.114 1812.32 135.114 Q1817.56 135.114 1820.59 138.494 Q1823.64 141.85 1823.64 147.637 M1819.38 146.387 Q1819.34 142.892 1817.42 140.809 Q1815.52 138.725 1812.37 138.725 Q1808.81 138.725 1806.65 140.739 Q1804.52 142.753 1804.2 146.411 L1819.38 146.387 Z" fill="#000000" fill-rule="nonzero" fill-opacity="1" /><path clip-path="url(#clip280)" d="M1845.66 139.721 Q1844.94 139.304 1844.08 139.119 Q1843.25 138.911 1842.23 138.911 Q1838.62 138.911 1836.68 141.272 Q1834.76 143.61 1834.76 148.008 L1834.76 161.665 L1830.47 161.665 L1830.47 135.739 L1834.76 135.739 L1834.76 139.767 Q1836.1 137.406 1838.25 136.272 Q1840.4 135.114 1843.48 135.114 Q1843.92 135.114 1844.45 135.184 Q1844.99 135.23 1845.63 135.346 L1845.66 139.721 Z" fill="#000000" fill-rule="nonzero" fill-opacity="1" /><path clip-path="url(#clip280)" d="M1864.32 139.721 Q1863.6 139.304 1862.74 139.119 Q1861.91 138.911 1860.89 138.911 Q1857.28 138.911 1855.33 141.272 Q1853.41 143.61 1853.41 148.008 L1853.41 161.665 L1849.13 161.665 L1849.13 135.739 L1853.41 135.739 L1853.41 139.767 Q1854.76 137.406 1856.91 136.272 Q1859.06 135.114 1862.14 135.114 Q1862.58 135.114 1863.11 135.184 Q1863.64 135.23 1864.29 135.346 L1864.32 139.721 Z" fill="#000000" fill-rule="nonzero" fill-opacity="1" /><path clip-path="url(#clip280)" d="M1877.79 138.725 Q1874.36 138.725 1872.37 141.411 Q1870.38 144.073 1870.38 148.725 Q1870.38 153.378 1872.35 156.063 Q1874.34 158.725 1877.79 158.725 Q1881.19 158.725 1883.18 156.04 Q1885.17 153.355 1885.17 148.725 Q1885.17 144.119 1883.18 141.434 Q1881.19 138.725 1877.79 138.725 M1877.79 135.114 Q1883.34 135.114 1886.51 138.725 Q1889.69 142.337 1889.69 148.725 Q1889.69 155.091 1886.51 158.725 Q1883.34 162.336 1877.79 162.336 Q1872.21 162.336 1869.04 158.725 Q1865.89 155.091 1865.89 148.725 Q1865.89 142.337 1869.04 138.725 Q1872.21 135.114 1877.79 135.114 Z" fill="#000000" fill-rule="nonzero" fill-opacity="1" /><path clip-path="url(#clip280)" d="M1911.77 139.721 Q1911.05 139.304 1910.19 139.119 Q1909.36 138.911 1908.34 138.911 Q1904.73 138.911 1902.79 141.272 Q1900.87 143.61 1900.87 148.008 L1900.87 161.665 L1896.58 161.665 L1896.58 135.739 L1900.87 135.739 L1900.87 139.767 Q1902.21 137.406 1904.36 136.272 Q1906.51 135.114 1909.59 135.114 Q1910.03 135.114 1910.56 135.184 Q1911.1 135.23 1911.75 135.346 L1911.77 139.721 Z" fill="#000000" fill-rule="nonzero" fill-opacity="1" /><path clip-path="url(#clip280)" d="M1921.72 125.438 L1921.72 172.846 L1917.79 172.846 L1917.79 125.438 L1921.72 125.438 Z" fill="#000000" fill-rule="nonzero" fill-opacity="1" /></svg>
