<?xml version="1.0" encoding="utf-8"?>
<svg xmlns="http://www.w3.org/2000/svg" xmlns:xlink="http://www.w3.org/1999/xlink" width="600" height="400" viewBox="0 0 2400 1600">
<defs>
  <clipPath id="clip100">
    <rect x="0" y="0" width="2400" height="1600"/>
  </clipPath>
</defs>
<path clip-path="url(#clip100)" d="M0 1600 L2400 1600 L2400 8.88178e-14 L0 8.88178e-14  Z" fill="#ffffff" fill-rule="evenodd" fill-opacity="1"/>
<defs>
  <clipPath id="clip101">
    <rect x="210" y="47" width="2143" height="1377"/>
  </clipPath>
</defs>
<path clip-path="url(#clip100)" d="M219.866 1407.28 L2000.88 1407.28 L2000.88 47.2441 L219.866 47.2441  Z" fill="#ffffff" fill-rule="evenodd" fill-opacity="1"/>
<defs>
  <clipPath id="clip102">
    <rect x="219" y="47" width="1782" height="1361"/>
  </clipPath>
</defs>
<polyline clip-path="url(#clip102)" style="stroke:#000000; stroke-linecap:round; stroke-linejoin:round; stroke-width:2; stroke-opacity:0.1; fill:none" points="270.272,1407.28 270.272,47.2441 "/>
<polyline clip-path="url(#clip102)" style="stroke:#000000; stroke-linecap:round; stroke-linejoin:round; stroke-width:2; stroke-opacity:0.1; fill:none" points="691.97,1407.28 691.97,47.2441 "/>
<polyline clip-path="url(#clip102)" style="stroke:#000000; stroke-linecap:round; stroke-linejoin:round; stroke-width:2; stroke-opacity:0.1; fill:none" points="825.727,1407.28 825.727,47.2441 "/>
<polyline clip-path="url(#clip102)" style="stroke:#000000; stroke-linecap:round; stroke-linejoin:round; stroke-width:2; stroke-opacity:0.1; fill:none" points="1058.65,1407.28 1058.65,47.2441 "/>
<polyline clip-path="url(#clip102)" style="stroke:#000000; stroke-linecap:round; stroke-linejoin:round; stroke-width:2; stroke-opacity:0.1; fill:none" points="1168.69,1407.28 1168.69,47.2441 "/>
<polyline clip-path="url(#clip102)" style="stroke:#000000; stroke-linecap:round; stroke-linejoin:round; stroke-width:2; stroke-opacity:0.1; fill:none" points="1401.61,1407.28 1401.61,47.2441 "/>
<polyline clip-path="url(#clip102)" style="stroke:#000000; stroke-linecap:round; stroke-linejoin:round; stroke-width:2; stroke-opacity:0.1; fill:none" points="1535.36,1407.28 1535.36,47.2441 "/>
<polyline clip-path="url(#clip102)" style="stroke:#000000; stroke-linecap:round; stroke-linejoin:round; stroke-width:2; stroke-opacity:0.1; fill:none" points="1957.06,1407.28 1957.06,47.2441 "/>
<polyline clip-path="url(#clip100)" style="stroke:#000000; stroke-linecap:round; stroke-linejoin:round; stroke-width:4; stroke-opacity:1; fill:none" points="219.866,1407.28 2000.88,1407.28 "/>
<polyline clip-path="url(#clip100)" style="stroke:#000000; stroke-linecap:round; stroke-linejoin:round; stroke-width:4; stroke-opacity:1; fill:none" points="270.272,1407.28 270.272,1388.38 "/>
<polyline clip-path="url(#clip100)" style="stroke:#000000; stroke-linecap:round; stroke-linejoin:round; stroke-width:4; stroke-opacity:1; fill:none" points="691.97,1407.28 691.97,1388.38 "/>
<polyline clip-path="url(#clip100)" style="stroke:#000000; stroke-linecap:round; stroke-linejoin:round; stroke-width:4; stroke-opacity:1; fill:none" points="825.727,1407.28 825.727,1388.38 "/>
<polyline clip-path="url(#clip100)" style="stroke:#000000; stroke-linecap:round; stroke-linejoin:round; stroke-width:4; stroke-opacity:1; fill:none" points="1058.65,1407.28 1058.65,1388.38 "/>
<polyline clip-path="url(#clip100)" style="stroke:#000000; stroke-linecap:round; stroke-linejoin:round; stroke-width:4; stroke-opacity:1; fill:none" points="1168.69,1407.28 1168.69,1388.38 "/>
<polyline clip-path="url(#clip100)" style="stroke:#000000; stroke-linecap:round; stroke-linejoin:round; stroke-width:4; stroke-opacity:1; fill:none" points="1401.61,1407.28 1401.61,1388.38 "/>
<polyline clip-path="url(#clip100)" style="stroke:#000000; stroke-linecap:round; stroke-linejoin:round; stroke-width:4; stroke-opacity:1; fill:none" points="1535.36,1407.28 1535.36,1388.38 "/>
<polyline clip-path="url(#clip100)" style="stroke:#000000; stroke-linecap:round; stroke-linejoin:round; stroke-width:4; stroke-opacity:1; fill:none" points="1957.06,1407.28 1957.06,1388.38 "/>
<path clip-path="url(#clip100)" d="M269.933 1449.7 Q270.214 1449.98 270.214 1450.38 Q270.214 1450.78 269.933 1451.06 Q269.652 1451.34 269.253 1451.34 L239.226 1451.34 Q238.828 1451.34 238.547 1451.06 Q238.265 1450.78 238.265 1450.38 Q238.265 1449.98 238.547 1449.7 Q238.828 1449.42 239.226 1449.42 L269.253 1449.42 Q269.652 1449.42 269.933 1449.7 Z" fill="#000000" fill-rule="nonzero" fill-opacity="1" /><path clip-path="url(#clip100)" d="M301.118 1442.84 Q301.118 1444.48 298.775 1444.48 L293.295 1444.48 Q292.451 1448.37 292.451 1452.11 Q292.451 1456.59 293.833 1460.03 Q294.114 1460.71 294.114 1461.08 Q294.114 1461.79 293.482 1462.35 Q292.873 1462.91 292.147 1462.91 Q291.538 1462.91 291.14 1462.44 Q290.765 1461.97 290.437 1460.5 Q290.039 1458.77 290.039 1456.84 Q290.039 1454.55 290.414 1452.35 Q290.788 1450.12 292.053 1444.48 L286.643 1444.48 L283.949 1455.09 Q282.989 1458.67 282.661 1459.77 Q282.45 1460.43 282.38 1460.64 Q282.309 1460.85 282.099 1461.37 Q281.911 1461.86 281.771 1462.04 Q281.63 1462.21 281.396 1462.47 Q281.162 1462.75 280.881 1462.82 Q280.6 1462.91 280.248 1462.91 Q279.71 1462.91 279.288 1462.56 Q278.866 1462.23 278.866 1461.6 Q278.866 1461.18 279.241 1460.45 Q283.691 1450.85 285.378 1444.48 L282.661 1444.48 Q278.913 1444.48 276.571 1448.18 Q276.196 1448.67 275.985 1448.72 Q275.892 1448.74 275.798 1448.74 Q275.54 1448.74 275.376 1448.62 Q275.236 1448.51 275.236 1448.39 L275.212 1448.27 Q275.212 1448.13 275.564 1447.5 Q275.939 1446.84 276.641 1445.84 Q277.367 1444.83 278.14 1443.96 Q278.89 1443.17 279.616 1442.67 Q280.365 1442.16 281.068 1441.97 Q281.771 1441.78 282.169 1441.74 Q282.567 1441.69 283.129 1441.69 L299.197 1441.69 Q299.806 1441.69 300.134 1441.74 Q300.462 1441.76 300.79 1442.04 Q301.118 1442.3 301.118 1442.84 Z" fill="#000000" fill-rule="nonzero" fill-opacity="1" /><path clip-path="url(#clip100)" d="M682.103 1458.22 Q682.384 1458.5 682.384 1458.9 Q682.384 1459.3 682.103 1459.58 Q681.822 1459.86 681.424 1459.86 L651.396 1459.86 Q650.998 1459.86 650.717 1459.58 Q650.436 1459.3 650.436 1458.9 Q650.436 1458.5 650.717 1458.22 Q650.998 1457.94 651.396 1457.94 L681.424 1457.94 Q681.822 1457.94 682.103 1458.22 Z" fill="#000000" fill-rule="nonzero" fill-opacity="1" /><path clip-path="url(#clip100)" d="M723.528 1427.43 Q723.528 1429.07 721.186 1429.07 L715.705 1429.07 Q714.862 1432.95 714.862 1436.7 Q714.862 1441.17 716.244 1444.62 Q716.525 1445.3 716.525 1445.67 Q716.525 1446.37 715.892 1446.94 Q715.283 1447.5 714.557 1447.5 Q713.948 1447.5 713.55 1447.03 Q713.175 1446.56 712.847 1445.09 Q712.449 1443.35 712.449 1441.43 Q712.449 1439.14 712.824 1436.94 Q713.199 1434.71 714.463 1429.07 L709.053 1429.07 L706.359 1439.68 Q705.399 1443.26 705.071 1444.36 Q704.86 1445.02 704.79 1445.23 Q704.72 1445.44 704.509 1445.95 Q704.322 1446.44 704.181 1446.63 Q704.04 1446.8 703.806 1447.05 Q703.572 1447.33 703.291 1447.41 Q703.01 1447.5 702.659 1447.5 Q702.12 1447.5 701.698 1447.15 Q701.277 1446.82 701.277 1446.19 Q701.277 1445.77 701.651 1445.04 Q706.102 1435.44 707.788 1429.07 L705.071 1429.07 Q701.323 1429.07 698.981 1432.77 Q698.606 1433.26 698.396 1433.3 Q698.302 1433.33 698.208 1433.33 Q697.951 1433.33 697.787 1433.21 Q697.646 1433.09 697.646 1432.98 L697.623 1432.86 Q697.623 1432.72 697.974 1432.09 Q698.349 1431.43 699.052 1430.42 Q699.778 1429.42 700.551 1428.55 Q701.3 1427.75 702.026 1427.26 Q702.776 1426.75 703.478 1426.56 Q704.181 1426.37 704.579 1426.32 Q704.977 1426.28 705.54 1426.28 L721.607 1426.28 Q722.216 1426.28 722.544 1426.32 Q722.872 1426.35 723.2 1426.63 Q723.528 1426.89 723.528 1427.43 Z" fill="#000000" fill-rule="nonzero" fill-opacity="1" /><path clip-path="url(#clip100)" d="M697.623 1460.29 L728.383 1460.29 L728.383 1457.73 L697.623 1457.73  Z" fill="#000000" fill-rule="evenodd" fill-opacity="1"/>
<path clip-path="url(#clip100)" d="M700.623 1502.17 Q700.623 1501.31 700.693 1501.05 Q700.787 1500.79 701.161 1500.39 L710.366 1490.13 Q715.402 1484.46 715.402 1479.52 Q715.402 1476.31 713.716 1474.02 Q712.053 1471.72 708.985 1471.72 Q706.877 1471.72 705.096 1473.01 Q703.316 1474.3 702.497 1476.59 Q702.637 1476.55 703.129 1476.55 Q704.323 1476.55 704.979 1477.3 Q705.659 1478.05 705.659 1479.05 Q705.659 1480.34 704.815 1480.97 Q703.996 1481.58 703.176 1481.58 Q702.848 1481.58 702.403 1481.51 Q701.981 1481.44 701.302 1480.79 Q700.623 1480.11 700.623 1478.91 Q700.623 1475.56 703.152 1472.89 Q705.705 1470.22 709.594 1470.22 Q713.997 1470.22 716.878 1472.85 Q719.782 1475.45 719.782 1479.52 Q719.782 1480.95 719.337 1482.26 Q718.916 1483.55 718.33 1484.56 Q717.768 1485.57 716.222 1487.18 Q714.676 1488.8 713.435 1489.95 Q712.193 1491.09 709.406 1493.53 L704.323 1498.47 L712.966 1498.47 Q717.182 1498.47 717.51 1498.1 Q717.979 1497.42 718.564 1493.83 L719.782 1493.83 L718.424 1502.17 L700.623 1502.17 Z" fill="#000000" fill-rule="nonzero" fill-opacity="1" /><path clip-path="url(#clip100)" d="M812.138 1449.82 Q812.419 1450.1 812.419 1450.5 Q812.419 1450.9 812.138 1451.18 Q811.857 1451.46 811.459 1451.46 L781.431 1451.46 Q781.033 1451.46 780.752 1451.18 Q780.471 1450.9 780.471 1450.5 Q780.471 1450.1 780.752 1449.82 Q781.033 1449.54 781.431 1449.54 L811.459 1449.54 Q811.857 1449.54 812.138 1449.82 Z" fill="#000000" fill-rule="nonzero" fill-opacity="1" /><path clip-path="url(#clip100)" d="M817.418 1454.72 L818.612 1454.72 Q819.291 1457.97 819.619 1458.46 Q820.088 1459.28 822.126 1459.38 Q822.547 1459.38 823.273 1459.38 L826.482 1459.38 Q825.897 1457.18 824.421 1454.65 Q822.945 1452.09 821.54 1450.2 Q820.158 1448.3 819.057 1445.72 Q817.956 1443.12 817.956 1440.66 Q817.956 1435.77 822.172 1432.23 Q826.388 1428.67 832.572 1428.67 Q838.755 1428.67 842.995 1432.21 Q847.258 1435.72 847.258 1440.66 Q847.258 1443.1 846.157 1445.68 Q845.056 1448.25 843.674 1450.15 Q842.316 1452.05 840.793 1454.62 Q839.294 1457.18 838.709 1459.38 L841.988 1459.38 Q844.681 1459.38 845.22 1458.89 Q845.759 1458.37 846.344 1455.68 Q846.438 1455.04 846.532 1454.72 L847.773 1454.72 L846.204 1462.49 L838.521 1462.49 Q837.889 1462.49 837.608 1462.31 Q837.327 1462.12 837.327 1461.44 Q837.327 1458.18 839.81 1451.18 Q842.316 1444.18 842.316 1440.66 Q842.316 1435.44 839.341 1432.58 Q836.366 1429.73 832.572 1429.73 Q828.824 1429.73 825.85 1432.56 Q822.899 1435.39 822.899 1440.66 Q822.899 1444.22 825.381 1451.2 Q827.887 1458.18 827.887 1461.39 Q827.887 1462.17 827.583 1462.33 Q827.302 1462.49 826.342 1462.49 L819.01 1462.49 L817.418 1454.72 Z" fill="#000000" fill-rule="nonzero" fill-opacity="1" /><path clip-path="url(#clip100)" d="M852.585 1475.78 Q852.585 1475.18 852.634 1475 Q852.699 1474.82 852.962 1474.54 L859.405 1467.35 Q862.93 1463.39 862.93 1459.93 Q862.93 1457.68 861.75 1456.07 Q860.586 1454.47 858.438 1454.47 Q856.962 1454.47 855.716 1455.37 Q854.47 1456.27 853.896 1457.88 Q853.995 1457.85 854.339 1457.85 Q855.175 1457.85 855.634 1458.37 Q856.11 1458.89 856.11 1459.6 Q856.11 1460.5 855.519 1460.94 Q854.946 1461.37 854.372 1461.37 Q854.142 1461.37 853.831 1461.32 Q853.535 1461.27 853.06 1460.81 Q852.585 1460.34 852.585 1459.5 Q852.585 1457.16 854.355 1455.29 Q856.142 1453.42 858.864 1453.42 Q861.946 1453.42 863.963 1455.25 Q865.996 1457.07 865.996 1459.93 Q865.996 1460.93 865.685 1461.85 Q865.39 1462.75 864.98 1463.45 Q864.586 1464.16 863.504 1465.29 Q862.422 1466.42 861.553 1467.22 Q860.684 1468.03 858.733 1469.73 L855.175 1473.19 L861.225 1473.19 Q864.176 1473.19 864.406 1472.93 Q864.734 1472.45 865.144 1469.95 L865.996 1469.95 L865.045 1475.78 L852.585 1475.78 Z" fill="#000000" fill-rule="nonzero" fill-opacity="1" /><path clip-path="url(#clip100)" d="M1046.21 1449.82 Q1046.49 1450.1 1046.49 1450.5 Q1046.49 1450.9 1046.21 1451.18 Q1045.93 1451.46 1045.53 1451.46 L1015.51 1451.46 Q1015.11 1451.46 1014.83 1451.18 Q1014.55 1450.9 1014.55 1450.5 Q1014.55 1450.1 1014.83 1449.82 Q1015.11 1449.54 1015.51 1449.54 L1045.53 1449.54 Q1045.93 1449.54 1046.21 1449.82 Z" fill="#000000" fill-rule="nonzero" fill-opacity="1" /><path clip-path="url(#clip100)" d="M1051.49 1454.72 L1052.69 1454.72 Q1053.37 1457.97 1053.7 1458.46 Q1054.16 1459.28 1056.2 1459.38 Q1056.62 1459.38 1057.35 1459.38 L1060.56 1459.38 Q1059.97 1457.18 1058.5 1454.65 Q1057.02 1452.09 1055.62 1450.2 Q1054.23 1448.3 1053.13 1445.72 Q1052.03 1443.12 1052.03 1440.66 Q1052.03 1435.77 1056.25 1432.23 Q1060.46 1428.67 1066.65 1428.67 Q1072.83 1428.67 1077.07 1432.21 Q1081.33 1435.72 1081.33 1440.66 Q1081.33 1443.1 1080.23 1445.68 Q1079.13 1448.25 1077.75 1450.15 Q1076.39 1452.05 1074.87 1454.62 Q1073.37 1457.18 1072.78 1459.38 L1076.06 1459.38 Q1078.76 1459.38 1079.3 1458.89 Q1079.83 1458.37 1080.42 1455.68 Q1080.51 1455.04 1080.61 1454.72 L1081.85 1454.72 L1080.28 1462.49 L1072.6 1462.49 Q1071.96 1462.49 1071.68 1462.31 Q1071.4 1462.12 1071.4 1461.44 Q1071.4 1458.18 1073.89 1451.18 Q1076.39 1444.18 1076.39 1440.66 Q1076.39 1435.44 1073.42 1432.58 Q1070.44 1429.73 1066.65 1429.73 Q1062.9 1429.73 1059.93 1432.56 Q1056.97 1435.39 1056.97 1440.66 Q1056.97 1444.22 1059.46 1451.2 Q1061.96 1458.18 1061.96 1461.39 Q1061.96 1462.17 1061.66 1462.33 Q1061.38 1462.49 1060.42 1462.49 L1053.09 1462.49 L1051.49 1454.72 Z" fill="#000000" fill-rule="nonzero" fill-opacity="1" /><path clip-path="url(#clip100)" d="M1086.66 1456.62 L1086.66 1455.57 Q1090.69 1455.57 1092.78 1453.42 Q1093.35 1453.42 1093.45 1453.55 Q1093.55 1453.68 1093.55 1454.29 L1093.55 1473.13 Q1093.55 1474.13 1094.04 1474.44 Q1094.53 1474.75 1096.68 1474.75 L1097.74 1474.75 L1097.74 1475.78 Q1096.56 1475.68 1092.3 1475.68 Q1088.04 1475.68 1086.87 1475.78 L1086.87 1474.75 L1087.94 1474.75 Q1090.05 1474.75 1090.56 1474.45 Q1091.07 1474.14 1091.07 1473.13 L1091.07 1455.73 Q1089.32 1456.62 1086.66 1456.62 Z" fill="#000000" fill-rule="nonzero" fill-opacity="1" /><path clip-path="url(#clip100)" d="M1143.06 1454.72 L1144.25 1454.72 Q1144.93 1457.97 1145.26 1458.46 Q1145.73 1459.28 1147.76 1459.38 Q1148.19 1459.38 1148.91 1459.38 L1152.12 1459.38 Q1151.54 1457.18 1150.06 1454.65 Q1148.58 1452.09 1147.18 1450.2 Q1145.8 1448.3 1144.7 1445.72 Q1143.6 1443.12 1143.6 1440.66 Q1143.6 1435.77 1147.81 1432.23 Q1152.03 1428.67 1158.21 1428.67 Q1164.39 1428.67 1168.63 1432.21 Q1172.9 1435.72 1172.9 1440.66 Q1172.9 1443.1 1171.8 1445.68 Q1170.7 1448.25 1169.31 1450.15 Q1167.95 1452.05 1166.43 1454.62 Q1164.93 1457.18 1164.35 1459.38 L1167.63 1459.38 Q1170.32 1459.38 1170.86 1458.89 Q1171.4 1458.37 1171.98 1455.68 Q1172.08 1455.04 1172.17 1454.72 L1173.41 1454.72 L1171.84 1462.49 L1164.16 1462.49 Q1163.53 1462.49 1163.25 1462.31 Q1162.97 1462.12 1162.97 1461.44 Q1162.97 1458.18 1165.45 1451.18 Q1167.95 1444.18 1167.95 1440.66 Q1167.95 1435.44 1164.98 1432.58 Q1162.01 1429.73 1158.21 1429.73 Q1154.46 1429.73 1151.49 1432.56 Q1148.54 1435.39 1148.54 1440.66 Q1148.54 1444.22 1151.02 1451.2 Q1153.53 1458.18 1153.53 1461.39 Q1153.53 1462.17 1153.22 1462.33 Q1152.94 1462.49 1151.98 1462.49 L1144.65 1462.49 L1143.06 1454.72 Z" fill="#000000" fill-rule="nonzero" fill-opacity="1" /><path clip-path="url(#clip100)" d="M1178.22 1456.62 L1178.22 1455.57 Q1182.26 1455.57 1184.34 1453.42 Q1184.91 1453.42 1185.01 1453.55 Q1185.11 1453.68 1185.11 1454.29 L1185.11 1473.13 Q1185.11 1474.13 1185.6 1474.44 Q1186.09 1474.75 1188.24 1474.75 L1189.31 1474.75 L1189.31 1475.78 Q1188.13 1475.68 1183.86 1475.68 Q1179.6 1475.68 1178.44 1475.78 L1178.44 1474.75 L1179.5 1474.75 Q1181.62 1474.75 1182.13 1474.45 Q1182.63 1474.14 1182.63 1473.13 L1182.63 1455.73 Q1180.88 1456.62 1178.22 1456.62 Z" fill="#000000" fill-rule="nonzero" fill-opacity="1" /><path clip-path="url(#clip100)" d="M1374.82 1454.72 L1376.02 1454.72 Q1376.7 1457.97 1377.03 1458.46 Q1377.49 1459.28 1379.53 1459.38 Q1379.95 1459.38 1380.68 1459.38 L1383.89 1459.38 Q1383.3 1457.18 1381.83 1454.65 Q1380.35 1452.09 1378.95 1450.2 Q1377.56 1448.3 1376.46 1445.72 Q1375.36 1443.12 1375.36 1440.66 Q1375.36 1435.77 1379.58 1432.23 Q1383.8 1428.67 1389.98 1428.67 Q1396.16 1428.67 1400.4 1432.21 Q1404.66 1435.72 1404.66 1440.66 Q1404.66 1443.1 1403.56 1445.68 Q1402.46 1448.25 1401.08 1450.15 Q1399.72 1452.05 1398.2 1454.62 Q1396.7 1457.18 1396.12 1459.38 L1399.39 1459.38 Q1402.09 1459.38 1402.63 1458.89 Q1403.17 1458.37 1403.75 1455.68 Q1403.84 1455.04 1403.94 1454.72 L1405.18 1454.72 L1403.61 1462.49 L1395.93 1462.49 Q1395.3 1462.49 1395.01 1462.31 Q1394.73 1462.12 1394.73 1461.44 Q1394.73 1458.18 1397.22 1451.18 Q1399.72 1444.18 1399.72 1440.66 Q1399.72 1435.44 1396.75 1432.58 Q1393.77 1429.73 1389.98 1429.73 Q1386.23 1429.73 1383.26 1432.56 Q1380.31 1435.39 1380.31 1440.66 Q1380.31 1444.22 1382.79 1451.2 Q1385.29 1458.18 1385.29 1461.39 Q1385.29 1462.17 1384.99 1462.33 Q1384.71 1462.49 1383.75 1462.49 L1376.42 1462.49 L1374.82 1454.72 Z" fill="#000000" fill-rule="nonzero" fill-opacity="1" /><path clip-path="url(#clip100)" d="M1409.99 1475.78 Q1409.99 1475.18 1410.04 1475 Q1410.11 1474.82 1410.37 1474.54 L1416.81 1467.35 Q1420.34 1463.39 1420.34 1459.93 Q1420.34 1457.68 1419.16 1456.07 Q1417.99 1454.47 1415.84 1454.47 Q1414.37 1454.47 1413.12 1455.37 Q1411.88 1456.27 1411.3 1457.88 Q1411.4 1457.85 1411.75 1457.85 Q1412.58 1457.85 1413.04 1458.37 Q1413.52 1458.89 1413.52 1459.6 Q1413.52 1460.5 1412.93 1460.94 Q1412.35 1461.37 1411.78 1461.37 Q1411.55 1461.37 1411.24 1461.32 Q1410.94 1461.27 1410.47 1460.81 Q1409.99 1460.34 1409.99 1459.5 Q1409.99 1457.16 1411.76 1455.29 Q1413.55 1453.42 1416.27 1453.42 Q1419.35 1453.42 1421.37 1455.25 Q1423.4 1457.07 1423.4 1459.93 Q1423.4 1460.93 1423.09 1461.85 Q1422.8 1462.75 1422.39 1463.45 Q1421.99 1464.16 1420.91 1465.29 Q1419.83 1466.42 1418.96 1467.22 Q1418.09 1468.03 1416.14 1469.73 L1412.58 1473.19 L1418.63 1473.19 Q1421.58 1473.19 1421.81 1472.93 Q1422.14 1472.45 1422.55 1469.95 L1423.4 1469.95 L1422.45 1475.78 L1409.99 1475.78 Z" fill="#000000" fill-rule="nonzero" fill-opacity="1" /><path clip-path="url(#clip100)" d="M1548.45 1427.43 Q1548.45 1429.07 1546.11 1429.07 L1540.63 1429.07 Q1539.78 1432.95 1539.78 1436.7 Q1539.78 1441.17 1541.16 1444.62 Q1541.45 1445.3 1541.45 1445.67 Q1541.45 1446.37 1540.81 1446.94 Q1540.2 1447.5 1539.48 1447.5 Q1538.87 1447.5 1538.47 1447.03 Q1538.1 1446.56 1537.77 1445.09 Q1537.37 1443.35 1537.37 1441.43 Q1537.37 1439.14 1537.74 1436.94 Q1538.12 1434.71 1539.38 1429.07 L1533.97 1429.07 L1531.28 1439.68 Q1530.32 1443.26 1529.99 1444.36 Q1529.78 1445.02 1529.71 1445.23 Q1529.64 1445.44 1529.43 1445.95 Q1529.24 1446.44 1529.1 1446.63 Q1528.96 1446.8 1528.73 1447.05 Q1528.49 1447.33 1528.21 1447.41 Q1527.93 1447.5 1527.58 1447.5 Q1527.04 1447.5 1526.62 1447.15 Q1526.2 1446.82 1526.2 1446.19 Q1526.2 1445.77 1526.57 1445.04 Q1531.02 1435.44 1532.71 1429.07 L1529.99 1429.07 Q1526.24 1429.07 1523.9 1432.77 Q1523.53 1433.26 1523.32 1433.3 Q1523.22 1433.33 1523.13 1433.33 Q1522.87 1433.33 1522.71 1433.21 Q1522.57 1433.09 1522.57 1432.98 L1522.54 1432.86 Q1522.54 1432.72 1522.9 1432.09 Q1523.27 1431.43 1523.97 1430.42 Q1524.7 1429.42 1525.47 1428.55 Q1526.22 1427.75 1526.95 1427.26 Q1527.7 1426.75 1528.4 1426.56 Q1529.1 1426.37 1529.5 1426.32 Q1529.9 1426.28 1530.46 1426.28 L1546.53 1426.28 Q1547.14 1426.28 1547.47 1426.32 Q1547.79 1426.35 1548.12 1426.63 Q1548.45 1426.89 1548.45 1427.43 Z" fill="#000000" fill-rule="nonzero" fill-opacity="1" /><path clip-path="url(#clip100)" d="M1522.54 1460.29 L1553.3 1460.29 L1553.3 1457.73 L1522.54 1457.73  Z" fill="#000000" fill-rule="evenodd" fill-opacity="1"/>
<path clip-path="url(#clip100)" d="M1525.54 1502.17 Q1525.54 1501.31 1525.61 1501.05 Q1525.71 1500.79 1526.08 1500.39 L1535.29 1490.13 Q1540.32 1484.46 1540.32 1479.52 Q1540.32 1476.31 1538.64 1474.02 Q1536.97 1471.72 1533.91 1471.72 Q1531.8 1471.72 1530.02 1473.01 Q1528.24 1474.3 1527.42 1476.59 Q1527.56 1476.55 1528.05 1476.55 Q1529.24 1476.55 1529.9 1477.3 Q1530.58 1478.05 1530.58 1479.05 Q1530.58 1480.34 1529.74 1480.97 Q1528.92 1481.58 1528.1 1481.58 Q1527.77 1481.58 1527.32 1481.51 Q1526.9 1481.44 1526.22 1480.79 Q1525.54 1480.11 1525.54 1478.91 Q1525.54 1475.56 1528.07 1472.89 Q1530.63 1470.22 1534.51 1470.22 Q1538.92 1470.22 1541.8 1472.85 Q1544.7 1475.45 1544.7 1479.52 Q1544.7 1480.95 1544.26 1482.26 Q1543.84 1483.55 1543.25 1484.56 Q1542.69 1485.57 1541.14 1487.18 Q1539.6 1488.8 1538.36 1489.95 Q1537.11 1491.09 1534.33 1493.53 L1529.24 1498.47 L1537.89 1498.47 Q1542.1 1498.47 1542.43 1498.1 Q1542.9 1497.42 1543.49 1493.83 L1544.7 1493.83 L1543.34 1502.17 L1525.54 1502.17 Z" fill="#000000" fill-rule="nonzero" fill-opacity="1" /><path clip-path="url(#clip100)" d="M1969.43 1442.84 Q1969.43 1444.48 1967.09 1444.48 L1961.61 1444.48 Q1960.77 1448.37 1960.77 1452.11 Q1960.77 1456.59 1962.15 1460.03 Q1962.43 1460.71 1962.43 1461.08 Q1962.43 1461.79 1961.8 1462.35 Q1961.19 1462.91 1960.46 1462.91 Q1959.85 1462.91 1959.46 1462.44 Q1959.08 1461.97 1958.75 1460.5 Q1958.35 1458.77 1958.35 1456.84 Q1958.35 1454.55 1958.73 1452.35 Q1959.1 1450.12 1960.37 1444.48 L1954.96 1444.48 L1952.26 1455.09 Q1951.3 1458.67 1950.98 1459.77 Q1950.77 1460.43 1950.7 1460.64 Q1950.63 1460.85 1950.41 1461.37 Q1950.23 1461.86 1950.09 1462.04 Q1949.95 1462.21 1949.71 1462.47 Q1949.48 1462.75 1949.2 1462.82 Q1948.92 1462.91 1948.56 1462.91 Q1948.03 1462.91 1947.6 1462.56 Q1947.18 1462.23 1947.18 1461.6 Q1947.18 1461.18 1947.56 1460.45 Q1952.01 1450.85 1953.69 1444.48 L1950.98 1444.48 Q1947.23 1444.48 1944.89 1448.18 Q1944.51 1448.67 1944.3 1448.72 Q1944.21 1448.74 1944.11 1448.74 Q1943.86 1448.74 1943.69 1448.62 Q1943.55 1448.51 1943.55 1448.39 L1943.53 1448.27 Q1943.53 1448.13 1943.88 1447.5 Q1944.25 1446.84 1944.96 1445.84 Q1945.68 1444.83 1946.46 1443.96 Q1947.21 1443.17 1947.93 1442.67 Q1948.68 1442.16 1949.38 1441.97 Q1950.09 1441.78 1950.48 1441.74 Q1950.88 1441.69 1951.44 1441.69 L1967.51 1441.69 Q1968.12 1441.69 1968.45 1441.74 Q1968.78 1441.76 1969.11 1442.04 Q1969.43 1442.3 1969.43 1442.84 Z" fill="#000000" fill-rule="nonzero" fill-opacity="1" /><path clip-path="url(#clip100)" d="M1129.04 1537.01 Q1129.04 1540.01 1127.52 1545.81 Q1126.91 1548.32 1126.08 1550.6 Q1125.27 1552.86 1124.08 1555.05 Q1122.89 1557.24 1121.5 1558.82 Q1120.12 1560.36 1118.31 1561.33 Q1116.51 1562.29 1114.51 1562.29 Q1111.36 1562.29 1109.49 1560.43 Q1107.65 1558.53 1107.07 1555.27 Q1102.76 1562.29 1096.99 1562.29 Q1093.42 1562.29 1091.74 1559.75 Q1090.07 1557.17 1090.07 1552.86 Q1090.07 1549.22 1091.04 1545.45 Q1092.87 1538.3 1096.45 1533.31 Q1096.93 1532.73 1097.64 1532.73 Q1098.06 1532.73 1098.25 1532.86 Q1098.83 1533.21 1098.83 1533.79 Q1098.83 1534.21 1098.51 1534.63 Q1096.25 1537.75 1094.77 1540.43 Q1093.29 1543.1 1092.61 1545.81 Q1092.1 1548.12 1092.1 1550.09 Q1092.1 1553.41 1093.51 1555.47 Q1094.96 1557.53 1097.83 1557.53 Q1100.47 1557.53 1102.79 1555.89 Q1105.11 1554.21 1106.82 1551.41 Q1106.91 1548.35 1107.65 1545.45 Q1108.33 1542.36 1109.91 1542.36 Q1111.16 1542.36 1111.16 1544.07 Q1111.16 1544.65 1110.91 1545.81 Q1110.2 1548.87 1108.91 1551.6 Q1109.36 1554.28 1111.03 1555.92 Q1112.71 1557.53 1115.38 1557.53 Q1117.86 1557.53 1120.05 1555.72 Q1122.27 1553.92 1123.69 1551.28 Q1125.14 1548.61 1125.95 1545.45 Q1126.2 1544.39 1126.2 1543.04 Q1126.2 1539.43 1123.69 1537.21 Q1122.98 1536.5 1122.98 1535.56 Q1122.98 1534.47 1123.89 1533.47 Q1124.95 1532.41 1126.2 1532.41 Q1127.14 1532.41 1127.72 1532.99 Q1129.04 1534.15 1129.04 1537.01 Z" fill="#000000" fill-rule="nonzero" fill-opacity="1" /><polyline clip-path="url(#clip100)" style="stroke:#000000; stroke-linecap:round; stroke-linejoin:round; stroke-width:4; stroke-opacity:1; fill:none" points="219.866,1407.28 219.866,47.2441 "/>
<polyline clip-path="url(#clip100)" style="stroke:#000000; stroke-linecap:round; stroke-linejoin:round; stroke-width:4; stroke-opacity:1; fill:none" points="219.866,1370.27 238.764,1370.27 "/>
<polyline clip-path="url(#clip100)" style="stroke:#000000; stroke-linecap:round; stroke-linejoin:round; stroke-width:4; stroke-opacity:1; fill:none" points="219.866,1068.92 238.764,1068.92 "/>
<polyline clip-path="url(#clip100)" style="stroke:#000000; stroke-linecap:round; stroke-linejoin:round; stroke-width:4; stroke-opacity:1; fill:none" points="219.866,767.579 238.764,767.579 "/>
<polyline clip-path="url(#clip100)" style="stroke:#000000; stroke-linecap:round; stroke-linejoin:round; stroke-width:4; stroke-opacity:1; fill:none" points="219.866,466.233 238.764,466.233 "/>
<polyline clip-path="url(#clip100)" style="stroke:#000000; stroke-linecap:round; stroke-linejoin:round; stroke-width:4; stroke-opacity:1; fill:none" points="219.866,164.888 238.764,164.888 "/>
<path clip-path="url(#clip100)" d="M126.691 1356.07 Q123.08 1356.07 121.251 1359.63 Q119.445 1363.18 119.445 1370.3 Q119.445 1377.41 121.251 1380.98 Q123.08 1384.52 126.691 1384.52 Q130.325 1384.52 132.13 1380.98 Q133.959 1377.41 133.959 1370.3 Q133.959 1363.18 132.13 1359.63 Q130.325 1356.07 126.691 1356.07 M126.691 1352.37 Q132.501 1352.37 135.556 1356.97 Q138.635 1361.55 138.635 1370.3 Q138.635 1379.03 135.556 1383.64 Q132.501 1388.22 126.691 1388.22 Q120.88 1388.22 117.802 1383.64 Q114.746 1379.03 114.746 1370.3 Q114.746 1361.55 117.802 1356.97 Q120.88 1352.37 126.691 1352.37 Z" fill="#000000" fill-rule="nonzero" fill-opacity="1" /><path clip-path="url(#clip100)" d="M146.853 1381.67 L151.737 1381.67 L151.737 1387.55 L146.853 1387.55 L146.853 1381.67 Z" fill="#000000" fill-rule="nonzero" fill-opacity="1" /><path clip-path="url(#clip100)" d="M171.922 1356.07 Q168.311 1356.07 166.482 1359.63 Q164.677 1363.18 164.677 1370.3 Q164.677 1377.41 166.482 1380.98 Q168.311 1384.52 171.922 1384.52 Q175.556 1384.52 177.362 1380.98 Q179.19 1377.41 179.19 1370.3 Q179.19 1363.18 177.362 1359.63 Q175.556 1356.07 171.922 1356.07 M171.922 1352.37 Q177.732 1352.37 180.788 1356.97 Q183.866 1361.55 183.866 1370.3 Q183.866 1379.03 180.788 1383.64 Q177.732 1388.22 171.922 1388.22 Q166.112 1388.22 163.033 1383.64 Q159.978 1379.03 159.978 1370.3 Q159.978 1361.55 163.033 1356.97 Q166.112 1352.37 171.922 1352.37 Z" fill="#000000" fill-rule="nonzero" fill-opacity="1" /><path clip-path="url(#clip100)" d="M127.917 1054.72 Q124.306 1054.72 122.478 1058.29 Q120.672 1061.83 120.672 1068.96 Q120.672 1076.07 122.478 1079.63 Q124.306 1083.17 127.917 1083.17 Q131.552 1083.17 133.357 1079.63 Q135.186 1076.07 135.186 1068.96 Q135.186 1061.83 133.357 1058.29 Q131.552 1054.72 127.917 1054.72 M127.917 1051.02 Q133.728 1051.02 136.783 1055.63 Q139.862 1060.21 139.862 1068.96 Q139.862 1077.69 136.783 1082.29 Q133.728 1086.88 127.917 1086.88 Q122.107 1086.88 119.029 1082.29 Q115.973 1077.69 115.973 1068.96 Q115.973 1060.21 119.029 1055.63 Q122.107 1051.02 127.917 1051.02 Z" fill="#000000" fill-rule="nonzero" fill-opacity="1" /><path clip-path="url(#clip100)" d="M148.079 1080.32 L152.964 1080.32 L152.964 1086.2 L148.079 1086.2 L148.079 1080.32 Z" fill="#000000" fill-rule="nonzero" fill-opacity="1" /><path clip-path="url(#clip100)" d="M163.959 1082.27 L171.598 1082.27 L171.598 1055.9 L163.288 1057.57 L163.288 1053.31 L171.552 1051.64 L176.227 1051.64 L176.227 1082.27 L183.866 1082.27 L183.866 1086.2 L163.959 1086.2 L163.959 1082.27 Z" fill="#000000" fill-rule="nonzero" fill-opacity="1" /><path clip-path="url(#clip100)" d="M128.288 753.378 Q124.677 753.378 122.848 756.942 Q121.043 760.484 121.043 767.614 Q121.043 774.72 122.848 778.285 Q124.677 781.827 128.288 781.827 Q131.922 781.827 133.728 778.285 Q135.556 774.72 135.556 767.614 Q135.556 760.484 133.728 756.942 Q131.922 753.378 128.288 753.378 M128.288 749.674 Q134.098 749.674 137.154 754.28 Q140.232 758.864 140.232 767.614 Q140.232 776.34 137.154 780.947 Q134.098 785.53 128.288 785.53 Q122.478 785.53 119.399 780.947 Q116.343 776.34 116.343 767.614 Q116.343 758.864 119.399 754.28 Q122.478 749.674 128.288 749.674 Z" fill="#000000" fill-rule="nonzero" fill-opacity="1" /><path clip-path="url(#clip100)" d="M148.45 778.979 L153.334 778.979 L153.334 784.859 L148.45 784.859 L148.45 778.979 Z" fill="#000000" fill-rule="nonzero" fill-opacity="1" /><path clip-path="url(#clip100)" d="M167.547 780.924 L183.866 780.924 L183.866 784.859 L161.922 784.859 L161.922 780.924 Q164.584 778.169 169.167 773.54 Q173.774 768.887 174.954 767.544 Q177.2 765.021 178.079 763.285 Q178.982 761.526 178.982 759.836 Q178.982 757.081 177.038 755.345 Q175.116 753.609 172.014 753.609 Q169.815 753.609 167.362 754.373 Q164.931 755.137 162.153 756.688 L162.153 751.966 Q164.977 750.831 167.431 750.253 Q169.885 749.674 171.922 749.674 Q177.292 749.674 180.487 752.359 Q183.681 755.044 183.681 759.535 Q183.681 761.665 182.871 763.586 Q182.084 765.484 179.977 768.077 Q179.399 768.748 176.297 771.965 Q173.195 775.16 167.547 780.924 Z" fill="#000000" fill-rule="nonzero" fill-opacity="1" /><path clip-path="url(#clip100)" d="M127.339 452.032 Q123.728 452.032 121.899 455.597 Q120.093 459.139 120.093 466.268 Q120.093 473.375 121.899 476.939 Q123.728 480.481 127.339 480.481 Q130.973 480.481 132.779 476.939 Q134.607 473.375 134.607 466.268 Q134.607 459.139 132.779 455.597 Q130.973 452.032 127.339 452.032 M127.339 448.328 Q133.149 448.328 136.204 452.935 Q139.283 457.518 139.283 466.268 Q139.283 474.995 136.204 479.601 Q133.149 484.185 127.339 484.185 Q121.529 484.185 118.45 479.601 Q115.394 474.995 115.394 466.268 Q115.394 457.518 118.45 452.935 Q121.529 448.328 127.339 448.328 Z" fill="#000000" fill-rule="nonzero" fill-opacity="1" /><path clip-path="url(#clip100)" d="M147.501 477.634 L152.385 477.634 L152.385 483.513 L147.501 483.513 L147.501 477.634 Z" fill="#000000" fill-rule="nonzero" fill-opacity="1" /><path clip-path="url(#clip100)" d="M176.737 464.879 Q180.093 465.597 181.968 467.865 Q183.866 470.134 183.866 473.467 Q183.866 478.583 180.348 481.384 Q176.829 484.185 170.348 484.185 Q168.172 484.185 165.857 483.745 Q163.565 483.328 161.112 482.472 L161.112 477.958 Q163.056 479.092 165.371 479.671 Q167.686 480.25 170.209 480.25 Q174.607 480.25 176.899 478.513 Q179.214 476.777 179.214 473.467 Q179.214 470.412 177.061 468.699 Q174.931 466.963 171.112 466.963 L167.084 466.963 L167.084 463.12 L171.297 463.12 Q174.746 463.12 176.575 461.754 Q178.403 460.365 178.403 457.773 Q178.403 455.111 176.505 453.699 Q174.63 452.264 171.112 452.264 Q169.19 452.264 166.991 452.68 Q164.792 453.097 162.153 453.977 L162.153 449.81 Q164.815 449.069 167.13 448.699 Q169.468 448.328 171.528 448.328 Q176.852 448.328 179.954 450.759 Q183.056 453.166 183.056 457.287 Q183.056 460.157 181.413 462.148 Q179.769 464.115 176.737 464.879 Z" fill="#000000" fill-rule="nonzero" fill-opacity="1" /><path clip-path="url(#clip100)" d="M126.205 150.687 Q122.593 150.687 120.765 154.251 Q118.959 157.793 118.959 164.923 Q118.959 172.029 120.765 175.594 Q122.593 179.135 126.205 179.135 Q129.839 179.135 131.644 175.594 Q133.473 172.029 133.473 164.923 Q133.473 157.793 131.644 154.251 Q129.839 150.687 126.205 150.687 M126.205 146.983 Q132.015 146.983 135.07 151.589 Q138.149 156.173 138.149 164.923 Q138.149 173.649 135.07 178.256 Q132.015 182.839 126.205 182.839 Q120.394 182.839 117.316 178.256 Q114.26 173.649 114.26 164.923 Q114.26 156.173 117.316 151.589 Q120.394 146.983 126.205 146.983 Z" fill="#000000" fill-rule="nonzero" fill-opacity="1" /><path clip-path="url(#clip100)" d="M146.366 176.288 L151.251 176.288 L151.251 182.168 L146.366 182.168 L146.366 176.288 Z" fill="#000000" fill-rule="nonzero" fill-opacity="1" /><path clip-path="url(#clip100)" d="M174.283 151.682 L162.477 170.131 L174.283 170.131 L174.283 151.682 M173.056 147.608 L178.936 147.608 L178.936 170.131 L183.866 170.131 L183.866 174.02 L178.936 174.02 L178.936 182.168 L174.283 182.168 L174.283 174.02 L158.681 174.02 L158.681 169.506 L173.056 147.608 Z" fill="#000000" fill-rule="nonzero" fill-opacity="1" /><path clip-path="url(#clip100)" d="M16.4842 894.996 L16.4842 885.416 L48.8219 873.289 L16.4842 861.099 L16.4842 851.518 L64.0042 851.518 L64.0042 857.789 L22.277 857.789 L54.8694 870.043 L54.8694 876.504 L22.277 888.758 L64.0042 888.758 L64.0042 894.996 L16.4842 894.996 Z" fill="#000000" fill-rule="nonzero" fill-opacity="1" /><path clip-path="url(#clip100)" d="M46.0847 822.809 Q46.0847 829.907 47.7079 832.644 Q49.3312 835.381 53.2461 835.381 Q56.3653 835.381 58.2114 833.344 Q60.0256 831.276 60.0256 827.743 Q60.0256 822.873 56.5881 819.945 Q53.1188 816.985 47.3897 816.985 L46.0847 816.985 L46.0847 822.809 M43.6657 811.128 L64.0042 811.128 L64.0042 816.985 L58.5933 816.985 Q61.8398 818.99 63.3994 821.982 Q64.9272 824.973 64.9272 829.302 Q64.9272 834.777 61.8716 838.023 Q58.7843 841.238 53.6281 841.238 Q47.6125 841.238 44.5569 837.227 Q41.5014 833.185 41.5014 825.196 L41.5014 816.985 L40.9285 816.985 Q36.8862 816.985 34.6901 819.658 Q32.4621 822.3 32.4621 827.106 Q32.4621 830.162 33.1941 833.058 Q33.9262 835.954 35.3903 838.628 L29.9795 838.628 Q28.7381 835.413 28.1334 832.39 Q27.4968 829.366 27.4968 826.501 Q27.4968 818.767 31.5072 814.947 Q35.5176 811.128 43.6657 811.128 Z" fill="#000000" fill-rule="nonzero" fill-opacity="1" /><path clip-path="url(#clip100)" d="M45.7664 775.607 Q39.4007 775.607 35.8996 778.249 Q32.3984 780.859 32.3984 785.602 Q32.3984 790.312 35.8996 792.954 Q39.4007 795.564 45.7664 795.564 Q52.1003 795.564 55.6014 792.954 Q59.1026 790.312 59.1026 785.602 Q59.1026 780.859 55.6014 778.249 Q52.1003 775.607 45.7664 775.607 M59.58 769.751 Q68.683 769.751 73.1071 773.793 Q77.5631 777.835 77.5631 786.175 Q77.5631 789.262 77.0857 791.999 Q76.6401 794.736 75.6852 797.314 L69.9879 797.314 Q71.3884 794.736 72.0568 792.222 Q72.7252 789.707 72.7252 787.098 Q72.7252 781.337 69.7015 778.472 Q66.7096 775.607 60.6303 775.607 L57.7339 775.607 Q60.885 777.422 62.4446 780.254 Q64.0042 783.087 64.0042 787.034 Q64.0042 793.591 59.0071 797.601 Q54.01 801.611 45.7664 801.611 Q37.491 801.611 32.4939 797.601 Q27.4968 793.591 27.4968 787.034 Q27.4968 783.087 29.0564 780.254 Q30.616 777.422 33.7671 775.607 L28.3562 775.607 L28.3562 769.751 L59.58 769.751 Z" fill="#000000" fill-rule="nonzero" fill-opacity="1" /><path clip-path="url(#clip100)" d="M42.4881 728.056 L64.0042 728.056 L64.0042 733.912 L42.679 733.912 Q37.6183 733.912 35.1038 735.885 Q32.5894 737.859 32.5894 741.806 Q32.5894 746.548 35.6131 749.285 Q38.6368 752.022 43.8567 752.022 L64.0042 752.022 L64.0042 757.911 L28.3562 757.911 L28.3562 752.022 L33.8944 752.022 Q30.6797 749.922 29.0883 747.089 Q27.4968 744.224 27.4968 740.501 Q27.4968 734.358 31.3163 731.207 Q35.1038 728.056 42.4881 728.056 Z" fill="#000000" fill-rule="nonzero" fill-opacity="1" /><path clip-path="url(#clip100)" d="M28.3562 716.375 L28.3562 710.518 L64.0042 710.518 L64.0042 716.375 L28.3562 716.375 M14.479 716.375 L14.479 710.518 L21.895 710.518 L21.895 716.375 L14.479 716.375 Z" fill="#000000" fill-rule="nonzero" fill-opacity="1" /><path clip-path="url(#clip100)" d="M18.2347 692.471 L28.3562 692.471 L28.3562 680.408 L32.9077 680.408 L32.9077 692.471 L52.2594 692.471 Q56.6199 692.471 57.8613 691.294 Q59.1026 690.084 59.1026 686.424 L59.1026 680.408 L64.0042 680.408 L64.0042 686.424 Q64.0042 693.203 61.4897 695.781 Q58.9434 698.36 52.2594 698.36 L32.9077 698.36 L32.9077 702.656 L28.3562 702.656 L28.3562 698.36 L18.2347 698.36 L18.2347 692.471 Z" fill="#000000" fill-rule="nonzero" fill-opacity="1" /><path clip-path="url(#clip100)" d="M49.9359 673.311 L28.3562 673.311 L28.3562 667.454 L49.7131 667.454 Q54.7739 667.454 57.3202 665.481 Q59.8346 663.507 59.8346 659.561 Q59.8346 654.818 56.8109 652.081 Q53.7872 649.312 48.5673 649.312 L28.3562 649.312 L28.3562 643.455 L64.0042 643.455 L64.0042 649.312 L58.5296 649.312 Q61.7762 651.444 63.3676 654.277 Q64.9272 657.078 64.9272 660.802 Q64.9272 666.945 61.1078 670.128 Q57.2883 673.311 49.9359 673.311 M27.4968 658.574 L27.4968 658.574 Z" fill="#000000" fill-rule="nonzero" fill-opacity="1" /><path clip-path="url(#clip100)" d="M33.7671 607.935 L14.479 607.935 L14.479 602.078 L64.0042 602.078 L64.0042 607.935 L58.657 607.935 Q61.8398 609.781 63.3994 612.614 Q64.9272 615.414 64.9272 619.361 Q64.9272 625.822 59.771 629.896 Q54.6147 633.939 46.212 633.939 Q37.8093 633.939 32.6531 629.896 Q27.4968 625.822 27.4968 619.361 Q27.4968 615.414 29.0564 612.614 Q30.5842 609.781 33.7671 607.935 M46.212 627.891 Q52.6732 627.891 56.3653 625.249 Q60.0256 622.576 60.0256 617.929 Q60.0256 613.282 56.3653 610.608 Q52.6732 607.935 46.212 607.935 Q39.7508 607.935 36.0905 610.608 Q32.3984 613.282 32.3984 617.929 Q32.3984 622.576 36.0905 625.249 Q39.7508 627.891 46.212 627.891 Z" fill="#000000" fill-rule="nonzero" fill-opacity="1" /><path clip-path="url(#clip100)" d="M44.7161 559.524 L47.5806 559.524 L47.5806 586.45 Q53.6281 586.069 56.8109 582.822 Q59.9619 579.544 59.9619 573.719 Q59.9619 570.345 59.1344 567.194 Q58.3069 564.011 56.6518 560.892 L62.1899 560.892 Q63.5267 564.043 64.227 567.353 Q64.9272 570.664 64.9272 574.069 Q64.9272 582.599 59.9619 587.596 Q54.9967 592.562 46.5303 592.562 Q37.7774 592.562 32.6531 587.851 Q27.4968 583.108 27.4968 575.088 Q27.4968 567.894 32.1438 563.725 Q36.7589 559.524 44.7161 559.524 M42.9973 565.38 Q38.1912 565.444 35.3266 568.085 Q32.4621 570.695 32.4621 575.024 Q32.4621 579.926 35.2312 582.886 Q38.0002 585.814 43.0292 586.259 L42.9973 565.38 Z" fill="#000000" fill-rule="nonzero" fill-opacity="1" /><polyline clip-path="url(#clip102)" style="stroke:#009af9; stroke-linecap:round; stroke-linejoin:round; stroke-width:8; stroke-opacity:1; fill:none" points="270.272,1368.78 276.861,1368.78 283.45,1368.77 290.039,1368.76 296.628,1368.75 303.217,1368.73 309.806,1368.7 316.395,1368.67 322.984,1368.64 329.573,1368.6 336.162,1368.56 342.751,1368.51 349.341,1368.46 355.93,1368.41 362.519,1368.35 369.108,1368.29 375.697,1368.23 382.286,1368.16 388.875,1368.09 395.464,1368.02 402.053,1367.94 408.642,1367.86 415.231,1367.77 421.82,1367.68 428.409,1367.59 434.998,1367.5 441.587,1367.4 448.176,1367.29 454.765,1367.19 461.354,1367.07 467.943,1366.96 474.532,1366.84 481.121,1366.71 487.71,1366.58 494.299,1366.44 500.888,1366.3 507.477,1366.15 514.066,1365.99 520.655,1365.83 527.244,1365.66 533.833,1365.48 540.422,1365.3 547.011,1365.1 553.6,1364.89 560.189,1364.68 566.778,1364.45 573.367,1364.21 579.956,1363.96 586.545,1363.69 593.134,1363.41 599.723,1363.1 606.312,1362.79 612.901,1362.45 619.49,1362.08 626.079,1361.7 632.668,1361.28 639.257,1360.84 645.846,1360.36 652.435,1359.85 659.024,1359.29 665.613,1358.69 672.202,1358.03 678.791,1357.31 685.381,1356.53 691.97,1355.66 698.559,1354.7 705.148,1353.64 711.737,1352.45 718.326,1351.11 724.915,1349.59 731.504,1347.86 738.093,1345.86 744.682,1343.54 751.271,1340.79 757.86,1337.51 764.449,1333.51 771.038,1328.54 777.627,1322.21 784.216,1313.84 790.805,1302.3 797.394,1285.38 803.983,1258.17 810.572,1207.25 817.161,1077.89 823.75,85.7356 830.339,812.029 836.928,1137.13 843.517,1221.35 850.106,1260 856.695,1282.15 863.284,1296.48 869.873,1306.5 876.462,1313.86 883.051,1319.49 889.64,1323.91 896.229,1327.46 902.818,1330.34 909.407,1332.7 915.996,1334.65 922.585,1336.25 929.174,1337.55 935.763,1338.58 942.352,1339.35 948.941,1339.89 955.53,1340.16 962.119,1340.16 968.708,1339.86 975.297,1339.18 981.886,1338.07 988.475,1336.39 995.064,1333.99 1001.65,1330.62 1008.24,1325.9 1014.83,1319.24 1021.42,1309.6 1028.01,1295.09 1034.6,1271.69 1041.19,1229.38 1047.78,1133.69 1054.37,738.168 1060.95,127.087 1067.54,1026.99 1074.13,1159.07 1080.72,1210.72 1087.31,1237.17 1093.9,1252.28 1100.49,1261.08 1107.08,1265.74 1113.67,1267.21 1120.26,1265.74 1126.84,1261.08 1133.43,1252.28 1140.02,1237.17 1146.61,1210.72 1153.2,1159.07 1159.79,1026.99 1166.38,127.087 1172.97,738.168 1179.56,1133.69 1186.15,1229.38 1192.74,1271.7 1199.32,1295.09 1205.91,1309.6 1212.5,1319.24 1219.09,1325.9 1225.68,1330.62 1232.27,1333.99 1238.86,1336.39 1245.45,1338.07 1252.04,1339.18 1258.63,1339.86 1265.21,1340.16 1271.8,1340.16 1278.39,1339.89 1284.98,1339.35 1291.57,1338.58 1298.16,1337.55 1304.75,1336.25 1311.34,1334.65 1317.93,1332.7 1324.52,1330.34 1331.1,1327.46 1337.69,1323.91 1344.28,1319.49 1350.87,1313.86 1357.46,1306.5 1364.05,1296.48 1370.64,1282.15 1377.23,1260 1383.82,1221.35 1390.41,1137.13 1396.99,812.029 1403.58,85.7356 1410.17,1077.89 1416.76,1207.25 1423.35,1258.17 1429.94,1285.38 1436.53,1302.3 1443.12,1313.84 1449.71,1322.21 1456.3,1328.54 1462.88,1333.51 1469.47,1337.51 1476.06,1340.79 1482.65,1343.54 1489.24,1345.86 1495.83,1347.86 1502.42,1349.59 1509.01,1351.11 1515.6,1352.45 1522.19,1353.64 1528.78,1354.7 1535.36,1355.66 1541.95,1356.53 1548.54,1357.31 1555.13,1358.03 1561.72,1358.69 1568.31,1359.29 1574.9,1359.85 1581.49,1360.36 1588.08,1360.84 1594.67,1361.28 1601.25,1361.7 1607.84,1362.08 1614.43,1362.45 1621.02,1362.79 1627.61,1363.1 1634.2,1363.41 1640.79,1363.69 1647.38,1363.96 1653.97,1364.21 1660.56,1364.45 1667.14,1364.68 1673.73,1364.89 1680.32,1365.1 1686.91,1365.3 1693.5,1365.48 1700.09,1365.66 1706.68,1365.83 1713.27,1365.99 1719.86,1366.15 1726.45,1366.3 1733.03,1366.44 1739.62,1366.58 1746.21,1366.71 1752.8,1366.84 1759.39,1366.96 1765.98,1367.07 1772.57,1367.19 1779.16,1367.29 1785.75,1367.4 1792.34,1367.5 1798.92,1367.59 1805.51,1367.68 1812.1,1367.77 1818.69,1367.86 1825.28,1367.94 1831.87,1368.02 1838.46,1368.09 1845.05,1368.16 1851.64,1368.23 1858.23,1368.29 1864.82,1368.35 1871.4,1368.41 1877.99,1368.46 1884.58,1368.51 1891.17,1368.56 1897.76,1368.6 1904.35,1368.64 1910.94,1368.67 1917.53,1368.7 1924.12,1368.73 1930.71,1368.75 1937.29,1368.76 1943.88,1368.77 1950.47,1368.78 "/>
<polyline clip-path="url(#clip102)" style="stroke:#e26f46; stroke-linecap:round; stroke-linejoin:round; stroke-width:8; stroke-opacity:1; fill:none" stroke-dasharray="32, 20" points="270.272,1368.78 276.861,1368.78 283.45,1368.77 290.039,1368.76 296.628,1368.75 303.217,1368.73 309.806,1368.7 316.395,1368.67 322.984,1368.64 329.573,1368.6 336.162,1368.56 342.751,1368.51 349.341,1368.46 355.93,1368.41 362.519,1368.35 369.108,1368.29 375.697,1368.23 382.286,1368.16 388.875,1368.09 395.464,1368.02 402.053,1367.94 408.642,1367.86 415.231,1367.77 421.82,1367.68 428.409,1367.59 434.998,1367.5 441.587,1367.4 448.176,1367.29 454.765,1367.19 461.354,1367.07 467.943,1366.96 474.532,1366.84 481.121,1366.71 487.71,1366.58 494.299,1366.44 500.888,1366.3 507.477,1366.15 514.066,1365.99 520.655,1365.83 527.244,1365.66 533.833,1365.48 540.422,1365.3 547.011,1365.1 553.6,1364.89 560.189,1364.68 566.778,1364.45 573.367,1364.21 579.956,1363.96 586.545,1363.69 593.134,1363.41 599.723,1363.1 606.312,1362.79 612.901,1362.45 619.49,1362.08 626.079,1361.7 632.668,1361.28 639.257,1360.84 645.846,1360.36 652.435,1359.85 659.024,1359.29 665.613,1358.69 672.202,1358.03 678.791,1357.31 685.381,1356.53 691.97,1355.66 698.559,1354.7 705.148,1353.64 711.737,1352.45 718.326,1351.11 724.915,1349.59 731.504,1347.86 738.093,1345.86 744.682,1343.54 751.271,1340.79 757.86,1337.51 764.449,1333.51 771.038,1328.54 777.627,1322.21 784.216,1313.84 790.805,1302.3 797.394,1285.38 803.983,1258.17 810.572,1207.25 817.161,1077.89 823.75,85.7356 830.339,812.029 836.928,1137.13 843.517,1221.35 850.106,1260 856.695,1282.15 863.284,1296.48 869.873,1306.5 876.462,1313.86 883.051,1319.49 889.64,1323.91 896.229,1327.46 902.818,1330.34 909.407,1332.7 915.996,1334.65 922.585,1336.25 929.174,1337.55 935.763,1338.58 942.352,1339.35 948.941,1339.89 955.53,1340.16 962.119,1340.16 968.708,1339.86 975.297,1339.18 981.886,1338.07 988.475,1336.39 995.064,1333.99 1001.65,1330.62 1008.24,1325.9 1014.83,1319.24 1021.42,1309.6 1028.01,1295.09 1034.6,1271.69 1041.19,1229.38 1047.78,1133.69 1054.37,738.168 1060.95,127.087 1067.54,1026.99 1074.13,1159.07 1080.72,1210.72 1087.31,1237.17 1093.9,1252.28 1100.49,1261.08 1107.08,1265.74 1113.67,1267.21 1120.26,1265.74 1126.84,1261.08 1133.43,1252.28 1140.02,1237.17 1146.61,1210.72 1153.2,1159.07 1159.79,1026.99 1166.38,127.087 1172.97,738.168 1179.56,1133.69 1186.15,1229.38 1192.74,1271.69 1199.32,1295.09 1205.91,1309.6 1212.5,1319.24 1219.09,1325.9 1225.68,1330.62 1232.27,1333.99 1238.86,1336.39 1245.45,1338.07 1252.04,1339.18 1258.63,1339.86 1265.21,1340.16 1271.8,1340.16 1278.39,1339.89 1284.98,1339.35 1291.57,1338.58 1298.16,1337.55 1304.75,1336.25 1311.34,1334.65 1317.93,1332.7 1324.52,1330.34 1331.1,1327.46 1337.69,1323.91 1344.28,1319.49 1350.87,1313.86 1357.46,1306.5 1364.05,1296.48 1370.64,1282.15 1377.23,1260 1383.82,1221.35 1390.41,1137.13 1396.99,812.029 1403.58,85.7356 1410.17,1077.89 1416.76,1207.25 1423.35,1258.17 1429.94,1285.38 1436.53,1302.3 1443.12,1313.84 1449.71,1322.21 1456.3,1328.54 1462.88,1333.51 1469.47,1337.51 1476.06,1340.79 1482.65,1343.54 1489.24,1345.86 1495.83,1347.86 1502.42,1349.59 1509.01,1351.11 1515.6,1352.45 1522.19,1353.64 1528.78,1354.7 1535.36,1355.66 1541.95,1356.53 1548.54,1357.31 1555.13,1358.03 1561.72,1358.69 1568.31,1359.29 1574.9,1359.85 1581.49,1360.36 1588.08,1360.84 1594.67,1361.28 1601.25,1361.7 1607.84,1362.08 1614.43,1362.45 1621.02,1362.79 1627.61,1363.1 1634.2,1363.41 1640.79,1363.69 1647.38,1363.96 1653.97,1364.21 1660.56,1364.45 1667.14,1364.68 1673.73,1364.89 1680.32,1365.1 1686.91,1365.3 1693.5,1365.48 1700.09,1365.66 1706.68,1365.83 1713.27,1365.99 1719.86,1366.15 1726.45,1366.3 1733.03,1366.44 1739.62,1366.58 1746.21,1366.71 1752.8,1366.84 1759.39,1366.96 1765.98,1367.07 1772.57,1367.19 1779.16,1367.29 1785.75,1367.4 1792.34,1367.5 1798.92,1367.59 1805.51,1367.68 1812.1,1367.77 1818.69,1367.86 1825.28,1367.94 1831.87,1368.02 1838.46,1368.09 1845.05,1368.16 1851.64,1368.23 1858.23,1368.29 1864.82,1368.35 1871.4,1368.41 1877.99,1368.46 1884.58,1368.51 1891.17,1368.56 1897.76,1368.6 1904.35,1368.64 1910.94,1368.67 1917.53,1368.7 1924.12,1368.73 1930.71,1368.75 1937.29,1368.76 1943.88,1368.77 1950.47,1368.78 "/>
<polyline clip-path="url(#clip102)" style="stroke:#000000; stroke-linecap:round; stroke-linejoin:round; stroke-width:4; stroke-opacity:1; fill:none" stroke-dasharray="16, 8, 2, 8" points="825.727,2767.31 825.727,-1312.79 "/>
<polyline clip-path="url(#clip102)" style="stroke:#000000; stroke-linecap:round; stroke-linejoin:round; stroke-width:4; stroke-opacity:1; fill:none" stroke-dasharray="16, 8, 2, 8" points="1058.65,2767.31 1058.65,-1312.79 "/>
<polyline clip-path="url(#clip102)" style="stroke:#000000; stroke-linecap:round; stroke-linejoin:round; stroke-width:4; stroke-opacity:1; fill:none" stroke-dasharray="16, 8, 2, 8" points="1168.69,2767.31 1168.69,-1312.79 "/>
<polyline clip-path="url(#clip102)" style="stroke:#000000; stroke-linecap:round; stroke-linejoin:round; stroke-width:4; stroke-opacity:1; fill:none" stroke-dasharray="16, 8, 2, 8" points="1401.61,2767.31 1401.61,-1312.79 "/>
<path clip-path="url(#clip100)" d="M279.233 248.098 L819.323 248.098 L819.323 92.5785 L279.233 92.5785  Z" fill="#ffffff" fill-rule="evenodd" fill-opacity="1"/>
<polyline clip-path="url(#clip100)" style="stroke:#000000; stroke-linecap:round; stroke-linejoin:round; stroke-width:4; stroke-opacity:1; fill:none" points="279.233,248.098 819.323,248.098 819.323,92.5785 279.233,92.5785 279.233,248.098 "/>
<polyline clip-path="url(#clip100)" style="stroke:#009af9; stroke-linecap:round; stroke-linejoin:round; stroke-width:8; stroke-opacity:1; fill:none" points="299.022,144.418 417.756,144.418 "/>
<path clip-path="url(#clip100)" d="M441.481 125.472 L441.481 172.879 L437.546 172.879 L437.546 125.472 L441.481 125.472 Z" fill="#000000" fill-rule="nonzero" fill-opacity="1" /><path clip-path="url(#clip100)" d="M466.18 130.31 Q461.087 130.31 458.078 134.106 Q455.092 137.902 455.092 144.453 Q455.092 150.981 458.078 154.777 Q461.087 158.573 466.18 158.573 Q471.272 158.573 474.235 154.777 Q477.221 150.981 477.221 144.453 Q477.221 137.902 474.235 134.106 Q471.272 130.31 466.18 130.31 M472.731 161.073 L478.888 167.81 L473.24 167.81 L468.124 162.277 Q467.36 162.323 466.944 162.347 Q466.55 162.37 466.18 162.37 Q458.888 162.37 454.513 157.509 Q450.161 152.624 450.161 144.453 Q450.161 136.259 454.513 131.398 Q458.888 126.513 466.18 126.513 Q473.448 126.513 477.8 131.398 Q482.152 136.259 482.152 144.453 Q482.152 150.472 479.721 154.754 Q477.314 159.036 472.731 161.073 Z" fill="#000000" fill-rule="nonzero" fill-opacity="1" /><path clip-path="url(#clip100)" d="M489.467 127.138 L494.142 127.138 L494.142 161.698 L489.467 161.698 L489.467 127.138 Z" fill="#000000" fill-rule="nonzero" fill-opacity="1" /><path clip-path="url(#clip100)" d="M503.448 127.138 L508.124 127.138 L508.124 157.763 L524.952 157.763 L524.952 161.698 L503.448 161.698 L503.448 127.138 Z" fill="#000000" fill-rule="nonzero" fill-opacity="1" /><path clip-path="url(#clip100)" d="M541.457 148.666 Q536.295 148.666 534.304 149.847 Q532.314 151.027 532.314 153.874 Q532.314 156.143 533.795 157.486 Q535.3 158.805 537.869 158.805 Q541.411 158.805 543.54 156.305 Q545.693 153.782 545.693 149.615 L545.693 148.666 L541.457 148.666 M549.952 146.907 L549.952 161.698 L545.693 161.698 L545.693 157.763 Q544.235 160.124 542.059 161.259 Q539.883 162.37 536.735 162.37 Q532.753 162.37 530.392 160.148 Q528.054 157.902 528.054 154.152 Q528.054 149.777 530.971 147.555 Q533.911 145.333 539.721 145.333 L545.693 145.333 L545.693 144.916 Q545.693 141.976 543.749 140.379 Q541.827 138.759 538.332 138.759 Q536.11 138.759 534.003 139.291 Q531.897 139.824 529.952 140.888 L529.952 136.953 Q532.29 136.05 534.489 135.611 Q536.689 135.148 538.772 135.148 Q544.397 135.148 547.175 138.064 Q549.952 140.981 549.952 146.907 Z" fill="#000000" fill-rule="nonzero" fill-opacity="1" /><path clip-path="url(#clip100)" d="M562.846 157.81 L562.846 171.56 L558.563 171.56 L558.563 135.773 L562.846 135.773 L562.846 139.708 Q564.188 137.393 566.225 136.282 Q568.286 135.148 571.133 135.148 Q575.855 135.148 578.795 138.898 Q581.758 142.648 581.758 148.759 Q581.758 154.87 578.795 158.62 Q575.855 162.37 571.133 162.37 Q568.286 162.37 566.225 161.259 Q564.188 160.124 562.846 157.81 M577.336 148.759 Q577.336 144.06 575.392 141.398 Q573.471 138.712 570.091 138.712 Q566.711 138.712 564.767 141.398 Q562.846 144.06 562.846 148.759 Q562.846 153.458 564.767 156.143 Q566.711 158.805 570.091 158.805 Q573.471 158.805 575.392 156.143 Q577.336 153.458 577.336 148.759 Z" fill="#000000" fill-rule="nonzero" fill-opacity="1" /><path clip-path="url(#clip100)" d="M588.818 125.68 L593.077 125.68 L593.077 161.698 L588.818 161.698 L588.818 125.68 Z" fill="#000000" fill-rule="nonzero" fill-opacity="1" /><path clip-path="url(#clip100)" d="M613.771 148.666 Q608.609 148.666 606.619 149.847 Q604.628 151.027 604.628 153.874 Q604.628 156.143 606.109 157.486 Q607.614 158.805 610.183 158.805 Q613.725 158.805 615.855 156.305 Q618.008 153.782 618.008 149.615 L618.008 148.666 L613.771 148.666 M622.267 146.907 L622.267 161.698 L618.008 161.698 L618.008 157.763 Q616.549 160.124 614.373 161.259 Q612.197 162.37 609.049 162.37 Q605.068 162.37 602.707 160.148 Q600.369 157.902 600.369 154.152 Q600.369 149.777 603.285 147.555 Q606.225 145.333 612.035 145.333 L618.008 145.333 L618.008 144.916 Q618.008 141.976 616.063 140.379 Q614.142 138.759 610.646 138.759 Q608.424 138.759 606.318 139.291 Q604.211 139.824 602.267 140.888 L602.267 136.953 Q604.605 136.05 606.804 135.611 Q609.003 135.148 611.086 135.148 Q616.711 135.148 619.489 138.064 Q622.267 140.981 622.267 146.907 Z" fill="#000000" fill-rule="nonzero" fill-opacity="1" /><path clip-path="url(#clip100)" d="M649.697 136.768 L649.697 140.75 Q647.892 139.754 646.063 139.268 Q644.257 138.759 642.406 138.759 Q638.262 138.759 635.97 141.398 Q633.679 144.013 633.679 148.759 Q633.679 153.504 635.97 156.143 Q638.262 158.759 642.406 158.759 Q644.257 158.759 646.063 158.273 Q647.892 157.763 649.697 156.768 L649.697 160.703 Q647.915 161.536 645.993 161.953 Q644.095 162.37 641.943 162.37 Q636.086 162.37 632.637 158.689 Q629.188 155.009 629.188 148.759 Q629.188 142.416 632.66 138.782 Q636.156 135.148 642.22 135.148 Q644.188 135.148 646.063 135.564 Q647.938 135.958 649.697 136.768 Z" fill="#000000" fill-rule="nonzero" fill-opacity="1" /><path clip-path="url(#clip100)" d="M679.28 147.671 L679.28 149.754 L659.697 149.754 Q659.975 154.152 662.336 156.467 Q664.72 158.759 668.956 158.759 Q671.41 158.759 673.702 158.157 Q676.016 157.555 678.285 156.351 L678.285 160.379 Q675.993 161.351 673.586 161.861 Q671.179 162.37 668.702 162.37 Q662.498 162.37 658.864 158.759 Q655.253 155.148 655.253 148.99 Q655.253 142.625 658.679 138.898 Q662.128 135.148 667.961 135.148 Q673.192 135.148 676.225 138.527 Q679.28 141.884 679.28 147.671 M675.021 146.421 Q674.975 142.925 673.054 140.842 Q671.155 138.759 668.007 138.759 Q664.442 138.759 662.29 140.773 Q660.16 142.787 659.836 146.444 L675.021 146.421 Z" fill="#000000" fill-rule="nonzero" fill-opacity="1" /><path clip-path="url(#clip100)" d="M715.553 130.31 Q710.461 130.31 707.451 134.106 Q704.465 137.902 704.465 144.453 Q704.465 150.981 707.451 154.777 Q710.461 158.573 715.553 158.573 Q720.646 158.573 723.609 154.777 Q726.595 150.981 726.595 144.453 Q726.595 137.902 723.609 134.106 Q720.646 130.31 715.553 130.31 M722.104 161.073 L728.262 167.81 L722.613 167.81 L717.498 162.277 Q716.734 162.323 716.317 162.347 Q715.924 162.37 715.553 162.37 Q708.262 162.37 703.887 157.509 Q699.535 152.624 699.535 144.453 Q699.535 136.259 703.887 131.398 Q708.262 126.513 715.553 126.513 Q722.822 126.513 727.174 131.398 Q731.525 136.259 731.525 144.453 Q731.525 150.472 729.095 154.754 Q726.687 159.036 722.104 161.073 Z" fill="#000000" fill-rule="nonzero" fill-opacity="1" /><path clip-path="url(#clip100)" d="M738.84 127.138 L758.701 127.138 L758.701 131.074 L743.516 131.074 L743.516 141.259 L757.22 141.259 L757.22 145.194 L743.516 145.194 L743.516 161.698 L738.84 161.698 L738.84 127.138 Z" fill="#000000" fill-rule="nonzero" fill-opacity="1" /><path clip-path="url(#clip100)" d="M760.484 127.138 L789.72 127.138 L789.72 131.074 L777.451 131.074 L777.451 161.698 L772.752 161.698 L772.752 131.074 L760.484 131.074 L760.484 127.138 Z" fill="#000000" fill-rule="nonzero" fill-opacity="1" /><path clip-path="url(#clip100)" d="M799.534 125.472 L799.534 172.879 L795.599 172.879 L795.599 125.472 L799.534 125.472 Z" fill="#000000" fill-rule="nonzero" fill-opacity="1" /><polyline clip-path="url(#clip100)" style="stroke:#e26f46; stroke-linecap:round; stroke-linejoin:round; stroke-width:8; stroke-opacity:1; fill:none" stroke-dasharray="32, 20" points="299.022,196.258 417.756,196.258 "/>
<path clip-path="url(#clip100)" d="M441.481 177.312 L441.481 224.719 L437.546 224.719 L437.546 177.312 L441.481 177.312 Z" fill="#000000" fill-rule="nonzero" fill-opacity="1" /><path clip-path="url(#clip100)" d="M452.152 178.978 L472.013 178.978 L472.013 182.914 L456.828 182.914 L456.828 193.099 L470.531 193.099 L470.531 197.034 L456.828 197.034 L456.828 213.538 L452.152 213.538 L452.152 178.978 Z" fill="#000000" fill-rule="nonzero" fill-opacity="1" /><path clip-path="url(#clip100)" d="M479.42 178.978 L499.281 178.978 L499.281 182.914 L484.096 182.914 L484.096 193.099 L497.8 193.099 L497.8 197.034 L484.096 197.034 L484.096 213.538 L479.42 213.538 L479.42 178.978 Z" fill="#000000" fill-rule="nonzero" fill-opacity="1" /><path clip-path="url(#clip100)" d="M501.064 178.978 L530.3 178.978 L530.3 182.914 L518.031 182.914 L518.031 213.538 L513.332 213.538 L513.332 182.914 L501.064 182.914 L501.064 178.978 Z" fill="#000000" fill-rule="nonzero" fill-opacity="1" /><path clip-path="url(#clip100)" d="M531.735 178.978 L536.457 178.978 L543.726 208.191 L550.971 178.978 L556.225 178.978 L563.494 208.191 L570.739 178.978 L575.485 178.978 L566.804 213.538 L560.924 213.538 L553.633 183.539 L546.272 213.538 L540.392 213.538 L531.735 178.978 Z" fill="#000000" fill-rule="nonzero" fill-opacity="1" /><path clip-path="url(#clip100)" d="M615.183 200.599 Q615.183 195.9 613.239 193.238 Q611.318 190.552 607.938 190.552 Q604.559 190.552 602.614 193.238 Q600.693 195.9 600.693 200.599 Q600.693 205.298 602.614 207.983 Q604.559 210.645 607.938 210.645 Q611.318 210.645 613.239 207.983 Q615.183 205.298 615.183 200.599 M600.693 191.548 Q602.035 189.233 604.072 188.122 Q606.133 186.988 608.98 186.988 Q613.702 186.988 616.642 190.738 Q619.605 194.488 619.605 200.599 Q619.605 206.71 616.642 210.46 Q613.702 214.21 608.98 214.21 Q606.133 214.21 604.072 213.099 Q602.035 211.964 600.693 209.65 L600.693 213.538 L596.41 213.538 L596.41 177.52 L600.693 177.52 L600.693 191.548 Z" fill="#000000" fill-rule="nonzero" fill-opacity="1" /><path clip-path="url(#clip100)" d="M639.79 177.52 L639.79 181.062 L635.716 181.062 Q633.424 181.062 632.521 181.988 Q631.642 182.914 631.642 185.321 L631.642 187.613 L638.656 187.613 L638.656 190.923 L631.642 190.923 L631.642 213.538 L627.359 213.538 L627.359 190.923 L623.285 190.923 L623.285 187.613 L627.359 187.613 L627.359 185.807 Q627.359 181.478 629.373 179.511 Q631.387 177.52 635.762 177.52 L639.79 177.52 Z" fill="#000000" fill-rule="nonzero" fill-opacity="1" /><path clip-path="url(#clip100)" d="M656.48 177.52 L656.48 181.062 L652.405 181.062 Q650.114 181.062 649.211 181.988 Q648.331 182.914 648.331 185.321 L648.331 187.613 L655.345 187.613 L655.345 190.923 L648.331 190.923 L648.331 213.538 L644.049 213.538 L644.049 190.923 L639.975 190.923 L639.975 187.613 L644.049 187.613 L644.049 185.807 Q644.049 181.478 646.063 179.511 Q648.077 177.52 652.452 177.52 L656.48 177.52 Z" fill="#000000" fill-rule="nonzero" fill-opacity="1" /><path clip-path="url(#clip100)" d="M663.424 180.252 L663.424 187.613 L672.197 187.613 L672.197 190.923 L663.424 190.923 L663.424 204.997 Q663.424 208.168 664.28 209.071 Q665.16 209.974 667.822 209.974 L672.197 209.974 L672.197 213.538 L667.822 213.538 Q662.892 213.538 661.017 211.71 Q659.142 209.858 659.142 204.997 L659.142 190.923 L656.017 190.923 L656.017 187.613 L659.142 187.613 L659.142 180.252 L663.424 180.252 Z" fill="#000000" fill-rule="nonzero" fill-opacity="1" /><path clip-path="url(#clip100)" d="M683.285 177.312 L683.285 224.719 L679.35 224.719 L679.35 177.312 L683.285 177.312 Z" fill="#000000" fill-rule="nonzero" fill-opacity="1" /><polyline clip-path="url(#clip100)" style="stroke:#000000; stroke-linecap:round; stroke-linejoin:round; stroke-width:4; stroke-opacity:1; fill:none" points="2000.88,1407.28 2000.88,47.2441 "/>
<polyline clip-path="url(#clip100)" style="stroke:#000000; stroke-linecap:round; stroke-linejoin:round; stroke-width:4; stroke-opacity:1; fill:none" points="2000.88,1407.28 1981.98,1407.28 "/>
<polyline clip-path="url(#clip100)" style="stroke:#000000; stroke-linecap:round; stroke-linejoin:round; stroke-width:4; stroke-opacity:1; fill:none" points="2000.88,1031.02 1981.98,1031.02 "/>
<polyline clip-path="url(#clip100)" style="stroke:#000000; stroke-linecap:round; stroke-linejoin:round; stroke-width:4; stroke-opacity:1; fill:none" points="2000.88,654.759 1981.98,654.759 "/>
<polyline clip-path="url(#clip100)" style="stroke:#000000; stroke-linecap:round; stroke-linejoin:round; stroke-width:4; stroke-opacity:1; fill:none" points="2000.88,278.501 1981.98,278.501 "/>
<path clip-path="url(#clip100)" d="M2048.82 1393.07 Q2045.21 1393.07 2043.38 1396.64 Q2041.58 1400.18 2041.58 1407.31 Q2041.58 1414.42 2043.38 1417.98 Q2045.21 1421.52 2048.82 1421.52 Q2052.46 1421.52 2054.26 1417.98 Q2056.09 1414.42 2056.09 1407.31 Q2056.09 1400.18 2054.26 1396.64 Q2052.46 1393.07 2048.82 1393.07 M2048.82 1389.37 Q2054.63 1389.37 2057.69 1393.98 Q2060.77 1398.56 2060.77 1407.31 Q2060.77 1416.04 2057.69 1420.64 Q2054.63 1425.23 2048.82 1425.23 Q2043.01 1425.23 2039.93 1420.64 Q2036.88 1416.04 2036.88 1407.31 Q2036.88 1398.56 2039.93 1393.98 Q2043.01 1389.37 2048.82 1389.37 Z" fill="#000000" fill-rule="nonzero" fill-opacity="1" /><path clip-path="url(#clip100)" d="M2038.34 1020.19 L2056.69 1020.19 L2056.69 1024.12 L2042.62 1024.12 L2042.62 1032.59 Q2043.64 1032.25 2044.66 1032.08 Q2045.67 1031.9 2046.69 1031.9 Q2052.48 1031.9 2055.86 1035.07 Q2059.24 1038.24 2059.24 1043.66 Q2059.24 1049.24 2055.77 1052.34 Q2052.29 1055.42 2045.98 1055.42 Q2043.8 1055.42 2041.53 1055.05 Q2039.29 1054.68 2036.88 1053.93 L2036.88 1049.24 Q2038.96 1050.37 2041.18 1050.93 Q2043.41 1051.48 2045.88 1051.48 Q2049.89 1051.48 2052.23 1049.37 Q2054.56 1047.27 2054.56 1043.66 Q2054.56 1040.05 2052.23 1037.94 Q2049.89 1035.83 2045.88 1035.83 Q2044.01 1035.83 2042.13 1036.25 Q2040.28 1036.67 2038.34 1037.55 L2038.34 1020.19 Z" fill="#000000" fill-rule="nonzero" fill-opacity="1" /><path clip-path="url(#clip100)" d="M2068.45 1048.87 L2073.34 1048.87 L2073.34 1054.75 L2068.45 1054.75 L2068.45 1048.87 Z" fill="#000000" fill-rule="nonzero" fill-opacity="1" /><path clip-path="url(#clip100)" d="M2093.52 1023.26 Q2089.91 1023.26 2088.08 1026.83 Q2086.28 1030.37 2086.28 1037.5 Q2086.28 1044.61 2088.08 1048.17 Q2089.91 1051.71 2093.52 1051.71 Q2097.16 1051.71 2098.96 1048.17 Q2100.79 1044.61 2100.79 1037.5 Q2100.79 1030.37 2098.96 1026.83 Q2097.16 1023.26 2093.52 1023.26 M2093.52 1019.56 Q2099.33 1019.56 2102.39 1024.17 Q2105.47 1028.75 2105.47 1037.5 Q2105.47 1046.23 2102.39 1050.83 Q2099.33 1055.42 2093.52 1055.42 Q2087.71 1055.42 2084.63 1050.83 Q2081.58 1046.23 2081.58 1037.5 Q2081.58 1028.75 2084.63 1024.17 Q2087.71 1019.56 2093.52 1019.56 Z" fill="#000000" fill-rule="nonzero" fill-opacity="1" /><path clip-path="url(#clip100)" d="M2123.68 1023.26 Q2120.07 1023.26 2118.24 1026.83 Q2116.44 1030.37 2116.44 1037.5 Q2116.44 1044.61 2118.24 1048.17 Q2120.07 1051.71 2123.68 1051.71 Q2127.32 1051.71 2129.12 1048.17 Q2130.95 1044.61 2130.95 1037.5 Q2130.95 1030.37 2129.12 1026.83 Q2127.32 1023.26 2123.68 1023.26 M2123.68 1019.56 Q2129.49 1019.56 2132.55 1024.17 Q2135.63 1028.75 2135.63 1037.5 Q2135.63 1046.23 2132.55 1050.83 Q2129.49 1055.42 2123.68 1055.42 Q2117.87 1055.42 2114.79 1050.83 Q2111.74 1046.23 2111.74 1037.5 Q2111.74 1028.75 2114.79 1024.17 Q2117.87 1019.56 2123.68 1019.56 Z" fill="#000000" fill-rule="nonzero" fill-opacity="1" /><path clip-path="url(#clip100)" d="M2172.02 1029.28 L2161.44 1039.91 L2172.02 1050.49 L2169.26 1053.29 L2158.64 1042.66 L2148.01 1053.29 L2145.28 1050.49 L2155.84 1039.91 L2145.28 1029.28 L2148.01 1026.48 L2158.64 1037.11 L2169.26 1026.48 L2172.02 1029.28 Z" fill="#000000" fill-rule="nonzero" fill-opacity="1" /><path clip-path="url(#clip100)" d="M2184.38 1050.81 L2192.02 1050.81 L2192.02 1024.44 L2183.71 1026.11 L2183.71 1021.85 L2191.97 1020.19 L2196.65 1020.19 L2196.65 1050.81 L2204.28 1050.81 L2204.28 1054.75 L2184.38 1054.75 L2184.38 1050.81 Z" fill="#000000" fill-rule="nonzero" fill-opacity="1" /><path clip-path="url(#clip100)" d="M2223.73 1023.26 Q2220.12 1023.26 2218.29 1026.83 Q2216.48 1030.37 2216.48 1037.5 Q2216.48 1044.61 2218.29 1048.17 Q2220.12 1051.71 2223.73 1051.71 Q2227.36 1051.71 2229.17 1048.17 Q2231 1044.61 2231 1037.5 Q2231 1030.37 2229.17 1026.83 Q2227.36 1023.26 2223.73 1023.26 M2223.73 1019.56 Q2229.54 1019.56 2232.59 1024.17 Q2235.67 1028.75 2235.67 1037.5 Q2235.67 1046.23 2232.59 1050.83 Q2229.54 1055.42 2223.73 1055.42 Q2217.92 1055.42 2214.84 1050.83 Q2211.78 1046.23 2211.78 1037.5 Q2211.78 1028.75 2214.84 1024.17 Q2217.92 1019.56 2223.73 1019.56 Z" fill="#000000" fill-rule="nonzero" fill-opacity="1" /><path clip-path="url(#clip100)" d="M2235.67 1013.66 L2259.79 1013.66 L2259.79 1016.86 L2235.67 1016.86 L2235.67 1013.66 Z" fill="#000000" fill-rule="nonzero" fill-opacity="1" /><path clip-path="url(#clip100)" d="M2276.11 1014 Q2273.4 1014 2271.84 1015.45 Q2270.3 1016.9 2270.3 1019.44 Q2270.3 1021.97 2271.84 1023.42 Q2273.4 1024.87 2276.11 1024.87 Q2278.82 1024.87 2280.38 1023.42 Q2281.94 1021.96 2281.94 1019.44 Q2281.94 1016.9 2280.38 1015.45 Q2278.84 1014 2276.11 1014 M2272.31 1012.38 Q2269.87 1011.78 2268.49 1010.11 Q2267.14 1008.43 2267.14 1006.03 Q2267.14 1002.66 2269.53 1000.7 Q2271.93 998.747 2276.11 998.747 Q2280.3 998.747 2282.69 1000.7 Q2285.08 1002.66 2285.08 1006.03 Q2285.08 1008.43 2283.71 1010.11 Q2282.35 1011.78 2279.93 1012.38 Q2282.67 1013.02 2284.2 1014.88 Q2285.74 1016.75 2285.74 1019.44 Q2285.74 1023.52 2283.24 1025.7 Q2280.76 1027.88 2276.11 1027.88 Q2271.46 1027.88 2268.96 1025.7 Q2266.48 1023.52 2266.48 1019.44 Q2266.48 1016.75 2268.02 1014.88 Q2269.57 1013.02 2272.31 1012.38 M2270.92 1006.38 Q2270.92 1008.56 2272.27 1009.79 Q2273.65 1011.01 2276.11 1011.01 Q2278.56 1011.01 2279.93 1009.79 Q2281.32 1008.56 2281.32 1006.38 Q2281.32 1004.2 2279.93 1002.98 Q2278.56 1001.76 2276.11 1001.76 Q2273.65 1001.76 2272.27 1002.98 Q2270.92 1004.2 2270.92 1006.38 Z" fill="#000000" fill-rule="nonzero" fill-opacity="1" /><path clip-path="url(#clip100)" d="M2037.55 674.552 L2045.19 674.552 L2045.19 648.186 L2036.88 649.853 L2036.88 645.594 L2045.14 643.927 L2049.82 643.927 L2049.82 674.552 L2057.46 674.552 L2057.46 678.487 L2037.55 678.487 L2037.55 674.552 Z" fill="#000000" fill-rule="nonzero" fill-opacity="1" /><path clip-path="url(#clip100)" d="M2066.9 672.607 L2071.79 672.607 L2071.79 678.487 L2066.9 678.487 L2066.9 672.607 Z" fill="#000000" fill-rule="nonzero" fill-opacity="1" /><path clip-path="url(#clip100)" d="M2091.97 647.006 Q2088.36 647.006 2086.53 650.57 Q2084.73 654.112 2084.73 661.242 Q2084.73 668.348 2086.53 671.913 Q2088.36 675.455 2091.97 675.455 Q2095.6 675.455 2097.41 671.913 Q2099.24 668.348 2099.24 661.242 Q2099.24 654.112 2097.41 650.57 Q2095.6 647.006 2091.97 647.006 M2091.97 643.302 Q2097.78 643.302 2100.84 647.908 Q2103.92 652.492 2103.92 661.242 Q2103.92 669.968 2100.84 674.575 Q2097.78 679.158 2091.97 679.158 Q2086.16 679.158 2083.08 674.575 Q2080.03 669.968 2080.03 661.242 Q2080.03 652.492 2083.08 647.908 Q2086.16 643.302 2091.97 643.302 Z" fill="#000000" fill-rule="nonzero" fill-opacity="1" /><path clip-path="url(#clip100)" d="M2122.13 647.006 Q2118.52 647.006 2116.69 650.57 Q2114.89 654.112 2114.89 661.242 Q2114.89 668.348 2116.69 671.913 Q2118.52 675.455 2122.13 675.455 Q2125.77 675.455 2127.57 671.913 Q2129.4 668.348 2129.4 661.242 Q2129.4 654.112 2127.57 650.57 Q2125.77 647.006 2122.13 647.006 M2122.13 643.302 Q2127.94 643.302 2131 647.908 Q2134.08 652.492 2134.08 661.242 Q2134.08 669.968 2131 674.575 Q2127.94 679.158 2122.13 679.158 Q2116.32 679.158 2113.24 674.575 Q2110.19 669.968 2110.19 661.242 Q2110.19 652.492 2113.24 647.908 Q2116.32 643.302 2122.13 643.302 Z" fill="#000000" fill-rule="nonzero" fill-opacity="1" /><path clip-path="url(#clip100)" d="M2170.47 653.024 L2159.89 663.649 L2170.47 674.228 L2167.71 677.029 L2157.09 666.404 L2146.46 677.029 L2143.73 674.228 L2154.29 663.649 L2143.73 653.024 L2146.46 650.223 L2157.09 660.848 L2167.71 650.223 L2170.47 653.024 Z" fill="#000000" fill-rule="nonzero" fill-opacity="1" /><path clip-path="url(#clip100)" d="M2182.83 674.552 L2190.47 674.552 L2190.47 648.186 L2182.16 649.853 L2182.16 645.594 L2190.42 643.927 L2195.1 643.927 L2195.1 674.552 L2202.73 674.552 L2202.73 678.487 L2182.83 678.487 L2182.83 674.552 Z" fill="#000000" fill-rule="nonzero" fill-opacity="1" /><path clip-path="url(#clip100)" d="M2222.18 647.006 Q2218.57 647.006 2216.74 650.57 Q2214.93 654.112 2214.93 661.242 Q2214.93 668.348 2216.74 671.913 Q2218.57 675.455 2222.18 675.455 Q2225.81 675.455 2227.62 671.913 Q2229.45 668.348 2229.45 661.242 Q2229.45 654.112 2227.62 650.57 Q2225.81 647.006 2222.18 647.006 M2222.18 643.302 Q2227.99 643.302 2231.04 647.908 Q2234.12 652.492 2234.12 661.242 Q2234.12 669.968 2231.04 674.575 Q2227.99 679.158 2222.18 679.158 Q2216.37 679.158 2213.29 674.575 Q2210.23 669.968 2210.23 661.242 Q2210.23 652.492 2213.29 647.908 Q2216.37 643.302 2222.18 643.302 Z" fill="#000000" fill-rule="nonzero" fill-opacity="1" /><path clip-path="url(#clip100)" d="M2234.12 637.403 L2258.23 637.403 L2258.23 640.601 L2234.12 640.601 L2234.12 637.403 Z" fill="#000000" fill-rule="nonzero" fill-opacity="1" /><path clip-path="url(#clip100)" d="M2265.48 622.997 L2283.53 622.997 L2283.53 624.614 L2273.34 651.077 L2269.37 651.077 L2278.96 626.194 L2265.48 626.194 L2265.48 622.997 Z" fill="#000000" fill-rule="nonzero" fill-opacity="1" /><path clip-path="url(#clip100)" d="M2037.55 298.294 L2045.19 298.294 L2045.19 271.928 L2036.88 273.595 L2036.88 269.335 L2045.14 267.669 L2049.82 267.669 L2049.82 298.294 L2057.46 298.294 L2057.46 302.229 L2037.55 302.229 L2037.55 298.294 Z" fill="#000000" fill-rule="nonzero" fill-opacity="1" /><path clip-path="url(#clip100)" d="M2066.9 296.349 L2071.79 296.349 L2071.79 302.229 L2066.9 302.229 L2066.9 296.349 Z" fill="#000000" fill-rule="nonzero" fill-opacity="1" /><path clip-path="url(#clip100)" d="M2082.02 267.669 L2100.37 267.669 L2100.37 271.604 L2086.3 271.604 L2086.3 280.076 Q2087.32 279.729 2088.34 279.567 Q2089.35 279.382 2090.37 279.382 Q2096.16 279.382 2099.54 282.553 Q2102.92 285.724 2102.92 291.141 Q2102.92 296.719 2099.45 299.821 Q2095.98 302.9 2089.66 302.9 Q2087.48 302.9 2085.21 302.53 Q2082.97 302.159 2080.56 301.419 L2080.56 296.719 Q2082.64 297.854 2084.86 298.409 Q2087.09 298.965 2089.56 298.965 Q2093.57 298.965 2095.91 296.858 Q2098.24 294.752 2098.24 291.141 Q2098.24 287.53 2095.91 285.423 Q2093.57 283.317 2089.56 283.317 Q2087.69 283.317 2085.81 283.733 Q2083.96 284.15 2082.02 285.03 L2082.02 267.669 Z" fill="#000000" fill-rule="nonzero" fill-opacity="1" /><path clip-path="url(#clip100)" d="M2122.13 270.747 Q2118.52 270.747 2116.69 274.312 Q2114.89 277.854 2114.89 284.983 Q2114.89 292.09 2116.69 295.655 Q2118.52 299.196 2122.13 299.196 Q2125.77 299.196 2127.57 295.655 Q2129.4 292.09 2129.4 284.983 Q2129.4 277.854 2127.57 274.312 Q2125.77 270.747 2122.13 270.747 M2122.13 267.044 Q2127.94 267.044 2131 271.65 Q2134.08 276.233 2134.08 284.983 Q2134.08 293.71 2131 298.317 Q2127.94 302.9 2122.13 302.9 Q2116.32 302.9 2113.24 298.317 Q2110.19 293.71 2110.19 284.983 Q2110.19 276.233 2113.24 271.65 Q2116.32 267.044 2122.13 267.044 Z" fill="#000000" fill-rule="nonzero" fill-opacity="1" /><path clip-path="url(#clip100)" d="M2170.47 276.766 L2159.89 287.391 L2170.47 297.969 L2167.71 300.77 L2157.09 290.145 L2146.46 300.77 L2143.73 297.969 L2154.29 287.391 L2143.73 276.766 L2146.46 273.965 L2157.09 284.59 L2167.71 273.965 L2170.47 276.766 Z" fill="#000000" fill-rule="nonzero" fill-opacity="1" /><path clip-path="url(#clip100)" d="M2182.83 298.294 L2190.47 298.294 L2190.47 271.928 L2182.16 273.595 L2182.16 269.335 L2190.42 267.669 L2195.1 267.669 L2195.1 298.294 L2202.73 298.294 L2202.73 302.229 L2182.83 302.229 L2182.83 298.294 Z" fill="#000000" fill-rule="nonzero" fill-opacity="1" /><path clip-path="url(#clip100)" d="M2222.18 270.747 Q2218.57 270.747 2216.74 274.312 Q2214.93 277.854 2214.93 284.983 Q2214.93 292.09 2216.74 295.655 Q2218.57 299.196 2222.18 299.196 Q2225.81 299.196 2227.62 295.655 Q2229.45 292.09 2229.45 284.983 Q2229.45 277.854 2227.62 274.312 Q2225.81 270.747 2222.18 270.747 M2222.18 267.044 Q2227.99 267.044 2231.04 271.65 Q2234.12 276.233 2234.12 284.983 Q2234.12 293.71 2231.04 298.317 Q2227.99 302.9 2222.18 302.9 Q2216.37 302.9 2213.29 298.317 Q2210.23 293.71 2210.23 284.983 Q2210.23 276.233 2213.29 271.65 Q2216.37 267.044 2222.18 267.044 Z" fill="#000000" fill-rule="nonzero" fill-opacity="1" /><path clip-path="url(#clip100)" d="M2234.12 261.145 L2258.23 261.145 L2258.23 264.342 L2234.12 264.342 L2234.12 261.145 Z" fill="#000000" fill-rule="nonzero" fill-opacity="1" /><path clip-path="url(#clip100)" d="M2265.48 246.738 L2283.53 246.738 L2283.53 248.356 L2273.34 274.818 L2269.37 274.818 L2278.96 249.936 L2265.48 249.936 L2265.48 246.738 Z" fill="#000000" fill-rule="nonzero" fill-opacity="1" /><path clip-path="url(#clip100)" d="M2328.95 814.438 L2394.14 814.438 L2394.14 819.849 L2328.95 819.849 L2328.95 814.438 Z" fill="#000000" fill-rule="nonzero" fill-opacity="1" /><path clip-path="url(#clip100)" d="M2359.48 769.528 L2362.34 769.528 L2362.34 796.455 Q2368.39 796.073 2371.57 792.827 Q2374.72 789.548 2374.72 783.724 Q2374.72 780.35 2373.89 777.199 Q2373.07 774.016 2371.41 770.897 L2376.95 770.897 Q2378.29 774.048 2378.99 777.358 Q2379.69 780.668 2379.69 784.074 Q2379.69 792.604 2374.72 797.601 Q2369.76 802.566 2361.29 802.566 Q2352.54 802.566 2347.41 797.856 Q2342.26 793.113 2342.26 785.092 Q2342.26 777.899 2346.9 773.73 Q2351.52 769.528 2359.48 769.528 M2357.76 775.385 Q2352.95 775.448 2350.09 778.09 Q2347.22 780.7 2347.22 785.029 Q2347.22 789.93 2349.99 792.89 Q2352.76 795.819 2357.79 796.264 L2357.76 775.385 Z" fill="#000000" fill-rule="nonzero" fill-opacity="1" /><path clip-path="url(#clip100)" d="M2348.59 739.259 Q2348.02 740.246 2347.76 741.424 Q2347.48 742.569 2347.48 743.97 Q2347.48 748.935 2350.72 751.609 Q2353.94 754.25 2359.99 754.25 L2378.76 754.25 L2378.76 760.139 L2343.12 760.139 L2343.12 754.25 L2348.65 754.25 Q2345.41 752.404 2343.85 749.444 Q2342.26 746.484 2342.26 742.251 Q2342.26 741.646 2342.35 740.914 Q2342.42 740.182 2342.57 739.291 L2348.59 739.259 Z" fill="#000000" fill-rule="nonzero" fill-opacity="1" /><path clip-path="url(#clip100)" d="M2348.59 713.605 Q2348.02 714.592 2347.76 715.77 Q2347.48 716.916 2347.48 718.316 Q2347.48 723.281 2350.72 725.955 Q2353.94 728.597 2359.99 728.597 L2378.76 728.597 L2378.76 734.485 L2343.12 734.485 L2343.12 728.597 L2348.65 728.597 Q2345.41 726.751 2343.85 723.791 Q2342.26 720.831 2342.26 716.597 Q2342.26 715.993 2342.35 715.261 Q2342.42 714.528 2342.57 713.637 L2348.59 713.605 Z" fill="#000000" fill-rule="nonzero" fill-opacity="1" /><path clip-path="url(#clip100)" d="M2347.22 695.081 Q2347.22 699.792 2350.91 702.529 Q2354.57 705.266 2360.97 705.266 Q2367.37 705.266 2371.06 702.561 Q2374.72 699.824 2374.72 695.081 Q2374.72 690.402 2371.03 687.665 Q2367.34 684.928 2360.97 684.928 Q2354.64 684.928 2350.95 687.665 Q2347.22 690.402 2347.22 695.081 M2342.26 695.081 Q2342.26 687.442 2347.22 683.082 Q2352.19 678.721 2360.97 678.721 Q2369.72 678.721 2374.72 683.082 Q2379.69 687.442 2379.69 695.081 Q2379.69 702.752 2374.72 707.112 Q2369.72 711.441 2360.97 711.441 Q2352.19 711.441 2347.22 707.112 Q2342.26 702.752 2342.26 695.081 Z" fill="#000000" fill-rule="nonzero" fill-opacity="1" /><path clip-path="url(#clip100)" d="M2348.59 648.357 Q2348.02 649.344 2347.76 650.521 Q2347.48 651.667 2347.48 653.068 Q2347.48 658.033 2350.72 660.706 Q2353.94 663.348 2359.99 663.348 L2378.76 663.348 L2378.76 669.236 L2343.12 669.236 L2343.12 663.348 L2348.65 663.348 Q2345.41 661.502 2343.85 658.542 Q2342.26 655.582 2342.26 651.349 Q2342.26 650.744 2342.35 650.012 Q2342.42 649.28 2342.57 648.389 L2348.59 648.357 Z" fill="#000000" fill-rule="nonzero" fill-opacity="1" /><path clip-path="url(#clip100)" d="M2328.95 634.671 L2394.14 634.671 L2394.14 640.082 L2328.95 640.082 L2328.95 634.671 Z" fill="#000000" fill-rule="nonzero" fill-opacity="1" /><polyline clip-path="url(#clip102)" style="stroke:#808080; stroke-linecap:round; stroke-linejoin:round; stroke-width:6; stroke-opacity:1; fill:none" stroke-dasharray="3, 6" points="270.272,1394.69 276.861,1398.62 283.45,1384.57 290.039,1345.17 296.628,1216.5 303.217,1356.64 309.806,1359.52 316.395,1358.91 322.984,1100.09 329.573,1299.87 336.162,1351.45 342.751,1343.25 349.341,1299.49 355.93,1385.41 362.519,1351.2 369.108,1395.38 375.697,1394.15 382.286,1385.2 388.875,1387.51 395.464,1399.25 402.053,1349.4 408.642,1390.19 415.231,1362.15 421.82,1380.29 428.409,1192.32 434.998,1308.39 441.587,1338.99 448.176,1350.76 454.765,1249.35 461.354,1405.06 467.943,1352.21 474.532,1379.96 481.121,1370.08 487.71,1312.38 494.299,1395.06 500.888,1253.94 507.477,1112.03 514.066,1236.88 520.655,1347.51 527.244,1360.38 533.833,1323.75 540.422,1325.15 547.011,1350.79 553.6,1256 560.189,981.778 566.778,1324.46 573.367,1338.25 579.956,1376.35 586.545,1398.35 593.134,1371.36 599.723,1385.92 606.312,1344.32 612.901,1385.51 619.49,1369.1 626.079,1357.81 632.668,1363.35 639.257,1360.67 645.846,1357.35 652.435,1381.49 659.024,1317.74 665.613,1124.79 672.202,1336.44 678.791,1375.22 685.381,1395.46 691.97,1388.83 698.559,1355 705.148,1385.73 711.737,1367 718.326,1279.34 724.915,1351.25 731.504,1304.57 738.093,1261.6 744.682,1172.44 751.271,1271.92 757.86,1395.66 764.449,1341.55 771.038,1272.92 777.627,1402.02 784.216,1363.45 790.805,1398.3 797.394,1388.96 803.983,1341.83 810.572,1379.59 817.161,1325.91 823.75,1337.37 830.339,1344.97 836.928,1319.78 843.517,1310.91 850.106,1215.96 856.695,1107.08 863.284,1345.25 869.873,1367.8 876.462,1246.93 883.051,1379.62 889.64,1319.69 896.229,1374.62 902.818,1391.7 909.407,1369.19 915.996,1380.1 922.585,1392.26 929.174,1347.87 935.763,1368.21 942.352,1386.54 948.941,1387.03 955.53,1335.33 962.119,1297.02 968.708,1344.83 975.297,1338.6 981.886,928.284 988.475,1331.69 995.064,1361.84 1001.65,1397.44 1008.24,1392.05 1014.83,1362.48 1021.42,1366.41 1028.01,1378.55 1034.6,1364.82 1041.19,1366.03 1047.78,1328.29 1054.37,1379.99 1060.95,1379.85 1067.54,1341.4 1074.13,1348.05 1080.72,1339.18 1087.31,908.54 1093.9,1360.05 1100.49,1322.94 1107.08,1387.35 1113.67,1391.91 1120.26,1348 1126.84,1375.66 1133.43,1280.94 1140.02,1288.84 1146.61,1285.89 1153.2,1302.64 1159.79,1374.71 1166.38,1378.91 1172.97,1333.67 1179.56,1381.66 1186.15,1379.8 1192.74,1028.35 1199.32,1359.05 1205.91,1360.29 1212.5,1393.35 1219.09,1399.75 1225.68,1379.49 1232.27,1383.54 1238.86,1339.06 1245.45,1127.61 1252.04,1322.36 1258.63,1343.75 1265.21,1365.49 1271.8,1335.36 1278.39,1373.19 1284.98,1369.63 1291.57,1324.38 1298.16,1362.32 1304.75,1402.47 1311.34,1382.96 1317.93,1397.29 1324.52,1384.61 1331.1,1328.45 1337.69,1380.88 1344.28,1344.43 1350.87,1377.72 1357.46,1340.59 1364.05,1289.65 1370.64,1289.32 1377.23,1166.79 1383.82,1253.48 1390.41,1328.63 1396.99,1359.06 1403.58,1375.73 1410.17,1373.44 1416.76,1350.04 1423.35,1385.63 1429.94,1390.89 1436.53,1361.9 1443.12,1399.31 1449.71,1382.78 1456.3,1315.22 1462.88,1334.07 1469.47,1332.6 1476.06,1341.06 1482.65,1125.32 1489.24,1155.57 1495.83,1326.29 1502.42,1350.26 1509.01,1241.9 1515.6,1382.33 1522.19,1349.18 1528.78,1389 1535.36,1393.15 1541.95,1379.27 1548.54,1370.11 1555.13,1325.6 1561.72,1237.68 1568.31,1327.47 1574.9,1386.28 1581.49,1389.5 1588.08,1335.24 1594.67,1341.78 1601.25,1371.43 1607.84,1405.74 1614.43,1249.09 1621.02,1373.07 1627.61,1372.56 1634.2,1399.83 1640.79,1374.04 1647.38,1336.47 1653.97,1357.38 1660.56,1284.09 1667.14,1051.22 1673.73,1362.01 1680.32,1351.39 1686.91,1359.19 1693.5,1119.36 1700.09,1311.21 1706.68,1342.8 1713.27,1299.45 1719.86,727.26 1726.45,1393.65 1733.03,1291.02 1739.62,1368.04 1746.21,1384.2 1752.8,1369.82 1759.39,1397.24 1765.98,1356.07 1772.57,1210.64 1779.16,1313.79 1785.75,1329.81 1792.34,1358.76 1798.92,1243.75 1805.51,1308.26 1812.1,1380.84 1818.69,1366.6 1825.28,1373.12 1831.87,1377.58 1838.46,1387.71 1845.05,1400.95 1851.64,1399.99 1858.23,1378.13 1864.82,1390.5 1871.4,1355.65 1877.99,1246.11 1884.58,1313.5 1891.17,1333.47 1897.76,1290.79 1904.35,1293.13 1910.94,1327.67 1917.53,1382.4 1924.12,1321.5 1930.71,1183.97 1937.29,1370.35 1943.88,1378.15 1950.47,1398.86 "/>
<path clip-path="url(#clip100)" d="M1474.01 196.258 L1941.51 196.258 L1941.51 92.5785 L1474.01 92.5785  Z" fill="#ffffff" fill-rule="evenodd" fill-opacity="1"/>
<polyline clip-path="url(#clip100)" style="stroke:#000000; stroke-linecap:round; stroke-linejoin:round; stroke-width:4; stroke-opacity:1; fill:none" points="1474.01,196.258 1941.51,196.258 1941.51,92.5785 1474.01,92.5785 1474.01,196.258 "/>
<polyline clip-path="url(#clip100)" style="stroke:#808080; stroke-linecap:round; stroke-linejoin:round; stroke-width:6; stroke-opacity:1; fill:none" stroke-dasharray="3, 6" points="1493.8,144.418 1612.54,144.418 "/>
<path clip-path="url(#clip100)" d="M1636.26 125.472 L1636.26 172.879 L1632.33 172.879 L1632.33 125.472 L1636.26 125.472 Z" fill="#000000" fill-rule="nonzero" fill-opacity="1" /><path clip-path="url(#clip100)" d="M1660.96 130.31 Q1655.87 130.31 1652.86 134.106 Q1649.87 137.902 1649.87 144.453 Q1649.87 150.981 1652.86 154.777 Q1655.87 158.573 1660.96 158.573 Q1666.05 158.573 1669.02 154.777 Q1672 150.981 1672 144.453 Q1672 137.902 1669.02 134.106 Q1666.05 130.31 1660.96 130.31 M1667.51 161.073 L1673.67 167.81 L1668.02 167.81 L1662.9 162.277 Q1662.14 162.323 1661.72 162.347 Q1661.33 162.37 1660.96 162.37 Q1653.67 162.37 1649.29 157.509 Q1644.94 152.624 1644.94 144.453 Q1644.94 136.259 1649.29 131.398 Q1653.67 126.513 1660.96 126.513 Q1668.23 126.513 1672.58 131.398 Q1676.93 136.259 1676.93 144.453 Q1676.93 150.472 1674.5 154.754 Q1672.09 159.036 1667.51 161.073 Z" fill="#000000" fill-rule="nonzero" fill-opacity="1" /><path clip-path="url(#clip100)" d="M1684.25 127.138 L1704.11 127.138 L1704.11 131.074 L1688.92 131.074 L1688.92 141.259 L1702.63 141.259 L1702.63 145.194 L1688.92 145.194 L1688.92 161.698 L1684.25 161.698 L1684.25 127.138 Z" fill="#000000" fill-rule="nonzero" fill-opacity="1" /><path clip-path="url(#clip100)" d="M1705.89 127.138 L1735.13 127.138 L1735.13 131.074 L1722.86 131.074 L1722.86 161.698 L1718.16 161.698 L1718.16 131.074 L1705.89 131.074 L1705.89 127.138 Z" fill="#000000" fill-rule="nonzero" fill-opacity="1" /><path clip-path="url(#clip100)" d="M1752.37 146.814 L1764.85 146.814 L1764.85 150.611 L1752.37 150.611 L1752.37 146.814 Z" fill="#000000" fill-rule="nonzero" fill-opacity="1" /><path clip-path="url(#clip100)" d="M1786.88 127.138 L1806.75 127.138 L1806.75 131.074 L1791.56 131.074 L1791.56 141.259 L1805.26 141.259 L1805.26 145.194 L1791.56 145.194 L1791.56 161.698 L1786.88 161.698 L1786.88 127.138 Z" fill="#000000" fill-rule="nonzero" fill-opacity="1" /><path clip-path="url(#clip100)" d="M1814.15 127.138 L1834.01 127.138 L1834.01 131.074 L1818.83 131.074 L1818.83 141.259 L1832.53 141.259 L1832.53 145.194 L1818.83 145.194 L1818.83 161.698 L1814.15 161.698 L1814.15 127.138 Z" fill="#000000" fill-rule="nonzero" fill-opacity="1" /><path clip-path="url(#clip100)" d="M1835.8 127.138 L1865.03 127.138 L1865.03 131.074 L1852.76 131.074 L1852.76 161.698 L1848.07 161.698 L1848.07 131.074 L1835.8 131.074 L1835.8 127.138 Z" fill="#000000" fill-rule="nonzero" fill-opacity="1" /><path clip-path="url(#clip100)" d="M1866.47 127.138 L1871.19 127.138 L1878.46 156.351 L1885.7 127.138 L1890.96 127.138 L1898.23 156.351 L1905.47 127.138 L1910.22 127.138 L1901.54 161.698 L1895.66 161.698 L1888.37 131.699 L1881 161.698 L1875.13 161.698 L1866.47 127.138 Z" fill="#000000" fill-rule="nonzero" fill-opacity="1" /><path clip-path="url(#clip100)" d="M1921.72 125.472 L1921.72 172.879 L1917.79 172.879 L1917.79 125.472 L1921.72 125.472 Z" fill="#000000" fill-rule="nonzero" fill-opacity="1" /></svg>
