<?xml version="1.0" encoding="utf-8"?>
<svg xmlns="http://www.w3.org/2000/svg" xmlns:xlink="http://www.w3.org/1999/xlink" width="760" height="420" viewBox="0 0 3040 1680">
<defs>
  <clipPath id="clip870">
    <rect x="0" y="0" width="3040" height="1680"/>
  </clipPath>
</defs>
<path clip-path="url(#clip870)" d="M0 1680 L3040 1680 L3040 9.14356e-14 L0 9.14356e-14  Z" fill="#ffffff" fill-rule="evenodd" fill-opacity="1"/>
<defs>
  <clipPath id="clip871">
    <rect x="278" y="0" width="2257" height="1680"/>
  </clipPath>
</defs>
<path clip-path="url(#clip870)" d="M172.42 1516.42 L2671.43 1516.42 L2671.43 113.127 L172.42 113.127  Z" fill="#ffffff" fill-rule="evenodd" fill-opacity="1"/>
<defs>
  <clipPath id="clip872">
    <rect x="172" y="113" width="2500" height="1404"/>
  </clipPath>
</defs>
<polyline clip-path="url(#clip872)" style="stroke:#000000; stroke-linecap:round; stroke-linejoin:round; stroke-width:2; stroke-opacity:0.1; fill:none" points="243.147,1516.42 243.147,113.127 "/>
<polyline clip-path="url(#clip872)" style="stroke:#000000; stroke-linecap:round; stroke-linejoin:round; stroke-width:2; stroke-opacity:0.1; fill:none" points="823.253,1516.42 823.253,113.127 "/>
<polyline clip-path="url(#clip872)" style="stroke:#000000; stroke-linecap:round; stroke-linejoin:round; stroke-width:2; stroke-opacity:0.1; fill:none" points="1403.36,1516.42 1403.36,113.127 "/>
<polyline clip-path="url(#clip872)" style="stroke:#000000; stroke-linecap:round; stroke-linejoin:round; stroke-width:2; stroke-opacity:0.1; fill:none" points="1983.47,1516.42 1983.47,113.127 "/>
<polyline clip-path="url(#clip872)" style="stroke:#000000; stroke-linecap:round; stroke-linejoin:round; stroke-width:2; stroke-opacity:0.1; fill:none" points="2563.57,1516.42 2563.57,113.127 "/>
<polyline clip-path="url(#clip870)" style="stroke:#000000; stroke-linecap:round; stroke-linejoin:round; stroke-width:4; stroke-opacity:1; fill:none" points="172.42,1516.42 2671.43,1516.42 "/>
<polyline clip-path="url(#clip870)" style="stroke:#000000; stroke-linecap:round; stroke-linejoin:round; stroke-width:4; stroke-opacity:1; fill:none" points="243.147,1516.42 243.147,1497.52 "/>
<polyline clip-path="url(#clip870)" style="stroke:#000000; stroke-linecap:round; stroke-linejoin:round; stroke-width:4; stroke-opacity:1; fill:none" points="823.253,1516.42 823.253,1497.52 "/>
<polyline clip-path="url(#clip870)" style="stroke:#000000; stroke-linecap:round; stroke-linejoin:round; stroke-width:4; stroke-opacity:1; fill:none" points="1403.36,1516.42 1403.36,1497.52 "/>
<polyline clip-path="url(#clip870)" style="stroke:#000000; stroke-linecap:round; stroke-linejoin:round; stroke-width:4; stroke-opacity:1; fill:none" points="1983.47,1516.42 1983.47,1497.52 "/>
<polyline clip-path="url(#clip870)" style="stroke:#000000; stroke-linecap:round; stroke-linejoin:round; stroke-width:4; stroke-opacity:1; fill:none" points="2563.57,1516.42 2563.57,1497.52 "/>
<path clip-path="url(#clip870)" d="M220.531 1552.46 Q216.92 1552.46 215.092 1556.02 Q213.286 1559.56 213.286 1566.69 Q213.286 1573.8 215.092 1577.37 Q216.92 1580.91 220.531 1580.91 Q224.166 1580.91 225.971 1577.37 Q227.8 1573.8 227.8 1566.69 Q227.8 1559.56 225.971 1556.02 Q224.166 1552.46 220.531 1552.46 M220.531 1548.75 Q226.342 1548.75 229.397 1553.36 Q232.476 1557.94 232.476 1566.69 Q232.476 1575.42 229.397 1580.03 Q226.342 1584.61 220.531 1584.61 Q214.721 1584.61 211.643 1580.03 Q208.587 1575.42 208.587 1566.69 Q208.587 1557.94 211.643 1553.36 Q214.721 1548.75 220.531 1548.75 Z" fill="#000000" fill-rule="nonzero" fill-opacity="1" /><path clip-path="url(#clip870)" d="M240.693 1578.06 L245.578 1578.06 L245.578 1583.94 L240.693 1583.94 L240.693 1578.06 Z" fill="#000000" fill-rule="nonzero" fill-opacity="1" /><path clip-path="url(#clip870)" d="M265.763 1552.46 Q262.152 1552.46 260.323 1556.02 Q258.517 1559.56 258.517 1566.69 Q258.517 1573.8 260.323 1577.37 Q262.152 1580.91 265.763 1580.91 Q269.397 1580.91 271.202 1577.37 Q273.031 1573.8 273.031 1566.69 Q273.031 1559.56 271.202 1556.02 Q269.397 1552.46 265.763 1552.46 M265.763 1548.75 Q271.573 1548.75 274.628 1553.36 Q277.707 1557.94 277.707 1566.69 Q277.707 1575.42 274.628 1580.03 Q271.573 1584.61 265.763 1584.61 Q259.953 1584.61 256.874 1580.03 Q253.818 1575.42 253.818 1566.69 Q253.818 1557.94 256.874 1553.36 Q259.953 1548.75 265.763 1548.75 Z" fill="#000000" fill-rule="nonzero" fill-opacity="1" /><path clip-path="url(#clip870)" d="M794.99 1580 L811.309 1580 L811.309 1583.94 L789.365 1583.94 L789.365 1580 Q792.027 1577.25 796.61 1572.62 Q801.217 1567.97 802.397 1566.63 Q804.642 1564.1 805.522 1562.37 Q806.425 1560.61 806.425 1558.92 Q806.425 1556.16 804.48 1554.43 Q802.559 1552.69 799.457 1552.69 Q797.258 1552.69 794.805 1553.45 Q792.374 1554.22 789.596 1555.77 L789.596 1551.05 Q792.42 1549.91 794.874 1549.33 Q797.328 1548.75 799.365 1548.75 Q804.735 1548.75 807.929 1551.44 Q811.124 1554.13 811.124 1558.62 Q811.124 1560.75 810.314 1562.67 Q809.527 1564.56 807.42 1567.16 Q806.842 1567.83 803.74 1571.05 Q800.638 1574.24 794.99 1580 Z" fill="#000000" fill-rule="nonzero" fill-opacity="1" /><path clip-path="url(#clip870)" d="M821.124 1578.06 L826.008 1578.06 L826.008 1583.94 L821.124 1583.94 L821.124 1578.06 Z" fill="#000000" fill-rule="nonzero" fill-opacity="1" /><path clip-path="url(#clip870)" d="M836.24 1549.38 L854.596 1549.38 L854.596 1553.32 L840.522 1553.32 L840.522 1561.79 Q841.54 1561.44 842.559 1561.28 Q843.577 1561.09 844.596 1561.09 Q850.383 1561.09 853.763 1564.26 Q857.142 1567.44 857.142 1572.85 Q857.142 1578.43 853.67 1581.53 Q850.198 1584.61 843.878 1584.61 Q841.702 1584.61 839.434 1584.24 Q837.189 1583.87 834.781 1583.13 L834.781 1578.43 Q836.865 1579.56 839.087 1580.12 Q841.309 1580.68 843.786 1580.68 Q847.79 1580.68 850.128 1578.57 Q852.466 1576.46 852.466 1572.85 Q852.466 1569.24 850.128 1567.13 Q847.79 1565.03 843.786 1565.03 Q841.911 1565.03 840.036 1565.44 Q838.184 1565.86 836.24 1566.74 L836.24 1549.38 Z" fill="#000000" fill-rule="nonzero" fill-opacity="1" /><path clip-path="url(#clip870)" d="M1370.52 1549.38 L1388.88 1549.38 L1388.88 1553.32 L1374.81 1553.32 L1374.81 1561.79 Q1375.83 1561.44 1376.84 1561.28 Q1377.86 1561.09 1378.88 1561.09 Q1384.67 1561.09 1388.05 1564.26 Q1391.43 1567.44 1391.43 1572.85 Q1391.43 1578.43 1387.95 1581.53 Q1384.48 1584.61 1378.16 1584.61 Q1375.99 1584.61 1373.72 1584.24 Q1371.47 1583.87 1369.07 1583.13 L1369.07 1578.43 Q1371.15 1579.56 1373.37 1580.12 Q1375.59 1580.68 1378.07 1580.68 Q1382.08 1580.68 1384.41 1578.57 Q1386.75 1576.46 1386.75 1572.85 Q1386.75 1569.24 1384.41 1567.13 Q1382.08 1565.03 1378.07 1565.03 Q1376.2 1565.03 1374.32 1565.44 Q1372.47 1565.86 1370.52 1566.74 L1370.52 1549.38 Z" fill="#000000" fill-rule="nonzero" fill-opacity="1" /><path clip-path="url(#clip870)" d="M1400.64 1578.06 L1405.52 1578.06 L1405.52 1583.94 L1400.64 1583.94 L1400.64 1578.06 Z" fill="#000000" fill-rule="nonzero" fill-opacity="1" /><path clip-path="url(#clip870)" d="M1425.71 1552.46 Q1422.1 1552.46 1420.27 1556.02 Q1418.46 1559.56 1418.46 1566.69 Q1418.46 1573.8 1420.27 1577.37 Q1422.1 1580.91 1425.71 1580.91 Q1429.34 1580.91 1431.15 1577.37 Q1432.98 1573.8 1432.98 1566.69 Q1432.98 1559.56 1431.15 1556.02 Q1429.34 1552.46 1425.71 1552.46 M1425.71 1548.75 Q1431.52 1548.75 1434.57 1553.36 Q1437.65 1557.94 1437.65 1566.69 Q1437.65 1575.42 1434.57 1580.03 Q1431.52 1584.61 1425.71 1584.61 Q1419.9 1584.61 1416.82 1580.03 Q1413.76 1575.42 1413.76 1566.69 Q1413.76 1557.94 1416.82 1553.36 Q1419.9 1548.75 1425.71 1548.75 Z" fill="#000000" fill-rule="nonzero" fill-opacity="1" /><path clip-path="url(#clip870)" d="M1949.79 1549.38 L1972.01 1549.38 L1972.01 1551.37 L1959.46 1583.94 L1954.58 1583.94 L1966.38 1553.32 L1949.79 1553.32 L1949.79 1549.38 Z" fill="#000000" fill-rule="nonzero" fill-opacity="1" /><path clip-path="url(#clip870)" d="M1981.13 1578.06 L1986.01 1578.06 L1986.01 1583.94 L1981.13 1583.94 L1981.13 1578.06 Z" fill="#000000" fill-rule="nonzero" fill-opacity="1" /><path clip-path="url(#clip870)" d="M1996.24 1549.38 L2014.6 1549.38 L2014.6 1553.32 L2000.53 1553.32 L2000.53 1561.79 Q2001.54 1561.44 2002.56 1561.28 Q2003.58 1561.09 2004.6 1561.09 Q2010.39 1561.09 2013.77 1564.26 Q2017.15 1567.44 2017.15 1572.85 Q2017.15 1578.43 2013.67 1581.53 Q2010.2 1584.61 2003.88 1584.61 Q2001.71 1584.61 1999.44 1584.24 Q1997.19 1583.87 1994.79 1583.13 L1994.79 1578.43 Q1996.87 1579.56 1999.09 1580.12 Q2001.31 1580.68 2003.79 1580.68 Q2007.79 1580.68 2010.13 1578.57 Q2012.47 1576.46 2012.47 1572.85 Q2012.47 1569.24 2010.13 1567.13 Q2007.79 1565.03 2003.79 1565.03 Q2001.92 1565.03 2000.04 1565.44 Q1998.19 1565.86 1996.24 1566.74 L1996.24 1549.38 Z" fill="#000000" fill-rule="nonzero" fill-opacity="1" /><path clip-path="url(#clip870)" d="M2515.64 1580 L2523.28 1580 L2523.28 1553.64 L2514.97 1555.31 L2514.97 1551.05 L2523.24 1549.38 L2527.91 1549.38 L2527.91 1580 L2535.55 1580 L2535.55 1583.94 L2515.64 1583.94 L2515.64 1580 Z" fill="#000000" fill-rule="nonzero" fill-opacity="1" /><path clip-path="url(#clip870)" d="M2555 1552.46 Q2551.39 1552.46 2549.56 1556.02 Q2547.75 1559.56 2547.75 1566.69 Q2547.75 1573.8 2549.56 1577.37 Q2551.39 1580.91 2555 1580.91 Q2558.63 1580.91 2560.44 1577.37 Q2562.26 1573.8 2562.26 1566.69 Q2562.26 1559.56 2560.44 1556.02 Q2558.63 1552.46 2555 1552.46 M2555 1548.75 Q2560.81 1548.75 2563.86 1553.36 Q2566.94 1557.94 2566.94 1566.69 Q2566.94 1575.42 2563.86 1580.03 Q2560.81 1584.61 2555 1584.61 Q2549.19 1584.61 2546.11 1580.03 Q2543.05 1575.42 2543.05 1566.69 Q2543.05 1557.94 2546.11 1553.36 Q2549.19 1548.75 2555 1548.75 Z" fill="#000000" fill-rule="nonzero" fill-opacity="1" /><path clip-path="url(#clip870)" d="M2575.16 1578.06 L2580.04 1578.06 L2580.04 1583.94 L2575.16 1583.94 L2575.16 1578.06 Z" fill="#000000" fill-rule="nonzero" fill-opacity="1" /><path clip-path="url(#clip870)" d="M2600.23 1552.46 Q2596.62 1552.46 2594.79 1556.02 Q2592.98 1559.56 2592.98 1566.69 Q2592.98 1573.8 2594.79 1577.37 Q2596.62 1580.91 2600.23 1580.91 Q2603.86 1580.91 2605.67 1577.37 Q2607.5 1573.8 2607.5 1566.69 Q2607.5 1559.56 2605.67 1556.02 Q2603.86 1552.46 2600.23 1552.46 M2600.23 1548.75 Q2606.04 1548.75 2609.09 1553.36 Q2612.17 1557.94 2612.17 1566.69 Q2612.17 1575.42 2609.09 1580.03 Q2606.04 1584.61 2600.23 1584.61 Q2594.42 1584.61 2591.34 1580.03 Q2588.28 1575.42 2588.28 1566.69 Q2588.28 1557.94 2591.34 1553.36 Q2594.42 1548.75 2600.23 1548.75 Z" fill="#000000" fill-rule="nonzero" fill-opacity="1" /><path clip-path="url(#clip870)" d="M1430.9 1632.96 Q1430.9 1634.76 1430 1635.73 Q1429.1 1636.66 1427.87 1636.66 Q1426.87 1636.66 1426.33 1636.08 Q1425.81 1635.5 1425.81 1634.73 Q1425.81 1633.6 1426.71 1632.7 Q1427.65 1631.8 1429 1631.76 Q1428.55 1630.57 1427.36 1629.86 Q1426.16 1629.12 1425.1 1628.93 Q1424.07 1628.74 1423.04 1628.74 Q1421.01 1628.74 1419.47 1629.38 Q1417.92 1630.03 1417.15 1631.02 Q1416.37 1631.99 1416.02 1632.92 Q1415.67 1633.86 1415.67 1634.66 Q1415.67 1635.37 1415.83 1635.95 Q1416.02 1636.5 1416.47 1636.92 Q1416.92 1637.3 1417.24 1637.56 Q1417.6 1637.82 1418.37 1638.04 Q1419.14 1638.27 1419.47 1638.37 Q1419.79 1638.43 1420.69 1638.62 Q1422.56 1639.01 1423.39 1639.24 Q1424.23 1639.43 1425.33 1639.98 Q1426.45 1640.52 1427.29 1641.39 Q1429.32 1643.42 1429.32 1646.22 Q1429.32 1647.26 1428.97 1648.51 Q1428.64 1649.77 1427.71 1651.35 Q1426.78 1652.92 1425.36 1654.18 Q1423.94 1655.44 1421.49 1656.3 Q1419.08 1657.17 1416.05 1657.17 Q1411.83 1657.17 1409.22 1655.4 Q1406.62 1653.6 1406.62 1650.77 Q1406.62 1648.7 1407.74 1647.58 Q1408.87 1646.42 1410.32 1646.42 Q1411.41 1646.42 1412.09 1647.03 Q1412.77 1647.61 1412.77 1648.7 Q1412.77 1650.19 1411.58 1651.31 Q1410.38 1652.44 1408.61 1652.21 Q1410.13 1655.69 1416.12 1655.69 Q1418.37 1655.69 1420.11 1655.11 Q1421.88 1654.5 1422.85 1653.66 Q1423.85 1652.79 1424.49 1651.73 Q1425.13 1650.67 1425.33 1649.86 Q1425.55 1649.06 1425.55 1648.45 Q1425.55 1647.38 1425.13 1646.58 Q1424.72 1645.77 1424.14 1645.32 Q1423.59 1644.84 1422.53 1644.45 Q1421.49 1644.03 1420.75 1643.87 Q1420.01 1643.71 1418.69 1643.45 Q1418.08 1643.33 1417.69 1643.26 Q1417.31 1643.17 1416.5 1642.91 Q1415.73 1642.62 1415.18 1642.33 Q1414.67 1642.04 1413.99 1641.52 Q1413.31 1641.01 1412.9 1640.4 Q1412.48 1639.78 1412.19 1638.88 Q1411.9 1637.98 1411.9 1636.92 Q1411.9 1635.95 1412.19 1634.79 Q1412.51 1633.63 1413.31 1632.28 Q1414.15 1630.93 1415.34 1629.83 Q1416.54 1628.74 1418.53 1628.03 Q1420.56 1627.29 1423.04 1627.29 Q1426.65 1627.29 1428.77 1628.96 Q1430.9 1630.6 1430.9 1632.96 Z" fill="#000000" fill-rule="nonzero" fill-opacity="1" /><polyline clip-path="url(#clip870)" style="stroke:#000000; stroke-linecap:round; stroke-linejoin:round; stroke-width:4; stroke-opacity:1; fill:none" points="172.42,1516.42 172.42,113.127 "/>
<polyline clip-path="url(#clip870)" style="stroke:#000000; stroke-linecap:round; stroke-linejoin:round; stroke-width:4; stroke-opacity:1; fill:none" points="172.42,1480.15 191.318,1480.15 "/>
<polyline clip-path="url(#clip870)" style="stroke:#000000; stroke-linecap:round; stroke-linejoin:round; stroke-width:4; stroke-opacity:1; fill:none" points="172.42,1078.96 191.318,1078.96 "/>
<polyline clip-path="url(#clip870)" style="stroke:#000000; stroke-linecap:round; stroke-linejoin:round; stroke-width:4; stroke-opacity:1; fill:none" points="172.42,677.776 191.318,677.776 "/>
<polyline clip-path="url(#clip870)" style="stroke:#000000; stroke-linecap:round; stroke-linejoin:round; stroke-width:4; stroke-opacity:1; fill:none" points="172.42,276.588 191.318,276.588 "/>
<path clip-path="url(#clip870)" d="M114.876 1465.95 Q111.265 1465.95 109.436 1469.52 Q107.631 1473.06 107.631 1480.19 Q107.631 1487.29 109.436 1490.86 Q111.265 1494.4 114.876 1494.4 Q118.51 1494.4 120.316 1490.86 Q122.145 1487.29 122.145 1480.19 Q122.145 1473.06 120.316 1469.52 Q118.51 1465.95 114.876 1465.95 M114.876 1462.25 Q120.686 1462.25 123.742 1466.85 Q126.82 1471.44 126.82 1480.19 Q126.82 1488.91 123.742 1493.52 Q120.686 1498.1 114.876 1498.1 Q109.066 1498.1 105.987 1493.52 Q102.932 1488.91 102.932 1480.19 Q102.932 1471.44 105.987 1466.85 Q109.066 1462.25 114.876 1462.25 Z" fill="#000000" fill-rule="nonzero" fill-opacity="1" /><path clip-path="url(#clip870)" d="M106.913 1092.31 L114.552 1092.31 L114.552 1065.94 L106.242 1067.61 L106.242 1063.35 L114.506 1061.68 L119.182 1061.68 L119.182 1092.31 L126.82 1092.31 L126.82 1096.24 L106.913 1096.24 L106.913 1092.31 Z" fill="#000000" fill-rule="nonzero" fill-opacity="1" /><path clip-path="url(#clip870)" d="M110.501 691.121 L126.82 691.121 L126.82 695.056 L104.876 695.056 L104.876 691.121 Q107.538 688.366 112.122 683.736 Q116.728 679.084 117.909 677.741 Q120.154 675.218 121.033 673.482 Q121.936 671.723 121.936 670.033 Q121.936 667.278 119.992 665.542 Q118.071 663.806 114.969 663.806 Q112.77 663.806 110.316 664.57 Q107.885 665.334 105.108 666.885 L105.108 662.162 Q107.932 661.028 110.385 660.449 Q112.839 659.871 114.876 659.871 Q120.246 659.871 123.441 662.556 Q126.635 665.241 126.635 669.732 Q126.635 671.861 125.825 673.783 Q125.038 675.681 122.932 678.273 Q122.353 678.945 119.251 682.162 Q116.149 685.357 110.501 691.121 Z" fill="#000000" fill-rule="nonzero" fill-opacity="1" /><path clip-path="url(#clip870)" d="M119.691 275.233 Q123.047 275.951 124.922 278.22 Q126.82 280.488 126.82 283.821 Q126.82 288.937 123.302 291.738 Q119.783 294.539 113.302 294.539 Q111.126 294.539 108.811 294.099 Q106.52 293.682 104.066 292.826 L104.066 288.312 Q106.01 289.446 108.325 290.025 Q110.64 290.604 113.163 290.604 Q117.561 290.604 119.853 288.868 Q122.168 287.132 122.168 283.821 Q122.168 280.766 120.015 279.053 Q117.885 277.317 114.066 277.317 L110.038 277.317 L110.038 273.474 L114.251 273.474 Q117.7 273.474 119.529 272.108 Q121.358 270.72 121.358 268.127 Q121.358 265.465 119.459 264.053 Q117.584 262.618 114.066 262.618 Q112.145 262.618 109.946 263.034 Q107.747 263.451 105.108 264.331 L105.108 260.164 Q107.77 259.423 110.084 259.053 Q112.422 258.683 114.483 258.683 Q119.807 258.683 122.908 261.113 Q126.01 263.521 126.01 267.641 Q126.01 270.511 124.367 272.502 Q122.723 274.47 119.691 275.233 Z" fill="#000000" fill-rule="nonzero" fill-opacity="1" /><path clip-path="url(#clip870)" d="M28.8517 838.32 Q29.0449 838.32 29.7857 838.577 L44.0207 843.795 Q44.858 844.084 45.019 844.374 Q45.1479 844.664 45.1479 845.856 L45.1479 876.387 Q45.1479 877.128 45.1157 877.418 Q45.0834 877.707 44.9224 877.933 Q44.7614 878.158 44.4071 878.158 Q43.763 878.158 43.4732 877.933 Q43.1833 877.675 43.1511 877.385 Q43.1189 877.095 43.1189 876.387 Q43.1189 874.777 43.0223 873.81 Q42.9257 872.844 42.7968 872.232 Q42.6358 871.588 42.1849 871.266 Q41.734 870.912 41.3476 870.751 Q40.9289 870.59 39.9949 870.364 L4.56848 861.54 Q3.50568 861.282 3.34465 861.282 Q2.73274 861.282 2.57171 861.669 Q2.37848 862.023 2.28186 863.054 L2.15304 865.566 Q2.15304 866.339 2.12083 866.661 Q2.08862 866.951 1.9276 867.176 Q1.76657 867.401 1.4123 867.401 Q0.80039 867.401 0.510538 867.176 Q0.188479 866.918 0.156273 866.725 Q0.0918614 866.5 0.0918614 866.145 L0.285097 857.385 L0.0918614 847.627 Q0.0918614 846.564 0.897008 846.564 Q1.79877 846.564 1.99201 847.015 Q2.15304 847.466 2.15304 849.076 Q2.15304 852.168 2.4751 853.585 Q2.79715 854.97 3.34465 855.357 Q3.85995 855.711 5.2448 856.065 L40.8645 864.986 Q42.0561 865.308 42.3782 865.308 Q42.7324 865.308 42.8612 865.147 Q42.9579 864.954 43.0223 864.439 Q43.1189 863.859 43.1189 862.989 L43.1189 856.806 Q43.1189 854.938 42.829 853.295 Q42.5392 851.653 42.1205 850.397 Q41.7018 849.109 40.9289 847.949 Q40.156 846.79 39.4796 845.985 Q38.7711 845.147 37.6761 844.342 Q36.5489 843.505 35.776 843.022 Q34.9708 842.506 33.6826 841.927 Q32.3621 841.347 31.6214 841.057 Q30.8485 840.735 29.528 840.252 Q28.8517 839.962 28.6585 839.865 Q28.4652 839.769 28.3042 839.608 Q28.1432 839.415 28.1432 839.125 Q28.1432 838.738 28.3686 838.545 Q28.594 838.32 28.8517 838.32 Z" fill="#000000" fill-rule="nonzero" fill-opacity="1" /><path clip-path="url(#clip870)" d="M28.6585 830.006 Q17.5152 830.006 8.5298 825.852 Q4.76171 824.081 1.60554 821.601 Q-1.55064 819.121 -2.93549 817.478 Q-4.32034 815.836 -4.32034 815.385 Q-4.32034 814.741 -3.67622 814.709 Q-3.35417 814.709 -2.54902 815.578 Q8.27215 826.206 28.6585 826.174 Q49.1092 826.174 59.5117 815.836 Q60.6389 814.709 60.9931 814.709 Q61.6373 814.709 61.6373 815.385 Q61.6373 815.836 60.3168 817.414 Q58.9964 818.992 55.969 821.44 Q52.9417 823.887 49.238 825.659 Q40.2526 830.006 28.6585 830.006 Z" fill="#000000" fill-rule="nonzero" fill-opacity="1" /><path clip-path="url(#clip870)" d="M21.6698 784.098 Q23.4733 784.098 24.4395 785 Q25.3735 785.901 25.3735 787.125 Q25.3735 788.124 24.7938 788.671 Q24.2141 789.186 23.4411 789.186 Q22.3139 789.186 21.4121 788.285 Q20.5104 787.351 20.4782 785.998 Q19.2866 786.449 18.578 787.64 Q17.8373 788.832 17.6441 789.895 Q17.4508 790.925 17.4508 791.956 Q17.4508 793.985 18.0949 795.531 Q18.7391 797.077 19.7374 797.85 Q20.7036 798.623 21.6376 798.977 Q22.5716 799.331 23.3767 799.331 Q24.0852 799.331 24.6649 799.17 Q25.2124 798.977 25.6311 798.526 Q26.0176 798.075 26.2752 797.753 Q26.5329 797.399 26.7583 796.626 Q26.9838 795.853 27.0804 795.531 Q27.1448 795.209 27.338 794.307 Q27.7245 792.439 27.9499 791.602 Q28.1432 790.764 28.6907 789.669 Q29.2382 788.542 30.1077 787.705 Q32.1367 785.676 34.9386 785.676 Q35.9692 785.676 37.2252 786.03 Q38.4812 786.352 40.0593 787.286 Q41.6374 788.22 42.8935 789.637 Q44.1495 791.054 45.019 793.502 Q45.8886 795.917 45.8886 798.945 Q45.8886 803.164 44.1173 805.772 Q42.3137 808.381 39.4796 808.381 Q37.4185 808.381 36.2912 807.254 Q35.1318 806.127 35.1318 804.677 Q35.1318 803.582 35.7437 802.906 Q36.3235 802.23 37.4185 802.23 Q38.8999 802.23 40.0271 803.421 Q41.1543 804.613 40.9289 806.384 Q44.4071 804.871 44.4071 798.88 Q44.4071 796.626 43.8274 794.887 Q43.2155 793.115 42.3782 792.149 Q41.5086 791.151 40.4458 790.507 Q39.383 789.863 38.5779 789.669 Q37.7727 789.444 37.1608 789.444 Q36.098 789.444 35.2929 789.863 Q34.4877 790.281 34.0368 790.861 Q33.5538 791.409 33.1673 792.471 Q32.7486 793.502 32.5876 794.243 Q32.4265 794.983 32.1689 796.304 Q32.0401 796.916 31.9757 797.302 Q31.879 797.689 31.6214 798.494 Q31.3315 799.267 31.0417 799.814 Q30.7518 800.33 30.2365 801.006 Q29.7213 801.682 29.1093 802.101 Q28.4974 802.52 27.5957 802.809 Q26.6939 803.099 25.6311 803.099 Q24.6649 803.099 23.5055 802.809 Q22.3461 802.487 20.9935 801.682 Q19.6408 800.845 18.5458 799.653 Q17.4508 798.462 16.7423 796.465 Q16.0016 794.436 16.0016 791.956 Q16.0016 788.349 17.6763 786.223 Q19.3188 784.098 21.6698 784.098 Z" fill="#000000" fill-rule="nonzero" fill-opacity="1" /><path clip-path="url(#clip870)" d="M60.9931 776.71 Q60.6711 776.71 59.8659 775.872 Q49.0448 765.245 28.6585 765.245 Q8.20774 765.245 -2.13034 775.454 Q-3.32196 776.71 -3.67622 776.71 Q-4.32034 776.71 -4.32034 776.066 Q-4.32034 775.615 -2.9999 774.037 Q-1.67946 772.426 1.34789 770.011 Q4.37524 767.563 8.07892 765.76 Q17.0644 761.412 28.6585 761.412 Q39.8017 761.412 48.7871 765.567 Q52.5552 767.338 55.7114 769.818 Q58.8676 772.298 60.2524 773.94 Q61.6373 775.583 61.6373 776.066 Q61.6373 776.71 60.9931 776.71 Z" fill="#000000" fill-rule="nonzero" fill-opacity="1" /><path clip-path="url(#clip870)" d="M1242.93 22.0773 Q1242.93 24.3318 1241.5 25.7254 Q1240.11 27.119 1238.34 27.119 Q1237.07 27.119 1236.13 26.3402 Q1235.23 25.5614 1235.23 24.2088 Q1235.23 22.8152 1236.29 21.3395 Q1237.36 19.8639 1239.78 19.659 Q1238.18 18.1424 1235.64 18.1424 Q1234.37 18.1424 1233.3 18.9622 Q1232.28 19.741 1231.7 21.0116 Q1231.09 22.3233 1229.69 29.7423 Q1229.24 32.1607 1228.83 34.4971 Q1228.42 36.8335 1227.93 39.2928 L1234.9 39.2928 Q1235.8 39.2928 1236.17 39.3338 Q1236.54 39.3748 1236.83 39.5798 Q1237.15 39.7847 1237.15 40.2356 Q1237.15 41.3833 1236.62 41.6702 Q1236.13 41.9162 1234.65 41.9162 L1227.44 41.9162 L1222.4 68.5182 Q1222.28 69.297 1221.74 71.7564 Q1221.25 74.1747 1220.06 78.1507 Q1218.87 82.1676 1217.68 84.545 Q1217.03 85.8977 1216.17 87.1683 Q1215.35 88.48 1214.16 89.7916 Q1212.97 91.1033 1211.41 91.8821 Q1209.86 92.7019 1208.22 92.7019 Q1205.43 92.7019 1203.26 91.1443 Q1201.08 89.5867 1201.08 86.9224 Q1201.08 84.668 1202.48 83.2743 Q1203.91 81.8807 1205.67 81.8807 Q1206.95 81.8807 1207.85 82.6595 Q1208.79 83.4383 1208.79 84.7909 Q1208.79 85.3648 1208.59 86.0206 Q1208.38 86.6764 1207.93 87.4143 Q1207.48 88.1931 1206.49 88.7259 Q1205.51 89.2588 1204.16 89.3408 Q1205.76 90.8574 1208.22 90.8574 Q1209 90.8574 1209.69 90.5294 Q1210.39 90.2425 1210.96 89.5047 Q1211.58 88.7669 1212.03 88.0291 Q1212.48 87.3323 1212.93 85.9796 Q1213.38 84.668 1213.67 83.6842 Q1213.95 82.7005 1214.32 80.9379 Q1214.73 79.1754 1214.94 78.1097 Q1215.14 77.085 1215.51 75.0765 L1221.78 41.9162 L1216.25 41.9162 Q1215.27 41.9162 1214.86 41.8752 Q1214.49 41.8342 1214.2 41.6292 Q1213.91 41.3833 1213.91 40.8914 Q1213.91 40.1126 1214.24 39.7847 Q1214.61 39.4158 1215.02 39.3748 Q1215.43 39.2928 1216.41 39.2928 L1222.23 39.2928 Q1224.2 28.9226 1224.98 26.1353 Q1225.88 23.1841 1227.28 21.1346 Q1228.67 19.0441 1230.23 18.0604 Q1231.79 17.0767 1233.06 16.7078 Q1234.37 16.2979 1235.64 16.2979 Q1238.51 16.2979 1240.72 17.8555 Q1242.93 19.3721 1242.93 22.0773 Z" fill="#000000" fill-rule="nonzero" fill-opacity="1" /><path clip-path="url(#clip870)" d="M1254.24 54.4999 Q1254.24 40.3176 1259.52 28.8816 Q1261.78 24.0858 1264.93 20.0689 Q1268.09 16.0519 1270.18 14.2894 Q1272.27 12.5268 1272.85 12.5268 Q1273.66 12.5268 1273.71 13.3466 Q1273.71 13.7565 1272.6 14.7813 Q1259.07 28.5537 1259.11 54.4999 Q1259.11 80.5281 1272.27 93.7676 Q1273.71 95.2022 1273.71 95.6531 Q1273.71 96.4729 1272.85 96.4729 Q1272.27 96.4729 1270.26 94.7923 Q1268.25 93.1118 1265.14 89.2588 Q1262.02 85.4058 1259.77 80.692 Q1254.24 69.256 1254.24 54.4999 Z" fill="#000000" fill-rule="nonzero" fill-opacity="1" /><path clip-path="url(#clip870)" d="M1305.87 40.2356 Q1305.87 41.3833 1305.34 41.6702 Q1304.8 41.9162 1303.33 41.9162 L1295.46 41.9162 L1289.23 66.6737 Q1288.74 68.8461 1288.74 70.6906 Q1288.74 72.7401 1289.35 73.6419 Q1290.01 74.5436 1291.36 74.5436 Q1294.02 74.5436 1296.89 72.1253 Q1299.8 69.7069 1302.26 63.8044 Q1302.59 63.0256 1302.75 62.8617 Q1302.96 62.6567 1303.49 62.6567 Q1304.52 62.6567 1304.52 63.4765 Q1304.52 63.7634 1303.94 65.0751 Q1303.41 66.3868 1302.22 68.3133 Q1301.07 70.2397 1299.56 72.0433 Q1298.08 73.8468 1295.83 75.1585 Q1293.57 76.4291 1291.15 76.4291 Q1287.75 76.4291 1285.58 74.2567 Q1283.45 72.0843 1283.45 68.6822 Q1283.45 67.5754 1284.31 64.0504 Q1285.17 60.4843 1289.84 41.9162 L1282.42 41.9162 Q1281.4 41.9162 1280.99 41.8752 Q1280.62 41.8342 1280.33 41.6292 Q1280.09 41.3833 1280.09 40.8914 Q1280.09 40.1126 1280.41 39.7847 Q1280.74 39.4158 1281.15 39.3748 Q1281.6 39.2928 1282.63 39.2928 L1290.5 39.2928 L1293.78 25.9713 Q1294.11 24.6597 1294.92 23.9219 Q1295.79 23.1431 1296.28 23.0611 Q1296.77 22.9381 1297.14 22.9381 Q1298.24 22.9381 1298.9 23.553 Q1299.56 24.1268 1299.56 25.1925 Q1299.56 25.7664 1296.11 39.2928 L1303.49 39.2928 Q1304.43 39.2928 1304.8 39.3338 Q1305.21 39.3748 1305.54 39.5798 Q1305.87 39.7847 1305.87 40.2356 Z" fill="#000000" fill-rule="nonzero" fill-opacity="1" /><path clip-path="url(#clip870)" d="M1312.44 95.6531 Q1312.44 95.2432 1313.51 94.2185 Q1327.03 80.4461 1327.03 54.4999 Q1327.03 28.4717 1314.04 15.3141 Q1312.44 13.7975 1312.44 13.3466 Q1312.44 12.5268 1313.26 12.5268 Q1313.83 12.5268 1315.84 14.2074 Q1317.89 15.888 1320.97 19.741 Q1324.08 23.5939 1326.38 28.3077 Q1331.91 39.7437 1331.91 54.4999 Q1331.91 68.6822 1326.62 80.1182 Q1324.37 84.9139 1321.21 88.9309 Q1318.06 92.9478 1315.97 94.7103 Q1313.88 96.4729 1313.26 96.4729 Q1312.44 96.4729 1312.44 95.6531 Z" fill="#000000" fill-rule="nonzero" fill-opacity="1" /><path clip-path="url(#clip870)" d="M1367.97 62.7387 Q1368.05 61.714 1369.65 61.714 L1421.09 61.714 Q1423.51 61.714 1423.55 62.6567 Q1423.55 63.6815 1421.25 63.6405 L1370.22 63.6405 Q1367.97 63.6815 1367.97 62.7387 M1367.97 46.343 Q1367.97 45.3183 1369.73 45.3593 L1421.01 45.3593 Q1423.51 45.3593 1423.55 46.343 Q1423.55 47.2858 1421.42 47.2858 L1369.65 47.2858 Q1367.97 47.2858 1367.97 46.343 Z" fill="#000000" fill-rule="nonzero" fill-opacity="1" /><path clip-path="url(#clip870)" d="M1481.71 40.2356 Q1481.71 41.3833 1481.18 41.6702 Q1480.65 41.9162 1479.17 41.9162 L1471.3 41.9162 L1465.07 66.6737 Q1464.58 68.8461 1464.58 70.6906 Q1464.58 72.7401 1465.2 73.6419 Q1465.85 74.5436 1467.2 74.5436 Q1469.87 74.5436 1472.74 72.1253 Q1475.65 69.7069 1478.11 63.8044 Q1478.43 63.0256 1478.6 62.8617 Q1478.8 62.6567 1479.34 62.6567 Q1480.36 62.6567 1480.36 63.4765 Q1480.36 63.7634 1479.79 65.0751 Q1479.25 66.3868 1478.07 68.3133 Q1476.92 70.2397 1475.4 72.0433 Q1473.93 73.8468 1471.67 75.1585 Q1469.42 76.4291 1467 76.4291 Q1463.6 76.4291 1461.42 74.2567 Q1459.29 72.0843 1459.29 68.6822 Q1459.29 67.5754 1460.15 64.0504 Q1461.01 60.4843 1465.69 41.9162 L1458.27 41.9162 Q1457.24 41.9162 1456.83 41.8752 Q1456.46 41.8342 1456.18 41.6292 Q1455.93 41.3833 1455.93 40.8914 Q1455.93 40.1126 1456.26 39.7847 Q1456.59 39.4158 1457 39.3748 Q1457.45 39.2928 1458.47 39.2928 L1466.34 39.2928 L1469.62 25.9713 Q1469.95 24.6597 1470.77 23.9219 Q1471.63 23.1431 1472.12 23.0611 Q1472.61 22.9381 1472.98 22.9381 Q1474.09 22.9381 1474.75 23.553 Q1475.4 24.1268 1475.4 25.1925 Q1475.4 25.7664 1471.96 39.2928 L1479.34 39.2928 Q1480.28 39.2928 1480.65 39.3338 Q1481.06 39.3748 1481.39 39.5798 Q1481.71 39.7847 1481.71 40.2356 Z" fill="#000000" fill-rule="nonzero" fill-opacity="1" /><path clip-path="url(#clip870)" d="M1528.96 65.7719 Q1529.28 66.1408 1529.28 66.5097 Q1529.28 66.8786 1528.46 67.9443 Q1527.69 69.0101 1526 70.4447 Q1524.32 71.8793 1522.15 73.232 Q1519.98 74.5846 1516.78 75.4864 Q1513.58 76.4291 1510.22 76.4291 Q1504.2 76.4291 1500.59 72.1253 Q1497.03 67.8214 1497.03 61.2221 Q1497.03 57.0002 1498.42 53.2702 Q1499.81 49.4992 1502.07 46.8349 Q1504.36 44.1706 1507.23 42.2441 Q1510.14 40.2766 1513.17 39.3338 Q1516.21 38.3911 1519.04 38.3911 Q1523.18 38.3911 1525.59 40.4815 Q1528.01 42.572 1528.01 45.5232 Q1528.01 46.22 1527.81 47.0808 Q1527.64 47.9416 1527.07 49.2942 Q1526.54 50.6469 1525.14 51.9995 Q1523.75 53.3112 1521.7 54.172 Q1517.15 56.0984 1508.87 56.0984 L1504.4 56.0984 Q1503.09 61.3861 1503.09 64.8292 Q1503.09 66.1818 1503.34 67.5754 Q1503.58 68.9281 1504.24 70.6496 Q1504.94 72.3712 1506.49 73.4779 Q1508.09 74.5436 1510.39 74.5436 Q1511.13 74.5436 1511.9 74.5026 Q1512.72 74.4616 1514.77 74.0108 Q1516.86 73.5599 1518.71 72.7811 Q1520.55 72.0023 1522.89 70.3217 Q1525.27 68.6002 1527.15 66.2638 Q1527.81 65.403 1528.26 65.403 Q1528.63 65.403 1528.96 65.7719 M1525.23 45.5232 Q1525.23 43.2688 1523.55 41.7522 Q1521.91 40.2356 1519.04 40.2356 Q1518.13 40.2356 1517.03 40.4405 Q1515.92 40.6455 1514.08 41.5063 Q1512.27 42.367 1510.67 43.8017 Q1509.08 45.1953 1507.48 47.9416 Q1505.88 50.6469 1504.94 54.2539 L1508.38 54.2539 Q1509.57 54.2539 1510.43 54.2539 Q1511.29 54.2129 1513.17 54.049 Q1515.1 53.885 1516.5 53.5981 Q1517.89 53.2702 1519.65 52.6144 Q1521.41 51.9585 1522.52 51.0978 Q1523.67 50.196 1524.45 48.7614 Q1525.23 47.3267 1525.23 45.5232 Z" fill="#000000" fill-rule="nonzero" fill-opacity="1" /><path clip-path="url(#clip870)" d="M1576.72 33.5102 Q1577.07 33.8545 1577.07 34.3423 Q1577.07 34.83 1576.72 35.1744 Q1576.38 35.5187 1575.89 35.5187 L1539.11 35.5187 Q1538.62 35.5187 1538.27 35.1744 Q1537.93 34.83 1537.93 34.3423 Q1537.93 33.8545 1538.27 33.5102 Q1538.62 33.1659 1539.11 33.1659 L1575.89 33.1659 Q1576.38 33.1659 1576.72 33.5102 Z" fill="#000000" fill-rule="nonzero" fill-opacity="1" /><path clip-path="url(#clip870)" d="M1610.11 40.6259 Q1609.34 44.3273 1608.33 46.4505 Q1606.73 49.6928 1604 49.6928 Q1601.94 49.6928 1600.47 48.4303 Q1599.01 47.1678 1598.66 45.2741 Q1594.91 49.6928 1591 49.6928 Q1587.56 49.6928 1585.38 47.0817 Q1583.2 44.442 1583.2 40.2816 Q1583.2 36.0925 1585.27 32.0756 Q1587.36 28.0586 1590.66 25.5624 Q1593.96 23.0661 1597.35 23.0661 Q1600.93 23.0661 1602.77 26.8248 Q1602.91 25.7919 1603.57 25.0172 Q1604.23 24.2425 1605.24 24.2425 Q1606.01 24.2425 1606.47 24.6729 Q1606.93 25.0746 1606.93 25.8206 Q1606.93 26.1936 1606.53 27.8291 L1604.4 36.0351 L1603.11 41.3432 Q1602.62 43.2943 1602.48 44.0116 Q1602.37 44.729 1602.37 45.6758 Q1602.37 48.3729 1604.12 48.3729 Q1604.98 48.3729 1605.67 47.8277 Q1606.35 47.2826 1606.9 46.1349 Q1607.44 44.9872 1607.79 43.9256 Q1608.13 42.8353 1608.59 41.1137 Q1608.74 40.4251 1608.85 40.2529 Q1608.99 40.0521 1609.4 40.0521 Q1610.11 40.0521 1610.11 40.6259 M1602.05 29.5219 Q1602.05 29.2637 1601.85 28.5464 Q1601.65 27.8291 1601.19 26.8248 Q1600.73 25.8206 1599.73 25.1033 Q1598.75 24.3573 1597.43 24.3573 Q1595.65 24.3573 1593.79 25.878 Q1591.95 27.3987 1590.6 29.981 Q1589.57 32.0469 1588.45 36.3794 Q1587.36 40.712 1587.36 42.8639 Q1587.36 44.1838 1587.65 45.3602 Q1587.96 46.5079 1588.85 47.4547 Q1589.74 48.3729 1591.12 48.3729 Q1594.48 48.3729 1597.78 44.2125 Q1598.41 43.4952 1598.55 43.2083 Q1598.72 42.8926 1598.95 42.0319 L1601.88 30.5262 Q1602.05 29.6654 1602.05 29.5219 Z" fill="#000000" fill-rule="nonzero" fill-opacity="1" /><path clip-path="url(#clip870)" d="M1630.85 24.3573 Q1630.85 25.1607 1630.48 25.3615 Q1630.1 25.5337 1629.07 25.5337 L1623.56 25.5337 L1619.2 42.8639 Q1618.86 44.3846 1618.86 45.6758 Q1618.86 47.1104 1619.29 47.7417 Q1619.74 48.3729 1620.69 48.3729 Q1622.56 48.3729 1624.57 46.68 Q1626.6 44.9872 1628.32 40.8555 Q1628.55 40.3103 1628.67 40.1955 Q1628.81 40.0521 1629.18 40.0521 Q1629.9 40.0521 1629.9 40.6259 Q1629.9 40.8268 1629.5 41.7449 Q1629.13 42.6631 1628.3 44.0116 Q1627.49 45.3602 1626.43 46.6227 Q1625.4 47.8851 1623.82 48.8033 Q1622.24 49.6928 1620.55 49.6928 Q1618.17 49.6928 1616.65 48.1721 Q1615.15 46.6514 1615.15 44.2699 Q1615.15 43.4952 1615.76 41.0276 Q1616.36 38.5314 1619.63 25.5337 L1614.44 25.5337 Q1613.72 25.5337 1613.43 25.505 Q1613.17 25.4763 1612.97 25.3328 Q1612.8 25.1607 1612.8 24.8164 Q1612.8 24.2712 1613.03 24.0417 Q1613.26 23.7834 1613.55 23.7547 Q1613.86 23.6974 1614.58 23.6974 L1620.09 23.6974 L1622.38 14.3723 Q1622.61 13.4541 1623.19 12.9377 Q1623.79 12.3925 1624.13 12.3351 Q1624.48 12.2491 1624.74 12.2491 Q1625.51 12.2491 1625.97 12.6794 Q1626.43 13.0811 1626.43 13.8271 Q1626.43 14.2288 1624.02 23.6974 L1629.18 23.6974 Q1629.84 23.6974 1630.1 23.7261 Q1630.39 23.7547 1630.62 23.8982 Q1630.85 24.0417 1630.85 24.3573 Z" fill="#000000" fill-rule="nonzero" fill-opacity="1" /><polyline clip-path="url(#clip872)" style="stroke:#009af9; stroke-linecap:round; stroke-linejoin:round; stroke-width:8; stroke-opacity:1; fill:none" points="243.147,152.843 261.71,426.493 280.274,630.615 298.837,785.042 317.401,903.525 335.964,995.696 354.527,1068.36 373.091,1126.4 391.654,1173.32 410.218,1211.68 428.781,1243.4 447.345,1269.88 465.908,1292.2 484.471,1311.17 503.035,1327.42 521.598,1341.45 540.162,1353.63 558.725,1364.28 577.288,1373.64 595.852,1381.92 614.415,1389.27 632.979,1395.82 651.542,1401.69 670.105,1406.97 688.669,1411.73 707.232,1416.05 725.796,1419.96 744.359,1423.54 762.922,1426.8 781.486,1429.79 800.049,1432.53 818.613,1435.06 837.176,1437.39 855.739,1439.55 874.303,1441.54 892.866,1443.4 911.43,1445.12 929.993,1446.72 948.556,1448.22 967.12,1449.62 985.683,1450.93 1004.25,1452.16 1022.81,1453.31 1041.37,1454.39 1059.94,1455.41 1078.5,1456.37 1097.06,1457.27 1115.63,1458.13 1134.19,1458.94 1152.75,1459.7 1171.32,1460.42 1189.88,1461.11 1208.44,1461.76 1227.01,1462.38 1245.57,1462.97 1264.13,1463.53 1282.7,1464.06 1301.26,1464.57 1319.82,1465.05 1338.39,1465.51 1356.95,1465.95 1375.51,1466.37 1394.08,1466.78 1412.64,1467.16 1431.2,1467.53 1449.77,1467.89 1468.33,1468.23 1486.9,1468.55 1505.46,1468.86 1524.02,1469.17 1542.59,1469.45 1561.15,1469.73 1579.71,1470 1598.28,1470.25 1616.84,1470.5 1635.4,1470.74 1653.97,1470.97 1672.53,1471.19 1691.09,1471.4 1709.66,1471.61 1728.22,1471.81 1746.78,1472 1765.35,1472.19 1783.91,1472.37 1802.47,1472.54 1821.04,1472.71 1839.6,1472.87 1858.16,1473.03 1876.73,1473.18 1895.29,1473.33 1913.85,1473.47 1932.42,1473.61 1950.98,1473.74 1969.54,1473.87 1988.11,1474 2006.67,1474.12 2025.23,1474.24 2043.8,1474.35 2062.36,1474.47 2080.92,1474.58 2099.49,1474.68 2118.05,1474.79 2136.61,1474.89 2155.18,1474.98 2173.74,1475.08 2192.3,1475.17 2210.87,1475.26 2229.43,1475.35 2247.99,1475.43 2266.56,1475.52 2285.12,1475.6 2303.68,1475.67 2322.25,1475.75 2340.81,1475.83 2359.38,1475.9 2377.94,1475.97 2396.5,1476.04 2415.07,1476.11 2433.63,1476.17 2452.19,1476.24 2470.76,1476.3 2489.32,1476.36 2507.88,1476.42 2526.45,1476.48 2545.01,1476.54 2563.57,1476.6 2582.14,1476.65 2600.7,1476.7 "/>
<polyline clip-path="url(#clip872)" style="stroke:#e26f46; stroke-linecap:round; stroke-linejoin:round; stroke-width:8; stroke-opacity:1; fill:none" stroke-dasharray="32, 20" points="243.147,152.843 261.71,426.493 280.274,630.615 298.837,785.042 317.401,903.525 335.964,995.696 354.527,1068.36 373.091,1126.4 391.654,1173.32 410.218,1211.68 428.781,1243.4 447.345,1269.88 465.908,1292.2 484.471,1311.17 503.035,1327.42 521.598,1341.45 540.162,1353.63 558.725,1364.28 577.288,1373.64 595.852,1381.92 614.415,1389.27 632.979,1395.82 651.542,1401.69 670.105,1406.97 688.669,1411.73 707.232,1416.05 725.796,1419.96 744.359,1423.54 762.922,1426.8 781.486,1429.79 800.049,1432.53 818.613,1435.06 837.176,1437.39 855.739,1439.55 874.303,1441.54 892.866,1443.4 911.43,1445.12 929.993,1446.72 948.556,1448.22 967.12,1449.62 985.683,1450.93 1004.25,1452.16 1022.81,1453.31 1041.37,1454.39 1059.94,1455.41 1078.5,1456.37 1097.06,1457.27 1115.63,1458.13 1134.19,1458.94 1152.75,1459.7 1171.32,1460.42 1189.88,1461.11 1208.44,1461.76 1227.01,1462.38 1245.57,1462.97 1264.13,1463.53 1282.7,1464.06 1301.26,1464.57 1319.82,1465.05 1338.39,1465.51 1356.95,1465.95 1375.51,1466.37 1394.08,1466.78 1412.64,1467.16 1431.2,1467.53 1449.77,1467.89 1468.33,1468.23 1486.9,1468.55 1505.46,1468.86 1524.02,1469.17 1542.59,1469.45 1561.15,1469.73 1579.71,1470 1598.28,1470.25 1616.84,1470.5 1635.4,1470.74 1653.97,1470.97 1672.53,1471.19 1691.09,1471.4 1709.66,1471.61 1728.22,1471.81 1746.78,1472 1765.35,1472.19 1783.91,1472.37 1802.47,1472.54 1821.04,1472.71 1839.6,1472.87 1858.16,1473.03 1876.73,1473.18 1895.29,1473.33 1913.85,1473.47 1932.42,1473.61 1950.98,1473.74 1969.54,1473.87 1988.11,1474 2006.67,1474.12 2025.23,1474.24 2043.8,1474.35 2062.36,1474.47 2080.92,1474.58 2099.49,1474.68 2118.05,1474.79 2136.61,1474.89 2155.18,1474.98 2173.74,1475.08 2192.3,1475.17 2210.87,1475.26 2229.43,1475.35 2247.99,1475.43 2266.56,1475.52 2285.12,1475.6 2303.68,1475.67 2322.25,1475.75 2340.81,1475.83 2359.38,1475.9 2377.94,1475.97 2396.5,1476.04 2415.07,1476.11 2433.63,1476.17 2452.19,1476.24 2470.76,1476.3 2489.32,1476.36 2507.88,1476.42 2526.45,1476.48 2545.01,1476.54 2563.57,1476.6 2582.14,1476.65 2600.7,1476.7 "/>
<path clip-path="url(#clip870)" d="M255.721 315.423 L939.994 315.423 L939.994 159.903 L255.721 159.903  Z" fill="#ffffff" fill-rule="evenodd" fill-opacity="1"/>
<polyline clip-path="url(#clip870)" style="stroke:#000000; stroke-linecap:round; stroke-linejoin:round; stroke-width:4; stroke-opacity:1; fill:none" points="255.721,315.423 939.994,315.423 939.994,159.903 255.721,159.903 255.721,315.423 "/>
<polyline clip-path="url(#clip870)" style="stroke:#009af9; stroke-linecap:round; stroke-linejoin:round; stroke-width:8; stroke-opacity:1; fill:none" points="283.487,211.743 450.088,211.743 "/>
<path clip-path="url(#clip870)" d="M493.688 199.07 L487.345 216.269 L500.053 216.269 L493.688 199.07 M491.049 194.463 L496.35 194.463 L509.521 229.023 L504.66 229.023 L501.512 220.158 L485.933 220.158 L482.785 229.023 L477.855 229.023 L491.049 194.463 Z" fill="#000000" fill-rule="nonzero" fill-opacity="1" /><path clip-path="url(#clip870)" d="M535.933 213.375 L535.933 229.023 L531.674 229.023 L531.674 213.514 Q531.674 209.834 530.238 208.005 Q528.803 206.176 525.933 206.176 Q522.484 206.176 520.493 208.375 Q518.502 210.574 518.502 214.371 L518.502 229.023 L514.22 229.023 L514.22 203.098 L518.502 203.098 L518.502 207.125 Q520.03 204.787 522.09 203.63 Q524.174 202.473 526.882 202.473 Q531.35 202.473 533.641 205.25 Q535.933 208.005 535.933 213.375 Z" fill="#000000" fill-rule="nonzero" fill-opacity="1" /><path clip-path="url(#clip870)" d="M556.211 215.991 Q551.049 215.991 549.058 217.172 Q547.067 218.352 547.067 221.199 Q547.067 223.468 548.549 224.81 Q550.053 226.13 552.623 226.13 Q556.164 226.13 558.294 223.63 Q560.447 221.107 560.447 216.94 L560.447 215.991 L556.211 215.991 M564.706 214.232 L564.706 229.023 L560.447 229.023 L560.447 225.088 Q558.988 227.449 556.812 228.583 Q554.637 229.695 551.488 229.695 Q547.507 229.695 545.146 227.472 Q542.808 225.227 542.808 221.477 Q542.808 217.102 545.725 214.88 Q548.664 212.658 554.474 212.658 L560.447 212.658 L560.447 212.241 Q560.447 209.301 558.502 207.704 Q556.581 206.084 553.086 206.084 Q550.863 206.084 548.757 206.616 Q546.65 207.148 544.706 208.213 L544.706 204.278 Q547.044 203.375 549.243 202.935 Q551.442 202.473 553.525 202.473 Q559.15 202.473 561.928 205.389 Q564.706 208.306 564.706 214.232 Z" fill="#000000" fill-rule="nonzero" fill-opacity="1" /><path clip-path="url(#clip870)" d="M573.479 193.005 L577.738 193.005 L577.738 229.023 L573.479 229.023 L573.479 193.005 Z" fill="#000000" fill-rule="nonzero" fill-opacity="1" /><path clip-path="url(#clip870)" d="M597.437 231.431 Q595.632 236.06 593.919 237.472 Q592.206 238.884 589.335 238.884 L585.933 238.884 L585.933 235.32 L588.433 235.32 Q590.192 235.32 591.164 234.486 Q592.136 233.653 593.317 230.551 L594.081 228.607 L583.595 203.098 L588.109 203.098 L596.21 223.375 L604.312 203.098 L608.826 203.098 L597.437 231.431 Z" fill="#000000" fill-rule="nonzero" fill-opacity="1" /><path clip-path="url(#clip870)" d="M618.919 195.736 L618.919 203.098 L627.692 203.098 L627.692 206.408 L618.919 206.408 L618.919 220.482 Q618.919 223.653 619.775 224.556 Q620.655 225.458 623.317 225.458 L627.692 225.458 L627.692 229.023 L623.317 229.023 Q618.386 229.023 616.511 227.195 Q614.636 225.343 614.636 220.482 L614.636 206.408 L611.511 206.408 L611.511 203.098 L614.636 203.098 L614.636 195.736 L618.919 195.736 Z" fill="#000000" fill-rule="nonzero" fill-opacity="1" /><path clip-path="url(#clip870)" d="M633.293 203.098 L637.553 203.098 L637.553 229.023 L633.293 229.023 L633.293 203.098 M633.293 193.005 L637.553 193.005 L637.553 198.398 L633.293 198.398 L633.293 193.005 Z" fill="#000000" fill-rule="nonzero" fill-opacity="1" /><path clip-path="url(#clip870)" d="M665.122 204.093 L665.122 208.074 Q663.316 207.079 661.488 206.593 Q659.682 206.084 657.83 206.084 Q653.687 206.084 651.395 208.722 Q649.104 211.338 649.104 216.084 Q649.104 220.829 651.395 223.468 Q653.687 226.083 657.83 226.083 Q659.682 226.083 661.488 225.597 Q663.316 225.088 665.122 224.093 L665.122 228.028 Q663.34 228.861 661.418 229.278 Q659.52 229.695 657.367 229.695 Q651.511 229.695 648.062 226.014 Q644.613 222.334 644.613 216.084 Q644.613 209.741 648.085 206.107 Q651.58 202.473 657.645 202.473 Q659.613 202.473 661.488 202.889 Q663.363 203.283 665.122 204.093 Z" fill="#000000" fill-rule="nonzero" fill-opacity="1" /><path clip-path="url(#clip870)" d="M684.312 215.991 Q679.15 215.991 677.159 217.172 Q675.168 218.352 675.168 221.199 Q675.168 223.468 676.65 224.81 Q678.154 226.13 680.724 226.13 Q684.265 226.13 686.395 223.63 Q688.548 221.107 688.548 216.94 L688.548 215.991 L684.312 215.991 M692.807 214.232 L692.807 229.023 L688.548 229.023 L688.548 225.088 Q687.089 227.449 684.914 228.583 Q682.738 229.695 679.59 229.695 Q675.608 229.695 673.247 227.472 Q670.909 225.227 670.909 221.477 Q670.909 217.102 673.826 214.88 Q676.765 212.658 682.576 212.658 L688.548 212.658 L688.548 212.241 Q688.548 209.301 686.603 207.704 Q684.682 206.084 681.187 206.084 Q678.965 206.084 676.858 206.616 Q674.752 207.148 672.807 208.213 L672.807 204.278 Q675.145 203.375 677.344 202.935 Q679.543 202.473 681.627 202.473 Q687.252 202.473 690.029 205.389 Q692.807 208.306 692.807 214.232 Z" fill="#000000" fill-rule="nonzero" fill-opacity="1" /><path clip-path="url(#clip870)" d="M701.58 193.005 L705.839 193.005 L705.839 229.023 L701.58 229.023 L701.58 193.005 Z" fill="#000000" fill-rule="nonzero" fill-opacity="1" /><path clip-path="url(#clip870)" d="M746.881 207.033 L746.881 193.005 L751.14 193.005 L751.14 229.023 L746.881 229.023 L746.881 225.134 Q745.538 227.449 743.478 228.583 Q741.441 229.695 738.571 229.695 Q733.872 229.695 730.909 225.945 Q727.969 222.195 727.969 216.084 Q727.969 209.972 730.909 206.222 Q733.872 202.473 738.571 202.473 Q741.441 202.473 743.478 203.607 Q745.538 204.718 746.881 207.033 M732.367 216.084 Q732.367 220.783 734.288 223.468 Q736.233 226.13 739.612 226.13 Q742.992 226.13 744.936 223.468 Q746.881 220.783 746.881 216.084 Q746.881 211.385 744.936 208.722 Q742.992 206.037 739.612 206.037 Q736.233 206.037 734.288 208.722 Q732.367 211.385 732.367 216.084 Z" fill="#000000" fill-rule="nonzero" fill-opacity="1" /><path clip-path="url(#clip870)" d="M759.913 203.098 L764.172 203.098 L764.172 229.023 L759.913 229.023 L759.913 203.098 M759.913 193.005 L764.172 193.005 L764.172 198.398 L759.913 198.398 L759.913 193.005 Z" fill="#000000" fill-rule="nonzero" fill-opacity="1" /><path clip-path="url(#clip870)" d="M789.612 203.861 L789.612 207.889 Q787.807 206.963 785.862 206.5 Q783.918 206.037 781.834 206.037 Q778.663 206.037 777.066 207.01 Q775.492 207.982 775.492 209.926 Q775.492 211.408 776.626 212.264 Q777.76 213.097 781.186 213.861 L782.645 214.185 Q787.182 215.158 789.08 216.94 Q791.001 218.699 791.001 221.871 Q791.001 225.482 788.131 227.588 Q785.283 229.695 780.283 229.695 Q778.2 229.695 775.932 229.278 Q773.686 228.884 771.186 228.074 L771.186 223.676 Q773.547 224.903 775.839 225.528 Q778.131 226.13 780.376 226.13 Q783.385 226.13 785.006 225.111 Q786.626 224.07 786.626 222.195 Q786.626 220.459 785.445 219.533 Q784.288 218.607 780.33 217.75 L778.848 217.403 Q774.89 216.57 773.131 214.857 Q771.371 213.121 771.371 210.111 Q771.371 206.454 773.964 204.463 Q776.557 202.473 781.325 202.473 Q783.686 202.473 785.77 202.82 Q787.853 203.167 789.612 203.861 Z" fill="#000000" fill-rule="nonzero" fill-opacity="1" /><path clip-path="url(#clip870)" d="M816.441 204.093 L816.441 208.074 Q814.635 207.079 812.806 206.593 Q811.001 206.084 809.149 206.084 Q805.006 206.084 802.714 208.722 Q800.422 211.338 800.422 216.084 Q800.422 220.829 802.714 223.468 Q805.006 226.083 809.149 226.083 Q811.001 226.083 812.806 225.597 Q814.635 225.088 816.441 224.093 L816.441 228.028 Q814.658 228.861 812.737 229.278 Q810.839 229.695 808.686 229.695 Q802.83 229.695 799.381 226.014 Q795.932 222.334 795.932 216.084 Q795.932 209.741 799.404 206.107 Q802.899 202.473 808.964 202.473 Q810.931 202.473 812.806 202.889 Q814.681 203.283 816.441 204.093 Z" fill="#000000" fill-rule="nonzero" fill-opacity="1" /><path clip-path="url(#clip870)" d="M838.871 207.079 Q838.154 206.662 837.297 206.477 Q836.464 206.269 835.445 206.269 Q831.834 206.269 829.89 208.63 Q827.968 210.968 827.968 215.366 L827.968 229.023 L823.686 229.023 L823.686 203.098 L827.968 203.098 L827.968 207.125 Q829.311 204.764 831.464 203.63 Q833.616 202.473 836.695 202.473 Q837.135 202.473 837.667 202.542 Q838.2 202.588 838.848 202.704 L838.871 207.079 Z" fill="#000000" fill-rule="nonzero" fill-opacity="1" /><path clip-path="url(#clip870)" d="M864.473 214.996 L864.473 217.079 L844.89 217.079 Q845.167 221.477 847.528 223.792 Q849.913 226.083 854.149 226.083 Q856.602 226.083 858.894 225.482 Q861.209 224.88 863.477 223.676 L863.477 227.704 Q861.186 228.676 858.778 229.185 Q856.371 229.695 853.894 229.695 Q847.69 229.695 844.056 226.083 Q840.445 222.472 840.445 216.315 Q840.445 209.949 843.871 206.222 Q847.32 202.473 853.153 202.473 Q858.385 202.473 861.417 205.852 Q864.473 209.209 864.473 214.996 M860.214 213.746 Q860.167 210.25 858.246 208.167 Q856.348 206.084 853.2 206.084 Q849.635 206.084 847.482 208.097 Q845.353 210.111 845.028 213.769 L860.214 213.746 Z" fill="#000000" fill-rule="nonzero" fill-opacity="1" /><path clip-path="url(#clip870)" d="M875.676 195.736 L875.676 203.098 L884.45 203.098 L884.45 206.408 L875.676 206.408 L875.676 220.482 Q875.676 223.653 876.533 224.556 Q877.413 225.458 880.075 225.458 L884.45 225.458 L884.45 229.023 L880.075 229.023 Q875.144 229.023 873.269 227.195 Q871.394 225.343 871.394 220.482 L871.394 206.408 L868.269 206.408 L868.269 203.098 L871.394 203.098 L871.394 195.736 L875.676 195.736 Z" fill="#000000" fill-rule="nonzero" fill-opacity="1" /><path clip-path="url(#clip870)" d="M912.227 214.996 L912.227 217.079 L892.644 217.079 Q892.922 221.477 895.283 223.792 Q897.667 226.083 901.903 226.083 Q904.357 226.083 906.649 225.482 Q908.963 224.88 911.232 223.676 L911.232 227.704 Q908.94 228.676 906.533 229.185 Q904.125 229.695 901.649 229.695 Q895.445 229.695 891.811 226.083 Q888.2 222.472 888.2 216.315 Q888.2 209.949 891.625 206.222 Q895.074 202.473 900.908 202.473 Q906.139 202.473 909.172 205.852 Q912.227 209.209 912.227 214.996 M907.968 213.746 Q907.922 210.25 906 208.167 Q904.102 206.084 900.954 206.084 Q897.389 206.084 895.237 208.097 Q893.107 210.111 892.783 213.769 L907.968 213.746 Z" fill="#000000" fill-rule="nonzero" fill-opacity="1" /><polyline clip-path="url(#clip870)" style="stroke:#e26f46; stroke-linecap:round; stroke-linejoin:round; stroke-width:8; stroke-opacity:1; fill:none" stroke-dasharray="32, 20" points="283.487,263.583 450.088,263.583 "/>
<path clip-path="url(#clip870)" d="M477.855 246.303 L484.822 246.303 L493.641 269.822 L502.507 246.303 L509.475 246.303 L509.475 280.863 L504.915 280.863 L504.915 250.516 L496.003 274.22 L491.304 274.22 L482.392 250.516 L482.392 280.863 L477.855 280.863 L477.855 246.303 Z" fill="#000000" fill-rule="nonzero" fill-opacity="1" /><path clip-path="url(#clip870)" d="M523.433 250.146 L523.433 263.132 L529.313 263.132 Q532.576 263.132 534.359 261.442 Q536.141 259.752 536.141 256.627 Q536.141 253.525 534.359 251.836 Q532.576 250.146 529.313 250.146 L523.433 250.146 M518.757 246.303 L529.313 246.303 Q535.123 246.303 538.086 248.942 Q541.072 251.558 541.072 256.627 Q541.072 261.743 538.086 264.359 Q535.123 266.974 529.313 266.974 L523.433 266.974 L523.433 280.863 L518.757 280.863 L518.757 246.303 Z" fill="#000000" fill-rule="nonzero" fill-opacity="1" /><path clip-path="url(#clip870)" d="M568.062 247.438 L568.062 251.998 Q565.4 250.725 563.039 250.1 Q560.678 249.475 558.479 249.475 Q554.66 249.475 552.576 250.956 Q550.516 252.438 550.516 255.169 Q550.516 257.461 551.882 258.641 Q553.271 259.799 557.113 260.516 L559.937 261.095 Q565.169 262.09 567.646 264.613 Q570.146 267.113 570.146 271.326 Q570.146 276.349 566.766 278.942 Q563.41 281.535 556.905 281.535 Q554.451 281.535 551.674 280.979 Q548.919 280.423 545.956 279.336 L545.956 274.521 Q548.803 276.118 551.535 276.928 Q554.266 277.738 556.905 277.738 Q560.91 277.738 563.086 276.164 Q565.261 274.59 565.261 271.674 Q565.261 269.127 563.687 267.692 Q562.136 266.257 558.572 265.539 L555.724 264.984 Q550.493 263.942 548.155 261.72 Q545.817 259.498 545.817 255.539 Q545.817 250.956 549.035 248.317 Q552.275 245.678 557.947 245.678 Q560.377 245.678 562.9 246.118 Q565.423 246.558 568.062 247.438 Z" fill="#000000" fill-rule="nonzero" fill-opacity="1" /><polyline clip-path="url(#clip870)" style="stroke:#000000; stroke-linecap:round; stroke-linejoin:round; stroke-width:4; stroke-opacity:1; fill:none" points="2671.43,1516.42 2671.43,113.127 "/>
<polyline clip-path="url(#clip870)" style="stroke:#000000; stroke-linecap:round; stroke-linejoin:round; stroke-width:4; stroke-opacity:1; fill:none" points="2671.43,1516.42 2652.53,1516.42 "/>
<polyline clip-path="url(#clip870)" style="stroke:#000000; stroke-linecap:round; stroke-linejoin:round; stroke-width:4; stroke-opacity:1; fill:none" points="2671.43,1232.92 2652.53,1232.92 "/>
<polyline clip-path="url(#clip870)" style="stroke:#000000; stroke-linecap:round; stroke-linejoin:round; stroke-width:4; stroke-opacity:1; fill:none" points="2671.43,949.429 2652.53,949.429 "/>
<polyline clip-path="url(#clip870)" style="stroke:#000000; stroke-linecap:round; stroke-linejoin:round; stroke-width:4; stroke-opacity:1; fill:none" points="2671.43,665.934 2652.53,665.934 "/>
<polyline clip-path="url(#clip870)" style="stroke:#000000; stroke-linecap:round; stroke-linejoin:round; stroke-width:4; stroke-opacity:1; fill:none" points="2671.43,382.438 2652.53,382.438 "/>
<path clip-path="url(#clip870)" d="M2728.97 1502.22 Q2725.36 1502.22 2723.53 1505.78 Q2721.73 1509.32 2721.73 1516.45 Q2721.73 1523.56 2723.53 1527.13 Q2725.36 1530.67 2728.97 1530.67 Q2732.6 1530.67 2734.41 1527.13 Q2736.24 1523.56 2736.24 1516.45 Q2736.24 1509.32 2734.41 1505.78 Q2732.6 1502.22 2728.97 1502.22 M2728.97 1498.51 Q2734.78 1498.51 2737.84 1503.12 Q2740.91 1507.7 2740.91 1516.45 Q2740.91 1525.18 2737.84 1529.79 Q2734.78 1534.37 2728.97 1534.37 Q2723.16 1534.37 2720.08 1529.79 Q2717.03 1525.18 2717.03 1516.45 Q2717.03 1507.7 2720.08 1503.12 Q2723.16 1498.51 2728.97 1498.51 Z" fill="#000000" fill-rule="nonzero" fill-opacity="1" /><path clip-path="url(#clip870)" d="M2722.65 1252.72 L2738.97 1252.72 L2738.97 1256.65 L2717.03 1256.65 L2717.03 1252.72 Q2719.69 1249.96 2724.27 1245.33 Q2728.88 1240.68 2730.06 1239.34 Q2732.3 1236.81 2733.18 1235.08 Q2734.09 1233.32 2734.09 1231.63 Q2734.09 1228.87 2732.14 1227.14 Q2730.22 1225.4 2727.12 1225.4 Q2724.92 1225.4 2722.47 1226.17 Q2720.04 1226.93 2717.26 1228.48 L2717.26 1223.76 Q2720.08 1222.62 2722.54 1222.05 Q2724.99 1221.47 2727.03 1221.47 Q2732.4 1221.47 2735.59 1224.15 Q2738.79 1226.84 2738.79 1231.33 Q2738.79 1233.46 2737.98 1235.38 Q2737.19 1237.28 2735.08 1239.87 Q2734.5 1240.54 2731.4 1243.76 Q2728.3 1246.95 2722.65 1252.72 Z" fill="#000000" fill-rule="nonzero" fill-opacity="1" /><path clip-path="url(#clip870)" d="M2748.79 1250.77 L2753.67 1250.77 L2753.67 1256.65 L2748.79 1256.65 L2748.79 1250.77 Z" fill="#000000" fill-rule="nonzero" fill-opacity="1" /><path clip-path="url(#clip870)" d="M2773.85 1225.17 Q2770.24 1225.17 2768.41 1228.74 Q2766.61 1232.28 2766.61 1239.41 Q2766.61 1246.51 2768.41 1250.08 Q2770.24 1253.62 2773.85 1253.62 Q2777.49 1253.62 2779.29 1250.08 Q2781.12 1246.51 2781.12 1239.41 Q2781.12 1232.28 2779.29 1228.74 Q2777.49 1225.17 2773.85 1225.17 M2773.85 1221.47 Q2779.66 1221.47 2782.72 1226.07 Q2785.8 1230.66 2785.8 1239.41 Q2785.8 1248.13 2782.72 1252.74 Q2779.66 1257.32 2773.85 1257.32 Q2768.04 1257.32 2764.97 1252.74 Q2761.91 1248.13 2761.91 1239.41 Q2761.91 1230.66 2764.97 1226.07 Q2768.04 1221.47 2773.85 1221.47 Z" fill="#000000" fill-rule="nonzero" fill-opacity="1" /><path clip-path="url(#clip870)" d="M2822.19 1231.19 L2811.61 1241.81 L2822.19 1252.39 L2819.43 1255.19 L2808.81 1244.57 L2798.18 1255.19 L2795.45 1252.39 L2806.01 1241.81 L2795.45 1231.19 L2798.18 1228.39 L2808.81 1239.01 L2819.43 1228.39 L2822.19 1231.19 Z" fill="#000000" fill-rule="nonzero" fill-opacity="1" /><path clip-path="url(#clip870)" d="M2834.55 1252.72 L2842.19 1252.72 L2842.19 1226.35 L2833.88 1228.02 L2833.88 1223.76 L2842.14 1222.09 L2846.82 1222.09 L2846.82 1252.72 L2854.46 1252.72 L2854.46 1256.65 L2834.55 1256.65 L2834.55 1252.72 Z" fill="#000000" fill-rule="nonzero" fill-opacity="1" /><path clip-path="url(#clip870)" d="M2873.9 1225.17 Q2870.29 1225.17 2868.46 1228.74 Q2866.65 1232.28 2866.65 1239.41 Q2866.65 1246.51 2868.46 1250.08 Q2870.29 1253.62 2873.9 1253.62 Q2877.53 1253.62 2879.34 1250.08 Q2881.17 1246.51 2881.17 1239.41 Q2881.17 1232.28 2879.34 1228.74 Q2877.53 1225.17 2873.9 1225.17 M2873.9 1221.47 Q2879.71 1221.47 2882.77 1226.07 Q2885.84 1230.66 2885.84 1239.41 Q2885.84 1248.13 2882.77 1252.74 Q2879.71 1257.32 2873.9 1257.32 Q2868.09 1257.32 2865.01 1252.74 Q2861.96 1248.13 2861.96 1239.41 Q2861.96 1230.66 2865.01 1226.07 Q2868.09 1221.47 2873.9 1221.47 Z" fill="#000000" fill-rule="nonzero" fill-opacity="1" /><path clip-path="url(#clip870)" d="M2885.84 1215.57 L2909.96 1215.57 L2909.96 1218.77 L2885.84 1218.77 L2885.84 1215.57 Z" fill="#000000" fill-rule="nonzero" fill-opacity="1" /><path clip-path="url(#clip870)" d="M2926.28 1215.91 Q2923.57 1215.91 2922.01 1217.36 Q2920.47 1218.8 2920.47 1221.34 Q2920.47 1223.88 2922.01 1225.33 Q2923.57 1226.78 2926.28 1226.78 Q2928.99 1226.78 2930.55 1225.33 Q2932.11 1223.86 2932.11 1221.34 Q2932.11 1218.8 2930.55 1217.36 Q2929.01 1215.91 2926.28 1215.91 M2922.48 1214.29 Q2920.04 1213.69 2918.66 1212.01 Q2917.31 1210.34 2917.31 1207.93 Q2917.31 1204.57 2919.7 1202.61 Q2922.11 1200.65 2926.28 1200.65 Q2930.48 1200.65 2932.86 1202.61 Q2935.25 1204.57 2935.25 1207.93 Q2935.25 1210.34 2933.88 1212.01 Q2932.53 1213.69 2930.1 1214.29 Q2932.85 1214.93 2934.37 1216.79 Q2935.91 1218.65 2935.91 1221.34 Q2935.91 1225.42 2933.41 1227.61 Q2930.93 1229.79 2926.28 1229.79 Q2921.64 1229.79 2919.13 1227.61 Q2916.65 1225.42 2916.65 1221.34 Q2916.65 1218.65 2918.19 1216.79 Q2919.74 1214.93 2922.48 1214.29 M2921.09 1208.29 Q2921.09 1210.47 2922.44 1211.69 Q2923.82 1212.92 2926.28 1212.92 Q2928.73 1212.92 2930.1 1211.69 Q2931.49 1210.47 2931.49 1208.29 Q2931.49 1206.11 2930.1 1204.89 Q2928.73 1203.66 2926.28 1203.66 Q2923.82 1203.66 2922.44 1204.89 Q2921.09 1206.11 2921.09 1208.29 Z" fill="#000000" fill-rule="nonzero" fill-opacity="1" /><path clip-path="url(#clip870)" d="M2732.63 942.671 L2720.82 961.12 L2732.63 961.12 L2732.63 942.671 M2731.4 938.597 L2737.28 938.597 L2737.28 961.12 L2742.21 961.12 L2742.21 965.009 L2737.28 965.009 L2737.28 973.157 L2732.63 973.157 L2732.63 965.009 L2717.03 965.009 L2717.03 960.495 L2731.4 938.597 Z" fill="#000000" fill-rule="nonzero" fill-opacity="1" /><path clip-path="url(#clip870)" d="M2749.94 967.277 L2754.83 967.277 L2754.83 973.157 L2749.94 973.157 L2749.94 967.277 Z" fill="#000000" fill-rule="nonzero" fill-opacity="1" /><path clip-path="url(#clip870)" d="M2775.01 941.675 Q2771.4 941.675 2769.57 945.24 Q2767.77 948.782 2767.77 955.911 Q2767.77 963.018 2769.57 966.583 Q2771.4 970.124 2775.01 970.124 Q2778.65 970.124 2780.45 966.583 Q2782.28 963.018 2782.28 955.911 Q2782.28 948.782 2780.45 945.24 Q2778.65 941.675 2775.01 941.675 M2775.01 937.972 Q2780.82 937.972 2783.88 942.578 Q2786.96 947.161 2786.96 955.911 Q2786.96 964.638 2783.88 969.245 Q2780.82 973.828 2775.01 973.828 Q2769.2 973.828 2766.12 969.245 Q2763.07 964.638 2763.07 955.911 Q2763.07 947.161 2766.12 942.578 Q2769.2 937.972 2775.01 937.972 Z" fill="#000000" fill-rule="nonzero" fill-opacity="1" /><path clip-path="url(#clip870)" d="M2823.34 947.694 L2812.77 958.319 L2823.34 968.897 L2820.59 971.698 L2809.97 961.073 L2799.34 971.698 L2796.61 968.897 L2807.16 958.319 L2796.61 947.694 L2799.34 944.893 L2809.97 955.518 L2820.59 944.893 L2823.34 947.694 Z" fill="#000000" fill-rule="nonzero" fill-opacity="1" /><path clip-path="url(#clip870)" d="M2835.71 969.221 L2843.34 969.221 L2843.34 942.856 L2835.03 944.523 L2835.03 940.263 L2843.3 938.597 L2847.97 938.597 L2847.97 969.221 L2855.61 969.221 L2855.61 973.157 L2835.71 973.157 L2835.71 969.221 Z" fill="#000000" fill-rule="nonzero" fill-opacity="1" /><path clip-path="url(#clip870)" d="M2875.06 941.675 Q2871.45 941.675 2869.62 945.24 Q2867.81 948.782 2867.81 955.911 Q2867.81 963.018 2869.62 966.583 Q2871.45 970.124 2875.06 970.124 Q2878.69 970.124 2880.5 966.583 Q2882.33 963.018 2882.33 955.911 Q2882.33 948.782 2880.5 945.24 Q2878.69 941.675 2875.06 941.675 M2875.06 937.972 Q2880.87 937.972 2883.92 942.578 Q2887 947.161 2887 955.911 Q2887 964.638 2883.92 969.245 Q2880.87 973.828 2875.06 973.828 Q2869.25 973.828 2866.17 969.245 Q2863.11 964.638 2863.11 955.911 Q2863.11 947.161 2866.17 942.578 Q2869.25 937.972 2875.06 937.972 Z" fill="#000000" fill-rule="nonzero" fill-opacity="1" /><path clip-path="url(#clip870)" d="M2887 932.073 L2911.11 932.073 L2911.11 935.27 L2887 935.27 L2887 932.073 Z" fill="#000000" fill-rule="nonzero" fill-opacity="1" /><path clip-path="url(#clip870)" d="M2927.44 932.412 Q2924.73 932.412 2923.17 933.86 Q2921.63 935.308 2921.63 937.847 Q2921.63 940.386 2923.17 941.834 Q2924.73 943.282 2927.44 943.282 Q2930.15 943.282 2931.71 941.834 Q2933.27 940.367 2933.27 937.847 Q2933.27 935.308 2931.71 933.86 Q2930.17 932.412 2927.44 932.412 M2923.64 930.794 Q2921.19 930.192 2919.82 928.518 Q2918.47 926.844 2918.47 924.437 Q2918.47 921.07 2920.86 919.114 Q2923.26 917.158 2927.44 917.158 Q2931.63 917.158 2934.02 919.114 Q2936.41 921.07 2936.41 924.437 Q2936.41 926.844 2935.04 928.518 Q2933.68 930.192 2931.26 930.794 Q2934 931.434 2935.53 933.296 Q2937.07 935.157 2937.07 937.847 Q2937.07 941.928 2934.57 944.11 Q2932.08 946.292 2927.44 946.292 Q2922.79 946.292 2920.29 944.11 Q2917.81 941.928 2917.81 937.847 Q2917.81 935.157 2919.35 933.296 Q2920.89 931.434 2923.64 930.794 M2922.25 924.794 Q2922.25 926.976 2923.6 928.199 Q2924.97 929.421 2927.44 929.421 Q2929.88 929.421 2931.26 928.199 Q2932.65 926.976 2932.65 924.794 Q2932.65 922.613 2931.26 921.39 Q2929.88 920.168 2927.44 920.168 Q2924.97 920.168 2923.6 921.39 Q2922.25 922.613 2922.25 924.794 Z" fill="#000000" fill-rule="nonzero" fill-opacity="1" /><path clip-path="url(#clip870)" d="M2729.36 670.518 Q2726.22 670.518 2724.36 672.671 Q2722.54 674.823 2722.54 678.573 Q2722.54 682.3 2724.36 684.476 Q2726.22 686.629 2729.36 686.629 Q2732.51 686.629 2734.34 684.476 Q2736.19 682.3 2736.19 678.573 Q2736.19 674.823 2734.34 672.671 Q2732.51 670.518 2729.36 670.518 M2738.65 655.865 L2738.65 660.124 Q2736.89 659.291 2735.08 658.851 Q2733.3 658.411 2731.54 658.411 Q2726.91 658.411 2724.46 661.536 Q2722.03 664.661 2721.68 670.981 Q2723.04 668.967 2725.1 667.902 Q2727.16 666.814 2729.64 666.814 Q2734.85 666.814 2737.86 669.985 Q2740.89 673.134 2740.89 678.573 Q2740.89 683.897 2737.74 687.115 Q2734.6 690.333 2729.36 690.333 Q2723.37 690.333 2720.2 685.749 Q2717.03 681.143 2717.03 672.416 Q2717.03 664.222 2720.91 659.361 Q2724.8 654.476 2731.35 654.476 Q2733.11 654.476 2734.9 654.823 Q2736.7 655.171 2738.65 655.865 Z" fill="#000000" fill-rule="nonzero" fill-opacity="1" /><path clip-path="url(#clip870)" d="M2748.95 683.782 L2753.83 683.782 L2753.83 689.661 L2748.95 689.661 L2748.95 683.782 Z" fill="#000000" fill-rule="nonzero" fill-opacity="1" /><path clip-path="url(#clip870)" d="M2774.02 658.18 Q2770.41 658.18 2768.58 661.745 Q2766.77 665.286 2766.77 672.416 Q2766.77 679.522 2768.58 683.087 Q2770.41 686.629 2774.02 686.629 Q2777.65 686.629 2779.46 683.087 Q2781.28 679.522 2781.28 672.416 Q2781.28 665.286 2779.46 661.745 Q2777.65 658.18 2774.02 658.18 M2774.02 654.476 Q2779.83 654.476 2782.88 659.083 Q2785.96 663.666 2785.96 672.416 Q2785.96 681.143 2782.88 685.749 Q2779.83 690.333 2774.02 690.333 Q2768.21 690.333 2765.13 685.749 Q2762.07 681.143 2762.07 672.416 Q2762.07 663.666 2765.13 659.083 Q2768.21 654.476 2774.02 654.476 Z" fill="#000000" fill-rule="nonzero" fill-opacity="1" /><path clip-path="url(#clip870)" d="M2822.35 664.198 L2811.77 674.823 L2822.35 685.402 L2819.59 688.203 L2808.97 677.578 L2798.35 688.203 L2795.61 685.402 L2806.17 674.823 L2795.61 664.198 L2798.35 661.398 L2808.97 672.022 L2819.59 661.398 L2822.35 664.198 Z" fill="#000000" fill-rule="nonzero" fill-opacity="1" /><path clip-path="url(#clip870)" d="M2834.71 685.726 L2842.35 685.726 L2842.35 659.361 L2834.04 661.027 L2834.04 656.768 L2842.3 655.101 L2846.98 655.101 L2846.98 685.726 L2854.62 685.726 L2854.62 689.661 L2834.71 689.661 L2834.71 685.726 Z" fill="#000000" fill-rule="nonzero" fill-opacity="1" /><path clip-path="url(#clip870)" d="M2874.06 658.18 Q2870.45 658.18 2868.62 661.745 Q2866.82 665.286 2866.82 672.416 Q2866.82 679.522 2868.62 683.087 Q2870.45 686.629 2874.06 686.629 Q2877.7 686.629 2879.5 683.087 Q2881.33 679.522 2881.33 672.416 Q2881.33 665.286 2879.5 661.745 Q2877.7 658.18 2874.06 658.18 M2874.06 654.476 Q2879.87 654.476 2882.93 659.083 Q2886.01 663.666 2886.01 672.416 Q2886.01 681.143 2882.93 685.749 Q2879.87 690.333 2874.06 690.333 Q2868.25 690.333 2865.17 685.749 Q2862.12 681.143 2862.12 672.416 Q2862.12 663.666 2865.17 659.083 Q2868.25 654.476 2874.06 654.476 Z" fill="#000000" fill-rule="nonzero" fill-opacity="1" /><path clip-path="url(#clip870)" d="M2886.01 648.578 L2910.12 648.578 L2910.12 651.775 L2886.01 651.775 L2886.01 648.578 Z" fill="#000000" fill-rule="nonzero" fill-opacity="1" /><path clip-path="url(#clip870)" d="M2926.44 648.916 Q2923.74 648.916 2922.17 650.364 Q2920.63 651.813 2920.63 654.352 Q2920.63 656.891 2922.17 658.339 Q2923.74 659.787 2926.44 659.787 Q2929.15 659.787 2930.71 658.339 Q2932.27 656.872 2932.27 654.352 Q2932.27 651.813 2930.71 650.364 Q2929.17 648.916 2926.44 648.916 M2922.64 647.299 Q2920.2 646.697 2918.83 645.023 Q2917.47 643.349 2917.47 640.942 Q2917.47 637.575 2919.86 635.619 Q2922.27 633.663 2926.44 633.663 Q2930.64 633.663 2933.03 635.619 Q2935.41 637.575 2935.41 640.942 Q2935.41 643.349 2934.04 645.023 Q2932.69 646.697 2930.26 647.299 Q2933.01 647.938 2934.53 649.8 Q2936.07 651.662 2936.07 654.352 Q2936.07 658.433 2933.57 660.615 Q2931.09 662.796 2926.44 662.796 Q2921.8 662.796 2919.3 660.615 Q2916.81 658.433 2916.81 654.352 Q2916.81 651.662 2918.36 649.8 Q2919.9 647.938 2922.64 647.299 M2921.25 641.299 Q2921.25 643.481 2922.61 644.703 Q2923.98 645.926 2926.44 645.926 Q2928.89 645.926 2930.26 644.703 Q2931.65 643.481 2931.65 641.299 Q2931.65 639.117 2930.26 637.895 Q2928.89 636.672 2926.44 636.672 Q2923.98 636.672 2922.61 637.895 Q2921.25 639.117 2921.25 641.299 Z" fill="#000000" fill-rule="nonzero" fill-opacity="1" /><path clip-path="url(#clip870)" d="M2728.88 389.754 Q2725.54 389.754 2723.62 391.536 Q2721.73 393.319 2721.73 396.444 Q2721.73 399.569 2723.62 401.351 Q2725.54 403.133 2728.88 403.133 Q2732.21 403.133 2734.13 401.351 Q2736.05 399.546 2736.05 396.444 Q2736.05 393.319 2734.13 391.536 Q2732.23 389.754 2728.88 389.754 M2724.2 387.763 Q2721.19 387.022 2719.5 384.962 Q2717.84 382.902 2717.84 379.939 Q2717.84 375.796 2720.78 373.388 Q2723.74 370.981 2728.88 370.981 Q2734.04 370.981 2736.98 373.388 Q2739.92 375.796 2739.92 379.939 Q2739.92 382.902 2738.23 384.962 Q2736.56 387.022 2733.58 387.763 Q2736.96 388.55 2738.83 390.842 Q2740.73 393.134 2740.73 396.444 Q2740.73 401.467 2737.65 404.152 Q2734.6 406.837 2728.88 406.837 Q2723.16 406.837 2720.08 404.152 Q2717.03 401.467 2717.03 396.444 Q2717.03 393.134 2718.92 390.842 Q2720.82 388.55 2724.2 387.763 M2722.49 380.379 Q2722.49 383.064 2724.16 384.569 Q2725.85 386.073 2728.88 386.073 Q2731.89 386.073 2733.58 384.569 Q2735.29 383.064 2735.29 380.379 Q2735.29 377.694 2733.58 376.189 Q2731.89 374.685 2728.88 374.685 Q2725.85 374.685 2724.16 376.189 Q2722.49 377.694 2722.49 380.379 Z" fill="#000000" fill-rule="nonzero" fill-opacity="1" /><path clip-path="url(#clip870)" d="M2749.04 400.286 L2753.92 400.286 L2753.92 406.166 L2749.04 406.166 L2749.04 400.286 Z" fill="#000000" fill-rule="nonzero" fill-opacity="1" /><path clip-path="url(#clip870)" d="M2774.11 374.685 Q2770.5 374.685 2768.67 378.249 Q2766.86 381.791 2766.86 388.921 Q2766.86 396.027 2768.67 399.592 Q2770.5 403.133 2774.11 403.133 Q2777.74 403.133 2779.55 399.592 Q2781.38 396.027 2781.38 388.921 Q2781.38 381.791 2779.55 378.249 Q2777.74 374.685 2774.11 374.685 M2774.11 370.981 Q2779.92 370.981 2782.97 375.587 Q2786.05 380.171 2786.05 388.921 Q2786.05 397.647 2782.97 402.254 Q2779.92 406.837 2774.11 406.837 Q2768.3 406.837 2765.22 402.254 Q2762.16 397.647 2762.16 388.921 Q2762.16 380.171 2765.22 375.587 Q2768.3 370.981 2774.11 370.981 Z" fill="#000000" fill-rule="nonzero" fill-opacity="1" /><path clip-path="url(#clip870)" d="M2822.44 380.703 L2811.86 391.328 L2822.44 401.907 L2819.69 404.708 L2809.06 394.083 L2798.44 404.708 L2795.71 401.907 L2806.26 391.328 L2795.71 380.703 L2798.44 377.902 L2809.06 388.527 L2819.69 377.902 L2822.44 380.703 Z" fill="#000000" fill-rule="nonzero" fill-opacity="1" /><path clip-path="url(#clip870)" d="M2834.8 402.231 L2842.44 402.231 L2842.44 375.865 L2834.13 377.532 L2834.13 373.273 L2842.4 371.606 L2847.07 371.606 L2847.07 402.231 L2854.71 402.231 L2854.71 406.166 L2834.8 406.166 L2834.8 402.231 Z" fill="#000000" fill-rule="nonzero" fill-opacity="1" /><path clip-path="url(#clip870)" d="M2874.15 374.685 Q2870.54 374.685 2868.72 378.249 Q2866.91 381.791 2866.91 388.921 Q2866.91 396.027 2868.72 399.592 Q2870.54 403.133 2874.15 403.133 Q2877.79 403.133 2879.59 399.592 Q2881.42 396.027 2881.42 388.921 Q2881.42 381.791 2879.59 378.249 Q2877.79 374.685 2874.15 374.685 M2874.15 370.981 Q2879.96 370.981 2883.02 375.587 Q2886.1 380.171 2886.1 388.921 Q2886.1 397.647 2883.02 402.254 Q2879.96 406.837 2874.15 406.837 Q2868.34 406.837 2865.27 402.254 Q2862.21 397.647 2862.21 388.921 Q2862.21 380.171 2865.27 375.587 Q2868.34 370.981 2874.15 370.981 Z" fill="#000000" fill-rule="nonzero" fill-opacity="1" /><path clip-path="url(#clip870)" d="M2886.1 365.082 L2910.21 365.082 L2910.21 368.28 L2886.1 368.28 L2886.1 365.082 Z" fill="#000000" fill-rule="nonzero" fill-opacity="1" /><path clip-path="url(#clip870)" d="M2926.54 365.421 Q2923.83 365.421 2922.27 366.869 Q2920.72 368.317 2920.72 370.856 Q2920.72 373.395 2922.27 374.843 Q2923.83 376.292 2926.54 376.292 Q2929.24 376.292 2930.81 374.843 Q2932.37 373.376 2932.37 370.856 Q2932.37 368.317 2930.81 366.869 Q2929.26 365.421 2926.54 365.421 M2922.74 363.803 Q2920.29 363.201 2918.92 361.528 Q2917.56 359.854 2917.56 357.446 Q2917.56 354.08 2919.95 352.124 Q2922.36 350.168 2926.54 350.168 Q2930.73 350.168 2933.12 352.124 Q2935.51 354.08 2935.51 357.446 Q2935.51 359.854 2934.13 361.528 Q2932.78 363.201 2930.35 363.803 Q2933.1 364.443 2934.62 366.305 Q2936.17 368.167 2936.17 370.856 Q2936.17 374.938 2933.66 377.119 Q2931.18 379.301 2926.54 379.301 Q2921.89 379.301 2919.39 377.119 Q2916.91 374.938 2916.91 370.856 Q2916.91 368.167 2918.45 366.305 Q2919.99 364.443 2922.74 363.803 M2921.34 357.804 Q2921.34 359.985 2922.7 361.208 Q2924.07 362.43 2926.54 362.43 Q2928.98 362.43 2930.35 361.208 Q2931.75 359.985 2931.75 357.804 Q2931.75 355.622 2930.35 354.399 Q2928.98 353.177 2926.54 353.177 Q2924.07 353.177 2922.7 354.399 Q2921.34 355.622 2921.34 357.804 Z" fill="#000000" fill-rule="nonzero" fill-opacity="1" /><path clip-path="url(#clip870)" d="M3021.77 1023.78 Q3021.77 1030.87 3023.4 1033.61 Q3025.02 1036.35 3028.93 1036.35 Q3032.05 1036.35 3033.9 1034.31 Q3035.71 1032.24 3035.71 1028.71 Q3035.71 1023.84 3032.28 1020.91 Q3028.81 1017.95 3023.08 1017.95 L3021.77 1017.95 L3021.77 1023.78 M3019.35 1012.09 L3039.69 1012.09 L3039.69 1017.95 L3034.28 1017.95 Q3037.53 1019.96 3039.09 1022.95 Q3040.62 1025.94 3040.62 1030.27 Q3040.62 1035.74 3037.56 1038.99 Q3034.47 1042.2 3029.32 1042.2 Q3023.3 1042.2 3020.25 1038.19 Q3017.19 1034.15 3017.19 1026.16 L3017.19 1017.95 L3016.62 1017.95 Q3012.57 1017.95 3010.38 1020.62 Q3008.15 1023.27 3008.15 1028.07 Q3008.15 1031.13 3008.88 1034.02 Q3009.61 1036.92 3011.08 1039.59 L3005.67 1039.59 Q3004.43 1036.38 3003.82 1033.36 Q3003.18 1030.33 3003.18 1027.47 Q3003.18 1019.73 3007.2 1015.91 Q3011.21 1012.09 3019.35 1012.09 Z" fill="#000000" fill-rule="nonzero" fill-opacity="1" /><path clip-path="url(#clip870)" d="M3021.9 974.441 Q3015.44 974.441 3011.78 977.115 Q3008.09 979.757 3008.09 984.404 Q3008.09 989.05 3011.78 991.724 Q3015.44 994.366 3021.9 994.366 Q3028.36 994.366 3032.05 991.724 Q3035.71 989.05 3035.71 984.404 Q3035.71 979.757 3032.05 977.115 Q3028.36 974.441 3021.9 974.441 M3009.46 994.366 Q3006.27 992.52 3004.74 989.719 Q3003.18 986.886 3003.18 982.971 Q3003.18 976.478 3008.34 972.436 Q3013.5 968.362 3021.9 968.362 Q3030.3 968.362 3035.46 972.436 Q3040.62 976.478 3040.62 982.971 Q3040.62 986.886 3039.09 989.719 Q3037.53 992.52 3034.35 994.366 L3039.69 994.366 L3039.69 1000.25 L2990.17 1000.25 L2990.17 994.366 L3009.46 994.366 Z" fill="#000000" fill-rule="nonzero" fill-opacity="1" /><path clip-path="url(#clip870)" d="M3005.09 935.929 L3010.63 935.929 Q3009.36 938.411 3008.72 941.085 Q3008.09 943.758 3008.09 946.623 Q3008.09 950.984 3009.42 953.18 Q3010.76 955.344 3013.43 955.344 Q3015.47 955.344 3016.65 953.784 Q3017.79 952.225 3018.84 947.514 L3019.29 945.509 Q3020.63 939.271 3023.08 936.661 Q3025.5 934.019 3029.86 934.019 Q3034.82 934.019 3037.72 937.966 Q3040.62 941.881 3040.62 948.756 Q3040.62 951.62 3040.04 954.739 Q3039.5 957.827 3038.39 961.264 L3032.34 961.264 Q3034.03 958.018 3034.89 954.867 Q3035.71 951.716 3035.71 948.628 Q3035.71 944.491 3034.31 942.263 Q3032.88 940.035 3030.3 940.035 Q3027.92 940.035 3026.64 941.658 Q3025.37 943.249 3024.19 948.692 L3023.71 950.729 Q3022.57 956.172 3020.21 958.591 Q3017.83 961.01 3013.69 961.01 Q3008.66 961.01 3005.92 957.445 Q3003.18 953.88 3003.18 947.323 Q3003.18 944.077 3003.66 941.212 Q3004.14 938.348 3005.09 935.929 Z" fill="#000000" fill-rule="nonzero" fill-opacity="1" /><path clip-path="url(#clip870)" d="M3008.15 910.88 Q3008.15 915.59 3011.84 918.327 Q3015.5 921.065 3021.9 921.065 Q3028.3 921.065 3031.99 918.359 Q3035.65 915.622 3035.65 910.88 Q3035.65 906.201 3031.96 903.464 Q3028.27 900.726 3021.9 900.726 Q3015.57 900.726 3011.87 903.464 Q3008.15 906.201 3008.15 910.88 M3003.18 910.88 Q3003.18 903.241 3008.15 898.88 Q3013.12 894.52 3021.9 894.52 Q3030.65 894.52 3035.65 898.88 Q3040.62 903.241 3040.62 910.88 Q3040.62 918.55 3035.65 922.911 Q3030.65 927.239 3021.9 927.239 Q3013.12 927.239 3008.15 922.911 Q3003.18 918.55 3003.18 910.88 Z" fill="#000000" fill-rule="nonzero" fill-opacity="1" /><path clip-path="url(#clip870)" d="M2990.17 884.812 L2990.17 878.956 L3039.69 878.956 L3039.69 884.812 L2990.17 884.812 Z" fill="#000000" fill-rule="nonzero" fill-opacity="1" /><path clip-path="url(#clip870)" d="M3025.62 867.306 L3004.04 867.306 L3004.04 861.45 L3025.4 861.45 Q3030.46 861.45 3033.01 859.477 Q3035.52 857.503 3035.52 853.556 Q3035.52 848.814 3032.5 846.077 Q3029.48 843.308 3024.26 843.308 L3004.04 843.308 L3004.04 837.451 L3039.69 837.451 L3039.69 843.308 L3034.22 843.308 Q3037.46 845.44 3039.06 848.273 Q3040.62 851.074 3040.62 854.798 Q3040.62 860.941 3036.8 864.123 Q3032.98 867.306 3025.62 867.306 M3003.18 852.57 L3003.18 852.57 Z" fill="#000000" fill-rule="nonzero" fill-opacity="1" /><path clip-path="url(#clip870)" d="M2993.92 819.595 L3004.04 819.595 L3004.04 807.532 L3008.6 807.532 L3008.6 819.595 L3027.95 819.595 Q3032.31 819.595 3033.55 818.418 Q3034.79 817.208 3034.79 813.548 L3034.79 807.532 L3039.69 807.532 L3039.69 813.548 Q3039.69 820.327 3037.18 822.906 Q3034.63 825.484 3027.95 825.484 L3008.6 825.484 L3008.6 829.781 L3004.04 829.781 L3004.04 825.484 L2993.92 825.484 L2993.92 819.595 Z" fill="#000000" fill-rule="nonzero" fill-opacity="1" /><path clip-path="url(#clip870)" d="M3020.4 769.338 L3023.27 769.338 L3023.27 796.265 Q3029.32 795.883 3032.5 792.637 Q3035.65 789.358 3035.65 783.534 Q3035.65 780.16 3034.82 777.009 Q3033.99 773.826 3032.34 770.707 L3037.88 770.707 Q3039.21 773.858 3039.92 777.168 Q3040.62 780.478 3040.62 783.884 Q3040.62 792.414 3035.65 797.411 Q3030.68 802.376 3022.22 802.376 Q3013.47 802.376 3008.34 797.666 Q3003.18 792.923 3003.18 784.902 Q3003.18 777.709 3007.83 773.539 Q3012.45 769.338 3020.4 769.338 M3018.69 775.195 Q3013.88 775.258 3011.01 777.9 Q3008.15 780.51 3008.15 784.839 Q3008.15 789.74 3010.92 792.7 Q3013.69 795.628 3018.72 796.074 L3018.69 775.195 Z" fill="#000000" fill-rule="nonzero" fill-opacity="1" /><path clip-path="url(#clip870)" d="M3020.4 708.514 L3023.27 708.514 L3023.27 735.441 Q3029.32 735.059 3032.5 731.812 Q3035.65 728.534 3035.65 722.709 Q3035.65 719.335 3034.82 716.184 Q3033.99 713.002 3032.34 709.882 L3037.88 709.882 Q3039.21 713.033 3039.92 716.344 Q3040.62 719.654 3040.62 723.059 Q3040.62 731.589 3035.65 736.587 Q3030.68 741.552 3022.22 741.552 Q3013.47 741.552 3008.34 736.841 Q3003.18 732.099 3003.18 724.078 Q3003.18 716.885 3007.83 712.715 Q3012.45 708.514 3020.4 708.514 M3018.69 714.37 Q3013.88 714.434 3011.01 717.076 Q3008.15 719.686 3008.15 724.014 Q3008.15 728.916 3010.92 731.876 Q3013.69 734.804 3018.72 735.25 L3018.69 714.37 Z" fill="#000000" fill-rule="nonzero" fill-opacity="1" /><path clip-path="url(#clip870)" d="M3009.52 678.245 Q3008.95 679.232 3008.69 680.409 Q3008.4 681.555 3008.4 682.955 Q3008.4 687.921 3011.65 690.594 Q3014.87 693.236 3020.91 693.236 L3039.69 693.236 L3039.69 699.124 L3004.04 699.124 L3004.04 693.236 L3009.58 693.236 Q3006.34 691.39 3004.78 688.43 Q3003.18 685.47 3003.18 681.237 Q3003.18 680.632 3003.28 679.9 Q3003.34 679.168 3003.5 678.277 L3009.52 678.245 Z" fill="#000000" fill-rule="nonzero" fill-opacity="1" /><path clip-path="url(#clip870)" d="M3009.52 652.591 Q3008.95 653.578 3008.69 654.755 Q3008.4 655.901 3008.4 657.302 Q3008.4 662.267 3011.65 664.941 Q3014.87 667.582 3020.91 667.582 L3039.69 667.582 L3039.69 673.471 L3004.04 673.471 L3004.04 667.582 L3009.58 667.582 Q3006.34 665.736 3004.78 662.776 Q3003.18 659.816 3003.18 655.583 Q3003.18 654.978 3003.28 654.246 Q3003.34 653.514 3003.5 652.623 L3009.52 652.591 Z" fill="#000000" fill-rule="nonzero" fill-opacity="1" /><path clip-path="url(#clip870)" d="M3008.15 634.067 Q3008.15 638.777 3011.84 641.515 Q3015.5 644.252 3021.9 644.252 Q3028.3 644.252 3031.99 641.547 Q3035.65 638.809 3035.65 634.067 Q3035.65 629.388 3031.96 626.651 Q3028.27 623.914 3021.9 623.914 Q3015.57 623.914 3011.87 626.651 Q3008.15 629.388 3008.15 634.067 M3003.18 634.067 Q3003.18 626.428 3008.15 622.067 Q3013.12 617.707 3021.9 617.707 Q3030.65 617.707 3035.65 622.067 Q3040.62 626.428 3040.62 634.067 Q3040.62 641.738 3035.65 646.098 Q3030.65 650.427 3021.9 650.427 Q3013.12 650.427 3008.15 646.098 Q3003.18 641.738 3003.18 634.067 Z" fill="#000000" fill-rule="nonzero" fill-opacity="1" /><path clip-path="url(#clip870)" d="M3009.52 587.343 Q3008.95 588.329 3008.69 589.507 Q3008.4 590.653 3008.4 592.053 Q3008.4 597.018 3011.65 599.692 Q3014.87 602.334 3020.91 602.334 L3039.69 602.334 L3039.69 608.222 L3004.04 608.222 L3004.04 602.334 L3009.58 602.334 Q3006.34 600.488 3004.78 597.528 Q3003.18 594.568 3003.18 590.334 Q3003.18 589.73 3003.28 588.998 Q3003.34 588.266 3003.5 587.374 L3009.52 587.343 Z" fill="#000000" fill-rule="nonzero" fill-opacity="1" /><polyline clip-path="url(#clip872)" style="stroke:#808080; stroke-linecap:round; stroke-linejoin:round; stroke-width:6; stroke-opacity:1; fill:none" stroke-dasharray="3, 6" points="243.147,1422.41 261.71,1298.08 280.274,1241.02 298.837,1455.32 317.401,1514.31 335.964,1277.89 354.527,1090.75 373.091,1441.54 391.654,1191.89 410.218,856.047 428.781,1221.02 447.345,1407.7 465.908,1070.05 484.471,1477.28 503.035,1194.33 521.598,814.773 540.162,1178.52 558.725,909.143 577.288,1426.74 595.852,1505.74 614.415,1162.99 632.979,1370.9 651.542,1165.34 670.105,1154.14 688.669,1192.63 707.232,1252.08 725.796,1369.92 744.359,1476.75 762.922,1342.91 781.486,1474.2 800.049,1492.27 818.613,968.996 837.176,1511.41 855.739,1046.92 874.303,1358.29 892.866,1455.3 911.43,1397.56 929.993,1446.42 948.556,1464.3 967.12,1273.71 985.683,1009.06 1004.25,1392.53 1022.81,1350.52 1041.37,1304.02 1059.94,1305.28 1078.5,1393.86 1097.06,1452.35 1115.63,1260 1134.19,1364.4 1152.75,1392.53 1171.32,1383.75 1189.88,1436.64 1208.44,1393.5 1227.01,1353.73 1245.57,1474.49 1264.13,1453.62 1282.7,1436.73 1301.26,1364.39 1319.82,1262.07 1338.39,1505.09 1356.95,1465.94 1375.51,1511.3 1394.08,1216.37 1412.64,1290.6 1431.2,1357.74 1449.77,1305.54 1468.33,1135.71 1486.9,1472.26 1505.46,1453.16 1524.02,1452.04 1542.59,1272.73 1561.15,1462.14 1579.71,1401.89 1598.28,1455.56 1616.84,1185.68 1635.4,1507.43 1653.97,1406.76 1672.53,1513.41 1691.09,1140.91 1709.66,1387.54 1728.22,1513.17 1746.78,1470.35 1765.35,1234.04 1783.91,1426.46 1802.47,1515.44 1821.04,1350.49 1839.6,1299.1 1858.16,1408.62 1876.73,1499.91 1895.29,1369.82 1913.85,1264.05 1932.42,1417.1 1950.98,1464.99 1969.54,1413.36 1988.11,1193.05 2006.67,1473.16 2025.23,1486.16 2043.8,1414.51 2062.36,1187.34 2080.92,1455.32 2099.49,1443.57 2118.05,1388.17 2136.61,1228.21 2155.18,1376.87 2173.74,1500.13 2192.3,1328.67 2210.87,1225.64 2229.43,1440.82 2247.99,1411.48 2266.56,1433.14 2285.12,1155.39 2303.68,1421.18 2322.25,1500.33 2340.81,1290.88 2359.38,1243.06 2377.94,1400.34 2396.5,1464.8 2415.07,1346.56 2433.63,1253.64 2452.19,1279.97 2470.76,1507.86 2489.32,1242.22 2507.88,1259.31 2526.45,1405.86 2545.01,1426.03 2563.57,1394.44 2582.14,1190.78 2600.7,1320.95 "/>
<path clip-path="url(#clip870)" d="M1959.48 263.583 L2588.13 263.583 L2588.13 159.903 L1959.48 159.903  Z" fill="#ffffff" fill-rule="evenodd" fill-opacity="1"/>
<polyline clip-path="url(#clip870)" style="stroke:#000000; stroke-linecap:round; stroke-linejoin:round; stroke-width:4; stroke-opacity:1; fill:none" points="1959.48,263.583 2588.13,263.583 2588.13,159.903 1959.48,159.903 1959.48,263.583 "/>
<polyline clip-path="url(#clip870)" style="stroke:#808080; stroke-linecap:round; stroke-linejoin:round; stroke-width:6; stroke-opacity:1; fill:none" stroke-dasharray="3, 6" points="1987.24,211.743 2153.84,211.743 "/>
<path clip-path="url(#clip870)" d="M2185.55 192.797 L2185.55 240.204 L2181.61 240.204 L2181.61 192.797 L2185.55 192.797 Z" fill="#000000" fill-rule="nonzero" fill-opacity="1" /><path clip-path="url(#clip870)" d="M2196.22 194.463 L2203.19 194.463 L2212 217.982 L2220.87 194.463 L2227.84 194.463 L2227.84 229.023 L2223.28 229.023 L2223.28 198.676 L2214.37 222.38 L2209.67 222.38 L2200.75 198.676 L2200.75 229.023 L2196.22 229.023 L2196.22 194.463 Z" fill="#000000" fill-rule="nonzero" fill-opacity="1" /><path clip-path="url(#clip870)" d="M2241.8 198.306 L2241.8 211.292 L2247.68 211.292 Q2250.94 211.292 2252.72 209.602 Q2254.5 207.912 2254.5 204.787 Q2254.5 201.685 2252.72 199.996 Q2250.94 198.306 2247.68 198.306 L2241.8 198.306 M2237.12 194.463 L2247.68 194.463 Q2253.49 194.463 2256.45 197.102 Q2259.43 199.718 2259.43 204.787 Q2259.43 209.903 2256.45 212.519 Q2253.49 215.134 2247.68 215.134 L2241.8 215.134 L2241.8 229.023 L2237.12 229.023 L2237.12 194.463 Z" fill="#000000" fill-rule="nonzero" fill-opacity="1" /><path clip-path="url(#clip870)" d="M2286.43 195.598 L2286.43 200.158 Q2283.76 198.885 2281.4 198.26 Q2279.04 197.635 2276.84 197.635 Q2273.02 197.635 2270.94 199.116 Q2268.88 200.598 2268.88 203.329 Q2268.88 205.621 2270.24 206.801 Q2271.63 207.959 2275.48 208.676 L2278.3 209.255 Q2283.53 210.25 2286.01 212.773 Q2288.51 215.273 2288.51 219.486 Q2288.51 224.509 2285.13 227.102 Q2281.77 229.695 2275.27 229.695 Q2272.81 229.695 2270.04 229.139 Q2267.28 228.583 2264.32 227.496 L2264.32 222.681 Q2267.17 224.278 2269.9 225.088 Q2272.63 225.898 2275.27 225.898 Q2279.27 225.898 2281.45 224.324 Q2283.62 222.75 2283.62 219.834 Q2283.62 217.287 2282.05 215.852 Q2280.5 214.417 2276.93 213.699 L2274.09 213.144 Q2268.86 212.102 2266.52 209.88 Q2264.18 207.658 2264.18 203.699 Q2264.18 199.116 2267.4 196.477 Q2270.64 193.838 2276.31 193.838 Q2278.74 193.838 2281.26 194.278 Q2283.79 194.718 2286.43 195.598 Z" fill="#000000" fill-rule="nonzero" fill-opacity="1" /><path clip-path="url(#clip870)" d="M2311.24 212.195 L2340.92 212.195 L2340.92 216.13 L2311.24 216.13 L2311.24 212.195 Z" fill="#000000" fill-rule="nonzero" fill-opacity="1" /><path clip-path="url(#clip870)" d="M2382.54 207.033 L2382.54 193.005 L2386.8 193.005 L2386.8 229.023 L2382.54 229.023 L2382.54 225.134 Q2381.19 227.449 2379.13 228.583 Q2377.1 229.695 2374.23 229.695 Q2369.53 229.695 2366.56 225.945 Q2363.62 222.195 2363.62 216.084 Q2363.62 209.972 2366.56 206.222 Q2369.53 202.473 2374.23 202.473 Q2377.1 202.473 2379.13 203.607 Q2381.19 204.718 2382.54 207.033 M2368.02 216.084 Q2368.02 220.783 2369.94 223.468 Q2371.89 226.13 2375.27 226.13 Q2378.65 226.13 2380.59 223.468 Q2382.54 220.783 2382.54 216.084 Q2382.54 211.385 2380.59 208.722 Q2378.65 206.037 2375.27 206.037 Q2371.89 206.037 2369.94 208.722 Q2368.02 211.385 2368.02 216.084 Z" fill="#000000" fill-rule="nonzero" fill-opacity="1" /><path clip-path="url(#clip870)" d="M2395.57 203.098 L2399.83 203.098 L2399.83 229.023 L2395.57 229.023 L2395.57 203.098 M2395.57 193.005 L2399.83 193.005 L2399.83 198.398 L2395.57 198.398 L2395.57 193.005 Z" fill="#000000" fill-rule="nonzero" fill-opacity="1" /><path clip-path="url(#clip870)" d="M2425.27 203.861 L2425.27 207.889 Q2423.46 206.963 2421.52 206.5 Q2419.57 206.037 2417.49 206.037 Q2414.32 206.037 2412.72 207.01 Q2411.15 207.982 2411.15 209.926 Q2411.15 211.408 2412.28 212.264 Q2413.42 213.097 2416.84 213.861 L2418.3 214.185 Q2422.84 215.158 2424.73 216.94 Q2426.66 218.699 2426.66 221.871 Q2426.66 225.482 2423.79 227.588 Q2420.94 229.695 2415.94 229.695 Q2413.86 229.695 2411.59 229.278 Q2409.34 228.884 2406.84 228.074 L2406.84 223.676 Q2409.2 224.903 2411.49 225.528 Q2413.79 226.13 2416.03 226.13 Q2419.04 226.13 2420.66 225.111 Q2422.28 224.07 2422.28 222.195 Q2422.28 220.459 2421.1 219.533 Q2419.94 218.607 2415.98 217.75 L2414.5 217.403 Q2410.55 216.57 2408.79 214.857 Q2407.03 213.121 2407.03 210.111 Q2407.03 206.454 2409.62 204.463 Q2412.21 202.473 2416.98 202.473 Q2419.34 202.473 2421.42 202.82 Q2423.51 203.167 2425.27 203.861 Z" fill="#000000" fill-rule="nonzero" fill-opacity="1" /><path clip-path="url(#clip870)" d="M2452.1 204.093 L2452.1 208.074 Q2450.29 207.079 2448.46 206.593 Q2446.66 206.084 2444.8 206.084 Q2440.66 206.084 2438.37 208.722 Q2436.08 211.338 2436.08 216.084 Q2436.08 220.829 2438.37 223.468 Q2440.66 226.083 2444.8 226.083 Q2446.66 226.083 2448.46 225.597 Q2450.29 225.088 2452.1 224.093 L2452.1 228.028 Q2450.31 228.861 2448.39 229.278 Q2446.49 229.695 2444.34 229.695 Q2438.48 229.695 2435.04 226.014 Q2431.59 222.334 2431.59 216.084 Q2431.59 209.741 2435.06 206.107 Q2438.55 202.473 2444.62 202.473 Q2446.59 202.473 2448.46 202.889 Q2450.34 203.283 2452.1 204.093 Z" fill="#000000" fill-rule="nonzero" fill-opacity="1" /><path clip-path="url(#clip870)" d="M2474.53 207.079 Q2473.81 206.662 2472.95 206.477 Q2472.12 206.269 2471.1 206.269 Q2467.49 206.269 2465.54 208.63 Q2463.62 210.968 2463.62 215.366 L2463.62 229.023 L2459.34 229.023 L2459.34 203.098 L2463.62 203.098 L2463.62 207.125 Q2464.97 204.764 2467.12 203.63 Q2469.27 202.473 2472.35 202.473 Q2472.79 202.473 2473.32 202.542 Q2473.85 202.588 2474.5 202.704 L2474.53 207.079 Z" fill="#000000" fill-rule="nonzero" fill-opacity="1" /><path clip-path="url(#clip870)" d="M2500.13 214.996 L2500.13 217.079 L2480.54 217.079 Q2480.82 221.477 2483.18 223.792 Q2485.57 226.083 2489.8 226.083 Q2492.26 226.083 2494.55 225.482 Q2496.86 224.88 2499.13 223.676 L2499.13 227.704 Q2496.84 228.676 2494.43 229.185 Q2492.03 229.695 2489.55 229.695 Q2483.35 229.695 2479.71 226.083 Q2476.1 222.472 2476.1 216.315 Q2476.1 209.949 2479.53 206.222 Q2482.98 202.473 2488.81 202.473 Q2494.04 202.473 2497.07 205.852 Q2500.13 209.209 2500.13 214.996 M2495.87 213.746 Q2495.82 210.25 2493.9 208.167 Q2492 206.084 2488.85 206.084 Q2485.29 206.084 2483.14 208.097 Q2481.01 210.111 2480.68 213.769 L2495.87 213.746 Z" fill="#000000" fill-rule="nonzero" fill-opacity="1" /><path clip-path="url(#clip870)" d="M2511.33 195.736 L2511.33 203.098 L2520.1 203.098 L2520.1 206.408 L2511.33 206.408 L2511.33 220.482 Q2511.33 223.653 2512.19 224.556 Q2513.07 225.458 2515.73 225.458 L2520.1 225.458 L2520.1 229.023 L2515.73 229.023 Q2510.8 229.023 2508.92 227.195 Q2507.05 225.343 2507.05 220.482 L2507.05 206.408 L2503.92 206.408 L2503.92 203.098 L2507.05 203.098 L2507.05 195.736 L2511.33 195.736 Z" fill="#000000" fill-rule="nonzero" fill-opacity="1" /><path clip-path="url(#clip870)" d="M2547.88 214.996 L2547.88 217.079 L2528.3 217.079 Q2528.58 221.477 2530.94 223.792 Q2533.32 226.083 2537.56 226.083 Q2540.01 226.083 2542.3 225.482 Q2544.62 224.88 2546.89 223.676 L2546.89 227.704 Q2544.6 228.676 2542.19 229.185 Q2539.78 229.695 2537.3 229.695 Q2531.1 229.695 2527.47 226.083 Q2523.85 222.472 2523.85 216.315 Q2523.85 209.949 2527.28 206.222 Q2530.73 202.473 2536.56 202.473 Q2541.79 202.473 2544.83 205.852 Q2547.88 209.209 2547.88 214.996 M2543.62 213.746 Q2543.58 210.25 2541.66 208.167 Q2539.76 206.084 2536.61 206.084 Q2533.04 206.084 2530.89 208.097 Q2528.76 210.111 2528.44 213.769 L2543.62 213.746 Z" fill="#000000" fill-rule="nonzero" fill-opacity="1" /><path clip-path="url(#clip870)" d="M2560.36 192.797 L2560.36 240.204 L2556.42 240.204 L2556.42 192.797 L2560.36 192.797 Z" fill="#000000" fill-rule="nonzero" fill-opacity="1" /></svg>
