<?xml version="1.0" encoding="utf-8"?>
<svg xmlns="http://www.w3.org/2000/svg" xmlns:xlink="http://www.w3.org/1999/xlink" width="760" height="420" viewBox="0 0 3040 1680">
<defs>
  <clipPath id="clip560">
    <rect x="0" y="0" width="3040" height="1680"/>
  </clipPath>
</defs>
<path clip-path="url(#clip560)" d="M0 1680 L3040 1680 L3040 9.14356e-14 L0 9.14356e-14  Z" fill="#ffffff" fill-rule="evenodd" fill-opacity="1"/>
<defs>
  <clipPath id="clip561">
    <rect x="222" y="0" width="2313" height="1680"/>
  </clipPath>
</defs>
<path clip-path="url(#clip560)" d="M172.42 1516.42 L2672.08 1516.42 L2672.08 113.127 L172.42 113.127  Z" fill="#ffffff" fill-rule="evenodd" fill-opacity="1"/>
<defs>
  <clipPath id="clip562">
    <rect x="172" y="113" width="2501" height="1404"/>
  </clipPath>
</defs>
<polyline clip-path="url(#clip562)" style="stroke:#000000; stroke-linecap:round; stroke-linejoin:round; stroke-width:2; stroke-opacity:0.1; fill:none" points="243.166,1516.42 243.166,113.127 "/>
<polyline clip-path="url(#clip562)" style="stroke:#000000; stroke-linecap:round; stroke-linejoin:round; stroke-width:2; stroke-opacity:0.1; fill:none" points="823.425,1516.42 823.425,113.127 "/>
<polyline clip-path="url(#clip562)" style="stroke:#000000; stroke-linecap:round; stroke-linejoin:round; stroke-width:2; stroke-opacity:0.1; fill:none" points="1403.68,1516.42 1403.68,113.127 "/>
<polyline clip-path="url(#clip562)" style="stroke:#000000; stroke-linecap:round; stroke-linejoin:round; stroke-width:2; stroke-opacity:0.1; fill:none" points="1983.94,1516.42 1983.94,113.127 "/>
<polyline clip-path="url(#clip562)" style="stroke:#000000; stroke-linecap:round; stroke-linejoin:round; stroke-width:2; stroke-opacity:0.1; fill:none" points="2564.2,1516.42 2564.2,113.127 "/>
<polyline clip-path="url(#clip560)" style="stroke:#000000; stroke-linecap:round; stroke-linejoin:round; stroke-width:4; stroke-opacity:1; fill:none" points="172.42,1516.42 2672.08,1516.42 "/>
<polyline clip-path="url(#clip560)" style="stroke:#000000; stroke-linecap:round; stroke-linejoin:round; stroke-width:4; stroke-opacity:1; fill:none" points="243.166,1516.42 243.166,1497.52 "/>
<polyline clip-path="url(#clip560)" style="stroke:#000000; stroke-linecap:round; stroke-linejoin:round; stroke-width:4; stroke-opacity:1; fill:none" points="823.425,1516.42 823.425,1497.52 "/>
<polyline clip-path="url(#clip560)" style="stroke:#000000; stroke-linecap:round; stroke-linejoin:round; stroke-width:4; stroke-opacity:1; fill:none" points="1403.68,1516.42 1403.68,1497.52 "/>
<polyline clip-path="url(#clip560)" style="stroke:#000000; stroke-linecap:round; stroke-linejoin:round; stroke-width:4; stroke-opacity:1; fill:none" points="1983.94,1516.42 1983.94,1497.52 "/>
<polyline clip-path="url(#clip560)" style="stroke:#000000; stroke-linecap:round; stroke-linejoin:round; stroke-width:4; stroke-opacity:1; fill:none" points="2564.2,1516.42 2564.2,1497.52 "/>
<path clip-path="url(#clip560)" d="M220.55 1552.46 Q216.939 1552.46 215.11 1556.02 Q213.305 1559.56 213.305 1566.69 Q213.305 1573.8 215.11 1577.37 Q216.939 1580.91 220.55 1580.91 Q224.184 1580.91 225.99 1577.37 Q227.819 1573.8 227.819 1566.69 Q227.819 1559.56 225.99 1556.02 Q224.184 1552.46 220.55 1552.46 M220.55 1548.75 Q226.36 1548.75 229.416 1553.36 Q232.494 1557.94 232.494 1566.69 Q232.494 1575.42 229.416 1580.03 Q226.36 1584.61 220.55 1584.61 Q214.74 1584.61 211.661 1580.03 Q208.606 1575.42 208.606 1566.69 Q208.606 1557.94 211.661 1553.36 Q214.74 1548.75 220.55 1548.75 Z" fill="#000000" fill-rule="nonzero" fill-opacity="1" /><path clip-path="url(#clip560)" d="M240.712 1578.06 L245.596 1578.06 L245.596 1583.94 L240.712 1583.94 L240.712 1578.06 Z" fill="#000000" fill-rule="nonzero" fill-opacity="1" /><path clip-path="url(#clip560)" d="M265.781 1552.46 Q262.17 1552.46 260.342 1556.02 Q258.536 1559.56 258.536 1566.69 Q258.536 1573.8 260.342 1577.37 Q262.17 1580.91 265.781 1580.91 Q269.416 1580.91 271.221 1577.37 Q273.05 1573.8 273.05 1566.69 Q273.05 1559.56 271.221 1556.02 Q269.416 1552.46 265.781 1552.46 M265.781 1548.75 Q271.591 1548.75 274.647 1553.36 Q277.726 1557.94 277.726 1566.69 Q277.726 1575.42 274.647 1580.03 Q271.591 1584.61 265.781 1584.61 Q259.971 1584.61 256.892 1580.03 Q253.837 1575.42 253.837 1566.69 Q253.837 1557.94 256.892 1553.36 Q259.971 1548.75 265.781 1548.75 Z" fill="#000000" fill-rule="nonzero" fill-opacity="1" /><path clip-path="url(#clip560)" d="M795.161 1580 L811.481 1580 L811.481 1583.94 L789.536 1583.94 L789.536 1580 Q792.198 1577.25 796.782 1572.62 Q801.388 1567.97 802.569 1566.63 Q804.814 1564.1 805.694 1562.37 Q806.596 1560.61 806.596 1558.92 Q806.596 1556.16 804.652 1554.43 Q802.731 1552.69 799.629 1552.69 Q797.43 1552.69 794.976 1553.45 Q792.545 1554.22 789.768 1555.77 L789.768 1551.05 Q792.592 1549.91 795.045 1549.33 Q797.499 1548.75 799.536 1548.75 Q804.906 1548.75 808.101 1551.44 Q811.295 1554.13 811.295 1558.62 Q811.295 1560.75 810.485 1562.67 Q809.698 1564.56 807.592 1567.16 Q807.013 1567.83 803.911 1571.05 Q800.809 1574.24 795.161 1580 Z" fill="#000000" fill-rule="nonzero" fill-opacity="1" /><path clip-path="url(#clip560)" d="M821.295 1578.06 L826.18 1578.06 L826.18 1583.94 L821.295 1583.94 L821.295 1578.06 Z" fill="#000000" fill-rule="nonzero" fill-opacity="1" /><path clip-path="url(#clip560)" d="M836.411 1549.38 L854.767 1549.38 L854.767 1553.32 L840.693 1553.32 L840.693 1561.79 Q841.712 1561.44 842.73 1561.28 Q843.749 1561.09 844.767 1561.09 Q850.554 1561.09 853.934 1564.26 Q857.314 1567.44 857.314 1572.85 Q857.314 1578.43 853.841 1581.53 Q850.369 1584.61 844.05 1584.61 Q841.874 1584.61 839.605 1584.24 Q837.36 1583.87 834.953 1583.13 L834.953 1578.43 Q837.036 1579.56 839.258 1580.12 Q841.48 1580.68 843.957 1580.68 Q847.962 1580.68 850.3 1578.57 Q852.638 1576.46 852.638 1572.85 Q852.638 1569.24 850.3 1567.13 Q847.962 1565.03 843.957 1565.03 Q842.082 1565.03 840.207 1565.44 Q838.355 1565.86 836.411 1566.74 L836.411 1549.38 Z" fill="#000000" fill-rule="nonzero" fill-opacity="1" /><path clip-path="url(#clip560)" d="M1370.85 1549.38 L1389.21 1549.38 L1389.21 1553.32 L1375.13 1553.32 L1375.13 1561.79 Q1376.15 1561.44 1377.17 1561.28 Q1378.19 1561.09 1379.21 1561.09 Q1384.99 1561.09 1388.37 1564.26 Q1391.75 1567.44 1391.75 1572.85 Q1391.75 1578.43 1388.28 1581.53 Q1384.81 1584.61 1378.49 1584.61 Q1376.31 1584.61 1374.04 1584.24 Q1371.8 1583.87 1369.39 1583.13 L1369.39 1578.43 Q1371.47 1579.56 1373.7 1580.12 Q1375.92 1580.68 1378.39 1580.68 Q1382.4 1580.68 1384.74 1578.57 Q1387.08 1576.46 1387.08 1572.85 Q1387.08 1569.24 1384.74 1567.13 Q1382.4 1565.03 1378.39 1565.03 Q1376.52 1565.03 1374.64 1565.44 Q1372.79 1565.86 1370.85 1566.74 L1370.85 1549.38 Z" fill="#000000" fill-rule="nonzero" fill-opacity="1" /><path clip-path="url(#clip560)" d="M1400.96 1578.06 L1405.85 1578.06 L1405.85 1583.94 L1400.96 1583.94 L1400.96 1578.06 Z" fill="#000000" fill-rule="nonzero" fill-opacity="1" /><path clip-path="url(#clip560)" d="M1426.03 1552.46 Q1422.42 1552.46 1420.59 1556.02 Q1418.79 1559.56 1418.79 1566.69 Q1418.79 1573.8 1420.59 1577.37 Q1422.42 1580.91 1426.03 1580.91 Q1429.67 1580.91 1431.47 1577.37 Q1433.3 1573.8 1433.3 1566.69 Q1433.3 1559.56 1431.47 1556.02 Q1429.67 1552.46 1426.03 1552.46 M1426.03 1548.75 Q1431.84 1548.75 1434.9 1553.36 Q1437.98 1557.94 1437.98 1566.69 Q1437.98 1575.42 1434.9 1580.03 Q1431.84 1584.61 1426.03 1584.61 Q1420.22 1584.61 1417.14 1580.03 Q1414.09 1575.42 1414.09 1566.69 Q1414.09 1557.94 1417.14 1553.36 Q1420.22 1548.75 1426.03 1548.75 Z" fill="#000000" fill-rule="nonzero" fill-opacity="1" /><path clip-path="url(#clip560)" d="M1950.26 1549.38 L1972.49 1549.38 L1972.49 1551.37 L1959.94 1583.94 L1955.05 1583.94 L1966.86 1553.32 L1950.26 1553.32 L1950.26 1549.38 Z" fill="#000000" fill-rule="nonzero" fill-opacity="1" /><path clip-path="url(#clip560)" d="M1981.61 1578.06 L1986.49 1578.06 L1986.49 1583.94 L1981.61 1583.94 L1981.61 1578.06 Z" fill="#000000" fill-rule="nonzero" fill-opacity="1" /><path clip-path="url(#clip560)" d="M1996.72 1549.38 L2015.08 1549.38 L2015.08 1553.32 L2001 1553.32 L2001 1561.79 Q2002.02 1561.44 2003.04 1561.28 Q2004.06 1561.09 2005.08 1561.09 Q2010.86 1561.09 2014.24 1564.26 Q2017.62 1567.44 2017.62 1572.85 Q2017.62 1578.43 2014.15 1581.53 Q2010.68 1584.61 2004.36 1584.61 Q2002.18 1584.61 1999.92 1584.24 Q1997.67 1583.87 1995.26 1583.13 L1995.26 1578.43 Q1997.35 1579.56 1999.57 1580.12 Q2001.79 1580.68 2004.27 1580.68 Q2008.27 1580.68 2010.61 1578.57 Q2012.95 1576.46 2012.95 1572.85 Q2012.95 1569.24 2010.61 1567.13 Q2008.27 1565.03 2004.27 1565.03 Q2002.39 1565.03 2000.52 1565.44 Q1998.67 1565.86 1996.72 1566.74 L1996.72 1549.38 Z" fill="#000000" fill-rule="nonzero" fill-opacity="1" /><path clip-path="url(#clip560)" d="M2516.27 1580 L2523.91 1580 L2523.91 1553.64 L2515.6 1555.31 L2515.6 1551.05 L2523.87 1549.38 L2528.54 1549.38 L2528.54 1580 L2536.18 1580 L2536.18 1583.94 L2516.27 1583.94 L2516.27 1580 Z" fill="#000000" fill-rule="nonzero" fill-opacity="1" /><path clip-path="url(#clip560)" d="M2555.63 1552.46 Q2552.02 1552.46 2550.19 1556.02 Q2548.38 1559.56 2548.38 1566.69 Q2548.38 1573.8 2550.19 1577.37 Q2552.02 1580.91 2555.63 1580.91 Q2559.26 1580.91 2561.07 1577.37 Q2562.89 1573.8 2562.89 1566.69 Q2562.89 1559.56 2561.07 1556.02 Q2559.26 1552.46 2555.63 1552.46 M2555.63 1548.75 Q2561.44 1548.75 2564.49 1553.36 Q2567.57 1557.94 2567.57 1566.69 Q2567.57 1575.42 2564.49 1580.03 Q2561.44 1584.61 2555.63 1584.61 Q2549.82 1584.61 2546.74 1580.03 Q2543.68 1575.42 2543.68 1566.69 Q2543.68 1557.94 2546.74 1553.36 Q2549.82 1548.75 2555.63 1548.75 Z" fill="#000000" fill-rule="nonzero" fill-opacity="1" /><path clip-path="url(#clip560)" d="M2575.79 1578.06 L2580.67 1578.06 L2580.67 1583.94 L2575.79 1583.94 L2575.79 1578.06 Z" fill="#000000" fill-rule="nonzero" fill-opacity="1" /><path clip-path="url(#clip560)" d="M2600.86 1552.46 Q2597.25 1552.46 2595.42 1556.02 Q2593.61 1559.56 2593.61 1566.69 Q2593.61 1573.8 2595.42 1577.37 Q2597.25 1580.91 2600.86 1580.91 Q2604.49 1580.91 2606.3 1577.37 Q2608.13 1573.8 2608.13 1566.69 Q2608.13 1559.56 2606.3 1556.02 Q2604.49 1552.46 2600.86 1552.46 M2600.86 1548.75 Q2606.67 1548.75 2609.72 1553.36 Q2612.8 1557.94 2612.8 1566.69 Q2612.8 1575.42 2609.72 1580.03 Q2606.67 1584.61 2600.86 1584.61 Q2595.05 1584.61 2591.97 1580.03 Q2588.91 1575.42 2588.91 1566.69 Q2588.91 1557.94 2591.97 1553.36 Q2595.05 1548.75 2600.86 1548.75 Z" fill="#000000" fill-rule="nonzero" fill-opacity="1" /><path clip-path="url(#clip560)" d="M1431.23 1632.96 Q1431.23 1634.76 1430.33 1635.73 Q1429.42 1636.66 1428.2 1636.66 Q1427.2 1636.66 1426.65 1636.08 Q1426.14 1635.5 1426.14 1634.73 Q1426.14 1633.6 1427.04 1632.7 Q1427.98 1631.8 1429.33 1631.76 Q1428.88 1630.57 1427.69 1629.86 Q1426.49 1629.12 1425.43 1628.93 Q1424.4 1628.74 1423.37 1628.74 Q1421.34 1628.74 1419.79 1629.38 Q1418.25 1630.03 1417.48 1631.02 Q1416.7 1631.99 1416.35 1632.92 Q1415.99 1633.86 1415.99 1634.66 Q1415.99 1635.37 1416.16 1635.95 Q1416.35 1636.5 1416.8 1636.92 Q1417.25 1637.3 1417.57 1637.56 Q1417.93 1637.82 1418.7 1638.04 Q1419.47 1638.27 1419.79 1638.37 Q1420.12 1638.43 1421.02 1638.62 Q1422.89 1639.01 1423.72 1639.24 Q1424.56 1639.43 1425.66 1639.98 Q1426.78 1640.52 1427.62 1641.39 Q1429.65 1643.42 1429.65 1646.22 Q1429.65 1647.26 1429.3 1648.51 Q1428.97 1649.77 1428.04 1651.35 Q1427.11 1652.92 1425.69 1654.18 Q1424.27 1655.44 1421.82 1656.3 Q1419.41 1657.17 1416.38 1657.17 Q1412.16 1657.17 1409.55 1655.4 Q1406.94 1653.6 1406.94 1650.77 Q1406.94 1648.7 1408.07 1647.58 Q1409.2 1646.42 1410.65 1646.42 Q1411.74 1646.42 1412.42 1647.03 Q1413.1 1647.61 1413.1 1648.7 Q1413.1 1650.19 1411.9 1651.31 Q1410.71 1652.44 1408.94 1652.21 Q1410.46 1655.69 1416.45 1655.69 Q1418.7 1655.69 1420.44 1655.11 Q1422.21 1654.5 1423.18 1653.66 Q1424.17 1652.79 1424.82 1651.73 Q1425.46 1650.67 1425.66 1649.86 Q1425.88 1649.06 1425.88 1648.45 Q1425.88 1647.38 1425.46 1646.58 Q1425.04 1645.77 1424.46 1645.32 Q1423.92 1644.84 1422.85 1644.45 Q1421.82 1644.03 1421.08 1643.87 Q1420.34 1643.71 1419.02 1643.45 Q1418.41 1643.33 1418.02 1643.26 Q1417.64 1643.17 1416.83 1642.91 Q1416.06 1642.62 1415.51 1642.33 Q1415 1642.04 1414.32 1641.52 Q1413.64 1641.01 1413.22 1640.4 Q1412.81 1639.78 1412.52 1638.88 Q1412.23 1637.98 1412.23 1636.92 Q1412.23 1635.95 1412.52 1634.79 Q1412.84 1633.63 1413.64 1632.28 Q1414.48 1630.93 1415.67 1629.83 Q1416.86 1628.74 1418.86 1628.03 Q1420.89 1627.29 1423.37 1627.29 Q1426.98 1627.29 1429.1 1628.96 Q1431.23 1630.6 1431.23 1632.96 Z" fill="#000000" fill-rule="nonzero" fill-opacity="1" /><polyline clip-path="url(#clip560)" style="stroke:#000000; stroke-linecap:round; stroke-linejoin:round; stroke-width:4; stroke-opacity:1; fill:none" points="172.42,1516.42 172.42,113.127 "/>
<polyline clip-path="url(#clip560)" style="stroke:#000000; stroke-linecap:round; stroke-linejoin:round; stroke-width:4; stroke-opacity:1; fill:none" points="172.42,1480.15 191.318,1480.15 "/>
<polyline clip-path="url(#clip560)" style="stroke:#000000; stroke-linecap:round; stroke-linejoin:round; stroke-width:4; stroke-opacity:1; fill:none" points="172.42,1078.96 191.318,1078.96 "/>
<polyline clip-path="url(#clip560)" style="stroke:#000000; stroke-linecap:round; stroke-linejoin:round; stroke-width:4; stroke-opacity:1; fill:none" points="172.42,677.776 191.318,677.776 "/>
<polyline clip-path="url(#clip560)" style="stroke:#000000; stroke-linecap:round; stroke-linejoin:round; stroke-width:4; stroke-opacity:1; fill:none" points="172.42,276.588 191.318,276.588 "/>
<path clip-path="url(#clip560)" d="M114.876 1465.95 Q111.265 1465.95 109.436 1469.52 Q107.631 1473.06 107.631 1480.19 Q107.631 1487.29 109.436 1490.86 Q111.265 1494.4 114.876 1494.4 Q118.51 1494.4 120.316 1490.86 Q122.145 1487.29 122.145 1480.19 Q122.145 1473.06 120.316 1469.52 Q118.51 1465.95 114.876 1465.95 M114.876 1462.25 Q120.686 1462.25 123.742 1466.85 Q126.82 1471.44 126.82 1480.19 Q126.82 1488.91 123.742 1493.52 Q120.686 1498.1 114.876 1498.1 Q109.066 1498.1 105.987 1493.52 Q102.932 1488.91 102.932 1480.19 Q102.932 1471.44 105.987 1466.85 Q109.066 1462.25 114.876 1462.25 Z" fill="#000000" fill-rule="nonzero" fill-opacity="1" /><path clip-path="url(#clip560)" d="M106.913 1092.31 L114.552 1092.31 L114.552 1065.94 L106.242 1067.61 L106.242 1063.35 L114.506 1061.68 L119.182 1061.68 L119.182 1092.31 L126.82 1092.31 L126.82 1096.24 L106.913 1096.24 L106.913 1092.31 Z" fill="#000000" fill-rule="nonzero" fill-opacity="1" /><path clip-path="url(#clip560)" d="M110.501 691.121 L126.82 691.121 L126.82 695.056 L104.876 695.056 L104.876 691.121 Q107.538 688.366 112.122 683.736 Q116.728 679.084 117.909 677.741 Q120.154 675.218 121.033 673.482 Q121.936 671.723 121.936 670.033 Q121.936 667.278 119.992 665.542 Q118.071 663.806 114.969 663.806 Q112.77 663.806 110.316 664.57 Q107.885 665.334 105.108 666.885 L105.108 662.162 Q107.932 661.028 110.385 660.449 Q112.839 659.871 114.876 659.871 Q120.246 659.871 123.441 662.556 Q126.635 665.241 126.635 669.732 Q126.635 671.861 125.825 673.783 Q125.038 675.681 122.932 678.273 Q122.353 678.945 119.251 682.162 Q116.149 685.357 110.501 691.121 Z" fill="#000000" fill-rule="nonzero" fill-opacity="1" /><path clip-path="url(#clip560)" d="M119.691 275.233 Q123.047 275.951 124.922 278.22 Q126.82 280.488 126.82 283.821 Q126.82 288.937 123.302 291.738 Q119.783 294.539 113.302 294.539 Q111.126 294.539 108.811 294.099 Q106.52 293.682 104.066 292.826 L104.066 288.312 Q106.01 289.446 108.325 290.025 Q110.64 290.604 113.163 290.604 Q117.561 290.604 119.853 288.868 Q122.168 287.132 122.168 283.821 Q122.168 280.766 120.015 279.053 Q117.885 277.317 114.066 277.317 L110.038 277.317 L110.038 273.474 L114.251 273.474 Q117.7 273.474 119.529 272.108 Q121.358 270.72 121.358 268.127 Q121.358 265.465 119.459 264.053 Q117.584 262.618 114.066 262.618 Q112.145 262.618 109.946 263.034 Q107.747 263.451 105.108 264.331 L105.108 260.164 Q107.77 259.423 110.084 259.053 Q112.422 258.683 114.483 258.683 Q119.807 258.683 122.908 261.113 Q126.01 263.521 126.01 267.641 Q126.01 270.511 124.367 272.502 Q122.723 274.47 119.691 275.233 Z" fill="#000000" fill-rule="nonzero" fill-opacity="1" /><path clip-path="url(#clip560)" d="M28.8517 838.32 Q29.0449 838.32 29.7857 838.577 L44.0207 843.795 Q44.858 844.084 45.019 844.374 Q45.1479 844.664 45.1479 845.856 L45.1479 876.387 Q45.1479 877.128 45.1157 877.418 Q45.0834 877.707 44.9224 877.933 Q44.7614 878.158 44.4071 878.158 Q43.763 878.158 43.4732 877.933 Q43.1833 877.675 43.1511 877.385 Q43.1189 877.095 43.1189 876.387 Q43.1189 874.777 43.0223 873.81 Q42.9257 872.844 42.7968 872.232 Q42.6358 871.588 42.1849 871.266 Q41.734 870.912 41.3476 870.751 Q40.9289 870.59 39.9949 870.364 L4.56848 861.54 Q3.50568 861.282 3.34465 861.282 Q2.73274 861.282 2.57171 861.669 Q2.37848 862.023 2.28186 863.054 L2.15304 865.566 Q2.15304 866.339 2.12083 866.661 Q2.08862 866.951 1.9276 867.176 Q1.76657 867.401 1.4123 867.401 Q0.80039 867.401 0.510538 867.176 Q0.188479 866.918 0.156273 866.725 Q0.0918614 866.5 0.0918614 866.145 L0.285097 857.385 L0.0918614 847.627 Q0.0918614 846.564 0.897008 846.564 Q1.79877 846.564 1.99201 847.015 Q2.15304 847.466 2.15304 849.076 Q2.15304 852.168 2.4751 853.585 Q2.79715 854.97 3.34465 855.357 Q3.85995 855.711 5.2448 856.065 L40.8645 864.986 Q42.0561 865.308 42.3782 865.308 Q42.7324 865.308 42.8612 865.147 Q42.9579 864.954 43.0223 864.439 Q43.1189 863.859 43.1189 862.989 L43.1189 856.806 Q43.1189 854.938 42.829 853.295 Q42.5392 851.653 42.1205 850.397 Q41.7018 849.109 40.9289 847.949 Q40.156 846.79 39.4796 845.985 Q38.7711 845.147 37.6761 844.342 Q36.5489 843.505 35.776 843.022 Q34.9708 842.506 33.6826 841.927 Q32.3621 841.347 31.6214 841.057 Q30.8485 840.735 29.528 840.252 Q28.8517 839.962 28.6585 839.865 Q28.4652 839.769 28.3042 839.608 Q28.1432 839.415 28.1432 839.125 Q28.1432 838.738 28.3686 838.545 Q28.594 838.32 28.8517 838.32 Z" fill="#000000" fill-rule="nonzero" fill-opacity="1" /><path clip-path="url(#clip560)" d="M28.6585 830.006 Q17.5152 830.006 8.5298 825.852 Q4.76171 824.081 1.60554 821.601 Q-1.55064 819.121 -2.93549 817.478 Q-4.32034 815.836 -4.32034 815.385 Q-4.32034 814.741 -3.67622 814.709 Q-3.35417 814.709 -2.54902 815.578 Q8.27215 826.206 28.6585 826.174 Q49.1092 826.174 59.5117 815.836 Q60.6389 814.709 60.9931 814.709 Q61.6373 814.709 61.6373 815.385 Q61.6373 815.836 60.3168 817.414 Q58.9964 818.992 55.969 821.44 Q52.9417 823.887 49.238 825.659 Q40.2526 830.006 28.6585 830.006 Z" fill="#000000" fill-rule="nonzero" fill-opacity="1" /><path clip-path="url(#clip560)" d="M21.6698 784.098 Q23.4733 784.098 24.4395 785 Q25.3735 785.901 25.3735 787.125 Q25.3735 788.124 24.7938 788.671 Q24.2141 789.186 23.4411 789.186 Q22.3139 789.186 21.4121 788.285 Q20.5104 787.351 20.4782 785.998 Q19.2866 786.449 18.578 787.64 Q17.8373 788.832 17.6441 789.895 Q17.4508 790.925 17.4508 791.956 Q17.4508 793.985 18.0949 795.531 Q18.7391 797.077 19.7374 797.85 Q20.7036 798.623 21.6376 798.977 Q22.5716 799.331 23.3767 799.331 Q24.0852 799.331 24.6649 799.17 Q25.2124 798.977 25.6311 798.526 Q26.0176 798.075 26.2752 797.753 Q26.5329 797.399 26.7583 796.626 Q26.9838 795.853 27.0804 795.531 Q27.1448 795.209 27.338 794.307 Q27.7245 792.439 27.9499 791.602 Q28.1432 790.764 28.6907 789.669 Q29.2382 788.542 30.1077 787.705 Q32.1367 785.676 34.9386 785.676 Q35.9692 785.676 37.2252 786.03 Q38.4812 786.352 40.0593 787.286 Q41.6374 788.22 42.8935 789.637 Q44.1495 791.054 45.019 793.502 Q45.8886 795.917 45.8886 798.945 Q45.8886 803.164 44.1173 805.772 Q42.3137 808.381 39.4796 808.381 Q37.4185 808.381 36.2912 807.254 Q35.1318 806.127 35.1318 804.677 Q35.1318 803.582 35.7437 802.906 Q36.3235 802.23 37.4185 802.23 Q38.8999 802.23 40.0271 803.421 Q41.1543 804.613 40.9289 806.384 Q44.4071 804.871 44.4071 798.88 Q44.4071 796.626 43.8274 794.887 Q43.2155 793.115 42.3782 792.149 Q41.5086 791.151 40.4458 790.507 Q39.383 789.863 38.5779 789.669 Q37.7727 789.444 37.1608 789.444 Q36.098 789.444 35.2929 789.863 Q34.4877 790.281 34.0368 790.861 Q33.5538 791.409 33.1673 792.471 Q32.7486 793.502 32.5876 794.243 Q32.4265 794.983 32.1689 796.304 Q32.0401 796.916 31.9757 797.302 Q31.879 797.689 31.6214 798.494 Q31.3315 799.267 31.0417 799.814 Q30.7518 800.33 30.2365 801.006 Q29.7213 801.682 29.1093 802.101 Q28.4974 802.52 27.5957 802.809 Q26.6939 803.099 25.6311 803.099 Q24.6649 803.099 23.5055 802.809 Q22.3461 802.487 20.9935 801.682 Q19.6408 800.845 18.5458 799.653 Q17.4508 798.462 16.7423 796.465 Q16.0016 794.436 16.0016 791.956 Q16.0016 788.349 17.6763 786.223 Q19.3188 784.098 21.6698 784.098 Z" fill="#000000" fill-rule="nonzero" fill-opacity="1" /><path clip-path="url(#clip560)" d="M60.9931 776.71 Q60.6711 776.71 59.8659 775.872 Q49.0448 765.245 28.6585 765.245 Q8.20774 765.245 -2.13034 775.454 Q-3.32196 776.71 -3.67622 776.71 Q-4.32034 776.71 -4.32034 776.066 Q-4.32034 775.615 -2.9999 774.037 Q-1.67946 772.426 1.34789 770.011 Q4.37524 767.563 8.07892 765.76 Q17.0644 761.412 28.6585 761.412 Q39.8017 761.412 48.7871 765.567 Q52.5552 767.338 55.7114 769.818 Q58.8676 772.298 60.2524 773.94 Q61.6373 775.583 61.6373 776.066 Q61.6373 776.71 60.9931 776.71 Z" fill="#000000" fill-rule="nonzero" fill-opacity="1" /><path clip-path="url(#clip560)" d="M1243.26 22.0773 Q1243.26 24.3318 1241.83 25.7254 Q1240.43 27.119 1238.67 27.119 Q1237.4 27.119 1236.46 26.3402 Q1235.56 25.5614 1235.56 24.2088 Q1235.56 22.8152 1236.62 21.3395 Q1237.69 19.8639 1240.11 19.659 Q1238.51 18.1424 1235.97 18.1424 Q1234.7 18.1424 1233.63 18.9622 Q1232.61 19.741 1232.03 21.0116 Q1231.42 22.3233 1230.02 29.7423 Q1229.57 32.1607 1229.16 34.4971 Q1228.75 36.8335 1228.26 39.2928 L1235.23 39.2928 Q1236.13 39.2928 1236.5 39.3338 Q1236.87 39.3748 1237.16 39.5798 Q1237.48 39.7847 1237.48 40.2356 Q1237.48 41.3833 1236.95 41.6702 Q1236.46 41.9162 1234.98 41.9162 L1227.77 41.9162 L1222.73 68.5182 Q1222.6 69.297 1222.07 71.7564 Q1221.58 74.1747 1220.39 78.1507 Q1219.2 82.1676 1218.01 84.545 Q1217.36 85.8977 1216.5 87.1683 Q1215.68 88.48 1214.49 89.7916 Q1213.3 91.1033 1211.74 91.8821 Q1210.18 92.7019 1208.55 92.7019 Q1205.76 92.7019 1203.59 91.1443 Q1201.41 89.5867 1201.41 86.9224 Q1201.41 84.668 1202.81 83.2743 Q1204.24 81.8807 1206 81.8807 Q1207.27 81.8807 1208.18 82.6595 Q1209.12 83.4383 1209.12 84.7909 Q1209.12 85.3648 1208.91 86.0206 Q1208.71 86.6764 1208.26 87.4143 Q1207.81 88.1931 1206.82 88.7259 Q1205.84 89.2588 1204.49 89.3408 Q1206.09 90.8574 1208.55 90.8574 Q1209.32 90.8574 1210.02 90.5294 Q1210.72 90.2425 1211.29 89.5047 Q1211.91 88.7669 1212.36 88.0291 Q1212.81 87.3323 1213.26 85.9796 Q1213.71 84.668 1214 83.6842 Q1214.28 82.7005 1214.65 80.9379 Q1215.06 79.1754 1215.27 78.1097 Q1215.47 77.085 1215.84 75.0765 L1222.11 41.9162 L1216.58 41.9162 Q1215.6 41.9162 1215.19 41.8752 Q1214.82 41.8342 1214.53 41.6292 Q1214.24 41.3833 1214.24 40.8914 Q1214.24 40.1126 1214.57 39.7847 Q1214.94 39.4158 1215.35 39.3748 Q1215.76 39.2928 1216.74 39.2928 L1222.56 39.2928 Q1224.53 28.9226 1225.31 26.1353 Q1226.21 23.1841 1227.61 21.1346 Q1229 19.0441 1230.56 18.0604 Q1232.11 17.0767 1233.38 16.7078 Q1234.7 16.2979 1235.97 16.2979 Q1238.84 16.2979 1241.05 17.8555 Q1243.26 19.3721 1243.26 22.0773 Z" fill="#000000" fill-rule="nonzero" fill-opacity="1" /><path clip-path="url(#clip560)" d="M1254.57 54.4999 Q1254.57 40.3176 1259.85 28.8816 Q1262.11 24.0858 1265.26 20.0689 Q1268.42 16.0519 1270.51 14.2894 Q1272.6 12.5268 1273.17 12.5268 Q1273.99 12.5268 1274.03 13.3466 Q1274.03 13.7565 1272.93 14.7813 Q1259.4 28.5537 1259.44 54.4999 Q1259.44 80.5281 1272.6 93.7676 Q1274.03 95.2022 1274.03 95.6531 Q1274.03 96.4729 1273.17 96.4729 Q1272.6 96.4729 1270.59 94.7923 Q1268.58 93.1118 1265.47 89.2588 Q1262.35 85.4058 1260.1 80.692 Q1254.57 69.256 1254.57 54.4999 Z" fill="#000000" fill-rule="nonzero" fill-opacity="1" /><path clip-path="url(#clip560)" d="M1306.2 40.2356 Q1306.2 41.3833 1305.67 41.6702 Q1305.13 41.9162 1303.66 41.9162 L1295.79 41.9162 L1289.56 66.6737 Q1289.06 68.8461 1289.06 70.6906 Q1289.06 72.7401 1289.68 73.6419 Q1290.34 74.5436 1291.69 74.5436 Q1294.35 74.5436 1297.22 72.1253 Q1300.13 69.7069 1302.59 63.8044 Q1302.92 63.0256 1303.08 62.8617 Q1303.29 62.6567 1303.82 62.6567 Q1304.85 62.6567 1304.85 63.4765 Q1304.85 63.7634 1304.27 65.0751 Q1303.74 66.3868 1302.55 68.3133 Q1301.4 70.2397 1299.89 72.0433 Q1298.41 73.8468 1296.16 75.1585 Q1293.9 76.4291 1291.48 76.4291 Q1288.08 76.4291 1285.91 74.2567 Q1283.78 72.0843 1283.78 68.6822 Q1283.78 67.5754 1284.64 64.0504 Q1285.5 60.4843 1290.17 41.9162 L1282.75 41.9162 Q1281.73 41.9162 1281.32 41.8752 Q1280.95 41.8342 1280.66 41.6292 Q1280.42 41.3833 1280.42 40.8914 Q1280.42 40.1126 1280.74 39.7847 Q1281.07 39.4158 1281.48 39.3748 Q1281.93 39.2928 1282.96 39.2928 L1290.83 39.2928 L1294.11 25.9713 Q1294.43 24.6597 1295.25 23.9219 Q1296.11 23.1431 1296.61 23.0611 Q1297.1 22.9381 1297.47 22.9381 Q1298.57 22.9381 1299.23 23.553 Q1299.89 24.1268 1299.89 25.1925 Q1299.89 25.7664 1296.44 39.2928 L1303.82 39.2928 Q1304.76 39.2928 1305.13 39.3338 Q1305.54 39.3748 1305.87 39.5798 Q1306.2 39.7847 1306.2 40.2356 Z" fill="#000000" fill-rule="nonzero" fill-opacity="1" /><path clip-path="url(#clip560)" d="M1312.77 95.6531 Q1312.77 95.2432 1313.84 94.2185 Q1327.36 80.4461 1327.36 54.4999 Q1327.36 28.4717 1314.37 15.3141 Q1312.77 13.7975 1312.77 13.3466 Q1312.77 12.5268 1313.59 12.5268 Q1314.16 12.5268 1316.17 14.2074 Q1318.22 15.888 1321.3 19.741 Q1324.41 23.5939 1326.71 28.3077 Q1332.24 39.7437 1332.24 54.4999 Q1332.24 68.6822 1326.95 80.1182 Q1324.7 84.9139 1321.54 88.9309 Q1318.39 92.9478 1316.29 94.7103 Q1314.2 96.4729 1313.59 96.4729 Q1312.77 96.4729 1312.77 95.6531 Z" fill="#000000" fill-rule="nonzero" fill-opacity="1" /><path clip-path="url(#clip560)" d="M1368.3 62.7387 Q1368.38 61.714 1369.98 61.714 L1421.42 61.714 Q1423.84 61.714 1423.88 62.6567 Q1423.88 63.6815 1421.58 63.6405 L1370.55 63.6405 Q1368.3 63.6815 1368.3 62.7387 M1368.3 46.343 Q1368.3 45.3183 1370.06 45.3593 L1421.34 45.3593 Q1423.84 45.3593 1423.88 46.343 Q1423.88 47.2858 1421.75 47.2858 L1369.98 47.2858 Q1368.3 47.2858 1368.3 46.343 Z" fill="#000000" fill-rule="nonzero" fill-opacity="1" /><path clip-path="url(#clip560)" d="M1482.04 40.2356 Q1482.04 41.3833 1481.51 41.6702 Q1480.98 41.9162 1479.5 41.9162 L1471.63 41.9162 L1465.4 66.6737 Q1464.91 68.8461 1464.91 70.6906 Q1464.91 72.7401 1465.52 73.6419 Q1466.18 74.5436 1467.53 74.5436 Q1470.2 74.5436 1473.07 72.1253 Q1475.98 69.7069 1478.44 63.8044 Q1478.76 63.0256 1478.93 62.8617 Q1479.13 62.6567 1479.67 62.6567 Q1480.69 62.6567 1480.69 63.4765 Q1480.69 63.7634 1480.12 65.0751 Q1479.58 66.3868 1478.39 68.3133 Q1477.25 70.2397 1475.73 72.0433 Q1474.26 73.8468 1472 75.1585 Q1469.75 76.4291 1467.33 76.4291 Q1463.93 76.4291 1461.75 74.2567 Q1459.62 72.0843 1459.62 68.6822 Q1459.62 67.5754 1460.48 64.0504 Q1461.34 60.4843 1466.02 41.9162 L1458.6 41.9162 Q1457.57 41.9162 1457.16 41.8752 Q1456.79 41.8342 1456.51 41.6292 Q1456.26 41.3833 1456.26 40.8914 Q1456.26 40.1126 1456.59 39.7847 Q1456.92 39.4158 1457.33 39.3748 Q1457.78 39.2928 1458.8 39.2928 L1466.67 39.2928 L1469.95 25.9713 Q1470.28 24.6597 1471.1 23.9219 Q1471.96 23.1431 1472.45 23.0611 Q1472.94 22.9381 1473.31 22.9381 Q1474.42 22.9381 1475.07 23.553 Q1475.73 24.1268 1475.73 25.1925 Q1475.73 25.7664 1472.29 39.2928 L1479.67 39.2928 Q1480.61 39.2928 1480.98 39.3338 Q1481.39 39.3748 1481.72 39.5798 Q1482.04 39.7847 1482.04 40.2356 Z" fill="#000000" fill-rule="nonzero" fill-opacity="1" /><path clip-path="url(#clip560)" d="M1529.28 65.7719 Q1529.61 66.1408 1529.61 66.5097 Q1529.61 66.8786 1528.79 67.9443 Q1528.01 69.0101 1526.33 70.4447 Q1524.65 71.8793 1522.48 73.232 Q1520.31 74.5846 1517.11 75.4864 Q1513.91 76.4291 1510.55 76.4291 Q1504.53 76.4291 1500.92 72.1253 Q1497.35 67.8214 1497.35 61.2221 Q1497.35 57.0002 1498.75 53.2702 Q1500.14 49.4992 1502.4 46.8349 Q1504.69 44.1706 1507.56 42.2441 Q1510.47 40.2766 1513.5 39.3338 Q1516.54 38.3911 1519.37 38.3911 Q1523.51 38.3911 1525.92 40.4815 Q1528.34 42.572 1528.34 45.5232 Q1528.34 46.22 1528.14 47.0808 Q1527.97 47.9416 1527.4 49.2942 Q1526.87 50.6469 1525.47 51.9995 Q1524.08 53.3112 1522.03 54.172 Q1517.48 56.0984 1509.2 56.0984 L1504.73 56.0984 Q1503.42 61.3861 1503.42 64.8292 Q1503.42 66.1818 1503.67 67.5754 Q1503.91 68.9281 1504.57 70.6496 Q1505.27 72.3712 1506.82 73.4779 Q1508.42 74.5436 1510.72 74.5436 Q1511.45 74.5436 1512.23 74.5026 Q1513.05 74.4616 1515.1 74.0108 Q1517.19 73.5599 1519.04 72.7811 Q1520.88 72.0023 1523.22 70.3217 Q1525.6 68.6002 1527.48 66.2638 Q1528.14 65.403 1528.59 65.403 Q1528.96 65.403 1529.28 65.7719 M1525.55 45.5232 Q1525.55 43.2688 1523.87 41.7522 Q1522.23 40.2356 1519.37 40.2356 Q1518.46 40.2356 1517.36 40.4405 Q1516.25 40.6455 1514.41 41.5063 Q1512.6 42.367 1511 43.8017 Q1509.41 45.1953 1507.81 47.9416 Q1506.21 50.6469 1505.27 54.2539 L1508.71 54.2539 Q1509.9 54.2539 1510.76 54.2539 Q1511.62 54.2129 1513.5 54.049 Q1515.43 53.885 1516.82 53.5981 Q1518.22 53.2702 1519.98 52.6144 Q1521.74 51.9585 1522.85 51.0978 Q1524 50.196 1524.78 48.7614 Q1525.55 47.3267 1525.55 45.5232 Z" fill="#000000" fill-rule="nonzero" fill-opacity="1" /><path clip-path="url(#clip560)" d="M1577.05 33.5102 Q1577.39 33.8545 1577.39 34.3423 Q1577.39 34.83 1577.05 35.1744 Q1576.71 35.5187 1576.22 35.5187 L1539.43 35.5187 Q1538.95 35.5187 1538.6 35.1744 Q1538.26 34.83 1538.26 34.3423 Q1538.26 33.8545 1538.6 33.5102 Q1538.95 33.1659 1539.43 33.1659 L1576.22 33.1659 Q1576.71 33.1659 1577.05 33.5102 Z" fill="#000000" fill-rule="nonzero" fill-opacity="1" /><path clip-path="url(#clip560)" d="M1610.44 40.6259 Q1609.67 44.3273 1608.66 46.4505 Q1607.06 49.6928 1604.33 49.6928 Q1602.27 49.6928 1600.8 48.4303 Q1599.34 47.1678 1598.99 45.2741 Q1595.24 49.6928 1591.33 49.6928 Q1587.89 49.6928 1585.71 47.0817 Q1583.53 44.442 1583.53 40.2816 Q1583.53 36.0925 1585.59 32.0756 Q1587.69 28.0586 1590.99 25.5624 Q1594.29 23.0661 1597.67 23.0661 Q1601.26 23.0661 1603.1 26.8248 Q1603.24 25.7919 1603.9 25.0172 Q1604.56 24.2425 1605.56 24.2425 Q1606.34 24.2425 1606.8 24.6729 Q1607.26 25.0746 1607.26 25.8206 Q1607.26 26.1936 1606.86 27.8291 L1604.73 36.0351 L1603.44 41.3432 Q1602.95 43.2943 1602.81 44.0116 Q1602.7 44.729 1602.7 45.6758 Q1602.7 48.3729 1604.45 48.3729 Q1605.31 48.3729 1606 47.8277 Q1606.68 47.2826 1607.23 46.1349 Q1607.77 44.9872 1608.12 43.9256 Q1608.46 42.8353 1608.92 41.1137 Q1609.07 40.4251 1609.18 40.2529 Q1609.32 40.0521 1609.73 40.0521 Q1610.44 40.0521 1610.44 40.6259 M1602.38 29.5219 Q1602.38 29.2637 1602.18 28.5464 Q1601.98 27.8291 1601.52 26.8248 Q1601.06 25.8206 1600.06 25.1033 Q1599.08 24.3573 1597.76 24.3573 Q1595.98 24.3573 1594.12 25.878 Q1592.28 27.3987 1590.93 29.981 Q1589.9 32.0469 1588.78 36.3794 Q1587.69 40.712 1587.69 42.8639 Q1587.69 44.1838 1587.98 45.3602 Q1588.29 46.5079 1589.18 47.4547 Q1590.07 48.3729 1591.45 48.3729 Q1594.81 48.3729 1598.1 44.2125 Q1598.74 43.4952 1598.88 43.2083 Q1599.05 42.8926 1599.28 42.0319 L1602.21 30.5262 Q1602.38 29.6654 1602.38 29.5219 Z" fill="#000000" fill-rule="nonzero" fill-opacity="1" /><path clip-path="url(#clip560)" d="M1631.18 24.3573 Q1631.18 25.1607 1630.8 25.3615 Q1630.43 25.5337 1629.4 25.5337 L1623.89 25.5337 L1619.53 42.8639 Q1619.18 44.3846 1619.18 45.6758 Q1619.18 47.1104 1619.61 47.7417 Q1620.07 48.3729 1621.02 48.3729 Q1622.89 48.3729 1624.89 46.68 Q1626.93 44.9872 1628.65 40.8555 Q1628.88 40.3103 1629 40.1955 Q1629.14 40.0521 1629.51 40.0521 Q1630.23 40.0521 1630.23 40.6259 Q1630.23 40.8268 1629.83 41.7449 Q1629.46 42.6631 1628.62 44.0116 Q1627.82 45.3602 1626.76 46.6227 Q1625.73 47.8851 1624.15 48.8033 Q1622.57 49.6928 1620.88 49.6928 Q1618.5 49.6928 1616.98 48.1721 Q1615.48 46.6514 1615.48 44.2699 Q1615.48 43.4952 1616.09 41.0276 Q1616.69 38.5314 1619.96 25.5337 L1614.77 25.5337 Q1614.05 25.5337 1613.76 25.505 Q1613.5 25.4763 1613.3 25.3328 Q1613.13 25.1607 1613.13 24.8164 Q1613.13 24.2712 1613.36 24.0417 Q1613.59 23.7834 1613.88 23.7547 Q1614.19 23.6974 1614.91 23.6974 L1620.42 23.6974 L1622.71 14.3723 Q1622.94 13.4541 1623.52 12.9377 Q1624.12 12.3925 1624.46 12.3351 Q1624.81 12.2491 1625.07 12.2491 Q1625.84 12.2491 1626.3 12.6794 Q1626.76 13.0811 1626.76 13.8271 Q1626.76 14.2288 1624.35 23.6974 L1629.51 23.6974 Q1630.17 23.6974 1630.43 23.7261 Q1630.72 23.7547 1630.95 23.8982 Q1631.18 24.0417 1631.18 24.3573 Z" fill="#000000" fill-rule="nonzero" fill-opacity="1" /><polyline clip-path="url(#clip562)" style="stroke:#009af9; stroke-linecap:round; stroke-linejoin:round; stroke-width:8; stroke-opacity:1; fill:none" points="243.166,152.843 261.734,426.493 280.302,630.615 298.871,785.042 317.439,903.525 336.007,995.696 354.575,1068.36 373.144,1126.4 391.712,1173.32 410.28,1211.68 428.849,1243.4 447.417,1269.88 465.985,1292.2 484.554,1311.17 503.122,1327.42 521.69,1341.45 540.258,1353.63 558.827,1364.28 577.395,1373.64 595.963,1381.92 614.532,1389.27 633.1,1395.82 651.668,1401.69 670.236,1406.97 688.805,1411.73 707.373,1416.05 725.941,1419.96 744.51,1423.54 763.078,1426.8 781.646,1429.79 800.215,1432.53 818.783,1435.06 837.351,1437.39 855.919,1439.55 874.488,1441.54 893.056,1443.4 911.624,1445.12 930.193,1446.72 948.761,1448.22 967.329,1449.62 985.897,1450.93 1004.47,1452.16 1023.03,1453.31 1041.6,1454.39 1060.17,1455.41 1078.74,1456.37 1097.31,1457.27 1115.88,1458.13 1134.44,1458.94 1153.01,1459.7 1171.58,1460.42 1190.15,1461.11 1208.72,1461.76 1227.29,1462.38 1245.85,1462.97 1264.42,1463.53 1282.99,1464.06 1301.56,1464.57 1320.13,1465.05 1338.7,1465.51 1357.26,1465.95 1375.83,1466.37 1394.4,1466.78 1412.97,1467.16 1431.54,1467.53 1450.1,1467.89 1468.67,1468.23 1487.24,1468.55 1505.81,1468.86 1524.38,1469.17 1542.95,1469.45 1561.51,1469.73 1580.08,1470 1598.65,1470.25 1617.22,1470.5 1635.79,1470.74 1654.36,1470.97 1672.92,1471.19 1691.49,1471.4 1710.06,1471.61 1728.63,1471.81 1747.2,1472 1765.77,1472.19 1784.33,1472.37 1802.9,1472.54 1821.47,1472.71 1840.04,1472.87 1858.61,1473.03 1877.18,1473.18 1895.74,1473.33 1914.31,1473.47 1932.88,1473.61 1951.45,1473.74 1970.02,1473.87 1988.59,1474 2007.15,1474.12 2025.72,1474.24 2044.29,1474.35 2062.86,1474.47 2081.43,1474.58 2100,1474.68 2118.56,1474.79 2137.13,1474.89 2155.7,1474.98 2174.27,1475.08 2192.84,1475.17 2211.4,1475.26 2229.97,1475.35 2248.54,1475.43 2267.11,1475.52 2285.68,1475.6 2304.25,1475.67 2322.81,1475.75 2341.38,1475.83 2359.95,1475.9 2378.52,1475.97 2397.09,1476.04 2415.66,1476.11 2434.22,1476.17 2452.79,1476.24 2471.36,1476.3 2489.93,1476.36 2508.5,1476.42 2527.07,1476.48 2545.63,1476.54 2564.2,1476.6 2582.77,1476.65 2601.34,1476.7 "/>
<polyline clip-path="url(#clip562)" style="stroke:#e26f46; stroke-linecap:round; stroke-linejoin:round; stroke-width:8; stroke-opacity:1; fill:none" stroke-dasharray="32, 20" points="243.166,152.843 261.734,426.493 280.302,630.615 298.871,785.042 317.439,903.525 336.007,995.696 354.575,1068.36 373.144,1126.4 391.712,1173.32 410.28,1211.68 428.849,1243.4 447.417,1269.88 465.985,1292.2 484.554,1311.17 503.122,1327.42 521.69,1341.45 540.258,1353.63 558.827,1364.28 577.395,1373.64 595.963,1381.92 614.532,1389.27 633.1,1395.82 651.668,1401.69 670.236,1406.97 688.805,1411.73 707.373,1416.05 725.941,1419.96 744.51,1423.54 763.078,1426.8 781.646,1429.79 800.215,1432.53 818.783,1435.06 837.351,1437.39 855.919,1439.55 874.488,1441.54 893.056,1443.4 911.624,1445.12 930.193,1446.72 948.761,1448.22 967.329,1449.62 985.897,1450.93 1004.47,1452.16 1023.03,1453.31 1041.6,1454.39 1060.17,1455.41 1078.74,1456.37 1097.31,1457.27 1115.88,1458.13 1134.44,1458.94 1153.01,1459.7 1171.58,1460.42 1190.15,1461.11 1208.72,1461.76 1227.29,1462.38 1245.85,1462.97 1264.42,1463.53 1282.99,1464.06 1301.56,1464.57 1320.13,1465.05 1338.7,1465.51 1357.26,1465.95 1375.83,1466.37 1394.4,1466.78 1412.97,1467.16 1431.54,1467.53 1450.1,1467.89 1468.67,1468.23 1487.24,1468.55 1505.81,1468.86 1524.38,1469.17 1542.95,1469.45 1561.51,1469.73 1580.08,1470 1598.65,1470.25 1617.22,1470.5 1635.79,1470.74 1654.36,1470.97 1672.92,1471.19 1691.49,1471.4 1710.06,1471.61 1728.63,1471.81 1747.2,1472 1765.77,1472.19 1784.33,1472.37 1802.9,1472.54 1821.47,1472.71 1840.04,1472.87 1858.61,1473.03 1877.18,1473.18 1895.74,1473.33 1914.31,1473.47 1932.88,1473.61 1951.45,1473.74 1970.02,1473.87 1988.59,1474 2007.15,1474.12 2025.72,1474.24 2044.29,1474.35 2062.86,1474.47 2081.43,1474.58 2100,1474.68 2118.56,1474.79 2137.13,1474.89 2155.7,1474.98 2174.27,1475.08 2192.84,1475.17 2211.4,1475.26 2229.97,1475.35 2248.54,1475.43 2267.11,1475.52 2285.68,1475.6 2304.25,1475.67 2322.81,1475.75 2341.38,1475.83 2359.95,1475.9 2378.52,1475.97 2397.09,1476.04 2415.66,1476.11 2434.22,1476.17 2452.79,1476.24 2471.36,1476.3 2489.93,1476.36 2508.5,1476.42 2527.07,1476.48 2545.63,1476.54 2564.2,1476.6 2582.77,1476.65 2601.34,1476.7 "/>
<path clip-path="url(#clip560)" d="M255.743 315.423 L940.082 315.423 L940.082 159.903 L255.743 159.903  Z" fill="#ffffff" fill-rule="evenodd" fill-opacity="1"/>
<polyline clip-path="url(#clip560)" style="stroke:#000000; stroke-linecap:round; stroke-linejoin:round; stroke-width:4; stroke-opacity:1; fill:none" points="255.743,315.423 940.082,315.423 940.082,159.903 255.743,159.903 255.743,315.423 "/>
<polyline clip-path="url(#clip560)" style="stroke:#009af9; stroke-linecap:round; stroke-linejoin:round; stroke-width:8; stroke-opacity:1; fill:none" points="283.517,211.743 450.161,211.743 "/>
<path clip-path="url(#clip560)" d="M493.768 199.07 L487.426 216.269 L500.134 216.269 L493.768 199.07 M491.129 194.463 L496.43 194.463 L509.601 229.023 L504.74 229.023 L501.592 220.158 L486.014 220.158 L482.865 229.023 L477.935 229.023 L491.129 194.463 Z" fill="#000000" fill-rule="nonzero" fill-opacity="1" /><path clip-path="url(#clip560)" d="M536.013 213.375 L536.013 229.023 L531.754 229.023 L531.754 213.514 Q531.754 209.834 530.319 208.005 Q528.884 206.176 526.013 206.176 Q522.564 206.176 520.574 208.375 Q518.583 210.574 518.583 214.371 L518.583 229.023 L514.301 229.023 L514.301 203.098 L518.583 203.098 L518.583 207.125 Q520.111 204.787 522.171 203.63 Q524.254 202.473 526.962 202.473 Q531.43 202.473 533.722 205.25 Q536.013 208.005 536.013 213.375 Z" fill="#000000" fill-rule="nonzero" fill-opacity="1" /><path clip-path="url(#clip560)" d="M556.291 215.991 Q551.129 215.991 549.138 217.172 Q547.148 218.352 547.148 221.199 Q547.148 223.468 548.629 224.81 Q550.134 226.13 552.703 226.13 Q556.245 226.13 558.374 223.63 Q560.527 221.107 560.527 216.94 L560.527 215.991 L556.291 215.991 M564.786 214.232 L564.786 229.023 L560.527 229.023 L560.527 225.088 Q559.069 227.449 556.893 228.583 Q554.717 229.695 551.569 229.695 Q547.587 229.695 545.226 227.472 Q542.888 225.227 542.888 221.477 Q542.888 217.102 545.805 214.88 Q548.745 212.658 554.555 212.658 L560.527 212.658 L560.527 212.241 Q560.527 209.301 558.583 207.704 Q556.661 206.084 553.166 206.084 Q550.944 206.084 548.837 206.616 Q546.731 207.148 544.786 208.213 L544.786 204.278 Q547.124 203.375 549.323 202.935 Q551.523 202.473 553.606 202.473 Q559.231 202.473 562.009 205.389 Q564.786 208.306 564.786 214.232 Z" fill="#000000" fill-rule="nonzero" fill-opacity="1" /><path clip-path="url(#clip560)" d="M573.559 193.005 L577.819 193.005 L577.819 229.023 L573.559 229.023 L573.559 193.005 Z" fill="#000000" fill-rule="nonzero" fill-opacity="1" /><path clip-path="url(#clip560)" d="M597.518 231.431 Q595.712 236.06 593.999 237.472 Q592.286 238.884 589.416 238.884 L586.013 238.884 L586.013 235.32 L588.513 235.32 Q590.272 235.32 591.245 234.486 Q592.217 233.653 593.397 230.551 L594.161 228.607 L583.675 203.098 L588.189 203.098 L596.291 223.375 L604.393 203.098 L608.906 203.098 L597.518 231.431 Z" fill="#000000" fill-rule="nonzero" fill-opacity="1" /><path clip-path="url(#clip560)" d="M618.999 195.736 L618.999 203.098 L627.772 203.098 L627.772 206.408 L618.999 206.408 L618.999 220.482 Q618.999 223.653 619.855 224.556 Q620.735 225.458 623.397 225.458 L627.772 225.458 L627.772 229.023 L623.397 229.023 Q618.467 229.023 616.592 227.195 Q614.717 225.343 614.717 220.482 L614.717 206.408 L611.592 206.408 L611.592 203.098 L614.717 203.098 L614.717 195.736 L618.999 195.736 Z" fill="#000000" fill-rule="nonzero" fill-opacity="1" /><path clip-path="url(#clip560)" d="M633.374 203.098 L637.633 203.098 L637.633 229.023 L633.374 229.023 L633.374 203.098 M633.374 193.005 L637.633 193.005 L637.633 198.398 L633.374 198.398 L633.374 193.005 Z" fill="#000000" fill-rule="nonzero" fill-opacity="1" /><path clip-path="url(#clip560)" d="M665.202 204.093 L665.202 208.074 Q663.397 207.079 661.568 206.593 Q659.763 206.084 657.911 206.084 Q653.767 206.084 651.476 208.722 Q649.184 211.338 649.184 216.084 Q649.184 220.829 651.476 223.468 Q653.767 226.083 657.911 226.083 Q659.763 226.083 661.568 225.597 Q663.397 225.088 665.202 224.093 L665.202 228.028 Q663.42 228.861 661.499 229.278 Q659.601 229.695 657.448 229.695 Q651.591 229.695 648.142 226.014 Q644.693 222.334 644.693 216.084 Q644.693 209.741 648.166 206.107 Q651.661 202.473 657.726 202.473 Q659.693 202.473 661.568 202.889 Q663.443 203.283 665.202 204.093 Z" fill="#000000" fill-rule="nonzero" fill-opacity="1" /><path clip-path="url(#clip560)" d="M684.392 215.991 Q679.23 215.991 677.239 217.172 Q675.249 218.352 675.249 221.199 Q675.249 223.468 676.73 224.81 Q678.235 226.13 680.804 226.13 Q684.346 226.13 686.476 223.63 Q688.628 221.107 688.628 216.94 L688.628 215.991 L684.392 215.991 M692.888 214.232 L692.888 229.023 L688.628 229.023 L688.628 225.088 Q687.17 227.449 684.994 228.583 Q682.818 229.695 679.67 229.695 Q675.689 229.695 673.327 227.472 Q670.989 225.227 670.989 221.477 Q670.989 217.102 673.906 214.88 Q676.846 212.658 682.656 212.658 L688.628 212.658 L688.628 212.241 Q688.628 209.301 686.684 207.704 Q684.763 206.084 681.267 206.084 Q679.045 206.084 676.939 206.616 Q674.832 207.148 672.888 208.213 L672.888 204.278 Q675.226 203.375 677.425 202.935 Q679.624 202.473 681.707 202.473 Q687.332 202.473 690.11 205.389 Q692.888 208.306 692.888 214.232 Z" fill="#000000" fill-rule="nonzero" fill-opacity="1" /><path clip-path="url(#clip560)" d="M701.661 193.005 L705.92 193.005 L705.92 229.023 L701.661 229.023 L701.661 193.005 Z" fill="#000000" fill-rule="nonzero" fill-opacity="1" /><path clip-path="url(#clip560)" d="M746.961 207.033 L746.961 193.005 L751.221 193.005 L751.221 229.023 L746.961 229.023 L746.961 225.134 Q745.619 227.449 743.559 228.583 Q741.522 229.695 738.651 229.695 Q733.952 229.695 730.989 225.945 Q728.049 222.195 728.049 216.084 Q728.049 209.972 730.989 206.222 Q733.952 202.473 738.651 202.473 Q741.522 202.473 743.559 203.607 Q745.619 204.718 746.961 207.033 M732.447 216.084 Q732.447 220.783 734.369 223.468 Q736.313 226.13 739.693 226.13 Q743.072 226.13 745.017 223.468 Q746.961 220.783 746.961 216.084 Q746.961 211.385 745.017 208.722 Q743.072 206.037 739.693 206.037 Q736.313 206.037 734.369 208.722 Q732.447 211.385 732.447 216.084 Z" fill="#000000" fill-rule="nonzero" fill-opacity="1" /><path clip-path="url(#clip560)" d="M759.994 203.098 L764.253 203.098 L764.253 229.023 L759.994 229.023 L759.994 203.098 M759.994 193.005 L764.253 193.005 L764.253 198.398 L759.994 198.398 L759.994 193.005 Z" fill="#000000" fill-rule="nonzero" fill-opacity="1" /><path clip-path="url(#clip560)" d="M789.693 203.861 L789.693 207.889 Q787.887 206.963 785.943 206.5 Q783.998 206.037 781.915 206.037 Q778.744 206.037 777.146 207.01 Q775.572 207.982 775.572 209.926 Q775.572 211.408 776.707 212.264 Q777.841 213.097 781.267 213.861 L782.725 214.185 Q787.262 215.158 789.16 216.94 Q791.081 218.699 791.081 221.871 Q791.081 225.482 788.211 227.588 Q785.364 229.695 780.364 229.695 Q778.281 229.695 776.012 229.278 Q773.767 228.884 771.267 228.074 L771.267 223.676 Q773.628 224.903 775.919 225.528 Q778.211 226.13 780.456 226.13 Q783.466 226.13 785.086 225.111 Q786.706 224.07 786.706 222.195 Q786.706 220.459 785.526 219.533 Q784.369 218.607 780.41 217.75 L778.929 217.403 Q774.97 216.57 773.211 214.857 Q771.452 213.121 771.452 210.111 Q771.452 206.454 774.044 204.463 Q776.637 202.473 781.406 202.473 Q783.767 202.473 785.85 202.82 Q787.933 203.167 789.693 203.861 Z" fill="#000000" fill-rule="nonzero" fill-opacity="1" /><path clip-path="url(#clip560)" d="M816.521 204.093 L816.521 208.074 Q814.716 207.079 812.887 206.593 Q811.081 206.084 809.229 206.084 Q805.086 206.084 802.794 208.722 Q800.503 211.338 800.503 216.084 Q800.503 220.829 802.794 223.468 Q805.086 226.083 809.229 226.083 Q811.081 226.083 812.887 225.597 Q814.716 225.088 816.521 224.093 L816.521 228.028 Q814.739 228.861 812.817 229.278 Q810.919 229.695 808.767 229.695 Q802.91 229.695 799.461 226.014 Q796.012 222.334 796.012 216.084 Q796.012 209.741 799.484 206.107 Q802.98 202.473 809.044 202.473 Q811.012 202.473 812.887 202.889 Q814.762 203.283 816.521 204.093 Z" fill="#000000" fill-rule="nonzero" fill-opacity="1" /><path clip-path="url(#clip560)" d="M838.952 207.079 Q838.234 206.662 837.377 206.477 Q836.544 206.269 835.526 206.269 Q831.915 206.269 829.97 208.63 Q828.049 210.968 828.049 215.366 L828.049 229.023 L823.766 229.023 L823.766 203.098 L828.049 203.098 L828.049 207.125 Q829.391 204.764 831.544 203.63 Q833.697 202.473 836.776 202.473 Q837.215 202.473 837.748 202.542 Q838.28 202.588 838.928 202.704 L838.952 207.079 Z" fill="#000000" fill-rule="nonzero" fill-opacity="1" /><path clip-path="url(#clip560)" d="M864.553 214.996 L864.553 217.079 L844.97 217.079 Q845.248 221.477 847.609 223.792 Q849.993 226.083 854.229 226.083 Q856.683 226.083 858.975 225.482 Q861.289 224.88 863.558 223.676 L863.558 227.704 Q861.266 228.676 858.859 229.185 Q856.451 229.695 853.975 229.695 Q847.771 229.695 844.137 226.083 Q840.526 222.472 840.526 216.315 Q840.526 209.949 843.952 206.222 Q847.401 202.473 853.234 202.473 Q858.465 202.473 861.498 205.852 Q864.553 209.209 864.553 214.996 M860.294 213.746 Q860.248 210.25 858.326 208.167 Q856.428 206.084 853.28 206.084 Q849.715 206.084 847.563 208.097 Q845.433 210.111 845.109 213.769 L860.294 213.746 Z" fill="#000000" fill-rule="nonzero" fill-opacity="1" /><path clip-path="url(#clip560)" d="M875.757 195.736 L875.757 203.098 L884.53 203.098 L884.53 206.408 L875.757 206.408 L875.757 220.482 Q875.757 223.653 876.613 224.556 Q877.493 225.458 880.155 225.458 L884.53 225.458 L884.53 229.023 L880.155 229.023 Q875.225 229.023 873.35 227.195 Q871.475 225.343 871.475 220.482 L871.475 206.408 L868.35 206.408 L868.35 203.098 L871.475 203.098 L871.475 195.736 L875.757 195.736 Z" fill="#000000" fill-rule="nonzero" fill-opacity="1" /><path clip-path="url(#clip560)" d="M912.308 214.996 L912.308 217.079 L892.724 217.079 Q893.002 221.477 895.363 223.792 Q897.748 226.083 901.984 226.083 Q904.437 226.083 906.729 225.482 Q909.044 224.88 911.312 223.676 L911.312 227.704 Q909.021 228.676 906.613 229.185 Q904.206 229.695 901.729 229.695 Q895.525 229.695 891.891 226.083 Q888.28 222.472 888.28 216.315 Q888.28 209.949 891.706 206.222 Q895.155 202.473 900.988 202.473 Q906.22 202.473 909.252 205.852 Q912.308 209.209 912.308 214.996 M908.048 213.746 Q908.002 210.25 906.081 208.167 Q904.183 206.084 901.035 206.084 Q897.47 206.084 895.317 208.097 Q893.187 210.111 892.863 213.769 L908.048 213.746 Z" fill="#000000" fill-rule="nonzero" fill-opacity="1" /><polyline clip-path="url(#clip560)" style="stroke:#e26f46; stroke-linecap:round; stroke-linejoin:round; stroke-width:8; stroke-opacity:1; fill:none" stroke-dasharray="32, 20" points="283.517,263.583 450.161,263.583 "/>
<path clip-path="url(#clip560)" d="M477.935 246.303 L484.903 246.303 L493.722 269.822 L502.588 246.303 L509.555 246.303 L509.555 280.863 L504.995 280.863 L504.995 250.516 L496.083 274.22 L491.384 274.22 L482.472 250.516 L482.472 280.863 L477.935 280.863 L477.935 246.303 Z" fill="#000000" fill-rule="nonzero" fill-opacity="1" /><path clip-path="url(#clip560)" d="M523.513 250.146 L523.513 263.132 L529.393 263.132 Q532.657 263.132 534.439 261.442 Q536.222 259.752 536.222 256.627 Q536.222 253.525 534.439 251.836 Q532.657 250.146 529.393 250.146 L523.513 250.146 M518.838 246.303 L529.393 246.303 Q535.203 246.303 538.166 248.942 Q541.152 251.558 541.152 256.627 Q541.152 261.743 538.166 264.359 Q535.203 266.974 529.393 266.974 L523.513 266.974 L523.513 280.863 L518.838 280.863 L518.838 246.303 Z" fill="#000000" fill-rule="nonzero" fill-opacity="1" /><path clip-path="url(#clip560)" d="M568.143 247.438 L568.143 251.998 Q565.481 250.725 563.12 250.1 Q560.759 249.475 558.56 249.475 Q554.74 249.475 552.657 250.956 Q550.597 252.438 550.597 255.169 Q550.597 257.461 551.962 258.641 Q553.351 259.799 557.194 260.516 L560.018 261.095 Q565.249 262.09 567.726 264.613 Q570.226 267.113 570.226 271.326 Q570.226 276.349 566.847 278.942 Q563.49 281.535 556.985 281.535 Q554.532 281.535 551.754 280.979 Q548.999 280.423 546.036 279.336 L546.036 274.521 Q548.884 276.118 551.615 276.928 Q554.347 277.738 556.985 277.738 Q560.99 277.738 563.166 276.164 Q565.342 274.59 565.342 271.674 Q565.342 269.127 563.768 267.692 Q562.217 266.257 558.652 265.539 L555.805 264.984 Q550.573 263.942 548.236 261.72 Q545.898 259.498 545.898 255.539 Q545.898 250.956 549.115 248.317 Q552.356 245.678 558.027 245.678 Q560.458 245.678 562.981 246.118 Q565.504 246.558 568.143 247.438 Z" fill="#000000" fill-rule="nonzero" fill-opacity="1" /><polyline clip-path="url(#clip560)" style="stroke:#000000; stroke-linecap:round; stroke-linejoin:round; stroke-width:4; stroke-opacity:1; fill:none" points="2672.08,1516.42 2672.08,113.127 "/>
<polyline clip-path="url(#clip560)" style="stroke:#000000; stroke-linecap:round; stroke-linejoin:round; stroke-width:4; stroke-opacity:1; fill:none" points="2672.08,1516.42 2653.19,1516.42 "/>
<polyline clip-path="url(#clip560)" style="stroke:#000000; stroke-linecap:round; stroke-linejoin:round; stroke-width:4; stroke-opacity:1; fill:none" points="2672.08,1282.92 2653.19,1282.92 "/>
<polyline clip-path="url(#clip560)" style="stroke:#000000; stroke-linecap:round; stroke-linejoin:round; stroke-width:4; stroke-opacity:1; fill:none" points="2672.08,1049.42 2653.19,1049.42 "/>
<polyline clip-path="url(#clip560)" style="stroke:#000000; stroke-linecap:round; stroke-linejoin:round; stroke-width:4; stroke-opacity:1; fill:none" points="2672.08,815.919 2653.19,815.919 "/>
<polyline clip-path="url(#clip560)" style="stroke:#000000; stroke-linecap:round; stroke-linejoin:round; stroke-width:4; stroke-opacity:1; fill:none" points="2672.08,582.419 2653.19,582.419 "/>
<polyline clip-path="url(#clip560)" style="stroke:#000000; stroke-linecap:round; stroke-linejoin:round; stroke-width:4; stroke-opacity:1; fill:none" points="2672.08,348.919 2653.19,348.919 "/>
<polyline clip-path="url(#clip560)" style="stroke:#000000; stroke-linecap:round; stroke-linejoin:round; stroke-width:4; stroke-opacity:1; fill:none" points="2672.08,115.419 2653.19,115.419 "/>
<path clip-path="url(#clip560)" d="M2729.63 1502.22 Q2726.02 1502.22 2724.19 1505.78 Q2722.38 1509.32 2722.38 1516.45 Q2722.38 1523.56 2724.19 1527.13 Q2726.02 1530.67 2729.63 1530.67 Q2733.26 1530.67 2735.07 1527.13 Q2736.9 1523.56 2736.9 1516.45 Q2736.9 1509.32 2735.07 1505.78 Q2733.26 1502.22 2729.63 1502.22 M2729.63 1498.51 Q2735.44 1498.51 2738.49 1503.12 Q2741.57 1507.7 2741.57 1516.45 Q2741.57 1525.18 2738.49 1529.79 Q2735.44 1534.37 2729.63 1534.37 Q2723.82 1534.37 2720.74 1529.79 Q2717.68 1525.18 2717.68 1516.45 Q2717.68 1507.7 2720.74 1503.12 Q2723.82 1498.51 2729.63 1498.51 Z" fill="#000000" fill-rule="nonzero" fill-opacity="1" /><path clip-path="url(#clip560)" d="M2718.36 1302.71 L2725.99 1302.71 L2725.99 1276.35 L2717.68 1278.01 L2717.68 1273.75 L2725.95 1272.09 L2730.62 1272.09 L2730.62 1302.71 L2738.26 1302.71 L2738.26 1306.65 L2718.36 1306.65 L2718.36 1302.71 Z" fill="#000000" fill-rule="nonzero" fill-opacity="1" /><path clip-path="url(#clip560)" d="M2747.71 1300.77 L2752.59 1300.77 L2752.59 1306.65 L2747.71 1306.65 L2747.71 1300.77 Z" fill="#000000" fill-rule="nonzero" fill-opacity="1" /><path clip-path="url(#clip560)" d="M2772.78 1275.17 Q2769.17 1275.17 2767.34 1278.73 Q2765.53 1282.27 2765.53 1289.4 Q2765.53 1296.51 2767.34 1300.07 Q2769.17 1303.61 2772.78 1303.61 Q2776.41 1303.61 2778.22 1300.07 Q2780.05 1296.51 2780.05 1289.4 Q2780.05 1282.27 2778.22 1278.73 Q2776.41 1275.17 2772.78 1275.17 M2772.78 1271.46 Q2778.59 1271.46 2781.64 1276.07 Q2784.72 1280.65 2784.72 1289.4 Q2784.72 1298.13 2781.64 1302.74 Q2778.59 1307.32 2772.78 1307.32 Q2766.97 1307.32 2763.89 1302.74 Q2760.83 1298.13 2760.83 1289.4 Q2760.83 1280.65 2763.89 1276.07 Q2766.97 1271.46 2772.78 1271.46 Z" fill="#000000" fill-rule="nonzero" fill-opacity="1" /><path clip-path="url(#clip560)" d="M2821.11 1281.18 L2810.53 1291.81 L2821.11 1302.39 L2818.36 1305.19 L2807.73 1294.56 L2797.11 1305.19 L2794.37 1302.39 L2804.93 1291.81 L2794.37 1281.18 L2797.11 1278.38 L2807.73 1289.01 L2818.36 1278.38 L2821.11 1281.18 Z" fill="#000000" fill-rule="nonzero" fill-opacity="1" /><path clip-path="url(#clip560)" d="M2833.47 1302.71 L2841.11 1302.71 L2841.11 1276.35 L2832.8 1278.01 L2832.8 1273.75 L2841.06 1272.09 L2845.74 1272.09 L2845.74 1302.71 L2853.38 1302.71 L2853.38 1306.65 L2833.47 1306.65 L2833.47 1302.71 Z" fill="#000000" fill-rule="nonzero" fill-opacity="1" /><path clip-path="url(#clip560)" d="M2872.82 1275.17 Q2869.21 1275.17 2867.38 1278.73 Q2865.58 1282.27 2865.58 1289.4 Q2865.58 1296.51 2867.38 1300.07 Q2869.21 1303.61 2872.82 1303.61 Q2876.46 1303.61 2878.26 1300.07 Q2880.09 1296.51 2880.09 1289.4 Q2880.09 1282.27 2878.26 1278.73 Q2876.46 1275.17 2872.82 1275.17 M2872.82 1271.46 Q2878.63 1271.46 2881.69 1276.07 Q2884.77 1280.65 2884.77 1289.4 Q2884.77 1298.13 2881.69 1302.74 Q2878.63 1307.32 2872.82 1307.32 Q2867.01 1307.32 2863.93 1302.74 Q2860.88 1298.13 2860.88 1289.4 Q2860.88 1280.65 2863.93 1276.07 Q2867.01 1271.46 2872.82 1271.46 Z" fill="#000000" fill-rule="nonzero" fill-opacity="1" /><path clip-path="url(#clip560)" d="M2884.77 1265.56 L2908.88 1265.56 L2908.88 1268.76 L2884.77 1268.76 L2884.77 1265.56 Z" fill="#000000" fill-rule="nonzero" fill-opacity="1" /><path clip-path="url(#clip560)" d="M2916.12 1251.16 L2934.17 1251.16 L2934.17 1252.77 L2923.98 1279.24 L2920.01 1279.24 L2929.6 1254.35 L2916.12 1254.35 L2916.12 1251.16 Z" fill="#000000" fill-rule="nonzero" fill-opacity="1" /><path clip-path="url(#clip560)" d="M2723.31 1069.21 L2739.63 1069.21 L2739.63 1073.15 L2717.68 1073.15 L2717.68 1069.21 Q2720.35 1066.46 2724.93 1061.83 Q2729.54 1057.17 2730.72 1055.83 Q2732.96 1053.31 2733.84 1051.57 Q2734.74 1049.81 2734.74 1048.12 Q2734.74 1045.37 2732.8 1043.63 Q2730.88 1041.9 2727.78 1041.9 Q2725.58 1041.9 2723.12 1042.66 Q2720.69 1043.43 2717.92 1044.98 L2717.92 1040.25 Q2720.74 1039.12 2723.19 1038.54 Q2725.65 1037.96 2727.68 1037.96 Q2733.05 1037.96 2736.25 1040.65 Q2739.44 1043.33 2739.44 1047.82 Q2739.44 1049.95 2738.63 1051.87 Q2737.85 1053.77 2735.74 1056.36 Q2735.16 1057.04 2732.06 1060.25 Q2728.96 1063.45 2723.31 1069.21 Z" fill="#000000" fill-rule="nonzero" fill-opacity="1" /><path clip-path="url(#clip560)" d="M2749.44 1067.27 L2754.33 1067.27 L2754.33 1073.15 L2749.44 1073.15 L2749.44 1067.27 Z" fill="#000000" fill-rule="nonzero" fill-opacity="1" /><path clip-path="url(#clip560)" d="M2774.51 1041.67 Q2770.9 1041.67 2769.07 1045.23 Q2767.27 1048.77 2767.27 1055.9 Q2767.27 1063.01 2769.07 1066.57 Q2770.9 1070.11 2774.51 1070.11 Q2778.15 1070.11 2779.95 1066.57 Q2781.78 1063.01 2781.78 1055.9 Q2781.78 1048.77 2779.95 1045.23 Q2778.15 1041.67 2774.51 1041.67 M2774.51 1037.96 Q2780.32 1037.96 2783.38 1042.57 Q2786.46 1047.15 2786.46 1055.9 Q2786.46 1064.63 2783.38 1069.24 Q2780.32 1073.82 2774.51 1073.82 Q2768.7 1073.82 2765.62 1069.24 Q2762.57 1064.63 2762.57 1055.9 Q2762.57 1047.15 2765.62 1042.57 Q2768.7 1037.96 2774.51 1037.96 Z" fill="#000000" fill-rule="nonzero" fill-opacity="1" /><path clip-path="url(#clip560)" d="M2822.85 1047.68 L2812.27 1058.31 L2822.85 1068.89 L2820.09 1071.69 L2809.47 1061.06 L2798.84 1071.69 L2796.11 1068.89 L2806.67 1058.31 L2796.11 1047.68 L2798.84 1044.88 L2809.47 1055.51 L2820.09 1044.88 L2822.85 1047.68 Z" fill="#000000" fill-rule="nonzero" fill-opacity="1" /><path clip-path="url(#clip560)" d="M2835.21 1069.21 L2842.85 1069.21 L2842.85 1042.85 L2834.54 1044.51 L2834.54 1040.25 L2842.8 1038.59 L2847.48 1038.59 L2847.48 1069.21 L2855.11 1069.21 L2855.11 1073.15 L2835.21 1073.15 L2835.21 1069.21 Z" fill="#000000" fill-rule="nonzero" fill-opacity="1" /><path clip-path="url(#clip560)" d="M2874.56 1041.67 Q2870.95 1041.67 2869.12 1045.23 Q2867.31 1048.77 2867.31 1055.9 Q2867.31 1063.01 2869.12 1066.57 Q2870.95 1070.11 2874.56 1070.11 Q2878.19 1070.11 2880 1066.57 Q2881.83 1063.01 2881.83 1055.9 Q2881.83 1048.77 2880 1045.23 Q2878.19 1041.67 2874.56 1041.67 M2874.56 1037.96 Q2880.37 1037.96 2883.42 1042.57 Q2886.5 1047.15 2886.5 1055.9 Q2886.5 1064.63 2883.42 1069.24 Q2880.37 1073.82 2874.56 1073.82 Q2868.75 1073.82 2865.67 1069.24 Q2862.61 1064.63 2862.61 1055.9 Q2862.61 1047.15 2865.67 1042.57 Q2868.75 1037.96 2874.56 1037.96 Z" fill="#000000" fill-rule="nonzero" fill-opacity="1" /><path clip-path="url(#clip560)" d="M2886.5 1032.06 L2910.61 1032.06 L2910.61 1035.26 L2886.5 1035.26 L2886.5 1032.06 Z" fill="#000000" fill-rule="nonzero" fill-opacity="1" /><path clip-path="url(#clip560)" d="M2917.86 1017.66 L2935.91 1017.66 L2935.91 1019.27 L2925.72 1045.74 L2921.75 1045.74 L2931.34 1020.85 L2917.86 1020.85 L2917.86 1017.66 Z" fill="#000000" fill-rule="nonzero" fill-opacity="1" /><path clip-path="url(#clip560)" d="M2733.31 821.013 Q2736.67 821.73 2738.54 823.999 Q2740.44 826.267 2740.44 829.601 Q2740.44 834.716 2736.92 837.517 Q2733.4 840.318 2726.92 840.318 Q2724.74 840.318 2722.43 839.878 Q2720.14 839.462 2717.68 838.605 L2717.68 834.091 Q2719.63 835.226 2721.94 835.804 Q2724.26 836.383 2726.78 836.383 Q2731.18 836.383 2733.47 834.647 Q2735.79 832.911 2735.79 829.601 Q2735.79 826.545 2733.63 824.832 Q2731.5 823.096 2727.68 823.096 L2723.66 823.096 L2723.66 819.253 L2727.87 819.253 Q2731.32 819.253 2733.15 817.888 Q2734.98 816.499 2734.98 813.906 Q2734.98 811.244 2733.08 809.832 Q2731.2 808.397 2727.68 808.397 Q2725.76 808.397 2723.56 808.814 Q2721.36 809.23 2718.73 810.11 L2718.73 805.943 Q2721.39 805.203 2723.7 804.832 Q2726.04 804.462 2728.1 804.462 Q2733.42 804.462 2736.53 806.892 Q2739.63 809.3 2739.63 813.42 Q2739.63 816.291 2737.99 818.281 Q2736.34 820.249 2733.31 821.013 Z" fill="#000000" fill-rule="nonzero" fill-opacity="1" /><path clip-path="url(#clip560)" d="M2749.3 833.767 L2754.19 833.767 L2754.19 839.647 L2749.3 839.647 L2749.3 833.767 Z" fill="#000000" fill-rule="nonzero" fill-opacity="1" /><path clip-path="url(#clip560)" d="M2774.37 808.166 Q2770.76 808.166 2768.93 811.73 Q2767.13 815.272 2767.13 822.402 Q2767.13 829.508 2768.93 833.073 Q2770.76 836.615 2774.37 836.615 Q2778.01 836.615 2779.81 833.073 Q2781.64 829.508 2781.64 822.402 Q2781.64 815.272 2779.81 811.73 Q2778.01 808.166 2774.37 808.166 M2774.37 804.462 Q2780.18 804.462 2783.24 809.068 Q2786.32 813.652 2786.32 822.402 Q2786.32 831.128 2783.24 835.735 Q2780.18 840.318 2774.37 840.318 Q2768.56 840.318 2765.48 835.735 Q2762.43 831.128 2762.43 822.402 Q2762.43 813.652 2765.48 809.068 Q2768.56 804.462 2774.37 804.462 Z" fill="#000000" fill-rule="nonzero" fill-opacity="1" /><path clip-path="url(#clip560)" d="M2822.71 814.184 L2812.13 824.809 L2822.71 835.388 L2819.95 838.189 L2809.33 827.564 L2798.7 838.189 L2795.97 835.388 L2806.53 824.809 L2795.97 814.184 L2798.7 811.383 L2809.33 822.008 L2819.95 811.383 L2822.71 814.184 Z" fill="#000000" fill-rule="nonzero" fill-opacity="1" /><path clip-path="url(#clip560)" d="M2835.07 835.712 L2842.71 835.712 L2842.71 809.346 L2834.4 811.013 L2834.4 806.754 L2842.66 805.087 L2847.34 805.087 L2847.34 835.712 L2854.98 835.712 L2854.98 839.647 L2835.07 839.647 L2835.07 835.712 Z" fill="#000000" fill-rule="nonzero" fill-opacity="1" /><path clip-path="url(#clip560)" d="M2874.42 808.166 Q2870.81 808.166 2868.98 811.73 Q2867.17 815.272 2867.17 822.402 Q2867.17 829.508 2868.98 833.073 Q2870.81 836.615 2874.42 836.615 Q2878.05 836.615 2879.86 833.073 Q2881.69 829.508 2881.69 822.402 Q2881.69 815.272 2879.86 811.73 Q2878.05 808.166 2874.42 808.166 M2874.42 804.462 Q2880.23 804.462 2883.29 809.068 Q2886.36 813.652 2886.36 822.402 Q2886.36 831.128 2883.29 835.735 Q2880.23 840.318 2874.42 840.318 Q2868.61 840.318 2865.53 835.735 Q2862.48 831.128 2862.48 822.402 Q2862.48 813.652 2865.53 809.068 Q2868.61 804.462 2874.42 804.462 Z" fill="#000000" fill-rule="nonzero" fill-opacity="1" /><path clip-path="url(#clip560)" d="M2886.36 798.563 L2910.48 798.563 L2910.48 801.761 L2886.36 801.761 L2886.36 798.563 Z" fill="#000000" fill-rule="nonzero" fill-opacity="1" /><path clip-path="url(#clip560)" d="M2917.72 784.157 L2935.77 784.157 L2935.77 785.774 L2925.58 812.237 L2921.61 812.237 L2931.2 787.354 L2917.72 787.354 L2917.72 784.157 Z" fill="#000000" fill-rule="nonzero" fill-opacity="1" /><path clip-path="url(#clip560)" d="M2733.29 575.661 L2721.48 594.11 L2733.29 594.11 L2733.29 575.661 M2732.06 571.587 L2737.94 571.587 L2737.94 594.11 L2742.87 594.11 L2742.87 597.999 L2737.94 597.999 L2737.94 606.147 L2733.29 606.147 L2733.29 597.999 L2717.68 597.999 L2717.68 593.485 L2732.06 571.587 Z" fill="#000000" fill-rule="nonzero" fill-opacity="1" /><path clip-path="url(#clip560)" d="M2750.6 600.267 L2755.49 600.267 L2755.49 606.147 L2750.6 606.147 L2750.6 600.267 Z" fill="#000000" fill-rule="nonzero" fill-opacity="1" /><path clip-path="url(#clip560)" d="M2775.67 574.665 Q2772.06 574.665 2770.23 578.23 Q2768.42 581.772 2768.42 588.901 Q2768.42 596.008 2770.23 599.573 Q2772.06 603.114 2775.67 603.114 Q2779.3 603.114 2781.11 599.573 Q2782.94 596.008 2782.94 588.901 Q2782.94 581.772 2781.11 578.23 Q2779.3 574.665 2775.67 574.665 M2775.67 570.962 Q2781.48 570.962 2784.54 575.568 Q2787.61 580.151 2787.61 588.901 Q2787.61 597.628 2784.54 602.235 Q2781.48 606.818 2775.67 606.818 Q2769.86 606.818 2766.78 602.235 Q2763.73 597.628 2763.73 588.901 Q2763.73 580.151 2766.78 575.568 Q2769.86 570.962 2775.67 570.962 Z" fill="#000000" fill-rule="nonzero" fill-opacity="1" /><path clip-path="url(#clip560)" d="M2824 580.684 L2813.42 591.309 L2824 601.887 L2821.25 604.688 L2810.62 594.063 L2800 604.688 L2797.27 601.887 L2807.82 591.309 L2797.27 580.684 L2800 577.883 L2810.62 588.508 L2821.25 577.883 L2824 580.684 Z" fill="#000000" fill-rule="nonzero" fill-opacity="1" /><path clip-path="url(#clip560)" d="M2836.36 602.212 L2844 602.212 L2844 575.846 L2835.69 577.513 L2835.69 573.253 L2843.96 571.587 L2848.63 571.587 L2848.63 602.212 L2856.27 602.212 L2856.27 606.147 L2836.36 606.147 L2836.36 602.212 Z" fill="#000000" fill-rule="nonzero" fill-opacity="1" /><path clip-path="url(#clip560)" d="M2875.72 574.665 Q2872.1 574.665 2870.28 578.23 Q2868.47 581.772 2868.47 588.901 Q2868.47 596.008 2870.28 599.573 Q2872.1 603.114 2875.72 603.114 Q2879.35 603.114 2881.16 599.573 Q2882.98 596.008 2882.98 588.901 Q2882.98 581.772 2881.16 578.23 Q2879.35 574.665 2875.72 574.665 M2875.72 570.962 Q2881.53 570.962 2884.58 575.568 Q2887.66 580.151 2887.66 588.901 Q2887.66 597.628 2884.58 602.235 Q2881.53 606.818 2875.72 606.818 Q2869.91 606.818 2866.83 602.235 Q2863.77 597.628 2863.77 588.901 Q2863.77 580.151 2866.83 575.568 Q2869.91 570.962 2875.72 570.962 Z" fill="#000000" fill-rule="nonzero" fill-opacity="1" /><path clip-path="url(#clip560)" d="M2887.66 565.063 L2911.77 565.063 L2911.77 568.26 L2887.66 568.26 L2887.66 565.063 Z" fill="#000000" fill-rule="nonzero" fill-opacity="1" /><path clip-path="url(#clip560)" d="M2919.01 550.656 L2937.07 550.656 L2937.07 552.274 L2926.87 578.736 L2922.91 578.736 L2932.5 553.854 L2919.01 553.854 L2919.01 550.656 Z" fill="#000000" fill-rule="nonzero" fill-opacity="1" /><path clip-path="url(#clip560)" d="M2719.14 338.087 L2737.5 338.087 L2737.5 342.022 L2723.43 342.022 L2723.43 350.494 Q2724.44 350.147 2725.46 349.985 Q2726.48 349.799 2727.5 349.799 Q2733.29 349.799 2736.67 352.971 Q2740.05 356.142 2740.05 361.559 Q2740.05 367.137 2736.57 370.239 Q2733.1 373.318 2726.78 373.318 Q2724.61 373.318 2722.34 372.947 Q2720.09 372.577 2717.68 371.836 L2717.68 367.137 Q2719.77 368.272 2721.99 368.827 Q2724.21 369.383 2726.69 369.383 Q2730.69 369.383 2733.03 367.276 Q2735.37 365.17 2735.37 361.559 Q2735.37 357.948 2733.03 355.841 Q2730.69 353.735 2726.69 353.735 Q2724.81 353.735 2722.94 354.151 Q2721.09 354.568 2719.14 355.448 L2719.14 338.087 Z" fill="#000000" fill-rule="nonzero" fill-opacity="1" /><path clip-path="url(#clip560)" d="M2749.26 366.767 L2754.14 366.767 L2754.14 372.647 L2749.26 372.647 L2749.26 366.767 Z" fill="#000000" fill-rule="nonzero" fill-opacity="1" /><path clip-path="url(#clip560)" d="M2774.33 341.165 Q2770.72 341.165 2768.89 344.73 Q2767.08 348.272 2767.08 355.401 Q2767.08 362.508 2768.89 366.073 Q2770.72 369.614 2774.33 369.614 Q2777.96 369.614 2779.77 366.073 Q2781.6 362.508 2781.6 355.401 Q2781.6 348.272 2779.77 344.73 Q2777.96 341.165 2774.33 341.165 M2774.33 337.462 Q2780.14 337.462 2783.19 342.068 Q2786.27 346.651 2786.27 355.401 Q2786.27 364.128 2783.19 368.735 Q2780.14 373.318 2774.33 373.318 Q2768.52 373.318 2765.44 368.735 Q2762.38 364.128 2762.38 355.401 Q2762.38 346.651 2765.44 342.068 Q2768.52 337.462 2774.33 337.462 Z" fill="#000000" fill-rule="nonzero" fill-opacity="1" /><path clip-path="url(#clip560)" d="M2822.66 347.184 L2812.08 357.809 L2822.66 368.387 L2819.91 371.188 L2809.28 360.563 L2798.66 371.188 L2795.92 368.387 L2806.48 357.809 L2795.92 347.184 L2798.66 344.383 L2809.28 355.008 L2819.91 344.383 L2822.66 347.184 Z" fill="#000000" fill-rule="nonzero" fill-opacity="1" /><path clip-path="url(#clip560)" d="M2835.02 368.711 L2842.66 368.711 L2842.66 342.346 L2834.35 344.012 L2834.35 339.753 L2842.61 338.087 L2847.29 338.087 L2847.29 368.711 L2854.93 368.711 L2854.93 372.647 L2835.02 372.647 L2835.02 368.711 Z" fill="#000000" fill-rule="nonzero" fill-opacity="1" /><path clip-path="url(#clip560)" d="M2874.37 341.165 Q2870.76 341.165 2868.93 344.73 Q2867.13 348.272 2867.13 355.401 Q2867.13 362.508 2868.93 366.073 Q2870.76 369.614 2874.37 369.614 Q2878.01 369.614 2879.81 366.073 Q2881.64 362.508 2881.64 355.401 Q2881.64 348.272 2879.81 344.73 Q2878.01 341.165 2874.37 341.165 M2874.37 337.462 Q2880.18 337.462 2883.24 342.068 Q2886.32 346.651 2886.32 355.401 Q2886.32 364.128 2883.24 368.735 Q2880.18 373.318 2874.37 373.318 Q2868.56 373.318 2865.48 368.735 Q2862.43 364.128 2862.43 355.401 Q2862.43 346.651 2865.48 342.068 Q2868.56 337.462 2874.37 337.462 Z" fill="#000000" fill-rule="nonzero" fill-opacity="1" /><path clip-path="url(#clip560)" d="M2886.32 331.563 L2910.43 331.563 L2910.43 334.76 L2886.32 334.76 L2886.32 331.563 Z" fill="#000000" fill-rule="nonzero" fill-opacity="1" /><path clip-path="url(#clip560)" d="M2917.67 317.156 L2935.73 317.156 L2935.73 318.774 L2925.53 345.236 L2921.56 345.236 L2931.16 320.353 L2917.67 320.353 L2917.67 317.156 Z" fill="#000000" fill-rule="nonzero" fill-opacity="1" /><path clip-path="url(#clip560)" d="M2730.02 120.003 Q2726.87 120.003 2725.02 122.156 Q2723.19 124.308 2723.19 128.058 Q2723.19 131.785 2725.02 133.961 Q2726.87 136.114 2730.02 136.114 Q2733.17 136.114 2735 133.961 Q2736.85 131.785 2736.85 128.058 Q2736.85 124.308 2735 122.156 Q2733.17 120.003 2730.02 120.003 M2739.3 105.35 L2739.3 109.609 Q2737.55 108.776 2735.74 108.336 Q2733.96 107.897 2732.2 107.897 Q2727.57 107.897 2725.11 111.022 Q2722.68 114.147 2722.34 120.466 Q2723.7 118.452 2725.76 117.387 Q2727.82 116.299 2730.3 116.299 Q2735.51 116.299 2738.52 119.471 Q2741.55 122.619 2741.55 128.058 Q2741.55 133.383 2738.4 136.6 Q2735.25 139.818 2730.02 139.818 Q2724.03 139.818 2720.86 135.234 Q2717.68 130.628 2717.68 121.901 Q2717.68 113.707 2721.57 108.846 Q2725.46 103.961 2732.01 103.961 Q2733.77 103.961 2735.55 104.309 Q2737.36 104.656 2739.3 105.35 Z" fill="#000000" fill-rule="nonzero" fill-opacity="1" /><path clip-path="url(#clip560)" d="M2749.61 133.267 L2754.49 133.267 L2754.49 139.146 L2749.61 139.146 L2749.61 133.267 Z" fill="#000000" fill-rule="nonzero" fill-opacity="1" /><path clip-path="url(#clip560)" d="M2774.67 107.665 Q2771.06 107.665 2769.23 111.23 Q2767.43 114.772 2767.43 121.901 Q2767.43 129.008 2769.23 132.572 Q2771.06 136.114 2774.67 136.114 Q2778.31 136.114 2780.11 132.572 Q2781.94 129.008 2781.94 121.901 Q2781.94 114.772 2780.11 111.23 Q2778.31 107.665 2774.67 107.665 M2774.67 103.961 Q2780.48 103.961 2783.54 108.568 Q2786.62 113.151 2786.62 121.901 Q2786.62 130.628 2783.54 135.234 Q2780.48 139.818 2774.67 139.818 Q2768.86 139.818 2765.79 135.234 Q2762.73 130.628 2762.73 121.901 Q2762.73 113.151 2765.79 108.568 Q2768.86 103.961 2774.67 103.961 Z" fill="#000000" fill-rule="nonzero" fill-opacity="1" /><path clip-path="url(#clip560)" d="M2823.01 113.684 L2812.43 124.308 L2823.01 134.887 L2820.25 137.688 L2809.63 127.063 L2799 137.688 L2796.27 134.887 L2806.83 124.308 L2796.27 113.684 L2799 110.883 L2809.63 121.508 L2820.25 110.883 L2823.01 113.684 Z" fill="#000000" fill-rule="nonzero" fill-opacity="1" /><path clip-path="url(#clip560)" d="M2835.37 135.211 L2843.01 135.211 L2843.01 108.846 L2834.7 110.512 L2834.7 106.253 L2842.96 104.586 L2847.64 104.586 L2847.64 135.211 L2855.28 135.211 L2855.28 139.146 L2835.37 139.146 L2835.37 135.211 Z" fill="#000000" fill-rule="nonzero" fill-opacity="1" /><path clip-path="url(#clip560)" d="M2874.72 107.665 Q2871.11 107.665 2869.28 111.23 Q2867.48 114.772 2867.48 121.901 Q2867.48 129.008 2869.28 132.572 Q2871.11 136.114 2874.72 136.114 Q2878.35 136.114 2880.16 132.572 Q2881.99 129.008 2881.99 121.901 Q2881.99 114.772 2880.16 111.23 Q2878.35 107.665 2874.72 107.665 M2874.72 103.961 Q2880.53 103.961 2883.59 108.568 Q2886.66 113.151 2886.66 121.901 Q2886.66 130.628 2883.59 135.234 Q2880.53 139.818 2874.72 139.818 Q2868.91 139.818 2865.83 135.234 Q2862.78 130.628 2862.78 121.901 Q2862.78 113.151 2865.83 108.568 Q2868.91 103.961 2874.72 103.961 Z" fill="#000000" fill-rule="nonzero" fill-opacity="1" /><path clip-path="url(#clip560)" d="M2886.66 98.0627 L2910.78 98.0627 L2910.78 101.26 L2886.66 101.26 L2886.66 98.0627 Z" fill="#000000" fill-rule="nonzero" fill-opacity="1" /><path clip-path="url(#clip560)" d="M2918.02 83.656 L2936.07 83.656 L2936.07 85.2734 L2925.88 111.736 L2921.91 111.736 L2931.5 86.8533 L2918.02 86.8533 L2918.02 83.656 Z" fill="#000000" fill-rule="nonzero" fill-opacity="1" /><path clip-path="url(#clip560)" d="M3009.52 1003.13 Q3008.95 1004.12 3008.69 1005.3 Q3008.4 1006.44 3008.4 1007.85 Q3008.4 1012.81 3011.65 1015.48 Q3014.87 1018.13 3020.91 1018.13 L3039.69 1018.13 L3039.69 1024.01 L3004.04 1024.01 L3004.04 1018.13 L3009.58 1018.13 Q3006.34 1016.28 3004.78 1013.32 Q3003.18 1010.36 3003.18 1006.13 Q3003.18 1005.52 3003.28 1004.79 Q3003.34 1004.06 3003.5 1003.17 L3009.52 1003.13 Z" fill="#000000" fill-rule="nonzero" fill-opacity="1" /><path clip-path="url(#clip560)" d="M3020.4 967.932 L3023.27 967.932 L3023.27 994.859 Q3029.32 994.477 3032.5 991.231 Q3035.65 987.952 3035.65 982.128 Q3035.65 978.754 3034.82 975.603 Q3033.99 972.42 3032.34 969.301 L3037.88 969.301 Q3039.21 972.452 3039.92 975.762 Q3040.62 979.072 3040.62 982.478 Q3040.62 991.008 3035.65 996.005 Q3030.68 1000.97 3022.22 1000.97 Q3013.47 1000.97 3008.34 996.26 Q3003.18 991.517 3003.18 983.496 Q3003.18 976.303 3007.83 972.134 Q3012.45 967.932 3020.4 967.932 M3018.69 973.789 Q3013.88 973.852 3011.01 976.494 Q3008.15 979.104 3008.15 983.433 Q3008.15 988.334 3010.92 991.294 Q3013.69 994.223 3018.72 994.668 L3018.69 973.789 Z" fill="#000000" fill-rule="nonzero" fill-opacity="1" /><path clip-path="url(#clip560)" d="M2990.17 958.32 L2990.17 952.464 L3039.69 952.464 L3039.69 958.32 L2990.17 958.32 Z" fill="#000000" fill-rule="nonzero" fill-opacity="1" /><path clip-path="url(#clip560)" d="M3021.77 924.009 Q3021.77 931.107 3023.4 933.844 Q3025.02 936.581 3028.93 936.581 Q3032.05 936.581 3033.9 934.544 Q3035.71 932.475 3035.71 928.942 Q3035.71 924.073 3032.28 921.144 Q3028.81 918.184 3023.08 918.184 L3021.77 918.184 L3021.77 924.009 M3019.35 912.328 L3039.69 912.328 L3039.69 918.184 L3034.28 918.184 Q3037.53 920.189 3039.09 923.181 Q3040.62 926.173 3040.62 930.502 Q3040.62 935.976 3037.56 939.223 Q3034.47 942.438 3029.32 942.438 Q3023.3 942.438 3020.25 938.427 Q3017.19 934.385 3017.19 926.396 L3017.19 918.184 L3016.62 918.184 Q3012.57 918.184 3010.38 920.858 Q3008.15 923.5 3008.15 928.306 Q3008.15 931.361 3008.88 934.258 Q3009.61 937.154 3011.08 939.828 L3005.67 939.828 Q3004.43 936.613 3003.82 933.589 Q3003.18 930.566 3003.18 927.701 Q3003.18 919.967 3007.2 916.147 Q3011.21 912.328 3019.35 912.328 Z" fill="#000000" fill-rule="nonzero" fill-opacity="1" /><path clip-path="url(#clip560)" d="M2993.92 894.472 L3004.04 894.472 L3004.04 882.409 L3008.6 882.409 L3008.6 894.472 L3027.95 894.472 Q3032.31 894.472 3033.55 893.294 Q3034.79 892.085 3034.79 888.425 L3034.79 882.409 L3039.69 882.409 L3039.69 888.425 Q3039.69 895.204 3037.18 897.782 Q3034.63 900.36 3027.95 900.36 L3008.6 900.36 L3008.6 904.657 L3004.04 904.657 L3004.04 900.36 L2993.92 900.36 L2993.92 894.472 Z" fill="#000000" fill-rule="nonzero" fill-opacity="1" /><path clip-path="url(#clip560)" d="M3004.04 874.706 L3004.04 868.85 L3039.69 868.85 L3039.69 874.706 L3004.04 874.706 M2990.17 874.706 L2990.17 868.85 L2997.58 868.85 L2997.58 874.706 L2990.17 874.706 Z" fill="#000000" fill-rule="nonzero" fill-opacity="1" /><path clip-path="url(#clip560)" d="M3004.04 860.797 L3004.04 854.591 L3033.96 843.451 L3004.04 832.311 L3004.04 826.104 L3039.69 839.472 L3039.69 847.429 L3004.04 860.797 Z" fill="#000000" fill-rule="nonzero" fill-opacity="1" /><path clip-path="url(#clip560)" d="M3020.4 787.528 L3023.27 787.528 L3023.27 814.455 Q3029.32 814.073 3032.5 810.827 Q3035.65 807.548 3035.65 801.724 Q3035.65 798.35 3034.82 795.199 Q3033.99 792.016 3032.34 788.897 L3037.88 788.897 Q3039.21 792.048 3039.92 795.358 Q3040.62 798.668 3040.62 802.074 Q3040.62 810.604 3035.65 815.601 Q3030.68 820.566 3022.22 820.566 Q3013.47 820.566 3008.34 815.856 Q3003.18 811.113 3003.18 803.092 Q3003.18 795.899 3007.83 791.729 Q3012.45 787.528 3020.4 787.528 M3018.69 793.385 Q3013.88 793.448 3011.01 796.09 Q3008.15 798.7 3008.15 803.029 Q3008.15 807.93 3010.92 810.89 Q3013.69 813.818 3018.72 814.264 L3018.69 793.385 Z" fill="#000000" fill-rule="nonzero" fill-opacity="1" /><path clip-path="url(#clip560)" d="M3020.4 726.704 L3023.27 726.704 L3023.27 753.631 Q3029.32 753.249 3032.5 750.002 Q3035.65 746.724 3035.65 740.899 Q3035.65 737.526 3034.82 734.374 Q3033.99 731.192 3032.34 728.072 L3037.88 728.072 Q3039.21 731.223 3039.92 734.534 Q3040.62 737.844 3040.62 741.249 Q3040.62 749.779 3035.65 754.777 Q3030.68 759.742 3022.22 759.742 Q3013.47 759.742 3008.34 755.031 Q3003.18 750.289 3003.18 742.268 Q3003.18 735.075 3007.83 730.905 Q3012.45 726.704 3020.4 726.704 M3018.69 732.56 Q3013.88 732.624 3011.01 735.266 Q3008.15 737.876 3008.15 742.204 Q3008.15 747.106 3010.92 750.066 Q3013.69 752.994 3018.72 753.44 L3018.69 732.56 Z" fill="#000000" fill-rule="nonzero" fill-opacity="1" /><path clip-path="url(#clip560)" d="M3009.52 696.435 Q3008.95 697.422 3008.69 698.599 Q3008.4 699.745 3008.4 701.145 Q3008.4 706.111 3011.65 708.784 Q3014.87 711.426 3020.91 711.426 L3039.69 711.426 L3039.69 717.314 L3004.04 717.314 L3004.04 711.426 L3009.58 711.426 Q3006.34 709.58 3004.78 706.62 Q3003.18 703.66 3003.18 699.427 Q3003.18 698.822 3003.28 698.09 Q3003.34 697.358 3003.5 696.467 L3009.52 696.435 Z" fill="#000000" fill-rule="nonzero" fill-opacity="1" /><path clip-path="url(#clip560)" d="M3009.52 670.781 Q3008.95 671.768 3008.69 672.945 Q3008.4 674.091 3008.4 675.492 Q3008.4 680.457 3011.65 683.131 Q3014.87 685.772 3020.91 685.772 L3039.69 685.772 L3039.69 691.661 L3004.04 691.661 L3004.04 685.772 L3009.58 685.772 Q3006.34 683.926 3004.78 680.966 Q3003.18 678.006 3003.18 673.773 Q3003.18 673.168 3003.28 672.436 Q3003.34 671.704 3003.5 670.813 L3009.52 670.781 Z" fill="#000000" fill-rule="nonzero" fill-opacity="1" /><path clip-path="url(#clip560)" d="M3008.15 652.257 Q3008.15 656.967 3011.84 659.705 Q3015.5 662.442 3021.9 662.442 Q3028.3 662.442 3031.99 659.737 Q3035.65 656.999 3035.65 652.257 Q3035.65 647.578 3031.96 644.841 Q3028.27 642.104 3021.9 642.104 Q3015.57 642.104 3011.87 644.841 Q3008.15 647.578 3008.15 652.257 M3003.18 652.257 Q3003.18 644.618 3008.15 640.258 Q3013.12 635.897 3021.9 635.897 Q3030.65 635.897 3035.65 640.258 Q3040.62 644.618 3040.62 652.257 Q3040.62 659.928 3035.65 664.288 Q3030.65 668.617 3021.9 668.617 Q3013.12 668.617 3008.15 664.288 Q3003.18 659.928 3003.18 652.257 Z" fill="#000000" fill-rule="nonzero" fill-opacity="1" /><path clip-path="url(#clip560)" d="M3009.52 605.533 Q3008.95 606.519 3008.69 607.697 Q3008.4 608.843 3008.4 610.243 Q3008.4 615.208 3011.65 617.882 Q3014.87 620.524 3020.91 620.524 L3039.69 620.524 L3039.69 626.412 L3004.04 626.412 L3004.04 620.524 L3009.58 620.524 Q3006.34 618.678 3004.78 615.718 Q3003.18 612.758 3003.18 608.524 Q3003.18 607.92 3003.28 607.188 Q3003.34 606.456 3003.5 605.564 L3009.52 605.533 Z" fill="#000000" fill-rule="nonzero" fill-opacity="1" /><polyline clip-path="url(#clip562)" style="stroke:#808080; stroke-linecap:round; stroke-linejoin:round; stroke-width:6; stroke-opacity:1; fill:none" stroke-dasharray="3, 6" points="243.166,1494.74 261.734,1469.98 280.302,1474.65 298.871,1509.57 317.439,1512.85 336.007,1478.76 354.575,1442.35 373.144,1498.04 391.712,1465.56 410.28,1408.41 428.849,1464.92 447.417,1495.47 465.985,1440.9 484.554,1509.91 503.122,1465.61 521.69,1396.66 540.258,1449.34 558.827,1382.53 577.395,1478.93 595.963,1445.32 614.532,1385.66 633.1,1452.93 651.668,1466.07 670.236,1415.92 688.805,1460.83 707.373,1440.79 725.941,1499.79 744.51,1491.03 763.078,1461.63 781.646,1510.17 800.215,1500.27 818.783,1388.39 837.351,1423.4 855.919,1458.51 874.488,1503.25 893.056,1496.32 911.624,1449.31 930.193,1450.24 948.761,1459.73 967.329,1505.8 985.897,1441.33 1004.47,1506.89 1023.03,1509.86 1041.6,1514.43 1060.17,1505.86 1078.74,1479.67 1097.31,1438.67 1115.88,1399.12 1134.44,1390.29 1153.01,1103.65 1171.58,1068.84 1190.15,1166.48 1208.72,1270.61 1227.29,1375.9 1245.85,1426.3 1264.42,1485.34 1282.99,1472.82 1301.56,1459.49 1320.13,1464.46 1338.7,1427.5 1357.26,1451.12 1375.83,1472.81 1394.4,1472.32 1412.97,1437.96 1431.54,814.773 1450.1,815.938 1468.67,918.733 1487.24,980.24 1505.81,1115.68 1524.38,1222.81 1542.95,1387.41 1561.51,1449.96 1580.08,1494.51 1598.65,1513.98 1617.22,1464.52 1635.79,1504.48 1654.36,1491.15 1672.92,1427.74 1691.49,1435.62 1710.06,1336.35 1728.63,1394.9 1747.2,1272.45 1765.77,1313.06 1784.33,1285.52 1802.9,1354.21 1821.47,1385.75 1840.04,1507.66 1858.61,1510.35 1877.18,1504.13 1895.74,1507.17 1914.31,1425.17 1932.88,1468.72 1951.45,1429.59 1970.02,1438.76 1988.59,1347.95 2007.15,1381.89 2025.72,1503.14 2044.29,1387.42 2062.86,1231.54 2081.43,1257.75 2100,1231.95 2118.56,1283.1 2137.13,1242.81 2155.7,1343.21 2174.27,1411.74 2192.84,1501.82 2211.4,1474.83 2229.97,1457.82 2248.54,1464.3 2267.11,1428.49 2285.68,1515.94 2304.25,1473.2 2322.81,1379.28 2341.38,1367.94 2359.95,1262.71 2378.52,1324.3 2397.09,1306.58 2415.66,1357.29 2434.22,1297.4 2452.79,1383.34 2471.36,1424.6 2489.93,1491.93 2508.5,1425.32 2527.07,1492.74 2545.63,1446.48 2564.2,1446.54 2582.77,1316.45 2601.34,1326.76 "/>
<path clip-path="url(#clip560)" d="M2034.45 263.583 L2588.76 263.583 L2588.76 159.903 L2034.45 159.903  Z" fill="#ffffff" fill-rule="evenodd" fill-opacity="1"/>
<polyline clip-path="url(#clip560)" style="stroke:#000000; stroke-linecap:round; stroke-linejoin:round; stroke-width:4; stroke-opacity:1; fill:none" points="2034.45,263.583 2588.76,263.583 2588.76,159.903 2034.45,159.903 2034.45,263.583 "/>
<polyline clip-path="url(#clip560)" style="stroke:#808080; stroke-linecap:round; stroke-linejoin:round; stroke-width:6; stroke-opacity:1; fill:none" stroke-dasharray="3, 6" points="2062.22,211.743 2228.86,211.743 "/>
<path clip-path="url(#clip560)" d="M2271.82 207.079 Q2271.11 206.662 2270.25 206.477 Q2269.42 206.269 2268.4 206.269 Q2264.79 206.269 2262.84 208.63 Q2260.92 210.968 2260.92 215.366 L2260.92 229.023 L2256.64 229.023 L2256.64 203.098 L2260.92 203.098 L2260.92 207.125 Q2262.26 204.764 2264.42 203.63 Q2266.57 202.473 2269.65 202.473 Q2270.09 202.473 2270.62 202.542 Q2271.15 202.588 2271.8 202.704 L2271.82 207.079 Z" fill="#000000" fill-rule="nonzero" fill-opacity="1" /><path clip-path="url(#clip560)" d="M2297.42 214.996 L2297.42 217.079 L2277.84 217.079 Q2278.12 221.477 2280.48 223.792 Q2282.86 226.083 2287.1 226.083 Q2289.55 226.083 2291.85 225.482 Q2294.16 224.88 2296.43 223.676 L2296.43 227.704 Q2294.14 228.676 2291.73 229.185 Q2289.32 229.695 2286.85 229.695 Q2280.64 229.695 2277.01 226.083 Q2273.4 222.472 2273.4 216.315 Q2273.4 209.949 2276.82 206.222 Q2280.27 202.473 2286.11 202.473 Q2291.34 202.473 2294.37 205.852 Q2297.42 209.209 2297.42 214.996 M2293.17 213.746 Q2293.12 210.25 2291.2 208.167 Q2289.3 206.084 2286.15 206.084 Q2282.59 206.084 2280.43 208.097 Q2278.3 210.111 2277.98 213.769 L2293.17 213.746 Z" fill="#000000" fill-rule="nonzero" fill-opacity="1" /><path clip-path="url(#clip560)" d="M2304.42 193.005 L2308.67 193.005 L2308.67 229.023 L2304.42 229.023 L2304.42 193.005 Z" fill="#000000" fill-rule="nonzero" fill-opacity="1" /><path clip-path="url(#clip560)" d="M2329.37 215.991 Q2324.21 215.991 2322.22 217.172 Q2320.23 218.352 2320.23 221.199 Q2320.23 223.468 2321.71 224.81 Q2323.21 226.13 2325.78 226.13 Q2329.32 226.13 2331.45 223.63 Q2333.61 221.107 2333.61 216.94 L2333.61 215.991 L2329.37 215.991 M2337.86 214.232 L2337.86 229.023 L2333.61 229.023 L2333.61 225.088 Q2332.15 227.449 2329.97 228.583 Q2327.79 229.695 2324.65 229.695 Q2320.67 229.695 2318.3 227.472 Q2315.97 225.227 2315.97 221.477 Q2315.97 217.102 2318.88 214.88 Q2321.82 212.658 2327.63 212.658 L2333.61 212.658 L2333.61 212.241 Q2333.61 209.301 2331.66 207.704 Q2329.74 206.084 2326.24 206.084 Q2324.02 206.084 2321.92 206.616 Q2319.81 207.148 2317.86 208.213 L2317.86 204.278 Q2320.2 203.375 2322.4 202.935 Q2324.6 202.473 2326.68 202.473 Q2332.31 202.473 2335.09 205.389 Q2337.86 208.306 2337.86 214.232 Z" fill="#000000" fill-rule="nonzero" fill-opacity="1" /><path clip-path="url(#clip560)" d="M2350.85 195.736 L2350.85 203.098 L2359.62 203.098 L2359.62 206.408 L2350.85 206.408 L2350.85 220.482 Q2350.85 223.653 2351.71 224.556 Q2352.59 225.458 2355.25 225.458 L2359.62 225.458 L2359.62 229.023 L2355.25 229.023 Q2350.32 229.023 2348.44 227.195 Q2346.57 225.343 2346.57 220.482 L2346.57 206.408 L2343.44 206.408 L2343.44 203.098 L2346.57 203.098 L2346.57 195.736 L2350.85 195.736 Z" fill="#000000" fill-rule="nonzero" fill-opacity="1" /><path clip-path="url(#clip560)" d="M2365.23 203.098 L2369.48 203.098 L2369.48 229.023 L2365.23 229.023 L2365.23 203.098 M2365.23 193.005 L2369.48 193.005 L2369.48 198.398 L2365.23 198.398 L2365.23 193.005 Z" fill="#000000" fill-rule="nonzero" fill-opacity="1" /><path clip-path="url(#clip560)" d="M2375.34 203.098 L2379.85 203.098 L2387.96 224.857 L2396.06 203.098 L2400.57 203.098 L2390.85 229.023 L2385.06 229.023 L2375.34 203.098 Z" fill="#000000" fill-rule="nonzero" fill-opacity="1" /><path clip-path="url(#clip560)" d="M2428.63 214.996 L2428.63 217.079 L2409.04 217.079 Q2409.32 221.477 2411.68 223.792 Q2414.07 226.083 2418.3 226.083 Q2420.76 226.083 2423.05 225.482 Q2425.36 224.88 2427.63 223.676 L2427.63 227.704 Q2425.34 228.676 2422.93 229.185 Q2420.53 229.695 2418.05 229.695 Q2411.85 229.695 2408.21 226.083 Q2404.6 222.472 2404.6 216.315 Q2404.6 209.949 2408.03 206.222 Q2411.48 202.473 2417.31 202.473 Q2422.54 202.473 2425.57 205.852 Q2428.63 209.209 2428.63 214.996 M2424.37 213.746 Q2424.32 210.25 2422.4 208.167 Q2420.5 206.084 2417.35 206.084 Q2413.79 206.084 2411.64 208.097 Q2409.51 210.111 2409.18 213.769 L2424.37 213.746 Z" fill="#000000" fill-rule="nonzero" fill-opacity="1" /><path clip-path="url(#clip560)" d="M2472.86 214.996 L2472.86 217.079 L2453.28 217.079 Q2453.56 221.477 2455.92 223.792 Q2458.3 226.083 2462.54 226.083 Q2464.99 226.083 2467.28 225.482 Q2469.6 224.88 2471.87 223.676 L2471.87 227.704 Q2469.58 228.676 2467.17 229.185 Q2464.76 229.695 2462.28 229.695 Q2456.08 229.695 2452.45 226.083 Q2448.84 222.472 2448.84 216.315 Q2448.84 209.949 2452.26 206.222 Q2455.71 202.473 2461.54 202.473 Q2466.78 202.473 2469.81 205.852 Q2472.86 209.209 2472.86 214.996 M2468.6 213.746 Q2468.56 210.25 2466.64 208.167 Q2464.74 206.084 2461.59 206.084 Q2458.03 206.084 2455.87 208.097 Q2453.74 210.111 2453.42 213.769 L2468.6 213.746 Z" fill="#000000" fill-rule="nonzero" fill-opacity="1" /><path clip-path="url(#clip560)" d="M2494.88 207.079 Q2494.16 206.662 2493.3 206.477 Q2492.47 206.269 2491.45 206.269 Q2487.84 206.269 2485.9 208.63 Q2483.97 210.968 2483.97 215.366 L2483.97 229.023 L2479.69 229.023 L2479.69 203.098 L2483.97 203.098 L2483.97 207.125 Q2485.32 204.764 2487.47 203.63 Q2489.62 202.473 2492.7 202.473 Q2493.14 202.473 2493.67 202.542 Q2494.21 202.588 2494.85 202.704 L2494.88 207.079 Z" fill="#000000" fill-rule="nonzero" fill-opacity="1" /><path clip-path="url(#clip560)" d="M2513.53 207.079 Q2512.82 206.662 2511.96 206.477 Q2511.13 206.269 2510.11 206.269 Q2506.5 206.269 2504.55 208.63 Q2502.63 210.968 2502.63 215.366 L2502.63 229.023 L2498.35 229.023 L2498.35 203.098 L2502.63 203.098 L2502.63 207.125 Q2503.97 204.764 2506.13 203.63 Q2508.28 202.473 2511.36 202.473 Q2511.8 202.473 2512.33 202.542 Q2512.86 202.588 2513.51 202.704 L2513.53 207.079 Z" fill="#000000" fill-rule="nonzero" fill-opacity="1" /><path clip-path="url(#clip560)" d="M2527.01 206.084 Q2523.58 206.084 2521.59 208.769 Q2519.6 211.431 2519.6 216.084 Q2519.6 220.736 2521.57 223.421 Q2523.56 226.083 2527.01 226.083 Q2530.41 226.083 2532.4 223.398 Q2534.39 220.713 2534.39 216.084 Q2534.39 211.477 2532.4 208.792 Q2530.41 206.084 2527.01 206.084 M2527.01 202.473 Q2532.56 202.473 2535.73 206.084 Q2538.9 209.695 2538.9 216.084 Q2538.9 222.449 2535.73 226.083 Q2532.56 229.695 2527.01 229.695 Q2521.43 229.695 2518.26 226.083 Q2515.11 222.449 2515.11 216.084 Q2515.11 209.695 2518.26 206.084 Q2521.43 202.473 2527.01 202.473 Z" fill="#000000" fill-rule="nonzero" fill-opacity="1" /><path clip-path="url(#clip560)" d="M2560.99 207.079 Q2560.27 206.662 2559.41 206.477 Q2558.58 206.269 2557.56 206.269 Q2553.95 206.269 2552.01 208.63 Q2550.09 210.968 2550.09 215.366 L2550.09 229.023 L2545.8 229.023 L2545.8 203.098 L2550.09 203.098 L2550.09 207.125 Q2551.43 204.764 2553.58 203.63 Q2555.73 202.473 2558.81 202.473 Q2559.25 202.473 2559.78 202.542 Q2560.32 202.588 2560.96 202.704 L2560.99 207.079 Z" fill="#000000" fill-rule="nonzero" fill-opacity="1" /></svg>
