<?xml version="1.0" encoding="utf-8"?>
<svg xmlns="http://www.w3.org/2000/svg" xmlns:xlink="http://www.w3.org/1999/xlink" width="760" height="420" viewBox="0 0 3040 1680">
<defs>
  <clipPath id="clip810">
    <rect x="0" y="0" width="3040" height="1680"/>
  </clipPath>
</defs>
<path clip-path="url(#clip810)" d="M0 1680 L3040 1680 L3040 9.14356e-14 L0 9.14356e-14  Z" fill="#ffffff" fill-rule="evenodd" fill-opacity="1"/>
<defs>
  <clipPath id="clip811">
    <rect x="608" y="0" width="2129" height="1680"/>
  </clipPath>
</defs>
<path clip-path="url(#clip810)" d="M172.42 1516.42 L2642.4 1516.42 L2642.4 113.127 L172.42 113.127  Z" fill="#ffffff" fill-rule="evenodd" fill-opacity="1"/>
<defs>
  <clipPath id="clip812">
    <rect x="172" y="113" width="2471" height="1404"/>
  </clipPath>
</defs>
<polyline clip-path="url(#clip812)" style="stroke:#000000; stroke-linecap:round; stroke-linejoin:round; stroke-width:2; stroke-opacity:0.1; fill:none" points="242.326,1516.42 242.326,113.127 "/>
<polyline clip-path="url(#clip812)" style="stroke:#000000; stroke-linecap:round; stroke-linejoin:round; stroke-width:2; stroke-opacity:0.1; fill:none" points="815.694,1516.42 815.694,113.127 "/>
<polyline clip-path="url(#clip812)" style="stroke:#000000; stroke-linecap:round; stroke-linejoin:round; stroke-width:2; stroke-opacity:0.1; fill:none" points="1389.06,1516.42 1389.06,113.127 "/>
<polyline clip-path="url(#clip812)" style="stroke:#000000; stroke-linecap:round; stroke-linejoin:round; stroke-width:2; stroke-opacity:0.1; fill:none" points="1962.43,1516.42 1962.43,113.127 "/>
<polyline clip-path="url(#clip812)" style="stroke:#000000; stroke-linecap:round; stroke-linejoin:round; stroke-width:2; stroke-opacity:0.1; fill:none" points="2535.8,1516.42 2535.8,113.127 "/>
<polyline clip-path="url(#clip810)" style="stroke:#000000; stroke-linecap:round; stroke-linejoin:round; stroke-width:4; stroke-opacity:1; fill:none" points="172.42,1516.42 2642.4,1516.42 "/>
<polyline clip-path="url(#clip810)" style="stroke:#000000; stroke-linecap:round; stroke-linejoin:round; stroke-width:4; stroke-opacity:1; fill:none" points="242.326,1516.42 242.326,1497.52 "/>
<polyline clip-path="url(#clip810)" style="stroke:#000000; stroke-linecap:round; stroke-linejoin:round; stroke-width:4; stroke-opacity:1; fill:none" points="815.694,1516.42 815.694,1497.52 "/>
<polyline clip-path="url(#clip810)" style="stroke:#000000; stroke-linecap:round; stroke-linejoin:round; stroke-width:4; stroke-opacity:1; fill:none" points="1389.06,1516.42 1389.06,1497.52 "/>
<polyline clip-path="url(#clip810)" style="stroke:#000000; stroke-linecap:round; stroke-linejoin:round; stroke-width:4; stroke-opacity:1; fill:none" points="1962.43,1516.42 1962.43,1497.52 "/>
<polyline clip-path="url(#clip810)" style="stroke:#000000; stroke-linecap:round; stroke-linejoin:round; stroke-width:4; stroke-opacity:1; fill:none" points="2535.8,1516.42 2535.8,1497.52 "/>
<path clip-path="url(#clip810)" d="M219.71 1552.46 Q216.099 1552.46 214.27 1556.02 Q212.465 1559.56 212.465 1566.69 Q212.465 1573.8 214.27 1577.37 Q216.099 1580.91 219.71 1580.91 Q223.344 1580.91 225.15 1577.37 Q226.978 1573.8 226.978 1566.69 Q226.978 1559.56 225.15 1556.02 Q223.344 1552.46 219.71 1552.46 M219.71 1548.75 Q225.52 1548.75 228.576 1553.36 Q231.654 1557.94 231.654 1566.69 Q231.654 1575.42 228.576 1580.03 Q225.52 1584.61 219.71 1584.61 Q213.9 1584.61 210.821 1580.03 Q207.766 1575.42 207.766 1566.69 Q207.766 1557.94 210.821 1553.36 Q213.9 1548.75 219.71 1548.75 Z" fill="#000000" fill-rule="nonzero" fill-opacity="1" /><path clip-path="url(#clip810)" d="M239.872 1578.06 L244.756 1578.06 L244.756 1583.94 L239.872 1583.94 L239.872 1578.06 Z" fill="#000000" fill-rule="nonzero" fill-opacity="1" /><path clip-path="url(#clip810)" d="M264.941 1552.46 Q261.33 1552.46 259.501 1556.02 Q257.696 1559.56 257.696 1566.69 Q257.696 1573.8 259.501 1577.37 Q261.33 1580.91 264.941 1580.91 Q268.575 1580.91 270.381 1577.37 Q272.21 1573.8 272.21 1566.69 Q272.21 1559.56 270.381 1556.02 Q268.575 1552.46 264.941 1552.46 M264.941 1548.75 Q270.751 1548.75 273.807 1553.36 Q276.886 1557.94 276.886 1566.69 Q276.886 1575.42 273.807 1580.03 Q270.751 1584.61 264.941 1584.61 Q259.131 1584.61 256.052 1580.03 Q252.997 1575.42 252.997 1566.69 Q252.997 1557.94 256.052 1553.36 Q259.131 1548.75 264.941 1548.75 Z" fill="#000000" fill-rule="nonzero" fill-opacity="1" /><path clip-path="url(#clip810)" d="M787.43 1580 L803.75 1580 L803.75 1583.94 L781.805 1583.94 L781.805 1580 Q784.467 1577.25 789.051 1572.62 Q793.657 1567.97 794.838 1566.63 Q797.083 1564.1 797.963 1562.37 Q798.865 1560.61 798.865 1558.92 Q798.865 1556.16 796.921 1554.43 Q795 1552.69 791.898 1552.69 Q789.699 1552.69 787.245 1553.45 Q784.815 1554.22 782.037 1555.77 L782.037 1551.05 Q784.861 1549.91 787.315 1549.33 Q789.768 1548.75 791.805 1548.75 Q797.176 1548.75 800.37 1551.44 Q803.564 1554.13 803.564 1558.62 Q803.564 1560.75 802.754 1562.67 Q801.967 1564.56 799.861 1567.16 Q799.282 1567.83 796.18 1571.05 Q793.078 1574.24 787.43 1580 Z" fill="#000000" fill-rule="nonzero" fill-opacity="1" /><path clip-path="url(#clip810)" d="M813.564 1578.06 L818.449 1578.06 L818.449 1583.94 L813.564 1583.94 L813.564 1578.06 Z" fill="#000000" fill-rule="nonzero" fill-opacity="1" /><path clip-path="url(#clip810)" d="M828.68 1549.38 L847.036 1549.38 L847.036 1553.32 L832.962 1553.32 L832.962 1561.79 Q833.981 1561.44 834.999 1561.28 Q836.018 1561.09 837.036 1561.09 Q842.823 1561.09 846.203 1564.26 Q849.583 1567.44 849.583 1572.85 Q849.583 1578.43 846.11 1581.53 Q842.638 1584.61 836.319 1584.61 Q834.143 1584.61 831.874 1584.24 Q829.629 1583.87 827.222 1583.13 L827.222 1578.43 Q829.305 1579.56 831.527 1580.12 Q833.749 1580.68 836.226 1580.68 Q840.231 1580.68 842.569 1578.57 Q844.907 1576.46 844.907 1572.85 Q844.907 1569.24 842.569 1567.13 Q840.231 1565.03 836.226 1565.03 Q834.351 1565.03 832.476 1565.44 Q830.624 1565.86 828.68 1566.74 L828.68 1549.38 Z" fill="#000000" fill-rule="nonzero" fill-opacity="1" /><path clip-path="url(#clip810)" d="M1356.23 1549.38 L1374.58 1549.38 L1374.58 1553.32 L1360.51 1553.32 L1360.51 1561.79 Q1361.53 1561.44 1362.55 1561.28 Q1363.56 1561.09 1364.58 1561.09 Q1370.37 1561.09 1373.75 1564.26 Q1377.13 1567.44 1377.13 1572.85 Q1377.13 1578.43 1373.66 1581.53 Q1370.19 1584.61 1363.87 1584.61 Q1361.69 1584.61 1359.42 1584.24 Q1357.18 1583.87 1354.77 1583.13 L1354.77 1578.43 Q1356.85 1579.56 1359.07 1580.12 Q1361.3 1580.68 1363.77 1580.68 Q1367.78 1580.68 1370.12 1578.57 Q1372.45 1576.46 1372.45 1572.85 Q1372.45 1569.24 1370.12 1567.13 Q1367.78 1565.03 1363.77 1565.03 Q1361.9 1565.03 1360.02 1565.44 Q1358.17 1565.86 1356.23 1566.74 L1356.23 1549.38 Z" fill="#000000" fill-rule="nonzero" fill-opacity="1" /><path clip-path="url(#clip810)" d="M1386.34 1578.06 L1391.23 1578.06 L1391.23 1583.94 L1386.34 1583.94 L1386.34 1578.06 Z" fill="#000000" fill-rule="nonzero" fill-opacity="1" /><path clip-path="url(#clip810)" d="M1411.41 1552.46 Q1407.8 1552.46 1405.97 1556.02 Q1404.17 1559.56 1404.17 1566.69 Q1404.17 1573.8 1405.97 1577.37 Q1407.8 1580.91 1411.41 1580.91 Q1415.05 1580.91 1416.85 1577.37 Q1418.68 1573.8 1418.68 1566.69 Q1418.68 1559.56 1416.85 1556.02 Q1415.05 1552.46 1411.41 1552.46 M1411.41 1548.75 Q1417.22 1548.75 1420.28 1553.36 Q1423.36 1557.94 1423.36 1566.69 Q1423.36 1575.42 1420.28 1580.03 Q1417.22 1584.61 1411.41 1584.61 Q1405.6 1584.61 1402.52 1580.03 Q1399.47 1575.42 1399.47 1566.69 Q1399.47 1557.94 1402.52 1553.36 Q1405.6 1548.75 1411.41 1548.75 Z" fill="#000000" fill-rule="nonzero" fill-opacity="1" /><path clip-path="url(#clip810)" d="M1928.75 1549.38 L1950.97 1549.38 L1950.97 1551.37 L1938.43 1583.94 L1933.54 1583.94 L1945.35 1553.32 L1928.75 1553.32 L1928.75 1549.38 Z" fill="#000000" fill-rule="nonzero" fill-opacity="1" /><path clip-path="url(#clip810)" d="M1960.09 1578.06 L1964.98 1578.06 L1964.98 1583.94 L1960.09 1583.94 L1960.09 1578.06 Z" fill="#000000" fill-rule="nonzero" fill-opacity="1" /><path clip-path="url(#clip810)" d="M1975.21 1549.38 L1993.56 1549.38 L1993.56 1553.32 L1979.49 1553.32 L1979.49 1561.79 Q1980.51 1561.44 1981.53 1561.28 Q1982.55 1561.09 1983.56 1561.09 Q1989.35 1561.09 1992.73 1564.26 Q1996.11 1567.44 1996.11 1572.85 Q1996.11 1578.43 1992.64 1581.53 Q1989.17 1584.61 1982.85 1584.61 Q1980.67 1584.61 1978.4 1584.24 Q1976.16 1583.87 1973.75 1583.13 L1973.75 1578.43 Q1975.83 1579.56 1978.06 1580.12 Q1980.28 1580.68 1982.75 1580.68 Q1986.76 1580.68 1989.1 1578.57 Q1991.44 1576.46 1991.44 1572.85 Q1991.44 1569.24 1989.1 1567.13 Q1986.76 1565.03 1982.75 1565.03 Q1980.88 1565.03 1979 1565.44 Q1977.15 1565.86 1975.21 1566.74 L1975.21 1549.38 Z" fill="#000000" fill-rule="nonzero" fill-opacity="1" /><path clip-path="url(#clip810)" d="M2487.87 1580 L2495.51 1580 L2495.51 1553.64 L2487.2 1555.31 L2487.2 1551.05 L2495.46 1549.38 L2500.14 1549.38 L2500.14 1580 L2507.78 1580 L2507.78 1583.94 L2487.87 1583.94 L2487.87 1580 Z" fill="#000000" fill-rule="nonzero" fill-opacity="1" /><path clip-path="url(#clip810)" d="M2527.22 1552.46 Q2523.61 1552.46 2521.78 1556.02 Q2519.98 1559.56 2519.98 1566.69 Q2519.98 1573.8 2521.78 1577.37 Q2523.61 1580.91 2527.22 1580.91 Q2530.86 1580.91 2532.66 1577.37 Q2534.49 1573.8 2534.49 1566.69 Q2534.49 1559.56 2532.66 1556.02 Q2530.86 1552.46 2527.22 1552.46 M2527.22 1548.75 Q2533.03 1548.75 2536.09 1553.36 Q2539.17 1557.94 2539.17 1566.69 Q2539.17 1575.42 2536.09 1580.03 Q2533.03 1584.61 2527.22 1584.61 Q2521.41 1584.61 2518.33 1580.03 Q2515.28 1575.42 2515.28 1566.69 Q2515.28 1557.94 2518.33 1553.36 Q2521.41 1548.75 2527.22 1548.75 Z" fill="#000000" fill-rule="nonzero" fill-opacity="1" /><path clip-path="url(#clip810)" d="M2547.38 1578.06 L2552.27 1578.06 L2552.27 1583.94 L2547.38 1583.94 L2547.38 1578.06 Z" fill="#000000" fill-rule="nonzero" fill-opacity="1" /><path clip-path="url(#clip810)" d="M2572.45 1552.46 Q2568.84 1552.46 2567.01 1556.02 Q2565.21 1559.56 2565.21 1566.69 Q2565.21 1573.8 2567.01 1577.37 Q2568.84 1580.91 2572.45 1580.91 Q2576.09 1580.91 2577.89 1577.37 Q2579.72 1573.8 2579.72 1566.69 Q2579.72 1559.56 2577.89 1556.02 Q2576.09 1552.46 2572.45 1552.46 M2572.45 1548.75 Q2578.26 1548.75 2581.32 1553.36 Q2584.4 1557.94 2584.4 1566.69 Q2584.4 1575.42 2581.32 1580.03 Q2578.26 1584.61 2572.45 1584.61 Q2566.64 1584.61 2563.57 1580.03 Q2560.51 1575.42 2560.51 1566.69 Q2560.51 1557.94 2563.57 1553.36 Q2566.64 1548.75 2572.45 1548.75 Z" fill="#000000" fill-rule="nonzero" fill-opacity="1" /><path clip-path="url(#clip810)" d="M1416.39 1632.96 Q1416.39 1634.76 1415.48 1635.73 Q1414.58 1636.66 1413.36 1636.66 Q1412.36 1636.66 1411.81 1636.08 Q1411.3 1635.5 1411.3 1634.73 Q1411.3 1633.6 1412.2 1632.7 Q1413.13 1631.8 1414.49 1631.76 Q1414.03 1630.57 1412.84 1629.86 Q1411.65 1629.12 1410.59 1628.93 Q1409.56 1628.74 1408.53 1628.74 Q1406.5 1628.74 1404.95 1629.38 Q1403.41 1630.03 1402.63 1631.02 Q1401.86 1631.99 1401.51 1632.92 Q1401.15 1633.86 1401.15 1634.66 Q1401.15 1635.37 1401.31 1635.95 Q1401.51 1636.5 1401.96 1636.92 Q1402.41 1637.3 1402.73 1637.56 Q1403.08 1637.82 1403.86 1638.04 Q1404.63 1638.27 1404.95 1638.37 Q1405.27 1638.43 1406.18 1638.62 Q1408.04 1639.01 1408.88 1639.24 Q1409.72 1639.43 1410.81 1639.98 Q1411.94 1640.52 1412.78 1641.39 Q1414.81 1643.42 1414.81 1646.22 Q1414.81 1647.26 1414.45 1648.51 Q1414.13 1649.77 1413.2 1651.35 Q1412.26 1652.92 1410.85 1654.18 Q1409.43 1655.44 1406.98 1656.3 Q1404.57 1657.17 1401.54 1657.17 Q1397.32 1657.17 1394.71 1655.4 Q1392.1 1653.6 1392.1 1650.77 Q1392.1 1648.7 1393.23 1647.58 Q1394.36 1646.42 1395.81 1646.42 Q1396.9 1646.42 1397.58 1647.03 Q1398.25 1647.61 1398.25 1648.7 Q1398.25 1650.19 1397.06 1651.31 Q1395.87 1652.44 1394.1 1652.21 Q1395.61 1655.69 1401.6 1655.69 Q1403.86 1655.69 1405.6 1655.11 Q1407.37 1654.5 1408.33 1653.66 Q1409.33 1652.79 1409.98 1651.73 Q1410.62 1650.67 1410.81 1649.86 Q1411.04 1649.06 1411.04 1648.45 Q1411.04 1647.38 1410.62 1646.58 Q1410.2 1645.77 1409.62 1645.32 Q1409.08 1644.84 1408.01 1644.45 Q1406.98 1644.03 1406.24 1643.87 Q1405.5 1643.71 1404.18 1643.45 Q1403.57 1643.33 1403.18 1643.26 Q1402.79 1643.17 1401.99 1642.91 Q1401.22 1642.62 1400.67 1642.33 Q1400.15 1642.04 1399.48 1641.52 Q1398.8 1641.01 1398.38 1640.4 Q1397.96 1639.78 1397.67 1638.88 Q1397.38 1637.98 1397.38 1636.92 Q1397.38 1635.95 1397.67 1634.79 Q1398 1633.63 1398.8 1632.28 Q1399.64 1630.93 1400.83 1629.83 Q1402.02 1628.74 1404.02 1628.03 Q1406.05 1627.29 1408.53 1627.29 Q1412.13 1627.29 1414.26 1628.96 Q1416.39 1630.6 1416.39 1632.96 Z" fill="#000000" fill-rule="nonzero" fill-opacity="1" /><polyline clip-path="url(#clip810)" style="stroke:#000000; stroke-linecap:round; stroke-linejoin:round; stroke-width:4; stroke-opacity:1; fill:none" points="172.42,1516.42 172.42,113.127 "/>
<polyline clip-path="url(#clip810)" style="stroke:#000000; stroke-linecap:round; stroke-linejoin:round; stroke-width:4; stroke-opacity:1; fill:none" points="172.42,1480.15 191.318,1480.15 "/>
<polyline clip-path="url(#clip810)" style="stroke:#000000; stroke-linecap:round; stroke-linejoin:round; stroke-width:4; stroke-opacity:1; fill:none" points="172.42,1078.96 191.318,1078.96 "/>
<polyline clip-path="url(#clip810)" style="stroke:#000000; stroke-linecap:round; stroke-linejoin:round; stroke-width:4; stroke-opacity:1; fill:none" points="172.42,677.776 191.318,677.776 "/>
<polyline clip-path="url(#clip810)" style="stroke:#000000; stroke-linecap:round; stroke-linejoin:round; stroke-width:4; stroke-opacity:1; fill:none" points="172.42,276.588 191.318,276.588 "/>
<path clip-path="url(#clip810)" d="M114.876 1465.95 Q111.265 1465.95 109.436 1469.52 Q107.631 1473.06 107.631 1480.19 Q107.631 1487.29 109.436 1490.86 Q111.265 1494.4 114.876 1494.4 Q118.51 1494.4 120.316 1490.86 Q122.145 1487.29 122.145 1480.19 Q122.145 1473.06 120.316 1469.52 Q118.51 1465.95 114.876 1465.95 M114.876 1462.25 Q120.686 1462.25 123.742 1466.85 Q126.82 1471.44 126.82 1480.19 Q126.82 1488.91 123.742 1493.52 Q120.686 1498.1 114.876 1498.1 Q109.066 1498.1 105.987 1493.52 Q102.932 1488.91 102.932 1480.19 Q102.932 1471.44 105.987 1466.85 Q109.066 1462.25 114.876 1462.25 Z" fill="#000000" fill-rule="nonzero" fill-opacity="1" /><path clip-path="url(#clip810)" d="M106.913 1092.31 L114.552 1092.31 L114.552 1065.94 L106.242 1067.61 L106.242 1063.35 L114.506 1061.68 L119.182 1061.68 L119.182 1092.31 L126.82 1092.31 L126.82 1096.24 L106.913 1096.24 L106.913 1092.31 Z" fill="#000000" fill-rule="nonzero" fill-opacity="1" /><path clip-path="url(#clip810)" d="M110.501 691.121 L126.82 691.121 L126.82 695.056 L104.876 695.056 L104.876 691.121 Q107.538 688.366 112.122 683.736 Q116.728 679.084 117.909 677.741 Q120.154 675.218 121.033 673.482 Q121.936 671.723 121.936 670.033 Q121.936 667.278 119.992 665.542 Q118.071 663.806 114.969 663.806 Q112.77 663.806 110.316 664.57 Q107.885 665.334 105.108 666.885 L105.108 662.162 Q107.932 661.028 110.385 660.449 Q112.839 659.871 114.876 659.871 Q120.246 659.871 123.441 662.556 Q126.635 665.241 126.635 669.732 Q126.635 671.861 125.825 673.783 Q125.038 675.681 122.932 678.273 Q122.353 678.945 119.251 682.162 Q116.149 685.357 110.501 691.121 Z" fill="#000000" fill-rule="nonzero" fill-opacity="1" /><path clip-path="url(#clip810)" d="M119.691 275.233 Q123.047 275.951 124.922 278.22 Q126.82 280.488 126.82 283.821 Q126.82 288.937 123.302 291.738 Q119.783 294.539 113.302 294.539 Q111.126 294.539 108.811 294.099 Q106.52 293.682 104.066 292.826 L104.066 288.312 Q106.01 289.446 108.325 290.025 Q110.64 290.604 113.163 290.604 Q117.561 290.604 119.853 288.868 Q122.168 287.132 122.168 283.821 Q122.168 280.766 120.015 279.053 Q117.885 277.317 114.066 277.317 L110.038 277.317 L110.038 273.474 L114.251 273.474 Q117.7 273.474 119.529 272.108 Q121.358 270.72 121.358 268.127 Q121.358 265.465 119.459 264.053 Q117.584 262.618 114.066 262.618 Q112.145 262.618 109.946 263.034 Q107.747 263.451 105.108 264.331 L105.108 260.164 Q107.77 259.423 110.084 259.053 Q112.422 258.683 114.483 258.683 Q119.807 258.683 122.908 261.113 Q126.01 263.521 126.01 267.641 Q126.01 270.511 124.367 272.502 Q122.723 274.47 119.691 275.233 Z" fill="#000000" fill-rule="nonzero" fill-opacity="1" /><path clip-path="url(#clip810)" d="M28.8517 838.32 Q29.0449 838.32 29.7857 838.577 L44.0207 843.795 Q44.858 844.084 45.019 844.374 Q45.1479 844.664 45.1479 845.856 L45.1479 876.387 Q45.1479 877.128 45.1157 877.418 Q45.0834 877.707 44.9224 877.933 Q44.7614 878.158 44.4071 878.158 Q43.763 878.158 43.4732 877.933 Q43.1833 877.675 43.1511 877.385 Q43.1189 877.095 43.1189 876.387 Q43.1189 874.777 43.0223 873.81 Q42.9257 872.844 42.7968 872.232 Q42.6358 871.588 42.1849 871.266 Q41.734 870.912 41.3476 870.751 Q40.9289 870.59 39.9949 870.364 L4.56848 861.54 Q3.50568 861.282 3.34465 861.282 Q2.73274 861.282 2.57171 861.669 Q2.37848 862.023 2.28186 863.054 L2.15304 865.566 Q2.15304 866.339 2.12083 866.661 Q2.08862 866.951 1.9276 867.176 Q1.76657 867.401 1.4123 867.401 Q0.80039 867.401 0.510538 867.176 Q0.188479 866.918 0.156273 866.725 Q0.0918614 866.5 0.0918614 866.145 L0.285097 857.385 L0.0918614 847.627 Q0.0918614 846.564 0.897008 846.564 Q1.79877 846.564 1.99201 847.015 Q2.15304 847.466 2.15304 849.076 Q2.15304 852.168 2.4751 853.585 Q2.79715 854.97 3.34465 855.357 Q3.85995 855.711 5.2448 856.065 L40.8645 864.986 Q42.0561 865.308 42.3782 865.308 Q42.7324 865.308 42.8612 865.147 Q42.9579 864.954 43.0223 864.439 Q43.1189 863.859 43.1189 862.989 L43.1189 856.806 Q43.1189 854.938 42.829 853.295 Q42.5392 851.653 42.1205 850.397 Q41.7018 849.109 40.9289 847.949 Q40.156 846.79 39.4796 845.985 Q38.7711 845.147 37.6761 844.342 Q36.5489 843.505 35.776 843.022 Q34.9708 842.506 33.6826 841.927 Q32.3621 841.347 31.6214 841.057 Q30.8485 840.735 29.528 840.252 Q28.8517 839.962 28.6585 839.865 Q28.4652 839.769 28.3042 839.608 Q28.1432 839.415 28.1432 839.125 Q28.1432 838.738 28.3686 838.545 Q28.594 838.32 28.8517 838.32 Z" fill="#000000" fill-rule="nonzero" fill-opacity="1" /><path clip-path="url(#clip810)" d="M28.6585 830.006 Q17.5152 830.006 8.5298 825.852 Q4.76171 824.081 1.60554 821.601 Q-1.55064 819.121 -2.93549 817.478 Q-4.32034 815.836 -4.32034 815.385 Q-4.32034 814.741 -3.67622 814.709 Q-3.35417 814.709 -2.54902 815.578 Q8.27215 826.206 28.6585 826.174 Q49.1092 826.174 59.5117 815.836 Q60.6389 814.709 60.9931 814.709 Q61.6373 814.709 61.6373 815.385 Q61.6373 815.836 60.3168 817.414 Q58.9964 818.992 55.969 821.44 Q52.9417 823.887 49.238 825.659 Q40.2526 830.006 28.6585 830.006 Z" fill="#000000" fill-rule="nonzero" fill-opacity="1" /><path clip-path="url(#clip810)" d="M21.6698 784.098 Q23.4733 784.098 24.4395 785 Q25.3735 785.901 25.3735 787.125 Q25.3735 788.124 24.7938 788.671 Q24.2141 789.186 23.4411 789.186 Q22.3139 789.186 21.4121 788.285 Q20.5104 787.351 20.4782 785.998 Q19.2866 786.449 18.578 787.64 Q17.8373 788.832 17.6441 789.895 Q17.4508 790.925 17.4508 791.956 Q17.4508 793.985 18.0949 795.531 Q18.7391 797.077 19.7374 797.85 Q20.7036 798.623 21.6376 798.977 Q22.5716 799.331 23.3767 799.331 Q24.0852 799.331 24.6649 799.17 Q25.2124 798.977 25.6311 798.526 Q26.0176 798.075 26.2752 797.753 Q26.5329 797.399 26.7583 796.626 Q26.9838 795.853 27.0804 795.531 Q27.1448 795.209 27.338 794.307 Q27.7245 792.439 27.9499 791.602 Q28.1432 790.764 28.6907 789.669 Q29.2382 788.542 30.1077 787.705 Q32.1367 785.676 34.9386 785.676 Q35.9692 785.676 37.2252 786.03 Q38.4812 786.352 40.0593 787.286 Q41.6374 788.22 42.8935 789.637 Q44.1495 791.054 45.019 793.502 Q45.8886 795.917 45.8886 798.945 Q45.8886 803.164 44.1173 805.772 Q42.3137 808.381 39.4796 808.381 Q37.4185 808.381 36.2912 807.254 Q35.1318 806.127 35.1318 804.677 Q35.1318 803.582 35.7437 802.906 Q36.3235 802.23 37.4185 802.23 Q38.8999 802.23 40.0271 803.421 Q41.1543 804.613 40.9289 806.384 Q44.4071 804.871 44.4071 798.88 Q44.4071 796.626 43.8274 794.887 Q43.2155 793.115 42.3782 792.149 Q41.5086 791.151 40.4458 790.507 Q39.383 789.863 38.5779 789.669 Q37.7727 789.444 37.1608 789.444 Q36.098 789.444 35.2929 789.863 Q34.4877 790.281 34.0368 790.861 Q33.5538 791.409 33.1673 792.471 Q32.7486 793.502 32.5876 794.243 Q32.4265 794.983 32.1689 796.304 Q32.0401 796.916 31.9757 797.302 Q31.879 797.689 31.6214 798.494 Q31.3315 799.267 31.0417 799.814 Q30.7518 800.33 30.2365 801.006 Q29.7213 801.682 29.1093 802.101 Q28.4974 802.52 27.5957 802.809 Q26.6939 803.099 25.6311 803.099 Q24.6649 803.099 23.5055 802.809 Q22.3461 802.487 20.9935 801.682 Q19.6408 800.845 18.5458 799.653 Q17.4508 798.462 16.7423 796.465 Q16.0016 794.436 16.0016 791.956 Q16.0016 788.349 17.6763 786.223 Q19.3188 784.098 21.6698 784.098 Z" fill="#000000" fill-rule="nonzero" fill-opacity="1" /><path clip-path="url(#clip810)" d="M60.9931 776.71 Q60.6711 776.71 59.8659 775.872 Q49.0448 765.245 28.6585 765.245 Q8.20774 765.245 -2.13034 775.454 Q-3.32196 776.71 -3.67622 776.71 Q-4.32034 776.71 -4.32034 776.066 Q-4.32034 775.615 -2.9999 774.037 Q-1.67946 772.426 1.34789 770.011 Q4.37524 767.563 8.07892 765.76 Q17.0644 761.412 28.6585 761.412 Q39.8017 761.412 48.7871 765.567 Q52.5552 767.338 55.7114 769.818 Q58.8676 772.298 60.2524 773.94 Q61.6373 775.583 61.6373 776.066 Q61.6373 776.71 60.9931 776.71 Z" fill="#000000" fill-rule="nonzero" fill-opacity="1" /><path clip-path="url(#clip810)" d="M1228.42 22.0773 Q1228.42 24.3318 1226.99 25.7254 Q1225.59 27.119 1223.83 27.119 Q1222.56 27.119 1221.62 26.3402 Q1220.72 25.5614 1220.72 24.2088 Q1220.72 22.8152 1221.78 21.3395 Q1222.85 19.8639 1225.26 19.659 Q1223.67 18.1424 1221.12 18.1424 Q1219.85 18.1424 1218.79 18.9622 Q1217.76 19.741 1217.19 21.0116 Q1216.58 22.3233 1215.18 29.7423 Q1214.73 32.1607 1214.32 34.4971 Q1213.91 36.8335 1213.42 39.2928 L1220.39 39.2928 Q1221.29 39.2928 1221.66 39.3338 Q1222.03 39.3748 1222.31 39.5798 Q1222.64 39.7847 1222.64 40.2356 Q1222.64 41.3833 1222.11 41.6702 Q1221.62 41.9162 1220.14 41.9162 L1212.93 41.9162 L1207.89 68.5182 Q1207.76 69.297 1207.23 71.7564 Q1206.74 74.1747 1205.55 78.1507 Q1204.36 82.1676 1203.17 84.545 Q1202.52 85.8977 1201.66 87.1683 Q1200.84 88.48 1199.65 89.7916 Q1198.46 91.1033 1196.9 91.8821 Q1195.34 92.7019 1193.7 92.7019 Q1190.92 92.7019 1188.74 91.1443 Q1186.57 89.5867 1186.57 86.9224 Q1186.57 84.668 1187.96 83.2743 Q1189.4 81.8807 1191.16 81.8807 Q1192.43 81.8807 1193.33 82.6595 Q1194.28 83.4383 1194.28 84.7909 Q1194.28 85.3648 1194.07 86.0206 Q1193.87 86.6764 1193.42 87.4143 Q1192.97 88.1931 1191.98 88.7259 Q1191 89.2588 1189.65 89.3408 Q1191.24 90.8574 1193.7 90.8574 Q1194.48 90.8574 1195.18 90.5294 Q1195.88 90.2425 1196.45 89.5047 Q1197.06 88.7669 1197.52 88.0291 Q1197.97 87.3323 1198.42 85.9796 Q1198.87 84.668 1199.15 83.6842 Q1199.44 82.7005 1199.81 80.9379 Q1200.22 79.1754 1200.43 78.1097 Q1200.63 77.085 1201 75.0765 L1207.27 41.9162 L1201.74 41.9162 Q1200.75 41.9162 1200.34 41.8752 Q1199.97 41.8342 1199.69 41.6292 Q1199.4 41.3833 1199.4 40.8914 Q1199.4 40.1126 1199.73 39.7847 Q1200.1 39.4158 1200.51 39.3748 Q1200.92 39.2928 1201.9 39.2928 L1207.72 39.2928 Q1209.69 28.9226 1210.47 26.1353 Q1211.37 23.1841 1212.76 21.1346 Q1214.16 19.0441 1215.71 18.0604 Q1217.27 17.0767 1218.54 16.7078 Q1219.85 16.2979 1221.12 16.2979 Q1223.99 16.2979 1226.21 17.8555 Q1228.42 19.3721 1228.42 22.0773 Z" fill="#000000" fill-rule="nonzero" fill-opacity="1" /><path clip-path="url(#clip810)" d="M1239.72 54.4999 Q1239.72 40.3176 1245.01 28.8816 Q1247.26 24.0858 1250.42 20.0689 Q1253.58 16.0519 1255.67 14.2894 Q1257.76 12.5268 1258.33 12.5268 Q1259.15 12.5268 1259.19 13.3466 Q1259.19 13.7565 1258.09 14.7813 Q1244.56 28.5537 1244.6 54.4999 Q1244.6 80.5281 1257.76 93.7676 Q1259.19 95.2022 1259.19 95.6531 Q1259.19 96.4729 1258.33 96.4729 Q1257.76 96.4729 1255.75 94.7923 Q1253.74 93.1118 1250.63 89.2588 Q1247.51 85.4058 1245.26 80.692 Q1239.72 69.256 1239.72 54.4999 Z" fill="#000000" fill-rule="nonzero" fill-opacity="1" /><path clip-path="url(#clip810)" d="M1291.36 40.2356 Q1291.36 41.3833 1290.82 41.6702 Q1290.29 41.9162 1288.81 41.9162 L1280.94 41.9162 L1274.71 66.6737 Q1274.22 68.8461 1274.22 70.6906 Q1274.22 72.7401 1274.84 73.6419 Q1275.49 74.5436 1276.85 74.5436 Q1279.51 74.5436 1282.38 72.1253 Q1285.29 69.7069 1287.75 63.8044 Q1288.08 63.0256 1288.24 62.8617 Q1288.45 62.6567 1288.98 62.6567 Q1290 62.6567 1290 63.4765 Q1290 63.7634 1289.43 65.0751 Q1288.9 66.3868 1287.71 68.3133 Q1286.56 70.2397 1285.04 72.0433 Q1283.57 73.8468 1281.31 75.1585 Q1279.06 76.4291 1276.64 76.4291 Q1273.24 76.4291 1271.07 74.2567 Q1268.93 72.0843 1268.93 68.6822 Q1268.93 67.5754 1269.8 64.0504 Q1270.66 60.4843 1275.33 41.9162 L1267.91 41.9162 Q1266.89 41.9162 1266.48 41.8752 Q1266.11 41.8342 1265.82 41.6292 Q1265.57 41.3833 1265.57 40.8914 Q1265.57 40.1126 1265.9 39.7847 Q1266.23 39.4158 1266.64 39.3748 Q1267.09 39.2928 1268.11 39.2928 L1275.98 39.2928 L1279.26 25.9713 Q1279.59 24.6597 1280.41 23.9219 Q1281.27 23.1431 1281.76 23.0611 Q1282.26 22.9381 1282.63 22.9381 Q1283.73 22.9381 1284.39 23.553 Q1285.04 24.1268 1285.04 25.1925 Q1285.04 25.7664 1281.6 39.2928 L1288.98 39.2928 Q1289.92 39.2928 1290.29 39.3338 Q1290.7 39.3748 1291.03 39.5798 Q1291.36 39.7847 1291.36 40.2356 Z" fill="#000000" fill-rule="nonzero" fill-opacity="1" /><path clip-path="url(#clip810)" d="M1297.93 95.6531 Q1297.93 95.2432 1298.99 94.2185 Q1312.52 80.4461 1312.52 54.4999 Q1312.52 28.4717 1299.53 15.3141 Q1297.93 13.7975 1297.93 13.3466 Q1297.93 12.5268 1298.75 12.5268 Q1299.32 12.5268 1301.33 14.2074 Q1303.38 15.888 1306.45 19.741 Q1309.57 23.5939 1311.86 28.3077 Q1317.4 39.7437 1317.4 54.4999 Q1317.4 68.6822 1312.11 80.1182 Q1309.86 84.9139 1306.7 88.9309 Q1303.54 92.9478 1301.45 94.7103 Q1299.36 96.4729 1298.75 96.4729 Q1297.93 96.4729 1297.93 95.6531 Z" fill="#000000" fill-rule="nonzero" fill-opacity="1" /><path clip-path="url(#clip810)" d="M1353.45 62.7387 Q1353.54 61.714 1355.13 61.714 L1406.58 61.714 Q1408.99 61.714 1409.04 62.6567 Q1409.04 63.6815 1406.74 63.6405 L1355.71 63.6405 Q1353.45 63.6815 1353.45 62.7387 M1353.45 46.343 Q1353.45 45.3183 1355.22 45.3593 L1406.49 45.3593 Q1408.99 45.3593 1409.04 46.343 Q1409.04 47.2858 1406.9 47.2858 L1355.13 47.2858 Q1353.45 47.2858 1353.45 46.343 Z" fill="#000000" fill-rule="nonzero" fill-opacity="1" /><path clip-path="url(#clip810)" d="M1467.2 40.2356 Q1467.2 41.3833 1466.67 41.6702 Q1466.14 41.9162 1464.66 41.9162 L1456.79 41.9162 L1450.56 66.6737 Q1450.07 68.8461 1450.07 70.6906 Q1450.07 72.7401 1450.68 73.6419 Q1451.34 74.5436 1452.69 74.5436 Q1455.35 74.5436 1458.22 72.1253 Q1461.13 69.7069 1463.59 63.8044 Q1463.92 63.0256 1464.09 62.8617 Q1464.29 62.6567 1464.82 62.6567 Q1465.85 62.6567 1465.85 63.4765 Q1465.85 63.7634 1465.27 65.0751 Q1464.74 66.3868 1463.55 68.3133 Q1462.41 70.2397 1460.89 72.0433 Q1459.41 73.8468 1457.16 75.1585 Q1454.9 76.4291 1452.49 76.4291 Q1449.08 76.4291 1446.91 74.2567 Q1444.78 72.0843 1444.78 68.6822 Q1444.78 67.5754 1445.64 64.0504 Q1446.5 60.4843 1451.17 41.9162 L1443.75 41.9162 Q1442.73 41.9162 1442.32 41.8752 Q1441.95 41.8342 1441.66 41.6292 Q1441.42 41.3833 1441.42 40.8914 Q1441.42 40.1126 1441.75 39.7847 Q1442.07 39.4158 1442.48 39.3748 Q1442.94 39.2928 1443.96 39.2928 L1451.83 39.2928 L1455.11 25.9713 Q1455.44 24.6597 1456.26 23.9219 Q1457.12 23.1431 1457.61 23.0611 Q1458.1 22.9381 1458.47 22.9381 Q1459.58 22.9381 1460.23 23.553 Q1460.89 24.1268 1460.89 25.1925 Q1460.89 25.7664 1457.45 39.2928 L1464.82 39.2928 Q1465.77 39.2928 1466.14 39.3338 Q1466.54 39.3748 1466.87 39.5798 Q1467.2 39.7847 1467.2 40.2356 Z" fill="#000000" fill-rule="nonzero" fill-opacity="1" /><path clip-path="url(#clip810)" d="M1514.44 65.7719 Q1514.77 66.1408 1514.77 66.5097 Q1514.77 66.8786 1513.95 67.9443 Q1513.17 69.0101 1511.49 70.4447 Q1509.81 71.8793 1507.64 73.232 Q1505.47 74.5846 1502.27 75.4864 Q1499.07 76.4291 1495.71 76.4291 Q1489.69 76.4291 1486.08 72.1253 Q1482.51 67.8214 1482.51 61.2221 Q1482.51 57.0002 1483.91 53.2702 Q1485.3 49.4992 1487.55 46.8349 Q1489.85 44.1706 1492.72 42.2441 Q1495.63 40.2766 1498.66 39.3338 Q1501.7 38.3911 1504.52 38.3911 Q1508.66 38.3911 1511.08 40.4815 Q1513.5 42.572 1513.5 45.5232 Q1513.5 46.22 1513.29 47.0808 Q1513.13 47.9416 1512.56 49.2942 Q1512.02 50.6469 1510.63 51.9995 Q1509.24 53.3112 1507.19 54.172 Q1502.64 56.0984 1494.36 56.0984 L1489.89 56.0984 Q1488.58 61.3861 1488.58 64.8292 Q1488.58 66.1818 1488.82 67.5754 Q1489.07 68.9281 1489.73 70.6496 Q1490.42 72.3712 1491.98 73.4779 Q1493.58 74.5436 1495.87 74.5436 Q1496.61 74.5436 1497.39 74.5026 Q1498.21 74.4616 1500.26 74.0108 Q1502.35 73.5599 1504.2 72.7811 Q1506.04 72.0023 1508.38 70.3217 Q1510.75 68.6002 1512.64 66.2638 Q1513.29 65.403 1513.75 65.403 Q1514.11 65.403 1514.44 65.7719 M1510.71 45.5232 Q1510.71 43.2688 1509.03 41.7522 Q1507.39 40.2356 1504.52 40.2356 Q1503.62 40.2356 1502.51 40.4405 Q1501.41 40.6455 1499.56 41.5063 Q1497.76 42.367 1496.16 43.8017 Q1494.56 45.1953 1492.96 47.9416 Q1491.37 50.6469 1490.42 54.2539 L1493.87 54.2539 Q1495.05 54.2539 1495.92 54.2539 Q1496.78 54.2129 1498.66 54.049 Q1500.59 53.885 1501.98 53.5981 Q1503.38 53.2702 1505.14 52.6144 Q1506.9 51.9585 1508.01 51.0978 Q1509.16 50.196 1509.93 48.7614 Q1510.71 47.3267 1510.71 45.5232 Z" fill="#000000" fill-rule="nonzero" fill-opacity="1" /><path clip-path="url(#clip810)" d="M1562.21 33.5102 Q1562.55 33.8545 1562.55 34.3423 Q1562.55 34.83 1562.21 35.1744 Q1561.86 35.5187 1561.38 35.5187 L1524.59 35.5187 Q1524.1 35.5187 1523.76 35.1744 Q1523.42 34.83 1523.42 34.3423 Q1523.42 33.8545 1523.76 33.5102 Q1524.1 33.1659 1524.59 33.1659 L1561.38 33.1659 Q1561.86 33.1659 1562.21 33.5102 Z" fill="#000000" fill-rule="nonzero" fill-opacity="1" /><path clip-path="url(#clip810)" d="M1595.6 40.6259 Q1594.83 44.3273 1593.82 46.4505 Q1592.21 49.6928 1589.49 49.6928 Q1587.42 49.6928 1585.96 48.4303 Q1584.5 47.1678 1584.15 45.2741 Q1580.39 49.6928 1576.49 49.6928 Q1573.05 49.6928 1570.87 47.0817 Q1568.69 44.442 1568.69 40.2816 Q1568.69 36.0925 1570.75 32.0756 Q1572.85 28.0586 1576.15 25.5624 Q1579.45 23.0661 1582.83 23.0661 Q1586.42 23.0661 1588.25 26.8248 Q1588.4 25.7919 1589.06 25.0172 Q1589.72 24.2425 1590.72 24.2425 Q1591.5 24.2425 1591.96 24.6729 Q1592.42 25.0746 1592.42 25.8206 Q1592.42 26.1936 1592.01 27.8291 L1589.89 36.0351 L1588.6 41.3432 Q1588.11 43.2943 1587.97 44.0116 Q1587.85 44.729 1587.85 45.6758 Q1587.85 48.3729 1589.6 48.3729 Q1590.46 48.3729 1591.15 47.8277 Q1591.84 47.2826 1592.39 46.1349 Q1592.93 44.9872 1593.28 43.9256 Q1593.62 42.8353 1594.08 41.1137 Q1594.22 40.4251 1594.34 40.2529 Q1594.48 40.0521 1594.88 40.0521 Q1595.6 40.0521 1595.6 40.6259 M1587.54 29.5219 Q1587.54 29.2637 1587.34 28.5464 Q1587.14 27.8291 1586.68 26.8248 Q1586.22 25.8206 1585.21 25.1033 Q1584.24 24.3573 1582.92 24.3573 Q1581.14 24.3573 1579.27 25.878 Q1577.44 27.3987 1576.09 29.981 Q1575.06 32.0469 1573.94 36.3794 Q1572.85 40.712 1572.85 42.8639 Q1572.85 44.1838 1573.13 45.3602 Q1573.45 46.5079 1574.34 47.4547 Q1575.23 48.3729 1576.61 48.3729 Q1579.96 48.3729 1583.26 44.2125 Q1583.89 43.4952 1584.04 43.2083 Q1584.21 42.8926 1584.44 42.0319 L1587.37 30.5262 Q1587.54 29.6654 1587.54 29.5219 Z" fill="#000000" fill-rule="nonzero" fill-opacity="1" /><path clip-path="url(#clip810)" d="M1616.34 24.3573 Q1616.34 25.1607 1615.96 25.3615 Q1615.59 25.5337 1614.56 25.5337 L1609.05 25.5337 L1604.69 42.8639 Q1604.34 44.3846 1604.34 45.6758 Q1604.34 47.1104 1604.77 47.7417 Q1605.23 48.3729 1606.18 48.3729 Q1608.04 48.3729 1610.05 46.68 Q1612.09 44.9872 1613.81 40.8555 Q1614.04 40.3103 1614.15 40.1955 Q1614.3 40.0521 1614.67 40.0521 Q1615.39 40.0521 1615.39 40.6259 Q1615.39 40.8268 1614.99 41.7449 Q1614.61 42.6631 1613.78 44.0116 Q1612.98 45.3602 1611.92 46.6227 Q1610.88 47.8851 1609.31 48.8033 Q1607.73 49.6928 1606.03 49.6928 Q1603.65 49.6928 1602.13 48.1721 Q1600.64 46.6514 1600.64 44.2699 Q1600.64 43.4952 1601.24 41.0276 Q1601.85 38.5314 1605.12 25.5337 L1599.92 25.5337 Q1599.21 25.5337 1598.92 25.505 Q1598.66 25.4763 1598.46 25.3328 Q1598.29 25.1607 1598.29 24.8164 Q1598.29 24.2712 1598.52 24.0417 Q1598.75 23.7834 1599.03 23.7547 Q1599.35 23.6974 1600.07 23.6974 L1605.58 23.6974 L1607.87 14.3723 Q1608.1 13.4541 1608.67 12.9377 Q1609.28 12.3925 1609.62 12.3351 Q1609.97 12.2491 1610.22 12.2491 Q1611 12.2491 1611.46 12.6794 Q1611.92 13.0811 1611.92 13.8271 Q1611.92 14.2288 1609.51 23.6974 L1614.67 23.6974 Q1615.33 23.6974 1615.59 23.7261 Q1615.88 23.7547 1616.11 23.8982 Q1616.34 24.0417 1616.34 24.3573 Z" fill="#000000" fill-rule="nonzero" fill-opacity="1" /><polyline clip-path="url(#clip812)" style="stroke:#009af9; stroke-linecap:round; stroke-linejoin:round; stroke-width:8; stroke-opacity:1; fill:none" points="242.326,152.843 260.673,426.493 279.021,630.615 297.369,785.042 315.717,903.525 334.065,995.696 352.412,1068.36 370.76,1126.4 389.108,1173.32 407.456,1211.68 425.803,1243.4 444.151,1269.88 462.499,1292.2 480.847,1311.17 499.195,1327.42 517.542,1341.45 535.89,1353.63 554.238,1364.28 572.586,1373.64 590.934,1381.92 609.281,1389.27 627.629,1395.82 645.977,1401.69 664.325,1406.97 682.673,1411.73 701.02,1416.05 719.368,1419.96 737.716,1423.54 756.064,1426.8 774.411,1429.79 792.759,1432.53 811.107,1435.06 829.455,1437.39 847.803,1439.55 866.15,1441.54 884.498,1443.4 902.846,1445.12 921.194,1446.72 939.542,1448.22 957.889,1449.62 976.237,1450.93 994.585,1452.16 1012.93,1453.31 1031.28,1454.39 1049.63,1455.41 1067.98,1456.37 1086.32,1457.27 1104.67,1458.13 1123.02,1458.94 1141.37,1459.7 1159.72,1460.42 1178.06,1461.11 1196.41,1461.76 1214.76,1462.38 1233.11,1462.97 1251.45,1463.53 1269.8,1464.06 1288.15,1464.57 1306.5,1465.05 1324.85,1465.51 1343.19,1465.95 1361.54,1466.37 1379.89,1466.78 1398.24,1467.16 1416.58,1467.53 1434.93,1467.89 1453.28,1468.23 1471.63,1468.55 1489.98,1468.86 1508.32,1469.17 1526.67,1469.45 1545.02,1469.73 1563.37,1470 1581.71,1470.25 1600.06,1470.5 1618.41,1470.74 1636.76,1470.97 1655.11,1471.19 1673.45,1471.4 1691.8,1471.61 1710.15,1471.81 1728.5,1472 1746.84,1472.19 1765.19,1472.37 1783.54,1472.54 1801.89,1472.71 1820.24,1472.87 1838.58,1473.03 1856.93,1473.18 1875.28,1473.33 1893.63,1473.47 1911.97,1473.61 1930.32,1473.74 1948.67,1473.87 1967.02,1474 1985.37,1474.12 2003.71,1474.24 2022.06,1474.35 2040.41,1474.47 2058.76,1474.58 2077.1,1474.68 2095.45,1474.79 2113.8,1474.89 2132.15,1474.98 2150.5,1475.08 2168.84,1475.17 2187.19,1475.26 2205.54,1475.35 2223.89,1475.43 2242.23,1475.52 2260.58,1475.6 2278.93,1475.67 2297.28,1475.75 2315.63,1475.83 2333.97,1475.9 2352.32,1475.97 2370.67,1476.04 2389.02,1476.11 2407.36,1476.17 2425.71,1476.24 2444.06,1476.3 2462.41,1476.36 2480.76,1476.42 2499.1,1476.48 2517.45,1476.54 2535.8,1476.6 2554.15,1476.65 2572.49,1476.7 "/>
<polyline clip-path="url(#clip812)" style="stroke:#e26f46; stroke-linecap:round; stroke-linejoin:round; stroke-width:8; stroke-opacity:1; fill:none" stroke-dasharray="32, 20" points="242.326,152.843 260.673,426.493 279.021,630.615 297.369,785.042 315.717,903.525 334.065,995.696 352.412,1068.36 370.76,1126.4 389.108,1173.32 407.456,1211.68 425.803,1243.4 444.151,1269.88 462.499,1292.2 480.847,1311.17 499.195,1327.42 517.542,1341.45 535.89,1353.63 554.238,1364.28 572.586,1373.64 590.934,1381.92 609.281,1389.27 627.629,1395.82 645.977,1401.69 664.325,1406.97 682.673,1411.73 701.02,1416.05 719.368,1419.96 737.716,1423.54 756.064,1426.8 774.411,1429.79 792.759,1432.53 811.107,1435.06 829.455,1437.39 847.803,1439.55 866.15,1441.54 884.498,1443.4 902.846,1445.12 921.194,1446.72 939.542,1448.22 957.889,1449.62 976.237,1450.93 994.585,1452.16 1012.93,1453.31 1031.28,1454.39 1049.63,1455.41 1067.98,1456.37 1086.32,1457.27 1104.67,1458.13 1123.02,1458.94 1141.37,1459.7 1159.72,1460.42 1178.06,1461.11 1196.41,1461.76 1214.76,1462.38 1233.11,1462.97 1251.45,1463.53 1269.8,1464.06 1288.15,1464.57 1306.5,1465.05 1324.85,1465.51 1343.19,1465.95 1361.54,1466.37 1379.89,1466.78 1398.24,1467.16 1416.58,1467.53 1434.93,1467.89 1453.28,1468.23 1471.63,1468.55 1489.98,1468.86 1508.32,1469.17 1526.67,1469.45 1545.02,1469.73 1563.37,1470 1581.71,1470.25 1600.06,1470.5 1618.41,1470.74 1636.76,1470.97 1655.11,1471.19 1673.45,1471.4 1691.8,1471.61 1710.15,1471.81 1728.5,1472 1746.84,1472.19 1765.19,1472.37 1783.54,1472.54 1801.89,1472.71 1820.24,1472.87 1838.58,1473.03 1856.93,1473.18 1875.28,1473.33 1893.63,1473.47 1911.97,1473.61 1930.32,1473.74 1948.67,1473.87 1967.02,1474 1985.37,1474.12 2003.71,1474.24 2022.06,1474.35 2040.41,1474.47 2058.76,1474.58 2077.1,1474.68 2095.45,1474.79 2113.8,1474.89 2132.15,1474.98 2150.5,1475.08 2168.84,1475.17 2187.19,1475.26 2205.54,1475.35 2223.89,1475.43 2242.23,1475.52 2260.58,1475.6 2278.93,1475.67 2297.28,1475.75 2315.63,1475.83 2333.97,1475.9 2352.32,1475.97 2370.67,1476.04 2389.02,1476.11 2407.36,1476.17 2425.71,1476.24 2444.06,1476.3 2462.41,1476.36 2480.76,1476.42 2499.1,1476.48 2517.45,1476.54 2535.8,1476.6 2554.15,1476.65 2572.49,1476.7 "/>
<path clip-path="url(#clip810)" d="M254.753 315.423 L936.124 315.423 L936.124 159.903 L254.753 159.903  Z" fill="#ffffff" fill-rule="evenodd" fill-opacity="1"/>
<polyline clip-path="url(#clip810)" style="stroke:#000000; stroke-linecap:round; stroke-linejoin:round; stroke-width:4; stroke-opacity:1; fill:none" points="254.753,315.423 936.124,315.423 936.124,159.903 254.753,159.903 254.753,315.423 "/>
<polyline clip-path="url(#clip810)" style="stroke:#009af9; stroke-linecap:round; stroke-linejoin:round; stroke-width:8; stroke-opacity:1; fill:none" points="282.197,211.743 446.863,211.743 "/>
<path clip-path="url(#clip810)" d="M490.14 199.07 L483.798 216.269 L496.506 216.269 L490.14 199.07 M487.501 194.463 L492.802 194.463 L505.973 229.023 L501.112 229.023 L497.964 220.158 L482.386 220.158 L479.237 229.023 L474.307 229.023 L487.501 194.463 Z" fill="#000000" fill-rule="nonzero" fill-opacity="1" /><path clip-path="url(#clip810)" d="M532.385 213.375 L532.385 229.023 L528.126 229.023 L528.126 213.514 Q528.126 209.834 526.691 208.005 Q525.256 206.176 522.385 206.176 Q518.936 206.176 516.946 208.375 Q514.955 210.574 514.955 214.371 L514.955 229.023 L510.672 229.023 L510.672 203.098 L514.955 203.098 L514.955 207.125 Q516.483 204.787 518.543 203.63 Q520.626 202.473 523.334 202.473 Q527.802 202.473 530.094 205.25 Q532.385 208.005 532.385 213.375 Z" fill="#000000" fill-rule="nonzero" fill-opacity="1" /><path clip-path="url(#clip810)" d="M552.663 215.991 Q547.501 215.991 545.51 217.172 Q543.519 218.352 543.519 221.199 Q543.519 223.468 545.001 224.81 Q546.506 226.13 549.075 226.13 Q552.617 226.13 554.746 223.63 Q556.899 221.107 556.899 216.94 L556.899 215.991 L552.663 215.991 M561.158 214.232 L561.158 229.023 L556.899 229.023 L556.899 225.088 Q555.441 227.449 553.265 228.583 Q551.089 229.695 547.941 229.695 Q543.959 229.695 541.598 227.472 Q539.26 225.227 539.26 221.477 Q539.26 217.102 542.177 214.88 Q545.117 212.658 550.927 212.658 L556.899 212.658 L556.899 212.241 Q556.899 209.301 554.955 207.704 Q553.033 206.084 549.538 206.084 Q547.316 206.084 545.209 206.616 Q543.103 207.148 541.158 208.213 L541.158 204.278 Q543.496 203.375 545.695 202.935 Q547.894 202.473 549.978 202.473 Q555.603 202.473 558.38 205.389 Q561.158 208.306 561.158 214.232 Z" fill="#000000" fill-rule="nonzero" fill-opacity="1" /><path clip-path="url(#clip810)" d="M569.931 193.005 L574.191 193.005 L574.191 229.023 L569.931 229.023 L569.931 193.005 Z" fill="#000000" fill-rule="nonzero" fill-opacity="1" /><path clip-path="url(#clip810)" d="M593.89 231.431 Q592.084 236.06 590.371 237.472 Q588.658 238.884 585.788 238.884 L582.385 238.884 L582.385 235.32 L584.885 235.32 Q586.644 235.32 587.616 234.486 Q588.589 233.653 589.769 230.551 L590.533 228.607 L580.047 203.098 L584.561 203.098 L592.663 223.375 L600.765 203.098 L605.278 203.098 L593.89 231.431 Z" fill="#000000" fill-rule="nonzero" fill-opacity="1" /><path clip-path="url(#clip810)" d="M615.371 195.736 L615.371 203.098 L624.144 203.098 L624.144 206.408 L615.371 206.408 L615.371 220.482 Q615.371 223.653 616.227 224.556 Q617.107 225.458 619.769 225.458 L624.144 225.458 L624.144 229.023 L619.769 229.023 Q614.839 229.023 612.964 227.195 Q611.089 225.343 611.089 220.482 L611.089 206.408 L607.964 206.408 L607.964 203.098 L611.089 203.098 L611.089 195.736 L615.371 195.736 Z" fill="#000000" fill-rule="nonzero" fill-opacity="1" /><path clip-path="url(#clip810)" d="M629.746 203.098 L634.005 203.098 L634.005 229.023 L629.746 229.023 L629.746 203.098 M629.746 193.005 L634.005 193.005 L634.005 198.398 L629.746 198.398 L629.746 193.005 Z" fill="#000000" fill-rule="nonzero" fill-opacity="1" /><path clip-path="url(#clip810)" d="M661.574 204.093 L661.574 208.074 Q659.769 207.079 657.94 206.593 Q656.135 206.084 654.283 206.084 Q650.139 206.084 647.848 208.722 Q645.556 211.338 645.556 216.084 Q645.556 220.829 647.848 223.468 Q650.139 226.083 654.283 226.083 Q656.135 226.083 657.94 225.597 Q659.769 225.088 661.574 224.093 L661.574 228.028 Q659.792 228.861 657.871 229.278 Q655.973 229.695 653.82 229.695 Q647.963 229.695 644.514 226.014 Q641.065 222.334 641.065 216.084 Q641.065 209.741 644.537 206.107 Q648.033 202.473 654.098 202.473 Q656.065 202.473 657.94 202.889 Q659.815 203.283 661.574 204.093 Z" fill="#000000" fill-rule="nonzero" fill-opacity="1" /><path clip-path="url(#clip810)" d="M680.764 215.991 Q675.602 215.991 673.611 217.172 Q671.621 218.352 671.621 221.199 Q671.621 223.468 673.102 224.81 Q674.607 226.13 677.176 226.13 Q680.718 226.13 682.847 223.63 Q685 221.107 685 216.94 L685 215.991 L680.764 215.991 M689.259 214.232 L689.259 229.023 L685 229.023 L685 225.088 Q683.542 227.449 681.366 228.583 Q679.19 229.695 676.042 229.695 Q672.06 229.695 669.699 227.472 Q667.361 225.227 667.361 221.477 Q667.361 217.102 670.278 214.88 Q673.218 212.658 679.028 212.658 L685 212.658 L685 212.241 Q685 209.301 683.056 207.704 Q681.134 206.084 677.639 206.084 Q675.417 206.084 673.31 206.616 Q671.204 207.148 669.26 208.213 L669.26 204.278 Q671.597 203.375 673.797 202.935 Q675.996 202.473 678.079 202.473 Q683.704 202.473 686.482 205.389 Q689.259 208.306 689.259 214.232 Z" fill="#000000" fill-rule="nonzero" fill-opacity="1" /><path clip-path="url(#clip810)" d="M698.033 193.005 L702.292 193.005 L702.292 229.023 L698.033 229.023 L698.033 193.005 Z" fill="#000000" fill-rule="nonzero" fill-opacity="1" /><path clip-path="url(#clip810)" d="M743.333 207.033 L743.333 193.005 L747.592 193.005 L747.592 229.023 L743.333 229.023 L743.333 225.134 Q741.991 227.449 739.93 228.583 Q737.893 229.695 735.023 229.695 Q730.324 229.695 727.361 225.945 Q724.421 222.195 724.421 216.084 Q724.421 209.972 727.361 206.222 Q730.324 202.473 735.023 202.473 Q737.893 202.473 739.93 203.607 Q741.991 204.718 743.333 207.033 M728.819 216.084 Q728.819 220.783 730.741 223.468 Q732.685 226.13 736.065 226.13 Q739.444 226.13 741.389 223.468 Q743.333 220.783 743.333 216.084 Q743.333 211.385 741.389 208.722 Q739.444 206.037 736.065 206.037 Q732.685 206.037 730.741 208.722 Q728.819 211.385 728.819 216.084 Z" fill="#000000" fill-rule="nonzero" fill-opacity="1" /><path clip-path="url(#clip810)" d="M756.366 203.098 L760.625 203.098 L760.625 229.023 L756.366 229.023 L756.366 203.098 M756.366 193.005 L760.625 193.005 L760.625 198.398 L756.366 198.398 L756.366 193.005 Z" fill="#000000" fill-rule="nonzero" fill-opacity="1" /><path clip-path="url(#clip810)" d="M786.064 203.861 L786.064 207.889 Q784.259 206.963 782.314 206.5 Q780.37 206.037 778.287 206.037 Q775.115 206.037 773.518 207.01 Q771.944 207.982 771.944 209.926 Q771.944 211.408 773.078 212.264 Q774.213 213.097 777.639 213.861 L779.097 214.185 Q783.634 215.158 785.532 216.94 Q787.453 218.699 787.453 221.871 Q787.453 225.482 784.583 227.588 Q781.736 229.695 776.736 229.695 Q774.652 229.695 772.384 229.278 Q770.139 228.884 767.639 228.074 L767.639 223.676 Q770 224.903 772.291 225.528 Q774.583 226.13 776.828 226.13 Q779.838 226.13 781.458 225.111 Q783.078 224.07 783.078 222.195 Q783.078 220.459 781.898 219.533 Q780.74 218.607 776.782 217.75 L775.301 217.403 Q771.342 216.57 769.583 214.857 Q767.824 213.121 767.824 210.111 Q767.824 206.454 770.416 204.463 Q773.009 202.473 777.777 202.473 Q780.139 202.473 782.222 202.82 Q784.305 203.167 786.064 203.861 Z" fill="#000000" fill-rule="nonzero" fill-opacity="1" /><path clip-path="url(#clip810)" d="M812.893 204.093 L812.893 208.074 Q811.087 207.079 809.259 206.593 Q807.453 206.084 805.601 206.084 Q801.458 206.084 799.166 208.722 Q796.875 211.338 796.875 216.084 Q796.875 220.829 799.166 223.468 Q801.458 226.083 805.601 226.083 Q807.453 226.083 809.259 225.597 Q811.087 225.088 812.893 224.093 L812.893 228.028 Q811.111 228.861 809.189 229.278 Q807.291 229.695 805.138 229.695 Q799.282 229.695 795.833 226.014 Q792.384 222.334 792.384 216.084 Q792.384 209.741 795.856 206.107 Q799.351 202.473 805.416 202.473 Q807.384 202.473 809.259 202.889 Q811.134 203.283 812.893 204.093 Z" fill="#000000" fill-rule="nonzero" fill-opacity="1" /><path clip-path="url(#clip810)" d="M835.323 207.079 Q834.606 206.662 833.749 206.477 Q832.916 206.269 831.898 206.269 Q828.286 206.269 826.342 208.63 Q824.421 210.968 824.421 215.366 L824.421 229.023 L820.138 229.023 L820.138 203.098 L824.421 203.098 L824.421 207.125 Q825.763 204.764 827.916 203.63 Q830.069 202.473 833.148 202.473 Q833.587 202.473 834.12 202.542 Q834.652 202.588 835.3 202.704 L835.323 207.079 Z" fill="#000000" fill-rule="nonzero" fill-opacity="1" /><path clip-path="url(#clip810)" d="M860.925 214.996 L860.925 217.079 L841.342 217.079 Q841.62 221.477 843.981 223.792 Q846.365 226.083 850.601 226.083 Q853.055 226.083 855.346 225.482 Q857.661 224.88 859.93 223.676 L859.93 227.704 Q857.638 228.676 855.231 229.185 Q852.823 229.695 850.347 229.695 Q844.143 229.695 840.509 226.083 Q836.898 222.472 836.898 216.315 Q836.898 209.949 840.323 206.222 Q843.772 202.473 849.606 202.473 Q854.837 202.473 857.87 205.852 Q860.925 209.209 860.925 214.996 M856.666 213.746 Q856.62 210.25 854.698 208.167 Q852.8 206.084 849.652 206.084 Q846.087 206.084 843.935 208.097 Q841.805 210.111 841.481 213.769 L856.666 213.746 Z" fill="#000000" fill-rule="nonzero" fill-opacity="1" /><path clip-path="url(#clip810)" d="M872.129 195.736 L872.129 203.098 L880.902 203.098 L880.902 206.408 L872.129 206.408 L872.129 220.482 Q872.129 223.653 872.985 224.556 Q873.865 225.458 876.527 225.458 L880.902 225.458 L880.902 229.023 L876.527 229.023 Q871.596 229.023 869.721 227.195 Q867.846 225.343 867.846 220.482 L867.846 206.408 L864.721 206.408 L864.721 203.098 L867.846 203.098 L867.846 195.736 L872.129 195.736 Z" fill="#000000" fill-rule="nonzero" fill-opacity="1" /><path clip-path="url(#clip810)" d="M908.68 214.996 L908.68 217.079 L889.096 217.079 Q889.374 221.477 891.735 223.792 Q894.119 226.083 898.356 226.083 Q900.809 226.083 903.101 225.482 Q905.416 224.88 907.684 223.676 L907.684 227.704 Q905.393 228.676 902.985 229.185 Q900.578 229.695 898.101 229.695 Q891.897 229.695 888.263 226.083 Q884.652 222.472 884.652 216.315 Q884.652 209.949 888.078 206.222 Q891.527 202.473 897.36 202.473 Q902.592 202.473 905.624 205.852 Q908.68 209.209 908.68 214.996 M904.42 213.746 Q904.374 210.25 902.453 208.167 Q900.555 206.084 897.406 206.084 Q893.842 206.084 891.689 208.097 Q889.559 210.111 889.235 213.769 L904.42 213.746 Z" fill="#000000" fill-rule="nonzero" fill-opacity="1" /><polyline clip-path="url(#clip810)" style="stroke:#e26f46; stroke-linecap:round; stroke-linejoin:round; stroke-width:8; stroke-opacity:1; fill:none" stroke-dasharray="32, 20" points="282.197,263.583 446.863,263.583 "/>
<path clip-path="url(#clip810)" d="M474.307 246.303 L481.274 246.303 L490.094 269.822 L498.96 246.303 L505.927 246.303 L505.927 280.863 L501.367 280.863 L501.367 250.516 L492.455 274.22 L487.756 274.22 L478.844 250.516 L478.844 280.863 L474.307 280.863 L474.307 246.303 Z" fill="#000000" fill-rule="nonzero" fill-opacity="1" /><path clip-path="url(#clip810)" d="M519.885 250.146 L519.885 263.132 L525.765 263.132 Q529.029 263.132 530.811 261.442 Q532.594 259.752 532.594 256.627 Q532.594 253.525 530.811 251.836 Q529.029 250.146 525.765 250.146 L519.885 250.146 M515.209 246.303 L525.765 246.303 Q531.575 246.303 534.538 248.942 Q537.524 251.558 537.524 256.627 Q537.524 261.743 534.538 264.359 Q531.575 266.974 525.765 266.974 L519.885 266.974 L519.885 280.863 L515.209 280.863 L515.209 246.303 Z" fill="#000000" fill-rule="nonzero" fill-opacity="1" /><path clip-path="url(#clip810)" d="M564.515 247.438 L564.515 251.998 Q561.853 250.725 559.492 250.1 Q557.13 249.475 554.931 249.475 Q551.112 249.475 549.029 250.956 Q546.969 252.438 546.969 255.169 Q546.969 257.461 548.334 258.641 Q549.723 259.799 553.566 260.516 L556.39 261.095 Q561.621 262.09 564.098 264.613 Q566.598 267.113 566.598 271.326 Q566.598 276.349 563.218 278.942 Q559.862 281.535 553.357 281.535 Q550.904 281.535 548.126 280.979 Q545.371 280.423 542.408 279.336 L542.408 274.521 Q545.256 276.118 547.987 276.928 Q550.718 277.738 553.357 277.738 Q557.362 277.738 559.538 276.164 Q561.714 274.59 561.714 271.674 Q561.714 269.127 560.14 267.692 Q558.589 266.257 555.024 265.539 L552.177 264.984 Q546.945 263.942 544.607 261.72 Q542.269 259.498 542.269 255.539 Q542.269 250.956 545.487 248.317 Q548.728 245.678 554.399 245.678 Q556.83 245.678 559.353 246.118 Q561.876 246.558 564.515 247.438 Z" fill="#000000" fill-rule="nonzero" fill-opacity="1" /><polyline clip-path="url(#clip810)" style="stroke:#000000; stroke-linecap:round; stroke-linejoin:round; stroke-width:4; stroke-opacity:1; fill:none" points="2642.4,1516.42 2642.4,113.127 "/>
<polyline clip-path="url(#clip810)" style="stroke:#000000; stroke-linecap:round; stroke-linejoin:round; stroke-width:4; stroke-opacity:1; fill:none" points="2642.4,1516.42 2623.5,1516.42 "/>
<polyline clip-path="url(#clip810)" style="stroke:#000000; stroke-linecap:round; stroke-linejoin:round; stroke-width:4; stroke-opacity:1; fill:none" points="2642.4,1174.18 2623.5,1174.18 "/>
<polyline clip-path="url(#clip810)" style="stroke:#000000; stroke-linecap:round; stroke-linejoin:round; stroke-width:4; stroke-opacity:1; fill:none" points="2642.4,831.936 2623.5,831.936 "/>
<polyline clip-path="url(#clip810)" style="stroke:#000000; stroke-linecap:round; stroke-linejoin:round; stroke-width:4; stroke-opacity:1; fill:none" points="2642.4,489.693 2623.5,489.693 "/>
<polyline clip-path="url(#clip810)" style="stroke:#000000; stroke-linecap:round; stroke-linejoin:round; stroke-width:4; stroke-opacity:1; fill:none" points="2642.4,147.451 2623.5,147.451 "/>
<path clip-path="url(#clip810)" d="M2699.94 1502.22 Q2696.33 1502.22 2694.5 1505.78 Q2692.7 1509.32 2692.7 1516.45 Q2692.7 1523.56 2694.5 1527.13 Q2696.33 1530.67 2699.94 1530.67 Q2703.58 1530.67 2705.38 1527.13 Q2707.21 1523.56 2707.21 1516.45 Q2707.21 1509.32 2705.38 1505.78 Q2703.58 1502.22 2699.94 1502.22 M2699.94 1498.51 Q2705.75 1498.51 2708.81 1503.12 Q2711.89 1507.7 2711.89 1516.45 Q2711.89 1525.18 2708.81 1529.79 Q2705.75 1534.37 2699.94 1534.37 Q2694.13 1534.37 2691.06 1529.79 Q2688 1525.18 2688 1516.45 Q2688 1507.7 2691.06 1503.12 Q2694.13 1498.51 2699.94 1498.51 Z" fill="#000000" fill-rule="nonzero" fill-opacity="1" /><path clip-path="url(#clip810)" d="M2689.46 1163.35 L2707.81 1163.35 L2707.81 1167.28 L2693.74 1167.28 L2693.74 1175.75 Q2694.76 1175.41 2695.78 1175.24 Q2696.8 1175.06 2697.81 1175.06 Q2703.6 1175.06 2706.98 1178.23 Q2710.36 1181.4 2710.36 1186.82 Q2710.36 1192.4 2706.89 1195.5 Q2703.42 1198.58 2697.1 1198.58 Q2694.92 1198.58 2692.65 1198.21 Q2690.41 1197.84 2688 1197.1 L2688 1192.4 Q2690.08 1193.53 2692.31 1194.09 Q2694.53 1194.64 2697 1194.64 Q2701.01 1194.64 2703.35 1192.53 Q2705.68 1190.43 2705.68 1186.82 Q2705.68 1183.21 2703.35 1181.1 Q2701.01 1178.99 2697 1178.99 Q2695.13 1178.99 2693.25 1179.41 Q2691.4 1179.83 2689.46 1180.71 L2689.46 1163.35 Z" fill="#000000" fill-rule="nonzero" fill-opacity="1" /><path clip-path="url(#clip810)" d="M2719.57 1192.03 L2724.46 1192.03 L2724.46 1197.91 L2719.57 1197.91 L2719.57 1192.03 Z" fill="#000000" fill-rule="nonzero" fill-opacity="1" /><path clip-path="url(#clip810)" d="M2744.64 1166.42 Q2741.03 1166.42 2739.2 1169.99 Q2737.4 1173.53 2737.4 1180.66 Q2737.4 1187.77 2739.2 1191.33 Q2741.03 1194.87 2744.64 1194.87 Q2748.28 1194.87 2750.08 1191.33 Q2751.91 1187.77 2751.91 1180.66 Q2751.91 1173.53 2750.08 1169.99 Q2748.28 1166.42 2744.64 1166.42 M2744.64 1162.72 Q2750.45 1162.72 2753.51 1167.33 Q2756.59 1171.91 2756.59 1180.66 Q2756.59 1189.39 2753.51 1193.99 Q2750.45 1198.58 2744.64 1198.58 Q2738.83 1198.58 2735.75 1193.99 Q2732.7 1189.39 2732.7 1180.66 Q2732.7 1171.91 2735.75 1167.33 Q2738.83 1162.72 2744.64 1162.72 Z" fill="#000000" fill-rule="nonzero" fill-opacity="1" /><path clip-path="url(#clip810)" d="M2774.8 1166.42 Q2771.19 1166.42 2769.37 1169.99 Q2767.56 1173.53 2767.56 1180.66 Q2767.56 1187.77 2769.37 1191.33 Q2771.19 1194.87 2774.8 1194.87 Q2778.44 1194.87 2780.24 1191.33 Q2782.07 1187.77 2782.07 1180.66 Q2782.07 1173.53 2780.24 1169.99 Q2778.44 1166.42 2774.8 1166.42 M2774.8 1162.72 Q2780.62 1162.72 2783.67 1167.33 Q2786.75 1171.91 2786.75 1180.66 Q2786.75 1189.39 2783.67 1193.99 Q2780.62 1198.58 2774.8 1198.58 Q2768.99 1198.58 2765.92 1193.99 Q2762.86 1189.39 2762.86 1180.66 Q2762.86 1171.91 2765.92 1167.33 Q2768.99 1162.72 2774.8 1162.72 Z" fill="#000000" fill-rule="nonzero" fill-opacity="1" /><path clip-path="url(#clip810)" d="M2823.14 1172.44 L2812.56 1183.07 L2823.14 1193.65 L2820.38 1196.45 L2809.76 1185.82 L2799.13 1196.45 L2796.4 1193.65 L2806.96 1183.07 L2796.4 1172.44 L2799.13 1169.64 L2809.76 1180.27 L2820.38 1169.64 L2823.14 1172.44 Z" fill="#000000" fill-rule="nonzero" fill-opacity="1" /><path clip-path="url(#clip810)" d="M2835.5 1193.97 L2843.14 1193.97 L2843.14 1167.6 L2834.83 1169.27 L2834.83 1165.01 L2843.09 1163.35 L2847.77 1163.35 L2847.77 1193.97 L2855.41 1193.97 L2855.41 1197.91 L2835.5 1197.91 L2835.5 1193.97 Z" fill="#000000" fill-rule="nonzero" fill-opacity="1" /><path clip-path="url(#clip810)" d="M2874.85 1166.42 Q2871.24 1166.42 2869.41 1169.99 Q2867.61 1173.53 2867.61 1180.66 Q2867.61 1187.77 2869.41 1191.33 Q2871.24 1194.87 2874.85 1194.87 Q2878.48 1194.87 2880.29 1191.33 Q2882.12 1187.77 2882.12 1180.66 Q2882.12 1173.53 2880.29 1169.99 Q2878.48 1166.42 2874.85 1166.42 M2874.85 1162.72 Q2880.66 1162.72 2883.72 1167.33 Q2886.8 1171.91 2886.8 1180.66 Q2886.8 1189.39 2883.72 1193.99 Q2880.66 1198.58 2874.85 1198.58 Q2869.04 1198.58 2865.96 1193.99 Q2862.91 1189.39 2862.91 1180.66 Q2862.91 1171.91 2865.96 1167.33 Q2869.04 1162.72 2874.85 1162.72 Z" fill="#000000" fill-rule="nonzero" fill-opacity="1" /><path clip-path="url(#clip810)" d="M2886.8 1156.82 L2910.91 1156.82 L2910.91 1160.02 L2886.8 1160.02 L2886.8 1156.82 Z" fill="#000000" fill-rule="nonzero" fill-opacity="1" /><path clip-path="url(#clip810)" d="M2927.7 1154.94 Q2925.14 1154.94 2923.64 1156.69 Q2922.15 1158.44 2922.15 1161.49 Q2922.15 1164.51 2923.64 1166.28 Q2925.14 1168.03 2927.7 1168.03 Q2930.26 1168.03 2931.75 1166.28 Q2933.25 1164.51 2933.25 1161.49 Q2933.25 1158.44 2931.75 1156.69 Q2930.26 1154.94 2927.7 1154.94 M2935.24 1143.04 L2935.24 1146.5 Q2933.81 1145.82 2932.35 1145.46 Q2930.9 1145.1 2929.47 1145.1 Q2925.71 1145.1 2923.71 1147.64 Q2921.74 1150.18 2921.46 1155.32 Q2922.57 1153.68 2924.24 1152.82 Q2925.92 1151.93 2927.93 1151.93 Q2932.16 1151.93 2934.6 1154.51 Q2937.07 1157.07 2937.07 1161.49 Q2937.07 1165.81 2934.51 1168.43 Q2931.95 1171.04 2927.7 1171.04 Q2922.83 1171.04 2920.25 1167.32 Q2917.68 1163.57 2917.68 1156.48 Q2917.68 1149.83 2920.84 1145.88 Q2924 1141.91 2929.32 1141.91 Q2930.75 1141.91 2932.2 1142.19 Q2933.66 1142.47 2935.24 1143.04 Z" fill="#000000" fill-rule="nonzero" fill-opacity="1" /><path clip-path="url(#clip810)" d="M2688.67 851.728 L2696.31 851.728 L2696.31 825.362 L2688 827.029 L2688 822.77 L2696.26 821.103 L2700.94 821.103 L2700.94 851.728 L2708.58 851.728 L2708.58 855.663 L2688.67 855.663 L2688.67 851.728 Z" fill="#000000" fill-rule="nonzero" fill-opacity="1" /><path clip-path="url(#clip810)" d="M2718.02 849.784 L2722.91 849.784 L2722.91 855.663 L2718.02 855.663 L2718.02 849.784 Z" fill="#000000" fill-rule="nonzero" fill-opacity="1" /><path clip-path="url(#clip810)" d="M2743.09 824.182 Q2739.48 824.182 2737.65 827.747 Q2735.85 831.288 2735.85 838.418 Q2735.85 845.524 2737.65 849.089 Q2739.48 852.631 2743.09 852.631 Q2746.73 852.631 2748.53 849.089 Q2750.36 845.524 2750.36 838.418 Q2750.36 831.288 2748.53 827.747 Q2746.73 824.182 2743.09 824.182 M2743.09 820.478 Q2748.9 820.478 2751.96 825.085 Q2755.04 829.668 2755.04 838.418 Q2755.04 847.145 2751.96 851.751 Q2748.9 856.334 2743.09 856.334 Q2737.28 856.334 2734.2 851.751 Q2731.15 847.145 2731.15 838.418 Q2731.15 829.668 2734.2 825.085 Q2737.28 820.478 2743.09 820.478 Z" fill="#000000" fill-rule="nonzero" fill-opacity="1" /><path clip-path="url(#clip810)" d="M2773.25 824.182 Q2769.64 824.182 2767.81 827.747 Q2766.01 831.288 2766.01 838.418 Q2766.01 845.524 2767.81 849.089 Q2769.64 852.631 2773.25 852.631 Q2776.89 852.631 2778.69 849.089 Q2780.52 845.524 2780.52 838.418 Q2780.52 831.288 2778.69 827.747 Q2776.89 824.182 2773.25 824.182 M2773.25 820.478 Q2779.06 820.478 2782.12 825.085 Q2785.2 829.668 2785.2 838.418 Q2785.2 847.145 2782.12 851.751 Q2779.06 856.334 2773.25 856.334 Q2767.44 856.334 2764.37 851.751 Q2761.31 847.145 2761.31 838.418 Q2761.31 829.668 2764.37 825.085 Q2767.44 820.478 2773.25 820.478 Z" fill="#000000" fill-rule="nonzero" fill-opacity="1" /><path clip-path="url(#clip810)" d="M2821.59 830.2 L2811.01 840.825 L2821.59 851.404 L2818.83 854.205 L2808.21 843.58 L2797.58 854.205 L2794.85 851.404 L2805.41 840.825 L2794.85 830.2 L2797.58 827.399 L2808.21 838.024 L2818.83 827.399 L2821.59 830.2 Z" fill="#000000" fill-rule="nonzero" fill-opacity="1" /><path clip-path="url(#clip810)" d="M2833.95 851.728 L2841.59 851.728 L2841.59 825.362 L2833.28 827.029 L2833.28 822.77 L2841.54 821.103 L2846.22 821.103 L2846.22 851.728 L2853.86 851.728 L2853.86 855.663 L2833.95 855.663 L2833.95 851.728 Z" fill="#000000" fill-rule="nonzero" fill-opacity="1" /><path clip-path="url(#clip810)" d="M2873.3 824.182 Q2869.69 824.182 2867.86 827.747 Q2866.05 831.288 2866.05 838.418 Q2866.05 845.524 2867.86 849.089 Q2869.69 852.631 2873.3 852.631 Q2876.93 852.631 2878.74 849.089 Q2880.57 845.524 2880.57 838.418 Q2880.57 831.288 2878.74 827.747 Q2876.93 824.182 2873.3 824.182 M2873.3 820.478 Q2879.11 820.478 2882.17 825.085 Q2885.24 829.668 2885.24 838.418 Q2885.24 847.145 2882.17 851.751 Q2879.11 856.334 2873.3 856.334 Q2867.49 856.334 2864.41 851.751 Q2861.36 847.145 2861.36 838.418 Q2861.36 829.668 2864.41 825.085 Q2867.49 820.478 2873.3 820.478 Z" fill="#000000" fill-rule="nonzero" fill-opacity="1" /><path clip-path="url(#clip810)" d="M2885.24 814.58 L2909.36 814.58 L2909.36 817.777 L2885.24 817.777 L2885.24 814.58 Z" fill="#000000" fill-rule="nonzero" fill-opacity="1" /><path clip-path="url(#clip810)" d="M2917.59 800.173 L2932.51 800.173 L2932.51 803.37 L2921.07 803.37 L2921.07 810.254 Q2921.9 809.972 2922.73 809.84 Q2923.56 809.69 2924.38 809.69 Q2929.09 809.69 2931.83 812.266 Q2934.58 814.843 2934.58 819.244 Q2934.58 823.777 2931.76 826.297 Q2928.93 828.798 2923.8 828.798 Q2922.03 828.798 2920.19 828.497 Q2918.36 828.196 2916.41 827.595 L2916.41 823.777 Q2918.1 824.698 2919.91 825.15 Q2921.71 825.601 2923.72 825.601 Q2926.98 825.601 2928.88 823.889 Q2930.78 822.178 2930.78 819.244 Q2930.78 816.31 2928.88 814.598 Q2926.98 812.887 2923.72 812.887 Q2922.2 812.887 2920.68 813.225 Q2919.17 813.564 2917.59 814.279 L2917.59 800.173 Z" fill="#000000" fill-rule="nonzero" fill-opacity="1" /><path clip-path="url(#clip810)" d="M2688.67 509.486 L2696.31 509.486 L2696.31 483.12 L2688 484.787 L2688 480.528 L2696.26 478.861 L2700.94 478.861 L2700.94 509.486 L2708.58 509.486 L2708.58 513.421 L2688.67 513.421 L2688.67 509.486 Z" fill="#000000" fill-rule="nonzero" fill-opacity="1" /><path clip-path="url(#clip810)" d="M2718.02 507.541 L2722.91 507.541 L2722.91 513.421 L2718.02 513.421 L2718.02 507.541 Z" fill="#000000" fill-rule="nonzero" fill-opacity="1" /><path clip-path="url(#clip810)" d="M2733.14 478.861 L2751.49 478.861 L2751.49 482.796 L2737.42 482.796 L2737.42 491.268 Q2738.44 490.921 2739.46 490.759 Q2740.48 490.574 2741.49 490.574 Q2747.28 490.574 2750.66 493.745 Q2754.04 496.917 2754.04 502.333 Q2754.04 507.912 2750.57 511.014 Q2747.1 514.092 2740.78 514.092 Q2738.6 514.092 2736.33 513.722 Q2734.09 513.352 2731.68 512.611 L2731.68 507.912 Q2733.76 509.046 2735.99 509.602 Q2738.21 510.157 2740.68 510.157 Q2744.69 510.157 2747.03 508.051 Q2749.37 505.944 2749.37 502.333 Q2749.37 498.722 2747.03 496.616 Q2744.69 494.509 2740.68 494.509 Q2738.81 494.509 2736.93 494.926 Q2735.08 495.342 2733.14 496.222 L2733.14 478.861 Z" fill="#000000" fill-rule="nonzero" fill-opacity="1" /><path clip-path="url(#clip810)" d="M2773.25 481.94 Q2769.64 481.94 2767.81 485.505 Q2766.01 489.046 2766.01 496.176 Q2766.01 503.282 2767.81 506.847 Q2769.64 510.389 2773.25 510.389 Q2776.89 510.389 2778.69 506.847 Q2780.52 503.282 2780.52 496.176 Q2780.52 489.046 2778.69 485.505 Q2776.89 481.94 2773.25 481.94 M2773.25 478.236 Q2779.06 478.236 2782.12 482.843 Q2785.2 487.426 2785.2 496.176 Q2785.2 504.903 2782.12 509.509 Q2779.06 514.092 2773.25 514.092 Q2767.44 514.092 2764.37 509.509 Q2761.31 504.903 2761.31 496.176 Q2761.31 487.426 2764.37 482.843 Q2767.44 478.236 2773.25 478.236 Z" fill="#000000" fill-rule="nonzero" fill-opacity="1" /><path clip-path="url(#clip810)" d="M2821.59 487.958 L2811.01 498.583 L2821.59 509.162 L2818.83 511.963 L2808.21 501.338 L2797.58 511.963 L2794.85 509.162 L2805.41 498.583 L2794.85 487.958 L2797.58 485.157 L2808.21 495.782 L2818.83 485.157 L2821.59 487.958 Z" fill="#000000" fill-rule="nonzero" fill-opacity="1" /><path clip-path="url(#clip810)" d="M2833.95 509.486 L2841.59 509.486 L2841.59 483.12 L2833.28 484.787 L2833.28 480.528 L2841.54 478.861 L2846.22 478.861 L2846.22 509.486 L2853.86 509.486 L2853.86 513.421 L2833.95 513.421 L2833.95 509.486 Z" fill="#000000" fill-rule="nonzero" fill-opacity="1" /><path clip-path="url(#clip810)" d="M2873.3 481.94 Q2869.69 481.94 2867.86 485.505 Q2866.05 489.046 2866.05 496.176 Q2866.05 503.282 2867.86 506.847 Q2869.69 510.389 2873.3 510.389 Q2876.93 510.389 2878.74 506.847 Q2880.57 503.282 2880.57 496.176 Q2880.57 489.046 2878.74 485.505 Q2876.93 481.94 2873.3 481.94 M2873.3 478.236 Q2879.11 478.236 2882.17 482.843 Q2885.24 487.426 2885.24 496.176 Q2885.24 504.903 2882.17 509.509 Q2879.11 514.092 2873.3 514.092 Q2867.49 514.092 2864.41 509.509 Q2861.36 504.903 2861.36 496.176 Q2861.36 487.426 2864.41 482.843 Q2867.49 478.236 2873.3 478.236 Z" fill="#000000" fill-rule="nonzero" fill-opacity="1" /><path clip-path="url(#clip810)" d="M2885.24 472.337 L2909.36 472.337 L2909.36 475.535 L2885.24 475.535 L2885.24 472.337 Z" fill="#000000" fill-rule="nonzero" fill-opacity="1" /><path clip-path="url(#clip810)" d="M2917.59 457.931 L2932.51 457.931 L2932.51 461.128 L2921.07 461.128 L2921.07 468.012 Q2921.9 467.73 2922.73 467.598 Q2923.56 467.447 2924.38 467.447 Q2929.09 467.447 2931.83 470.024 Q2934.58 472.601 2934.58 477.002 Q2934.58 481.534 2931.76 484.055 Q2928.93 486.556 2923.8 486.556 Q2922.03 486.556 2920.19 486.255 Q2918.36 485.954 2916.41 485.352 L2916.41 481.534 Q2918.1 482.456 2919.91 482.907 Q2921.71 483.359 2923.72 483.359 Q2926.98 483.359 2928.88 481.647 Q2930.78 479.936 2930.78 477.002 Q2930.78 474.068 2928.88 472.356 Q2926.98 470.645 2923.72 470.645 Q2922.2 470.645 2920.68 470.983 Q2919.17 471.322 2917.59 472.036 L2917.59 457.931 Z" fill="#000000" fill-rule="nonzero" fill-opacity="1" /><path clip-path="url(#clip810)" d="M2693.62 167.244 L2709.94 167.244 L2709.94 171.179 L2688 171.179 L2688 167.244 Q2690.66 164.489 2695.25 159.86 Q2699.85 155.207 2701.03 153.864 Q2703.28 151.341 2704.16 149.605 Q2705.06 147.846 2705.06 146.156 Q2705.06 143.401 2703.12 141.665 Q2701.19 139.929 2698.09 139.929 Q2695.89 139.929 2693.44 140.693 Q2691.01 141.457 2688.23 143.008 L2688.23 138.286 Q2691.06 137.151 2693.51 136.573 Q2695.96 135.994 2698 135.994 Q2703.37 135.994 2706.56 138.679 Q2709.76 141.364 2709.76 145.855 Q2709.76 147.985 2708.95 149.906 Q2708.16 151.804 2706.06 154.397 Q2705.48 155.068 2702.37 158.285 Q2699.27 161.48 2693.62 167.244 Z" fill="#000000" fill-rule="nonzero" fill-opacity="1" /><path clip-path="url(#clip810)" d="M2719.76 165.299 L2724.64 165.299 L2724.64 171.179 L2719.76 171.179 L2719.76 165.299 Z" fill="#000000" fill-rule="nonzero" fill-opacity="1" /><path clip-path="url(#clip810)" d="M2744.83 139.698 Q2741.22 139.698 2739.39 143.262 Q2737.58 146.804 2737.58 153.934 Q2737.58 161.04 2739.39 164.605 Q2741.22 168.147 2744.83 168.147 Q2748.46 168.147 2750.27 164.605 Q2752.1 161.04 2752.1 153.934 Q2752.1 146.804 2750.27 143.262 Q2748.46 139.698 2744.83 139.698 M2744.83 135.994 Q2750.64 135.994 2753.69 140.6 Q2756.77 145.184 2756.77 153.934 Q2756.77 162.66 2753.69 167.267 Q2750.64 171.85 2744.83 171.85 Q2739.02 171.85 2735.94 167.267 Q2732.88 162.66 2732.88 153.934 Q2732.88 145.184 2735.94 140.6 Q2739.02 135.994 2744.83 135.994 Z" fill="#000000" fill-rule="nonzero" fill-opacity="1" /><path clip-path="url(#clip810)" d="M2774.99 139.698 Q2771.38 139.698 2769.55 143.262 Q2767.74 146.804 2767.74 153.934 Q2767.74 161.04 2769.55 164.605 Q2771.38 168.147 2774.99 168.147 Q2778.62 168.147 2780.43 164.605 Q2782.26 161.04 2782.26 153.934 Q2782.26 146.804 2780.43 143.262 Q2778.62 139.698 2774.99 139.698 M2774.99 135.994 Q2780.8 135.994 2783.86 140.6 Q2786.93 145.184 2786.93 153.934 Q2786.93 162.66 2783.86 167.267 Q2780.8 171.85 2774.99 171.85 Q2769.18 171.85 2766.1 167.267 Q2763.05 162.66 2763.05 153.934 Q2763.05 145.184 2766.1 140.6 Q2769.18 135.994 2774.99 135.994 Z" fill="#000000" fill-rule="nonzero" fill-opacity="1" /><path clip-path="url(#clip810)" d="M2823.32 145.716 L2812.74 156.341 L2823.32 166.92 L2820.57 169.721 L2809.94 159.096 L2799.32 169.721 L2796.59 166.92 L2807.14 156.341 L2796.59 145.716 L2799.32 142.915 L2809.94 153.54 L2820.57 142.915 L2823.32 145.716 Z" fill="#000000" fill-rule="nonzero" fill-opacity="1" /><path clip-path="url(#clip810)" d="M2835.68 167.244 L2843.32 167.244 L2843.32 140.878 L2835.01 142.545 L2835.01 138.286 L2843.28 136.619 L2847.95 136.619 L2847.95 167.244 L2855.59 167.244 L2855.59 171.179 L2835.68 171.179 L2835.68 167.244 Z" fill="#000000" fill-rule="nonzero" fill-opacity="1" /><path clip-path="url(#clip810)" d="M2875.04 139.698 Q2871.42 139.698 2869.6 143.262 Q2867.79 146.804 2867.79 153.934 Q2867.79 161.04 2869.6 164.605 Q2871.42 168.147 2875.04 168.147 Q2878.67 168.147 2880.48 164.605 Q2882.3 161.04 2882.3 153.934 Q2882.3 146.804 2880.48 143.262 Q2878.67 139.698 2875.04 139.698 M2875.04 135.994 Q2880.85 135.994 2883.9 140.6 Q2886.98 145.184 2886.98 153.934 Q2886.98 162.66 2883.9 167.267 Q2880.85 171.85 2875.04 171.85 Q2869.23 171.85 2866.15 167.267 Q2863.09 162.66 2863.09 153.934 Q2863.09 145.184 2866.15 140.6 Q2869.23 135.994 2875.04 135.994 Z" fill="#000000" fill-rule="nonzero" fill-opacity="1" /><path clip-path="url(#clip810)" d="M2886.98 130.095 L2911.09 130.095 L2911.09 133.293 L2886.98 133.293 L2886.98 130.095 Z" fill="#000000" fill-rule="nonzero" fill-opacity="1" /><path clip-path="url(#clip810)" d="M2919.33 115.689 L2934.24 115.689 L2934.24 118.886 L2922.81 118.886 L2922.81 125.77 Q2923.64 125.487 2924.46 125.356 Q2925.29 125.205 2926.12 125.205 Q2930.82 125.205 2933.57 127.782 Q2936.31 130.359 2936.31 134.76 Q2936.31 139.292 2933.49 141.813 Q2930.67 144.314 2925.54 144.314 Q2923.77 144.314 2921.93 144.013 Q2920.1 143.712 2918.14 143.11 L2918.14 139.292 Q2919.84 140.214 2921.64 140.665 Q2923.45 141.117 2925.46 141.117 Q2928.71 141.117 2930.61 139.405 Q2932.51 137.694 2932.51 134.76 Q2932.51 131.826 2930.61 130.114 Q2928.71 128.403 2925.46 128.403 Q2923.94 128.403 2922.41 128.741 Q2920.91 129.08 2919.33 129.794 L2919.33 115.689 Z" fill="#000000" fill-rule="nonzero" fill-opacity="1" /><path clip-path="url(#clip810)" d="M3009.52 1003.13 Q3008.95 1004.12 3008.69 1005.3 Q3008.4 1006.44 3008.4 1007.85 Q3008.4 1012.81 3011.65 1015.48 Q3014.87 1018.13 3020.91 1018.13 L3039.69 1018.13 L3039.69 1024.01 L3004.04 1024.01 L3004.04 1018.13 L3009.58 1018.13 Q3006.34 1016.28 3004.78 1013.32 Q3003.18 1010.36 3003.18 1006.13 Q3003.18 1005.52 3003.28 1004.79 Q3003.34 1004.06 3003.5 1003.17 L3009.52 1003.13 Z" fill="#000000" fill-rule="nonzero" fill-opacity="1" /><path clip-path="url(#clip810)" d="M3020.4 967.932 L3023.27 967.932 L3023.27 994.859 Q3029.32 994.477 3032.5 991.231 Q3035.65 987.952 3035.65 982.128 Q3035.65 978.754 3034.82 975.603 Q3033.99 972.42 3032.34 969.301 L3037.88 969.301 Q3039.21 972.452 3039.92 975.762 Q3040.62 979.072 3040.62 982.478 Q3040.62 991.008 3035.65 996.005 Q3030.68 1000.97 3022.22 1000.97 Q3013.47 1000.97 3008.34 996.26 Q3003.18 991.517 3003.18 983.496 Q3003.18 976.303 3007.83 972.134 Q3012.45 967.932 3020.4 967.932 M3018.69 973.789 Q3013.88 973.852 3011.01 976.494 Q3008.15 979.104 3008.15 983.433 Q3008.15 988.334 3010.92 991.294 Q3013.69 994.223 3018.72 994.668 L3018.69 973.789 Z" fill="#000000" fill-rule="nonzero" fill-opacity="1" /><path clip-path="url(#clip810)" d="M2990.17 958.32 L2990.17 952.464 L3039.69 952.464 L3039.69 958.32 L2990.17 958.32 Z" fill="#000000" fill-rule="nonzero" fill-opacity="1" /><path clip-path="url(#clip810)" d="M3021.77 924.009 Q3021.77 931.107 3023.4 933.844 Q3025.02 936.581 3028.93 936.581 Q3032.05 936.581 3033.9 934.544 Q3035.71 932.475 3035.71 928.942 Q3035.71 924.073 3032.28 921.144 Q3028.81 918.184 3023.08 918.184 L3021.77 918.184 L3021.77 924.009 M3019.35 912.328 L3039.69 912.328 L3039.69 918.184 L3034.28 918.184 Q3037.53 920.189 3039.09 923.181 Q3040.62 926.173 3040.62 930.502 Q3040.62 935.976 3037.56 939.223 Q3034.47 942.438 3029.32 942.438 Q3023.3 942.438 3020.25 938.427 Q3017.19 934.385 3017.19 926.396 L3017.19 918.184 L3016.62 918.184 Q3012.57 918.184 3010.38 920.858 Q3008.15 923.5 3008.15 928.306 Q3008.15 931.361 3008.88 934.258 Q3009.61 937.154 3011.08 939.828 L3005.67 939.828 Q3004.43 936.613 3003.82 933.589 Q3003.18 930.566 3003.18 927.701 Q3003.18 919.967 3007.2 916.147 Q3011.21 912.328 3019.35 912.328 Z" fill="#000000" fill-rule="nonzero" fill-opacity="1" /><path clip-path="url(#clip810)" d="M2993.92 894.472 L3004.04 894.472 L3004.04 882.409 L3008.6 882.409 L3008.6 894.472 L3027.95 894.472 Q3032.31 894.472 3033.55 893.294 Q3034.79 892.085 3034.79 888.425 L3034.79 882.409 L3039.69 882.409 L3039.69 888.425 Q3039.69 895.204 3037.18 897.782 Q3034.63 900.36 3027.95 900.36 L3008.6 900.36 L3008.6 904.657 L3004.04 904.657 L3004.04 900.36 L2993.92 900.36 L2993.92 894.472 Z" fill="#000000" fill-rule="nonzero" fill-opacity="1" /><path clip-path="url(#clip810)" d="M3004.04 874.706 L3004.04 868.85 L3039.69 868.85 L3039.69 874.706 L3004.04 874.706 M2990.17 874.706 L2990.17 868.85 L2997.58 868.85 L2997.58 874.706 L2990.17 874.706 Z" fill="#000000" fill-rule="nonzero" fill-opacity="1" /><path clip-path="url(#clip810)" d="M3004.04 860.797 L3004.04 854.591 L3033.96 843.451 L3004.04 832.311 L3004.04 826.104 L3039.69 839.472 L3039.69 847.429 L3004.04 860.797 Z" fill="#000000" fill-rule="nonzero" fill-opacity="1" /><path clip-path="url(#clip810)" d="M3020.4 787.528 L3023.27 787.528 L3023.27 814.455 Q3029.32 814.073 3032.5 810.827 Q3035.65 807.548 3035.65 801.724 Q3035.65 798.35 3034.82 795.199 Q3033.99 792.016 3032.34 788.897 L3037.88 788.897 Q3039.21 792.048 3039.92 795.358 Q3040.62 798.668 3040.62 802.074 Q3040.62 810.604 3035.65 815.601 Q3030.68 820.566 3022.22 820.566 Q3013.47 820.566 3008.34 815.856 Q3003.18 811.113 3003.18 803.092 Q3003.18 795.899 3007.83 791.729 Q3012.45 787.528 3020.4 787.528 M3018.69 793.385 Q3013.88 793.448 3011.01 796.09 Q3008.15 798.7 3008.15 803.029 Q3008.15 807.93 3010.92 810.89 Q3013.69 813.818 3018.72 814.264 L3018.69 793.385 Z" fill="#000000" fill-rule="nonzero" fill-opacity="1" /><path clip-path="url(#clip810)" d="M3020.4 726.704 L3023.27 726.704 L3023.27 753.631 Q3029.32 753.249 3032.5 750.002 Q3035.65 746.724 3035.65 740.899 Q3035.65 737.526 3034.82 734.374 Q3033.99 731.192 3032.34 728.072 L3037.88 728.072 Q3039.21 731.223 3039.92 734.534 Q3040.62 737.844 3040.62 741.249 Q3040.62 749.779 3035.65 754.777 Q3030.68 759.742 3022.22 759.742 Q3013.47 759.742 3008.34 755.031 Q3003.18 750.289 3003.18 742.268 Q3003.18 735.075 3007.83 730.905 Q3012.45 726.704 3020.4 726.704 M3018.69 732.56 Q3013.88 732.624 3011.01 735.266 Q3008.15 737.876 3008.15 742.204 Q3008.15 747.106 3010.92 750.066 Q3013.69 752.994 3018.72 753.44 L3018.69 732.56 Z" fill="#000000" fill-rule="nonzero" fill-opacity="1" /><path clip-path="url(#clip810)" d="M3009.52 696.435 Q3008.95 697.422 3008.69 698.599 Q3008.4 699.745 3008.4 701.145 Q3008.4 706.111 3011.65 708.784 Q3014.87 711.426 3020.91 711.426 L3039.69 711.426 L3039.69 717.314 L3004.04 717.314 L3004.04 711.426 L3009.58 711.426 Q3006.34 709.58 3004.78 706.62 Q3003.18 703.66 3003.18 699.427 Q3003.18 698.822 3003.28 698.09 Q3003.34 697.358 3003.5 696.467 L3009.52 696.435 Z" fill="#000000" fill-rule="nonzero" fill-opacity="1" /><path clip-path="url(#clip810)" d="M3009.52 670.781 Q3008.95 671.768 3008.69 672.945 Q3008.4 674.091 3008.4 675.492 Q3008.4 680.457 3011.65 683.131 Q3014.87 685.772 3020.91 685.772 L3039.69 685.772 L3039.69 691.661 L3004.04 691.661 L3004.04 685.772 L3009.58 685.772 Q3006.34 683.926 3004.78 680.966 Q3003.18 678.006 3003.18 673.773 Q3003.18 673.168 3003.28 672.436 Q3003.34 671.704 3003.5 670.813 L3009.52 670.781 Z" fill="#000000" fill-rule="nonzero" fill-opacity="1" /><path clip-path="url(#clip810)" d="M3008.15 652.257 Q3008.15 656.967 3011.84 659.705 Q3015.5 662.442 3021.9 662.442 Q3028.3 662.442 3031.99 659.737 Q3035.65 656.999 3035.65 652.257 Q3035.65 647.578 3031.96 644.841 Q3028.27 642.104 3021.9 642.104 Q3015.57 642.104 3011.87 644.841 Q3008.15 647.578 3008.15 652.257 M3003.18 652.257 Q3003.18 644.618 3008.15 640.258 Q3013.12 635.897 3021.9 635.897 Q3030.65 635.897 3035.65 640.258 Q3040.62 644.618 3040.62 652.257 Q3040.62 659.928 3035.65 664.288 Q3030.65 668.617 3021.9 668.617 Q3013.12 668.617 3008.15 664.288 Q3003.18 659.928 3003.18 652.257 Z" fill="#000000" fill-rule="nonzero" fill-opacity="1" /><path clip-path="url(#clip810)" d="M3009.52 605.533 Q3008.95 606.519 3008.69 607.697 Q3008.4 608.843 3008.4 610.243 Q3008.4 615.208 3011.65 617.882 Q3014.87 620.524 3020.91 620.524 L3039.69 620.524 L3039.69 626.412 L3004.04 626.412 L3004.04 620.524 L3009.58 620.524 Q3006.34 618.678 3004.78 615.718 Q3003.18 612.758 3003.18 608.524 Q3003.18 607.92 3003.28 607.188 Q3003.34 606.456 3003.5 605.564 L3009.52 605.533 Z" fill="#000000" fill-rule="nonzero" fill-opacity="1" /><polyline clip-path="url(#clip812)" style="stroke:#808080; stroke-linecap:round; stroke-linejoin:round; stroke-width:6; stroke-opacity:1; fill:none" stroke-dasharray="3, 6" points="242.326,1516.23 260.673,1515.9 279.021,1515.84 297.369,1516.3 315.717,1516.35 334.065,1515.51 352.412,1514.3 370.76,1515.81 389.108,1514.47 407.456,1511.69 425.803,1513.86 444.151,1515.25 462.499,1511.69 480.847,1515.97 499.195,1512.51 517.542,1506.27 535.89,1510.18 554.238,1502.83 572.586,1512.28 590.934,1507.91 609.281,1499.5 627.629,1507.57 645.977,1508.87 664.325,1500.27 682.673,1506.86 701.02,1502.54 719.368,1513.17 737.716,1511.15 756.064,1504.34 774.411,1514.96 792.759,1512.43 811.107,1483.03 829.455,1490.84 847.803,1499.65 866.15,1512.41 884.498,1509.99 902.846,1493.89 921.194,1493.14 939.542,1495.54 957.889,1512.33 976.237,1486.2 994.585,1512.42 1012.93,1513.54 1031.28,1515.51 1049.63,1511.4 1067.98,1498.25 1086.32,1476.45 1104.67,1453.78 1123.02,1446.51 1141.37,1279.07 1159.72,1249.61 1178.06,1300.3 1196.41,1359.23 1214.76,1423.44 1233.11,1454.75 1251.45,1494.44 1269.8,1484.56 1288.15,1473.46 1306.5,1475.96 1324.85,1444.99 1343.19,1462.33 1361.54,1479.19 1379.89,1477.64 1398.24,1445.37 1416.58,862.502 1434.93,844.743 1453.28,926.998 1471.63,972.81 1489.98,1098.87 1508.32,1202.14 1526.67,1374.61 1545.02,1441.42 1563.37,1491.04 1581.71,1513.52 1600.06,1453.18 1618.41,1501.5 1636.76,1484.06 1655.11,1400.05 1673.45,1407.79 1691.8,1268.52 1710.15,1345.14 1728.5,1164.43 1746.84,1216.18 1765.19,1167.68 1783.54,1265.84 1801.89,1310.02 1820.24,1502.28 1838.58,1506.4 1856.93,1495.69 1875.28,1500.49 1893.63,1355.86 1911.97,1430.71 1930.32,1357.13 1948.67,1371.01 1967.02,1194.49 1985.37,1254.13 2003.71,1490.01 2022.06,1254.73 2040.41,927.1 2058.76,970.855 2077.1,904.811 2095.45,1005.15 2113.8,905.452 2132.15,1122.36 2150.5,1273.81 2168.84,1481.96 2187.19,1416.45 2205.54,1373 2223.89,1386.55 2242.23,1293.4 2260.58,1515.19 2278.93,1402.88 2297.28,1149.89 2315.63,1112.71 2333.97,814.773 2352.32,976.049 2370.67,916.231 2389.02,1053.65 2407.36,868.912 2425.71,1116.48 2444.06,1235.96 2462.41,1440.41 2480.76,1229.09 2499.1,1440.53 2517.45,1288.73 2535.8,1285.35 2554.15,844.803 2572.49,869.528 "/>
<path clip-path="url(#clip810)" d="M2008.72 263.583 L2560.07 263.583 L2560.07 159.903 L2008.72 159.903  Z" fill="#ffffff" fill-rule="evenodd" fill-opacity="1"/>
<polyline clip-path="url(#clip810)" style="stroke:#000000; stroke-linecap:round; stroke-linejoin:round; stroke-width:4; stroke-opacity:1; fill:none" points="2008.72,263.583 2560.07,263.583 2560.07,159.903 2008.72,159.903 2008.72,263.583 "/>
<polyline clip-path="url(#clip810)" style="stroke:#808080; stroke-linecap:round; stroke-linejoin:round; stroke-width:6; stroke-opacity:1; fill:none" stroke-dasharray="3, 6" points="2036.16,211.743 2200.83,211.743 "/>
<path clip-path="url(#clip810)" d="M2243.46 207.079 Q2242.74 206.662 2241.88 206.477 Q2241.05 206.269 2240.03 206.269 Q2236.42 206.269 2234.48 208.63 Q2232.56 210.968 2232.56 215.366 L2232.56 229.023 L2228.27 229.023 L2228.27 203.098 L2232.56 203.098 L2232.56 207.125 Q2233.9 204.764 2236.05 203.63 Q2238.2 202.473 2241.28 202.473 Q2241.72 202.473 2242.25 202.542 Q2242.79 202.588 2243.43 202.704 L2243.46 207.079 Z" fill="#000000" fill-rule="nonzero" fill-opacity="1" /><path clip-path="url(#clip810)" d="M2269.06 214.996 L2269.06 217.079 L2249.48 217.079 Q2249.75 221.477 2252.12 223.792 Q2254.5 226.083 2258.74 226.083 Q2261.19 226.083 2263.48 225.482 Q2265.8 224.88 2268.06 223.676 L2268.06 227.704 Q2265.77 228.676 2263.37 229.185 Q2260.96 229.695 2258.48 229.695 Q2252.28 229.695 2248.64 226.083 Q2245.03 222.472 2245.03 216.315 Q2245.03 209.949 2248.46 206.222 Q2251.91 202.473 2257.74 202.473 Q2262.97 202.473 2266 205.852 Q2269.06 209.209 2269.06 214.996 M2264.8 213.746 Q2264.75 210.25 2262.83 208.167 Q2260.93 206.084 2257.79 206.084 Q2254.22 206.084 2252.07 208.097 Q2249.94 210.111 2249.62 213.769 L2264.8 213.746 Z" fill="#000000" fill-rule="nonzero" fill-opacity="1" /><path clip-path="url(#clip810)" d="M2276.05 193.005 L2280.31 193.005 L2280.31 229.023 L2276.05 229.023 L2276.05 193.005 Z" fill="#000000" fill-rule="nonzero" fill-opacity="1" /><path clip-path="url(#clip810)" d="M2301 215.991 Q2295.84 215.991 2293.85 217.172 Q2291.86 218.352 2291.86 221.199 Q2291.86 223.468 2293.34 224.81 Q2294.85 226.13 2297.42 226.13 Q2300.96 226.13 2303.09 223.63 Q2305.24 221.107 2305.24 216.94 L2305.24 215.991 L2301 215.991 M2309.5 214.232 L2309.5 229.023 L2305.24 229.023 L2305.24 225.088 Q2303.78 227.449 2301.61 228.583 Q2299.43 229.695 2296.28 229.695 Q2292.3 229.695 2289.94 227.472 Q2287.6 225.227 2287.6 221.477 Q2287.6 217.102 2290.52 214.88 Q2293.46 212.658 2299.27 212.658 L2305.24 212.658 L2305.24 212.241 Q2305.24 209.301 2303.3 207.704 Q2301.37 206.084 2297.88 206.084 Q2295.66 206.084 2293.55 206.616 Q2291.44 207.148 2289.5 208.213 L2289.5 204.278 Q2291.84 203.375 2294.04 202.935 Q2296.24 202.473 2298.32 202.473 Q2303.94 202.473 2306.72 205.389 Q2309.5 208.306 2309.5 214.232 Z" fill="#000000" fill-rule="nonzero" fill-opacity="1" /><path clip-path="url(#clip810)" d="M2322.49 195.736 L2322.49 203.098 L2331.26 203.098 L2331.26 206.408 L2322.49 206.408 L2322.49 220.482 Q2322.49 223.653 2323.34 224.556 Q2324.22 225.458 2326.88 225.458 L2331.26 225.458 L2331.26 229.023 L2326.88 229.023 Q2321.95 229.023 2320.08 227.195 Q2318.2 225.343 2318.2 220.482 L2318.2 206.408 L2315.08 206.408 L2315.08 203.098 L2318.2 203.098 L2318.2 195.736 L2322.49 195.736 Z" fill="#000000" fill-rule="nonzero" fill-opacity="1" /><path clip-path="url(#clip810)" d="M2336.86 203.098 L2341.12 203.098 L2341.12 229.023 L2336.86 229.023 L2336.86 203.098 M2336.86 193.005 L2341.12 193.005 L2341.12 198.398 L2336.86 198.398 L2336.86 193.005 Z" fill="#000000" fill-rule="nonzero" fill-opacity="1" /><path clip-path="url(#clip810)" d="M2346.98 203.098 L2351.49 203.098 L2359.59 224.857 L2367.69 203.098 L2372.21 203.098 L2362.49 229.023 L2356.7 229.023 L2346.98 203.098 Z" fill="#000000" fill-rule="nonzero" fill-opacity="1" /><path clip-path="url(#clip810)" d="M2400.26 214.996 L2400.26 217.079 L2380.68 217.079 Q2380.96 221.477 2383.32 223.792 Q2385.7 226.083 2389.94 226.083 Q2392.39 226.083 2394.68 225.482 Q2397 224.88 2399.27 223.676 L2399.27 227.704 Q2396.98 228.676 2394.57 229.185 Q2392.16 229.695 2389.68 229.695 Q2383.48 229.695 2379.85 226.083 Q2376.23 222.472 2376.23 216.315 Q2376.23 209.949 2379.66 206.222 Q2383.11 202.473 2388.94 202.473 Q2394.17 202.473 2397.21 205.852 Q2400.26 209.209 2400.26 214.996 M2396 213.746 Q2395.96 210.25 2394.04 208.167 Q2392.14 206.084 2388.99 206.084 Q2385.42 206.084 2383.27 208.097 Q2381.14 210.111 2380.82 213.769 L2396 213.746 Z" fill="#000000" fill-rule="nonzero" fill-opacity="1" /><path clip-path="url(#clip810)" d="M2444.5 214.996 L2444.5 217.079 L2424.92 217.079 Q2425.19 221.477 2427.55 223.792 Q2429.94 226.083 2434.17 226.083 Q2436.63 226.083 2438.92 225.482 Q2441.23 224.88 2443.5 223.676 L2443.5 227.704 Q2441.21 228.676 2438.8 229.185 Q2436.4 229.695 2433.92 229.695 Q2427.72 229.695 2424.08 226.083 Q2420.47 222.472 2420.47 216.315 Q2420.47 209.949 2423.9 206.222 Q2427.35 202.473 2433.18 202.473 Q2438.41 202.473 2441.44 205.852 Q2444.5 209.209 2444.5 214.996 M2440.24 213.746 Q2440.19 210.25 2438.27 208.167 Q2436.37 206.084 2433.23 206.084 Q2429.66 206.084 2427.51 208.097 Q2425.38 210.111 2425.05 213.769 L2440.24 213.746 Z" fill="#000000" fill-rule="nonzero" fill-opacity="1" /><path clip-path="url(#clip810)" d="M2466.51 207.079 Q2465.79 206.662 2464.94 206.477 Q2464.1 206.269 2463.09 206.269 Q2459.48 206.269 2457.53 208.63 Q2455.61 210.968 2455.61 215.366 L2455.61 229.023 L2451.33 229.023 L2451.33 203.098 L2455.61 203.098 L2455.61 207.125 Q2456.95 204.764 2459.1 203.63 Q2461.26 202.473 2464.34 202.473 Q2464.78 202.473 2465.31 202.542 Q2465.84 202.588 2466.49 202.704 L2466.51 207.079 Z" fill="#000000" fill-rule="nonzero" fill-opacity="1" /><path clip-path="url(#clip810)" d="M2485.17 207.079 Q2484.45 206.662 2483.6 206.477 Q2482.76 206.269 2481.74 206.269 Q2478.13 206.269 2476.19 208.63 Q2474.27 210.968 2474.27 215.366 L2474.27 229.023 L2469.98 229.023 L2469.98 203.098 L2474.27 203.098 L2474.27 207.125 Q2475.61 204.764 2477.76 203.63 Q2479.91 202.473 2482.99 202.473 Q2483.43 202.473 2483.97 202.542 Q2484.5 202.588 2485.15 202.704 L2485.17 207.079 Z" fill="#000000" fill-rule="nonzero" fill-opacity="1" /><path clip-path="url(#clip810)" d="M2498.64 206.084 Q2495.22 206.084 2493.23 208.769 Q2491.23 211.431 2491.23 216.084 Q2491.23 220.736 2493.2 223.421 Q2495.19 226.083 2498.64 226.083 Q2502.04 226.083 2504.04 223.398 Q2506.03 220.713 2506.03 216.084 Q2506.03 211.477 2504.04 208.792 Q2502.04 206.084 2498.64 206.084 M2498.64 202.473 Q2504.2 202.473 2507.37 206.084 Q2510.54 209.695 2510.54 216.084 Q2510.54 222.449 2507.37 226.083 Q2504.2 229.695 2498.64 229.695 Q2493.06 229.695 2489.89 226.083 Q2486.74 222.449 2486.74 216.084 Q2486.74 209.695 2489.89 206.084 Q2493.06 202.473 2498.64 202.473 Z" fill="#000000" fill-rule="nonzero" fill-opacity="1" /><path clip-path="url(#clip810)" d="M2532.62 207.079 Q2531.91 206.662 2531.05 206.477 Q2530.22 206.269 2529.2 206.269 Q2525.59 206.269 2523.64 208.63 Q2521.72 210.968 2521.72 215.366 L2521.72 229.023 L2517.44 229.023 L2517.44 203.098 L2521.72 203.098 L2521.72 207.125 Q2523.06 204.764 2525.22 203.63 Q2527.37 202.473 2530.45 202.473 Q2530.89 202.473 2531.42 202.542 Q2531.95 202.588 2532.6 202.704 L2532.62 207.079 Z" fill="#000000" fill-rule="nonzero" fill-opacity="1" /></svg>
