<?xml version="1.0" encoding="utf-8"?>
<svg xmlns="http://www.w3.org/2000/svg" xmlns:xlink="http://www.w3.org/1999/xlink" width="600" height="400" viewBox="0 0 2400 1600">
<defs>
  <clipPath id="clip830">
    <rect x="0" y="0" width="2400" height="1600"/>
  </clipPath>
</defs>
<path clip-path="url(#clip830)" d="M0 1600 L2400 1600 L2400 8.88178e-14 L0 8.88178e-14  Z" fill="#ffffff" fill-rule="evenodd" fill-opacity="1"/>
<defs>
  <clipPath id="clip831">
    <rect x="480" y="0" width="1681" height="1600"/>
  </clipPath>
</defs>
<path clip-path="url(#clip830)" d="M210.746 1423.18 L2352.76 1423.18 L2352.76 47.2441 L210.746 47.2441  Z" fill="#ffffff" fill-rule="evenodd" fill-opacity="1"/>
<defs>
  <clipPath id="clip832">
    <rect x="210" y="47" width="2143" height="1377"/>
  </clipPath>
</defs>
<polyline clip-path="url(#clip832)" style="stroke:#000000; stroke-linecap:round; stroke-linejoin:round; stroke-width:2; stroke-opacity:0.1; fill:none" points="271.369,1423.18 271.369,47.2441 "/>
<polyline clip-path="url(#clip832)" style="stroke:#000000; stroke-linecap:round; stroke-linejoin:round; stroke-width:2; stroke-opacity:0.1; fill:none" points="765.202,1423.18 765.202,47.2441 "/>
<polyline clip-path="url(#clip832)" style="stroke:#000000; stroke-linecap:round; stroke-linejoin:round; stroke-width:2; stroke-opacity:0.1; fill:none" points="1259.03,1423.18 1259.03,47.2441 "/>
<polyline clip-path="url(#clip832)" style="stroke:#000000; stroke-linecap:round; stroke-linejoin:round; stroke-width:2; stroke-opacity:0.1; fill:none" points="1752.87,1423.18 1752.87,47.2441 "/>
<polyline clip-path="url(#clip832)" style="stroke:#000000; stroke-linecap:round; stroke-linejoin:round; stroke-width:2; stroke-opacity:0.1; fill:none" points="2246.7,1423.18 2246.7,47.2441 "/>
<polyline clip-path="url(#clip832)" style="stroke:#000000; stroke-linecap:round; stroke-linejoin:round; stroke-width:2; stroke-opacity:0.1; fill:none" points="210.746,1326.23 2352.76,1326.23 "/>
<polyline clip-path="url(#clip832)" style="stroke:#000000; stroke-linecap:round; stroke-linejoin:round; stroke-width:2; stroke-opacity:0.1; fill:none" points="210.746,1043.61 2352.76,1043.61 "/>
<polyline clip-path="url(#clip832)" style="stroke:#000000; stroke-linecap:round; stroke-linejoin:round; stroke-width:2; stroke-opacity:0.1; fill:none" points="210.746,760.993 2352.76,760.993 "/>
<polyline clip-path="url(#clip832)" style="stroke:#000000; stroke-linecap:round; stroke-linejoin:round; stroke-width:2; stroke-opacity:0.1; fill:none" points="210.746,478.372 2352.76,478.372 "/>
<polyline clip-path="url(#clip832)" style="stroke:#000000; stroke-linecap:round; stroke-linejoin:round; stroke-width:2; stroke-opacity:0.1; fill:none" points="210.746,195.752 2352.76,195.752 "/>
<polyline clip-path="url(#clip830)" style="stroke:#000000; stroke-linecap:round; stroke-linejoin:round; stroke-width:4; stroke-opacity:1; fill:none" points="210.746,1423.18 2352.76,1423.18 "/>
<polyline clip-path="url(#clip830)" style="stroke:#000000; stroke-linecap:round; stroke-linejoin:round; stroke-width:4; stroke-opacity:1; fill:none" points="271.369,1423.18 271.369,1404.28 "/>
<polyline clip-path="url(#clip830)" style="stroke:#000000; stroke-linecap:round; stroke-linejoin:round; stroke-width:4; stroke-opacity:1; fill:none" points="765.202,1423.18 765.202,1404.28 "/>
<polyline clip-path="url(#clip830)" style="stroke:#000000; stroke-linecap:round; stroke-linejoin:round; stroke-width:4; stroke-opacity:1; fill:none" points="1259.03,1423.18 1259.03,1404.28 "/>
<polyline clip-path="url(#clip830)" style="stroke:#000000; stroke-linecap:round; stroke-linejoin:round; stroke-width:4; stroke-opacity:1; fill:none" points="1752.87,1423.18 1752.87,1404.28 "/>
<polyline clip-path="url(#clip830)" style="stroke:#000000; stroke-linecap:round; stroke-linejoin:round; stroke-width:4; stroke-opacity:1; fill:none" points="2246.7,1423.18 2246.7,1404.28 "/>
<path clip-path="url(#clip830)" d="M271.369 1454.1 Q267.758 1454.1 265.929 1457.66 Q264.124 1461.2 264.124 1468.33 Q264.124 1475.44 265.929 1479.01 Q267.758 1482.55 271.369 1482.55 Q275.003 1482.55 276.809 1479.01 Q278.637 1475.44 278.637 1468.33 Q278.637 1461.2 276.809 1457.66 Q275.003 1454.1 271.369 1454.1 M271.369 1450.39 Q277.179 1450.39 280.235 1455 Q283.313 1459.58 283.313 1468.33 Q283.313 1477.06 280.235 1481.67 Q277.179 1486.25 271.369 1486.25 Q265.559 1486.25 262.48 1481.67 Q259.424 1477.06 259.424 1468.33 Q259.424 1459.58 262.48 1455 Q265.559 1450.39 271.369 1450.39 Z" fill="#000000" fill-rule="nonzero" fill-opacity="1" /><path clip-path="url(#clip830)" d="M728.894 1481.64 L745.213 1481.64 L745.213 1485.58 L723.269 1485.58 L723.269 1481.64 Q725.931 1478.89 730.514 1474.26 Q735.121 1469.61 736.301 1468.27 Q738.547 1465.74 739.426 1464.01 Q740.329 1462.25 740.329 1460.56 Q740.329 1457.8 738.385 1456.07 Q736.463 1454.33 733.362 1454.33 Q731.163 1454.33 728.709 1455.09 Q726.278 1455.86 723.501 1457.41 L723.501 1452.69 Q726.325 1451.55 728.778 1450.97 Q731.232 1450.39 733.269 1450.39 Q738.639 1450.39 741.834 1453.08 Q745.028 1455.77 745.028 1460.26 Q745.028 1462.39 744.218 1464.31 Q743.431 1466.2 741.325 1468.8 Q740.746 1469.47 737.644 1472.69 Q734.542 1475.88 728.894 1481.64 Z" fill="#000000" fill-rule="nonzero" fill-opacity="1" /><path clip-path="url(#clip830)" d="M755.074 1451.02 L773.431 1451.02 L773.431 1454.96 L759.357 1454.96 L759.357 1463.43 Q760.375 1463.08 761.394 1462.92 Q762.412 1462.73 763.431 1462.73 Q769.218 1462.73 772.598 1465.9 Q775.977 1469.08 775.977 1474.49 Q775.977 1480.07 772.505 1483.17 Q769.033 1486.25 762.713 1486.25 Q760.537 1486.25 758.269 1485.88 Q756.024 1485.51 753.616 1484.77 L753.616 1480.07 Q755.699 1481.2 757.922 1481.76 Q760.144 1482.32 762.621 1482.32 Q766.625 1482.32 768.963 1480.21 Q771.301 1478.1 771.301 1474.49 Q771.301 1470.88 768.963 1468.77 Q766.625 1466.67 762.621 1466.67 Q760.746 1466.67 758.871 1467.08 Q757.019 1467.5 755.074 1468.38 L755.074 1451.02 Z" fill="#000000" fill-rule="nonzero" fill-opacity="1" /><path clip-path="url(#clip830)" d="M795.19 1454.1 Q791.579 1454.1 789.75 1457.66 Q787.945 1461.2 787.945 1468.33 Q787.945 1475.44 789.75 1479.01 Q791.579 1482.55 795.19 1482.55 Q798.824 1482.55 800.63 1479.01 Q802.458 1475.44 802.458 1468.33 Q802.458 1461.2 800.63 1457.66 Q798.824 1454.1 795.19 1454.1 M795.19 1450.39 Q801 1450.39 804.056 1455 Q807.134 1459.58 807.134 1468.33 Q807.134 1477.06 804.056 1481.67 Q801 1486.25 795.19 1486.25 Q789.38 1486.25 786.301 1481.67 Q783.246 1477.06 783.246 1468.33 Q783.246 1459.58 786.301 1455 Q789.38 1450.39 795.19 1450.39 Z" fill="#000000" fill-rule="nonzero" fill-opacity="1" /><path clip-path="url(#clip830)" d="M1218.65 1451.02 L1237.01 1451.02 L1237.01 1454.96 L1222.94 1454.96 L1222.94 1463.43 Q1223.95 1463.08 1224.97 1462.92 Q1225.99 1462.73 1227.01 1462.73 Q1232.8 1462.73 1236.18 1465.9 Q1239.56 1469.08 1239.56 1474.49 Q1239.56 1480.07 1236.08 1483.17 Q1232.61 1486.25 1226.29 1486.25 Q1224.12 1486.25 1221.85 1485.88 Q1219.6 1485.51 1217.19 1484.77 L1217.19 1480.07 Q1219.28 1481.2 1221.5 1481.76 Q1223.72 1482.32 1226.2 1482.32 Q1230.2 1482.32 1232.54 1480.21 Q1234.88 1478.1 1234.88 1474.49 Q1234.88 1470.88 1232.54 1468.77 Q1230.2 1466.67 1226.2 1466.67 Q1224.32 1466.67 1222.45 1467.08 Q1220.6 1467.5 1218.65 1468.38 L1218.65 1451.02 Z" fill="#000000" fill-rule="nonzero" fill-opacity="1" /><path clip-path="url(#clip830)" d="M1258.77 1454.1 Q1255.16 1454.1 1253.33 1457.66 Q1251.52 1461.2 1251.52 1468.33 Q1251.52 1475.44 1253.33 1479.01 Q1255.16 1482.55 1258.77 1482.55 Q1262.4 1482.55 1264.21 1479.01 Q1266.04 1475.44 1266.04 1468.33 Q1266.04 1461.2 1264.21 1457.66 Q1262.4 1454.1 1258.77 1454.1 M1258.77 1450.39 Q1264.58 1450.39 1267.63 1455 Q1270.71 1459.58 1270.71 1468.33 Q1270.71 1477.06 1267.63 1481.67 Q1264.58 1486.25 1258.77 1486.25 Q1252.96 1486.25 1249.88 1481.67 Q1246.82 1477.06 1246.82 1468.33 Q1246.82 1459.58 1249.88 1455 Q1252.96 1450.39 1258.77 1450.39 Z" fill="#000000" fill-rule="nonzero" fill-opacity="1" /><path clip-path="url(#clip830)" d="M1288.93 1454.1 Q1285.32 1454.1 1283.49 1457.66 Q1281.68 1461.2 1281.68 1468.33 Q1281.68 1475.44 1283.49 1479.01 Q1285.32 1482.55 1288.93 1482.55 Q1292.56 1482.55 1294.37 1479.01 Q1296.2 1475.44 1296.2 1468.33 Q1296.2 1461.2 1294.37 1457.66 Q1292.56 1454.1 1288.93 1454.1 M1288.93 1450.39 Q1294.74 1450.39 1297.8 1455 Q1300.87 1459.58 1300.87 1468.33 Q1300.87 1477.06 1297.8 1481.67 Q1294.74 1486.25 1288.93 1486.25 Q1283.12 1486.25 1280.04 1481.67 Q1276.99 1477.06 1276.99 1468.33 Q1276.99 1459.58 1280.04 1455 Q1283.12 1450.39 1288.93 1450.39 Z" fill="#000000" fill-rule="nonzero" fill-opacity="1" /><path clip-path="url(#clip830)" d="M1711.14 1451.02 L1733.37 1451.02 L1733.37 1453.01 L1720.82 1485.58 L1715.93 1485.58 L1727.74 1454.96 L1711.14 1454.96 L1711.14 1451.02 Z" fill="#000000" fill-rule="nonzero" fill-opacity="1" /><path clip-path="url(#clip830)" d="M1742.53 1451.02 L1760.89 1451.02 L1760.89 1454.96 L1746.81 1454.96 L1746.81 1463.43 Q1747.83 1463.08 1748.85 1462.92 Q1749.87 1462.73 1750.89 1462.73 Q1756.68 1462.73 1760.05 1465.9 Q1763.43 1469.08 1763.43 1474.49 Q1763.43 1480.07 1759.96 1483.17 Q1756.49 1486.25 1750.17 1486.25 Q1747.99 1486.25 1745.73 1485.88 Q1743.48 1485.51 1741.07 1484.77 L1741.07 1480.07 Q1743.16 1481.2 1745.38 1481.76 Q1747.6 1482.32 1750.08 1482.32 Q1754.08 1482.32 1756.42 1480.21 Q1758.76 1478.1 1758.76 1474.49 Q1758.76 1470.88 1756.42 1468.77 Q1754.08 1466.67 1750.08 1466.67 Q1748.2 1466.67 1746.33 1467.08 Q1744.48 1467.5 1742.53 1468.38 L1742.53 1451.02 Z" fill="#000000" fill-rule="nonzero" fill-opacity="1" /><path clip-path="url(#clip830)" d="M1782.65 1454.1 Q1779.04 1454.1 1777.21 1457.66 Q1775.4 1461.2 1775.4 1468.33 Q1775.4 1475.44 1777.21 1479.01 Q1779.04 1482.55 1782.65 1482.55 Q1786.28 1482.55 1788.09 1479.01 Q1789.92 1475.44 1789.92 1468.33 Q1789.92 1461.2 1788.09 1457.66 Q1786.28 1454.1 1782.65 1454.1 M1782.65 1450.39 Q1788.46 1450.39 1791.51 1455 Q1794.59 1459.58 1794.59 1468.33 Q1794.59 1477.06 1791.51 1481.67 Q1788.46 1486.25 1782.65 1486.25 Q1776.84 1486.25 1773.76 1481.67 Q1770.7 1477.06 1770.7 1468.33 Q1770.7 1459.58 1773.76 1455 Q1776.84 1450.39 1782.65 1450.39 Z" fill="#000000" fill-rule="nonzero" fill-opacity="1" /><path clip-path="url(#clip830)" d="M2191.23 1481.64 L2198.86 1481.64 L2198.86 1455.28 L2190.55 1456.95 L2190.55 1452.69 L2198.82 1451.02 L2203.49 1451.02 L2203.49 1481.64 L2211.13 1481.64 L2211.13 1485.58 L2191.23 1485.58 L2191.23 1481.64 Z" fill="#000000" fill-rule="nonzero" fill-opacity="1" /><path clip-path="url(#clip830)" d="M2230.58 1454.1 Q2226.97 1454.1 2225.14 1457.66 Q2223.33 1461.2 2223.33 1468.33 Q2223.33 1475.44 2225.14 1479.01 Q2226.97 1482.55 2230.58 1482.55 Q2234.21 1482.55 2236.02 1479.01 Q2237.85 1475.44 2237.85 1468.33 Q2237.85 1461.2 2236.02 1457.66 Q2234.21 1454.1 2230.58 1454.1 M2230.58 1450.39 Q2236.39 1450.39 2239.44 1455 Q2242.52 1459.58 2242.52 1468.33 Q2242.52 1477.06 2239.44 1481.67 Q2236.39 1486.25 2230.58 1486.25 Q2224.77 1486.25 2221.69 1481.67 Q2218.63 1477.06 2218.63 1468.33 Q2218.63 1459.58 2221.69 1455 Q2224.77 1450.39 2230.58 1450.39 Z" fill="#000000" fill-rule="nonzero" fill-opacity="1" /><path clip-path="url(#clip830)" d="M2260.74 1454.1 Q2257.13 1454.1 2255.3 1457.66 Q2253.49 1461.2 2253.49 1468.33 Q2253.49 1475.44 2255.3 1479.01 Q2257.13 1482.55 2260.74 1482.55 Q2264.37 1482.55 2266.18 1479.01 Q2268.01 1475.44 2268.01 1468.33 Q2268.01 1461.2 2266.18 1457.66 Q2264.37 1454.1 2260.74 1454.1 M2260.74 1450.39 Q2266.55 1450.39 2269.61 1455 Q2272.68 1459.58 2272.68 1468.33 Q2272.68 1477.06 2269.61 1481.67 Q2266.55 1486.25 2260.74 1486.25 Q2254.93 1486.25 2251.85 1481.67 Q2248.8 1477.06 2248.8 1468.33 Q2248.8 1459.58 2251.85 1455 Q2254.93 1450.39 2260.74 1450.39 Z" fill="#000000" fill-rule="nonzero" fill-opacity="1" /><path clip-path="url(#clip830)" d="M2290.9 1454.1 Q2287.29 1454.1 2285.46 1457.66 Q2283.66 1461.2 2283.66 1468.33 Q2283.66 1475.44 2285.46 1479.01 Q2287.29 1482.55 2290.9 1482.55 Q2294.54 1482.55 2296.34 1479.01 Q2298.17 1475.44 2298.17 1468.33 Q2298.17 1461.2 2296.34 1457.66 Q2294.54 1454.1 2290.9 1454.1 M2290.9 1450.39 Q2296.71 1450.39 2299.77 1455 Q2302.85 1459.58 2302.85 1468.33 Q2302.85 1477.06 2299.77 1481.67 Q2296.71 1486.25 2290.9 1486.25 Q2285.09 1486.25 2282.01 1481.67 Q2278.96 1477.06 2278.96 1468.33 Q2278.96 1459.58 2282.01 1455 Q2285.09 1450.39 2290.9 1450.39 Z" fill="#000000" fill-rule="nonzero" fill-opacity="1" /><path clip-path="url(#clip830)" d="M1051.82 1520.52 L1058.25 1520.52 L1058.25 1568.04 L1051.82 1568.04 L1051.82 1520.52 Z" fill="#000000" fill-rule="nonzero" fill-opacity="1" /><path clip-path="url(#clip830)" d="M1100.42 1546.53 L1100.42 1568.04 L1094.57 1568.04 L1094.57 1546.72 Q1094.57 1541.66 1092.59 1539.14 Q1090.62 1536.63 1086.67 1536.63 Q1081.93 1536.63 1079.19 1539.65 Q1076.46 1542.68 1076.46 1547.9 L1076.46 1568.04 L1070.57 1568.04 L1070.57 1532.4 L1076.46 1532.4 L1076.46 1537.93 Q1078.56 1534.72 1081.39 1533.13 Q1084.25 1531.54 1087.98 1531.54 Q1094.12 1531.54 1097.27 1535.36 Q1100.42 1539.14 1100.42 1546.53 Z" fill="#000000" fill-rule="nonzero" fill-opacity="1" /><path clip-path="url(#clip830)" d="M1117.9 1522.27 L1117.9 1532.4 L1129.96 1532.4 L1129.96 1536.95 L1117.9 1536.95 L1117.9 1556.3 Q1117.9 1560.66 1119.08 1561.9 Q1120.28 1563.14 1123.95 1563.14 L1129.96 1563.14 L1129.96 1568.04 L1123.95 1568.04 Q1117.17 1568.04 1114.59 1565.53 Q1112.01 1562.98 1112.01 1556.3 L1112.01 1536.95 L1107.71 1536.95 L1107.71 1532.4 L1112.01 1532.4 L1112.01 1522.27 L1117.9 1522.27 Z" fill="#000000" fill-rule="nonzero" fill-opacity="1" /><path clip-path="url(#clip830)" d="M1168.15 1548.76 L1168.15 1551.62 L1141.23 1551.62 Q1141.61 1557.67 1144.86 1560.85 Q1148.13 1564 1153.96 1564 Q1157.33 1564 1160.48 1563.17 Q1163.67 1562.35 1166.79 1560.69 L1166.79 1566.23 Q1163.64 1567.57 1160.33 1568.27 Q1157.01 1568.97 1153.61 1568.97 Q1145.08 1568.97 1140.08 1564 Q1135.12 1559.04 1135.12 1550.57 Q1135.12 1541.82 1139.83 1536.69 Q1144.57 1531.54 1152.59 1531.54 Q1159.78 1531.54 1163.95 1536.18 Q1168.15 1540.8 1168.15 1548.76 M1162.3 1547.04 Q1162.23 1542.23 1159.59 1539.37 Q1156.98 1536.5 1152.65 1536.5 Q1147.75 1536.5 1144.79 1539.27 Q1141.86 1542.04 1141.42 1547.07 L1162.3 1547.04 Z" fill="#000000" fill-rule="nonzero" fill-opacity="1" /><path clip-path="url(#clip830)" d="M1201.22 1549.81 Q1201.22 1543.44 1198.58 1539.94 Q1195.97 1536.44 1191.23 1536.44 Q1186.52 1536.44 1183.88 1539.94 Q1181.27 1543.44 1181.27 1549.81 Q1181.27 1556.14 1183.88 1559.64 Q1186.52 1563.14 1191.23 1563.14 Q1195.97 1563.14 1198.58 1559.64 Q1201.22 1556.14 1201.22 1549.81 M1207.08 1563.62 Q1207.08 1572.72 1203.04 1577.15 Q1199 1581.6 1190.66 1581.6 Q1187.57 1581.6 1184.83 1581.13 Q1182.1 1580.68 1179.52 1579.72 L1179.52 1574.03 Q1182.1 1575.43 1184.61 1576.1 Q1187.12 1576.76 1189.73 1576.76 Q1195.5 1576.76 1198.36 1573.74 Q1201.22 1570.75 1201.22 1564.67 L1201.22 1561.77 Q1199.41 1564.92 1196.58 1566.48 Q1193.75 1568.04 1189.8 1568.04 Q1183.24 1568.04 1179.23 1563.05 Q1175.22 1558.05 1175.22 1549.81 Q1175.22 1541.53 1179.23 1536.53 Q1183.24 1531.54 1189.8 1531.54 Q1193.75 1531.54 1196.58 1533.1 Q1199.41 1534.66 1201.22 1537.81 L1201.22 1532.4 L1207.08 1532.4 L1207.08 1563.62 Z" fill="#000000" fill-rule="nonzero" fill-opacity="1" /><path clip-path="url(#clip830)" d="M1249.64 1548.76 L1249.64 1551.62 L1222.71 1551.62 Q1223.09 1557.67 1226.34 1560.85 Q1229.62 1564 1235.44 1564 Q1238.81 1564 1241.97 1563.17 Q1245.15 1562.35 1248.27 1560.69 L1248.27 1566.23 Q1245.12 1567.57 1241.81 1568.27 Q1238.5 1568.97 1235.09 1568.97 Q1226.56 1568.97 1221.56 1564 Q1216.6 1559.04 1216.6 1550.57 Q1216.6 1541.82 1221.31 1536.69 Q1226.05 1531.54 1234.07 1531.54 Q1241.27 1531.54 1245.43 1536.18 Q1249.64 1540.8 1249.64 1548.76 M1243.78 1547.04 Q1243.72 1542.23 1241.07 1539.37 Q1238.46 1536.5 1234.14 1536.5 Q1229.23 1536.5 1226.27 1539.27 Q1223.35 1542.04 1222.9 1547.07 L1243.78 1547.04 Z" fill="#000000" fill-rule="nonzero" fill-opacity="1" /><path clip-path="url(#clip830)" d="M1279.9 1537.87 Q1278.92 1537.3 1277.74 1537.04 Q1276.59 1536.76 1275.19 1536.76 Q1270.23 1536.76 1267.56 1540 Q1264.91 1543.22 1264.91 1549.27 L1264.91 1568.04 L1259.03 1568.04 L1259.03 1532.4 L1264.91 1532.4 L1264.91 1537.93 Q1266.76 1534.69 1269.72 1533.13 Q1272.68 1531.54 1276.91 1531.54 Q1277.52 1531.54 1278.25 1531.63 Q1278.98 1531.7 1279.87 1531.85 L1279.9 1537.87 Z" fill="#000000" fill-rule="nonzero" fill-opacity="1" /><path clip-path="url(#clip830)" d="M1306.77 1532.4 L1312.62 1532.4 L1312.62 1568.04 L1306.77 1568.04 L1306.77 1532.4 M1306.77 1518.52 L1312.62 1518.52 L1312.62 1525.93 L1306.77 1525.93 L1306.77 1518.52 Z" fill="#000000" fill-rule="nonzero" fill-opacity="1" /><path clip-path="url(#clip830)" d="M1354.51 1546.53 L1354.51 1568.04 L1348.65 1568.04 L1348.65 1546.72 Q1348.65 1541.66 1346.68 1539.14 Q1344.71 1536.63 1340.76 1536.63 Q1336.02 1536.63 1333.28 1539.65 Q1330.54 1542.68 1330.54 1547.9 L1330.54 1568.04 L1324.66 1568.04 L1324.66 1532.4 L1330.54 1532.4 L1330.54 1537.93 Q1332.64 1534.72 1335.48 1533.13 Q1338.34 1531.54 1342.07 1531.54 Q1348.21 1531.54 1351.36 1535.36 Q1354.51 1539.14 1354.51 1546.53 Z" fill="#000000" fill-rule="nonzero" fill-opacity="1" /><path clip-path="url(#clip830)" d="M1389.65 1537.81 L1389.65 1518.52 L1395.51 1518.52 L1395.51 1568.04 L1389.65 1568.04 L1389.65 1562.7 Q1387.8 1565.88 1384.97 1567.44 Q1382.17 1568.97 1378.22 1568.97 Q1371.76 1568.97 1367.69 1563.81 Q1363.65 1558.65 1363.65 1550.25 Q1363.65 1541.85 1367.69 1536.69 Q1371.76 1531.54 1378.22 1531.54 Q1382.17 1531.54 1384.97 1533.1 Q1387.8 1534.62 1389.65 1537.81 M1369.69 1550.25 Q1369.69 1556.71 1372.33 1560.4 Q1375.01 1564.07 1379.66 1564.07 Q1384.3 1564.07 1386.98 1560.4 Q1389.65 1556.71 1389.65 1550.25 Q1389.65 1543.79 1386.98 1540.13 Q1384.3 1536.44 1379.66 1536.44 Q1375.01 1536.44 1372.33 1540.13 Q1369.69 1543.79 1369.69 1550.25 Z" fill="#000000" fill-rule="nonzero" fill-opacity="1" /><path clip-path="url(#clip830)" d="M1438.06 1548.76 L1438.06 1551.62 L1411.13 1551.62 Q1411.52 1557.67 1414.76 1560.85 Q1418.04 1564 1423.87 1564 Q1427.24 1564 1430.39 1563.17 Q1433.57 1562.35 1436.69 1560.69 L1436.69 1566.23 Q1433.54 1567.57 1430.23 1568.27 Q1426.92 1568.97 1423.52 1568.97 Q1414.99 1568.97 1409.99 1564 Q1405.02 1559.04 1405.02 1550.57 Q1405.02 1541.82 1409.73 1536.69 Q1414.48 1531.54 1422.5 1531.54 Q1429.69 1531.54 1433.86 1536.18 Q1438.06 1540.8 1438.06 1548.76 M1432.2 1547.04 Q1432.14 1542.23 1429.5 1539.37 Q1426.89 1536.5 1422.56 1536.5 Q1417.66 1536.5 1414.7 1539.27 Q1411.77 1542.04 1411.32 1547.07 L1432.2 1547.04 Z" fill="#000000" fill-rule="nonzero" fill-opacity="1" /><path clip-path="url(#clip830)" d="M1476.16 1532.4 L1463.27 1549.74 L1476.83 1568.04 L1469.92 1568.04 L1459.55 1554.04 L1449.17 1568.04 L1442.26 1568.04 L1456.11 1549.39 L1443.44 1532.4 L1450.35 1532.4 L1459.8 1545.1 L1469.25 1532.4 L1476.16 1532.4 Z" fill="#000000" fill-rule="nonzero" fill-opacity="1" /><path clip-path="url(#clip830)" d="M1505.82 1532.4 L1511.68 1532.4 L1511.68 1568.04 L1505.82 1568.04 L1505.82 1532.4 M1505.82 1518.52 L1511.68 1518.52 L1511.68 1525.93 L1505.82 1525.93 L1505.82 1518.52 Z" fill="#000000" fill-rule="nonzero" fill-opacity="1" /><polyline clip-path="url(#clip830)" style="stroke:#000000; stroke-linecap:round; stroke-linejoin:round; stroke-width:4; stroke-opacity:1; fill:none" points="210.746,1423.18 210.746,47.2441 "/>
<polyline clip-path="url(#clip830)" style="stroke:#000000; stroke-linecap:round; stroke-linejoin:round; stroke-width:4; stroke-opacity:1; fill:none" points="210.746,1326.23 229.644,1326.23 "/>
<polyline clip-path="url(#clip830)" style="stroke:#000000; stroke-linecap:round; stroke-linejoin:round; stroke-width:4; stroke-opacity:1; fill:none" points="210.746,1043.61 229.644,1043.61 "/>
<polyline clip-path="url(#clip830)" style="stroke:#000000; stroke-linecap:round; stroke-linejoin:round; stroke-width:4; stroke-opacity:1; fill:none" points="210.746,760.993 229.644,760.993 "/>
<polyline clip-path="url(#clip830)" style="stroke:#000000; stroke-linecap:round; stroke-linejoin:round; stroke-width:4; stroke-opacity:1; fill:none" points="210.746,478.372 229.644,478.372 "/>
<polyline clip-path="url(#clip830)" style="stroke:#000000; stroke-linecap:round; stroke-linejoin:round; stroke-width:4; stroke-opacity:1; fill:none" points="210.746,195.752 229.644,195.752 "/>
<path clip-path="url(#clip830)" d="M114.631 1326.69 L144.306 1326.69 L144.306 1330.62 L114.631 1330.62 L114.631 1326.69 Z" fill="#000000" fill-rule="nonzero" fill-opacity="1" /><path clip-path="url(#clip830)" d="M158.427 1339.58 L174.746 1339.58 L174.746 1343.51 L152.802 1343.51 L152.802 1339.58 Q155.464 1336.82 160.047 1332.19 Q164.653 1327.54 165.834 1326.2 Q168.079 1323.68 168.959 1321.94 Q169.862 1320.18 169.862 1318.49 Q169.862 1315.74 167.917 1314 Q165.996 1312.26 162.894 1312.26 Q160.695 1312.26 158.241 1313.03 Q155.811 1313.79 153.033 1315.34 L153.033 1310.62 Q155.857 1309.49 158.311 1308.91 Q160.765 1308.33 162.802 1308.33 Q168.172 1308.33 171.366 1311.01 Q174.561 1313.7 174.561 1318.19 Q174.561 1320.32 173.751 1322.24 Q172.964 1324.14 170.857 1326.73 Q170.278 1327.4 167.177 1330.62 Q164.075 1333.82 158.427 1339.58 Z" fill="#000000" fill-rule="nonzero" fill-opacity="1" /><path clip-path="url(#clip830)" d="M114.26 1044.06 L143.936 1044.06 L143.936 1048 L114.26 1048 L114.26 1044.06 Z" fill="#000000" fill-rule="nonzero" fill-opacity="1" /><path clip-path="url(#clip830)" d="M154.839 1056.96 L162.477 1056.96 L162.477 1030.59 L154.167 1032.26 L154.167 1028 L162.431 1026.33 L167.107 1026.33 L167.107 1056.96 L174.746 1056.96 L174.746 1060.89 L154.839 1060.89 L154.839 1056.96 Z" fill="#000000" fill-rule="nonzero" fill-opacity="1" /><path clip-path="url(#clip830)" d="M162.802 746.792 Q159.19 746.792 157.362 750.356 Q155.556 753.898 155.556 761.028 Q155.556 768.134 157.362 771.699 Q159.19 775.241 162.802 775.241 Q166.436 775.241 168.241 771.699 Q170.07 768.134 170.07 761.028 Q170.07 753.898 168.241 750.356 Q166.436 746.792 162.802 746.792 M162.802 743.088 Q168.612 743.088 171.667 747.694 Q174.746 752.278 174.746 761.028 Q174.746 769.755 171.667 774.361 Q168.612 778.944 162.802 778.944 Q156.991 778.944 153.913 774.361 Q150.857 769.755 150.857 761.028 Q150.857 752.278 153.913 747.694 Q156.991 743.088 162.802 743.088 Z" fill="#000000" fill-rule="nonzero" fill-opacity="1" /><path clip-path="url(#clip830)" d="M154.839 491.717 L162.477 491.717 L162.477 465.352 L154.167 467.018 L154.167 462.759 L162.431 461.092 L167.107 461.092 L167.107 491.717 L174.746 491.717 L174.746 495.652 L154.839 495.652 L154.839 491.717 Z" fill="#000000" fill-rule="nonzero" fill-opacity="1" /><path clip-path="url(#clip830)" d="M158.427 209.097 L174.746 209.097 L174.746 213.032 L152.802 213.032 L152.802 209.097 Q155.464 206.342 160.047 201.713 Q164.653 197.06 165.834 195.717 Q168.079 193.194 168.959 191.458 Q169.862 189.699 169.862 188.009 Q169.862 185.254 167.917 183.518 Q165.996 181.782 162.894 181.782 Q160.695 181.782 158.241 182.546 Q155.811 183.31 153.033 184.861 L153.033 180.139 Q155.857 179.004 158.311 178.426 Q160.765 177.847 162.802 177.847 Q168.172 177.847 171.366 180.532 Q174.561 183.217 174.561 187.708 Q174.561 189.838 173.751 191.759 Q172.964 193.657 170.857 196.25 Q170.278 196.921 167.177 200.138 Q164.075 203.333 158.427 209.097 Z" fill="#000000" fill-rule="nonzero" fill-opacity="1" /><path clip-path="url(#clip830)" d="M18.0438 900.243 L24.314 900.243 Q22.5634 903.903 21.704 907.15 Q20.8447 910.396 20.8447 913.42 Q20.8447 918.672 22.8817 921.536 Q24.9187 924.369 28.6745 924.369 Q31.8255 924.369 33.4488 922.491 Q35.0402 920.581 36.0269 915.298 L36.8226 911.415 Q38.1912 904.221 41.6605 900.816 Q45.098 897.378 50.8908 897.378 Q57.7976 897.378 61.3624 902.025 Q64.9272 906.64 64.9272 915.584 Q64.9272 918.958 64.1633 922.778 Q63.3994 926.565 61.9035 930.639 L55.2831 930.639 Q57.4793 926.724 58.5933 922.968 Q59.7073 919.213 59.7073 915.584 Q59.7073 910.078 57.543 907.086 Q55.3786 904.094 51.3682 904.094 Q47.8671 904.094 45.8937 906.259 Q43.9204 908.391 42.9337 913.293 L42.1698 917.208 Q40.7375 924.401 37.682 927.615 Q34.6264 930.83 29.1837 930.83 Q22.8817 930.83 19.2532 926.406 Q15.6248 921.95 15.6248 914.152 Q15.6248 910.81 16.2295 907.341 Q16.8343 903.871 18.0438 900.243 Z" fill="#000000" fill-rule="nonzero" fill-opacity="1" /><path clip-path="url(#clip830)" d="M28.3562 887.607 L28.3562 881.751 L64.0042 881.751 L64.0042 887.607 L28.3562 887.607 M14.479 887.607 L14.479 881.751 L21.895 881.751 L21.895 887.607 L14.479 887.607 Z" fill="#000000" fill-rule="nonzero" fill-opacity="1" /><path clip-path="url(#clip830)" d="M45.7664 846.039 Q39.4007 846.039 35.8996 848.681 Q32.3984 851.291 32.3984 856.033 Q32.3984 860.744 35.8996 863.385 Q39.4007 865.995 45.7664 865.995 Q52.1003 865.995 55.6014 863.385 Q59.1026 860.744 59.1026 856.033 Q59.1026 851.291 55.6014 848.681 Q52.1003 846.039 45.7664 846.039 M59.58 840.182 Q68.683 840.182 73.1071 844.225 Q77.5631 848.267 77.5631 856.606 Q77.5631 859.693 77.0857 862.431 Q76.6401 865.168 75.6852 867.746 L69.9879 867.746 Q71.3884 865.168 72.0568 862.653 Q72.7252 860.139 72.7252 857.529 Q72.7252 851.768 69.7015 848.903 Q66.7096 846.039 60.6303 846.039 L57.7339 846.039 Q60.885 847.853 62.4446 850.686 Q64.0042 853.519 64.0042 857.465 Q64.0042 864.022 59.0071 868.032 Q54.01 872.043 45.7664 872.043 Q37.491 872.043 32.4939 868.032 Q27.4968 864.022 27.4968 857.465 Q27.4968 853.519 29.0564 850.686 Q30.616 847.853 33.7671 846.039 L28.3562 846.039 L28.3562 840.182 L59.58 840.182 Z" fill="#000000" fill-rule="nonzero" fill-opacity="1" /><path clip-path="url(#clip830)" d="M42.4881 798.487 L64.0042 798.487 L64.0042 804.344 L42.679 804.344 Q37.6183 804.344 35.1038 806.317 Q32.5894 808.29 32.5894 812.237 Q32.5894 816.979 35.6131 819.717 Q38.6368 822.454 43.8567 822.454 L64.0042 822.454 L64.0042 828.342 L28.3562 828.342 L28.3562 822.454 L33.8944 822.454 Q30.6797 820.353 29.0883 817.521 Q27.4968 814.656 27.4968 810.932 Q27.4968 804.789 31.3163 801.638 Q35.1038 798.487 42.4881 798.487 Z" fill="#000000" fill-rule="nonzero" fill-opacity="1" /><path clip-path="url(#clip830)" d="M46.0847 770.605 Q46.0847 777.703 47.7079 780.44 Q49.3312 783.178 53.2461 783.178 Q56.3653 783.178 58.2114 781.141 Q60.0256 779.072 60.0256 775.539 Q60.0256 770.669 56.5881 767.741 Q53.1188 764.781 47.3897 764.781 L46.0847 764.781 L46.0847 770.605 M43.6657 758.924 L64.0042 758.924 L64.0042 764.781 L58.5933 764.781 Q61.8398 766.786 63.3994 769.778 Q64.9272 772.77 64.9272 777.098 Q64.9272 782.573 61.8716 785.819 Q58.7843 789.034 53.6281 789.034 Q47.6125 789.034 44.5569 785.024 Q41.5014 780.981 41.5014 772.992 L41.5014 764.781 L40.9285 764.781 Q36.8862 764.781 34.6901 767.454 Q32.4621 770.096 32.4621 774.902 Q32.4621 777.958 33.1941 780.854 Q33.9262 783.75 35.3903 786.424 L29.9795 786.424 Q28.7381 783.209 28.1334 780.186 Q27.4968 777.162 27.4968 774.297 Q27.4968 766.563 31.5072 762.744 Q35.5176 758.924 43.6657 758.924 Z" fill="#000000" fill-rule="nonzero" fill-opacity="1" /><path clip-path="url(#clip830)" d="M14.479 746.861 L14.479 741.005 L64.0042 741.005 L64.0042 746.861 L14.479 746.861 Z" fill="#000000" fill-rule="nonzero" fill-opacity="1" /><path clip-path="url(#clip830)" d="M28.3562 712.232 L28.3562 706.025 L58.275 694.885 L28.3562 683.745 L28.3562 677.539 L64.0042 690.907 L64.0042 698.864 L28.3562 712.232 Z" fill="#000000" fill-rule="nonzero" fill-opacity="1" /><path clip-path="url(#clip830)" d="M46.0847 653.253 Q46.0847 660.351 47.7079 663.089 Q49.3312 665.826 53.2461 665.826 Q56.3653 665.826 58.2114 663.789 Q60.0256 661.72 60.0256 658.187 Q60.0256 653.317 56.5881 650.389 Q53.1188 647.429 47.3897 647.429 L46.0847 647.429 L46.0847 653.253 M43.6657 641.572 L64.0042 641.572 L64.0042 647.429 L58.5933 647.429 Q61.8398 649.434 63.3994 652.426 Q64.9272 655.418 64.9272 659.747 Q64.9272 665.221 61.8716 668.468 Q58.7843 671.682 53.6281 671.682 Q47.6125 671.682 44.5569 667.672 Q41.5014 663.63 41.5014 655.641 L41.5014 647.429 L40.9285 647.429 Q36.8862 647.429 34.6901 650.102 Q32.4621 652.744 32.4621 657.55 Q32.4621 660.606 33.1941 663.502 Q33.9262 666.399 35.3903 669.072 L29.9795 669.072 Q28.7381 665.858 28.1334 662.834 Q27.4968 659.81 27.4968 656.946 Q27.4968 649.211 31.5072 645.392 Q35.5176 641.572 43.6657 641.572 Z" fill="#000000" fill-rule="nonzero" fill-opacity="1" /><path clip-path="url(#clip830)" d="M14.479 629.509 L14.479 623.653 L64.0042 623.653 L64.0042 629.509 L14.479 629.509 Z" fill="#000000" fill-rule="nonzero" fill-opacity="1" /><path clip-path="url(#clip830)" d="M49.9359 612.004 L28.3562 612.004 L28.3562 606.147 L49.7131 606.147 Q54.7739 606.147 57.3202 604.174 Q59.8346 602.201 59.8346 598.254 Q59.8346 593.511 56.8109 590.774 Q53.7872 588.005 48.5673 588.005 L28.3562 588.005 L28.3562 582.149 L64.0042 582.149 L64.0042 588.005 L58.5296 588.005 Q61.7762 590.138 63.3676 592.97 Q64.9272 595.771 64.9272 599.495 Q64.9272 605.638 61.1078 608.821 Q57.2883 612.004 49.9359 612.004 M27.4968 597.267 L27.4968 597.267 Z" fill="#000000" fill-rule="nonzero" fill-opacity="1" /><path clip-path="url(#clip830)" d="M44.7161 539.594 L47.5806 539.594 L47.5806 566.521 Q53.6281 566.139 56.8109 562.892 Q59.9619 559.614 59.9619 553.789 Q59.9619 550.416 59.1344 547.264 Q58.3069 544.082 56.6518 540.962 L62.1899 540.962 Q63.5267 544.113 64.227 547.424 Q64.9272 550.734 64.9272 554.139 Q64.9272 562.669 59.9619 567.667 Q54.9967 572.632 46.5303 572.632 Q37.7774 572.632 32.6531 567.921 Q27.4968 563.179 27.4968 555.158 Q27.4968 547.965 32.1438 543.795 Q36.7589 539.594 44.7161 539.594 M42.9973 545.45 Q38.1912 545.514 35.3266 548.156 Q32.4621 550.766 32.4621 555.094 Q32.4621 559.996 35.2312 562.956 Q38.0002 565.884 43.0292 566.33 L42.9973 545.45 Z" fill="#000000" fill-rule="nonzero" fill-opacity="1" /><polyline clip-path="url(#clip832)" style="stroke:#009af9; stroke-linecap:round; stroke-linejoin:round; stroke-width:8; stroke-opacity:1; fill:none" stroke-dasharray="32, 16, 4, 16" points="271.369,810.515 273.344,557.037 275.32,318.282 277.295,159.348 279.27,118.824 281.246,195.048 283.221,347.506 285.196,512.693 287.172,628.295 289.147,656.438 291.122,597.192 293.098,487.327 295.073,384.942 297.048,346.017 299.024,401.925 300.999,546.53 302.974,737.782 304.95,913.142 306.925,1012.91 308.9,1002.55 310.875,885.576 312.851,702.119 314.826,513.851 316.801,381.074 318.777,340.697 320.752,393.426 322.727,504.9 324.703,620.17 326.678,685.832 328.653,671.283 330.629,580.941 332.604,452.817 334.579,344.048 336.555,308.982 338.53,378.203 340.505,546.493 342.481,774.269 344.456,1001.89 346.431,1171.34 348.407,1247.08 350.382,1228.13 352.357,1146.99 354.333,1056.01 356.308,1006.38 358.283,1028.06 360.259,1118.15 362.234,1242.15 364.209,1347.51 366.185,1384.24 368.16,1324.58 370.135,1174.3 372.111,971.319 374.086,772.095 376.061,631.201 378.037,581.647 380.012,623.487 381.987,724.88 383.963,835.069 385.938,904.224 387.913,902.51 389.889,831.145 391.864,721.308 393.839,621.425 395.815,577.821 397.79,616.18 399.765,730.936 401.741,886.623 403.716,1030.65 405.691,1112.58 407.667,1102.68 409.642,1002.54 411.617,844.028 413.593,676.958 415.568,550.252 417.543,493.861 419.519,508.239 421.494,565.304 423.469,620.366 425.445,630.353 427.42,571.278 429.395,448.256 431.371,294.249 433.346,158.062 435.321,86.1857 437.297,105.421 439.272,212.874 441.247,377.067 443.223,549.667 445.198,683.327 447.173,748.823 449.149,745.041 451.124,698.11 453.099,650.16 455.075,642.125 457.05,697.236 459.025,811.52 461.001,954.931 462.976,1082.61 464.951,1151.92 466.927,1138.79 468.902,1047.05 470.877,907.298 472.853,765.8 474.828,667.573 476.803,640.195 478.779,684.361 480.754,774.711 482.729,870.461 484.705,931.683 486.68,934.94 488.655,882.323 490.631,800.469 492.606,730.025 494.581,709.643 496.557,760.663 498.532,878.351 500.507,1033.01 502.483,1180.54 504.458,1278.35 506.433,1300.72 508.409,1247.59 510.384,1143.82 512.359,1029.06 514.335,942.351 516.31,907.242 518.285,923.229 520.261,966.575 522.236,1000.19 524.211,988.657 526.187,912.648 528.162,777.14 530.137,610.359 532.113,453.823 534.088,347.313 536.063,314.479 538.039,354.513 540.014,442.983 541.989,541.43 543.965,611.998 545.94,631.512 547.915,599.667 549.891,538.294 551.866,482.088 553.841,464.453 555.817,503.925 557.792,596.395 559.767,716.097 561.743,824.955 563.718,886.71 565.693,880.442 567.669,808.349 569.644,694.882 571.619,577.621 573.595,493.386 575.57,464.903 577.545,493.024 579.521,557.389 581.496,625.158 583.471,664.378 585.447,656.812 587.422,605.318 589.397,532.973 591.373,474.31 593.348,462.065 595.323,514.493 597.299,628.099 599.274,778.524 601.249,929.22 603.225,1044.6 605.2,1102.66 607.175,1102.33 609.151,1062.86 611.126,1015.54 613.101,991.095 615.077,1007.48 617.052,1062.9 619.027,1136.54 621.003,1196.79 622.978,1213.67 624.953,1170.73 626.929,1071.89 628.904,940.506 630.879,811.187 632.855,717.379 634.83,679.445 636.805,697.751 638.781,753.286 640.756,815.508 642.731,854.332 644.707,851.673 646.682,808.129 648.657,742.341 650.633,683.31 652.608,658.719 654.583,683.734 656.559,754.614 658.534,849.551 660.509,936.422 662.485,984.477 664.46,975.55 666.435,910.536 668.41,808.739 670.386,700.409 672.361,615.356 674.336,571.994 676.312,570.961 678.287,595.676 680.262,619.541 682.238,616.931 684.213,573.745 686.188,493.438 688.164,396.245 690.139,311.9 692.114,268.639 694.09,282.69 696.065,352.213 698.04,457.979 700.016,570.478 701.991,660.723 703.966,710.636 705.942,719.116 707.917,701.531 709.892,682.946 711.868,687.741 713.843,729.644 715.818,806.002 717.794,898.478 719.769,979.863 721.744,1024.39 723.72,1017.62 725.695,962.048 727.67,876.459 729.646,789.144 731.621,727.675 733.596,709.078 735.572,734.104 737.547,787.703 739.522,845.442 741.498,883.333 743.473,887.284 745.448,858.56 747.424,813.185 749.399,775.576 751.374,768.869 753.35,805.671 755.325,882.773 757.3,981.847 759.276,1075.84 761.251,1138.67 763.226,1154.45 765.202,1122.93 767.177,1058.96 769.152,986.476 771.128,929.085 773.103,901.15 775.078,902.556 777.054,919.217 779.029,929.028 781.004,910.949 782.98,853.69 784.955,760.674 786.93,649.368 788.906,545.244 790.881,472.667 792.856,446.172 794.832,465.418 796.807,515.688 798.782,573.687 800.758,616.405 802.733,629.634 804.708,612.938 806.684,579.225 808.659,549.157 810.634,542.607 812.61,570.468 814.585,629.964 816.56,705.269 818.536,773.172 820.511,811.635 822.486,807.976 824.462,763.577 826.437,693.36 828.412,620.25 830.388,566.77 832.363,546.954 834.338,561.624 836.314,598.773 838.289,638.821 840.264,662.692 842.24,659.55 844.215,631.256 846.19,591.823 848.166,562.115 850.141,561.826 852.116,601.815 854.092,679.714 856.067,780.48 858.042,881.659 860.018,961.355 861.993,1005.89 863.968,1014.25 865.944,997.79 867.919,975.164 869.894,964.76 871.87,977.326 873.845,1011.74 875.82,1055.45 877.796,1089.46 879.771,1095.83 881.746,1064.87 883.722,999.227 885.697,913.368 887.672,828.556 889.648,765.34 891.623,736.329 893.598,741.989 895.574,771.007 897.549,805.027 899.524,825.9 901.5,822.657 903.475,795.569 905.45,755.751 907.426,720.541 909.401,706.438 911.376,722.353 913.352,765.755 915.327,823.198 917.302,875.028 919.278,902.471 921.253,894.421 923.228,851.367 925.204,785.01 927.179,713.742 929.154,655.756 931.13,622.41 933.105,614.358 935.08,621.873 937.056,629.182 939.031,621.103 941.006,589.405 942.982,536.444 944.957,474.675 946.932,422.239 948.908,396.301 950.883,406.687 952.858,452.216 954.834,521.12 956.809,595.344 958.784,657.099 960.76,695.155 962.735,708.53 964.71,706.196 966.686,703.007 968.661,713.425 970.636,745.514 972.612,797.484 974.587,858.116 976.562,910.895 978.538,940.251 980.513,937.518 982.488,904.354 984.464,852.304 986.439,798.703 988.414,760.473 990.39,748.163 992.365,762.461 994.34,794.474 996.316,829.591 998.291,853.422 1000.27,857.5 1002.24,842.589 1004.22,818.314 1006.19,799.32 1008.17,799.424 1010.14,826.028 1012.12,876.941 1014.09,940.809 1016.07,1001.01 1018.04,1041.5 1020.02,1052.46 1021.99,1033.56 1023.97,993.694 1025.95,947.255 1027.92,908.553 1029.9,886.355 1031.87,880.736 1033.85,883.378 1035.82,881.157 1037.8,861.627 1039.77,818.26 1041.75,753.432 1043.72,678.001 1045.7,607.639 1047.67,557.308 1049.65,535.975 1051.62,543.544 1053.6,571.163 1055.58,604.722 1057.55,630.224 1059.53,638.94 1061.5,630.425 1063.48,612.273 1065.45,596.748 1067.43,595.629 1069.4,615.272 1071.38,653.788 1073.35,701.428 1075.33,744.021 1077.3,768.161 1079.28,766.155 1081.25,738.878 1083.23,695.447 1085.21,649.87 1087.18,615.952 1089.16,602.39 1091.13,609.901 1093.11,631.443 1095.08,655.379 1097.06,670.349 1099.03,669.938 1101.01,655.364 1102.98,635.138 1104.96,621.857 1106.93,627.353 1108.91,658.054 1110.88,712.339 1112.86,780.88 1114.84,849.834 1116.81,905.685 1118.79,939.882 1120.76,951.562 1122.74,947.346 1124.71,938.333 1126.69,935.501 1128.66,945.26 1130.64,966.901 1132.61,992.867 1134.59,1011.76 1136.56,1012.85 1138.54,990.483 1140.51,946.466 1142.49,889.783 1144.47,833.542 1146.44,790.408 1148.42,768.221 1150.39,767.443 1152.37,781.372 1154.34,798.993 1156.32,809.366 1158.29,805.841 1160.27,788.514 1162.24,763.999 1164.22,742.635 1166.19,734.23 1168.17,743.982 1170.14,770.17 1172.12,804.48 1174.1,834.865 1176.07,849.845 1178.05,842.619 1180.02,813.452 1182,769.441 1183.97,721.783 1185.95,681.603 1187.92,655.937 1189.9,645.378 1191.87,644.265 1193.85,643.29 1195.82,633.505 1197.8,610.149 1199.77,574.844 1201.75,535.281 1203.73,502.546 1205.7,487.084 1207.68,494.845 1209.65,525.065 1211.63,570.522 1213.6,620.147 1215.58,662.989 1217.55,692.038 1219.53,706.465 1221.5,711.461 1223.48,715.779 1225.45,727.958 1227.43,752.695 1229.4,788.767 1231.38,829.295 1233.36,864.242 1235.33,884.194 1237.31,883.965 1239.28,864.652 1241.26,833.371 1243.23,800.767 1245.21,777.252 1247.18,769.382 1249.16,777.744 1251.13,797.109 1253.11,818.759 1255.08,834.074 1257.06,837.974 1259.03,830.916 1261.01,818.673 1262.99,810.012 1264.96,813.158 1266.94,832.427 1268.91,866.31 1270.89,907.744 1272.86,946.478 1274.84,972.632 1276.81,980.109 1278.79,968.584 1280.76,943.347 1282.74,913.078 1284.71,886.443 1286.69,868.806 1288.66,860.323 1290.64,856.113 1292.62,848.423 1294.59,829.932 1296.57,796.916 1298.54,751.038 1300.52,699.083 1302.49,650.73 1304.47,615.195 1306.44,598.033 1308.42,599.271 1310.39,613.593 1312.37,632.455 1314.34,647.335 1316.32,652.858 1318.29,648.625 1320.27,639.075 1322.25,631.456 1324.22,632.718 1326.2,646.538 1328.17,671.62 1330.15,701.94 1332.12,728.83 1334.1,744.124 1336.07,743.154 1338.05,726.475 1340.02,699.669 1342,671.31 1343.97,649.878 1345.95,640.783 1347.92,644.617 1349.9,657.28 1351.88,671.88 1353.85,681.674 1355.83,682.879 1357.8,676.296 1359.78,667.096 1361.75,662.878 1363.73,670.735 1365.7,694.449 1367.68,732.9 1369.65,780.272 1371.63,828.001 1373.6,867.707 1375.58,894.017 1377.55,906.214 1379.53,908.13 1381.51,906.336 1383.48,907.364 1385.46,915.025 1387.43,928.868 1389.41,944.342 1391.38,954.614 1393.36,953.305 1395.33,937.116 1397.31,907.307 1399.28,869.483 1401.26,831.751 1403.23,801.945 1405.21,784.963 1407.18,781.22 1409.16,786.764 1411.14,795.002 1413.11,799.346 1415.09,795.763 1417.06,784.268 1419.04,768.784 1421.01,755.459 1422.99,750.102 1424.96,755.722 1426.94,771.143 1428.91,791.207 1430.89,808.514 1432.86,816.032 1434.84,809.593 1436.81,789.335 1438.79,759.569 1440.77,727.124 1442.74,698.819 1444.72,679.033 1446.69,668.273 1448.67,663.277 1450.64,658.589 1452.62,648.968 1454.59,631.696 1456.57,607.895 1458.54,582.336 1460.52,561.807 1462.49,552.67 1464.47,558.528 1466.44,578.882 1468.42,609.288 1470.4,642.938 1472.37,673.069 1474.35,695.281 1476.32,708.897 1478.3,716.883 1480.27,724.36 1482.25,736.339 1484.22,755.525 1486.2,781.075 1488.17,808.753 1490.15,832.454 1492.12,846.482 1494.1,847.735 1496.07,836.945 1498.05,818.51 1500.03,798.982 1502,784.782 1503.98,780.004 1505.95,785.124 1507.93,797.085 1509.9,810.701 1511.88,820.816 1513.85,824.387 1515.83,821.685 1517.8,816.166 1519.78,813.063 1521.75,817.254 1523.73,831.233 1525.7,853.952 1527.68,880.997 1529.66,906.027 1531.63,922.934 1533.61,927.917 1535.58,920.69 1537.56,904.395 1539.53,884.256 1541.51,865.529 1543.48,851.507 1545.46,842.365 1547.43,835.265 1549.41,825.654 1551.38,809.261 1553.36,783.998 1555.33,751.041 1557.31,714.655 1559.28,680.842 1561.26,655.303 1563.24,641.495 1565.21,639.501 1567.19,646.135 1569.16,656.226 1571.14,664.58 1573.11,667.88 1575.09,665.791 1577.06,660.887 1579.04,657.429 1581.01,659.496 1582.99,669.189 1584.96,685.613 1586.94,705.031 1588.91,722.132 1590.89,731.933 1592.87,731.6 1594.84,721.487 1596.82,705.018 1598.79,687.451 1600.77,674.009 1602.74,668.071 1604.72,670.11 1606.69,677.758 1608.67,686.954 1610.64,693.707 1612.62,695.802 1614.59,693.763 1616.57,690.733 1618.54,691.291 1620.52,699.677 1622.5,718.1 1624.47,745.774 1626.45,779.054 1628.42,812.617 1630.4,841.243 1632.37,861.531 1634.35,872.903 1636.32,877.55 1638.3,879.339 1640.27,882.14 1642.25,888.209 1644.22,897.254 1646.2,906.537 1648.17,911.971 1650.15,909.773 1652.13,898.042 1654.1,877.658 1656.08,852.138 1658.05,826.516 1660.03,805.657 1662,792.64 1663.98,787.817 1665.95,788.873 1667.93,791.871 1669.9,792.852 1671.88,789.371 1673.85,781.407 1675.83,771.279 1677.8,762.631 1679.78,758.889 1681.76,761.78 1683.73,770.492 1685.71,781.816 1687.68,791.198 1689.66,794.321 1691.63,788.628 1693.61,774.188 1695.58,753.626 1697.56,731.113 1699.53,710.845 1701.51,695.561 1703.48,685.677 1705.46,679.341 1707.43,673.382 1709.41,664.754 1711.39,651.934 1713.36,635.706 1715.34,619.04 1717.31,606.102 1719.29,600.773 1721.26,605.236 1723.24,619.159 1725.21,639.8 1727.19,662.956 1729.16,684.436 1731.14,701.456 1733.11,713.48 1735.09,722.17 1737.06,730.498 1739.04,741.376 1741.02,756.343 1742.99,774.806 1744.97,794.15 1746.94,810.65 1748.92,820.86 1750.89,822.927 1752.87,817.339 1754.84,806.823 1756.82,795.421 1758.79,787.106 1760.77,784.445 1762.74,787.811 1764.72,795.431 1766.69,804.231 1768.67,811.133 1770.65,814.315 1772.62,813.937 1774.6,812.062 1776.57,811.802 1778.55,816.04 1780.52,826.195 1782.5,841.536 1784.47,859.291 1786.45,875.52 1788.42,886.436 1790.4,889.656 1792.37,884.944 1794.35,874.158 1796.32,860.445 1798.3,846.991 1800.28,835.828 1802.25,827.123 1804.23,819.244 1806.2,809.541 1808.18,795.546 1810.15,776.121 1812.13,752.102 1814.1,726.19 1816.08,702.127 1818.05,683.455 1820.03,672.338 1822,668.877 1823.98,671.17 1825.95,676.088 1827.93,680.464 1829.91,682.244 1831.88,681.16 1833.86,678.689 1835.83,677.32 1837.81,679.428 1839.78,686.197 1841.76,697.004 1843.73,709.521 1845.71,720.486 1847.68,726.854 1849.66,726.901 1851.63,720.854 1853.61,710.818 1855.58,700.026 1857.56,691.704 1859.54,687.971 1861.51,689.196 1863.49,694.028 1865.46,700.084 1867.44,705.016 1869.41,707.531 1871.39,707.976 1873.36,708.259 1875.34,711.135 1877.31,719.13 1879.29,733.517 1881.26,753.743 1883.24,777.507 1885.21,801.481 1887.19,822.396 1889.17,838.082 1891.14,848.083 1893.12,853.628 1895.09,856.976 1897.07,860.409 1899.04,865.253 1901.02,871.316 1902.99,876.952 1904.97,879.723 1906.94,877.393 1908.92,868.884 1910.89,854.813 1912.87,837.4 1914.84,819.785 1916.82,805.005 1918.8,795.008 1920.77,790.081 1922.75,788.881 1924.72,789.066 1926.7,788.261 1928.67,784.985 1930.65,779.206 1932.62,772.288 1934.6,766.384 1936.57,763.505 1938.55,764.628 1940.52,769.193 1942.5,775.195 1944.47,779.823 1946.45,780.427 1948.43,775.43 1950.4,764.871 1952.38,750.349 1954.35,734.42 1956.33,719.675 1958.3,707.839 1960.28,699.245 1962.25,692.863 1964.23,686.868 1966.2,679.513 1968.18,669.964 1970.15,658.772 1972.13,647.795 1974.1,639.599 1976.08,636.555 1978.06,639.982 1980.03,649.662 1982.01,663.892 1983.98,680.069 1985.96,695.581 1987.93,708.657 1989.91,718.876 1991.88,727.146 1993.86,735.17 1995.83,744.622 1997.81,756.359 1999.78,769.96 2001.76,783.801 2003.73,795.605 2005.71,803.285 2007.69,805.733 2009.66,803.276 2011.64,797.61 2013.61,791.236 2015.59,786.62 2017.56,785.377 2019.54,787.795 2021.51,792.856 2023.49,798.743 2025.46,803.623 2027.44,806.408 2029.41,807.189 2031.39,807.194 2033.36,808.267 2035.34,812.099 2037.32,819.485 2039.29,829.912 2041.27,841.627 2043.24,852.174 2045.22,859.192 2047.19,861.182 2049.17,857.955 2051.14,850.608 2053.12,841.03 2055.09,831.162 2057.07,822.259 2059.04,814.47 2061.02,806.873 2062.99,797.941 2064.97,786.269 2066.95,771.261 2068.92,753.518 2070.9,734.762 2072.87,717.341 2074.85,703.467 2076.82,694.506 2078.8,690.558 2080.77,690.492 2082.75,692.416 2084.72,694.399 2086.7,695.164 2088.67,694.503 2090.65,693.252 2092.62,692.854 2094.6,694.678 2096.58,699.377 2098.55,706.517 2100.53,714.639 2102.5,721.733 2104.48,725.936 2106.45,726.198 2108.43,722.665 2110.4,716.634 2112.38,710.097 2114.35,705.054 2116.33,702.841 2118.3,703.739 2120.28,706.988 2122.25,711.201 2124.23,715.002 2126.21,717.642 2128.18,719.351 2130.16,721.288 2132.13,725.103 2134.11,732.294 2136.08,743.587 2138.06,758.584 2140.03,775.822 2142.01,793.209 2143.98,808.682 2145.96,820.846 2147.93,829.345 2149.91,834.851 2151.88,838.67 2153.86,842.138 2155.84,846.027 2157.81,850.211 2159.79,853.7 2161.76,855.043 2163.74,852.926 2165.71,846.749 2167.69,836.946 2169.66,824.93 2171.64,812.67 2173.61,802.071 2175.59,794.375 2177.56,789.811 2179.54,787.609 2181.51,786.384 2183.49,784.712 2185.47,781.701 2187.44,777.318 2189.42,772.36 2191.39,768.097 2193.37,765.699 2195.34,765.71 2197.32,767.745 2199.29,770.546 2201.27,772.373 2203.24,771.594 2205.22,767.241 2207.19,759.332 2209.17,748.846 2211.14,737.355 2213.12,726.467 2215.1,717.275 2217.07,710.041 2219.05,704.211 2221.02,698.75 2223,692.671 2224.97,685.532 2226.95,677.725 2228.92,670.42 2230.9,665.2 2232.87,663.516 2234.85,666.169 2236.82,673.01 2238.8,682.976 2240.77,694.449 2242.75,705.791 2244.73,715.865 2246.7,724.346 2248.68,731.71 2250.65,738.917 2252.63,746.915 2254.6,756.163 2256.58,766.362 2258.55,776.496 2260.53,785.17 2262.5,791.115 2264.48,793.671 2266.45,793.057 2268.43,790.329 2270.4,787.04 2272.38,784.725 2274.35,784.407 2276.33,786.303 2278.31,789.835 2280.28,793.933 2282.26,797.511 2284.23,799.917 2286.21,801.205 2288.18,802.098 2290.16,803.685 2292.13,806.95 "/>
<polyline clip-path="url(#clip832)" style="stroke:#e26f46; stroke-linecap:round; stroke-linejoin:round; stroke-width:8; stroke-opacity:1; fill:none" stroke-dasharray="32, 16, 4, 16" points="271.369,810.515 273.344,557.037 275.32,318.282 277.295,159.348 279.27,118.824 281.246,195.048 283.221,347.506 285.196,512.693 287.172,628.295 289.147,656.438 291.122,597.192 293.098,487.327 295.073,384.942 297.048,346.017 299.024,401.925 300.999,546.53 302.974,737.782 304.95,913.142 306.925,1012.91 308.9,1002.55 310.875,885.576 312.851,702.119 314.826,513.851 316.801,381.074 318.777,340.697 320.752,393.426 322.727,504.9 324.703,620.17 326.678,685.832 328.653,671.283 330.629,580.941 332.604,452.817 334.579,344.048 336.555,308.982 338.53,378.203 340.505,546.493 342.481,774.269 344.456,1001.89 346.431,1171.34 348.407,1247.08 350.382,1228.13 352.357,1146.99 354.333,1056.01 356.308,1006.38 358.283,1028.06 360.259,1118.15 362.234,1242.15 364.209,1347.51 366.185,1384.24 368.16,1324.58 370.135,1174.3 372.111,971.319 374.086,772.095 376.061,631.201 378.037,581.647 380.012,623.487 381.987,724.88 383.963,835.069 385.938,904.224 387.913,902.51 389.889,831.145 391.864,721.308 393.839,621.425 395.815,577.821 397.79,616.18 399.765,730.936 401.741,886.623 403.716,1030.65 405.691,1112.58 407.667,1102.68 409.642,1002.54 411.617,844.028 413.593,676.958 415.568,550.252 417.543,493.861 419.519,508.239 421.494,565.304 423.469,620.366 425.445,630.353 427.42,571.278 429.395,448.256 431.371,294.249 433.346,158.062 435.321,86.1857 437.297,105.421 439.272,212.874 441.247,377.067 443.223,549.667 445.198,683.327 447.173,748.823 449.149,745.041 451.124,698.11 453.099,650.16 455.075,642.125 457.05,697.236 459.025,811.52 461.001,954.931 462.976,1082.61 464.951,1151.92 466.927,1138.79 468.902,1047.05 470.877,907.298 472.853,765.8 474.828,667.573 476.803,640.195 478.779,684.361 480.754,774.711 482.729,870.461 484.705,931.683 486.68,934.94 488.655,882.323 490.631,800.469 492.606,730.025 494.581,709.643 496.557,760.663 498.532,878.351 500.507,1033.01 502.483,1180.54 504.458,1278.35 506.433,1300.72 508.409,1247.59 510.384,1143.82 512.359,1029.06 514.335,942.351 516.31,907.242 518.285,923.229 520.261,966.575 522.236,1000.19 524.211,988.657 526.187,912.648 528.162,777.14 530.137,610.359 532.113,453.823 534.088,347.313 536.063,314.479 538.039,354.513 540.014,442.983 541.989,541.43 543.965,611.998 545.94,631.512 547.915,599.667 549.891,538.294 551.866,482.088 553.841,464.453 555.817,503.925 557.792,596.395 559.767,716.097 561.743,824.955 563.718,886.71 565.693,880.442 567.669,808.349 569.644,694.882 571.619,577.621 573.595,493.386 575.57,464.903 577.545,493.024 579.521,557.389 581.496,625.158 583.471,664.378 585.447,656.812 587.422,605.318 589.397,532.973 591.373,474.31 593.348,462.065 595.323,514.493 597.299,628.099 599.274,778.524 601.249,929.22 603.225,1044.6 605.2,1102.66 607.175,1102.33 609.151,1062.86 611.126,1015.54 613.101,991.095 615.077,1007.48 617.052,1062.9 619.027,1136.54 621.003,1196.79 622.978,1213.67 624.953,1170.73 626.929,1071.89 628.904,940.506 630.879,811.187 632.855,717.379 634.83,679.445 636.805,697.751 638.781,753.286 640.756,815.508 642.731,854.332 644.707,851.673 646.682,808.129 648.657,742.341 650.633,683.31 652.608,658.719 654.583,683.734 656.559,754.614 658.534,849.551 660.509,936.422 662.485,984.477 664.46,975.55 666.435,910.536 668.41,808.739 670.386,700.409 672.361,615.356 674.336,571.994 676.312,570.961 678.287,595.676 680.262,619.541 682.238,616.931 684.213,573.745 686.188,493.438 688.164,396.245 690.139,311.9 692.114,268.639 694.09,282.69 696.065,352.213 698.04,457.979 700.016,570.478 701.991,660.723 703.966,710.636 705.942,719.116 707.917,701.531 709.892,682.946 711.868,687.741 713.843,729.644 715.818,806.002 717.794,898.478 719.769,979.863 721.744,1024.39 723.72,1017.62 725.695,962.048 727.67,876.459 729.646,789.144 731.621,727.675 733.596,709.078 735.572,734.104 737.547,787.703 739.522,845.442 741.498,883.333 743.473,887.284 745.448,858.56 747.424,813.185 749.399,775.576 751.374,768.869 753.35,805.671 755.325,882.773 757.3,981.847 759.276,1075.84 761.251,1138.67 763.226,1154.45 765.202,1122.93 767.177,1058.96 769.152,986.476 771.128,929.085 773.103,901.15 775.078,902.556 777.054,919.217 779.029,929.028 781.004,910.949 782.98,853.69 784.955,760.674 786.93,649.368 788.906,545.244 790.881,472.667 792.856,446.172 794.832,465.418 796.807,515.688 798.782,573.687 800.758,616.405 802.733,629.634 804.708,612.938 806.684,579.225 808.659,549.157 810.634,542.607 812.61,570.468 814.585,629.964 816.56,705.269 818.536,773.172 820.511,811.635 822.486,807.976 824.462,763.577 826.437,693.36 828.412,620.25 830.388,566.77 832.363,546.954 834.338,561.624 836.314,598.773 838.289,638.821 840.264,662.692 842.24,659.55 844.215,631.256 846.19,591.823 848.166,562.115 850.141,561.826 852.116,601.815 854.092,679.714 856.067,780.48 858.042,881.659 860.018,961.355 861.993,1005.89 863.968,1014.25 865.944,997.79 867.919,975.164 869.894,964.76 871.87,977.326 873.845,1011.74 875.82,1055.45 877.796,1089.46 879.771,1095.83 881.746,1064.87 883.722,999.227 885.697,913.368 887.672,828.556 889.648,765.34 891.623,736.329 893.598,741.989 895.574,771.007 897.549,805.027 899.524,825.9 901.5,822.657 903.475,795.569 905.45,755.751 907.426,720.541 909.401,706.438 911.376,722.353 913.352,765.755 915.327,823.198 917.302,875.028 919.278,902.471 921.253,894.421 923.228,851.367 925.204,785.01 927.179,713.742 929.154,655.756 931.13,622.41 933.105,614.358 935.08,621.873 937.056,629.182 939.031,621.103 941.006,589.405 942.982,536.444 944.957,474.675 946.932,422.239 948.908,396.301 950.883,406.687 952.858,452.216 954.834,521.12 956.809,595.344 958.784,657.099 960.76,695.155 962.735,708.53 964.71,706.196 966.686,703.007 968.661,713.425 970.636,745.514 972.612,797.484 974.587,858.116 976.562,910.895 978.538,940.251 980.513,937.518 982.488,904.354 984.464,852.304 986.439,798.703 988.414,760.473 990.39,748.163 992.365,762.461 994.34,794.474 996.316,829.591 998.291,853.422 1000.27,857.5 1002.24,842.589 1004.22,818.314 1006.19,799.32 1008.17,799.424 1010.14,826.028 1012.12,876.941 1014.09,940.809 1016.07,1001.01 1018.04,1041.5 1020.02,1052.46 1021.99,1033.56 1023.97,993.694 1025.95,947.255 1027.92,908.553 1029.9,886.355 1031.87,880.736 1033.85,883.378 1035.82,881.157 1037.8,861.627 1039.77,818.26 1041.75,753.432 1043.72,678.001 1045.7,607.639 1047.67,557.308 1049.65,535.975 1051.62,543.544 1053.6,571.163 1055.58,604.722 1057.55,630.224 1059.53,638.94 1061.5,630.425 1063.48,612.273 1065.45,596.748 1067.43,595.629 1069.4,615.272 1071.38,653.788 1073.35,701.428 1075.33,744.021 1077.3,768.161 1079.28,766.155 1081.25,738.878 1083.23,695.447 1085.21,649.87 1087.18,615.952 1089.16,602.39 1091.13,609.901 1093.11,631.443 1095.08,655.379 1097.06,670.349 1099.03,669.938 1101.01,655.364 1102.98,635.138 1104.96,621.857 1106.93,627.353 1108.91,658.054 1110.88,712.339 1112.86,780.88 1114.84,849.834 1116.81,905.685 1118.79,939.882 1120.76,951.562 1122.74,947.346 1124.71,938.333 1126.69,935.501 1128.66,945.26 1130.64,966.901 1132.61,992.867 1134.59,1011.76 1136.56,1012.85 1138.54,990.483 1140.51,946.466 1142.49,889.783 1144.47,833.542 1146.44,790.408 1148.42,768.221 1150.39,767.443 1152.37,781.372 1154.34,798.993 1156.32,809.366 1158.29,805.841 1160.27,788.514 1162.24,763.999 1164.22,742.635 1166.19,734.23 1168.17,743.982 1170.14,770.17 1172.12,804.48 1174.1,834.865 1176.07,849.845 1178.05,842.619 1180.02,813.452 1182,769.441 1183.97,721.783 1185.95,681.603 1187.92,655.937 1189.9,645.378 1191.87,644.265 1193.85,643.29 1195.82,633.505 1197.8,610.149 1199.77,574.844 1201.75,535.281 1203.73,502.546 1205.7,487.084 1207.68,494.845 1209.65,525.065 1211.63,570.522 1213.6,620.147 1215.58,662.989 1217.55,692.038 1219.53,706.465 1221.5,711.461 1223.48,715.779 1225.45,727.958 1227.43,752.695 1229.4,788.767 1231.38,829.295 1233.36,864.242 1235.33,884.194 1237.31,883.965 1239.28,864.652 1241.26,833.371 1243.23,800.767 1245.21,777.252 1247.18,769.382 1249.16,777.744 1251.13,797.109 1253.11,818.759 1255.08,834.074 1257.06,837.974 1259.03,830.916 1261.01,818.673 1262.99,810.012 1264.96,813.158 1266.94,832.427 1268.91,866.31 1270.89,907.744 1272.86,946.478 1274.84,972.632 1276.81,980.109 1278.79,968.584 1280.76,943.347 1282.74,913.078 1284.71,886.443 1286.69,868.806 1288.66,860.323 1290.64,856.113 1292.62,848.423 1294.59,829.932 1296.57,796.916 1298.54,751.038 1300.52,699.083 1302.49,650.73 1304.47,615.195 1306.44,598.033 1308.42,599.271 1310.39,613.593 1312.37,632.455 1314.34,647.335 1316.32,652.858 1318.29,648.625 1320.27,639.075 1322.25,631.456 1324.22,632.718 1326.2,646.538 1328.17,671.62 1330.15,701.94 1332.12,728.83 1334.1,744.124 1336.07,743.154 1338.05,726.475 1340.02,699.669 1342,671.31 1343.97,649.878 1345.95,640.783 1347.92,644.617 1349.9,657.28 1351.88,671.88 1353.85,681.674 1355.83,682.879 1357.8,676.296 1359.78,667.096 1361.75,662.878 1363.73,670.735 1365.7,694.449 1367.68,732.9 1369.65,780.272 1371.63,828.001 1373.6,867.707 1375.58,894.017 1377.55,906.214 1379.53,908.13 1381.51,906.336 1383.48,907.364 1385.46,915.025 1387.43,928.868 1389.41,944.342 1391.38,954.614 1393.36,953.305 1395.33,937.116 1397.31,907.307 1399.28,869.483 1401.26,831.751 1403.23,801.945 1405.21,784.963 1407.18,781.22 1409.16,786.764 1411.14,795.002 1413.11,799.346 1415.09,795.763 1417.06,784.268 1419.04,768.784 1421.01,755.459 1422.99,750.102 1424.96,755.722 1426.94,771.143 1428.91,791.207 1430.89,808.514 1432.86,816.032 1434.84,809.593 1436.81,789.335 1438.79,759.569 1440.77,727.124 1442.74,698.819 1444.72,679.033 1446.69,668.273 1448.67,663.277 1450.64,658.589 1452.62,648.968 1454.59,631.696 1456.57,607.895 1458.54,582.336 1460.52,561.807 1462.49,552.67 1464.47,558.528 1466.44,578.882 1468.42,609.288 1470.4,642.938 1472.37,673.069 1474.35,695.281 1476.32,708.897 1478.3,716.883 1480.27,724.36 1482.25,736.339 1484.22,755.525 1486.2,781.075 1488.17,808.753 1490.15,832.454 1492.12,846.482 1494.1,847.735 1496.07,836.945 1498.05,818.51 1500.03,798.982 1502,784.782 1503.98,780.004 1505.95,785.124 1507.93,797.085 1509.9,810.701 1511.88,820.816 1513.85,824.387 1515.83,821.685 1517.8,816.166 1519.78,813.063 1521.75,817.254 1523.73,831.233 1525.7,853.952 1527.68,880.997 1529.66,906.027 1531.63,922.934 1533.61,927.917 1535.58,920.69 1537.56,904.395 1539.53,884.256 1541.51,865.529 1543.48,851.507 1545.46,842.365 1547.43,835.265 1549.41,825.654 1551.38,809.261 1553.36,783.998 1555.33,751.041 1557.31,714.655 1559.28,680.842 1561.26,655.303 1563.24,641.495 1565.21,639.501 1567.19,646.135 1569.16,656.226 1571.14,664.58 1573.11,667.88 1575.09,665.791 1577.06,660.887 1579.04,657.429 1581.01,659.496 1582.99,669.189 1584.96,685.613 1586.94,705.031 1588.91,722.132 1590.89,731.933 1592.87,731.6 1594.84,721.487 1596.82,705.018 1598.79,687.451 1600.77,674.009 1602.74,668.071 1604.72,670.11 1606.69,677.758 1608.67,686.954 1610.64,693.707 1612.62,695.802 1614.59,693.763 1616.57,690.733 1618.54,691.291 1620.52,699.677 1622.5,718.1 1624.47,745.774 1626.45,779.054 1628.42,812.617 1630.4,841.243 1632.37,861.531 1634.35,872.903 1636.32,877.55 1638.3,879.339 1640.27,882.14 1642.25,888.209 1644.22,897.254 1646.2,906.537 1648.17,911.971 1650.15,909.773 1652.13,898.042 1654.1,877.658 1656.08,852.138 1658.05,826.516 1660.03,805.657 1662,792.64 1663.98,787.817 1665.95,788.873 1667.93,791.871 1669.9,792.852 1671.88,789.371 1673.85,781.407 1675.83,771.279 1677.8,762.631 1679.78,758.889 1681.76,761.78 1683.73,770.492 1685.71,781.816 1687.68,791.198 1689.66,794.321 1691.63,788.628 1693.61,774.188 1695.58,753.626 1697.56,731.113 1699.53,710.845 1701.51,695.561 1703.48,685.677 1705.46,679.341 1707.43,673.382 1709.41,664.754 1711.39,651.934 1713.36,635.706 1715.34,619.04 1717.31,606.102 1719.29,600.773 1721.26,605.236 1723.24,619.159 1725.21,639.8 1727.19,662.956 1729.16,684.436 1731.14,701.456 1733.11,713.48 1735.09,722.17 1737.06,730.498 1739.04,741.376 1741.02,756.343 1742.99,774.806 1744.97,794.15 1746.94,810.65 1748.92,820.86 1750.89,822.927 1752.87,817.339 1754.84,806.823 1756.82,795.421 1758.79,787.106 1760.77,784.445 1762.74,787.811 1764.72,795.431 1766.69,804.231 1768.67,811.133 1770.65,814.315 1772.62,813.937 1774.6,812.062 1776.57,811.802 1778.55,816.04 1780.52,826.195 1782.5,841.536 1784.47,859.291 1786.45,875.52 1788.42,886.436 1790.4,889.656 1792.37,884.944 1794.35,874.158 1796.32,860.445 1798.3,846.991 1800.28,835.828 1802.25,827.123 1804.23,819.244 1806.2,809.541 1808.18,795.546 1810.15,776.121 1812.13,752.102 1814.1,726.19 1816.08,702.127 1818.05,683.455 1820.03,672.338 1822,668.877 1823.98,671.17 1825.95,676.088 1827.93,680.464 1829.91,682.244 1831.88,681.16 1833.86,678.689 1835.83,677.32 1837.81,679.428 1839.78,686.197 1841.76,697.004 1843.73,709.521 1845.71,720.486 1847.68,726.854 1849.66,726.901 1851.63,720.854 1853.61,710.818 1855.58,700.026 1857.56,691.704 1859.54,687.971 1861.51,689.196 1863.49,694.028 1865.46,700.084 1867.44,705.016 1869.41,707.531 1871.39,707.976 1873.36,708.259 1875.34,711.135 1877.31,719.13 1879.29,733.517 1881.26,753.743 1883.24,777.507 1885.21,801.481 1887.19,822.396 1889.17,838.082 1891.14,848.083 1893.12,853.628 1895.09,856.976 1897.07,860.409 1899.04,865.253 1901.02,871.316 1902.99,876.952 1904.97,879.723 1906.94,877.393 1908.92,868.884 1910.89,854.813 1912.87,837.4 1914.84,819.785 1916.82,805.005 1918.8,795.008 1920.77,790.081 1922.75,788.881 1924.72,789.066 1926.7,788.261 1928.67,784.985 1930.65,779.206 1932.62,772.288 1934.6,766.384 1936.57,763.505 1938.55,764.628 1940.52,769.193 1942.5,775.195 1944.47,779.823 1946.45,780.427 1948.43,775.43 1950.4,764.871 1952.38,750.349 1954.35,734.42 1956.33,719.675 1958.3,707.839 1960.28,699.245 1962.25,692.863 1964.23,686.868 1966.2,679.513 1968.18,669.964 1970.15,658.772 1972.13,647.795 1974.1,639.599 1976.08,636.555 1978.06,639.982 1980.03,649.662 1982.01,663.892 1983.98,680.069 1985.96,695.581 1987.93,708.657 1989.91,718.876 1991.88,727.146 1993.86,735.17 1995.83,744.622 1997.81,756.359 1999.78,769.96 2001.76,783.801 2003.73,795.605 2005.71,803.285 2007.69,805.733 2009.66,803.276 2011.64,797.61 2013.61,791.236 2015.59,786.62 2017.56,785.377 2019.54,787.795 2021.51,792.856 2023.49,798.743 2025.46,803.623 2027.44,806.408 2029.41,807.189 2031.39,807.194 2033.36,808.267 2035.34,812.099 2037.32,819.485 2039.29,829.912 2041.27,841.627 2043.24,852.174 2045.22,859.192 2047.19,861.182 2049.17,857.955 2051.14,850.608 2053.12,841.03 2055.09,831.162 2057.07,822.259 2059.04,814.47 2061.02,806.873 2062.99,797.941 2064.97,786.269 2066.95,771.261 2068.92,753.518 2070.9,734.762 2072.87,717.341 2074.85,703.467 2076.82,694.506 2078.8,690.558 2080.77,690.492 2082.75,692.416 2084.72,694.399 2086.7,695.164 2088.67,694.503 2090.65,693.252 2092.62,692.854 2094.6,694.678 2096.58,699.377 2098.55,706.517 2100.53,714.639 2102.5,721.733 2104.48,725.936 2106.45,726.198 2108.43,722.665 2110.4,716.634 2112.38,710.097 2114.35,705.054 2116.33,702.841 2118.3,703.739 2120.28,706.988 2122.25,711.201 2124.23,715.002 2126.21,717.642 2128.18,719.351 2130.16,721.288 2132.13,725.103 2134.11,732.294 2136.08,743.587 2138.06,758.584 2140.03,775.822 2142.01,793.209 2143.98,808.682 2145.96,820.846 2147.93,829.345 2149.91,834.851 2151.88,838.67 2153.86,842.138 2155.84,846.027 2157.81,850.211 2159.79,853.7 2161.76,855.043 2163.74,852.926 2165.71,846.749 2167.69,836.946 2169.66,824.93 2171.64,812.67 2173.61,802.071 2175.59,794.375 2177.56,789.811 2179.54,787.609 2181.51,786.384 2183.49,784.712 2185.47,781.701 2187.44,777.318 2189.42,772.36 2191.39,768.097 2193.37,765.699 2195.34,765.71 2197.32,767.745 2199.29,770.546 2201.27,772.373 2203.24,771.594 2205.22,767.241 2207.19,759.332 2209.17,748.846 2211.14,737.355 2213.12,726.467 2215.1,717.275 2217.07,710.041 2219.05,704.211 2221.02,698.75 2223,692.671 2224.97,685.532 2226.95,677.725 2228.92,670.42 2230.9,665.2 2232.87,663.516 2234.85,666.169 2236.82,673.01 2238.8,682.976 2240.77,694.449 2242.75,705.791 2244.73,715.865 2246.7,724.346 2248.68,731.71 2250.65,738.917 2252.63,746.915 2254.6,756.163 2256.58,766.362 2258.55,776.496 2260.53,785.17 2262.5,791.115 2264.48,793.671 2266.45,793.057 2268.43,790.329 2270.4,787.04 2272.38,784.725 2274.35,784.407 2276.33,786.303 2278.31,789.835 2280.28,793.933 2282.26,797.511 2284.23,799.917 2286.21,801.205 2288.18,802.098 2290.16,803.685 2292.13,806.95 "/>
<polyline clip-path="url(#clip832)" style="stroke:#3da44d; stroke-linecap:round; stroke-linejoin:round; stroke-width:8; stroke-opacity:1; fill:none" points="271.369,810.515 273.344,557.037 275.32,318.282 277.295,159.348 279.27,118.824 281.246,195.048 283.221,347.506 285.196,512.693 287.172,628.295 289.147,656.438 291.122,597.192 293.098,487.327 295.073,384.942 297.048,346.017 299.024,401.925 300.999,546.53 302.974,737.782 304.95,913.142 306.925,1012.91 308.9,1002.55 310.875,885.576 312.851,702.119 314.826,513.851 316.801,381.074 318.777,340.697 320.752,393.426 322.727,504.9 324.703,620.17 326.678,685.832 328.653,671.283 330.629,580.941 332.604,452.817 334.579,344.048 336.555,308.982 338.53,378.203 340.505,546.493 342.481,774.269 344.456,1001.89 346.431,1171.34 348.407,1247.08 350.382,1228.13 352.357,1146.99 354.333,1056.01 356.308,1006.38 358.283,1028.06 360.259,1118.15 362.234,1242.15 364.209,1347.51 366.185,1384.24 368.16,1324.58 370.135,1174.3 372.111,971.319 374.086,772.095 376.061,631.201 378.037,581.647 380.012,623.487 381.987,724.88 383.963,835.069 385.938,904.224 387.913,902.51 389.889,831.145 391.864,721.308 393.839,621.425 395.815,577.821 397.79,616.18 399.765,730.936 401.741,886.623 403.716,1030.65 405.691,1112.58 407.667,1102.68 409.642,1002.54 411.617,844.028 413.593,676.958 415.568,550.252 417.543,493.861 419.519,508.239 421.494,565.304 423.469,620.366 425.445,630.353 427.42,571.278 429.395,448.256 431.371,294.249 433.346,158.062 435.321,86.1857 437.297,105.421 439.272,212.874 441.247,377.067 443.223,549.667 445.198,683.327 447.173,748.823 449.149,745.041 451.124,698.11 453.099,650.16 455.075,642.125 457.05,697.236 459.025,811.52 461.001,954.931 462.976,1082.61 464.951,1151.92 466.927,1138.79 468.902,1047.05 470.877,907.298 472.853,765.8 474.828,667.573 476.803,640.195 478.779,684.361 480.754,774.711 482.729,870.461 484.705,931.683 486.68,934.94 488.655,882.323 490.631,800.469 492.606,730.025 494.581,709.643 496.557,760.663 498.532,878.351 500.507,1033.01 502.483,1180.54 504.458,1278.35 506.433,1300.72 508.409,1247.59 510.384,1143.82 512.359,1029.06 514.335,942.351 516.31,907.242 518.285,923.229 520.261,966.575 522.236,1000.19 524.211,988.657 526.187,912.648 528.162,777.14 530.137,610.359 532.113,453.823 534.088,347.313 536.063,314.479 538.039,354.513 540.014,442.983 541.989,541.43 543.965,611.998 545.94,631.512 547.915,599.667 549.891,538.294 551.866,482.088 553.841,464.453 555.817,503.925 557.792,596.395 559.767,716.097 561.743,824.955 563.718,886.71 565.693,880.442 567.669,808.349 569.644,694.882 571.619,577.621 573.595,493.386 575.57,464.903 577.545,493.024 579.521,557.389 581.496,625.158 583.471,664.378 585.447,656.812 587.422,605.318 589.397,532.973 591.373,474.31 593.348,462.065 595.323,514.493 597.299,628.099 599.274,778.524 601.249,929.22 603.225,1044.6 605.2,1102.66 607.175,1102.33 609.151,1062.86 611.126,1015.54 613.101,991.095 615.077,1007.48 617.052,1062.9 619.027,1136.54 621.003,1196.79 622.978,1213.67 624.953,1170.73 626.929,1071.89 628.904,940.506 630.879,811.187 632.855,717.379 634.83,679.445 636.805,697.751 638.781,753.286 640.756,815.508 642.731,854.332 644.707,851.673 646.682,808.129 648.657,742.341 650.633,683.31 652.608,658.719 654.583,683.734 656.559,754.614 658.534,849.551 660.509,936.422 662.485,984.477 664.46,975.55 666.435,910.536 668.41,808.739 670.386,700.409 672.361,615.356 674.336,571.994 676.312,570.961 678.287,595.676 680.262,619.541 682.238,616.931 684.213,573.745 686.188,493.438 688.164,396.245 690.139,311.9 692.114,268.639 694.09,282.69 696.065,352.213 698.04,457.979 700.016,570.478 701.991,660.723 703.966,710.636 705.942,719.116 707.917,701.531 709.892,682.946 711.868,687.741 713.843,729.644 715.818,806.002 717.794,898.478 719.769,979.863 721.744,1024.39 723.72,1017.62 725.695,962.048 727.67,876.459 729.646,789.144 731.621,727.675 733.596,709.078 735.572,734.104 737.547,787.703 739.522,845.442 741.498,883.333 743.473,887.284 745.448,858.56 747.424,813.185 749.399,775.576 751.374,768.869 753.35,805.671 755.325,882.773 757.3,981.847 759.276,1075.84 761.251,1138.67 763.226,1154.45 765.202,1122.93 767.177,1058.96 769.152,986.476 771.128,929.085 773.103,901.15 775.078,902.556 777.054,919.217 779.029,929.028 781.004,910.949 782.98,853.69 784.955,760.674 786.93,649.368 788.906,545.244 790.881,472.667 792.856,446.172 794.832,465.418 796.807,515.688 798.782,573.687 800.758,616.405 802.733,629.634 804.708,612.938 806.684,579.225 808.659,549.157 810.634,542.607 812.61,570.468 814.585,629.964 816.56,705.269 818.536,773.172 820.511,811.635 822.486,807.976 824.462,763.577 826.437,693.36 828.412,620.25 830.388,566.77 832.363,546.954 834.338,561.624 836.314,598.773 838.289,638.821 840.264,662.692 842.24,659.55 844.215,631.256 846.19,591.823 848.166,562.115 850.141,561.826 852.116,601.815 854.092,679.714 856.067,780.48 858.042,881.659 860.018,961.355 861.993,1005.89 863.968,1014.25 865.944,997.79 867.919,975.164 869.894,964.76 871.87,977.326 873.845,1011.74 875.82,1055.45 877.796,1089.46 879.771,1095.83 881.746,1064.87 883.722,999.227 885.697,913.368 887.672,828.556 889.648,765.34 891.623,736.329 893.598,741.989 895.574,771.007 897.549,805.027 899.524,825.9 901.5,822.657 903.475,795.569 905.45,755.751 907.426,720.541 909.401,706.438 911.376,722.353 913.352,765.755 915.327,823.198 917.302,875.028 919.278,902.471 921.253,894.421 923.228,851.367 925.204,785.01 927.179,713.742 929.154,655.756 931.13,622.41 933.105,614.358 935.08,621.873 937.056,629.182 939.031,621.103 941.006,589.405 942.982,536.444 944.957,474.675 946.932,422.239 948.908,396.301 950.883,406.687 952.858,452.216 954.834,521.12 956.809,595.344 958.784,657.099 960.76,695.155 962.735,708.53 964.71,706.196 966.686,703.007 968.661,713.425 970.636,745.514 972.612,797.484 974.587,858.116 976.562,910.895 978.538,940.251 980.513,937.518 982.488,904.354 984.464,852.304 986.439,798.703 988.414,760.473 990.39,748.163 992.365,762.461 994.34,794.474 996.316,829.591 998.291,853.422 1000.27,857.5 1002.24,842.589 1004.22,818.314 1006.19,799.32 1008.17,799.424 1010.14,826.028 1012.12,876.941 1014.09,940.809 1016.07,1001.01 1018.04,1041.5 1020.02,1052.46 1021.99,1033.56 1023.97,993.694 1025.95,947.255 1027.92,908.553 1029.9,886.355 1031.87,880.736 1033.85,883.378 1035.82,881.157 1037.8,861.627 1039.77,818.26 1041.75,753.432 1043.72,678.001 1045.7,607.639 1047.67,557.308 1049.65,535.975 1051.62,543.544 1053.6,571.163 1055.58,604.722 1057.55,630.224 1059.53,638.94 1061.5,630.425 1063.48,612.273 1065.45,596.748 1067.43,595.629 1069.4,615.272 1071.38,653.788 1073.35,701.428 1075.33,744.021 1077.3,768.161 1079.28,766.155 1081.25,738.878 1083.23,695.447 1085.21,649.87 1087.18,615.952 1089.16,602.39 1091.13,609.901 1093.11,631.443 1095.08,655.379 1097.06,670.349 1099.03,669.938 1101.01,655.364 1102.98,635.138 1104.96,621.857 1106.93,627.353 1108.91,658.054 1110.88,712.339 1112.86,780.88 1114.84,849.834 1116.81,905.685 1118.79,939.882 1120.76,951.562 1122.74,947.346 1124.71,938.333 1126.69,935.501 1128.66,945.26 1130.64,966.901 1132.61,992.867 1134.59,1011.76 1136.56,1012.85 1138.54,990.483 1140.51,946.466 1142.49,889.783 1144.47,833.542 1146.44,790.408 1148.42,768.221 1150.39,767.443 1152.37,781.372 1154.34,798.993 1156.32,809.366 1158.29,805.841 1160.27,788.514 1162.24,763.999 1164.22,742.635 1166.19,734.23 1168.17,743.982 1170.14,770.17 1172.12,804.48 1174.1,834.865 1176.07,849.845 1178.05,842.619 1180.02,813.452 1182,769.441 1183.97,721.783 1185.95,681.603 1187.92,655.937 1189.9,645.378 1191.87,644.265 1193.85,643.29 1195.82,633.505 1197.8,610.149 1199.77,574.844 1201.75,535.281 1203.73,502.546 1205.7,487.084 1207.68,494.845 1209.65,525.065 1211.63,570.522 1213.6,620.147 1215.58,662.989 1217.55,692.038 1219.53,706.465 1221.5,711.461 1223.48,715.779 1225.45,727.958 1227.43,752.695 1229.4,788.767 1231.38,829.295 1233.36,864.242 1235.33,884.194 1237.31,883.965 1239.28,864.652 1241.26,833.371 1243.23,800.767 1245.21,777.252 1247.18,769.382 1249.16,777.744 1251.13,797.109 1253.11,818.759 1255.08,834.074 1257.06,837.974 1259.03,830.916 1261.01,818.673 1262.99,810.012 1264.96,813.158 1266.94,832.427 1268.91,866.31 1270.89,907.744 1272.86,946.478 1274.84,972.632 1276.81,980.109 1278.79,968.584 1280.76,943.347 1282.74,913.078 1284.71,886.443 1286.69,868.806 1288.66,860.323 1290.64,856.113 1292.62,848.423 1294.59,829.932 1296.57,796.916 1298.54,751.038 1300.52,699.083 1302.49,650.73 1304.47,615.195 1306.44,598.033 1308.42,599.271 1310.39,613.593 1312.37,632.455 1314.34,647.335 1316.32,652.858 1318.29,648.625 1320.27,639.075 1322.25,631.456 1324.22,632.718 1326.2,646.538 1328.17,671.62 1330.15,701.94 1332.12,728.83 1334.1,744.124 1336.07,743.154 1338.05,726.475 1340.02,699.669 1342,671.31 1343.97,649.878 1345.95,640.783 1347.92,644.617 1349.9,657.28 1351.88,671.88 1353.85,681.674 1355.83,682.879 1357.8,676.296 1359.78,667.096 1361.75,662.878 1363.73,670.735 1365.7,694.449 1367.68,732.9 1369.65,780.272 1371.63,828.001 1373.6,867.707 1375.58,894.017 1377.55,906.214 1379.53,908.13 1381.51,906.336 1383.48,907.364 1385.46,915.025 1387.43,928.868 1389.41,944.342 1391.38,954.614 1393.36,953.305 1395.33,937.116 1397.31,907.307 1399.28,869.483 1401.26,831.751 1403.23,801.945 1405.21,784.963 1407.18,781.22 1409.16,786.764 1411.14,795.002 1413.11,799.346 1415.09,795.763 1417.06,784.268 1419.04,768.784 1421.01,755.459 1422.99,750.102 1424.96,755.722 1426.94,771.143 1428.91,791.207 1430.89,808.514 1432.86,816.032 1434.84,809.593 1436.81,789.335 1438.79,759.569 1440.77,727.124 1442.74,698.819 1444.72,679.033 1446.69,668.273 1448.67,663.277 1450.64,658.589 1452.62,648.968 1454.59,631.696 1456.57,607.895 1458.54,582.336 1460.52,561.807 1462.49,552.67 1464.47,558.528 1466.44,578.882 1468.42,609.288 1470.4,642.938 1472.37,673.069 1474.35,695.281 1476.32,708.897 1478.3,716.883 1480.27,724.36 1482.25,736.339 1484.22,755.525 1486.2,781.075 1488.17,808.753 1490.15,832.454 1492.12,846.482 1494.1,847.735 1496.07,836.945 1498.05,818.51 1500.03,798.982 1502,784.782 1503.98,780.004 1505.95,785.124 1507.93,797.085 1509.9,810.701 1511.88,820.816 1513.85,824.387 1515.83,821.685 1517.8,816.166 1519.78,813.063 1521.75,817.254 1523.73,831.233 1525.7,853.952 1527.68,880.997 1529.66,906.027 1531.63,922.934 1533.61,927.917 1535.58,920.69 1537.56,904.395 1539.53,884.256 1541.51,865.529 1543.48,851.507 1545.46,842.365 1547.43,835.265 1549.41,825.654 1551.38,809.261 1553.36,783.998 1555.33,751.041 1557.31,714.655 1559.28,680.842 1561.26,655.303 1563.24,641.495 1565.21,639.501 1567.19,646.135 1569.16,656.226 1571.14,664.58 1573.11,667.88 1575.09,665.791 1577.06,660.887 1579.04,657.429 1581.01,659.496 1582.99,669.189 1584.96,685.613 1586.94,705.031 1588.91,722.132 1590.89,731.933 1592.87,731.6 1594.84,721.487 1596.82,705.018 1598.79,687.451 1600.77,674.009 1602.74,668.071 1604.72,670.11 1606.69,677.758 1608.67,686.954 1610.64,693.707 1612.62,695.802 1614.59,693.763 1616.57,690.733 1618.54,691.291 1620.52,699.677 1622.5,718.1 1624.47,745.774 1626.45,779.054 1628.42,812.617 1630.4,841.243 1632.37,861.531 1634.35,872.903 1636.32,877.55 1638.3,879.339 1640.27,882.14 1642.25,888.209 1644.22,897.254 1646.2,906.537 1648.17,911.971 1650.15,909.773 1652.13,898.042 1654.1,877.658 1656.08,852.138 1658.05,826.516 1660.03,805.657 1662,792.64 1663.98,787.817 1665.95,788.873 1667.93,791.871 1669.9,792.852 1671.88,789.371 1673.85,781.407 1675.83,771.279 1677.8,762.631 1679.78,758.889 1681.76,761.78 1683.73,770.492 1685.71,781.816 1687.68,791.198 1689.66,794.321 1691.63,788.628 1693.61,774.188 1695.58,753.626 1697.56,731.113 1699.53,710.845 1701.51,695.561 1703.48,685.677 1705.46,679.341 1707.43,673.382 1709.41,664.754 1711.39,651.934 1713.36,635.706 1715.34,619.04 1717.31,606.102 1719.29,600.773 1721.26,605.236 1723.24,619.159 1725.21,639.8 1727.19,662.956 1729.16,684.436 1731.14,701.456 1733.11,713.48 1735.09,722.17 1737.06,730.498 1739.04,741.376 1741.02,756.343 1742.99,774.806 1744.97,794.15 1746.94,810.65 1748.92,820.86 1750.89,822.927 1752.87,817.339 1754.84,806.823 1756.82,795.421 1758.79,787.106 1760.77,784.445 1762.74,787.811 1764.72,795.431 1766.69,804.231 1768.67,811.133 1770.65,814.315 1772.62,813.937 1774.6,812.062 1776.57,811.802 1778.55,816.04 1780.52,826.195 1782.5,841.536 1784.47,859.291 1786.45,875.52 1788.42,886.436 1790.4,889.656 1792.37,884.944 1794.35,874.158 1796.32,860.445 1798.3,846.991 1800.28,835.828 1802.25,827.123 1804.23,819.244 1806.2,809.541 1808.18,795.546 1810.15,776.121 1812.13,752.102 1814.1,726.19 1816.08,702.127 1818.05,683.455 1820.03,672.338 1822,668.877 1823.98,671.17 1825.95,676.088 1827.93,680.464 1829.91,682.244 1831.88,681.16 1833.86,678.689 1835.83,677.32 1837.81,679.428 1839.78,686.197 1841.76,697.004 1843.73,709.521 1845.71,720.486 1847.68,726.854 1849.66,726.901 1851.63,720.854 1853.61,710.818 1855.58,700.026 1857.56,691.704 1859.54,687.971 1861.51,689.196 1863.49,694.028 1865.46,700.084 1867.44,705.016 1869.41,707.531 1871.39,707.976 1873.36,708.259 1875.34,711.135 1877.31,719.13 1879.29,733.517 1881.26,753.743 1883.24,777.507 1885.21,801.481 1887.19,822.396 1889.17,838.082 1891.14,848.083 1893.12,853.628 1895.09,856.976 1897.07,860.409 1899.04,865.253 1901.02,871.316 1902.99,876.952 1904.97,879.723 1906.94,877.393 1908.92,868.884 1910.89,854.813 1912.87,837.4 1914.84,819.785 1916.82,805.005 1918.8,795.008 1920.77,790.081 1922.75,788.881 1924.72,789.066 1926.7,788.261 1928.67,784.985 1930.65,779.206 1932.62,772.288 1934.6,766.384 1936.57,763.505 1938.55,764.628 1940.52,769.193 1942.5,775.195 1944.47,779.823 1946.45,780.427 1948.43,775.43 1950.4,764.871 1952.38,750.349 1954.35,734.42 1956.33,719.675 1958.3,707.839 1960.28,699.245 1962.25,692.863 1964.23,686.868 1966.2,679.513 1968.18,669.964 1970.15,658.772 1972.13,647.795 1974.1,639.599 1976.08,636.555 1978.06,639.982 1980.03,649.662 1982.01,663.892 1983.98,680.069 1985.96,695.581 1987.93,708.657 1989.91,718.876 1991.88,727.146 1993.86,735.17 1995.83,744.622 1997.81,756.359 1999.78,769.96 2001.76,783.801 2003.73,795.605 2005.71,803.285 2007.69,805.733 2009.66,803.276 2011.64,797.61 2013.61,791.236 2015.59,786.62 2017.56,785.377 2019.54,787.795 2021.51,792.856 2023.49,798.743 2025.46,803.623 2027.44,806.408 2029.41,807.189 2031.39,807.194 2033.36,808.267 2035.34,812.099 2037.32,819.485 2039.29,829.912 2041.27,841.627 2043.24,852.174 2045.22,859.192 2047.19,861.182 2049.17,857.955 2051.14,850.608 2053.12,841.03 2055.09,831.162 2057.07,822.259 2059.04,814.47 2061.02,806.873 2062.99,797.941 2064.97,786.269 2066.95,771.261 2068.92,753.518 2070.9,734.762 2072.87,717.341 2074.85,703.467 2076.82,694.506 2078.8,690.558 2080.77,690.492 2082.75,692.416 2084.72,694.399 2086.7,695.164 2088.67,694.503 2090.65,693.252 2092.62,692.854 2094.6,694.678 2096.58,699.377 2098.55,706.517 2100.53,714.639 2102.5,721.733 2104.48,725.936 2106.45,726.198 2108.43,722.665 2110.4,716.634 2112.38,710.097 2114.35,705.054 2116.33,702.841 2118.3,703.739 2120.28,706.988 2122.25,711.201 2124.23,715.002 2126.21,717.642 2128.18,719.351 2130.16,721.288 2132.13,725.103 2134.11,732.294 2136.08,743.587 2138.06,758.584 2140.03,775.822 2142.01,793.209 2143.98,808.682 2145.96,820.846 2147.93,829.345 2149.91,834.851 2151.88,838.67 2153.86,842.138 2155.84,846.027 2157.81,850.211 2159.79,853.7 2161.76,855.043 2163.74,852.926 2165.71,846.749 2167.69,836.946 2169.66,824.93 2171.64,812.67 2173.61,802.071 2175.59,794.375 2177.56,789.811 2179.54,787.609 2181.51,786.384 2183.49,784.712 2185.47,781.701 2187.44,777.318 2189.42,772.36 2191.39,768.097 2193.37,765.699 2195.34,765.71 2197.32,767.745 2199.29,770.546 2201.27,772.373 2203.24,771.594 2205.22,767.241 2207.19,759.332 2209.17,748.846 2211.14,737.355 2213.12,726.467 2215.1,717.275 2217.07,710.041 2219.05,704.211 2221.02,698.75 2223,692.671 2224.97,685.532 2226.95,677.725 2228.92,670.42 2230.9,665.2 2232.87,663.516 2234.85,666.169 2236.82,673.01 2238.8,682.976 2240.77,694.449 2242.75,705.791 2244.73,715.865 2246.7,724.346 2248.68,731.71 2250.65,738.917 2252.63,746.915 2254.6,756.163 2256.58,766.362 2258.55,776.496 2260.53,785.17 2262.5,791.115 2264.48,793.671 2266.45,793.057 2268.43,790.329 2270.4,787.04 2272.38,784.725 2274.35,784.407 2276.33,786.303 2278.31,789.835 2280.28,793.933 2282.26,797.511 2284.23,799.917 2286.21,801.205 2288.18,802.098 2290.16,803.685 2292.13,806.95 "/>
<path clip-path="url(#clip830)" d="M1888.75 300.469 L2281.36 300.469 L2281.36 93.1086 L1888.75 93.1086  Z" fill="#ffffff" fill-rule="evenodd" fill-opacity="1"/>
<polyline clip-path="url(#clip830)" style="stroke:#000000; stroke-linecap:round; stroke-linejoin:round; stroke-width:4; stroke-opacity:1; fill:none" points="1888.75,300.469 2281.36,300.469 2281.36,93.1086 1888.75,93.1086 1888.75,300.469 "/>
<polyline clip-path="url(#clip830)" style="stroke:#009af9; stroke-linecap:round; stroke-linejoin:round; stroke-width:8; stroke-opacity:1; fill:none" stroke-dasharray="32, 16, 4, 16" points="1912.55,144.949 2055.35,144.949 "/>
<path clip-path="url(#clip830)" d="M2095.17 130.84 Q2090.08 130.84 2087.07 134.636 Q2084.08 138.432 2084.08 144.983 Q2084.08 151.511 2087.07 155.307 Q2090.08 159.104 2095.17 159.104 Q2100.26 159.104 2103.23 155.307 Q2106.21 151.511 2106.21 144.983 Q2106.21 138.432 2103.23 134.636 Q2100.26 130.84 2095.17 130.84 M2095.17 127.044 Q2102.44 127.044 2106.79 131.928 Q2111.14 136.789 2111.14 144.983 Q2111.14 153.155 2106.79 158.039 Q2102.44 162.9 2095.17 162.9 Q2087.88 162.9 2083.51 158.039 Q2079.15 153.178 2079.15 144.983 Q2079.15 136.789 2083.51 131.928 Q2087.88 127.044 2095.17 127.044 Z" fill="#000000" fill-rule="nonzero" fill-opacity="1" /><path clip-path="url(#clip830)" d="M2133.3 140.284 Q2132.58 139.868 2131.72 139.682 Q2130.89 139.474 2129.87 139.474 Q2126.26 139.474 2124.32 141.835 Q2122.39 144.173 2122.39 148.571 L2122.39 162.229 L2118.11 162.229 L2118.11 136.303 L2122.39 136.303 L2122.39 140.331 Q2123.74 137.969 2125.89 136.835 Q2128.04 135.678 2131.12 135.678 Q2131.56 135.678 2132.09 135.747 Q2132.63 135.794 2133.27 135.909 L2133.3 140.284 Z" fill="#000000" fill-rule="nonzero" fill-opacity="1" /><path clip-path="url(#clip830)" d="M2137.76 136.303 L2142.02 136.303 L2142.02 162.229 L2137.76 162.229 L2137.76 136.303 M2137.76 126.21 L2142.02 126.21 L2142.02 131.604 L2137.76 131.604 L2137.76 126.21 Z" fill="#000000" fill-rule="nonzero" fill-opacity="1" /><path clip-path="url(#clip830)" d="M2168 148.965 Q2168 144.335 2166.07 141.789 Q2164.18 139.243 2160.73 139.243 Q2157.3 139.243 2155.38 141.789 Q2153.48 144.335 2153.48 148.965 Q2153.48 153.571 2155.38 156.118 Q2157.3 158.664 2160.73 158.664 Q2164.18 158.664 2166.07 156.118 Q2168 153.571 2168 148.965 M2172.25 159.011 Q2172.25 165.631 2169.32 168.849 Q2166.38 172.09 2160.31 172.09 Q2158.07 172.09 2156.07 171.742 Q2154.08 171.418 2152.21 170.724 L2152.21 166.58 Q2154.08 167.599 2155.91 168.085 Q2157.74 168.571 2159.64 168.571 Q2163.83 168.571 2165.91 166.372 Q2168 164.196 2168 159.775 L2168 157.668 Q2166.68 159.96 2164.62 161.094 Q2162.56 162.229 2159.69 162.229 Q2154.92 162.229 2152 158.594 Q2149.08 154.96 2149.08 148.965 Q2149.08 142.946 2152 139.312 Q2154.92 135.678 2159.69 135.678 Q2162.56 135.678 2164.62 136.812 Q2166.68 137.946 2168 140.238 L2168 136.303 L2172.25 136.303 L2172.25 159.011 Z" fill="#000000" fill-rule="nonzero" fill-opacity="1" /><path clip-path="url(#clip830)" d="M2181.03 136.303 L2185.29 136.303 L2185.29 162.229 L2181.03 162.229 L2181.03 136.303 M2181.03 126.21 L2185.29 126.21 L2185.29 131.604 L2181.03 131.604 L2181.03 126.21 Z" fill="#000000" fill-rule="nonzero" fill-opacity="1" /><path clip-path="url(#clip830)" d="M2215.75 146.581 L2215.75 162.229 L2211.49 162.229 L2211.49 146.719 Q2211.49 143.039 2210.06 141.21 Q2208.62 139.382 2205.75 139.382 Q2202.3 139.382 2200.31 141.581 Q2198.32 143.78 2198.32 147.576 L2198.32 162.229 L2194.04 162.229 L2194.04 136.303 L2198.32 136.303 L2198.32 140.331 Q2199.85 137.993 2201.91 136.835 Q2203.99 135.678 2206.7 135.678 Q2211.17 135.678 2213.46 138.456 Q2215.75 141.21 2215.75 146.581 Z" fill="#000000" fill-rule="nonzero" fill-opacity="1" /><path clip-path="url(#clip830)" d="M2236.03 149.196 Q2230.87 149.196 2228.88 150.377 Q2226.88 151.557 2226.88 154.405 Q2226.88 156.673 2228.37 158.016 Q2229.87 159.335 2232.44 159.335 Q2235.98 159.335 2238.11 156.835 Q2240.26 154.312 2240.26 150.145 L2240.26 149.196 L2236.03 149.196 M2244.52 147.437 L2244.52 162.229 L2240.26 162.229 L2240.26 158.293 Q2238.81 160.655 2236.63 161.789 Q2234.45 162.9 2231.31 162.9 Q2227.32 162.9 2224.96 160.678 Q2222.63 158.432 2222.63 154.682 Q2222.63 150.307 2225.54 148.085 Q2228.48 145.863 2234.29 145.863 L2240.26 145.863 L2240.26 145.446 Q2240.26 142.507 2238.32 140.909 Q2236.4 139.289 2232.9 139.289 Q2230.68 139.289 2228.57 139.821 Q2226.47 140.354 2224.52 141.419 L2224.52 137.483 Q2226.86 136.581 2229.06 136.141 Q2231.26 135.678 2233.34 135.678 Q2238.97 135.678 2241.75 138.594 Q2244.52 141.511 2244.52 147.437 Z" fill="#000000" fill-rule="nonzero" fill-opacity="1" /><path clip-path="url(#clip830)" d="M2253.3 126.21 L2257.56 126.21 L2257.56 162.229 L2253.3 162.229 L2253.3 126.21 Z" fill="#000000" fill-rule="nonzero" fill-opacity="1" /><polyline clip-path="url(#clip830)" style="stroke:#e26f46; stroke-linecap:round; stroke-linejoin:round; stroke-width:8; stroke-opacity:1; fill:none" stroke-dasharray="32, 16, 4, 16" points="1912.55,196.789 2055.35,196.789 "/>
<path clip-path="url(#clip830)" d="M2101.4 180.643 L2101.4 185.203 Q2098.74 183.93 2096.38 183.305 Q2094.01 182.68 2091.82 182.68 Q2088 182.68 2085.91 184.161 Q2083.85 185.643 2083.85 188.374 Q2083.85 190.666 2085.22 191.847 Q2086.61 193.004 2090.45 193.722 L2093.27 194.3 Q2098.51 195.296 2100.98 197.819 Q2103.48 200.319 2103.48 204.532 Q2103.48 209.555 2100.1 212.147 Q2096.75 214.74 2090.24 214.74 Q2087.79 214.74 2085.01 214.184 Q2082.26 213.629 2079.29 212.541 L2079.29 207.726 Q2082.14 209.323 2084.87 210.133 Q2087.6 210.944 2090.24 210.944 Q2094.25 210.944 2096.42 209.37 Q2098.6 207.796 2098.6 204.879 Q2098.6 202.333 2097.02 200.897 Q2095.47 199.462 2091.91 198.745 L2089.06 198.189 Q2083.83 197.147 2081.49 194.925 Q2079.15 192.703 2079.15 188.745 Q2079.15 184.161 2082.37 181.522 Q2085.61 178.884 2091.28 178.884 Q2093.71 178.884 2096.24 179.323 Q2098.76 179.763 2101.4 180.643 Z" fill="#000000" fill-rule="nonzero" fill-opacity="1" /><path clip-path="url(#clip830)" d="M2119.69 214.069 L2106.49 179.509 L2111.38 179.509 L2122.32 208.606 L2133.3 179.509 L2138.16 179.509 L2124.99 214.069 L2119.69 214.069 Z" fill="#000000" fill-rule="nonzero" fill-opacity="1" /><path clip-path="url(#clip830)" d="M2147.88 183.351 L2147.88 210.226 L2153.53 210.226 Q2160.68 210.226 2163.99 206.985 Q2167.32 203.745 2167.32 196.754 Q2167.32 189.809 2163.99 186.592 Q2160.68 183.351 2153.53 183.351 L2147.88 183.351 M2143.2 179.509 L2152.81 179.509 Q2162.86 179.509 2167.56 183.698 Q2172.25 187.865 2172.25 196.754 Q2172.25 205.689 2167.53 209.879 Q2162.81 214.069 2152.81 214.069 L2143.2 214.069 L2143.2 179.509 Z" fill="#000000" fill-rule="nonzero" fill-opacity="1" /><polyline clip-path="url(#clip830)" style="stroke:#3da44d; stroke-linecap:round; stroke-linejoin:round; stroke-width:8; stroke-opacity:1; fill:none" points="1912.55,248.629 2055.35,248.629 "/>
<path clip-path="url(#clip830)" d="M2095.54 249.705 Q2097.05 250.214 2098.46 251.881 Q2099.89 253.548 2101.33 256.464 L2106.07 265.909 L2101.05 265.909 L2096.63 257.043 Q2094.92 253.571 2093.3 252.436 Q2091.7 251.302 2088.92 251.302 L2083.83 251.302 L2083.83 265.909 L2079.15 265.909 L2079.15 231.349 L2089.71 231.349 Q2095.64 231.349 2098.55 233.825 Q2101.47 236.302 2101.47 241.302 Q2101.47 244.566 2099.94 246.719 Q2098.44 248.872 2095.54 249.705 M2083.83 235.191 L2083.83 247.46 L2089.71 247.46 Q2093.09 247.46 2094.8 245.909 Q2096.54 244.335 2096.54 241.302 Q2096.54 238.27 2094.8 236.742 Q2093.09 235.191 2089.71 235.191 L2083.83 235.191 Z" fill="#000000" fill-rule="nonzero" fill-opacity="1" /><path clip-path="url(#clip830)" d="M2132.81 232.483 L2132.81 237.043 Q2130.15 235.77 2127.79 235.145 Q2125.43 234.52 2123.23 234.52 Q2119.41 234.52 2117.32 236.001 Q2115.26 237.483 2115.26 240.214 Q2115.26 242.506 2116.63 243.687 Q2118.02 244.844 2121.86 245.562 L2124.69 246.14 Q2129.92 247.136 2132.39 249.659 Q2134.89 252.159 2134.89 256.372 Q2134.89 261.395 2131.51 263.987 Q2128.16 266.58 2121.65 266.58 Q2119.2 266.58 2116.42 266.024 Q2113.67 265.469 2110.7 264.381 L2110.7 259.566 Q2113.55 261.163 2116.28 261.973 Q2119.01 262.784 2121.65 262.784 Q2125.66 262.784 2127.83 261.21 Q2130.01 259.636 2130.01 256.719 Q2130.01 254.173 2128.44 252.737 Q2126.88 251.302 2123.32 250.585 L2120.47 250.029 Q2115.24 248.987 2112.9 246.765 Q2110.57 244.543 2110.57 240.585 Q2110.57 236.001 2113.78 233.362 Q2117.02 230.724 2122.7 230.724 Q2125.13 230.724 2127.65 231.163 Q2130.17 231.603 2132.81 232.483 Z" fill="#000000" fill-rule="nonzero" fill-opacity="1" /><path clip-path="url(#clip830)" d="M2151.1 265.909 L2137.9 231.349 L2142.79 231.349 L2153.74 260.446 L2164.71 231.349 L2169.57 231.349 L2156.4 265.909 L2151.1 265.909 Z" fill="#000000" fill-rule="nonzero" fill-opacity="1" /><path clip-path="url(#clip830)" d="M2179.29 235.191 L2179.29 262.066 L2184.94 262.066 Q2192.09 262.066 2195.4 258.825 Q2198.74 255.585 2198.74 248.594 Q2198.74 241.649 2195.4 238.432 Q2192.09 235.191 2184.94 235.191 L2179.29 235.191 M2174.62 231.349 L2184.22 231.349 Q2194.27 231.349 2198.97 235.538 Q2203.67 239.705 2203.67 248.594 Q2203.67 257.529 2198.94 261.719 Q2194.22 265.909 2184.22 265.909 L2174.62 265.909 L2174.62 231.349 Z" fill="#000000" fill-rule="nonzero" fill-opacity="1" /></svg>
