<?xml version="1.0" encoding="utf-8"?>
<svg xmlns="http://www.w3.org/2000/svg" xmlns:xlink="http://www.w3.org/1999/xlink" width="600" height="400" viewBox="0 0 2400 1600">
<defs>
  <clipPath id="clip320">
    <rect x="0" y="0" width="2400" height="1600"/>
  </clipPath>
</defs>
<path clip-path="url(#clip320)" d="M0 1600 L2400 1600 L2400 8.88178e-14 L0 8.88178e-14  Z" fill="#ffffff" fill-rule="evenodd" fill-opacity="1"/>
<defs>
  <clipPath id="clip321">
    <rect x="210" y="123" width="2143" height="1301"/>
  </clipPath>
</defs>
<path clip-path="url(#clip320)" d="M210.746 1423.18 L2352.76 1423.18 L2352.76 123.472 L210.746 123.472  Z" fill="#ffffff" fill-rule="evenodd" fill-opacity="1"/>
<polyline clip-path="url(#clip321)" style="stroke:#000000; stroke-linecap:round; stroke-linejoin:round; stroke-width:2; stroke-opacity:0.1; fill:none" points="271.369,1423.18 271.369,123.472 "/>
<polyline clip-path="url(#clip321)" style="stroke:#000000; stroke-linecap:round; stroke-linejoin:round; stroke-width:2; stroke-opacity:0.1; fill:none" points="666.822,1423.18 666.822,123.472 "/>
<polyline clip-path="url(#clip321)" style="stroke:#000000; stroke-linecap:round; stroke-linejoin:round; stroke-width:2; stroke-opacity:0.1; fill:none" points="1062.27,1423.18 1062.27,123.472 "/>
<polyline clip-path="url(#clip321)" style="stroke:#000000; stroke-linecap:round; stroke-linejoin:round; stroke-width:2; stroke-opacity:0.1; fill:none" points="1457.73,1423.18 1457.73,123.472 "/>
<polyline clip-path="url(#clip321)" style="stroke:#000000; stroke-linecap:round; stroke-linejoin:round; stroke-width:2; stroke-opacity:0.1; fill:none" points="1853.18,1423.18 1853.18,123.472 "/>
<polyline clip-path="url(#clip321)" style="stroke:#000000; stroke-linecap:round; stroke-linejoin:round; stroke-width:2; stroke-opacity:0.1; fill:none" points="2248.63,1423.18 2248.63,123.472 "/>
<polyline clip-path="url(#clip321)" style="stroke:#000000; stroke-linecap:round; stroke-linejoin:round; stroke-width:2; stroke-opacity:0.1; fill:none" points="210.746,1332.07 2352.76,1332.07 "/>
<polyline clip-path="url(#clip321)" style="stroke:#000000; stroke-linecap:round; stroke-linejoin:round; stroke-width:2; stroke-opacity:0.1; fill:none" points="210.746,1065.91 2352.76,1065.91 "/>
<polyline clip-path="url(#clip321)" style="stroke:#000000; stroke-linecap:round; stroke-linejoin:round; stroke-width:2; stroke-opacity:0.1; fill:none" points="210.746,799.746 2352.76,799.746 "/>
<polyline clip-path="url(#clip321)" style="stroke:#000000; stroke-linecap:round; stroke-linejoin:round; stroke-width:2; stroke-opacity:0.1; fill:none" points="210.746,533.581 2352.76,533.581 "/>
<polyline clip-path="url(#clip321)" style="stroke:#000000; stroke-linecap:round; stroke-linejoin:round; stroke-width:2; stroke-opacity:0.1; fill:none" points="210.746,267.417 2352.76,267.417 "/>
<polyline clip-path="url(#clip320)" style="stroke:#000000; stroke-linecap:round; stroke-linejoin:round; stroke-width:4; stroke-opacity:1; fill:none" points="210.746,1423.18 2352.76,1423.18 "/>
<polyline clip-path="url(#clip320)" style="stroke:#000000; stroke-linecap:round; stroke-linejoin:round; stroke-width:4; stroke-opacity:1; fill:none" points="271.369,1423.18 271.369,1404.28 "/>
<polyline clip-path="url(#clip320)" style="stroke:#000000; stroke-linecap:round; stroke-linejoin:round; stroke-width:4; stroke-opacity:1; fill:none" points="666.822,1423.18 666.822,1404.28 "/>
<polyline clip-path="url(#clip320)" style="stroke:#000000; stroke-linecap:round; stroke-linejoin:round; stroke-width:4; stroke-opacity:1; fill:none" points="1062.27,1423.18 1062.27,1404.28 "/>
<polyline clip-path="url(#clip320)" style="stroke:#000000; stroke-linecap:round; stroke-linejoin:round; stroke-width:4; stroke-opacity:1; fill:none" points="1457.73,1423.18 1457.73,1404.28 "/>
<polyline clip-path="url(#clip320)" style="stroke:#000000; stroke-linecap:round; stroke-linejoin:round; stroke-width:4; stroke-opacity:1; fill:none" points="1853.18,1423.18 1853.18,1404.28 "/>
<polyline clip-path="url(#clip320)" style="stroke:#000000; stroke-linecap:round; stroke-linejoin:round; stroke-width:4; stroke-opacity:1; fill:none" points="2248.63,1423.18 2248.63,1404.28 "/>
<path clip-path="url(#clip320)" d="M271.369 1454.1 Q267.758 1454.1 265.929 1457.66 Q264.124 1461.2 264.124 1468.33 Q264.124 1475.44 265.929 1479.01 Q267.758 1482.55 271.369 1482.55 Q275.003 1482.55 276.809 1479.01 Q278.637 1475.44 278.637 1468.33 Q278.637 1461.2 276.809 1457.66 Q275.003 1454.1 271.369 1454.1 M271.369 1450.39 Q277.179 1450.39 280.235 1455 Q283.313 1459.58 283.313 1468.33 Q283.313 1477.06 280.235 1481.67 Q277.179 1486.25 271.369 1486.25 Q265.559 1486.25 262.48 1481.67 Q259.424 1477.06 259.424 1468.33 Q259.424 1459.58 262.48 1455 Q265.559 1450.39 271.369 1450.39 Z" fill="#000000" fill-rule="nonzero" fill-opacity="1" /><path clip-path="url(#clip320)" d="M626.428 1481.64 L634.067 1481.64 L634.067 1455.28 L625.757 1456.95 L625.757 1452.69 L634.021 1451.02 L638.697 1451.02 L638.697 1481.64 L646.336 1481.64 L646.336 1485.58 L626.428 1485.58 L626.428 1481.64 Z" fill="#000000" fill-rule="nonzero" fill-opacity="1" /><path clip-path="url(#clip320)" d="M665.78 1454.1 Q662.169 1454.1 660.34 1457.66 Q658.535 1461.2 658.535 1468.33 Q658.535 1475.44 660.34 1479.01 Q662.169 1482.55 665.78 1482.55 Q669.414 1482.55 671.22 1479.01 Q673.049 1475.44 673.049 1468.33 Q673.049 1461.2 671.22 1457.66 Q669.414 1454.1 665.78 1454.1 M665.78 1450.39 Q671.59 1450.39 674.646 1455 Q677.724 1459.58 677.724 1468.33 Q677.724 1477.06 674.646 1481.67 Q671.59 1486.25 665.78 1486.25 Q659.97 1486.25 656.891 1481.67 Q653.836 1477.06 653.836 1468.33 Q653.836 1459.58 656.891 1455 Q659.97 1450.39 665.78 1450.39 Z" fill="#000000" fill-rule="nonzero" fill-opacity="1" /><path clip-path="url(#clip320)" d="M695.942 1454.1 Q692.331 1454.1 690.502 1457.66 Q688.697 1461.2 688.697 1468.33 Q688.697 1475.44 690.502 1479.01 Q692.331 1482.55 695.942 1482.55 Q699.576 1482.55 701.382 1479.01 Q703.21 1475.44 703.21 1468.33 Q703.21 1461.2 701.382 1457.66 Q699.576 1454.1 695.942 1454.1 M695.942 1450.39 Q701.752 1450.39 704.808 1455 Q707.886 1459.58 707.886 1468.33 Q707.886 1477.06 704.808 1481.67 Q701.752 1486.25 695.942 1486.25 Q690.132 1486.25 687.053 1481.67 Q683.998 1477.06 683.998 1468.33 Q683.998 1459.58 687.053 1455 Q690.132 1450.39 695.942 1450.39 Z" fill="#000000" fill-rule="nonzero" fill-opacity="1" /><path clip-path="url(#clip320)" d="M1025.97 1481.64 L1042.29 1481.64 L1042.29 1485.58 L1020.34 1485.58 L1020.34 1481.64 Q1023 1478.89 1027.59 1474.26 Q1032.19 1469.61 1033.37 1468.27 Q1035.62 1465.74 1036.5 1464.01 Q1037.4 1462.25 1037.4 1460.56 Q1037.4 1457.8 1035.46 1456.07 Q1033.54 1454.33 1030.43 1454.33 Q1028.24 1454.33 1025.78 1455.09 Q1023.35 1455.86 1020.57 1457.41 L1020.57 1452.69 Q1023.4 1451.55 1025.85 1450.97 Q1028.3 1450.39 1030.34 1450.39 Q1035.71 1450.39 1038.91 1453.08 Q1042.1 1455.77 1042.1 1460.26 Q1042.1 1462.39 1041.29 1464.31 Q1040.5 1466.2 1038.4 1468.8 Q1037.82 1469.47 1034.72 1472.69 Q1031.62 1475.88 1025.97 1481.64 Z" fill="#000000" fill-rule="nonzero" fill-opacity="1" /><path clip-path="url(#clip320)" d="M1062.1 1454.1 Q1058.49 1454.1 1056.66 1457.66 Q1054.86 1461.2 1054.86 1468.33 Q1054.86 1475.44 1056.66 1479.01 Q1058.49 1482.55 1062.1 1482.55 Q1065.74 1482.55 1067.54 1479.01 Q1069.37 1475.44 1069.37 1468.33 Q1069.37 1461.2 1067.54 1457.66 Q1065.74 1454.1 1062.1 1454.1 M1062.1 1450.39 Q1067.91 1450.39 1070.97 1455 Q1074.05 1459.58 1074.05 1468.33 Q1074.05 1477.06 1070.97 1481.67 Q1067.91 1486.25 1062.1 1486.25 Q1056.29 1486.25 1053.21 1481.67 Q1050.16 1477.06 1050.16 1468.33 Q1050.16 1459.58 1053.21 1455 Q1056.29 1450.39 1062.1 1450.39 Z" fill="#000000" fill-rule="nonzero" fill-opacity="1" /><path clip-path="url(#clip320)" d="M1092.26 1454.1 Q1088.65 1454.1 1086.82 1457.66 Q1085.02 1461.2 1085.02 1468.33 Q1085.02 1475.44 1086.82 1479.01 Q1088.65 1482.55 1092.26 1482.55 Q1095.9 1482.55 1097.7 1479.01 Q1099.53 1475.44 1099.53 1468.33 Q1099.53 1461.2 1097.7 1457.66 Q1095.9 1454.1 1092.26 1454.1 M1092.26 1450.39 Q1098.07 1450.39 1101.13 1455 Q1104.21 1459.58 1104.21 1468.33 Q1104.21 1477.06 1101.13 1481.67 Q1098.07 1486.25 1092.26 1486.25 Q1086.45 1486.25 1083.37 1481.67 Q1080.32 1477.06 1080.32 1468.33 Q1080.32 1459.58 1083.37 1455 Q1086.45 1450.39 1092.26 1450.39 Z" fill="#000000" fill-rule="nonzero" fill-opacity="1" /><path clip-path="url(#clip320)" d="M1431.49 1466.95 Q1434.85 1467.66 1436.72 1469.93 Q1438.62 1472.2 1438.62 1475.53 Q1438.62 1480.65 1435.1 1483.45 Q1431.58 1486.25 1425.1 1486.25 Q1422.92 1486.25 1420.61 1485.81 Q1418.32 1485.39 1415.86 1484.54 L1415.86 1480.02 Q1417.81 1481.16 1420.12 1481.74 Q1422.44 1482.32 1424.96 1482.32 Q1429.36 1482.32 1431.65 1480.58 Q1433.97 1478.84 1433.97 1475.53 Q1433.97 1472.48 1431.81 1470.77 Q1429.68 1469.03 1425.86 1469.03 L1421.84 1469.03 L1421.84 1465.19 L1426.05 1465.19 Q1429.5 1465.19 1431.33 1463.82 Q1433.16 1462.43 1433.16 1459.84 Q1433.16 1457.18 1431.26 1455.77 Q1429.38 1454.33 1425.86 1454.33 Q1423.94 1454.33 1421.74 1454.75 Q1419.54 1455.16 1416.91 1456.04 L1416.91 1451.88 Q1419.57 1451.14 1421.88 1450.77 Q1424.22 1450.39 1426.28 1450.39 Q1431.6 1450.39 1434.71 1452.83 Q1437.81 1455.23 1437.81 1459.35 Q1437.81 1462.22 1436.17 1464.21 Q1434.52 1466.18 1431.49 1466.95 Z" fill="#000000" fill-rule="nonzero" fill-opacity="1" /><path clip-path="url(#clip320)" d="M1457.48 1454.1 Q1453.87 1454.1 1452.04 1457.66 Q1450.24 1461.2 1450.24 1468.33 Q1450.24 1475.44 1452.04 1479.01 Q1453.87 1482.55 1457.48 1482.55 Q1461.12 1482.55 1462.92 1479.01 Q1464.75 1475.44 1464.75 1468.33 Q1464.75 1461.2 1462.92 1457.66 Q1461.12 1454.1 1457.48 1454.1 M1457.48 1450.39 Q1463.29 1450.39 1466.35 1455 Q1469.43 1459.58 1469.43 1468.33 Q1469.43 1477.06 1466.35 1481.67 Q1463.29 1486.25 1457.48 1486.25 Q1451.67 1486.25 1448.6 1481.67 Q1445.54 1477.06 1445.54 1468.33 Q1445.54 1459.58 1448.6 1455 Q1451.67 1450.39 1457.48 1450.39 Z" fill="#000000" fill-rule="nonzero" fill-opacity="1" /><path clip-path="url(#clip320)" d="M1487.65 1454.1 Q1484.04 1454.1 1482.21 1457.66 Q1480.4 1461.2 1480.4 1468.33 Q1480.4 1475.44 1482.21 1479.01 Q1484.04 1482.55 1487.65 1482.55 Q1491.28 1482.55 1493.09 1479.01 Q1494.91 1475.44 1494.91 1468.33 Q1494.91 1461.2 1493.09 1457.66 Q1491.28 1454.1 1487.65 1454.1 M1487.65 1450.39 Q1493.46 1450.39 1496.51 1455 Q1499.59 1459.58 1499.59 1468.33 Q1499.59 1477.06 1496.51 1481.67 Q1493.46 1486.25 1487.65 1486.25 Q1481.84 1486.25 1478.76 1481.67 Q1475.7 1477.06 1475.7 1468.33 Q1475.7 1459.58 1478.76 1455 Q1481.84 1450.39 1487.65 1450.39 Z" fill="#000000" fill-rule="nonzero" fill-opacity="1" /><path clip-path="url(#clip320)" d="M1826.27 1455.09 L1814.47 1473.54 L1826.27 1473.54 L1826.27 1455.09 M1825.04 1451.02 L1830.92 1451.02 L1830.92 1473.54 L1835.85 1473.54 L1835.85 1477.43 L1830.92 1477.43 L1830.92 1485.58 L1826.27 1485.58 L1826.27 1477.43 L1810.67 1477.43 L1810.67 1472.92 L1825.04 1451.02 Z" fill="#000000" fill-rule="nonzero" fill-opacity="1" /><path clip-path="url(#clip320)" d="M1853.59 1454.1 Q1849.97 1454.1 1848.15 1457.66 Q1846.34 1461.2 1846.34 1468.33 Q1846.34 1475.44 1848.15 1479.01 Q1849.97 1482.55 1853.59 1482.55 Q1857.22 1482.55 1859.03 1479.01 Q1860.85 1475.44 1860.85 1468.33 Q1860.85 1461.2 1859.03 1457.66 Q1857.22 1454.1 1853.59 1454.1 M1853.59 1450.39 Q1859.4 1450.39 1862.45 1455 Q1865.53 1459.58 1865.53 1468.33 Q1865.53 1477.06 1862.45 1481.67 Q1859.4 1486.25 1853.59 1486.25 Q1847.78 1486.25 1844.7 1481.67 Q1841.64 1477.06 1841.64 1468.33 Q1841.64 1459.58 1844.7 1455 Q1847.78 1450.39 1853.59 1450.39 Z" fill="#000000" fill-rule="nonzero" fill-opacity="1" /><path clip-path="url(#clip320)" d="M1883.75 1454.1 Q1880.14 1454.1 1878.31 1457.66 Q1876.5 1461.2 1876.5 1468.33 Q1876.5 1475.44 1878.31 1479.01 Q1880.14 1482.55 1883.75 1482.55 Q1887.38 1482.55 1889.19 1479.01 Q1891.02 1475.44 1891.02 1468.33 Q1891.02 1461.2 1889.19 1457.66 Q1887.38 1454.1 1883.75 1454.1 M1883.75 1450.39 Q1889.56 1450.39 1892.61 1455 Q1895.69 1459.58 1895.69 1468.33 Q1895.69 1477.06 1892.61 1481.67 Q1889.56 1486.25 1883.75 1486.25 Q1877.94 1486.25 1874.86 1481.67 Q1871.8 1477.06 1871.8 1468.33 Q1871.8 1459.58 1874.86 1455 Q1877.94 1450.39 1883.75 1450.39 Z" fill="#000000" fill-rule="nonzero" fill-opacity="1" /><path clip-path="url(#clip320)" d="M2208.25 1451.02 L2226.61 1451.02 L2226.61 1454.96 L2212.53 1454.96 L2212.53 1463.43 Q2213.55 1463.08 2214.57 1462.92 Q2215.59 1462.73 2216.61 1462.73 Q2222.39 1462.73 2225.77 1465.9 Q2229.15 1469.08 2229.15 1474.49 Q2229.15 1480.07 2225.68 1483.17 Q2222.21 1486.25 2215.89 1486.25 Q2213.71 1486.25 2211.45 1485.88 Q2209.2 1485.51 2206.79 1484.77 L2206.79 1480.07 Q2208.88 1481.2 2211.1 1481.76 Q2213.32 1482.32 2215.8 1482.32 Q2219.8 1482.32 2222.14 1480.21 Q2224.48 1478.1 2224.48 1474.49 Q2224.48 1470.88 2222.14 1468.77 Q2219.8 1466.67 2215.8 1466.67 Q2213.92 1466.67 2212.05 1467.08 Q2210.2 1467.5 2208.25 1468.38 L2208.25 1451.02 Z" fill="#000000" fill-rule="nonzero" fill-opacity="1" /><path clip-path="url(#clip320)" d="M2248.37 1454.1 Q2244.76 1454.1 2242.93 1457.66 Q2241.12 1461.2 2241.12 1468.33 Q2241.12 1475.44 2242.93 1479.01 Q2244.76 1482.55 2248.37 1482.55 Q2252 1482.55 2253.81 1479.01 Q2255.64 1475.44 2255.64 1468.33 Q2255.64 1461.2 2253.81 1457.66 Q2252 1454.1 2248.37 1454.1 M2248.37 1450.39 Q2254.18 1450.39 2257.23 1455 Q2260.31 1459.58 2260.31 1468.33 Q2260.31 1477.06 2257.23 1481.67 Q2254.18 1486.25 2248.37 1486.25 Q2242.56 1486.25 2239.48 1481.67 Q2236.42 1477.06 2236.42 1468.33 Q2236.42 1459.58 2239.48 1455 Q2242.56 1450.39 2248.37 1450.39 Z" fill="#000000" fill-rule="nonzero" fill-opacity="1" /><path clip-path="url(#clip320)" d="M2278.53 1454.1 Q2274.92 1454.1 2273.09 1457.66 Q2271.28 1461.2 2271.28 1468.33 Q2271.28 1475.44 2273.09 1479.01 Q2274.92 1482.55 2278.53 1482.55 Q2282.16 1482.55 2283.97 1479.01 Q2285.8 1475.44 2285.8 1468.33 Q2285.8 1461.2 2283.97 1457.66 Q2282.16 1454.1 2278.53 1454.1 M2278.53 1450.39 Q2284.34 1450.39 2287.39 1455 Q2290.47 1459.58 2290.47 1468.33 Q2290.47 1477.06 2287.39 1481.67 Q2284.34 1486.25 2278.53 1486.25 Q2272.72 1486.25 2269.64 1481.67 Q2266.58 1477.06 2266.58 1468.33 Q2266.58 1459.58 2269.64 1455 Q2272.72 1450.39 2278.53 1450.39 Z" fill="#000000" fill-rule="nonzero" fill-opacity="1" /><path clip-path="url(#clip320)" d="M1051.82 1520.52 L1058.25 1520.52 L1058.25 1568.04 L1051.82 1568.04 L1051.82 1520.52 Z" fill="#000000" fill-rule="nonzero" fill-opacity="1" /><path clip-path="url(#clip320)" d="M1100.42 1546.53 L1100.42 1568.04 L1094.57 1568.04 L1094.57 1546.72 Q1094.57 1541.66 1092.59 1539.14 Q1090.62 1536.63 1086.67 1536.63 Q1081.93 1536.63 1079.19 1539.65 Q1076.46 1542.68 1076.46 1547.9 L1076.46 1568.04 L1070.57 1568.04 L1070.57 1532.4 L1076.46 1532.4 L1076.46 1537.93 Q1078.56 1534.72 1081.39 1533.13 Q1084.25 1531.54 1087.98 1531.54 Q1094.12 1531.54 1097.27 1535.36 Q1100.42 1539.14 1100.42 1546.53 Z" fill="#000000" fill-rule="nonzero" fill-opacity="1" /><path clip-path="url(#clip320)" d="M1117.9 1522.27 L1117.9 1532.4 L1129.96 1532.4 L1129.96 1536.95 L1117.9 1536.95 L1117.9 1556.3 Q1117.9 1560.66 1119.08 1561.9 Q1120.28 1563.14 1123.95 1563.14 L1129.96 1563.14 L1129.96 1568.04 L1123.95 1568.04 Q1117.17 1568.04 1114.59 1565.53 Q1112.01 1562.98 1112.01 1556.3 L1112.01 1536.95 L1107.71 1536.95 L1107.71 1532.4 L1112.01 1532.4 L1112.01 1522.27 L1117.9 1522.27 Z" fill="#000000" fill-rule="nonzero" fill-opacity="1" /><path clip-path="url(#clip320)" d="M1168.15 1548.76 L1168.15 1551.62 L1141.23 1551.62 Q1141.61 1557.67 1144.86 1560.85 Q1148.13 1564 1153.96 1564 Q1157.33 1564 1160.48 1563.17 Q1163.67 1562.35 1166.79 1560.69 L1166.79 1566.23 Q1163.64 1567.57 1160.33 1568.27 Q1157.01 1568.97 1153.61 1568.97 Q1145.08 1568.97 1140.08 1564 Q1135.12 1559.04 1135.12 1550.57 Q1135.12 1541.82 1139.83 1536.69 Q1144.57 1531.54 1152.59 1531.54 Q1159.78 1531.54 1163.95 1536.18 Q1168.15 1540.8 1168.15 1548.76 M1162.3 1547.04 Q1162.23 1542.23 1159.59 1539.37 Q1156.98 1536.5 1152.65 1536.5 Q1147.75 1536.5 1144.79 1539.27 Q1141.86 1542.04 1141.42 1547.07 L1162.3 1547.04 Z" fill="#000000" fill-rule="nonzero" fill-opacity="1" /><path clip-path="url(#clip320)" d="M1201.22 1549.81 Q1201.22 1543.44 1198.58 1539.94 Q1195.97 1536.44 1191.23 1536.44 Q1186.52 1536.44 1183.88 1539.94 Q1181.27 1543.44 1181.27 1549.81 Q1181.27 1556.14 1183.88 1559.64 Q1186.52 1563.14 1191.23 1563.14 Q1195.97 1563.14 1198.58 1559.64 Q1201.22 1556.14 1201.22 1549.81 M1207.08 1563.62 Q1207.08 1572.72 1203.04 1577.15 Q1199 1581.6 1190.66 1581.6 Q1187.57 1581.6 1184.83 1581.13 Q1182.1 1580.68 1179.52 1579.72 L1179.52 1574.03 Q1182.1 1575.43 1184.61 1576.1 Q1187.12 1576.76 1189.73 1576.76 Q1195.5 1576.76 1198.36 1573.74 Q1201.22 1570.75 1201.22 1564.67 L1201.22 1561.77 Q1199.41 1564.92 1196.58 1566.48 Q1193.75 1568.04 1189.8 1568.04 Q1183.24 1568.04 1179.23 1563.05 Q1175.22 1558.05 1175.22 1549.81 Q1175.22 1541.53 1179.23 1536.53 Q1183.24 1531.54 1189.8 1531.54 Q1193.75 1531.54 1196.58 1533.1 Q1199.41 1534.66 1201.22 1537.81 L1201.22 1532.4 L1207.08 1532.4 L1207.08 1563.62 Z" fill="#000000" fill-rule="nonzero" fill-opacity="1" /><path clip-path="url(#clip320)" d="M1249.64 1548.76 L1249.64 1551.62 L1222.71 1551.62 Q1223.09 1557.67 1226.34 1560.85 Q1229.62 1564 1235.44 1564 Q1238.81 1564 1241.97 1563.17 Q1245.15 1562.35 1248.27 1560.69 L1248.27 1566.23 Q1245.12 1567.57 1241.81 1568.27 Q1238.5 1568.97 1235.09 1568.97 Q1226.56 1568.97 1221.56 1564 Q1216.6 1559.04 1216.6 1550.57 Q1216.6 1541.82 1221.31 1536.69 Q1226.05 1531.54 1234.07 1531.54 Q1241.27 1531.54 1245.43 1536.18 Q1249.64 1540.8 1249.64 1548.76 M1243.78 1547.04 Q1243.72 1542.23 1241.07 1539.37 Q1238.46 1536.5 1234.14 1536.5 Q1229.23 1536.5 1226.27 1539.27 Q1223.35 1542.04 1222.9 1547.07 L1243.78 1547.04 Z" fill="#000000" fill-rule="nonzero" fill-opacity="1" /><path clip-path="url(#clip320)" d="M1279.9 1537.87 Q1278.92 1537.3 1277.74 1537.04 Q1276.59 1536.76 1275.19 1536.76 Q1270.23 1536.76 1267.56 1540 Q1264.91 1543.22 1264.91 1549.27 L1264.91 1568.04 L1259.03 1568.04 L1259.03 1532.4 L1264.91 1532.4 L1264.91 1537.93 Q1266.76 1534.69 1269.72 1533.13 Q1272.68 1531.54 1276.91 1531.54 Q1277.52 1531.54 1278.25 1531.63 Q1278.98 1531.7 1279.87 1531.85 L1279.9 1537.87 Z" fill="#000000" fill-rule="nonzero" fill-opacity="1" /><path clip-path="url(#clip320)" d="M1306.77 1532.4 L1312.62 1532.4 L1312.62 1568.04 L1306.77 1568.04 L1306.77 1532.4 M1306.77 1518.52 L1312.62 1518.52 L1312.62 1525.93 L1306.77 1525.93 L1306.77 1518.52 Z" fill="#000000" fill-rule="nonzero" fill-opacity="1" /><path clip-path="url(#clip320)" d="M1354.51 1546.53 L1354.51 1568.04 L1348.65 1568.04 L1348.65 1546.72 Q1348.65 1541.66 1346.68 1539.14 Q1344.71 1536.63 1340.76 1536.63 Q1336.02 1536.63 1333.28 1539.65 Q1330.54 1542.68 1330.54 1547.9 L1330.54 1568.04 L1324.66 1568.04 L1324.66 1532.4 L1330.54 1532.4 L1330.54 1537.93 Q1332.64 1534.72 1335.48 1533.13 Q1338.34 1531.54 1342.07 1531.54 Q1348.21 1531.54 1351.36 1535.36 Q1354.51 1539.14 1354.51 1546.53 Z" fill="#000000" fill-rule="nonzero" fill-opacity="1" /><path clip-path="url(#clip320)" d="M1389.65 1537.81 L1389.65 1518.52 L1395.51 1518.52 L1395.51 1568.04 L1389.65 1568.04 L1389.65 1562.7 Q1387.8 1565.88 1384.97 1567.44 Q1382.17 1568.97 1378.22 1568.97 Q1371.76 1568.97 1367.69 1563.81 Q1363.65 1558.65 1363.65 1550.25 Q1363.65 1541.85 1367.69 1536.69 Q1371.76 1531.54 1378.22 1531.54 Q1382.17 1531.54 1384.97 1533.1 Q1387.8 1534.62 1389.65 1537.81 M1369.69 1550.25 Q1369.69 1556.71 1372.33 1560.4 Q1375.01 1564.07 1379.66 1564.07 Q1384.3 1564.07 1386.98 1560.4 Q1389.65 1556.71 1389.65 1550.25 Q1389.65 1543.79 1386.98 1540.13 Q1384.3 1536.44 1379.66 1536.44 Q1375.01 1536.44 1372.33 1540.13 Q1369.69 1543.79 1369.69 1550.25 Z" fill="#000000" fill-rule="nonzero" fill-opacity="1" /><path clip-path="url(#clip320)" d="M1438.06 1548.76 L1438.06 1551.62 L1411.13 1551.62 Q1411.52 1557.67 1414.76 1560.85 Q1418.04 1564 1423.87 1564 Q1427.24 1564 1430.39 1563.17 Q1433.57 1562.35 1436.69 1560.69 L1436.69 1566.23 Q1433.54 1567.57 1430.23 1568.27 Q1426.92 1568.97 1423.52 1568.97 Q1414.99 1568.97 1409.99 1564 Q1405.02 1559.04 1405.02 1550.57 Q1405.02 1541.82 1409.73 1536.69 Q1414.48 1531.54 1422.5 1531.54 Q1429.69 1531.54 1433.86 1536.18 Q1438.06 1540.8 1438.06 1548.76 M1432.2 1547.04 Q1432.14 1542.23 1429.5 1539.37 Q1426.89 1536.5 1422.56 1536.5 Q1417.66 1536.5 1414.7 1539.27 Q1411.77 1542.04 1411.32 1547.07 L1432.2 1547.04 Z" fill="#000000" fill-rule="nonzero" fill-opacity="1" /><path clip-path="url(#clip320)" d="M1476.16 1532.4 L1463.27 1549.74 L1476.83 1568.04 L1469.92 1568.04 L1459.55 1554.04 L1449.17 1568.04 L1442.26 1568.04 L1456.11 1549.39 L1443.44 1532.4 L1450.35 1532.4 L1459.8 1545.1 L1469.25 1532.4 L1476.16 1532.4 Z" fill="#000000" fill-rule="nonzero" fill-opacity="1" /><path clip-path="url(#clip320)" d="M1505.82 1532.4 L1511.68 1532.4 L1511.68 1568.04 L1505.82 1568.04 L1505.82 1532.4 M1505.82 1518.52 L1511.68 1518.52 L1511.68 1525.93 L1505.82 1525.93 L1505.82 1518.52 Z" fill="#000000" fill-rule="nonzero" fill-opacity="1" /><polyline clip-path="url(#clip320)" style="stroke:#000000; stroke-linecap:round; stroke-linejoin:round; stroke-width:4; stroke-opacity:1; fill:none" points="210.746,1423.18 210.746,123.472 "/>
<polyline clip-path="url(#clip320)" style="stroke:#000000; stroke-linecap:round; stroke-linejoin:round; stroke-width:4; stroke-opacity:1; fill:none" points="210.746,1332.07 229.644,1332.07 "/>
<polyline clip-path="url(#clip320)" style="stroke:#000000; stroke-linecap:round; stroke-linejoin:round; stroke-width:4; stroke-opacity:1; fill:none" points="210.746,1065.91 229.644,1065.91 "/>
<polyline clip-path="url(#clip320)" style="stroke:#000000; stroke-linecap:round; stroke-linejoin:round; stroke-width:4; stroke-opacity:1; fill:none" points="210.746,799.746 229.644,799.746 "/>
<polyline clip-path="url(#clip320)" style="stroke:#000000; stroke-linecap:round; stroke-linejoin:round; stroke-width:4; stroke-opacity:1; fill:none" points="210.746,533.581 229.644,533.581 "/>
<polyline clip-path="url(#clip320)" style="stroke:#000000; stroke-linecap:round; stroke-linejoin:round; stroke-width:4; stroke-opacity:1; fill:none" points="210.746,267.417 229.644,267.417 "/>
<path clip-path="url(#clip320)" d="M114.631 1332.53 L144.306 1332.53 L144.306 1336.46 L114.631 1336.46 L114.631 1332.53 Z" fill="#000000" fill-rule="nonzero" fill-opacity="1" /><path clip-path="url(#clip320)" d="M158.427 1345.42 L174.746 1345.42 L174.746 1349.35 L152.802 1349.35 L152.802 1345.42 Q155.464 1342.67 160.047 1338.04 Q164.653 1333.38 165.834 1332.04 Q168.079 1329.52 168.959 1327.78 Q169.862 1326.02 169.862 1324.33 Q169.862 1321.58 167.917 1319.84 Q165.996 1318.11 162.894 1318.11 Q160.695 1318.11 158.241 1318.87 Q155.811 1319.63 153.033 1321.18 L153.033 1316.46 Q155.857 1315.33 158.311 1314.75 Q160.765 1314.17 162.802 1314.17 Q168.172 1314.17 171.366 1316.86 Q174.561 1319.54 174.561 1324.03 Q174.561 1326.16 173.751 1328.08 Q172.964 1329.98 170.857 1332.57 Q170.278 1333.24 167.177 1336.46 Q164.075 1339.66 158.427 1345.42 Z" fill="#000000" fill-rule="nonzero" fill-opacity="1" /><path clip-path="url(#clip320)" d="M114.26 1066.36 L143.936 1066.36 L143.936 1070.3 L114.26 1070.3 L114.26 1066.36 Z" fill="#000000" fill-rule="nonzero" fill-opacity="1" /><path clip-path="url(#clip320)" d="M154.839 1079.26 L162.477 1079.26 L162.477 1052.89 L154.167 1054.56 L154.167 1050.3 L162.431 1048.63 L167.107 1048.63 L167.107 1079.26 L174.746 1079.26 L174.746 1083.19 L154.839 1083.19 L154.839 1079.26 Z" fill="#000000" fill-rule="nonzero" fill-opacity="1" /><path clip-path="url(#clip320)" d="M162.802 785.545 Q159.19 785.545 157.362 789.109 Q155.556 792.651 155.556 799.781 Q155.556 806.887 157.362 810.452 Q159.19 813.994 162.802 813.994 Q166.436 813.994 168.241 810.452 Q170.07 806.887 170.07 799.781 Q170.07 792.651 168.241 789.109 Q166.436 785.545 162.802 785.545 M162.802 781.841 Q168.612 781.841 171.667 786.447 Q174.746 791.031 174.746 799.781 Q174.746 808.508 171.667 813.114 Q168.612 817.697 162.802 817.697 Q156.991 817.697 153.913 813.114 Q150.857 808.508 150.857 799.781 Q150.857 791.031 153.913 786.447 Q156.991 781.841 162.802 781.841 Z" fill="#000000" fill-rule="nonzero" fill-opacity="1" /><path clip-path="url(#clip320)" d="M154.839 546.926 L162.477 546.926 L162.477 520.561 L154.167 522.227 L154.167 517.968 L162.431 516.301 L167.107 516.301 L167.107 546.926 L174.746 546.926 L174.746 550.861 L154.839 550.861 L154.839 546.926 Z" fill="#000000" fill-rule="nonzero" fill-opacity="1" /><path clip-path="url(#clip320)" d="M158.427 280.762 L174.746 280.762 L174.746 284.697 L152.802 284.697 L152.802 280.762 Q155.464 278.007 160.047 273.378 Q164.653 268.725 165.834 267.382 Q168.079 264.859 168.959 263.123 Q169.862 261.364 169.862 259.674 Q169.862 256.919 167.917 255.183 Q165.996 253.447 162.894 253.447 Q160.695 253.447 158.241 254.211 Q155.811 254.975 153.033 256.526 L153.033 251.804 Q155.857 250.669 158.311 250.091 Q160.765 249.512 162.802 249.512 Q168.172 249.512 171.366 252.197 Q174.561 254.882 174.561 259.373 Q174.561 261.503 173.751 263.424 Q172.964 265.322 170.857 267.915 Q170.278 268.586 167.177 271.804 Q164.075 274.998 158.427 280.762 Z" fill="#000000" fill-rule="nonzero" fill-opacity="1" /><path clip-path="url(#clip320)" d="M18.0438 938.357 L24.314 938.357 Q22.5634 942.017 21.704 945.264 Q20.8447 948.51 20.8447 951.534 Q20.8447 956.786 22.8817 959.65 Q24.9187 962.483 28.6745 962.483 Q31.8255 962.483 33.4488 960.605 Q35.0402 958.695 36.0269 953.412 L36.8226 949.529 Q38.1912 942.335 41.6605 938.93 Q45.098 935.492 50.8908 935.492 Q57.7976 935.492 61.3624 940.139 Q64.9272 944.754 64.9272 953.698 Q64.9272 957.072 64.1633 960.892 Q63.3994 964.679 61.9035 968.753 L55.2831 968.753 Q57.4793 964.838 58.5933 961.083 Q59.7073 957.327 59.7073 953.698 Q59.7073 948.192 57.543 945.2 Q55.3786 942.208 51.3682 942.208 Q47.8671 942.208 45.8937 944.373 Q43.9204 946.505 42.9337 951.407 L42.1698 955.322 Q40.7375 962.515 37.682 965.729 Q34.6264 968.944 29.1837 968.944 Q22.8817 968.944 19.2532 964.52 Q15.6248 960.064 15.6248 952.266 Q15.6248 948.924 16.2295 945.455 Q16.8343 941.985 18.0438 938.357 Z" fill="#000000" fill-rule="nonzero" fill-opacity="1" /><path clip-path="url(#clip320)" d="M28.3562 925.721 L28.3562 919.865 L64.0042 919.865 L64.0042 925.721 L28.3562 925.721 M14.479 925.721 L14.479 919.865 L21.895 919.865 L21.895 925.721 L14.479 925.721 Z" fill="#000000" fill-rule="nonzero" fill-opacity="1" /><path clip-path="url(#clip320)" d="M45.7664 884.153 Q39.4007 884.153 35.8996 886.795 Q32.3984 889.405 32.3984 894.147 Q32.3984 898.858 35.8996 901.499 Q39.4007 904.109 45.7664 904.109 Q52.1003 904.109 55.6014 901.499 Q59.1026 898.858 59.1026 894.147 Q59.1026 889.405 55.6014 886.795 Q52.1003 884.153 45.7664 884.153 M59.58 878.296 Q68.683 878.296 73.1071 882.339 Q77.5631 886.381 77.5631 894.72 Q77.5631 897.807 77.0857 900.545 Q76.6401 903.282 75.6852 905.86 L69.9879 905.86 Q71.3884 903.282 72.0568 900.767 Q72.7252 898.253 72.7252 895.643 Q72.7252 889.882 69.7015 887.018 Q66.7096 884.153 60.6303 884.153 L57.7339 884.153 Q60.885 885.967 62.4446 888.8 Q64.0042 891.633 64.0042 895.579 Q64.0042 902.136 59.0071 906.146 Q54.01 910.157 45.7664 910.157 Q37.491 910.157 32.4939 906.146 Q27.4968 902.136 27.4968 895.579 Q27.4968 891.633 29.0564 888.8 Q30.616 885.967 33.7671 884.153 L28.3562 884.153 L28.3562 878.296 L59.58 878.296 Z" fill="#000000" fill-rule="nonzero" fill-opacity="1" /><path clip-path="url(#clip320)" d="M42.4881 836.601 L64.0042 836.601 L64.0042 842.458 L42.679 842.458 Q37.6183 842.458 35.1038 844.431 Q32.5894 846.404 32.5894 850.351 Q32.5894 855.093 35.6131 857.831 Q38.6368 860.568 43.8567 860.568 L64.0042 860.568 L64.0042 866.456 L28.3562 866.456 L28.3562 860.568 L33.8944 860.568 Q30.6797 858.467 29.0883 855.635 Q27.4968 852.77 27.4968 849.046 Q27.4968 842.903 31.3163 839.752 Q35.1038 836.601 42.4881 836.601 Z" fill="#000000" fill-rule="nonzero" fill-opacity="1" /><path clip-path="url(#clip320)" d="M46.0847 808.719 Q46.0847 815.817 47.7079 818.554 Q49.3312 821.292 53.2461 821.292 Q56.3653 821.292 58.2114 819.255 Q60.0256 817.186 60.0256 813.653 Q60.0256 808.783 56.5881 805.855 Q53.1188 802.895 47.3897 802.895 L46.0847 802.895 L46.0847 808.719 M43.6657 797.038 L64.0042 797.038 L64.0042 802.895 L58.5933 802.895 Q61.8398 804.9 63.3994 807.892 Q64.9272 810.884 64.9272 815.212 Q64.9272 820.687 61.8716 823.933 Q58.7843 827.148 53.6281 827.148 Q47.6125 827.148 44.5569 823.138 Q41.5014 819.095 41.5014 811.106 L41.5014 802.895 L40.9285 802.895 Q36.8862 802.895 34.6901 805.568 Q32.4621 808.21 32.4621 813.016 Q32.4621 816.072 33.1941 818.968 Q33.9262 821.864 35.3903 824.538 L29.9795 824.538 Q28.7381 821.323 28.1334 818.3 Q27.4968 815.276 27.4968 812.411 Q27.4968 804.677 31.5072 800.858 Q35.5176 797.038 43.6657 797.038 Z" fill="#000000" fill-rule="nonzero" fill-opacity="1" /><path clip-path="url(#clip320)" d="M14.479 784.975 L14.479 779.119 L64.0042 779.119 L64.0042 784.975 L14.479 784.975 Z" fill="#000000" fill-rule="nonzero" fill-opacity="1" /><path clip-path="url(#clip320)" d="M28.3562 750.346 L28.3562 744.139 L58.275 732.999 L28.3562 721.859 L28.3562 715.653 L64.0042 729.021 L64.0042 736.978 L28.3562 750.346 Z" fill="#000000" fill-rule="nonzero" fill-opacity="1" /><path clip-path="url(#clip320)" d="M46.0847 691.368 Q46.0847 698.465 47.7079 701.203 Q49.3312 703.94 53.2461 703.94 Q56.3653 703.94 58.2114 701.903 Q60.0256 699.834 60.0256 696.301 Q60.0256 691.431 56.5881 688.503 Q53.1188 685.543 47.3897 685.543 L46.0847 685.543 L46.0847 691.368 M43.6657 679.686 L64.0042 679.686 L64.0042 685.543 L58.5933 685.543 Q61.8398 687.548 63.3994 690.54 Q64.9272 693.532 64.9272 697.861 Q64.9272 703.335 61.8716 706.582 Q58.7843 709.796 53.6281 709.796 Q47.6125 709.796 44.5569 705.786 Q41.5014 701.744 41.5014 693.755 L41.5014 685.543 L40.9285 685.543 Q36.8862 685.543 34.6901 688.216 Q32.4621 690.858 32.4621 695.664 Q32.4621 698.72 33.1941 701.616 Q33.9262 704.513 35.3903 707.186 L29.9795 707.186 Q28.7381 703.972 28.1334 700.948 Q27.4968 697.924 27.4968 695.06 Q27.4968 687.325 31.5072 683.506 Q35.5176 679.686 43.6657 679.686 Z" fill="#000000" fill-rule="nonzero" fill-opacity="1" /><path clip-path="url(#clip320)" d="M14.479 667.623 L14.479 661.767 L64.0042 661.767 L64.0042 667.623 L14.479 667.623 Z" fill="#000000" fill-rule="nonzero" fill-opacity="1" /><path clip-path="url(#clip320)" d="M49.9359 650.118 L28.3562 650.118 L28.3562 644.261 L49.7131 644.261 Q54.7739 644.261 57.3202 642.288 Q59.8346 640.315 59.8346 636.368 Q59.8346 631.625 56.8109 628.888 Q53.7872 626.119 48.5673 626.119 L28.3562 626.119 L28.3562 620.263 L64.0042 620.263 L64.0042 626.119 L58.5296 626.119 Q61.7762 628.252 63.3676 631.084 Q64.9272 633.885 64.9272 637.609 Q64.9272 643.752 61.1078 646.935 Q57.2883 650.118 49.9359 650.118 M27.4968 635.381 L27.4968 635.381 Z" fill="#000000" fill-rule="nonzero" fill-opacity="1" /><path clip-path="url(#clip320)" d="M44.7161 577.708 L47.5806 577.708 L47.5806 604.635 Q53.6281 604.253 56.8109 601.006 Q59.9619 597.728 59.9619 591.903 Q59.9619 588.53 59.1344 585.378 Q58.3069 582.196 56.6518 579.076 L62.1899 579.076 Q63.5267 582.227 64.227 585.538 Q64.9272 588.848 64.9272 592.253 Q64.9272 600.784 59.9619 605.781 Q54.9967 610.746 46.5303 610.746 Q37.7774 610.746 32.6531 606.035 Q27.4968 601.293 27.4968 593.272 Q27.4968 586.079 32.1438 581.909 Q36.7589 577.708 44.7161 577.708 M42.9973 583.564 Q38.1912 583.628 35.3266 586.27 Q32.4621 588.88 32.4621 593.208 Q32.4621 598.11 35.2312 601.07 Q38.0002 603.998 43.0292 604.444 L42.9973 583.564 Z" fill="#000000" fill-rule="nonzero" fill-opacity="1" /><path clip-path="url(#clip320)" d="M643.409 14.0809 L643.409 22.0612 Q638.751 19.8332 634.619 18.7395 Q630.487 17.6457 626.639 17.6457 Q619.955 17.6457 616.309 20.2383 Q612.704 22.8309 612.704 27.611 Q612.704 31.6214 615.094 33.6873 Q617.524 35.7128 624.249 36.9686 L629.191 37.9813 Q638.346 39.7232 642.68 44.1387 Q647.055 48.5136 647.055 55.8863 Q647.055 64.6767 641.141 69.2137 Q635.267 73.7508 623.884 73.7508 Q619.59 73.7508 614.729 72.7785 Q609.908 71.8063 604.723 69.9024 L604.723 61.4765 Q609.706 64.2716 614.486 65.6895 Q619.266 67.1073 623.884 67.1073 Q630.892 67.1073 634.7 64.3527 Q638.508 61.598 638.508 56.4939 Q638.508 52.0379 635.753 49.5264 Q633.039 47.0148 626.801 45.759 L621.818 44.7868 Q612.663 42.9639 608.572 39.075 Q604.48 35.1862 604.48 28.2591 Q604.48 20.2383 610.111 15.6203 Q615.782 11.0023 625.707 11.0023 Q629.96 11.0023 634.376 11.7719 Q638.791 12.5416 643.409 14.0809 Z" fill="#000000" fill-rule="nonzero" fill-opacity="1" /><path clip-path="url(#clip320)" d="M666.864 14.324 L666.864 27.2059 L682.217 27.2059 L682.217 32.9987 L666.864 32.9987 L666.864 57.6282 Q666.864 63.1779 668.363 64.7578 Q669.902 66.3376 674.561 66.3376 L682.217 66.3376 L682.217 72.576 L674.561 72.576 Q665.932 72.576 662.651 69.3758 Q659.37 66.1351 659.37 57.6282 L659.37 32.9987 L653.901 32.9987 L653.901 27.2059 L659.37 27.2059 L659.37 14.324 L666.864 14.324 Z" fill="#000000" fill-rule="nonzero" fill-opacity="1" /><path clip-path="url(#clip320)" d="M718.311 34.1734 Q717.055 33.4443 715.556 33.1202 Q714.098 32.7556 712.315 32.7556 Q705.996 32.7556 702.593 36.8875 Q699.231 40.9789 699.231 48.6757 L699.231 72.576 L691.737 72.576 L691.737 27.2059 L699.231 27.2059 L699.231 34.2544 Q701.58 30.1225 705.348 28.1376 Q709.115 26.1121 714.503 26.1121 Q715.272 26.1121 716.204 26.2337 Q717.136 26.3147 718.27 26.5172 L718.311 34.1734 Z" fill="#000000" fill-rule="nonzero" fill-opacity="1" /><path clip-path="url(#clip320)" d="M725.359 54.671 L725.359 27.2059 L732.813 27.2059 L732.813 54.3874 Q732.813 60.8284 735.324 64.0691 Q737.836 67.2693 742.859 67.2693 Q748.895 67.2693 752.379 63.421 Q755.903 59.5726 755.903 52.9291 L755.903 27.2059 L763.357 27.2059 L763.357 72.576 L755.903 72.576 L755.903 65.6084 Q753.189 69.7404 749.584 71.7658 Q746.019 73.7508 741.279 73.7508 Q733.461 73.7508 729.41 68.8897 Q725.359 64.0286 725.359 54.671 M744.115 26.1121 L744.115 26.1121 Z" fill="#000000" fill-rule="nonzero" fill-opacity="1" /><path clip-path="url(#clip320)" d="M811.36 28.9478 L811.36 35.9153 Q808.2 34.1734 805 33.3227 Q801.84 32.4315 798.6 32.4315 Q791.348 32.4315 787.338 37.0496 Q783.328 41.6271 783.328 49.9314 Q783.328 58.2358 787.338 62.8538 Q791.348 67.4314 798.6 67.4314 Q801.84 67.4314 805 66.5807 Q808.2 65.6895 811.36 63.9476 L811.36 70.8341 Q808.241 72.2924 804.878 73.0216 Q801.557 73.7508 797.789 73.7508 Q787.541 73.7508 781.505 67.3098 Q775.469 60.8689 775.469 49.9314 Q775.469 38.832 781.545 32.472 Q787.662 26.1121 798.276 26.1121 Q801.719 26.1121 805 26.8413 Q808.281 27.5299 811.36 28.9478 Z" fill="#000000" fill-rule="nonzero" fill-opacity="1" /><path clip-path="url(#clip320)" d="M831.695 14.324 L831.695 27.2059 L847.048 27.2059 L847.048 32.9987 L831.695 32.9987 L831.695 57.6282 Q831.695 63.1779 833.194 64.7578 Q834.734 66.3376 839.392 66.3376 L847.048 66.3376 L847.048 72.576 L839.392 72.576 Q830.764 72.576 827.483 69.3758 Q824.201 66.1351 824.201 57.6282 L824.201 32.9987 L818.733 32.9987 L818.733 27.2059 L824.201 27.2059 L824.201 14.324 L831.695 14.324 Z" fill="#000000" fill-rule="nonzero" fill-opacity="1" /><path clip-path="url(#clip320)" d="M856.082 54.671 L856.082 27.2059 L863.536 27.2059 L863.536 54.3874 Q863.536 60.8284 866.047 64.0691 Q868.559 67.2693 873.582 67.2693 Q879.618 67.2693 883.101 63.421 Q886.626 59.5726 886.626 52.9291 L886.626 27.2059 L894.079 27.2059 L894.079 72.576 L886.626 72.576 L886.626 65.6084 Q883.912 69.7404 880.306 71.7658 Q876.742 73.7508 872.002 73.7508 Q864.184 73.7508 860.133 68.8897 Q856.082 64.0286 856.082 54.671 M874.838 26.1121 L874.838 26.1121 Z" fill="#000000" fill-rule="nonzero" fill-opacity="1" /><path clip-path="url(#clip320)" d="M935.723 34.1734 Q934.467 33.4443 932.968 33.1202 Q931.51 32.7556 929.727 32.7556 Q923.408 32.7556 920.005 36.8875 Q916.643 40.9789 916.643 48.6757 L916.643 72.576 L909.149 72.576 L909.149 27.2059 L916.643 27.2059 L916.643 34.2544 Q918.992 30.1225 922.76 28.1376 Q926.527 26.1121 931.915 26.1121 Q932.685 26.1121 933.616 26.2337 Q934.548 26.3147 935.682 26.5172 L935.723 34.1734 Z" fill="#000000" fill-rule="nonzero" fill-opacity="1" /><path clip-path="url(#clip320)" d="M980.526 48.0275 L980.526 51.6733 L946.255 51.6733 Q946.741 59.3701 950.873 63.421 Q955.045 67.4314 962.459 67.4314 Q966.753 67.4314 970.763 66.3781 Q974.814 65.3249 978.784 63.2184 L978.784 70.267 Q974.773 71.9684 970.56 72.8596 Q966.348 73.7508 962.013 73.7508 Q951.157 73.7508 944.797 67.4314 Q938.477 61.1119 938.477 50.3365 Q938.477 39.1965 944.473 32.6746 Q950.508 26.1121 960.717 26.1121 Q969.872 26.1121 975.178 32.0264 Q980.526 37.9003 980.526 48.0275 M973.072 45.84 Q972.991 39.7232 969.629 36.0774 Q966.307 32.4315 960.798 32.4315 Q954.559 32.4315 950.792 35.9558 Q947.065 39.4801 946.498 45.8805 L973.072 45.84 Z" fill="#000000" fill-rule="nonzero" fill-opacity="1" /><path clip-path="url(#clip320)" d="M1022.61 34.0924 L1022.61 9.54393 L1030.07 9.54393 L1030.07 72.576 L1022.61 72.576 L1022.61 65.7705 Q1020.27 69.8214 1016.66 71.8063 Q1013.09 73.7508 1008.07 73.7508 Q999.849 73.7508 994.663 67.1883 Q989.519 60.6258 989.519 49.9314 Q989.519 39.2371 994.663 32.6746 Q999.849 26.1121 1008.07 26.1121 Q1013.09 26.1121 1016.66 28.0971 Q1020.27 30.0415 1022.61 34.0924 M997.215 49.9314 Q997.215 58.1548 1000.58 62.8538 Q1003.98 67.5124 1009.89 67.5124 Q1015.81 67.5124 1019.21 62.8538 Q1022.61 58.1548 1022.61 49.9314 Q1022.61 41.7081 1019.21 37.0496 Q1015.81 32.3505 1009.89 32.3505 Q1003.98 32.3505 1000.58 37.0496 Q997.215 41.7081 997.215 49.9314 Z" fill="#000000" fill-rule="nonzero" fill-opacity="1" /><path clip-path="url(#clip320)" d="M1108.37 14.0809 L1108.37 22.0612 Q1103.71 19.8332 1099.58 18.7395 Q1095.45 17.6457 1091.6 17.6457 Q1084.92 17.6457 1081.27 20.2383 Q1077.67 22.8309 1077.67 27.611 Q1077.67 31.6214 1080.06 33.6873 Q1082.49 35.7128 1089.21 36.9686 L1094.15 37.9813 Q1103.31 39.7232 1107.64 44.1387 Q1112.02 48.5136 1112.02 55.8863 Q1112.02 64.6767 1106.1 69.2137 Q1100.23 73.7508 1088.85 73.7508 Q1084.55 73.7508 1079.69 72.7785 Q1074.87 71.8063 1069.69 69.9024 L1069.69 61.4765 Q1074.67 64.2716 1079.45 65.6895 Q1084.23 67.1073 1088.85 67.1073 Q1095.85 67.1073 1099.66 64.3527 Q1103.47 61.598 1103.47 56.4939 Q1103.47 52.0379 1100.72 49.5264 Q1098 47.0148 1091.76 45.759 L1086.78 44.7868 Q1077.63 42.9639 1073.53 39.075 Q1069.44 35.1862 1069.44 28.2591 Q1069.44 20.2383 1075.07 15.6203 Q1080.75 11.0023 1090.67 11.0023 Q1094.92 11.0023 1099.34 11.7719 Q1103.75 12.5416 1108.37 14.0809 Z" fill="#000000" fill-rule="nonzero" fill-opacity="1" /><path clip-path="url(#clip320)" d="M1124.45 27.2059 L1131.91 27.2059 L1131.91 72.576 L1124.45 72.576 L1124.45 27.2059 M1124.45 9.54393 L1131.91 9.54393 L1131.91 18.9825 L1124.45 18.9825 L1124.45 9.54393 Z" fill="#000000" fill-rule="nonzero" fill-opacity="1" /><path clip-path="url(#clip320)" d="M1177.36 49.3643 Q1177.36 41.2625 1174 36.8065 Q1170.68 32.3505 1164.64 32.3505 Q1158.64 32.3505 1155.28 36.8065 Q1151.96 41.2625 1151.96 49.3643 Q1151.96 57.4256 1155.28 61.8816 Q1158.64 66.3376 1164.64 66.3376 Q1170.68 66.3376 1174 61.8816 Q1177.36 57.4256 1177.36 49.3643 M1184.81 66.9452 Q1184.81 78.5308 1179.67 84.1616 Q1174.52 89.8329 1163.91 89.8329 Q1159.98 89.8329 1156.5 89.2252 Q1153.01 88.6581 1149.73 87.4428 L1149.73 80.1917 Q1153.01 81.9741 1156.21 82.8248 Q1159.41 83.6755 1162.74 83.6755 Q1170.07 83.6755 1173.71 79.8271 Q1177.36 76.0193 1177.36 68.282 L1177.36 64.5957 Q1175.05 68.6061 1171.44 70.5911 Q1167.84 72.576 1162.82 72.576 Q1154.47 72.576 1149.37 66.2161 Q1144.26 59.8562 1144.26 49.3643 Q1144.26 38.832 1149.37 32.472 Q1154.47 26.1121 1162.82 26.1121 Q1167.84 26.1121 1171.44 28.0971 Q1175.05 30.082 1177.36 34.0924 L1177.36 27.2059 L1184.81 27.2059 L1184.81 66.9452 Z" fill="#000000" fill-rule="nonzero" fill-opacity="1" /><path clip-path="url(#clip320)" d="M1237.88 45.1919 L1237.88 72.576 L1230.43 72.576 L1230.43 45.4349 Q1230.43 38.994 1227.91 35.7938 Q1225.4 32.5936 1220.38 32.5936 Q1214.34 32.5936 1210.86 36.4419 Q1207.38 40.2903 1207.38 46.9338 L1207.38 72.576 L1199.88 72.576 L1199.88 27.2059 L1207.38 27.2059 L1207.38 34.2544 Q1210.05 30.163 1213.66 28.1376 Q1217.3 26.1121 1222.04 26.1121 Q1229.86 26.1121 1233.87 30.9732 Q1237.88 35.7938 1237.88 45.1919 Z" fill="#000000" fill-rule="nonzero" fill-opacity="1" /><path clip-path="url(#clip320)" d="M1273.37 49.7694 Q1264.33 49.7694 1260.85 51.8354 Q1257.36 53.9013 1257.36 58.8839 Q1257.36 62.8538 1259.96 65.2034 Q1262.59 67.5124 1267.09 67.5124 Q1273.28 67.5124 1277.01 63.1374 Q1280.78 58.7219 1280.78 51.4303 L1280.78 49.7694 L1273.37 49.7694 M1288.23 46.6907 L1288.23 72.576 L1280.78 72.576 L1280.78 65.6895 Q1278.23 69.8214 1274.42 71.8063 Q1270.61 73.7508 1265.1 73.7508 Q1258.13 73.7508 1254 69.8619 Q1249.91 65.9325 1249.91 59.3701 Q1249.91 51.7138 1255.01 47.825 Q1260.16 43.9361 1270.33 43.9361 L1280.78 43.9361 L1280.78 43.2069 Q1280.78 38.0623 1277.38 35.2672 Q1274.01 32.4315 1267.9 32.4315 Q1264.01 32.4315 1260.32 33.3632 Q1256.64 34.295 1253.23 36.1584 L1253.23 29.2718 Q1257.32 27.692 1261.17 26.9223 Q1265.02 26.1121 1268.67 26.1121 Q1278.51 26.1121 1283.37 31.2163 Q1288.23 36.3204 1288.23 46.6907 Z" fill="#000000" fill-rule="nonzero" fill-opacity="1" /><path clip-path="url(#clip320)" d="M1303.59 9.54393 L1311.04 9.54393 L1311.04 72.576 L1303.59 72.576 L1303.59 9.54393 Z" fill="#000000" fill-rule="nonzero" fill-opacity="1" /><path clip-path="url(#clip320)" d="M1382.01 44.2197 Q1384.64 45.1109 1387.11 48.0275 Q1389.63 50.9442 1392.14 56.0483 L1400.44 72.576 L1391.65 72.576 L1383.91 57.061 Q1380.92 50.9847 1378.08 48.9997 Q1375.29 47.0148 1370.43 47.0148 L1361.51 47.0148 L1361.51 72.576 L1353.33 72.576 L1353.33 12.096 L1371.8 12.096 Q1382.17 12.096 1387.28 16.4305 Q1392.38 20.7649 1392.38 29.5149 Q1392.38 35.2267 1389.71 38.994 Q1387.07 42.7613 1382.01 44.2197 M1361.51 18.8205 L1361.51 40.2903 L1371.8 40.2903 Q1377.72 40.2903 1380.71 37.5762 Q1383.75 34.8216 1383.75 29.5149 Q1383.75 24.2082 1380.71 21.5346 Q1377.72 18.8205 1371.8 18.8205 L1361.51 18.8205 Z" fill="#000000" fill-rule="nonzero" fill-opacity="1" /><path clip-path="url(#clip320)" d="M1445.73 48.0275 L1445.73 51.6733 L1411.46 51.6733 Q1411.95 59.3701 1416.08 63.421 Q1420.25 67.4314 1427.66 67.4314 Q1431.96 67.4314 1435.97 66.3781 Q1440.02 65.3249 1443.99 63.2184 L1443.99 70.267 Q1439.98 71.9684 1435.77 72.8596 Q1431.55 73.7508 1427.22 73.7508 Q1416.36 73.7508 1410 67.4314 Q1403.68 61.1119 1403.68 50.3365 Q1403.68 39.1965 1409.68 32.6746 Q1415.71 26.1121 1425.92 26.1121 Q1435.08 26.1121 1440.38 32.0264 Q1445.73 37.9003 1445.73 48.0275 M1438.28 45.84 Q1438.2 39.7232 1434.83 36.0774 Q1431.51 32.4315 1426 32.4315 Q1419.77 32.4315 1416 35.9558 Q1412.27 39.4801 1411.7 45.8805 L1438.28 45.84 Z" fill="#000000" fill-rule="nonzero" fill-opacity="1" /><path clip-path="url(#clip320)" d="M1490.62 28.9478 L1490.62 35.9153 Q1487.46 34.1734 1484.26 33.3227 Q1481.1 32.4315 1477.86 32.4315 Q1470.6 32.4315 1466.59 37.0496 Q1462.58 41.6271 1462.58 49.9314 Q1462.58 58.2358 1466.59 62.8538 Q1470.6 67.4314 1477.86 67.4314 Q1481.1 67.4314 1484.26 66.5807 Q1487.46 65.6895 1490.62 63.9476 L1490.62 70.8341 Q1487.5 72.2924 1484.13 73.0216 Q1480.81 73.7508 1477.05 73.7508 Q1466.8 73.7508 1460.76 67.3098 Q1454.72 60.8689 1454.72 49.9314 Q1454.72 38.832 1460.8 32.472 Q1466.92 26.1121 1477.53 26.1121 Q1480.97 26.1121 1484.26 26.8413 Q1487.54 27.5299 1490.62 28.9478 Z" fill="#000000" fill-rule="nonzero" fill-opacity="1" /><path clip-path="url(#clip320)" d="M1521.16 32.4315 Q1515.16 32.4315 1511.68 37.1306 Q1508.2 41.7891 1508.2 49.9314 Q1508.2 58.0738 1511.64 62.7728 Q1515.12 67.4314 1521.16 67.4314 Q1527.11 67.4314 1530.6 62.7323 Q1534.08 58.0333 1534.08 49.9314 Q1534.08 41.8701 1530.6 37.1711 Q1527.11 32.4315 1521.16 32.4315 M1521.16 26.1121 Q1530.88 26.1121 1536.43 32.4315 Q1541.98 38.7509 1541.98 49.9314 Q1541.98 61.0714 1536.43 67.4314 Q1530.88 73.7508 1521.16 73.7508 Q1511.4 73.7508 1505.85 67.4314 Q1500.34 61.0714 1500.34 49.9314 Q1500.34 38.7509 1505.85 32.4315 Q1511.4 26.1121 1521.16 26.1121 Z" fill="#000000" fill-rule="nonzero" fill-opacity="1" /><path clip-path="url(#clip320)" d="M1592.05 45.1919 L1592.05 72.576 L1584.6 72.576 L1584.6 45.4349 Q1584.6 38.994 1582.08 35.7938 Q1579.57 32.5936 1574.55 32.5936 Q1568.51 32.5936 1565.03 36.4419 Q1561.55 40.2903 1561.55 46.9338 L1561.55 72.576 L1554.05 72.576 L1554.05 27.2059 L1561.55 27.2059 L1561.55 34.2544 Q1564.22 30.163 1567.83 28.1376 Q1571.47 26.1121 1576.21 26.1121 Q1584.03 26.1121 1588.04 30.9732 Q1592.05 35.7938 1592.05 45.1919 Z" fill="#000000" fill-rule="nonzero" fill-opacity="1" /><path clip-path="url(#clip320)" d="M1635.84 28.5427 L1635.84 35.5912 Q1632.68 33.9709 1629.28 33.1607 Q1625.88 32.3505 1622.23 32.3505 Q1616.68 32.3505 1613.88 34.0519 Q1611.13 35.7533 1611.13 39.156 Q1611.13 41.7486 1613.11 43.2475 Q1615.1 44.7058 1621.1 46.0426 L1623.65 46.6097 Q1631.59 48.3111 1634.91 51.4303 Q1638.27 54.509 1638.27 60.0587 Q1638.27 66.3781 1633.25 70.0644 Q1628.27 73.7508 1619.52 73.7508 Q1615.87 73.7508 1611.9 73.0216 Q1607.97 72.3329 1603.6 70.9151 L1603.6 63.2184 Q1607.73 65.3654 1611.74 66.4591 Q1615.75 67.5124 1619.68 67.5124 Q1624.94 67.5124 1627.78 65.73 Q1630.61 63.9071 1630.61 60.6258 Q1630.61 57.5877 1628.55 55.9673 Q1626.52 54.3469 1619.6 52.8481 L1617 52.2405 Q1610.08 50.7821 1607 47.7845 Q1603.92 44.7463 1603.92 39.4801 Q1603.92 33.0797 1608.46 29.5959 Q1612.99 26.1121 1621.34 26.1121 Q1625.47 26.1121 1629.12 26.7198 Q1632.76 27.3274 1635.84 28.5427 Z" fill="#000000" fill-rule="nonzero" fill-opacity="1" /><path clip-path="url(#clip320)" d="M1657.51 14.324 L1657.51 27.2059 L1672.87 27.2059 L1672.87 32.9987 L1657.51 32.9987 L1657.51 57.6282 Q1657.51 63.1779 1659.01 64.7578 Q1660.55 66.3376 1665.21 66.3376 L1672.87 66.3376 L1672.87 72.576 L1665.21 72.576 Q1656.58 72.576 1653.3 69.3758 Q1650.02 66.1351 1650.02 57.6282 L1650.02 32.9987 L1644.55 32.9987 L1644.55 27.2059 L1650.02 27.2059 L1650.02 14.324 L1657.51 14.324 Z" fill="#000000" fill-rule="nonzero" fill-opacity="1" /><path clip-path="url(#clip320)" d="M1708.96 34.1734 Q1707.7 33.4443 1706.2 33.1202 Q1704.75 32.7556 1702.96 32.7556 Q1696.64 32.7556 1693.24 36.8875 Q1689.88 40.9789 1689.88 48.6757 L1689.88 72.576 L1682.39 72.576 L1682.39 27.2059 L1689.88 27.2059 L1689.88 34.2544 Q1692.23 30.1225 1696 28.1376 Q1699.76 26.1121 1705.15 26.1121 Q1705.92 26.1121 1706.85 26.2337 Q1707.78 26.3147 1708.92 26.5172 L1708.96 34.1734 Z" fill="#000000" fill-rule="nonzero" fill-opacity="1" /><path clip-path="url(#clip320)" d="M1716.01 54.671 L1716.01 27.2059 L1723.46 27.2059 L1723.46 54.3874 Q1723.46 60.8284 1725.97 64.0691 Q1728.48 67.2693 1733.51 67.2693 Q1739.54 67.2693 1743.03 63.421 Q1746.55 59.5726 1746.55 52.9291 L1746.55 27.2059 L1754.01 27.2059 L1754.01 72.576 L1746.55 72.576 L1746.55 65.6084 Q1743.84 69.7404 1740.23 71.7658 Q1736.67 73.7508 1731.93 73.7508 Q1724.11 73.7508 1720.06 68.8897 Q1716.01 64.0286 1716.01 54.671 M1734.76 26.1121 L1734.76 26.1121 Z" fill="#000000" fill-rule="nonzero" fill-opacity="1" /><path clip-path="url(#clip320)" d="M1802.01 28.9478 L1802.01 35.9153 Q1798.85 34.1734 1795.65 33.3227 Q1792.49 32.4315 1789.25 32.4315 Q1782 32.4315 1777.99 37.0496 Q1773.98 41.6271 1773.98 49.9314 Q1773.98 58.2358 1777.99 62.8538 Q1782 67.4314 1789.25 67.4314 Q1792.49 67.4314 1795.65 66.5807 Q1798.85 65.6895 1802.01 63.9476 L1802.01 70.8341 Q1798.89 72.2924 1795.53 73.0216 Q1792.21 73.7508 1788.44 73.7508 Q1778.19 73.7508 1772.15 67.3098 Q1766.12 60.8689 1766.12 49.9314 Q1766.12 38.832 1772.19 32.472 Q1778.31 26.1121 1788.92 26.1121 Q1792.37 26.1121 1795.65 26.8413 Q1798.93 27.5299 1802.01 28.9478 Z" fill="#000000" fill-rule="nonzero" fill-opacity="1" /><path clip-path="url(#clip320)" d="M1822.34 14.324 L1822.34 27.2059 L1837.7 27.2059 L1837.7 32.9987 L1822.34 32.9987 L1822.34 57.6282 Q1822.34 63.1779 1823.84 64.7578 Q1825.38 66.3376 1830.04 66.3376 L1837.7 66.3376 L1837.7 72.576 L1830.04 72.576 Q1821.41 72.576 1818.13 69.3758 Q1814.85 66.1351 1814.85 57.6282 L1814.85 32.9987 L1809.38 32.9987 L1809.38 27.2059 L1814.85 27.2059 L1814.85 14.324 L1822.34 14.324 Z" fill="#000000" fill-rule="nonzero" fill-opacity="1" /><path clip-path="url(#clip320)" d="M1847.5 27.2059 L1854.95 27.2059 L1854.95 72.576 L1847.5 72.576 L1847.5 27.2059 M1847.5 9.54393 L1854.95 9.54393 L1854.95 18.9825 L1847.5 18.9825 L1847.5 9.54393 Z" fill="#000000" fill-rule="nonzero" fill-opacity="1" /><path clip-path="url(#clip320)" d="M1888.13 32.4315 Q1882.14 32.4315 1878.65 37.1306 Q1875.17 41.7891 1875.17 49.9314 Q1875.17 58.0738 1878.61 62.7728 Q1882.09 67.4314 1888.13 67.4314 Q1894.09 67.4314 1897.57 62.7323 Q1901.05 58.0333 1901.05 49.9314 Q1901.05 41.8701 1897.57 37.1711 Q1894.09 32.4315 1888.13 32.4315 M1888.13 26.1121 Q1897.85 26.1121 1903.4 32.4315 Q1908.95 38.7509 1908.95 49.9314 Q1908.95 61.0714 1903.4 67.4314 Q1897.85 73.7508 1888.13 73.7508 Q1878.37 73.7508 1872.82 67.4314 Q1867.31 61.0714 1867.31 49.9314 Q1867.31 38.7509 1872.82 32.4315 Q1878.37 26.1121 1888.13 26.1121 Z" fill="#000000" fill-rule="nonzero" fill-opacity="1" /><path clip-path="url(#clip320)" d="M1959.02 45.1919 L1959.02 72.576 L1951.57 72.576 L1951.57 45.4349 Q1951.57 38.994 1949.06 35.7938 Q1946.54 32.5936 1941.52 32.5936 Q1935.49 32.5936 1932 36.4419 Q1928.52 40.2903 1928.52 46.9338 L1928.52 72.576 L1921.02 72.576 L1921.02 27.2059 L1928.52 27.2059 L1928.52 34.2544 Q1931.19 30.163 1934.8 28.1376 Q1938.44 26.1121 1943.18 26.1121 Q1951 26.1121 1955.01 30.9732 Q1959.02 35.7938 1959.02 45.1919 Z" fill="#000000" fill-rule="nonzero" fill-opacity="1" /><polyline clip-path="url(#clip321)" style="stroke:#009af9; stroke-linecap:round; stroke-linejoin:round; stroke-width:8; stroke-opacity:0.5; fill:none" points="271.369,846.384 275.323,580.763 279.278,341.253 283.232,207.266 287.187,214.833 291.142,341.237 295.096,516.626 299.051,656.956 303.005,702.728 306.96,645.483 310.914,529.885 314.869,430.753 318.823,416.071 322.778,513.481 326.732,695.978 330.687,893.43 334.641,1024.45 338.596,1033.67 342.55,917.075 346.505,723.69 350.459,533 354.414,418.82 358.368,416.43 362.323,508.17 366.278,633.916 370.232,721.207 374.187,720.685 378.141,630.178 382.096,496.193 386.05,392.261 390.005,384.376 393.959,499.736 397.914,713.378 401.868,958.817 405.823,1157.65 409.777,1254.29 413.732,1239.68 417.686,1153.24 421.641,1062.41 425.595,1029.64 429.55,1082.35 433.505,1200.03 437.459,1324.17 441.414,1386.4 445.368,1341.36 449.323,1188.99 453.277,975.773 457.232,774.447 461.186,651.712 465.141,638.909 469.095,719.226 473.05,837.129 477.004,925.362 480.959,936.731 484.913,865.814 488.868,750.571 492.822,653.341 496.777,630.319 500.732,703.942 504.686,851.136 508.641,1012.89 512.595,1120.63 516.55,1127.07 520.504,1027.23 524.459,859.942 528.413,689.429 532.368,575.583 536.322,546.993 540.277,589.125 544.231,652.966 548.186,679.843 552.14,630.572 556.095,505.218 560.049,344.213 564.004,210.371 567.959,160.256 571.913,218.288 575.868,365.585 579.822,548.629 583.777,703.588 587.731,784.878 591.686,784.723 595.64,734.776 599.595,689.314 603.549,698.115 607.504,781.851 611.458,921.538 615.413,1066.91 619.367,1159.7 623.322,1160.88 627.276,1069.15 631.231,921.96 635.185,778.933 639.14,695.168 643.095,697.077 647.049,771.77 651.004,874.733 654.958,951.97 658.913,966.079 662.867,914.011 666.822,828.28 670.776,761.194 674.731,759.614 678.685,842.139 682.64,989.403 686.594,1151.98 690.549,1272.15 694.503,1309.44 698.458,1258.01 702.412,1148.05 706.367,1030.69 710.322,953.647 714.276,939.123 718.231,974.135 722.185,1017.74 726.14,1021.5 730.094,953.586 734.049,814.953 738.003,640.272 741.958,482.998 745.912,391.668 749.867,388.437 753.821,459.756 757.776,563.391 761.73,648.353 765.685,678.344 769.639,647.814 773.594,583.254 777.549,529.342 781.503,526.612 785.458,591.227 789.412,706.369 793.367,829.242 797.321,910.375 801.276,916.194 805.23,844.344 809.185,724.7 813.139,605.699 817.094,532.452 821.048,526.825 825.003,578.689 828.957,652.21 832.912,704.037 836.866,704.697 840.821,653.136 844.776,577.601 848.73,522.526 852.685,527.628 856.639,609.009 860.594,751.087 864.548,913.073 868.503,1046.91 872.457,1118.32 876.412,1121.21 880.366,1078.87 884.321,1031.65 888.275,1017 892.23,1051.35 896.184,1122.28 900.139,1194.56 904.093,1227.13 908.048,1192.96 912.003,1092.54 915.957,954.547 919.912,823.561 923.866,740.485 927.821,724.767 931.775,766.629 935.73,832.743 939.684,882.554 943.639,887.497 947.593,844.138 951.548,775.158 955.502,717.888 959.457,705.873 963.411,752.203 967.366,842.447 971.32,940.475 975.275,1004.45 979.229,1005.53 983.184,940.582 987.139,833.121 991.093,722.156 995.048,644.215 999.002,617.002 1002.96,632.216 1006.91,660.756 1010.87,667.692 1014.82,629.857 1018.77,547.77 1022.73,446.274 1026.68,363.631 1030.64,334.187 1034.59,372.692 1038.55,467.559 1042.5,586.117 1046.46,689.339 1050.41,749.154 1054.37,760.307 1058.32,741.384 1062.27,724.677 1066.23,739.815 1070.18,798.911 1074.14,890.2 1078.09,983.122 1082.05,1042.42 1086,1044.6 1089.96,989.094 1093.91,898.914 1097.87,810.515 1101.82,757.671 1105.77,756.801 1109.73,800.514 1113.68,862.229 1117.64,909.535 1121.59,919.945 1125.55,891.632 1129.5,844.158 1133.46,808.937 1137.41,813.987 1141.37,870.152 1145.32,965.258 1149.27,1068.93 1153.23,1145.8 1157.18,1170.97 1161.14,1140.6 1165.09,1072.74 1169.05,998.198 1173,945.904 1176.96,929.445 1180.91,941.262 1184.86,956.977 1188.82,947.769 1192.77,894.885 1196.73,799.445 1200.68,682.929 1204.64,578.128 1208.59,514.777 1212.55,506.545 1216.5,545.386 1220.46,605.771 1224.41,656.751 1228.36,676.155 1232.32,660.312 1236.27,624.865 1240.23,596.421 1244.18,599.069 1248.14,642.182 1252.09,715.236 1256.05,792.071 1260,842.588 1263.96,846.416 1267.91,802.18 1271.86,728.113 1275.82,653.772 1279.77,606.776 1283.73,600.731 1287.68,629.908 1291.64,673.019 1295.59,704.184 1299.55,705.85 1303.5,677.563 1307.46,636.487 1311.41,609.46 1315.36,620.352 1319.32,678.638 1323.27,774.538 1327.23,882.952 1331.18,974.342 1335.14,1027.49 1339.09,1038.26 1343.05,1020.33 1347,997.765 1350.96,992.996 1354.91,1015.83 1358.86,1058.76 1362.82,1100.57 1366.77,1116.64 1370.73,1090.93 1374.68,1024.11 1378.64,933.937 1382.59,847.812 1386.55,790.88 1390.5,775.267 1394.45,795.344 1398.41,831.151 1402.36,858.255 1406.32,859.37 1410.27,832.308 1414.23,790.594 1418.18,756.536 1422.14,750.105 1426.09,778.875 1430.05,833.776 1434,892.644 1437.95,929.921 1441.91,927.984 1445.86,884.858 1449.82,814.796 1453.77,741.516 1457.73,687.337 1461.68,663.27 1465.64,664.659 1469.59,674.304 1473.55,671.485 1477.5,642.586 1481.45,588.271 1485.41,523.85 1489.36,472.663 1493.32,455.576 1497.27,481.5 1501.23,543.301 1505.18,620.996 1509.14,690.671 1513.09,734.979 1517.05,750.337 1521,747.571 1524.95,745.814 1528.91,762.633 1532.86,805.062 1536.82,865.773 1540.77,926.164 1544.73,964.887 1548.68,967.811 1552.64,934.76 1556.59,879.885 1560.55,825.531 1564.5,792.443 1568.45,790.87 1572.41,816.636 1576.36,853.907 1580.32,883.257 1584.27,891.183 1588.23,876.591 1592.18,851.23 1596.14,833.938 1600.09,841.422 1604.05,879.943 1608,941.802 1611.95,1008.28 1615.91,1057.65 1619.86,1074.56 1623.82,1056.45 1627.77,1014.08 1631.73,966.031 1635.68,929.835 1639.64,913.837 1643.59,913.682 1647.54,914.916 1651.5,900.453 1655.45,859.332 1659.41,792.626 1663.36,713.704 1667.32,642.742 1671.27,598.007 1675.23,587.967 1679.18,607.87 1683.14,642.292 1687.09,672.442 1691.04,684.753 1695,676.781 1698.95,657.713 1702.91,643.34 1706.86,647.922 1710.82,676.836 1714.77,723.46 1718.73,771.77 1722.68,803.434 1726.64,806.082 1730.59,778.919 1734.54,733.089 1738.5,686.655 1742.45,656.564 1746.41,651.319 1750.36,667.743 1754.32,693.236 1758.27,712.389 1762.23,714.782 1766.18,700.267 1770.14,679.278 1774.09,668.015 1778.04,680.797 1782,723.158 1785.95,788.915 1789.91,862.569 1793.86,925.907 1797.82,965.739 1801.77,979.219 1805.73,974.321 1809.68,965.36 1813.64,965.724 1817.59,981.255 1821.54,1007.4 1825.5,1031.4 1829.45,1038.54 1833.41,1019.32 1837.36,974.419 1841.32,914.893 1845.27,857.621 1849.23,818.117 1853.18,803.978 1857.13,812.014 1861.09,830.301 1865.04,844.133 1869,843.053 1872.95,825.664 1876.91,800.006 1880.86,779.381 1884.82,775.64 1888.77,793.118 1892.73,826.085 1896.68,860.914 1900.63,881.967 1904.59,878.461 1908.54,849.151 1912.5,802.677 1916.45,753.485 1920.41,715.241 1924.36,694.83 1928.32,689.705 1932.27,689.759 1936.23,682.762 1940.18,660.768 1944.13,624.436 1948.09,583.233 1952.04,551.421 1956,541.689 1959.95,559.415 1963.91,600.192 1967.86,651.769 1971.82,699.455 1975.77,732.486 1979.73,748.393 1983.68,753.419 1987.63,758.841 1991.59,775.02 1995.54,805.992 1999.5,847.165 2003.45,887.197 2007.41,913.154 2011.36,916.542 2015.32,897.369 2019.27,864.364 2023.23,831.249 2027.18,810.799 2031.13,809.442 2035.09,824.861 2039.04,847.655 2043,866.202 2046.95,872.402 2050.91,865.597 2054.86,852.836 2058.82,845.389 2062.77,853.186 2066.72,879.795 2070.68,920.317 2074.63,963.174 2078.59,994.984 2082.54,1006.25 2086.5,995.25 2090.45,968.387 2094.41,936.861 2098.36,911.297 2102.32,896.845 2106.27,891.032 2110.22,885.333 2114.18,869.673 2118.13,837.705 2122.09,790.371 2126.04,736.039 2130,687.167 2133.95,655.012 2137.91,644.85 2141.86,653.891 2145.82,672.827 2149.77,690.242 2153.72,697.819 2157.68,693.921 2161.63,683.906 2165.59,677.106 2169.54,681.922 2173.5,701.394 2177.45,731.329 2181.41,761.892 2185.36,781.898 2189.32,783.832 2193.27,767.238 2197.22,738.939 2201.18,709.995 2205.13,690.827 2209.09,686.778 2213.04,696.13 2217,711.463 2220.95,723.631 2224.91,726.47 2228.86,719.981 2232.82,710.506 2236.77,707.816 2240.72,720.479 2244.68,751.695 2248.63,797.523 2252.59,848.354 2256.54,892.912 2260.5,922.956 2264.45,936.511 2268.41,938.177 2272.36,936.431 2276.31,939.238 2280.27,950.063 2284.22,966.143 2288.18,979.822 2292.13,982.298 "/>
<polyline clip-path="url(#clip321)" style="stroke:#e26f46; stroke-linecap:round; stroke-linejoin:round; stroke-width:8; stroke-opacity:1; fill:none" stroke-dasharray="32, 20" points="271.369,846.384 275.323,580.763 279.278,341.253 283.232,207.266 287.187,214.833 291.142,341.237 295.096,516.626 299.051,656.956 303.005,702.728 306.96,645.483 310.914,529.885 314.869,430.753 318.823,416.071 322.778,513.481 326.732,695.978 330.687,893.43 334.641,1024.45 338.596,1033.67 342.55,917.075 346.505,723.69 350.459,533 354.414,418.82 358.368,416.43 362.323,508.17 366.278,633.916 370.232,721.207 374.187,720.685 378.141,630.178 382.096,496.193 386.05,392.261 390.005,384.376 393.959,499.736 397.914,713.378 401.868,958.817 405.823,1157.65 409.777,1254.29 413.732,1239.68 417.686,1153.24 421.641,1062.41 425.595,1029.64 429.55,1082.35 433.505,1200.03 437.459,1324.17 441.414,1386.4 445.368,1341.36 449.323,1188.99 453.277,975.773 457.232,774.447 461.186,651.712 465.141,638.909 469.095,719.226 473.05,837.129 477.004,925.362 480.959,936.731 484.913,865.814 488.868,750.571 492.822,653.341 496.777,630.319 500.732,703.942 504.686,851.136 508.641,1012.89 512.595,1120.63 516.55,1127.07 520.504,1027.23 524.459,859.942 528.413,689.429 532.368,575.583 536.322,546.993 540.277,589.125 544.231,652.966 548.186,679.843 552.14,630.572 556.095,505.218 560.049,344.213 564.004,210.371 567.959,160.256 571.913,218.288 575.868,365.585 579.822,548.629 583.777,703.588 587.731,784.878 591.686,784.723 595.64,734.776 599.595,689.314 603.549,698.115 607.504,781.851 611.458,921.538 615.413,1066.91 619.367,1159.7 623.322,1160.88 627.276,1069.15 631.231,921.96 635.185,778.933 639.14,695.168 643.095,697.077 647.049,771.77 651.004,874.733 654.958,951.97 658.913,966.079 662.867,914.011 666.822,828.28 670.776,761.194 674.731,759.614 678.685,842.139 682.64,989.403 686.594,1151.98 690.549,1272.15 694.503,1309.44 698.458,1258.01 702.412,1148.05 706.367,1030.69 710.322,953.647 714.276,939.123 718.231,974.135 722.185,1017.74 726.14,1021.5 730.094,953.586 734.049,814.953 738.003,640.272 741.958,482.998 745.912,391.668 749.867,388.437 753.821,459.756 757.776,563.391 761.73,648.353 765.685,678.344 769.639,647.814 773.594,583.254 777.549,529.342 781.503,526.612 785.458,591.227 789.412,706.369 793.367,829.242 797.321,910.375 801.276,916.194 805.23,844.344 809.185,724.7 813.139,605.699 817.094,532.452 821.048,526.825 825.003,578.689 828.957,652.21 832.912,704.037 836.866,704.697 840.821,653.136 844.776,577.601 848.73,522.526 852.685,527.628 856.639,609.009 860.594,751.087 864.548,913.073 868.503,1046.91 872.457,1118.32 876.412,1121.21 880.366,1078.87 884.321,1031.65 888.275,1017 892.23,1051.35 896.184,1122.28 900.139,1194.56 904.093,1227.13 908.048,1192.96 912.003,1092.54 915.957,954.547 919.912,823.561 923.866,740.485 927.821,724.767 931.775,766.629 935.73,832.743 939.684,882.554 943.639,887.497 947.593,844.138 951.548,775.158 955.502,717.888 959.457,705.873 963.411,752.203 967.366,842.447 971.32,940.475 975.275,1004.45 979.229,1005.53 983.184,940.582 987.139,833.121 991.093,722.156 995.048,644.215 999.002,617.002 1002.96,632.216 1006.91,660.756 1010.87,667.692 1014.82,629.857 1018.77,547.77 1022.73,446.274 1026.68,363.631 1030.64,334.187 1034.59,372.692 1038.55,467.559 1042.5,586.117 1046.46,689.339 1050.41,749.154 1054.37,760.307 1058.32,741.384 1062.27,724.677 1066.23,739.815 1070.18,798.911 1074.14,890.2 1078.09,983.122 1082.05,1042.42 1086,1044.6 1089.96,989.094 1093.91,898.914 1097.87,810.515 1101.82,757.671 1105.77,756.801 1109.73,800.514 1113.68,862.229 1117.64,909.535 1121.59,919.945 1125.55,891.632 1129.5,844.158 1133.46,808.937 1137.41,813.987 1141.37,870.152 1145.32,965.258 1149.27,1068.93 1153.23,1145.8 1157.18,1170.97 1161.14,1140.6 1165.09,1072.74 1169.05,998.198 1173,945.904 1176.96,929.445 1180.91,941.262 1184.86,956.977 1188.82,947.769 1192.77,894.885 1196.73,799.445 1200.68,682.929 1204.64,578.128 1208.59,514.777 1212.55,506.545 1216.5,545.386 1220.46,605.771 1224.41,656.751 1228.36,676.155 1232.32,660.312 1236.27,624.865 1240.23,596.421 1244.18,599.069 1248.14,642.182 1252.09,715.236 1256.05,792.071 1260,842.588 1263.96,846.416 1267.91,802.18 1271.86,728.113 1275.82,653.772 1279.77,606.776 1283.73,600.731 1287.68,629.908 1291.64,673.019 1295.59,704.184 1299.55,705.85 1303.5,677.563 1307.46,636.487 1311.41,609.46 1315.36,620.352 1319.32,678.638 1323.27,774.538 1327.23,882.952 1331.18,974.342 1335.14,1027.49 1339.09,1038.26 1343.05,1020.33 1347,997.765 1350.96,992.996 1354.91,1015.83 1358.86,1058.76 1362.82,1100.57 1366.77,1116.64 1370.73,1090.93 1374.68,1024.11 1378.64,933.937 1382.59,847.812 1386.55,790.88 1390.5,775.267 1394.45,795.344 1398.41,831.151 1402.36,858.255 1406.32,859.37 1410.27,832.308 1414.23,790.594 1418.18,756.536 1422.14,750.105 1426.09,778.875 1430.05,833.776 1434,892.644 1437.95,929.921 1441.91,927.984 1445.86,884.858 1449.82,814.796 1453.77,741.516 1457.73,687.337 1461.68,663.27 1465.64,664.659 1469.59,674.304 1473.55,671.485 1477.5,642.586 1481.45,588.271 1485.41,523.85 1489.36,472.663 1493.32,455.576 1497.27,481.5 1501.23,543.301 1505.18,620.996 1509.14,690.671 1513.09,734.979 1517.05,750.337 1521,747.571 1524.95,745.814 1528.91,762.633 1532.86,805.062 1536.82,865.773 1540.77,926.164 1544.73,964.887 1548.68,967.811 1552.64,934.76 1556.59,879.885 1560.55,825.531 1564.5,792.443 1568.45,790.87 1572.41,816.636 1576.36,853.907 1580.32,883.257 1584.27,891.183 1588.23,876.591 1592.18,851.23 1596.14,833.938 1600.09,841.422 1604.05,879.943 1608,941.802 1611.95,1008.28 1615.91,1057.65 1619.86,1074.56 1623.82,1056.45 1627.77,1014.08 1631.73,966.031 1635.68,929.835 1639.64,913.837 1643.59,913.682 1647.54,914.916 1651.5,900.453 1655.45,859.332 1659.41,792.626 1663.36,713.704 1667.32,642.742 1671.27,598.007 1675.23,587.967 1679.18,607.87 1683.14,642.292 1687.09,672.442 1691.04,684.753 1695,676.781 1698.95,657.713 1702.91,643.34 1706.86,647.922 1710.82,676.836 1714.77,723.46 1718.73,771.77 1722.68,803.434 1726.64,806.082 1730.59,778.919 1734.54,733.089 1738.5,686.655 1742.45,656.564 1746.41,651.319 1750.36,667.743 1754.32,693.236 1758.27,712.389 1762.23,714.782 1766.18,700.267 1770.14,679.278 1774.09,668.015 1778.04,680.797 1782,723.158 1785.95,788.915 1789.91,862.569 1793.86,925.907 1797.82,965.739 1801.77,979.219 1805.73,974.321 1809.68,965.36 1813.64,965.724 1817.59,981.255 1821.54,1007.4 1825.5,1031.4 1829.45,1038.54 1833.41,1019.32 1837.36,974.419 1841.32,914.893 1845.27,857.621 1849.23,818.117 1853.18,803.978 1857.13,812.014 1861.09,830.301 1865.04,844.133 1869,843.053 1872.95,825.664 1876.91,800.006 1880.86,779.381 1884.82,775.64 1888.77,793.118 1892.73,826.085 1896.68,860.914 1900.63,881.967 1904.59,878.461 1908.54,849.151 1912.5,802.677 1916.45,753.485 1920.41,715.241 1924.36,694.83 1928.32,689.705 1932.27,689.759 1936.23,682.762 1940.18,660.768 1944.13,624.436 1948.09,583.233 1952.04,551.421 1956,541.689 1959.95,559.415 1963.91,600.192 1967.86,651.769 1971.82,699.455 1975.77,732.486 1979.73,748.393 1983.68,753.419 1987.63,758.841 1991.59,775.02 1995.54,805.992 1999.5,847.165 2003.45,887.197 2007.41,913.154 2011.36,916.542 2015.32,897.369 2019.27,864.364 2023.23,831.249 2027.18,810.799 2031.13,809.442 2035.09,824.861 2039.04,847.655 2043,866.202 2046.95,872.402 2050.91,865.597 2054.86,852.836 2058.82,845.389 2062.77,853.186 2066.72,879.795 2070.68,920.317 2074.63,963.174 2078.59,994.984 2082.54,1006.25 2086.5,995.25 2090.45,968.387 2094.41,936.861 2098.36,911.297 2102.32,896.845 2106.27,891.032 2110.22,885.333 2114.18,869.673 2118.13,837.705 2122.09,790.371 2126.04,736.039 2130,687.167 2133.95,655.012 2137.91,644.85 2141.86,653.891 2145.82,672.827 2149.77,690.242 2153.72,697.819 2157.68,693.921 2161.63,683.906 2165.59,677.106 2169.54,681.922 2173.5,701.394 2177.45,731.329 2181.41,761.892 2185.36,781.898 2189.32,783.832 2193.27,767.238 2197.22,738.939 2201.18,709.995 2205.13,690.827 2209.09,686.778 2213.04,696.13 2217,711.463 2220.95,723.631 2224.91,726.47 2228.86,719.981 2232.82,710.506 2236.77,707.816 2240.72,720.479 2244.68,751.695 2248.63,797.523 2252.59,848.354 2256.54,892.912 2260.5,922.956 2264.45,936.511 2268.41,938.177 2272.36,936.431 2276.31,939.238 2280.27,950.063 2284.22,966.143 2288.18,979.822 2292.13,982.298 "/>
<polyline clip-path="url(#clip321)" style="stroke:#3da44d; stroke-linecap:round; stroke-linejoin:round; stroke-width:8; stroke-opacity:1; fill:none" stroke-dasharray="4, 8" points="271.369,846.384 275.323,580.763 279.278,341.253 283.232,207.266 287.187,214.833 291.142,341.237 295.096,516.626 299.051,656.956 303.005,702.728 306.96,645.483 310.914,529.885 314.869,430.753 318.823,416.071 322.778,513.481 326.732,695.978 330.687,893.43 334.641,1024.45 338.596,1033.67 342.55,917.075 346.505,723.69 350.459,533 354.414,418.82 358.368,416.43 362.323,508.17 366.278,633.916 370.232,721.207 374.187,720.685 378.141,630.178 382.096,496.193 386.05,392.261 390.005,384.376 393.959,499.736 397.914,713.378 401.868,958.817 405.823,1157.65 409.777,1254.29 413.732,1239.68 417.686,1153.24 421.641,1062.41 425.595,1029.64 429.55,1082.35 433.505,1200.03 437.459,1324.17 441.414,1386.4 445.368,1341.36 449.323,1188.99 453.277,975.773 457.232,774.447 461.186,651.712 465.141,638.909 469.095,719.226 473.05,837.129 477.004,925.362 480.959,936.731 484.913,865.814 488.868,750.571 492.822,653.341 496.777,630.319 500.732,703.942 504.686,851.136 508.641,1012.89 512.595,1120.63 516.55,1127.07 520.504,1027.23 524.459,859.942 528.413,689.429 532.368,575.583 536.322,546.993 540.277,589.125 544.231,652.966 548.186,679.843 552.14,630.572 556.095,505.218 560.049,344.213 564.004,210.371 567.959,160.256 571.913,218.288 575.868,365.585 579.822,548.629 583.777,703.588 587.731,784.878 591.686,784.723 595.64,734.776 599.595,689.314 603.549,698.115 607.504,781.851 611.458,921.538 615.413,1066.91 619.367,1159.7 623.322,1160.88 627.276,1069.15 631.231,921.96 635.185,778.933 639.14,695.168 643.095,697.077 647.049,771.77 651.004,874.733 654.958,951.97 658.913,966.079 662.867,914.011 666.822,828.28 670.776,761.194 674.731,759.614 678.685,842.139 682.64,989.403 686.594,1151.98 690.549,1272.15 694.503,1309.44 698.458,1258.01 702.412,1148.05 706.367,1030.69 710.322,953.647 714.276,939.123 718.231,974.135 722.185,1017.74 726.14,1021.5 730.094,953.586 734.049,814.953 738.003,640.272 741.958,482.998 745.912,391.668 749.867,388.437 753.821,459.756 757.776,563.391 761.73,648.353 765.685,678.344 769.639,647.814 773.594,583.254 777.549,529.342 781.503,526.612 785.458,591.227 789.412,706.369 793.367,829.242 797.321,910.375 801.276,916.194 805.23,844.344 809.185,724.7 813.139,605.699 817.094,532.452 821.048,526.825 825.003,578.689 828.957,652.21 832.912,704.037 836.866,704.697 840.821,653.136 844.776,577.601 848.73,522.526 852.685,527.628 856.639,609.009 860.594,751.087 864.548,913.073 868.503,1046.91 872.457,1118.32 876.412,1121.21 880.366,1078.87 884.321,1031.65 888.275,1017 892.23,1051.35 896.184,1122.28 900.139,1194.56 904.093,1227.13 908.048,1192.96 912.003,1092.54 915.957,954.547 919.912,823.561 923.866,740.485 927.821,724.767 931.775,766.629 935.73,832.743 939.684,882.554 943.639,887.497 947.593,844.138 951.548,775.158 955.502,717.888 959.457,705.873 963.411,752.203 967.366,842.447 971.32,940.475 975.275,1004.45 979.229,1005.53 983.184,940.582 987.139,833.121 991.093,722.156 995.048,644.215 999.002,617.002 1002.96,632.216 1006.91,660.756 1010.87,667.692 1014.82,629.857 1018.77,547.77 1022.73,446.274 1026.68,363.631 1030.64,334.187 1034.59,372.692 1038.55,467.559 1042.5,586.117 1046.46,689.339 1050.41,749.154 1054.37,760.307 1058.32,741.384 1062.27,724.677 1066.23,739.815 1070.18,798.911 1074.14,890.2 1078.09,983.122 1082.05,1042.42 1086,1044.6 1089.96,989.094 1093.91,898.914 1097.87,810.515 1101.82,757.671 1105.77,756.801 1109.73,800.514 1113.68,862.229 1117.64,909.535 1121.59,919.945 1125.55,891.632 1129.5,844.158 1133.46,808.937 1137.41,813.987 1141.37,870.152 1145.32,965.258 1149.27,1068.93 1153.23,1145.8 1157.18,1170.97 1161.14,1140.6 1165.09,1072.74 1169.05,998.198 1173,945.904 1176.96,929.445 1180.91,941.262 1184.86,956.977 1188.82,947.769 1192.77,894.885 1196.73,799.445 1200.68,682.929 1204.64,578.128 1208.59,514.777 1212.55,506.545 1216.5,545.386 1220.46,605.771 1224.41,656.751 1228.36,676.155 1232.32,660.312 1236.27,624.865 1240.23,596.421 1244.18,599.069 1248.14,642.182 1252.09,715.236 1256.05,792.071 1260,842.588 1263.96,846.416 1267.91,802.18 1271.86,728.113 1275.82,653.772 1279.77,606.776 1283.73,600.731 1287.68,629.908 1291.64,673.019 1295.59,704.184 1299.55,705.85 1303.5,677.563 1307.46,636.487 1311.41,609.46 1315.36,620.352 1319.32,678.638 1323.27,774.538 1327.23,882.952 1331.18,974.342 1335.14,1027.49 1339.09,1038.26 1343.05,1020.33 1347,997.765 1350.96,992.996 1354.91,1015.83 1358.86,1058.76 1362.82,1100.57 1366.77,1116.64 1370.73,1090.93 1374.68,1024.11 1378.64,933.937 1382.59,847.812 1386.55,790.88 1390.5,775.267 1394.45,795.344 1398.41,831.151 1402.36,858.255 1406.32,859.37 1410.27,832.308 1414.23,790.594 1418.18,756.536 1422.14,750.105 1426.09,778.875 1430.05,833.776 1434,892.644 1437.95,929.921 1441.91,927.984 1445.86,884.858 1449.82,814.796 1453.77,741.516 1457.73,687.337 1461.68,663.27 1465.64,664.659 1469.59,674.304 1473.55,671.485 1477.5,642.586 1481.45,588.271 1485.41,523.85 1489.36,472.663 1493.32,455.576 1497.27,481.5 1501.23,543.301 1505.18,620.996 1509.14,690.671 1513.09,734.979 1517.05,750.337 1521,747.571 1524.95,745.814 1528.91,762.633 1532.86,805.062 1536.82,865.773 1540.77,926.164 1544.73,964.887 1548.68,967.811 1552.64,934.76 1556.59,879.885 1560.55,825.531 1564.5,792.443 1568.45,790.87 1572.41,816.636 1576.36,853.907 1580.32,883.257 1584.27,891.183 1588.23,876.591 1592.18,851.23 1596.14,833.938 1600.09,841.422 1604.05,879.943 1608,941.802 1611.95,1008.28 1615.91,1057.65 1619.86,1074.56 1623.82,1056.45 1627.77,1014.08 1631.73,966.031 1635.68,929.835 1639.64,913.837 1643.59,913.682 1647.54,914.916 1651.5,900.453 1655.45,859.332 1659.41,792.626 1663.36,713.704 1667.32,642.742 1671.27,598.007 1675.23,587.967 1679.18,607.87 1683.14,642.292 1687.09,672.442 1691.04,684.753 1695,676.781 1698.95,657.713 1702.91,643.34 1706.86,647.922 1710.82,676.836 1714.77,723.46 1718.73,771.77 1722.68,803.434 1726.64,806.082 1730.59,778.919 1734.54,733.089 1738.5,686.655 1742.45,656.564 1746.41,651.319 1750.36,667.743 1754.32,693.236 1758.27,712.389 1762.23,714.782 1766.18,700.267 1770.14,679.278 1774.09,668.015 1778.04,680.797 1782,723.158 1785.95,788.915 1789.91,862.569 1793.86,925.907 1797.82,965.739 1801.77,979.219 1805.73,974.321 1809.68,965.36 1813.64,965.724 1817.59,981.255 1821.54,1007.4 1825.5,1031.4 1829.45,1038.54 1833.41,1019.32 1837.36,974.419 1841.32,914.893 1845.27,857.621 1849.23,818.117 1853.18,803.978 1857.13,812.014 1861.09,830.301 1865.04,844.133 1869,843.053 1872.95,825.664 1876.91,800.006 1880.86,779.381 1884.82,775.64 1888.77,793.118 1892.73,826.085 1896.68,860.914 1900.63,881.967 1904.59,878.461 1908.54,849.151 1912.5,802.677 1916.45,753.485 1920.41,715.241 1924.36,694.83 1928.32,689.705 1932.27,689.759 1936.23,682.762 1940.18,660.768 1944.13,624.436 1948.09,583.233 1952.04,551.421 1956,541.689 1959.95,559.415 1963.91,600.192 1967.86,651.769 1971.82,699.455 1975.77,732.486 1979.73,748.393 1983.68,753.419 1987.63,758.841 1991.59,775.02 1995.54,805.992 1999.5,847.165 2003.45,887.197 2007.41,913.154 2011.36,916.542 2015.32,897.369 2019.27,864.364 2023.23,831.249 2027.18,810.799 2031.13,809.442 2035.09,824.861 2039.04,847.655 2043,866.202 2046.95,872.402 2050.91,865.597 2054.86,852.836 2058.82,845.389 2062.77,853.186 2066.72,879.795 2070.68,920.317 2074.63,963.174 2078.59,994.984 2082.54,1006.25 2086.5,995.25 2090.45,968.387 2094.41,936.861 2098.36,911.297 2102.32,896.845 2106.27,891.032 2110.22,885.333 2114.18,869.673 2118.13,837.705 2122.09,790.371 2126.04,736.039 2130,687.167 2133.95,655.012 2137.91,644.85 2141.86,653.891 2145.82,672.827 2149.77,690.242 2153.72,697.819 2157.68,693.921 2161.63,683.906 2165.59,677.106 2169.54,681.922 2173.5,701.394 2177.45,731.329 2181.41,761.892 2185.36,781.898 2189.32,783.832 2193.27,767.238 2197.22,738.939 2201.18,709.995 2205.13,690.827 2209.09,686.778 2213.04,696.13 2217,711.463 2220.95,723.631 2224.91,726.47 2228.86,719.981 2232.82,710.506 2236.77,707.816 2240.72,720.479 2244.68,751.695 2248.63,797.523 2252.59,848.354 2256.54,892.912 2260.5,922.956 2264.45,936.511 2268.41,938.177 2272.36,936.431 2276.31,939.238 2280.27,950.063 2284.22,966.143 2288.18,979.822 2292.13,982.298 "/>
<path clip-path="url(#clip320)" d="M1888.75 374.156 L2281.36 374.156 L2281.36 166.796 L1888.75 166.796  Z" fill="#ffffff" fill-rule="evenodd" fill-opacity="1"/>
<polyline clip-path="url(#clip320)" style="stroke:#000000; stroke-linecap:round; stroke-linejoin:round; stroke-width:4; stroke-opacity:1; fill:none" points="1888.75,374.156 2281.36,374.156 2281.36,166.796 1888.75,166.796 1888.75,374.156 "/>
<polyline clip-path="url(#clip320)" style="stroke:#009af9; stroke-linecap:round; stroke-linejoin:round; stroke-width:8; stroke-opacity:0.5; fill:none" points="1912.55,218.636 2055.35,218.636 "/>
<path clip-path="url(#clip320)" d="M2095.17 204.527 Q2090.08 204.527 2087.07 208.323 Q2084.08 212.12 2084.08 218.67 Q2084.08 225.198 2087.07 228.994 Q2090.08 232.791 2095.17 232.791 Q2100.26 232.791 2103.23 228.994 Q2106.21 225.198 2106.21 218.67 Q2106.21 212.12 2103.23 208.323 Q2100.26 204.527 2095.17 204.527 M2095.17 200.731 Q2102.44 200.731 2106.79 205.615 Q2111.14 210.476 2111.14 218.67 Q2111.14 226.842 2106.79 231.726 Q2102.44 236.587 2095.17 236.587 Q2087.88 236.587 2083.51 231.726 Q2079.15 226.865 2079.15 218.67 Q2079.15 210.476 2083.51 205.615 Q2087.88 200.731 2095.17 200.731 Z" fill="#000000" fill-rule="nonzero" fill-opacity="1" /><path clip-path="url(#clip320)" d="M2133.3 213.971 Q2132.58 213.555 2131.72 213.37 Q2130.89 213.161 2129.87 213.161 Q2126.26 213.161 2124.32 215.522 Q2122.39 217.86 2122.39 222.258 L2122.39 235.916 L2118.11 235.916 L2118.11 209.99 L2122.39 209.99 L2122.39 214.018 Q2123.74 211.657 2125.89 210.522 Q2128.04 209.365 2131.12 209.365 Q2131.56 209.365 2132.09 209.434 Q2132.63 209.481 2133.27 209.596 L2133.3 213.971 Z" fill="#000000" fill-rule="nonzero" fill-opacity="1" /><path clip-path="url(#clip320)" d="M2137.76 209.99 L2142.02 209.99 L2142.02 235.916 L2137.76 235.916 L2137.76 209.99 M2137.76 199.897 L2142.02 199.897 L2142.02 205.291 L2137.76 205.291 L2137.76 199.897 Z" fill="#000000" fill-rule="nonzero" fill-opacity="1" /><path clip-path="url(#clip320)" d="M2168 222.652 Q2168 218.022 2166.07 215.476 Q2164.18 212.93 2160.73 212.93 Q2157.3 212.93 2155.38 215.476 Q2153.48 218.022 2153.48 222.652 Q2153.48 227.258 2155.38 229.805 Q2157.3 232.351 2160.73 232.351 Q2164.18 232.351 2166.07 229.805 Q2168 227.258 2168 222.652 M2172.25 232.698 Q2172.25 239.318 2169.32 242.536 Q2166.38 245.777 2160.31 245.777 Q2158.07 245.777 2156.07 245.43 Q2154.08 245.105 2152.21 244.411 L2152.21 240.268 Q2154.08 241.286 2155.91 241.772 Q2157.74 242.258 2159.64 242.258 Q2163.83 242.258 2165.91 240.059 Q2168 237.883 2168 233.462 L2168 231.356 Q2166.68 233.647 2164.62 234.781 Q2162.56 235.916 2159.69 235.916 Q2154.92 235.916 2152 232.281 Q2149.08 228.647 2149.08 222.652 Q2149.08 216.633 2152 212.999 Q2154.92 209.365 2159.69 209.365 Q2162.56 209.365 2164.62 210.499 Q2166.68 211.633 2168 213.925 L2168 209.99 L2172.25 209.99 L2172.25 232.698 Z" fill="#000000" fill-rule="nonzero" fill-opacity="1" /><path clip-path="url(#clip320)" d="M2181.03 209.99 L2185.29 209.99 L2185.29 235.916 L2181.03 235.916 L2181.03 209.99 M2181.03 199.897 L2185.29 199.897 L2185.29 205.291 L2181.03 205.291 L2181.03 199.897 Z" fill="#000000" fill-rule="nonzero" fill-opacity="1" /><path clip-path="url(#clip320)" d="M2215.75 220.268 L2215.75 235.916 L2211.49 235.916 L2211.49 220.407 Q2211.49 216.726 2210.06 214.897 Q2208.62 213.069 2205.75 213.069 Q2202.3 213.069 2200.31 215.268 Q2198.32 217.467 2198.32 221.263 L2198.32 235.916 L2194.04 235.916 L2194.04 209.99 L2198.32 209.99 L2198.32 214.018 Q2199.85 211.68 2201.91 210.522 Q2203.99 209.365 2206.7 209.365 Q2211.17 209.365 2213.46 212.143 Q2215.75 214.897 2215.75 220.268 Z" fill="#000000" fill-rule="nonzero" fill-opacity="1" /><path clip-path="url(#clip320)" d="M2236.03 222.883 Q2230.87 222.883 2228.88 224.064 Q2226.88 225.244 2226.88 228.092 Q2226.88 230.36 2228.37 231.703 Q2229.87 233.022 2232.44 233.022 Q2235.98 233.022 2238.11 230.522 Q2240.26 227.999 2240.26 223.832 L2240.26 222.883 L2236.03 222.883 M2244.52 221.124 L2244.52 235.916 L2240.26 235.916 L2240.26 231.981 Q2238.81 234.342 2236.63 235.476 Q2234.45 236.587 2231.31 236.587 Q2227.32 236.587 2224.96 234.365 Q2222.63 232.119 2222.63 228.369 Q2222.63 223.994 2225.54 221.772 Q2228.48 219.55 2234.29 219.55 L2240.26 219.55 L2240.26 219.133 Q2240.26 216.194 2238.32 214.596 Q2236.4 212.976 2232.9 212.976 Q2230.68 212.976 2228.57 213.508 Q2226.47 214.041 2224.52 215.106 L2224.52 211.17 Q2226.86 210.268 2229.06 209.828 Q2231.26 209.365 2233.34 209.365 Q2238.97 209.365 2241.75 212.282 Q2244.52 215.198 2244.52 221.124 Z" fill="#000000" fill-rule="nonzero" fill-opacity="1" /><path clip-path="url(#clip320)" d="M2253.3 199.897 L2257.56 199.897 L2257.56 235.916 L2253.3 235.916 L2253.3 199.897 Z" fill="#000000" fill-rule="nonzero" fill-opacity="1" /><polyline clip-path="url(#clip320)" style="stroke:#e26f46; stroke-linecap:round; stroke-linejoin:round; stroke-width:8; stroke-opacity:1; fill:none" stroke-dasharray="32, 20" points="1912.55,270.476 2055.35,270.476 "/>
<path clip-path="url(#clip320)" d="M2101.4 254.33 L2101.4 258.89 Q2098.74 257.617 2096.38 256.992 Q2094.01 256.367 2091.82 256.367 Q2088 256.367 2085.91 257.848 Q2083.85 259.33 2083.85 262.061 Q2083.85 264.353 2085.22 265.534 Q2086.61 266.691 2090.45 267.409 L2093.27 267.987 Q2098.51 268.983 2100.98 271.506 Q2103.48 274.006 2103.48 278.219 Q2103.48 283.242 2100.1 285.834 Q2096.75 288.427 2090.24 288.427 Q2087.79 288.427 2085.01 287.871 Q2082.26 287.316 2079.29 286.228 L2079.29 281.413 Q2082.14 283.01 2084.87 283.821 Q2087.6 284.631 2090.24 284.631 Q2094.25 284.631 2096.42 283.057 Q2098.6 281.483 2098.6 278.566 Q2098.6 276.02 2097.02 274.584 Q2095.47 273.149 2091.91 272.432 L2089.06 271.876 Q2083.83 270.835 2081.49 268.612 Q2079.15 266.39 2079.15 262.432 Q2079.15 257.848 2082.37 255.21 Q2085.61 252.571 2091.28 252.571 Q2093.71 252.571 2096.24 253.011 Q2098.76 253.45 2101.4 254.33 Z" fill="#000000" fill-rule="nonzero" fill-opacity="1" /><path clip-path="url(#clip320)" d="M2119.69 287.756 L2106.49 253.196 L2111.38 253.196 L2122.32 282.293 L2133.3 253.196 L2138.16 253.196 L2124.99 287.756 L2119.69 287.756 Z" fill="#000000" fill-rule="nonzero" fill-opacity="1" /><path clip-path="url(#clip320)" d="M2147.88 257.038 L2147.88 283.913 L2153.53 283.913 Q2160.68 283.913 2163.99 280.672 Q2167.32 277.432 2167.32 270.441 Q2167.32 263.497 2163.99 260.279 Q2160.68 257.038 2153.53 257.038 L2147.88 257.038 M2143.2 253.196 L2152.81 253.196 Q2162.86 253.196 2167.56 257.386 Q2172.25 261.552 2172.25 270.441 Q2172.25 279.376 2167.53 283.566 Q2162.81 287.756 2152.81 287.756 L2143.2 287.756 L2143.2 253.196 Z" fill="#000000" fill-rule="nonzero" fill-opacity="1" /><polyline clip-path="url(#clip320)" style="stroke:#3da44d; stroke-linecap:round; stroke-linejoin:round; stroke-width:8; stroke-opacity:1; fill:none" stroke-dasharray="4, 8" points="1912.55,322.316 2055.35,322.316 "/>
<path clip-path="url(#clip320)" d="M2095.54 323.392 Q2097.05 323.901 2098.46 325.568 Q2099.89 327.235 2101.33 330.151 L2106.07 339.596 L2101.05 339.596 L2096.63 330.73 Q2094.92 327.258 2093.3 326.124 Q2091.7 324.989 2088.92 324.989 L2083.83 324.989 L2083.83 339.596 L2079.15 339.596 L2079.15 305.036 L2089.71 305.036 Q2095.64 305.036 2098.55 307.513 Q2101.47 309.989 2101.47 314.989 Q2101.47 318.253 2099.94 320.406 Q2098.44 322.559 2095.54 323.392 M2083.83 308.878 L2083.83 321.147 L2089.71 321.147 Q2093.09 321.147 2094.8 319.596 Q2096.54 318.022 2096.54 314.989 Q2096.54 311.957 2094.8 310.429 Q2093.09 308.878 2089.71 308.878 L2083.83 308.878 Z" fill="#000000" fill-rule="nonzero" fill-opacity="1" /><path clip-path="url(#clip320)" d="M2132.81 306.17 L2132.81 310.73 Q2130.15 309.457 2127.79 308.832 Q2125.43 308.207 2123.23 308.207 Q2119.41 308.207 2117.32 309.688 Q2115.26 311.17 2115.26 313.901 Q2115.26 316.193 2116.63 317.374 Q2118.02 318.531 2121.86 319.249 L2124.69 319.827 Q2129.92 320.823 2132.39 323.346 Q2134.89 325.846 2134.89 330.059 Q2134.89 335.082 2131.51 337.674 Q2128.16 340.267 2121.65 340.267 Q2119.2 340.267 2116.42 339.711 Q2113.67 339.156 2110.7 338.068 L2110.7 333.253 Q2113.55 334.85 2116.28 335.661 Q2119.01 336.471 2121.65 336.471 Q2125.66 336.471 2127.83 334.897 Q2130.01 333.323 2130.01 330.406 Q2130.01 327.86 2128.44 326.424 Q2126.88 324.989 2123.32 324.272 L2120.47 323.716 Q2115.24 322.675 2112.9 320.452 Q2110.57 318.23 2110.57 314.272 Q2110.57 309.688 2113.78 307.05 Q2117.02 304.411 2122.7 304.411 Q2125.13 304.411 2127.65 304.851 Q2130.17 305.29 2132.81 306.17 Z" fill="#000000" fill-rule="nonzero" fill-opacity="1" /><path clip-path="url(#clip320)" d="M2151.1 339.596 L2137.9 305.036 L2142.79 305.036 L2153.74 334.133 L2164.71 305.036 L2169.57 305.036 L2156.4 339.596 L2151.1 339.596 Z" fill="#000000" fill-rule="nonzero" fill-opacity="1" /><path clip-path="url(#clip320)" d="M2179.29 308.878 L2179.29 335.753 L2184.94 335.753 Q2192.09 335.753 2195.4 332.512 Q2198.74 329.272 2198.74 322.281 Q2198.74 315.337 2195.4 312.119 Q2192.09 308.878 2184.94 308.878 L2179.29 308.878 M2174.62 305.036 L2184.22 305.036 Q2194.27 305.036 2198.97 309.226 Q2203.67 313.392 2203.67 322.281 Q2203.67 331.216 2198.94 335.406 Q2194.22 339.596 2184.22 339.596 L2174.62 339.596 L2174.62 305.036 Z" fill="#000000" fill-rule="nonzero" fill-opacity="1" /></svg>
